<svg width="188" height="190" viewBox="0 0 188 190" fill="none" xmlns="http://www.w3.org/2000/svg">
<path d="M165.495 161.839C161.651 165.891 158.014 168.505 155.141 170.569C121.363 194.84 81.3945 187.765 72.8997 186.037C60.3562 183.486 36.11 178.556 18.5805 157.912C-7.9411 126.681 -3.81096 77.476 16.7604 44.9982C20.5233 39.0566 40.4001 6.08143 80.7961 0.793325C105.245 -2.4075 133.745 4.05047 154.383 21.3629C197.708 57.7058 194.625 131.132 165.495 161.839Z" fill="url(#paint0_linear_3349_80811)"/>
<path d="M187.994 71.5024C187.986 70.3998 186.503 70.0388 185.996 71.0173C181.086 80.4806 167.434 104.89 151.912 116.114C126.642 134.389 105.319 168.183 114.537 189.919C114.54 189.919 188.787 191.684 187.994 71.5024Z" fill="#BDD0FB"/>
<path opacity="0.43" d="M183.027 85.4321C182.933 85.7551 182.83 86.0144 182.731 86.298L182.422 87.1279L181.786 88.7795C181.355 89.8768 180.905 90.9673 180.459 92.0584C179.555 94.2357 178.627 96.4028 177.674 98.5598C175.764 102.872 173.739 107.131 171.65 111.36C169.56 115.588 167.365 119.764 165.077 123.889C162.788 128.015 160.432 132.1 157.947 136.116C152.995 144.148 147.601 151.919 141.68 159.276C138.682 162.922 135.587 166.492 132.292 169.876C128.971 173.233 125.511 176.451 121.829 179.402C121.791 179.434 121.742 179.449 121.693 179.444C121.644 179.44 121.599 179.416 121.568 179.378C121.536 179.34 121.521 179.292 121.525 179.242C121.53 179.193 121.553 179.148 121.591 179.116C125.138 176.036 128.523 172.774 131.735 169.345C134.957 165.928 137.978 162.327 140.9 158.653C143.823 154.978 146.592 151.182 149.281 147.327C151.97 143.473 154.49 139.505 156.991 135.526C161.962 127.545 166.504 119.301 170.815 110.941C172.962 106.756 175.028 102.529 177.013 98.2612C178.01 96.1305 178.986 93.9896 179.94 91.8385L181.341 88.5997L182.025 86.9711L182.357 86.1569C182.462 85.8854 182.579 85.6004 182.66 85.3609L182.674 85.3215C182.689 85.2747 182.721 85.2355 182.765 85.2127C182.808 85.19 182.859 85.1854 182.906 85.2001C182.952 85.2147 182.992 85.2474 183.014 85.291C183.037 85.3345 183.042 85.3853 183.027 85.4321Z" fill="white"/>
<path d="M158.113 24.8167C157.806 23.8077 156.351 23.8816 156.148 24.9178C154.223 34.9369 148.355 61.0511 137.179 75.584C118.984 99.2465 108.635 136.062 123.01 153.477C123.012 153.477 191.579 134.813 158.113 24.8167Z" fill="#91B3FA"/>
<path opacity="0.43" d="M157.354 38.95C157.354 39.273 157.333 39.5383 157.319 39.826L157.262 40.6715L157.127 42.3598C157.03 43.4842 156.917 44.6066 156.803 45.7289C156.568 47.9727 156.307 50.2141 156.021 52.4529C155.446 56.9315 154.75 61.389 153.989 65.837C153.228 70.2851 152.35 74.7107 151.374 79.1214C150.399 83.5321 149.354 87.9232 148.168 92.2816C145.814 101.001 142.984 109.6 139.558 117.965C137.801 122.128 135.935 126.248 133.834 130.247C131.704 134.232 129.405 138.129 126.831 141.84C126.804 141.879 126.763 141.906 126.717 141.915C126.67 141.924 126.622 141.915 126.583 141.888C126.543 141.862 126.515 141.822 126.506 141.775C126.496 141.729 126.504 141.68 126.53 141.64C128.942 137.846 131.157 133.929 133.166 129.906C135.19 125.893 136.978 121.764 138.655 117.597C140.332 113.431 141.84 109.19 143.254 104.921C144.669 100.653 145.897 96.3252 147.109 91.9939C149.493 83.317 151.413 74.5166 153.091 65.6721C153.92 61.2479 154.664 56.8077 155.323 52.3518C155.657 50.1256 155.968 47.8958 156.258 45.6624L156.661 42.3096L156.846 40.6322L156.929 39.7928C156.952 39.5214 156.981 39.2221 156.99 38.9785V38.9378C156.994 38.8921 157.015 38.8494 157.049 38.8185C157.082 38.7876 157.127 38.7709 157.173 38.7716C157.218 38.7724 157.262 38.7907 157.295 38.8227C157.328 38.8547 157.347 38.8981 157.349 38.9439L157.354 38.95Z" fill="white"/>
<path d="M36.9984 34.5006C36.352 60.6066 34.2561 150.656 35.2563 182.565C35.3069 184.193 35.975 185.741 37.1246 186.894C38.2742 188.046 39.8191 188.717 41.445 188.77C58.1417 189.317 106.174 190.704 133.484 189.556C136.223 189.443 138.816 188.29 140.735 186.33C142.654 184.37 143.755 181.751 143.813 179.007C144.381 151.606 145.633 74.535 142.657 39.2289C142.485 37.1791 141.602 35.2544 140.16 33.7888C138.719 32.3232 136.81 31.4092 134.766 31.2055C116.583 29.3821 68.2878 24.9314 44.6929 26.4643C42.64 26.6001 40.7121 27.5 39.2883 28.9871C37.8644 30.4743 37.0476 32.441 36.9984 34.5006Z" fill="url(#paint1_linear_3349_80811)"/>
<path d="M43.7821 42.6143C42.87 63.9947 39.9935 135.123 40.9063 161.425C40.969 163.279 41.721 165.043 43.0149 166.371C44.3088 167.698 46.0512 168.494 47.9007 168.603C63.6894 169.528 104.186 171.568 127.345 169.711C129.361 169.548 131.249 168.657 132.66 167.206C134.07 165.754 134.906 163.839 135.013 161.816C136.186 140.004 139.553 73.7729 138.681 47.766C138.613 45.7611 137.814 43.8505 136.437 42.3938C135.06 40.9372 133.198 40.035 131.203 39.8573C114.122 38.3216 70.2516 34.6675 50.5726 35.7431C48.7906 35.839 47.1081 36.5958 45.8528 37.866C44.5975 39.1362 43.8593 40.8289 43.7821 42.6143Z" fill="#91B3FA"/>
<path opacity="0.5" d="M78.2618 31.0263C78.2614 31.4118 78.4089 31.7827 78.6736 32.0625C78.9384 32.3423 79.3004 32.5097 79.6848 32.53C83.6286 32.7336 94.7383 33.3219 99.7032 33.6103C99.9315 33.6231 100.16 33.5835 100.37 33.4946C100.581 33.4057 100.769 33.2698 100.919 33.0973C101.069 32.9248 101.178 32.7202 101.238 32.4992C101.297 32.2781 101.305 32.0464 101.262 31.8216L101.231 31.6574C101.169 31.337 101.005 31.0454 100.764 30.8263C100.523 30.6072 100.217 30.4726 99.8923 30.4427C96.5367 30.1354 86.4075 29.281 79.699 29.5212C79.3116 29.5374 78.9455 29.7032 78.6776 29.9838C78.4096 30.2644 78.2606 30.638 78.2618 31.0263Z" fill="white"/>
<path d="M122.436 119.707L55.3066 118.418C53.1185 118.376 51.4705 120.929 51.6508 124.09C51.8296 127.221 54.1126 128.162 56.2586 128.131L121.929 128.657C123.275 128.637 124.475 126.657 124.622 124.219C124.77 121.761 123.798 119.733 122.436 119.707Z" fill="white"/>
<path d="M122.618 140.329L55.4888 139.039C53.3001 138.997 51.6521 141.55 51.8296 144.711C52.0085 147.842 54.2908 148.783 56.4375 148.752L122.108 149.278C123.453 149.258 124.653 147.278 124.801 144.84C124.954 142.38 123.98 140.352 122.618 140.329Z" fill="white"/>
<path d="M93.7964 122.527L57.3652 122.148C56.178 122.135 55.2849 122.821 55.3845 123.67C55.4841 124.519 56.7221 124.765 57.8863 124.755L93.5247 124.928C94.2552 124.924 94.905 124.392 94.9843 123.737C95.0636 123.083 94.5357 122.535 93.7964 122.527Z" fill="url(#paint2_linear_3349_80811)"/>
<path d="M33.678 100.165C33.678 100.165 31.7055 101.126 31.3423 102.23C31.0515 103.116 28.8696 103.23 28.6541 104.972C28.543 105.871 27.8782 106.591 26.9838 106.729C24.7557 107.068 21.3222 108.229 20.7726 112.103C20.3532 115.06 21.8568 116.182 23.4384 116.569C24.5985 116.854 25.3697 117.985 25.1325 119.158C24.9068 120.283 25.2429 121.583 27.1891 122.612C31.551 124.919 35.9074 117.151 35.9074 117.151L36.7999 103.593L33.678 100.165Z" fill="url(#paint3_linear_3349_80811)"/>
<path d="M57.4126 96.9509C57.4126 96.9509 48.7031 110.743 38.3469 113.41C38.3469 113.41 40.3649 119.165 41.9228 119.824C41.9228 119.824 54.6621 109.178 57.9378 98.9106L57.4126 96.9509Z" fill="url(#paint4_linear_3349_80811)"/>
<path d="M15.7487 185.182L15.4668 187.506C15.4412 187.72 15.3443 187.92 15.1917 188.072C15.0392 188.224 14.8399 188.321 14.6259 188.346C13.8805 188.431 12.6886 188.518 11.5203 188.395C11.3999 188.381 11.284 188.34 11.181 188.276C11.078 188.212 10.9904 188.126 10.9245 188.024C10.8586 187.922 10.8161 187.807 10.8 187.687C10.7838 187.567 10.7945 187.444 10.8312 187.328C11.1158 186.431 11.6369 185.085 12.3897 184.293H14.9647C15.0767 184.293 15.1873 184.317 15.2893 184.363C15.3913 184.409 15.4823 184.477 15.5564 184.561C15.6305 184.645 15.6859 184.744 15.7191 184.851C15.7522 184.958 15.7623 185.071 15.7487 185.182Z" fill="url(#paint5_linear_3349_80811)"/>
<path d="M35.9101 157.961L36.3445 160.519C36.3445 160.519 34.8896 175.275 34.6308 181.179C34.5907 182.104 34.8289 183.019 35.3145 183.807L37.8441 187.922L31.4148 184.122L31.2867 183.336L32.339 181.886L30.9601 165.354C30.8792 164.383 31.0794 163.409 31.5367 162.548L32.8649 160.049L35.9101 157.961Z" fill="url(#paint6_linear_3349_80811)"/>
<path d="M38.2676 188.519H36.2158C36.0264 188.52 35.8394 188.477 35.6694 188.393C35.4994 188.309 35.3508 188.188 35.2353 188.038C34.5956 187.206 33.2701 185.582 32.6366 185.539C31.7834 185.482 31.8912 188.519 31.8912 188.519H31.4168L30.811 184.746C30.7367 184.283 30.8097 183.808 31.0197 183.389C31.2297 182.97 31.5661 182.627 31.9813 182.41C31.9813 182.41 32.1765 183.855 33.2336 184.493C34.2907 185.132 37.5365 187.42 37.5365 187.42C37.8141 187.387 38.095 187.395 38.3706 187.442C39.0157 187.557 38.9256 188.519 38.2676 188.519Z" fill="url(#paint7_linear_3349_80811)"/>
<path d="M27.1051 159.176C27.1051 159.176 18.5812 175.367 17.2266 179.063C15.872 182.759 15.397 185.843 15.3787 186.136C15.3503 186.592 14.7838 187.029 13.2212 187.029C12.4155 187.029 12.0204 186.706 11.8266 186.393C11.747 186.261 11.7021 186.11 11.6962 185.956C11.6902 185.802 11.7235 185.649 11.7927 185.511C12.2854 184.511 13.85 181.318 14.4294 179.87C15.1212 178.141 16.61 170.302 17.4258 167.58C18.2417 164.858 19.1646 161.9 22.7188 159.177C22.7174 159.176 25.1576 156.783 27.1051 159.176Z" fill="url(#paint8_linear_3349_80811)"/>
<path d="M32.4875 132.647C34.6864 123.317 29.1163 118.041 29.1163 118.041C32.6311 114.662 39.034 113.125 39.034 113.125C39.034 113.125 45.1442 117.598 44.4198 121.1C43.9949 123.152 40.125 133.392 40.125 133.392C40.125 133.392 36.5464 135.088 32.4875 132.647Z" fill="url(#paint9_linear_3349_80811)"/>
<path d="M27.6133 137.266C28.5078 134.566 32.4875 132.647 32.4875 132.647C36.5465 135.09 40.125 133.394 40.125 133.394C40.125 133.394 40.9273 136.465 40.3737 139.32C39.8201 142.175 36.3445 160.522 36.3445 160.522C30.8686 161.633 22.4471 159.404 22.4471 159.404C25.9348 153.201 26.7182 139.965 27.6133 137.266Z" fill="url(#paint10_linear_3349_80811)"/>
<path d="M35.0401 106.96L33.2525 115C33.0811 115.709 33.7269 115.593 34.4411 115.458C35.612 115.237 37.1211 114.779 37.6259 113.869C37.6743 113.774 37.7053 113.671 37.7174 113.566L38.4851 107.991C38.5148 107.775 38.4737 107.556 38.3681 107.366C38.2625 107.176 38.0981 107.026 37.8997 106.938L36.4177 106.28C36.2838 106.22 36.1384 106.191 35.992 106.194C35.8455 106.197 35.7014 106.232 35.57 106.297C35.4386 106.362 35.323 106.455 35.2315 106.569C35.1399 106.684 35.0746 106.817 35.0401 106.96Z" fill="url(#paint11_linear_3349_80811)"/>
<path d="M38.4635 99.6299C38.4635 99.6299 40.3669 100.919 41.1848 104.206C42.0027 107.492 40.6732 108.669 39.3112 108.597C37.9492 108.524 35.9739 108.103 34.2622 105.747C32.5505 103.391 35.9698 98.0536 38.4635 99.6299Z" fill="url(#paint12_linear_3349_80811)"/>
<path d="M35.9881 104.421C35.9881 104.421 35.2908 99.7133 39.1939 100.433L39.98 101.256C39.98 101.256 41.8902 99.102 39.7767 97.4734C37.6632 95.8448 34.729 96.2621 33.1054 99.2268C31.4818 102.191 30.8998 104.275 32.255 106.117C33.6103 107.959 34.6382 106.379 34.6382 106.379C34.6382 106.379 34.0148 104.785 34.5325 104.1C35.0502 103.416 35.7177 104.499 35.7177 104.499L35.9881 104.421Z" fill="url(#paint13_linear_3349_80811)"/>
<path d="M35.4548 104.824C35.4548 104.824 35.1105 102.402 33.8752 103.095C32.6399 103.788 34.3204 105.357 34.994 105.891L35.4548 104.824Z" fill="url(#paint14_linear_3349_80811)"/>
<path d="M57.3523 99.7907C57.3787 100.075 56.3223 100.272 55.9855 99.0585C56.0784 98.532 56.2424 96.2255 56.6455 95.8693C58.7936 93.9611 62.6236 91.8141 62.6236 91.8141C63.0518 92.4689 62.488 92.8998 62.488 92.8998L60.5758 94.1891C60.7757 94.8507 61.0664 95.435 61.0996 96.1902C61.1191 96.7654 60.9167 97.326 60.5344 97.7557C60.1536 98.1913 59.642 98.7532 59.1792 99.1807C58.3084 99.9889 57.3523 99.7907 57.3523 99.7907Z" fill="url(#paint15_linear_3349_80811)"/>
<path d="M58.3904 98.8495L58.1004 98.7308C58.139 98.6358 59.0565 96.4033 59.4997 95.9392C59.6684 95.7627 59.7504 95.6114 59.743 95.4893C59.7337 95.4135 59.6985 95.3432 59.6433 95.2904L58.095 96.1197L57.4119 97.1911L57.1476 97.0228L57.8747 95.8822L59.686 94.9125L59.7667 94.9803C59.9496 95.1303 60.0445 95.2911 60.0553 95.4723C60.0689 95.6881 59.9611 95.9127 59.7267 96.1583C59.3919 96.5064 58.6486 98.2192 58.3904 98.8495Z" fill="url(#paint16_linear_3349_80811)"/>
<path d="M29.1162 118.041C29.1162 118.041 19.2229 138.387 15.6369 140.162C15.6369 140.162 11.998 140.543 9.77136 141.218C9.21096 141.387 9.22925 142.184 9.7944 142.338C11.3455 142.761 13.9144 143.115 16.2691 141.836C16.2691 141.836 15.0047 143.736 15.7426 144.474C15.7426 144.474 17.4285 142.469 18.0614 141.836C18.6178 141.279 28.7517 130.218 33.0126 123.545C33.3568 123.003 33.1176 121.404 32.8771 120.811C32.3282 119.445 31.1071 117.265 29.1162 118.041Z" fill="url(#paint17_linear_3349_80811)"/>
<path d="M89.7767 106.17C106.17 106.17 119.459 92.862 119.459 76.4458C119.459 60.0296 106.17 46.7217 89.7767 46.7217C73.3834 46.7217 60.0939 60.0296 60.0939 76.4458C60.0939 92.862 73.3834 106.17 89.7767 106.17Z" fill="white"/>
<path d="M99.4078 65.7448C99.4078 70.8164 95.3028 76.2911 90.2382 76.2911C85.1736 76.2911 81.0685 70.8164 81.0685 65.7448C81.0685 60.6731 85.1743 57.0753 90.2382 57.0753C95.3021 57.0753 99.4078 60.6731 99.4078 65.7448Z" fill="url(#paint18_linear_3349_80811)"/>
<path d="M78.8554 95.8143H101.237C102.386 95.8139 103.504 95.4483 104.432 94.7702C105.359 94.0921 106.048 93.1366 106.398 92.0414L107.603 88.272C108.484 85.5115 107.051 82.5224 104.333 81.5276C95.2228 78.1918 85.8031 78.62 76.153 81.835C73.45 82.7362 71.9517 85.635 72.6971 88.3853L73.6248 91.8087C73.9367 92.9587 74.6179 93.974 75.5632 94.6979C76.5085 95.4218 77.6654 95.8141 78.8554 95.8143Z" fill="url(#paint19_linear_3349_80811)"/>
<path d="M61.9215 143.819C61.8995 144.456 61.6305 145.059 61.1717 145.501C60.7128 145.943 60.1002 146.188 59.4638 146.185C59.152 146.182 58.8438 146.117 58.5576 145.993C58.2714 145.869 58.0129 145.689 57.7975 145.463C57.5822 145.238 57.4143 144.971 57.3038 144.679C57.1933 144.387 57.1425 144.076 57.1544 143.764C57.1765 143.126 57.4462 142.522 57.9062 142.08C58.3662 141.638 58.9802 141.393 59.6176 141.398C59.9289 141.401 60.2365 141.467 60.5221 141.591C60.8077 141.715 61.0655 141.896 61.2803 142.121C61.4951 142.347 61.6625 142.614 61.7726 142.905C61.8828 143.197 61.9334 143.508 61.9215 143.819Z" fill="url(#paint20_linear_3349_80811)"/>
<path d="M70.8404 143.925C70.8196 144.558 70.5532 145.159 70.0978 145.598C69.6424 146.038 69.0337 146.283 68.401 146.281C68.091 146.278 67.7848 146.213 67.5005 146.089C67.2162 145.965 66.9596 145.786 66.7459 145.561C66.5323 145.336 66.3659 145.071 66.2566 144.78C66.1473 144.49 66.0975 144.18 66.1099 143.87C66.1307 143.236 66.3977 142.635 66.854 142.195C67.3103 141.755 67.92 141.511 68.5534 141.514C68.863 141.518 69.1687 141.583 69.4525 141.707C69.7363 141.831 69.9924 142.011 70.2056 142.236C70.4188 142.46 70.5849 142.726 70.6939 143.016C70.8029 143.306 70.8528 143.615 70.8404 143.925Z" fill="url(#paint21_linear_3349_80811)"/>
<path d="M80.4017 144.081C80.3797 144.718 80.1107 145.321 79.6519 145.763C79.193 146.205 78.5804 146.45 77.944 146.447C77.6322 146.444 77.324 146.379 77.0378 146.255C76.7516 146.131 76.4931 145.951 76.2778 145.725C76.0624 145.499 75.8945 145.233 75.784 144.941C75.6735 144.649 75.6227 144.337 75.6346 144.025C75.6567 143.388 75.9263 142.784 76.3862 142.342C76.846 141.9 77.4599 141.655 78.0971 141.66C78.4085 141.663 78.7162 141.729 79.0018 141.853C79.2875 141.977 79.5454 142.157 79.7603 142.383C79.9751 142.609 80.1426 142.875 80.2528 143.167C80.363 143.459 80.4136 143.769 80.4017 144.081Z" fill="url(#paint22_linear_3349_80811)"/>
<path d="M99.313 144.306C99.2922 144.94 99.0258 145.54 98.5704 145.98C98.1149 146.42 97.5063 146.664 96.8735 146.662C96.5636 146.659 96.2574 146.594 95.9731 146.47C95.6889 146.346 95.4323 146.167 95.2187 145.942C95.005 145.717 94.8386 145.451 94.7293 145.161C94.6201 144.87 94.5701 144.561 94.5825 144.251C94.6035 143.617 94.8705 143.016 95.3268 142.576C95.7831 142.137 96.3927 141.892 97.026 141.895C97.3356 141.899 97.6413 141.965 97.9251 142.089C98.2088 142.213 98.4649 142.392 98.6781 142.617C98.8914 142.842 99.0574 143.107 99.1665 143.397C99.2755 143.687 99.3253 143.997 99.313 144.306Z" fill="url(#paint23_linear_3349_80811)"/>
<path d="M108.874 144.464C108.852 145.101 108.583 145.704 108.124 146.146C107.666 146.587 107.053 146.832 106.417 146.829C106.105 146.827 105.797 146.762 105.51 146.638C105.224 146.514 104.966 146.334 104.75 146.108C104.535 145.882 104.367 145.615 104.257 145.323C104.146 145.031 104.095 144.72 104.107 144.408C104.129 143.77 104.399 143.166 104.859 142.725C105.319 142.283 105.933 142.039 106.57 142.043C106.882 142.046 107.189 142.112 107.475 142.236C107.76 142.36 108.018 142.541 108.233 142.766C108.448 142.992 108.615 143.258 108.725 143.55C108.835 143.842 108.886 144.152 108.874 144.464Z" fill="url(#paint24_linear_3349_80811)"/>
<path d="M89.3207 144.185C89.2997 144.818 89.0333 145.418 88.5779 145.858C88.1225 146.298 87.5139 146.543 86.8812 146.541C86.5713 146.538 86.2652 146.473 85.981 146.349C85.6968 146.225 85.4403 146.046 85.2267 145.821C85.013 145.596 84.8467 145.33 84.7375 145.04C84.6283 144.749 84.5784 144.44 84.5909 144.13C84.6117 143.496 84.8786 142.895 85.3349 142.455C85.7912 142.015 86.4009 141.771 87.0344 141.774C87.3439 141.778 87.6496 141.843 87.9333 141.967C88.217 142.091 88.473 142.271 88.6861 142.496C88.8993 142.721 89.0652 142.986 89.1742 143.276C89.2832 143.566 89.333 143.875 89.3207 144.185Z" fill="url(#paint25_linear_3349_80811)"/>
<path d="M5.95366 77.7908C5.909 77.7926 5.86473 77.7817 5.82599 77.7594C5.78725 77.737 5.75563 77.7041 5.73479 77.6645C5.59452 77.3931 5.45696 77.1095 5.32821 76.8279C5.31553 76.8003 5.30848 76.7705 5.30749 76.7401C5.30651 76.7098 5.31159 76.6796 5.32246 76.6512C5.33332 76.6229 5.34974 76.597 5.37074 76.5752C5.39175 76.5533 5.41692 76.5358 5.44476 76.5239C5.73072 76.3949 5.77477 76.7166 6.15492 77.4576C6.16874 77.4846 6.17701 77.5142 6.17924 77.5445C6.18146 77.5748 6.17759 77.6052 6.16786 77.634C6.15813 77.6628 6.14274 77.6894 6.12259 77.7121C6.10245 77.7348 6.07795 77.7532 6.05056 77.7663C6.0203 77.7811 5.9873 77.7894 5.95366 77.7908Z" fill="#91B3FA"/>
<path d="M4.28599 74.1251C4.10913 73.5599 3.95327 72.981 3.82249 72.4042C3.81048 72.3445 3.82254 72.2825 3.85606 72.2316C3.88958 72.1807 3.94182 72.1452 4.00138 72.1328C4.3463 72.0595 4.21416 72.3283 4.73458 73.9928C4.74339 74.0219 4.74635 74.0524 4.74327 74.0827C4.74019 74.1129 4.73113 74.1422 4.71663 74.169C4.70213 74.1957 4.68247 74.2192 4.65879 74.2383C4.63512 74.2573 4.6079 74.2714 4.57872 74.2798C4.51942 74.2979 4.45539 74.2918 4.40056 74.2628C4.34574 74.2338 4.30456 74.1843 4.28599 74.1251ZM3.36509 69.5536C3.30885 68.9619 3.27497 68.3572 3.26616 67.7771C3.26074 67.4649 3.73101 67.4697 3.73508 67.7689C3.74456 68.3471 3.77709 68.9306 3.83266 69.5101C3.83493 69.5703 3.81409 69.6291 3.77442 69.6743C3.73476 69.7196 3.67928 69.7479 3.6194 69.7535C3.55952 69.7591 3.49979 69.7414 3.45249 69.7042C3.40519 69.6671 3.37391 69.6131 3.36509 69.5536ZM3.40643 64.8897C3.47419 64.3028 3.56499 63.7111 3.67748 63.1309C3.73643 62.831 4.19654 62.9185 4.13826 63.2164C4.02646 63.785 3.93498 64.3652 3.87128 64.94C3.83808 65.2392 3.37187 65.1883 3.40643 64.8864V64.8897ZM4.57059 60.6195C4.54095 60.6108 4.5134 60.5961 4.48963 60.5763C4.46586 60.5565 4.44636 60.5321 4.43234 60.5046C4.41832 60.477 4.41007 60.4468 4.40809 60.416C4.40611 60.3851 4.41045 60.3541 4.42084 60.325C4.60922 59.7631 4.82335 59.202 5.05645 58.6557C5.17639 58.3748 5.60871 58.5512 5.48945 58.8321C5.26109 59.3669 5.05103 59.9179 4.86671 60.4675C4.84677 60.5263 4.80451 60.5748 4.74909 60.6026C4.69367 60.6304 4.62955 60.6353 4.57059 60.6161V60.6195ZM6.45236 56.3811C6.42558 56.3663 6.40209 56.3462 6.38331 56.322C6.36453 56.2979 6.35086 56.2701 6.34313 56.2405C6.3354 56.2108 6.33377 56.1799 6.33833 56.1496C6.3429 56.1193 6.35357 56.0903 6.36969 56.0642C6.67123 55.5519 6.99717 55.0464 7.33802 54.5565C7.5142 54.3061 7.90045 54.5646 7.72494 54.8157C7.39087 55.2907 7.07171 55.7908 6.77626 56.2929C6.74434 56.347 6.6924 56.3862 6.63174 56.4021C6.57108 56.418 6.50661 56.4092 6.45236 56.3777V56.3811ZM9.33769 52.6571C9.2774 52.6601 9.21832 52.6394 9.17303 52.5995C9.15004 52.5798 9.13125 52.5557 9.11776 52.5286C9.10428 52.5015 9.09639 52.472 9.09455 52.4418C9.09272 52.4116 9.09698 52.3813 9.10709 52.3528C9.1172 52.3243 9.13294 52.2981 9.15338 52.2758C9.55453 51.8327 9.97873 51.4004 10.4124 50.9906C10.4577 50.9483 10.5176 50.9252 10.5795 50.9262C10.6414 50.9272 10.7006 50.9522 10.7444 50.996C10.7658 51.0175 10.7827 51.0431 10.794 51.0712C10.8053 51.0993 10.8109 51.1295 10.8103 51.1598C10.8097 51.1901 10.8031 51.2201 10.7907 51.2478C10.7783 51.2754 10.7605 51.3004 10.7383 51.321C10.3128 51.7227 9.89741 52.1462 9.50439 52.5805C9.48303 52.6036 9.45731 52.6223 9.4287 52.6355C9.40009 52.6487 9.36916 52.656 9.33769 52.6571ZM12.8132 49.5357C12.7754 49.5376 12.7377 49.5302 12.7034 49.5143C12.669 49.4983 12.6391 49.4742 12.616 49.4441C12.5977 49.42 12.5843 49.3924 12.5768 49.3631C12.5693 49.3337 12.5677 49.3031 12.5722 49.2731C12.5767 49.2431 12.5871 49.2143 12.6029 49.1884C12.6187 49.1626 12.6395 49.1401 12.6642 49.1225C13.146 48.7662 13.6521 48.4269 14.1624 48.1107C14.2149 48.0781 14.2781 48.0672 14.3385 48.0805C14.3988 48.0939 14.4516 48.1302 14.4856 48.182C14.502 48.2075 14.5131 48.2361 14.5183 48.266C14.5234 48.2959 14.5225 48.3265 14.5157 48.3561C14.5088 48.3856 14.496 48.4135 14.4782 48.438C14.4603 48.4625 14.4377 48.4832 14.4118 48.4989C13.9117 48.8076 13.4177 49.1401 12.9433 49.4862C12.9061 49.5158 12.8607 49.5331 12.8132 49.5357ZM16.6432 47.0352C16.6303 47.0077 16.623 46.9779 16.6218 46.9476C16.6205 46.9172 16.6254 46.887 16.636 46.8585C16.6466 46.8301 16.6627 46.804 16.6835 46.7819C16.7043 46.7598 16.7293 46.7421 16.757 46.7298C17.3045 46.4808 17.869 46.2494 18.4355 46.0431C18.7276 45.9372 18.8888 46.3675 18.5988 46.4733C18.0438 46.6769 17.4902 46.9022 16.9549 47.1465C16.8983 47.1719 16.8341 47.1742 16.7759 47.1529C16.7177 47.1316 16.6701 47.0884 16.6432 47.0325V47.0352ZM32.396 45.7907C30.6883 45.351 30.4044 45.4901 30.4688 45.1474C30.4808 45.0871 30.5159 45.034 30.5666 44.9994C30.6172 44.9647 30.6794 44.9514 30.7398 44.9621C31.3341 45.0666 31.9311 45.1962 32.5145 45.3469C32.8161 45.4209 32.6968 45.8653 32.396 45.788V45.7907ZM21.0877 45.4806C21.081 45.4509 21.0803 45.4202 21.0855 45.3902C21.0907 45.3602 21.1018 45.3316 21.1181 45.3059C21.1344 45.2802 21.1556 45.2581 21.1805 45.2406C21.2055 45.2232 21.2336 45.2109 21.2632 45.2044C21.8507 45.0687 22.4511 44.9567 23.0481 44.8651C23.3551 44.819 23.4249 45.2722 23.1159 45.3191C22.5304 45.4073 21.9422 45.5186 21.3669 45.6502C21.3075 45.6637 21.2452 45.6535 21.1931 45.6218C21.141 45.5902 21.1033 45.5395 21.0877 45.4806ZM27.7827 45.0877C26.0209 44.9995 25.7695 45.1929 25.7606 44.8434C25.7545 44.6222 26.0148 44.5957 25.989 44.6079C26.5941 44.5916 27.2087 44.5991 27.8071 44.629C27.8375 44.63 27.8674 44.6371 27.8951 44.6498C27.9228 44.6625 27.9477 44.6806 27.9684 44.703C27.9891 44.7254 28.0051 44.7517 28.0156 44.7803C28.026 44.8089 28.0307 44.8394 28.0293 44.8699C28.0252 44.9314 27.9969 44.9888 27.9507 45.0295C27.9045 45.0703 27.8442 45.0912 27.7827 45.0877Z" fill="#91B3FA"/>
<path d="M36.0057 47.046C35.2867 46.7264 34.9039 46.6769 35.0245 46.3878C35.0487 46.3309 35.0943 46.2857 35.1515 46.2621C35.2087 46.2385 35.2728 46.2383 35.3301 46.2616C36.087 46.5622 36.4434 46.6586 36.316 46.9314C36.2847 46.9826 36.237 47.0218 36.1807 47.0426C36.1244 47.0634 36.0627 47.0646 36.0057 47.046Z" fill="#91B3FA"/>
<path d="M48.3039 60.0624C48.2544 60.0646 48.2055 60.051 48.1642 60.0236C48.1229 59.9961 48.0914 59.9563 48.0742 59.9097C47.9712 59.6247 47.8614 59.3384 47.7469 59.0595C47.7357 59.0312 47.7301 59.001 47.7307 58.9705C47.7312 58.9401 47.7378 58.9101 47.75 58.8823C47.7623 58.8544 47.7799 58.8293 47.8019 58.8083C47.824 58.7874 47.85 58.771 47.8784 58.7602C47.9358 58.7376 47.9997 58.7382 48.0567 58.7621C48.1136 58.7859 48.159 58.831 48.1833 58.8878C48.2992 59.1728 48.4116 59.4646 48.5167 59.7557C48.5268 59.7843 48.5311 59.8147 48.5294 59.845C48.5276 59.8753 48.5199 59.905 48.5066 59.9323C48.4933 59.9596 48.4747 59.9839 48.4518 60.0039C48.429 60.0239 48.4025 60.0392 48.3737 60.0488C48.3512 60.0566 48.3277 60.0612 48.3039 60.0624Z" fill="url(#paint26_linear_3349_80811)"/>
<path d="M26.773 90.1944C26.1225 90.2018 25.4645 90.1828 24.8167 90.1374C24.7863 90.1356 24.7566 90.1279 24.7292 90.1146C24.7018 90.1013 24.6773 90.0827 24.6572 90.0598C24.637 90.037 24.6216 90.0104 24.6117 89.9815C24.6019 89.9527 24.5979 89.9221 24.5999 89.8917C24.627 89.5355 24.8648 89.756 26.7683 89.735C26.7988 89.7342 26.8291 89.7394 26.8575 89.7504C26.8859 89.7613 26.9119 89.7778 26.934 89.7989C26.956 89.8199 26.9737 89.8452 26.9859 89.8731C26.9982 89.901 27.0049 89.9311 27.0055 89.9616C27.0075 90.1821 26.7473 90.2059 26.773 90.1944ZM29.676 89.7526C29.6231 89.3998 29.9145 89.5626 31.7577 89.1419C31.8177 89.1273 31.881 89.1372 31.9338 89.1692C31.9866 89.2012 32.0246 89.2529 32.0396 89.3129C32.0464 89.3425 32.0474 89.3733 32.0423 89.4033C32.0372 89.4333 32.0262 89.462 32.0099 89.4877C31.9936 89.5134 31.9724 89.5356 31.9475 89.553C31.9226 89.5704 31.8944 89.5827 31.8647 89.5891C31.2339 89.7336 30.5867 89.8544 29.9423 89.948C29.8811 89.9574 29.8187 89.9421 29.7688 89.9055C29.7189 89.8688 29.6855 89.8139 29.676 89.7526ZM21.6692 89.7017C21.0342 89.566 20.3966 89.4086 19.7718 89.2267C19.7426 89.2183 19.7154 89.2042 19.6917 89.1852C19.6681 89.1661 19.6484 89.1426 19.6339 89.1159C19.6194 89.0891 19.6103 89.0598 19.6073 89.0296C19.6042 88.9993 19.6071 88.9688 19.616 88.9397C19.7223 88.6004 19.9039 88.8671 21.7654 89.2545C21.7951 89.2603 21.8234 89.2719 21.8487 89.2887C21.8739 89.3055 21.8955 89.3272 21.9123 89.3524C21.9291 89.3777 21.9406 89.4061 21.9464 89.4359C21.9521 89.4656 21.9518 89.4963 21.9456 89.526C21.9314 89.5855 21.8946 89.6372 21.843 89.67C21.7914 89.7028 21.729 89.7142 21.6692 89.7017ZM34.83 88.6893C34.7815 88.6915 34.7335 88.6785 34.6927 88.6521C34.6519 88.6257 34.6203 88.5872 34.6023 88.542C34.5914 88.5137 34.5863 88.4834 34.5872 88.4531C34.5882 88.4227 34.5952 88.3928 34.6078 88.3652C34.6204 88.3376 34.6384 88.3128 34.6608 88.2922C34.6831 88.2716 34.7093 88.2558 34.7379 88.2455C35.3335 88.0209 35.9257 87.7705 36.4997 87.4991C36.5554 87.4724 36.6194 87.4685 36.6779 87.4885C36.7364 87.5084 36.7848 87.5504 36.8128 87.6056C36.8262 87.6328 36.8341 87.6624 36.8359 87.6927C36.8377 87.723 36.8335 87.7533 36.8233 87.7819C36.8132 87.8105 36.7975 87.8368 36.7771 87.8592C36.7566 87.8816 36.7319 87.8997 36.7043 87.9123C36.1202 88.1899 35.5158 88.447 34.908 88.6757C34.8829 88.6845 34.8566 88.689 34.83 88.6893ZM39.3376 86.4011C39.2979 86.4027 39.2584 86.3942 39.2229 86.3764C39.1874 86.3586 39.1569 86.3321 39.1343 86.2994C39.1173 86.2742 39.1056 86.2458 39.0998 86.216C39.094 86.1862 39.0943 86.1555 39.1006 86.1258C39.107 86.0961 39.1192 86.068 39.1366 86.0431C39.1541 86.0183 39.1763 85.9972 39.2021 85.9811C39.7313 85.635 40.2524 85.2618 40.7511 84.873C40.7999 84.8349 40.8616 84.8174 40.9231 84.8241C40.9845 84.8308 41.041 84.8613 41.0804 84.909C41.0996 84.9325 41.1139 84.9595 41.1224 84.9886C41.1309 85.0177 41.1335 85.0482 41.13 85.0784C41.1265 85.1085 41.117 85.1376 41.1021 85.164C41.0872 85.1904 41.0672 85.2135 41.0432 85.232C40.5343 85.6289 40.0023 86.0096 39.4616 86.3631C39.4238 86.3866 39.38 86.3986 39.3356 86.3978L39.3376 86.4011ZM43.2251 83.2017C43.1939 83.2031 43.1627 83.1983 43.1334 83.1875C43.104 83.1766 43.0772 83.16 43.0544 83.1386C43.0322 83.118 43.0143 83.0931 43.0019 83.0654C42.9895 83.0378 42.9827 83.0079 42.982 82.9776C42.9813 82.9473 42.9867 82.9172 42.9979 82.889C43.009 82.8608 43.0257 82.8352 43.0469 82.8135C43.4867 82.363 43.9122 81.8873 44.3127 81.4014C44.3526 81.354 44.4092 81.324 44.4708 81.3175C44.5323 81.3111 44.5939 81.3287 44.6427 81.3668C44.6667 81.3854 44.6866 81.4086 44.7014 81.4351C44.7162 81.4615 44.7255 81.4907 44.7288 81.5208C44.732 81.551 44.7292 81.5815 44.7205 81.6105C44.7118 81.6395 44.6973 81.6665 44.678 81.6898C44.2714 82.1852 43.835 82.6704 43.3857 83.1304C43.3425 83.1735 43.2841 83.1979 43.2231 83.1983L43.2251 83.2017ZM46.3097 79.2497C46.2641 79.2516 46.2189 79.2403 46.1796 79.2171C46.1533 79.2019 46.1304 79.1816 46.1122 79.1574C46.0939 79.1332 46.0807 79.1056 46.0733 79.0761C46.0659 79.0467 46.0645 79.0161 46.0691 78.9861C46.0738 78.9561 46.0844 78.9274 46.1003 78.9016C46.4296 78.3682 46.74 77.8159 47.0226 77.254C47.051 77.1991 47.0997 77.1575 47.1582 77.138C47.2168 77.1185 47.2807 77.1226 47.3363 77.1495C47.3638 77.1624 47.3884 77.1807 47.4087 77.2033C47.429 77.2259 47.4446 77.2523 47.4545 77.281C47.4644 77.3098 47.4685 77.3402 47.4664 77.3705C47.4644 77.4008 47.4563 77.4304 47.4427 77.4576C47.1547 78.0283 46.8382 78.5935 46.5021 79.1391C46.481 79.1716 46.4522 79.1983 46.4183 79.217C46.3844 79.2357 46.3464 79.2458 46.3077 79.2463L46.3097 79.2497ZM48.3582 74.7236C48.0126 74.611 48.2904 74.4407 48.741 72.6282C48.8135 72.333 49.2702 72.4402 49.1971 72.7354C49.0432 73.3543 48.8582 73.9738 48.655 74.5777C48.6338 74.636 48.5906 74.6836 48.5347 74.7103C48.4788 74.737 48.4146 74.7405 48.3561 74.7202L48.3582 74.7236ZM49.4756 69.8718C49.1124 69.8365 49.3461 69.6133 49.3766 67.7472C49.3814 67.4446 49.851 67.4493 49.8455 67.7533C49.8354 68.3905 49.7974 69.0338 49.7324 69.6655C49.7244 69.7266 49.6928 69.7821 49.6444 69.82C49.596 69.858 49.5346 69.8754 49.4735 69.8684L49.4756 69.8718ZM49.4566 64.904C49.3981 64.9068 49.3408 64.8874 49.296 64.8497C49.2513 64.8119 49.2225 64.7586 49.2154 64.7004C49.1388 64.0789 49.0358 63.4553 48.9084 62.8479C48.9025 62.8181 48.9025 62.7873 48.9086 62.7575C48.9146 62.7277 48.9264 62.6993 48.9434 62.6741C48.9604 62.6488 48.9823 62.6272 49.0077 62.6105C49.033 62.5937 49.0615 62.5822 49.0913 62.5765C49.1516 62.5637 49.2145 62.5752 49.2663 62.6085C49.3182 62.6418 49.3549 62.6941 49.3685 62.7543C49.4986 63.3745 49.6036 64.011 49.6809 64.6448C49.6844 64.675 49.6819 64.7055 49.6735 64.7347C49.6652 64.7639 49.6512 64.7912 49.6323 64.815C49.6134 64.8388 49.59 64.8585 49.5635 64.8732C49.5369 64.8879 49.5077 64.8972 49.4776 64.9006L49.4566 64.904Z" fill="url(#paint27_linear_3349_80811)"/>
<path d="M16.7895 88.1139C16.0441 87.7793 15.6965 87.6667 15.8361 87.4C15.9818 87.1225 16.2264 87.3539 16.9881 87.6972C17.0158 87.7094 17.0409 87.727 17.0617 87.749C17.0826 87.771 17.0988 87.797 17.1095 87.8254C17.1202 87.8538 17.125 87.884 17.1239 87.9143C17.1227 87.9446 17.1154 87.9744 17.1026 88.0019C17.0755 88.0579 17.0275 88.1011 16.9689 88.122C16.9104 88.1429 16.846 88.14 16.7895 88.1139Z" fill="url(#paint28_linear_3349_80811)"/>
<path d="M16.879 81.7536L19.7813 80.0755C21.2022 80.7906 22.7284 81.2733 24.3017 81.5052C25.6712 84.4116 25.5614 84.7129 25.9219 84.6844L29.9491 84.3654C30.0061 84.3613 30.0604 84.3395 30.1045 84.303C30.1486 84.2665 30.1803 84.2172 30.195 84.1619L31.038 80.9726C32.5537 80.4968 33.9832 79.7801 35.2718 78.85L38.4065 80.0504C38.46 80.071 38.5184 80.0747 38.5741 80.061C38.6297 80.0473 38.6798 80.0168 38.7175 79.9737L41.3406 76.9615C41.3779 76.919 41.4006 76.8657 41.4056 76.8093C41.4106 76.753 41.3976 76.6965 41.3684 76.648L39.6595 73.8109C40.3899 72.4264 40.8861 70.9303 41.1279 69.3832L44.2138 68.0607C44.2663 68.0386 44.3106 68.0005 44.3403 67.9518C44.37 67.903 44.3836 67.8462 44.3791 67.7893L44.0606 63.8536C44.0558 63.7968 44.0333 63.7429 43.9962 63.6997C43.9591 63.6565 43.9093 63.626 43.854 63.6127L40.5953 62.7936C40.1081 61.304 39.3782 59.9053 38.435 58.6544C39.5741 55.6306 39.858 55.5065 39.5869 55.2791C36.5288 52.8193 36.5119 52.5072 36.1941 52.6904L33.2918 54.3685C31.8709 53.6533 30.3447 53.1706 28.7713 52.9387C27.4025 50.0338 27.5116 49.7311 27.1511 49.7596C23.1531 50.1451 22.9688 49.9381 22.878 50.2808L22.0351 53.4701C20.5194 53.9456 19.0899 54.6621 17.8013 55.592C14.7519 54.4961 14.5913 54.1968 14.3555 54.4689C11.8124 57.4954 11.5203 57.4879 11.7046 57.7939L13.417 60.6297C12.6866 62.0142 12.1904 63.5103 11.9486 65.0574C9.0287 66.3792 8.6682 66.289 8.69598 66.6486C9.08088 70.5416 8.86878 70.7417 9.22114 70.8306L12.4799 71.6497C12.967 73.1393 13.6969 74.538 14.6401 75.789C13.5044 78.8025 13.2124 78.9355 13.4882 79.1642C16.5443 81.6247 16.5612 81.9368 16.879 81.7536Z" fill="url(#paint29_linear_3349_80811)"/>
<path d="M22.8062 68.4617C22.1103 66.4491 23.2182 64.2546 25.2755 63.5699C27.3328 62.8852 29.573 63.9655 30.2689 65.9782C30.9649 67.9908 29.8569 70.1853 27.7997 70.87C25.7417 71.5554 23.5022 70.4737 22.8062 68.4617ZM25.4991 64.222C23.8288 64.7778 22.8909 66.5624 23.471 68.2399C24.0422 69.8929 25.8827 70.7804 27.572 70.2179C29.2613 69.6554 30.172 67.8531 29.6001 66.2001C29.0282 64.5471 27.1878 63.6602 25.5011 64.222H25.4991Z" fill="url(#paint30_linear_3349_80811)"/>
<path d="M26.9695 77.0294C26.3893 77.0525 25.8081 77.0269 25.2321 76.9527C25.1509 76.9429 25.0758 76.9047 25.0201 76.8449C24.9643 76.785 24.9314 76.7074 24.9272 76.6256C24.9263 76.6057 24.9274 76.5857 24.9306 76.5659C24.9443 76.4744 24.9935 76.3921 25.0674 76.3366C25.1413 76.2811 25.2341 76.257 25.3256 76.2694C25.9889 76.3549 26.6593 76.3713 27.326 76.3182C32.3621 75.9199 36.167 71.6836 35.9752 66.787C35.9698 66.6615 35.9623 66.536 35.9522 66.4104C35.5415 61.3252 31.0021 57.5781 25.8454 57.9846C20.6886 58.3911 16.8119 62.8208 17.2192 67.8918C17.4631 70.9107 18.981 72.3635 18.9918 72.6797C19.0054 73.019 18.5554 73.171 18.3535 72.8942C17.2163 71.3348 16.5685 69.4717 16.4928 67.5423C16.1539 58.9651 26.4742 54.0604 33.142 59.6193C35.1946 61.33 36.4414 63.7213 36.6542 66.3534C36.665 66.4891 36.6732 66.6249 36.6786 66.7606C36.7782 69.2519 35.9157 71.6859 34.2703 73.5571C32.5173 75.5694 30.0429 76.8087 27.3836 77.0063C27.2467 77.0179 27.1084 77.024 26.9695 77.0294Z" fill="url(#paint31_linear_3349_80811)"/>
<path d="M46.2961 50.7314C47.114 51.0735 47.9822 51.2798 48.8664 51.3421L49.7473 52.9944C49.8455 53.1776 49.9668 53.0249 52.1251 52.7175C52.3229 52.6856 52.2233 52.5357 52.5737 50.7497C53.394 50.4126 54.1539 49.9436 54.8234 49.3613L56.615 49.9042C56.8142 49.9639 56.7926 49.7685 58.1004 48.0245C58.1191 47.9986 58.1291 47.9673 58.1291 47.9353C58.1291 47.9033 58.1191 47.8721 58.1004 47.8461L57.027 46.3125C57.3688 45.4935 57.5748 44.6241 57.6369 43.7387C59.1954 42.8613 59.3987 42.8966 59.3655 42.695C58.9752 40.5026 59.0836 40.3818 58.8844 40.3472L57.0413 40.0249C56.7051 39.2033 56.237 38.4423 55.6555 37.772L56.1976 35.9779C56.2579 35.779 56.0621 35.8001 54.3213 34.4904C54.16 34.373 54.1302 34.5447 52.6109 35.5666C51.7929 35.2248 50.9248 35.0185 50.0407 34.9559L49.1598 33.3043C49.0615 33.1204 48.9395 33.2731 46.782 33.5811C46.5855 33.6124 46.6858 33.7535 46.3334 35.5524C45.5131 35.8894 44.7532 36.3581 44.0837 36.9401L42.292 36.3972C42.2614 36.388 42.2286 36.3885 42.1983 36.3987C42.1679 36.4089 42.1415 36.4283 42.1226 36.4542L40.808 38.2714C40.7895 38.2976 40.7795 38.3289 40.7795 38.361C40.7795 38.3931 40.7895 38.4244 40.808 38.4506L41.8841 39.9841C41.5425 40.8032 41.3365 41.6725 41.2742 42.558C39.7157 43.4354 39.5124 43.4001 39.5449 43.6023C39.9359 45.7934 39.8275 45.9149 40.0267 45.9495L41.8692 46.2725C42.2058 47.0938 42.6741 47.8545 43.2556 48.5246C42.7725 50.2496 42.6037 50.3683 42.7698 50.4884L44.5878 51.8083C44.7484 51.9256 44.7843 51.7485 46.2961 50.7314Z" fill="url(#paint32_linear_3349_80811)"/>
<path d="M47.3031 44.0766C47.12 43.6503 47.0672 43.1792 47.1514 42.7228C47.2356 42.2664 47.4531 41.8453 47.7764 41.5127C48.0996 41.1802 48.5141 40.951 48.9673 40.8543C49.4206 40.7576 49.8923 40.7977 50.3229 40.9694C50.7534 41.1412 51.1234 41.437 51.3861 41.8193C51.6488 42.2017 51.7923 42.6534 51.7986 43.1175C51.8049 43.5816 51.6736 44.0371 51.4214 44.4264C51.1692 44.8157 50.8073 45.1214 50.3816 45.3048C49.8106 45.55 49.1659 45.5584 48.5887 45.3281C48.0116 45.0979 47.5493 44.6478 47.3031 44.0766ZM47.9441 43.8004C48.1171 44.2012 48.4417 44.517 48.8468 44.6785C49.2518 44.84 49.7043 44.8342 50.1051 44.6622C51.4427 44.0854 51.4217 42.1603 50.0638 41.6188C48.7058 41.0773 47.3661 42.4521 47.9441 43.8004Z" fill="url(#paint33_linear_3349_80811)"/>
<path d="M40.5661 51.6223C40.3493 51.3943 40.1378 51.1548 39.9386 50.9091C39.8998 50.8611 39.8816 50.7997 39.888 50.7383C39.8943 50.6768 39.9247 50.6204 39.9725 50.5814C40.2239 50.3778 40.3438 50.7124 40.9029 51.3007C40.924 51.323 40.9405 51.3492 40.9514 51.3778C40.9624 51.4065 40.9676 51.4371 40.9668 51.4677C40.966 51.4984 40.9592 51.5286 40.9467 51.5567C40.9342 51.5847 40.9163 51.61 40.8941 51.6311C40.8718 51.6523 40.8456 51.6688 40.817 51.6798C40.7884 51.6908 40.7579 51.696 40.7272 51.6952C40.6966 51.6944 40.6664 51.6875 40.6384 51.675C40.6104 51.6625 40.5852 51.6446 40.5641 51.6223H40.5661Z" fill="#91B3FA"/>
<path d="M38.2981 48.2614C38.0313 47.6785 37.8104 47.0757 37.6374 46.4584C37.5534 46.1612 38.0027 46.0363 38.0853 46.3329C38.5454 47.9716 38.9608 48.2145 38.6064 48.3767C38.5786 48.3895 38.5486 48.3966 38.518 48.3977C38.4875 48.3988 38.457 48.3938 38.4284 48.3831C38.3997 48.3724 38.3735 48.3561 38.3511 48.3352C38.3288 48.3143 38.3107 48.2892 38.2981 48.2614ZM37.4206 43.6043C37.39 43.6049 37.3595 43.5994 37.3311 43.5881C37.3026 43.5769 37.2766 43.5601 37.2545 43.5388C37.2325 43.5175 37.2149 43.4921 37.2027 43.464C37.1905 43.4359 37.1839 43.4056 37.1834 43.375C37.172 42.7348 37.2107 42.0948 37.2993 41.4607C37.342 41.1554 37.8028 41.2191 37.7601 41.5252C37.675 42.1361 37.6378 42.7528 37.6489 43.3695C37.6483 43.4306 37.6242 43.489 37.5817 43.5327C37.5392 43.5764 37.4815 43.6021 37.4206 43.6043ZM38.3394 38.7736C38.3004 38.7752 38.2617 38.7669 38.2267 38.7496C38.1917 38.7322 38.1617 38.7063 38.1393 38.6743C38.117 38.6422 38.103 38.6051 38.0988 38.5662C38.0946 38.5273 38.1002 38.488 38.1151 38.4519C38.3597 37.8596 38.6499 37.2872 38.9832 36.7399C38.9982 36.712 39.0187 36.6874 39.0435 36.6677C39.0682 36.648 39.0968 36.6335 39.1273 36.6252C39.1579 36.6169 39.1898 36.6149 39.2211 36.6193C39.2525 36.6238 39.2826 36.6346 39.3096 36.651C39.3366 36.6675 39.36 36.6893 39.3784 36.7151C39.3968 36.7409 39.4097 36.7702 39.4163 36.8012C39.423 36.8322 39.4233 36.8642 39.4172 36.8953C39.4111 36.9264 39.3988 36.956 39.3809 36.9821C39.0604 37.5089 38.7811 38.0598 38.5454 38.6297C38.5285 38.6709 38.5 38.7064 38.4635 38.7319C38.427 38.7574 38.3839 38.7719 38.3394 38.7736ZM41.0974 34.7082C41.0502 34.71 41.0037 34.6974 40.9638 34.6721C40.924 34.6468 40.8928 34.61 40.8743 34.5665C40.8558 34.5231 40.8509 34.475 40.8602 34.4287C40.8696 34.3824 40.8927 34.3401 40.9266 34.3072C41.3872 33.8618 41.882 33.4534 42.4065 33.0858C42.4572 33.0539 42.5182 33.0427 42.5768 33.0546C42.6355 33.0664 42.6873 33.1004 42.7217 33.1495C42.756 33.1986 42.7701 33.2591 42.7611 33.3183C42.7522 33.3776 42.7208 33.4311 42.6735 33.4678C42.169 33.8212 41.6932 34.214 41.2505 34.6424C41.2091 34.6822 41.1547 34.7056 41.0974 34.7082ZM45.0235 31.9356C45.0128 31.907 45.0077 31.8766 45.0087 31.846C45.0097 31.8154 45.0167 31.7854 45.0293 31.7575C45.0418 31.7297 45.0598 31.7046 45.0821 31.6837C45.1043 31.6628 45.1305 31.6465 45.1591 31.6357C45.7588 31.411 46.375 31.2331 47.0022 31.1037C47.3024 31.0406 47.3979 31.4986 47.0957 31.561C46.4922 31.685 45.8993 31.8561 45.3224 32.0727C45.2646 32.094 45.2007 32.0915 45.1447 32.0659C45.0887 32.0402 45.0452 31.9934 45.0235 31.9356Z" fill="#91B3FA"/>
<path d="M51.0015 31.4246C50.1545 31.312 49.8557 31.4084 49.8733 31.0935C49.8747 31.0628 49.8821 31.0327 49.8953 31.005C49.9084 30.9773 49.927 30.9524 49.9498 30.9319C49.9726 30.9115 49.9993 30.8958 50.0283 30.8858C50.0573 30.8757 50.088 30.8716 50.1186 30.8736C50.4317 30.8906 50.7495 30.9205 51.0632 30.9625C51.0947 30.9651 51.1254 30.974 51.1534 30.9888C51.1814 31.0036 51.2061 31.024 51.2259 31.0487C51.2458 31.0733 51.2604 31.1018 51.269 31.1323C51.2775 31.1628 51.2797 31.1947 51.2755 31.2261C51.2713 31.2575 51.2608 31.2878 51.2446 31.315C51.2283 31.3422 51.2068 31.3658 51.1811 31.3843C51.1555 31.4029 51.1263 31.4161 51.0955 31.423C51.0646 31.4299 51.0326 31.4305 51.0015 31.4246Z" fill="#91B3FA"/>
<path d="M59.2083 36.4807C58.7252 35.7709 58.4561 35.6141 58.7014 35.4174C58.7497 35.3788 58.8113 35.361 58.8727 35.3679C58.934 35.3748 58.9901 35.4057 59.0287 35.454C59.2252 35.699 59.415 35.9561 59.5932 36.2181C59.6247 36.2692 59.6354 36.3305 59.6229 36.3893C59.6104 36.4481 59.5757 36.4998 59.5261 36.5336C59.4765 36.5675 59.4158 36.5809 59.3566 36.571C59.2974 36.5611 59.2443 36.5288 59.2083 36.4807Z" fill="url(#paint34_linear_3349_80811)"/>
<path d="M51.0321 55.1041C50.9738 54.7214 51.3905 54.9331 52.9972 54.4255C53.2899 54.3325 53.4315 54.777 53.1374 54.8706C52.5367 55.0602 51.9224 55.2031 51.2997 55.2981C51.2694 55.3032 51.2384 55.3021 51.2085 55.2951C51.1786 55.288 51.1503 55.2751 51.1255 55.257C51.1006 55.239 51.0795 55.2162 51.0635 55.1899C51.0474 55.1637 51.0368 55.1345 51.0321 55.1041ZM55.5959 53.5203C55.5637 53.4676 55.5536 53.4043 55.5678 53.3441C55.582 53.284 55.6194 53.232 55.6718 53.1993C57.1151 52.307 57.2127 51.8585 57.4654 52.1536C57.5057 52.2006 57.5257 52.2617 57.521 52.3234C57.5163 52.3851 57.4873 52.4424 57.4404 52.4827C56.9616 52.8925 56.4522 53.2648 55.9164 53.5963C55.8638 53.6285 55.8005 53.6386 55.7405 53.6244C55.6805 53.6102 55.6285 53.5727 55.5959 53.5203ZM59.1724 50.2713C58.8546 50.048 59.2944 49.8974 60.0404 48.3835C60.176 48.1066 60.5947 48.3156 60.4578 48.5871C60.179 49.1533 59.8574 49.6973 59.4956 50.2143C59.4602 50.2647 59.4064 50.299 59.3458 50.3097C59.2852 50.3204 59.2228 50.3066 59.1724 50.2713ZM61.1849 45.8748C60.8048 45.7934 61.1524 45.4826 61.2459 43.797C61.2635 43.4896 61.7284 43.5147 61.7115 43.8228C61.6757 44.4524 61.5919 45.0783 61.4607 45.695C61.4479 45.7554 61.4116 45.8083 61.3599 45.842C61.3082 45.8757 61.2453 45.8875 61.1849 45.8748ZM61.0399 40.8534C60.7106 39.1888 60.3244 38.9378 60.6896 38.8048C60.7186 38.7945 60.7493 38.7902 60.78 38.792C60.8107 38.7937 60.8407 38.8016 60.8684 38.8151C60.896 38.8287 60.9207 38.8475 60.9409 38.8707C60.9612 38.8938 60.9766 38.9208 60.9864 38.95C61.2021 39.5422 61.372 40.1502 61.4946 40.7686C61.5023 40.7992 61.5036 40.8311 61.4986 40.8623C61.4936 40.8935 61.4822 40.9234 61.4653 40.9501C61.4485 40.9768 61.4263 40.9998 61.4003 41.0176C61.3743 41.0355 61.3449 41.0479 61.3139 41.0541C61.283 41.0602 61.2511 41.06 61.2202 41.0535C61.1893 41.0469 61.1601 41.0342 61.1343 41.016C61.1085 40.9978 61.0866 40.9746 61.07 40.9476C61.0535 40.9207 61.0425 40.8908 61.0379 40.8595L61.0399 40.8534Z" fill="url(#paint35_linear_3349_80811)"/>
<path d="M48.226 55.3755C47.9122 55.3436 47.5965 55.2988 47.2868 55.2432C47.2566 55.2378 47.2278 55.2265 47.202 55.2099C47.1763 55.1933 47.154 55.1718 47.1366 55.1466C47.1191 55.1213 47.1068 55.0929 47.1004 55.0629C47.094 55.0329 47.0935 55.0019 47.0991 54.9717C47.1567 54.6528 47.4643 54.8286 48.2734 54.9107C48.3046 54.9128 48.3351 54.9211 48.3631 54.9353C48.391 54.9494 48.4158 54.9691 48.436 54.993C48.4562 55.017 48.4714 55.0448 48.4806 55.0747C48.4898 55.1047 48.4929 55.1362 48.4898 55.1673C48.4866 55.1985 48.4771 55.2288 48.462 55.2562C48.4469 55.2837 48.4265 55.3078 48.4018 55.3272C48.3772 55.3465 48.349 55.3607 48.3188 55.3689C48.2885 55.3771 48.257 55.3791 48.226 55.3748V55.3755Z" fill="url(#paint36_linear_3349_80811)"/>
<path d="M49.1814 48.8775C49.1356 48.8759 49.0905 48.8654 49.0488 48.8464C49.0071 48.8273 48.9695 48.8003 48.9382 48.7667C48.9068 48.7332 48.8825 48.6938 48.8664 48.6508C48.8503 48.6078 48.8428 48.562 48.8443 48.5162C48.8459 48.4703 48.8565 48.4251 48.8754 48.3833C48.8944 48.3415 48.9214 48.3039 48.9549 48.2725C48.9884 48.2412 49.0278 48.2167 49.0707 48.2006C49.1136 48.1845 49.1593 48.177 49.2052 48.1786C49.5656 48.1973 49.9269 48.1779 50.2833 48.1209C50.9406 48.0158 51.5708 47.7819 52.1378 47.4326C52.7048 47.0833 53.1974 46.6254 53.5874 46.0852C56.222 42.4379 53.1198 37.3825 48.6766 38.097C47.4539 38.2951 46.3457 38.934 45.5605 39.8933C44.7754 40.8526 44.3675 42.0663 44.4137 43.3057C44.514 45.8531 46.1328 46.379 45.5534 46.8662C45.4823 46.9255 45.3907 46.954 45.2985 46.9456C45.2064 46.9372 45.1214 46.8926 45.0622 46.8214C44.2431 45.8446 43.7699 44.6238 43.7163 43.3494C43.6628 42.075 44.032 40.8187 44.7663 39.7765C45.5006 38.7342 46.5588 37.9647 47.7757 37.5879C48.9926 37.211 50.2998 37.2481 51.4934 37.6933C52.687 38.1386 53.7 38.9669 54.3742 40.0491C55.0484 41.1312 55.3459 42.4065 55.2205 43.6758C55.095 44.9451 54.5535 46.1371 53.6805 47.0659C52.8075 47.9948 51.652 48.6081 50.3944 48.8103C49.9935 48.875 49.587 48.8976 49.1814 48.8775Z" fill="url(#paint37_linear_3349_80811)"/>
<defs>
<linearGradient id="paint0_linear_3349_80811" x1="211.533" y1="243.917" x2="43.9043" y2="36.0216" gradientUnits="userSpaceOnUse">
<stop stop-color="#DAE3FE"/>
<stop offset="1" stop-color="#E9EFFD"/>
</linearGradient>
<linearGradient id="paint1_linear_3349_80811" x1="34.99" y1="108.075" x2="144.564" y2="108.075" gradientUnits="userSpaceOnUse">
<stop stop-color="#09005D"/>
<stop offset="1" stop-color="#1A0F91"/>
</linearGradient>
<linearGradient id="paint2_linear_3349_80811" x1="76.2357" y1="21.4433" x2="75.6201" y2="81.0763" gradientUnits="userSpaceOnUse">
<stop stop-color="#E1473D"/>
<stop offset="1" stop-color="#E9605A"/>
</linearGradient>
<linearGradient id="paint3_linear_3349_80811" x1="12.8464" y1="128.098" x2="35.469" y2="107.992" gradientUnits="userSpaceOnUse">
<stop stop-color="#4F52FF"/>
<stop offset="1" stop-color="#4042E2"/>
</linearGradient>
<linearGradient id="paint4_linear_3349_80811" x1="40.5777" y1="117.345" x2="62.9887" y2="88.2791" gradientUnits="userSpaceOnUse">
<stop stop-color="#FEBBBA"/>
<stop offset="1" stop-color="#FF928E"/>
</linearGradient>
<linearGradient id="paint5_linear_3349_80811" x1="15.7548" y1="186.372" x2="10.7919" y2="186.372" gradientUnits="userSpaceOnUse">
<stop stop-color="#4F52FF"/>
<stop offset="1" stop-color="#4042E2"/>
</linearGradient>
<linearGradient id="paint6_linear_3349_80811" x1="36.7233" y1="205.969" x2="29.5627" y2="122.39" gradientUnits="userSpaceOnUse">
<stop stop-color="#FEBBBA"/>
<stop offset="1" stop-color="#FF928E"/>
</linearGradient>
<linearGradient id="paint7_linear_3349_80811" x1="38.8097" y1="185.465" x2="30.7799" y2="185.465" gradientUnits="userSpaceOnUse">
<stop stop-color="#4F52FF"/>
<stop offset="1" stop-color="#4042E2"/>
</linearGradient>
<linearGradient id="paint8_linear_3349_80811" x1="22.3583" y1="207.212" x2="15.1949" y2="123.611" gradientUnits="userSpaceOnUse">
<stop stop-color="#FEBBBA"/>
<stop offset="1" stop-color="#FF928E"/>
</linearGradient>
<linearGradient id="paint9_linear_3349_80811" x1="12.301" y1="176.459" x2="35.0688" y2="124.842" gradientUnits="userSpaceOnUse">
<stop stop-color="#E1473D"/>
<stop offset="1" stop-color="#E9605A"/>
</linearGradient>
<linearGradient id="paint10_linear_3349_80811" x1="16.877" y1="123.311" x2="34.7676" y2="151.895" gradientUnits="userSpaceOnUse">
<stop stop-color="#4F52FF"/>
<stop offset="1" stop-color="#4042E2"/>
</linearGradient>
<linearGradient id="paint11_linear_3349_80811" x1="37.3759" y1="96.712" x2="35.0506" y2="119.387" gradientUnits="userSpaceOnUse">
<stop stop-color="#FEBBBA"/>
<stop offset="1" stop-color="#FF928E"/>
</linearGradient>
<linearGradient id="paint12_linear_3349_80811" x1="40.0984" y1="110.813" x2="32.5668" y2="88.1499" gradientUnits="userSpaceOnUse">
<stop stop-color="#FEBBBA"/>
<stop offset="1" stop-color="#FF928E"/>
</linearGradient>
<linearGradient id="paint13_linear_3349_80811" x1="9.49016" y1="124.322" x2="32.1134" y2="104.216" gradientUnits="userSpaceOnUse">
<stop stop-color="#4F52FF"/>
<stop offset="1" stop-color="#4042E2"/>
</linearGradient>
<linearGradient id="paint14_linear_3349_80811" x1="37.3912" y1="111.713" x2="29.8589" y2="89.0504" gradientUnits="userSpaceOnUse">
<stop stop-color="#FEBBBA"/>
<stop offset="1" stop-color="#FF928E"/>
</linearGradient>
<linearGradient id="paint15_linear_3349_80811" x1="41.9749" y1="118.422" x2="64.3859" y2="89.356" gradientUnits="userSpaceOnUse">
<stop stop-color="#FEBBBA"/>
<stop offset="1" stop-color="#FF928E"/>
</linearGradient>
<linearGradient id="paint16_linear_3349_80811" x1="58.9359" y1="94.0351" x2="60.9879" y2="80.2392" gradientUnits="userSpaceOnUse">
<stop stop-color="#FEBBBA"/>
<stop offset="1" stop-color="#FF928E"/>
</linearGradient>
<linearGradient id="paint17_linear_3349_80811" x1="9.36071" y1="131.177" x2="33.1847" y2="131.177" gradientUnits="userSpaceOnUse">
<stop stop-color="#FEBBBA"/>
<stop offset="1" stop-color="#FF928E"/>
</linearGradient>
<linearGradient id="paint18_linear_3349_80811" x1="138.669" y1="-13.8653" x2="13.2134" y2="192.479" gradientUnits="userSpaceOnUse">
<stop stop-color="#E1473D"/>
<stop offset="1" stop-color="#E9605A"/>
</linearGradient>
<linearGradient id="paint19_linear_3349_80811" x1="148.227" y1="-8.05465" x2="22.7713" y2="198.29" gradientUnits="userSpaceOnUse">
<stop stop-color="#E1473D"/>
<stop offset="1" stop-color="#E9605A"/>
</linearGradient>
<linearGradient id="paint20_linear_3349_80811" x1="71.2056" y1="58.2066" x2="62.7503" y2="120.045" gradientUnits="userSpaceOnUse">
<stop stop-color="#E1473D"/>
<stop offset="1" stop-color="#E9605A"/>
</linearGradient>
<linearGradient id="paint21_linear_3349_80811" x1="79.9936" y1="59.4079" x2="71.5384" y2="121.247" gradientUnits="userSpaceOnUse">
<stop stop-color="#E1473D"/>
<stop offset="1" stop-color="#E9605A"/>
</linearGradient>
<linearGradient id="paint22_linear_3349_80811" x1="89.3817" y1="60.6919" x2="80.9265" y2="122.53" gradientUnits="userSpaceOnUse">
<stop stop-color="#E1473D"/>
<stop offset="1" stop-color="#E9605A"/>
</linearGradient>
<linearGradient id="paint23_linear_3349_80811" x1="107.996" y1="63.2369" x2="99.5407" y2="125.076" gradientUnits="userSpaceOnUse">
<stop stop-color="#E1473D"/>
<stop offset="1" stop-color="#E9605A"/>
</linearGradient>
<linearGradient id="paint24_linear_3349_80811" x1="117.385" y1="64.5206" x2="108.929" y2="126.359" gradientUnits="userSpaceOnUse">
<stop stop-color="#E1473D"/>
<stop offset="1" stop-color="#E9605A"/>
</linearGradient>
<linearGradient id="paint25_linear_3349_80811" x1="98.1698" y1="61.8929" x2="89.7145" y2="123.732" gradientUnits="userSpaceOnUse">
<stop stop-color="#E1473D"/>
<stop offset="1" stop-color="#E9605A"/>
</linearGradient>
<linearGradient id="paint26_linear_3349_80811" x1="47.7306" y1="59.4035" x2="48.5302" y2="59.4035" gradientUnits="userSpaceOnUse">
<stop stop-color="#DAE3FE"/>
<stop offset="1" stop-color="#E9EFFD"/>
</linearGradient>
<linearGradient id="paint27_linear_3349_80811" x1="19.6078" y1="76.3834" x2="49.8435" y2="76.3834" gradientUnits="userSpaceOnUse">
<stop stop-color="#DAE3FE"/>
<stop offset="1" stop-color="#E9EFFD"/>
</linearGradient>
<linearGradient id="paint28_linear_3349_80811" x1="15.8063" y1="87.706" x2="17.1229" y2="87.706" gradientUnits="userSpaceOnUse">
<stop stop-color="#DAE3FE"/>
<stop offset="1" stop-color="#E9EFFD"/>
</linearGradient>
<linearGradient id="paint29_linear_3349_80811" x1="8.69463" y1="67.22" x2="44.3798" y2="67.22" gradientUnits="userSpaceOnUse">
<stop stop-color="#4F52FF"/>
<stop offset="1" stop-color="#4042E2"/>
</linearGradient>
<linearGradient id="paint30_linear_3349_80811" x1="22.5982" y1="67.22" x2="30.477" y2="67.22" gradientUnits="userSpaceOnUse">
<stop stop-color="#DAE3FE"/>
<stop offset="1" stop-color="#E9EFFD"/>
</linearGradient>
<linearGradient id="paint31_linear_3349_80811" x1="16.4873" y1="67.148" x2="36.6881" y2="67.148" gradientUnits="userSpaceOnUse">
<stop stop-color="#DAE3FE"/>
<stop offset="1" stop-color="#E9EFFD"/>
</linearGradient>
<linearGradient id="paint32_linear_3349_80811" x1="39.5388" y1="43.149" x2="59.3716" y2="43.149" gradientUnits="userSpaceOnUse">
<stop stop-color="#4F52FF"/>
<stop offset="1" stop-color="#4042E2"/>
</linearGradient>
<linearGradient id="paint33_linear_3349_80811" x1="47.1113" y1="43.149" x2="51.7985" y2="43.149" gradientUnits="userSpaceOnUse">
<stop stop-color="#DAE3FE"/>
<stop offset="1" stop-color="#E9EFFD"/>
</linearGradient>
<linearGradient id="paint34_linear_3349_80811" x1="58.6093" y1="35.9745" x2="59.6332" y2="35.9745" gradientUnits="userSpaceOnUse">
<stop stop-color="#DAE3FE"/>
<stop offset="1" stop-color="#E9EFFD"/>
</linearGradient>
<linearGradient id="paint35_linear_3349_80811" x1="51.0266" y1="47.0474" x2="61.7115" y2="47.0474" gradientUnits="userSpaceOnUse">
<stop stop-color="#DAE3FE"/>
<stop offset="1" stop-color="#E9EFFD"/>
</linearGradient>
<linearGradient id="paint36_linear_3349_80811" x1="47.095" y1="55.083" x2="48.4821" y2="55.083" gradientUnits="userSpaceOnUse">
<stop stop-color="#DAE3FE"/>
<stop offset="1" stop-color="#E9EFFD"/>
</linearGradient>
<linearGradient id="paint37_linear_3349_80811" x1="43.7116" y1="43.1083" x2="55.2489" y2="43.1083" gradientUnits="userSpaceOnUse">
<stop stop-color="#DAE3FE"/>
<stop offset="1" stop-color="#E9EFFD"/>
</linearGradient>
</defs>
</svg>
