<svg width="24" height="24" viewBox="0 0 24 24" fill="none" xmlns="http://www.w3.org/2000/svg">
<path d="M23.0733 10.4685C23.969 10.4685 24.3429 9.25314 23.6153 8.6929L12.5449 0.188277C12.3868 0.0659484 12.1959 0 11.9999 0C11.8039 0 11.6131 0.0659484 11.455 0.188277L0.38451 8.6929C-0.343084 9.25008 0.0308585 10.4685 0.929481 10.4685H2.72383V21.9182H0.636704C0.509157 21.9182 0.404801 22.0284 0.404801 22.1631V23.7551C0.404801 23.8898 0.509157 24 0.636704 24H23.3632C23.4907 24 23.5951 23.8898 23.5951 23.7551V22.1631C23.5951 22.0284 23.4907 21.9182 23.3632 21.9182H21.276V10.4685H23.0733ZM8.20253 21.9182H4.81095V10.4685H8.20253V21.9182ZM13.6812 21.9182H10.2896V10.4685H13.6812V21.9182ZM19.1889 21.9182H15.7683V10.4685H19.1889V21.9182Z" fill="#FF6C0E"/>
</svg>
