<svg width="19" height="21" viewBox="0 0 19 21" fill="none" xmlns="http://www.w3.org/2000/svg">
<path d="M1.75586 17.4629H11.5898C11.5117 18.7812 10.6719 19.6211 9.49023 19.6211C8.31836 19.6211 7.46875 18.7812 7.40039 17.4629H5.87695C5.95508 19.3379 7.42969 20.9883 9.49023 20.9883C11.5605 20.9883 13.0352 19.3477 13.1133 17.4629H17.2344C18.1523 17.4629 18.709 16.9844 18.709 16.2812C18.709 15.3047 17.7129 14.4258 16.873 13.5566C16.2285 12.8828 16.0527 11.4961 15.9746 10.373C15.9062 6.52539 14.9102 4.03516 12.3125 3.09766C11.9805 1.82812 10.9355 0.8125 9.49023 0.8125C8.05469 0.8125 7 1.82812 6.67773 3.09766C4.08008 4.03516 3.08398 6.52539 3.01562 10.373C2.9375 11.4961 2.76172 12.8828 2.11719 13.5566C1.26758 14.4258 0.28125 15.3047 0.28125 16.2812C0.28125 16.9844 0.828125 17.4629 1.75586 17.4629ZM2.17578 15.9883V15.8711C2.35156 15.5781 2.9375 15.0117 3.44531 14.4355C4.14844 13.6543 4.48047 12.4043 4.56836 10.4902C4.64648 6.23242 5.91602 4.86523 7.58594 4.41602C7.83008 4.35742 7.9668 4.23047 7.97656 3.98633C8.00586 2.96094 8.5918 2.24805 9.49023 2.24805C10.3984 2.24805 10.9746 2.96094 11.0137 3.98633C11.0234 4.23047 11.1504 4.35742 11.3945 4.41602C13.0742 4.86523 14.3438 6.23242 14.4219 10.4902C14.5098 12.4043 14.8418 13.6543 15.5352 14.4355C16.0527 15.0117 16.6289 15.5781 16.8047 15.8711V15.9883H2.17578Z" fill="white"/>
</svg>
