<svg xmlns="http://www.w3.org/2000/svg" width="24" height="24" viewBox="0 0 24 24" fill="none">
<path fill-rule="evenodd" clip-rule="evenodd" d="M5.45399 7.85899C5.82461 4.52345 8.64398 2 12 2C15.3561 2 18.1755 4.52346 18.5461 7.85899L18.7979 10.1252L18.8039 10.1793C18.9168 11.1625 19.2368 12.1106 19.7429 12.9611L19.7709 13.0077L20.3489 13.9711L20.373 14.0114C20.6146 14.4138 20.8334 14.7785 20.9791 15.0879C21.1273 15.4024 21.2856 15.8286 21.2094 16.3117C21.1341 16.7893 20.8883 17.2233 20.5176 17.5337C20.1425 17.8476 19.6956 17.931 19.3497 17.9658C19.0093 18.0001 18.5841 18 18.1147 18L18.0678 18H5.93226L5.88536 18C5.41598 18 4.99072 18.0001 4.65035 17.9658C4.30446 17.931 3.85759 17.8476 3.48252 17.5337C3.11179 17.2233 2.86601 16.7893 2.79066 16.3117C2.71443 15.8286 2.8728 15.4024 3.02092 15.0879C3.16667 14.7785 3.38549 14.4138 3.62701 14.0114L3.65116 13.9711L4.2292 13.0077L4.25714 12.9611C4.76327 12.1106 5.08331 11.1625 5.19614 10.1793L5.20219 10.1252L5.45399 7.85899ZM12 4C9.66307 4 7.69983 5.75718 7.44176 8.07985L7.18996 10.3461L7.1831 10.4073C7.03803 11.6714 6.62656 12.8904 5.97581 13.9839L5.94418 14.0367L5.36615 15.0001C5.09264 15.456 4.92782 15.733 4.8303 15.9401C4.82496 15.9514 4.82007 15.9621 4.81559 15.972C4.82645 15.9733 4.8381 15.9746 4.85055 15.9759C5.0783 15.9988 5.40067 16 5.93226 16H18.0678C18.5994 16 18.9218 15.9988 19.1495 15.9759C19.162 15.9746 19.1736 15.9733 19.1845 15.972C19.18 15.9621 19.1751 15.9514 19.1698 15.9401C19.0722 15.733 18.9074 15.456 18.6339 15.0001L18.0559 14.0367L18.0243 13.9839C17.3735 12.8904 16.962 11.6714 16.817 10.4073L16.8101 10.3461L16.5583 8.07985C16.3002 5.75719 14.337 4 12 4Z" fill="white"/>
<path d="M9.10222 17.6647C9.27315 18.6215 9.64978 19.467 10.1737 20.0701C10.6976 20.6731 11.3396 21 12 21C12.6604 21 13.3024 20.6731 13.8263 20.0701C14.3502 19.467 14.7269 18.6215 14.8978 17.6647" stroke="white" stroke-width="2" stroke-linecap="round"/>
</svg>