<svg width="23" height="28" viewBox="0 0 23 28" fill="none" xmlns="http://www.w3.org/2000/svg">
<path d="M3.75586 20.4629H13.5898C13.5117 21.7812 12.6719 22.6211 11.4902 22.6211C10.3184 22.6211 9.46875 21.7812 9.40039 20.4629H7.87695C7.95508 22.3379 9.42969 23.9883 11.4902 23.9883C13.5605 23.9883 15.0352 22.3477 15.1133 20.4629H19.2344C20.1523 20.4629 20.709 19.9844 20.709 19.2812C20.709 18.3047 19.7129 17.4258 18.873 16.5566C18.2285 15.8828 18.0527 14.4961 17.9746 13.373C17.9062 9.52539 16.9102 7.03516 14.3125 6.09766C13.9805 4.82812 12.9355 3.8125 11.4902 3.8125C10.0547 3.8125 9 4.82812 8.67773 6.09766C6.08008 7.03516 5.08398 9.52539 5.01562 13.373C4.9375 14.4961 4.76172 15.8828 4.11719 16.5566C3.26758 17.4258 2.28125 18.3047 2.28125 19.2812C2.28125 19.9844 2.82812 20.4629 3.75586 20.4629ZM4.17578 18.9883V18.8711C4.35156 18.5781 4.9375 18.0117 5.44531 17.4355C6.14844 16.6543 6.48047 15.4043 6.56836 13.4902C6.64648 9.23242 7.91602 7.86523 9.58594 7.41602C9.83008 7.35742 9.9668 7.23047 9.97656 6.98633C10.0059 5.96094 10.5918 5.24805 11.4902 5.24805C12.3984 5.24805 12.9746 5.96094 13.0137 6.98633C13.0234 7.23047 13.1504 7.35742 13.3945 7.41602C15.0742 7.86523 16.3438 9.23242 16.4219 13.4902C16.5098 15.4043 16.8418 16.6543 17.5352 17.4355C18.0527 18.0117 18.6289 18.5781 18.8047 18.8711V18.9883H4.17578Z" fill="#0E24EC"/>
</svg>
