<svg width="70"
    height="59"
    viewBox="0 0 70 59"
    fill="none"
    xmlns="http://www.w3.org/2000/svg">
    <g clip-path="url(#clip0_4211_51511)">
        <path d="M47.6208 34.7596C52.7117 28.7154 53.8265 26.1453 53.7026 18.7373C53.5787 11.3293 59.1388 0.891615 56.1796 3.18484C53.2204 5.47806 49.0608 13.129 50.8368 19.0355C52.6127 24.942 52.1941 26.885 51.5704 28.5106C50.9468 30.1362 47.5352 34.2689 47.5352 34.2689L47.6208 34.7596Z"
            fill="#CFE0FF"/>
        <path d="M50.7257 30.7629C50.7424 30.7384 50.7591 30.7138 50.7754 30.6888C51.02 30.0933 52.2631 27.0194 52.3683 25.5838C52.4849 23.9902 51.1072 20.3003 51.9326 17.1494C52.758 13.9985 52.802 11.2105 53.0233 9.04429C53.3152 6.18544 55.599 3.48142 56.9967 2.98255C56.985 2.95921 56.9699 2.9378 56.9518 2.91907L56.5776 2.92726C56.4364 2.99919 56.3029 3.08566 56.1794 3.18529C53.2202 5.47892 49.0606 13.1294 50.8365 19.0359C52.6125 24.9424 52.1939 26.8855 51.5702 28.5111C51.4015 28.9493 51.0301 29.5703 50.5781 30.2432L50.7257 30.7629Z"
            fill="#ADC9FF"/>
        <path d="M46.6738 43.2436C50.2171 34.7436 50.7576 31.6017 50.8314 23.9988C50.9052 16.3958 68.2475 4.06505 67.0447 6.72116C65.8419 9.37727 62.5076 15.885 57.7599 19.1961C53.0121 22.5071 51.7273 25.9463 51.3307 29.8627C50.9341 33.7791 47.6297 42.2024 47.6297 42.2024L46.7794 43.6409L46.6738 43.2436Z"
            fill="#CFE0FF"/>
        <path d="M48.2141 39.7626C48.2011 39.7628 48.1881 39.7607 48.1758 39.7565C48.1606 39.7514 48.1464 39.7434 48.1343 39.7328C48.1221 39.7223 48.1121 39.7095 48.1049 39.695C48.0976 39.6806 48.0933 39.6649 48.0921 39.6488C48.0909 39.6327 48.0929 39.6166 48.098 39.6012C48.1069 39.5746 48.9878 36.8935 49.5784 34.6548C50.169 32.416 50.6671 28.4292 50.6789 27.0129C50.6903 25.7186 51.4269 21.5823 54.6559 18.0308C56.2631 16.2647 57.4464 15.1957 59.0837 13.7213C60.7011 12.2619 62.7143 10.4447 66.0191 7.17623C66.0304 7.16425 66.044 7.15467 66.059 7.14808C66.0741 7.14148 66.0903 7.13799 66.1067 7.13782C66.1231 7.13766 66.1394 7.14081 66.1546 7.1471C66.1697 7.15338 66.1835 7.16268 66.195 7.17442C66.2065 7.18617 66.2156 7.20012 66.2216 7.21546C66.2277 7.23079 66.2306 7.24719 66.2302 7.26368C66.2298 7.28017 66.2261 7.29641 66.2193 7.31143C66.2125 7.32645 66.2028 7.33995 66.1907 7.35112C62.8818 10.6245 60.8662 12.443 59.2472 13.9044C57.6147 15.3788 56.4347 16.4437 54.8373 18.1988C51.658 21.6933 50.9353 25.7493 50.9243 27.0174C50.9117 28.4452 50.4099 32.4647 49.8148 34.7199C49.2225 36.966 48.3393 39.6537 48.3303 39.6807C48.3218 39.7048 48.3061 39.7256 48.2853 39.7403C48.2644 39.755 48.2396 39.7628 48.2141 39.7626Z"
            fill="#ADC9FF"/>
        <path d="M51.2402 47.0121C52.4136 40.9668 52.2498 43.9853 50.3813 35.4592C48.243 25.7002 59.6507 18.2369 61.0887 21.8309C62.5267 25.4249 63.5861 36.4094 62.85 35.9896C62.1138 35.5698 57.9135 25.0801 57.7366 25.488C57.5597 25.896 50.4751 28.7937 50.4347 32.3951C50.3944 35.9965 52.4699 41.9117 52.4699 41.9117L51.9319 47.1452L51.2402 47.0121Z"
            fill="#CFE0FF"/>
        <path d="M51.9445 47.1087C51.9368 47.1086 51.9292 47.108 51.9217 47.1067L51.2287 46.9736C51.2129 46.9705 51.1978 46.9644 51.1843 46.9554C51.1709 46.9465 51.1593 46.935 51.1503 46.9216C51.1413 46.9081 51.135 46.893 51.1318 46.8771C51.1286 46.8613 51.1286 46.8449 51.1317 46.829C51.267 46.1327 51.3873 45.5429 51.4835 45.0707C52.0056 42.5141 52.0056 42.5141 51.406 40.2303C51.1338 39.1945 50.7612 37.7761 50.259 35.4853C49.8827 33.7769 49.9018 32.0044 50.3149 30.3046C50.6793 28.7892 51.3396 27.3208 52.2771 25.9426C53.8851 23.5793 56.2573 21.6384 58.3215 20.9982C59.7705 20.5477 60.8193 20.8344 61.1991 21.785C61.8106 23.3135 62.4305 26.3837 62.8569 29.9978C63.0358 31.5133 63.1561 32.9509 63.1956 34.0428C63.2612 35.856 63.0864 36.0088 63.0118 36.0751C62.9816 36.1027 62.9434 36.1196 62.9028 36.1235C62.8622 36.1273 62.8215 36.1178 62.7868 36.0964C62.3755 35.8622 61.2057 33.2728 59.5977 29.6407C58.8151 27.8729 58.008 26.0495 57.7475 25.6522C57.6114 25.7648 57.3261 25.9262 56.766 26.2383C54.7594 27.3569 50.5847 29.6841 50.5541 32.3963C50.5134 35.9355 52.5616 41.8121 52.5824 41.8711C52.5883 41.8881 52.5904 41.9063 52.5885 41.9243L52.0651 46.9986C52.0634 47.0155 52.0581 47.0319 52.0497 47.0467C52.0413 47.0615 52.0299 47.0744 52.0162 47.0846C51.9955 47.1 51.9703 47.1085 51.9445 47.1087ZM51.3963 46.7553L51.8369 46.84L52.3435 41.9251C52.1935 41.4902 50.2721 35.8527 50.3108 32.3926C50.343 29.5375 54.6017 27.1631 56.6486 26.0221C57.1186 25.7599 57.5629 25.5125 57.6269 25.4319C57.6379 25.4085 57.6551 25.3886 57.6767 25.3746C57.6983 25.3605 57.7234 25.3528 57.7492 25.3524H57.7545C57.8552 25.3524 57.9314 25.3737 58.5289 26.6561C58.8807 27.4109 59.3384 28.4451 59.8231 29.5395C60.4377 30.9288 61.1347 32.5032 61.7099 33.7172C62.4546 35.2871 62.7529 35.7368 62.8724 35.8523C62.9156 35.7454 63.0024 35.3584 62.951 34.0092C62.9103 32.9185 62.788 31.4903 62.6107 29.9868C62.1868 26.4112 61.575 23.3795 60.9741 21.8771C60.6481 21.0609 59.7073 20.8262 58.3952 21.2333C54.7985 22.3494 48.9168 28.2096 50.4995 35.4329C51.0005 37.7188 51.3722 39.1343 51.6441 40.168C52.2583 42.5075 52.2583 42.5075 51.7256 45.1202C51.6282 45.5863 51.5214 46.1131 51.3963 46.7553Z"
            fill="#ADC9FF"/>
        <path d="M47.7291 35.1871L47.8106 35.1085C47.8152 34.3607 47.8607 33.6137 47.9471 32.871C47.7944 33.6333 47.7213 34.4095 47.7291 35.1871Z"
            fill="#ADC9FF"/>
        <path d="M51.189 29.807C50.9442 30.2994 50.7619 30.8208 50.6465 31.3588C51.8583 28.3591 57.3145 26.047 57.6952 25.608L57.7657 25.4953C55.8593 24.7692 52.4852 27.2475 51.189 29.807Z"
            fill="#ADC9FF"/>
        <path d="M62.8792 35.8347C62.8497 35.8351 62.8211 35.8247 62.7986 35.8055C62.7761 35.7863 62.7613 35.7596 62.7569 35.7303L62.2535 32.4193C62.2214 32.2082 62.189 31.9942 62.1561 31.7774C61.6886 28.6823 61.1065 24.8306 60.2269 23.0633C60.085 22.7766 59.388 22.3482 58.3421 22.3285C56.9192 22.3019 54.103 23.0399 51.2392 28.287C51.2318 28.3017 51.2215 28.3148 51.209 28.3254C51.1965 28.336 51.182 28.344 51.1663 28.3489C51.1507 28.3538 51.1342 28.3555 51.1179 28.3538C51.1016 28.3522 51.0857 28.3472 51.0714 28.3393C51.057 28.3314 51.0443 28.3207 51.0342 28.3078C51.024 28.2948 51.0165 28.28 51.0122 28.2641C51.0078 28.2482 51.0067 28.2316 51.0089 28.2153C51.0111 28.199 51.0165 28.1833 51.0248 28.1691C53.949 22.8085 56.8694 22.0549 58.3466 22.0828C59.5062 22.1045 60.2721 22.605 60.4454 22.9535C61.3421 24.7557 61.9034 28.466 62.3982 31.7402C62.4308 31.9572 62.4631 32.1712 62.4952 32.382L62.9986 35.693C63.0035 35.7252 62.9955 35.7581 62.9763 35.7843C62.9571 35.8106 62.9283 35.8281 62.8963 35.8331C62.8906 35.8341 62.8849 35.8347 62.8792 35.8347Z"
            fill="#ADC9FF"/>
        <path d="M60.5564 30.5389C60.5479 30.5388 60.5395 30.538 60.5311 30.5364C60.5152 30.5334 60.5 30.5272 60.4865 30.5182C60.473 30.5092 60.4614 30.4976 60.4524 30.4841C60.4433 30.4706 60.4371 30.4554 60.4339 30.4394C60.4308 30.4234 60.4309 30.407 60.4341 30.391C60.4407 30.3595 61.0777 27.218 60.5454 23.8066C60.5429 23.7907 60.5436 23.7744 60.5474 23.7587C60.5511 23.743 60.5579 23.7282 60.5674 23.7152C60.5769 23.7021 60.5888 23.6911 60.6025 23.6827C60.6162 23.6743 60.6314 23.6687 60.6473 23.6662C60.6632 23.6637 60.6794 23.6643 60.695 23.6681C60.7106 23.6719 60.7253 23.6788 60.7383 23.6883C60.7513 23.6978 60.7623 23.7098 60.7707 23.7235C60.779 23.7373 60.7846 23.7526 60.7871 23.7686C61.3264 27.2258 60.6803 30.4094 60.6734 30.441C60.6678 30.4682 60.6532 30.4927 60.6319 30.5104C60.6107 30.5282 60.5841 30.5382 60.5564 30.5389Z"
            fill="#ADC9FF"/>
        <path d="M59.7534 28.4857C59.7449 28.4857 59.7364 28.4849 59.7281 28.4832C59.7123 28.4799 59.6974 28.4735 59.6841 28.4644C59.6708 28.4553 59.6595 28.4436 59.6507 28.43C59.6419 28.4165 59.6359 28.4013 59.6329 28.3854C59.63 28.3696 59.6302 28.3532 59.6335 28.3374C59.6392 28.3087 60.2352 25.4319 60.2156 23.0092C60.2156 22.9766 60.2285 22.9454 60.2514 22.9223C60.2743 22.8993 60.3054 22.8864 60.3379 22.8864C60.3703 22.8864 60.4014 22.8993 60.4243 22.9223C60.4473 22.9454 60.4602 22.9766 60.4602 23.0092C60.4797 25.4589 59.8789 28.3612 59.8728 28.3903C59.8666 28.4174 59.8514 28.4416 59.8297 28.459C59.808 28.4763 59.7811 28.4857 59.7534 28.4857Z"
            fill="#ADC9FF"/>
        <path d="M59.1288 13.9601C59.0963 13.9627 59.0642 13.9523 59.0394 13.9312C59.0146 13.91 58.9991 13.8798 58.9965 13.8472C58.9939 13.8146 59.0042 13.7823 59.0253 13.7574C59.0463 13.7325 59.0764 13.717 59.1088 13.7143C59.1361 13.7094 61.883 13.2265 64.0225 11.0349C64.0454 11.0129 64.076 11.0007 64.1077 11.001C64.1394 11.0012 64.1698 11.0138 64.1924 11.0361C64.2151 11.0585 64.2282 11.0887 64.229 11.1206C64.2299 11.1525 64.2184 11.1834 64.1969 11.2069C61.9999 13.4596 59.1773 13.951 59.1491 13.9568C59.1424 13.9583 59.1356 13.9594 59.1288 13.9601Z"
            fill="#ADC9FF"/>
        <path d="M56.75 16.5228C56.5707 16.5228 56.4672 16.5154 56.4488 16.5138C56.4164 16.5112 56.3863 16.4957 56.3652 16.4708C56.3441 16.4459 56.3337 16.4137 56.3363 16.3811C56.3389 16.3485 56.3543 16.3183 56.3791 16.2971C56.4038 16.2759 56.436 16.2654 56.4684 16.268C56.4892 16.268 58.583 16.4179 61.4738 15.1962C61.4886 15.1899 61.5045 15.1866 61.5205 15.1865C61.5366 15.1864 61.5525 15.1895 61.5674 15.1956C61.5823 15.2017 61.5958 15.2106 61.6072 15.222C61.6186 15.2333 61.6277 15.2468 61.634 15.2617C61.6402 15.2766 61.6435 15.2925 61.6436 15.3087C61.6437 15.3248 61.6406 15.3408 61.6345 15.3558C61.6285 15.3707 61.6196 15.3843 61.6083 15.3958C61.597 15.4073 61.5836 15.4164 61.5688 15.4227C59.2299 16.4122 57.4365 16.5228 56.75 16.5228Z"
            fill="#ADC9FF"/>
        <path d="M55.0585 19.1637C54.3994 19.1637 54.0603 19.0408 54.0326 19.0322C54.0033 19.02 53.9799 18.997 53.9672 18.9678C53.9546 18.9386 53.9537 18.9057 53.9647 18.8758C53.9757 18.846 53.9979 18.8217 54.0264 18.8079C54.0549 18.7941 54.0877 18.792 54.1177 18.802C54.1308 18.8065 55.4628 19.2722 58.1086 18.2671C58.1237 18.2608 58.14 18.2577 58.1563 18.2578C58.1727 18.258 58.1889 18.2614 58.2039 18.2679C58.2189 18.2745 58.2325 18.284 58.2438 18.2959C58.2551 18.3078 58.2639 18.3219 58.2697 18.3373C58.2755 18.3526 58.2781 18.369 58.2775 18.3855C58.2769 18.4019 58.2729 18.4181 58.266 18.4329C58.259 18.4478 58.2491 18.4612 58.2369 18.4722C58.2248 18.4831 58.2105 18.4916 58.195 18.4969C56.792 19.0306 55.7494 19.1637 55.0585 19.1637Z"
            fill="#ADC9FF"/>
        <path d="M17.5761 51.3367C17.4872 51.0656 11.2822 43.1194 11.5753 36.585C11.7791 32.01 10.4238 27.05 10.4238 27.05C10.4238 27.05 14.8313 30.3676 14.9666 37.6262C15.0481 42.093 14.9099 43.3844 15.1932 44.6131C15.4765 45.8419 18.024 51.6091 18.024 51.6091L17.5761 51.3367Z"
            fill="#CFE0FF"/>
        <path d="M18.025 51.7321C18.0027 51.7321 17.9808 51.7259 17.9618 51.714L17.5135 51.4433C17.49 51.4292 17.4719 51.4075 17.4621 51.3819C17.4429 51.3409 17.3207 51.1664 17.1792 50.9625C16.5454 50.0487 15.0597 47.9095 13.7553 45.2636C12.1184 41.9489 11.3444 39.0278 11.454 36.5806C11.6578 32.0781 10.3205 27.1329 10.307 27.0833C10.3003 27.0586 10.3015 27.0325 10.3103 27.0085C10.3191 26.9845 10.3352 26.9639 10.3562 26.9495C10.3773 26.9351 10.4023 26.9277 10.4277 26.9283C10.4532 26.9288 10.4778 26.9373 10.4982 26.9526C10.5438 26.987 11.6301 27.8152 12.7482 29.551C13.7774 31.1483 15.0193 33.8471 15.0898 37.625C15.118 39.1359 15.1208 40.2741 15.1229 41.1883C15.1269 42.9724 15.129 43.7863 15.3132 44.5878C15.5904 45.7907 18.1114 51.5039 18.1371 51.5617C18.1477 51.5856 18.1504 51.6123 18.1448 51.6378C18.1392 51.6634 18.1257 51.6865 18.1061 51.7038C18.0834 51.7228 18.0546 51.7328 18.025 51.7321ZM17.4609 51.3753V51.3786V51.3753ZM17.6704 51.2496L17.7564 51.3024C17.1923 50.0151 15.3193 45.7027 15.0748 44.6406C14.8844 43.8141 14.8824 42.9913 14.8783 41.1883C14.8763 40.2745 14.8734 39.1376 14.8453 37.6287C14.776 33.9134 13.5597 31.2634 12.5492 29.6948C11.7923 28.5172 11.0362 27.755 10.6384 27.3942C10.9449 28.6401 11.8694 32.7715 11.6982 36.592C11.5294 40.3565 13.4411 45.144 17.3802 50.8216C17.5616 51.0816 17.6357 51.1914 17.6704 51.2496Z"
            fill="#ADC9FF"/>
        <path d="M15.5748 50.1048C15.8088 50.5316 16.0138 51.2684 16.1862 52.1047H16.5975C15.175 45.0854 12.1978 40.9671 7.63021 37.8441C1.9751 33.9773 1.59766 32.8177 1.59766 32.8177C1.59766 32.8177 3.52766 41.5458 6.85209 44.2204C10.1765 46.8949 14.7502 48.6004 15.5748 50.1048Z"
            fill="#CFE0FF"/>
        <path d="M13.151 51.2844C13.7077 51.3073 14.2303 51.6383 14.6946 52.1036H15.6516C14.6 50.2916 13.2264 48.7962 11.5678 48.786C7.38213 48.7565 6.54899 49.8439 3.67374 49.7587C2.43517 49.7216 1.20388 49.5543 0 49.2595C0 49.2595 1.41969 51.8484 5.22957 52.4914C7.9218 52.9452 11.1337 51.2021 13.151 51.2844Z"
            fill="#CFE0FF"/>
        <path d="M16.7246 52.9706C16.6968 52.9706 16.6698 52.9611 16.6481 52.9437C16.6264 52.9263 16.6112 52.902 16.6051 52.8747C15.9436 49.936 14.8463 47.3639 13.4319 45.4364C11.6319 42.983 9.83481 41.654 8.09719 40.3691C6.44965 39.1502 4.89301 37.9989 3.56177 36.0133C3.55281 35.9998 3.54657 35.9847 3.5434 35.9689C3.54024 35.953 3.54022 35.9366 3.54334 35.9208C3.54647 35.9049 3.55267 35.8898 3.5616 35.8763C3.57053 35.8628 3.58202 35.8513 3.5954 35.8423C3.60878 35.8333 3.6238 35.827 3.63959 35.8238C3.65539 35.8206 3.67165 35.8206 3.68745 35.8237C3.70325 35.8269 3.71829 35.8331 3.73169 35.8421C3.7451 35.8511 3.75661 35.8626 3.76558 35.8761C5.07317 37.8265 6.61269 38.9655 8.24311 40.1709C9.99581 41.4672 11.8076 42.8073 13.6296 45.2906C15.0844 47.2734 16.1661 49.8066 16.8448 52.8203C16.8489 52.8383 16.8489 52.857 16.8448 52.875C16.8407 52.8931 16.8326 52.9099 16.8212 52.9244C16.8097 52.9388 16.7951 52.9505 16.7785 52.9585C16.7619 52.9665 16.7438 52.9706 16.7254 52.9706H16.7246Z"
            fill="#ADC9FF"/>
        <path d="M16.3344 53.4653C16.3125 53.4653 16.2909 53.4594 16.2721 53.4482C16.2532 53.4369 16.2377 53.4208 16.2272 53.4015C14.9171 50.9903 13.6328 49.6768 12.1862 49.2676C10.9096 48.9068 9.67209 49.2971 8.36164 49.7099C7.98991 49.8271 7.60554 49.9483 7.22035 50.0511C3.84416 50.9522 2.09839 50.3378 2.02584 50.3132C2.01074 50.3077 1.99687 50.2993 1.98503 50.2884C1.97318 50.2775 1.96359 50.2643 1.95679 50.2497C1.95 50.2351 1.94614 50.2193 1.94543 50.2032C1.94472 50.187 1.94718 50.1709 1.95267 50.1558C1.95816 50.1406 1.96656 50.1267 1.97741 50.1148C1.98825 50.1028 2.00133 50.0932 2.01588 50.0864C2.03043 50.0796 2.04618 50.0757 2.06223 50.075C2.07827 50.0743 2.0943 50.0767 2.10939 50.0822C2.12611 50.0884 3.86454 50.6921 7.15758 49.8136C7.53747 49.7124 7.91939 49.592 8.28827 49.4757C9.63337 49.0513 10.9059 48.6504 12.2522 49.0313C13.7669 49.4597 15.0981 50.8109 16.4416 53.2835C16.4518 53.3022 16.4569 53.3232 16.4566 53.3446C16.4562 53.3659 16.4503 53.3867 16.4395 53.4051C16.4287 53.4234 16.4133 53.4386 16.3949 53.4492C16.3765 53.4598 16.3556 53.4653 16.3344 53.4653Z"
            fill="#ADC9FF"/>
        <path d="M10.1764 41.9234C10.1549 41.9235 10.1338 41.9177 10.1153 41.9066C10.0937 41.8939 7.93582 40.648 5.14251 40.478C5.12645 40.4771 5.11074 40.4729 5.09627 40.4658C5.08181 40.4588 5.06886 40.4489 5.05819 40.4368C5.04752 40.4247 5.03932 40.4106 5.03406 40.3954C5.02881 40.3801 5.0266 40.3639 5.02756 40.3478C5.02853 40.3316 5.03264 40.3159 5.03968 40.3013C5.04671 40.2868 5.05653 40.2738 5.06857 40.2631C5.0806 40.2523 5.09462 40.2441 5.10983 40.2388C5.12503 40.2335 5.14112 40.2313 5.15718 40.2323C8.01041 40.4059 10.2168 41.6809 10.2388 41.6941C10.262 41.7077 10.2801 41.7286 10.2903 41.7536C10.3004 41.7786 10.3021 41.8063 10.2951 41.8324C10.288 41.8584 10.2726 41.8815 10.2512 41.8978C10.2299 41.9142 10.2037 41.9231 10.1768 41.923L10.1764 41.9234Z"
            fill="#ADC9FF"/>
        <path d="M13.9482 46.065C13.9296 46.065 13.9114 46.0608 13.8947 46.0526C13.878 46.0445 13.8634 46.0326 13.852 46.018C12.1152 43.7894 10.3445 43.3967 6.50573 42.7143C6.48933 42.7123 6.47352 42.7069 6.45924 42.6986C6.44496 42.6902 6.43251 42.6791 6.42265 42.6657C6.41278 42.6524 6.4057 42.6373 6.40183 42.6211C6.39797 42.605 6.3974 42.5882 6.40015 42.5719C6.40291 42.5555 6.40893 42.5399 6.41787 42.5259C6.4268 42.5119 6.43846 42.4999 6.45214 42.4906C6.46581 42.4813 6.48122 42.4749 6.49744 42.4717C6.51366 42.4686 6.53034 42.4687 6.54649 42.4722C10.4497 43.164 12.253 43.567 14.0427 45.8664C14.0569 45.8845 14.0657 45.9063 14.0681 45.9292C14.0705 45.9521 14.0665 45.9752 14.0564 45.9959C14.0464 46.0167 14.0308 46.0341 14.0114 46.0463C13.9919 46.0586 13.9695 46.065 13.9466 46.065H13.9482Z"
            fill="#ADC9FF"/>
        <path d="M46.077 53.4215C50.8236 43.9857 55.831 40.2135 62.5214 38.7808C69.2119 37.3481 69.9985 36.4183 69.9985 36.4183C69.9985 36.4183 64.9296 43.7661 60.8458 44.9785C56.762 46.1908 51.8858 46.0348 50.5566 47.1144C49.2274 48.1941 46.7875 52.9714 46.7875 52.9714L45.9629 53.6202L46.077 53.4215Z"
            fill="#CFE0FF"/>
        <path d="M48.2858 56.7461C48.245 56.5704 50.2802 47.0158 54.4622 46.8372C58.6442 46.6586 59.5165 47.7161 62.3856 47.5285C63.6221 47.4474 64.8467 47.2363 66.0394 46.8986C66.0394 46.8986 64.7118 49.5367 60.9268 50.3145C58.2509 50.8645 54.9794 49.2369 52.9679 49.3909C50.9564 49.5449 49.54 53.7111 49.54 53.7111L48.9934 55.8954L48.2858 56.7461Z"
            fill="#CFE0FF"/>
        <path d="M46.3375 52.9706C46.3201 52.9704 46.3029 52.9667 46.287 52.9595C46.2722 52.9528 46.2589 52.9433 46.2479 52.9314C46.2368 52.9195 46.2282 52.9056 46.2225 52.8903C46.2169 52.8751 46.2143 52.8589 46.2149 52.8426C46.2156 52.8264 46.2194 52.8104 46.2262 52.7957C46.2332 52.7801 46.9448 51.209 48.2724 49.277C49.4985 47.4929 51.5169 45.0239 54.1704 43.3967C56.7913 41.7895 58.9728 41.2366 61.0826 40.7021C63.0456 40.2049 64.8994 39.7351 66.8437 38.4257C66.8707 38.4075 66.9038 38.4009 66.9357 38.4073C66.9676 38.4137 66.9956 38.4325 67.0137 38.4596C67.0317 38.4868 67.0383 38.5201 67.0319 38.5521C67.0256 38.5841 67.0069 38.6123 66.9798 38.6304C65.0005 39.9636 63.1263 40.4383 61.1425 40.9413C59.0503 41.4713 56.8871 42.0193 54.2976 43.6072C51.6828 45.2111 49.6888 47.6497 48.4766 49.4134C47.1605 51.3277 46.4557 52.8821 46.4488 52.8977C46.4392 52.9193 46.4236 52.9377 46.4039 52.9506C46.3841 52.9635 46.3611 52.9705 46.3375 52.9706Z"
            fill="#ADC9FF"/>
        <path d="M48.841 53.9974C48.8256 53.9973 48.8104 53.9943 48.7961 53.9884C48.766 53.9764 48.7418 53.9529 48.7289 53.923C48.716 53.8931 48.7154 53.8593 48.7273 53.829C50.1624 50.1772 51.6123 48.104 53.2924 47.3045C54.7945 46.5885 56.2378 46.9875 57.7655 47.4101C58.1384 47.5134 58.5244 47.6198 58.9068 47.7079C62.2385 48.4709 63.9444 47.8033 63.9611 47.7968C63.9761 47.7899 63.9924 47.7862 64.0089 47.7858C64.0254 47.7854 64.0418 47.7884 64.0571 47.7946C64.0724 47.8007 64.0864 47.8099 64.098 47.8216C64.1097 47.8334 64.1189 47.8473 64.1251 47.8627C64.1313 47.8781 64.1343 47.8946 64.1339 47.9112C64.1336 47.9278 64.1299 47.9441 64.1231 47.9592C64.1163 47.9743 64.1066 47.9879 64.0944 47.9991C64.0822 48.0104 64.0679 48.019 64.0524 48.0245C63.9806 48.0536 62.2589 48.7273 58.8522 47.9475C58.4637 47.8582 58.0753 47.7509 57.6995 47.6469C56.2166 47.2373 54.8161 46.8494 53.396 47.5265C51.7778 48.2977 50.3666 50.3292 48.9555 53.9195C48.9465 53.9426 48.9307 53.9624 48.9102 53.9763C48.8898 53.9902 48.8657 53.9975 48.841 53.9974Z"
            fill="#ADC9FF"/>
        <path d="M63.8762 42.1713C63.8624 42.1715 63.8486 42.1693 63.8355 42.1647C61.186 41.2612 58.7184 41.5954 58.6939 41.5991C58.6621 41.6031 58.63 41.5943 58.6046 41.5747C58.5791 41.5551 58.5623 41.5263 58.5578 41.4944C58.5534 41.4625 58.5615 41.4301 58.5806 41.4042C58.5996 41.3782 58.628 41.3609 58.6597 41.3558C58.6846 41.3521 61.2064 41.0089 63.9141 41.9321C63.9417 41.9415 63.965 41.9605 63.9799 41.9856C63.9947 42.0107 64.0002 42.0403 63.9953 42.0692C63.9904 42.098 63.9754 42.1241 63.9531 42.1428C63.9307 42.1615 63.9025 42.1716 63.8734 42.1713H63.8762Z"
            fill="#ADC9FF"/>
        <path d="M53.6279 44.0025C53.601 44.0025 53.5748 43.9935 53.5535 43.977C53.5322 43.9605 53.5169 43.9374 53.51 43.9112C53.5031 43.8851 53.5049 43.8574 53.5152 43.8325C53.5256 43.8075 53.5438 43.7866 53.5671 43.7732C56.091 42.3245 57.9102 42.6358 61.784 43.477C61.8158 43.4839 61.8435 43.5032 61.8611 43.5306C61.8786 43.5581 61.8847 43.5914 61.8778 43.6233C61.8709 43.6551 61.8517 43.683 61.8245 43.7006C61.7972 43.7183 61.764 43.7244 61.7323 43.7175C57.922 42.8897 56.1342 42.5829 53.6882 43.9865C53.6698 43.9969 53.649 44.0024 53.6279 44.0025Z"
            fill="#ADC9FF"/>
        <path d="M21.1719 6.10304H43.4577C43.4577 5.74044 43.3867 5.38137 43.2486 5.04634C43.1106 4.71132 42.9082 4.40691 42.653 4.15049C42.3979 3.89406 42.095 3.69066 41.7616 3.55188C41.4282 3.4131 41.0709 3.34167 40.71 3.34167H23.9199C23.559 3.34162 23.2017 3.41301 22.8682 3.55176C22.5348 3.69052 22.2318 3.89391 21.9766 4.15034C21.7215 4.40677 21.519 4.7112 21.381 5.04625C21.2429 5.3813 21.1718 5.7404 21.1719 6.10304Z"
            fill="#93B1C2"/>
        <path d="M50.2653 4.77075H13.9375V53.8754H50.2653V4.77075Z"
            fill="#BDCCD4"/>
        <path d="M48.7159 6.86487H15.4863V51.7816H48.7159V6.86487Z"
            fill="white"/>
        <path opacity="0.7"
            d="M46.1653 16.0918H18.5566C18.3398 16.0918 18.1641 16.2684 18.1641 16.4862V16.5133C18.1641 16.7311 18.3398 16.9077 18.5566 16.9077H46.1653C46.3821 16.9077 46.5578 16.7311 46.5578 16.5133V16.4862C46.5578 16.2684 46.3821 16.0918 46.1653 16.0918Z"
            fill="#ACD0FF"/>
        <path opacity="0.7"
            d="M46.1653 17.6753H18.5566C18.3398 17.6753 18.1641 17.8519 18.1641 18.0697V18.0967C18.1641 18.3146 18.3398 18.4912 18.5566 18.4912H46.1653C46.3821 18.4912 46.5578 18.3146 46.5578 18.0967V18.0697C46.5578 17.8519 46.3821 17.6753 46.1653 17.6753Z"
            fill="#ACD0FF"/>
        <path opacity="0.7"
            d="M40.3104 22.1851H18.5594C18.4546 22.1851 18.354 22.1432 18.2799 22.0687C18.2057 21.9942 18.1641 21.8932 18.1641 21.7878C18.1641 21.6824 18.2057 21.5814 18.2799 21.5069C18.354 21.4324 18.4546 21.3905 18.5594 21.3905H40.3104C40.4153 21.3905 40.5159 21.4324 40.59 21.5069C40.6642 21.5814 40.7058 21.6824 40.7058 21.7878C40.7058 21.8932 40.6642 21.9942 40.59 22.0687C40.5159 22.1432 40.4153 22.1851 40.3104 22.1851Z"
            fill="#ACD0FF"/>
        <path opacity="0.7"
            d="M40.3104 23.6093H18.5594C18.4546 23.6093 18.354 23.5674 18.2799 23.4929C18.2057 23.4184 18.1641 23.3174 18.1641 23.212C18.1641 23.1066 18.2057 23.0056 18.2799 22.9311C18.354 22.8566 18.4546 22.8147 18.5594 22.8147H40.3104C40.4153 22.8147 40.5159 22.8566 40.59 22.9311C40.6642 23.0056 40.7058 23.1066 40.7058 23.212C40.7058 23.3174 40.6642 23.4184 40.59 23.4929C40.5159 23.5674 40.4153 23.6093 40.3104 23.6093Z"
            fill="#ACD0FF"/>
        <path opacity="0.7"
            d="M40.3118 27.7288H18.5608C18.4581 27.7255 18.3607 27.6821 18.2892 27.608C18.2177 27.5338 18.1777 27.4346 18.1777 27.3313C18.1777 27.228 18.2177 27.1288 18.2892 27.0546C18.3607 26.9804 18.4581 26.9371 18.5608 26.9338H40.3118C40.3648 26.9321 40.4177 26.9411 40.4671 26.9603C40.5166 26.9795 40.5618 27.0085 40.5999 27.0456C40.638 27.0827 40.6683 27.1271 40.689 27.1762C40.7097 27.2252 40.7203 27.278 40.7203 27.3313C40.7203 27.3846 40.7097 27.4373 40.689 27.4864C40.6683 27.5355 40.638 27.5799 40.5999 27.617C40.5618 27.6541 40.5166 27.6831 40.4671 27.7023C40.4177 27.7215 40.3648 27.7305 40.3118 27.7288Z"
            fill="#ACD0FF"/>
        <path opacity="0.7"
            d="M40.3104 29.1508H18.5594C18.4546 29.1508 18.354 29.1089 18.2799 29.0344C18.2057 28.9599 18.1641 28.8589 18.1641 28.7535C18.1641 28.6481 18.2057 28.5471 18.2799 28.4726C18.354 28.3981 18.4546 28.3562 18.5594 28.3562H40.3104C40.4153 28.3562 40.5159 28.3981 40.59 28.4726C40.6642 28.5471 40.7058 28.6481 40.7058 28.7535C40.7058 28.8589 40.6642 28.9599 40.59 29.0344C40.5159 29.1089 40.4153 29.1508 40.3104 29.1508Z"
            fill="#ACD0FF"/>
        <path opacity="0.7"
            d="M40.3118 34.25H18.5608C18.4581 34.2467 18.3607 34.2034 18.2892 34.1292C18.2177 34.055 18.1777 33.9558 18.1777 33.8525C18.1777 33.7493 18.2177 33.65 18.2892 33.5759C18.3607 33.5017 18.4581 33.4584 18.5608 33.455H40.3118C40.3648 33.4533 40.4177 33.4623 40.4671 33.4815C40.5166 33.5008 40.5618 33.5298 40.5999 33.5668C40.638 33.6039 40.6683 33.6483 40.689 33.6974C40.7097 33.7465 40.7203 33.7992 40.7203 33.8525C40.7203 33.9058 40.7097 33.9586 40.689 34.0077C40.6683 34.0567 40.638 34.1011 40.5999 34.1382C40.5618 34.1753 40.5166 34.2043 40.4671 34.2235C40.4177 34.2427 40.3648 34.2517 40.3118 34.25Z"
            fill="#ACD0FF"/>
        <path opacity="0.7"
            d="M40.3104 35.6746H18.5594C18.4546 35.6746 18.354 35.6327 18.2799 35.5582C18.2057 35.4837 18.1641 35.3827 18.1641 35.2773C18.1641 35.1719 18.2057 35.0709 18.2799 34.9964C18.354 34.9219 18.4546 34.88 18.5594 34.88H40.3104C40.4153 34.88 40.5159 34.9219 40.59 34.9964C40.6642 35.0709 40.7058 35.1719 40.7058 35.2773C40.7058 35.3827 40.6642 35.4837 40.59 35.5582C40.5159 35.6327 40.4153 35.6746 40.3104 35.6746Z"
            fill="#ACD0FF"/>
        <path opacity="0.7"
            d="M40.3118 39.3435H18.5608C18.4581 39.3402 18.3607 39.2969 18.2892 39.2227C18.2177 39.1485 18.1777 39.0493 18.1777 38.946C18.1777 38.8428 18.2177 38.7436 18.2892 38.6694C18.3607 38.5952 18.4581 38.5519 18.5608 38.5485H40.3118C40.3648 38.5468 40.4177 38.5558 40.4671 38.5751C40.5166 38.5943 40.5618 38.6233 40.5999 38.6603C40.638 38.6974 40.6683 38.7418 40.689 38.7909C40.7097 38.84 40.7203 38.8927 40.7203 38.946C40.7203 38.9993 40.7097 39.0521 40.689 39.1012C40.6683 39.1503 40.638 39.1947 40.5999 39.2317C40.5618 39.2688 40.5166 39.2978 40.4671 39.317C40.4177 39.3362 40.3648 39.3452 40.3118 39.3435Z"
            fill="#ACD0FF"/>
        <path opacity="0.7"
            d="M40.3104 40.7672H18.5594C18.4546 40.7672 18.354 40.7254 18.2799 40.6509C18.2057 40.5764 18.1641 40.4753 18.1641 40.3699C18.1641 40.2646 18.2057 40.1635 18.2799 40.089C18.354 40.0145 18.4546 39.9727 18.5594 39.9727H40.3104C40.4153 39.9727 40.5159 40.0145 40.59 40.089C40.6642 40.1635 40.7058 40.2646 40.7058 40.3699C40.7058 40.4753 40.6642 40.5764 40.59 40.6509C40.5159 40.7254 40.4153 40.7672 40.3104 40.7672Z"
            fill="#ACD0FF"/>
        <path opacity="0.7"
            d="M47.0525 47.9099H25.3011C25.1983 47.9065 25.1009 47.8632 25.0294 47.789C24.9579 47.7148 24.918 47.6156 24.918 47.5124C24.918 47.4091 24.9579 47.3099 25.0294 47.2357C25.1009 47.1615 25.1983 47.1182 25.3011 47.1149H47.0525C47.1552 47.1182 47.2526 47.1615 47.3241 47.2357C47.3956 47.3099 47.4356 47.4091 47.4356 47.5124C47.4356 47.6156 47.3956 47.7148 47.3241 47.789C47.2526 47.8632 47.1552 47.9065 47.0525 47.9099Z"
            fill="#ACD0FF"/>
        <path opacity="0.7"
            d="M47.0511 49.8943H25.2997C25.1948 49.8943 25.0942 49.8525 25.0201 49.7779C24.946 49.7034 24.9043 49.6024 24.9043 49.497C24.9043 49.3917 24.946 49.2906 25.0201 49.2161C25.0942 49.1416 25.1948 49.0997 25.2997 49.0997H47.0511C47.156 49.0997 47.2565 49.1416 47.3307 49.2161C47.4048 49.2906 47.4465 49.3917 47.4465 49.497C47.4465 49.6024 47.4048 49.7034 47.3307 49.7779C47.2565 49.8525 47.156 49.8943 47.0511 49.8943Z"
            fill="#ACD0FF"/>
        <g opacity="0.8">
            <path opacity="0.8"
                d="M44.0293 24.136H42.7657C42.5016 24.1356 42.2484 24.0301 42.0617 23.8424C41.8749 23.6548 41.7699 23.4003 41.7695 23.135V21.8653C41.7699 21.5999 41.8749 21.3455 42.0617 21.1578C42.2484 20.9701 42.5016 20.8646 42.7657 20.8643H44.0293C44.2932 20.8648 44.5462 20.9704 44.7328 21.1579C44.9194 21.3455 45.0245 21.5996 45.0251 21.8649V23.1345C45.0247 23.3999 44.9198 23.6543 44.7331 23.842C44.5465 24.0297 44.2934 24.1354 44.0293 24.136ZM42.7657 21.4373C42.6529 21.4374 42.5447 21.4824 42.4649 21.5626C42.3852 21.6428 42.3403 21.7515 42.3402 21.8649V23.1345C42.3403 23.2479 42.3852 23.3566 42.4649 23.4368C42.5447 23.5169 42.6529 23.562 42.7657 23.5621H44.0293C44.142 23.5619 44.25 23.5168 44.3297 23.4368C44.4094 23.3567 44.4542 23.2482 44.4544 23.135V21.8653C44.4543 21.7519 44.4094 21.6432 44.3297 21.563C44.2499 21.4829 44.1417 21.4378 44.0289 21.4377L42.7657 21.4373Z"
                fill="#ACD0FF"/>
        </g>
        <g opacity="0.8">
            <path opacity="0.8"
                d="M44.0293 29.5309H42.7657C42.5016 29.5306 42.2483 29.4251 42.0615 29.2374C41.8748 29.0498 41.7697 28.7953 41.7695 28.5299V27.2602C41.7697 26.9947 41.8748 26.7403 42.0615 26.5526C42.2483 26.3649 42.5016 26.2594 42.7657 26.2592H44.0293C44.2936 26.2596 44.5469 26.3654 44.7337 26.5534C44.9204 26.7414 45.0252 26.9962 45.0251 27.2618V28.5315C45.0243 28.7965 44.9191 29.0505 44.7325 29.2377C44.5459 29.425 44.293 29.5304 44.0293 29.5309ZM42.7657 26.8326C42.6529 26.8327 42.5447 26.8778 42.4649 26.9579C42.3852 27.0381 42.3403 27.1468 42.3402 27.2602V28.5299C42.3403 28.6432 42.3852 28.7519 42.4649 28.8321C42.5447 28.9123 42.6529 28.9573 42.7657 28.9574H44.0293C44.1418 28.9572 44.2496 28.9123 44.3292 28.8325C44.4089 28.7527 44.4539 28.6445 44.4544 28.5315V27.2618C44.4543 27.1484 44.4094 27.0397 44.3297 26.9596C44.2499 26.8794 44.1417 26.8343 44.0289 26.8342L42.7657 26.8326Z"
                fill="#ACD0FF"/>
        </g>
        <path d="M43.4768 23.3807H43.465C43.4295 23.3791 43.3947 23.3696 43.3632 23.3531C43.3316 23.3365 43.3041 23.3133 43.2824 23.2849L42.3763 22.0938C42.3559 22.0683 42.3407 22.039 42.3317 22.0075C42.3227 21.976 42.3201 21.943 42.324 21.9105C42.3279 21.8779 42.3382 21.8465 42.3544 21.8181C42.3705 21.7896 42.3921 21.7647 42.418 21.7447C42.4439 21.7248 42.4735 21.7103 42.505 21.702C42.5365 21.6937 42.5694 21.6919 42.6017 21.6965C42.6339 21.7012 42.665 21.7123 42.6929 21.7292C42.7208 21.7461 42.7451 21.7684 42.7643 21.7948L43.498 22.7549L45.5124 20.5862C45.5343 20.5623 45.5606 20.5429 45.5899 20.5293C45.6192 20.5157 45.6509 20.508 45.6832 20.5068C45.7155 20.5055 45.7477 20.5107 45.7779 20.522C45.8082 20.5333 45.8359 20.5506 45.8595 20.5727C45.8831 20.5949 45.9021 20.6215 45.9154 20.6511C45.9288 20.6806 45.9361 20.7126 45.9371 20.745C45.938 20.7774 45.9326 20.8098 45.9211 20.8401C45.9095 20.8704 45.8921 20.8981 45.8699 20.9216L43.6582 23.3025C43.6351 23.3275 43.607 23.3474 43.5757 23.3608C43.5445 23.3743 43.5108 23.3811 43.4768 23.3807Z"
            fill="#FF6C0E"/>
        <path d="M43.4768 28.7773H43.465C43.4294 28.7756 43.3947 28.7661 43.3631 28.7494C43.3316 28.7328 43.304 28.7095 43.2824 28.681L42.3763 27.4908C42.3559 27.4653 42.3407 27.4359 42.3317 27.4044C42.3227 27.3729 42.3201 27.3399 42.324 27.3074C42.3279 27.2749 42.3382 27.2435 42.3544 27.215C42.3705 27.1866 42.3921 27.1616 42.418 27.1417C42.4439 27.1218 42.4735 27.1072 42.505 27.0989C42.5365 27.0907 42.5694 27.0888 42.6017 27.0935C42.6339 27.0981 42.665 27.1092 42.6929 27.1261C42.7208 27.143 42.7451 27.1653 42.7643 27.1918L43.498 28.1518L45.5124 25.9811C45.5343 25.9572 45.5606 25.9378 45.5899 25.9242C45.6192 25.9106 45.6509 25.9029 45.6832 25.9017C45.7155 25.9004 45.7477 25.9056 45.7779 25.9169C45.8082 25.9282 45.8359 25.9455 45.8595 25.9676C45.8831 25.9898 45.9021 26.0164 45.9154 26.046C45.9288 26.0755 45.9361 26.1075 45.9371 26.1399C45.938 26.1723 45.9326 26.2047 45.9211 26.235C45.9095 26.2653 45.8921 26.293 45.8699 26.3165L43.6582 28.6974C43.6352 28.7227 43.6072 28.7429 43.5759 28.7566C43.5447 28.7704 43.5109 28.7774 43.4768 28.7773Z"
            fill="#FF6C0E"/>
        <path d="M44.0295 35.8903H42.766C42.5127 35.89 42.2698 35.7888 42.0907 35.6088C41.9116 35.4288 41.8109 35.1848 41.8105 34.9303V33.6606C41.8109 33.4061 41.9116 33.1621 42.0907 32.9821C42.2698 32.8021 42.5127 32.7009 42.766 32.7006H44.0295C44.2828 32.7009 44.5257 32.8021 44.7048 32.9821C44.8839 33.1621 44.9846 33.4061 44.985 33.6606V34.9303C44.9846 35.1848 44.8839 35.4288 44.7048 35.6088C44.5257 35.7888 44.2828 35.89 44.0295 35.8903ZM42.766 33.1916C42.6424 33.1919 42.5239 33.2413 42.4365 33.3291C42.3491 33.4169 42.2999 33.536 42.2997 33.6602V34.9299C42.2998 35.0541 42.3489 35.1732 42.4364 35.2611C42.5238 35.3489 42.6423 35.3983 42.766 35.3984H44.0295C44.1532 35.3983 44.2717 35.3489 44.3592 35.2611C44.4466 35.1732 44.4957 35.0541 44.4958 34.9299V33.6602C44.4956 33.536 44.4464 33.4169 44.359 33.3291C44.2716 33.2413 44.1531 33.1919 44.0295 33.1916H42.766Z"
            fill="#ACD0FF"/>
        <g opacity="0.8">
            <path opacity="0.8"
                d="M44.0293 41.3268H42.7657C42.5016 41.3265 42.2483 41.221 42.0615 41.0333C41.8748 40.8456 41.7697 40.5912 41.7695 40.3258V39.0561C41.7697 38.7906 41.8748 38.5362 42.0615 38.3485C42.2483 38.1608 42.5016 38.0553 42.7657 38.0551H44.0293C44.2934 38.0554 44.5466 38.1609 44.7333 38.3486C44.9201 38.5363 45.0252 38.7907 45.0255 39.0561V40.3258C45.0252 40.5911 44.9201 40.8456 44.7333 41.0332C44.5466 41.2209 44.2934 41.3264 44.0293 41.3268ZM42.7657 38.6285C42.6529 38.6286 42.5447 38.6737 42.4649 38.7538C42.3852 38.834 42.3403 38.9427 42.3402 39.0561V40.3258C42.3403 40.4391 42.3852 40.5478 42.4649 40.628C42.5447 40.7082 42.6529 40.7532 42.7657 40.7533H44.0293C44.1421 40.7532 44.2503 40.7082 44.3301 40.628C44.4099 40.5478 44.4547 40.4391 44.4548 40.3258V39.0561C44.4547 38.9427 44.4099 38.834 44.3301 38.7538C44.2503 38.6737 44.1421 38.6286 44.0293 38.6285H42.7657Z"
                fill="#ACD0FF"/>
        </g>
        <path d="M43.4768 35.1761H43.465C43.4295 35.1744 43.3947 35.165 43.3632 35.1485C43.3316 35.1319 43.3041 35.1086 43.2824 35.0803L42.3763 33.8892C42.3559 33.8637 42.3407 33.8343 42.3317 33.8028C42.3227 33.7714 42.3201 33.7384 42.324 33.7059C42.3279 33.6733 42.3382 33.6419 42.3544 33.6135C42.3705 33.585 42.3921 33.5601 42.418 33.5401C42.4439 33.5202 42.4735 33.5057 42.505 33.4974C42.5365 33.4891 42.5694 33.4872 42.6017 33.4919C42.6339 33.4966 42.665 33.5077 42.6929 33.5246C42.7208 33.5414 42.7451 33.5638 42.7643 33.5902L43.498 34.5503L45.5124 32.3795C45.5343 32.3556 45.5606 32.3363 45.5899 32.3227C45.6192 32.309 45.6509 32.3014 45.6832 32.3001C45.7155 32.2989 45.7477 32.304 45.7779 32.3154C45.8082 32.3267 45.8359 32.3439 45.8595 32.3661C45.8831 32.3882 45.9021 32.4148 45.9154 32.4444C45.9288 32.474 45.9361 32.5059 45.9371 32.5384C45.938 32.5708 45.9326 32.6031 45.9211 32.6334C45.9095 32.6637 45.8921 32.6914 45.8699 32.715L43.6582 35.0958C43.6352 35.1212 43.6072 35.1414 43.576 35.1553C43.5448 35.1691 43.511 35.1762 43.4768 35.1761Z"
            fill="#FF6C0E"/>
        <path d="M43.4777 40.5727H43.4658C43.4303 40.571 43.3955 40.5615 43.3639 40.5448C43.3324 40.5282 43.3049 40.5049 43.2832 40.4764L42.3771 39.2862C42.3395 39.2344 42.3235 39.1698 42.3326 39.1063C42.3417 39.0427 42.3751 38.9853 42.4258 38.9463C42.4765 38.9072 42.5404 38.8896 42.6038 38.8973C42.6672 38.9049 42.7251 38.9372 42.7652 38.9872L43.4989 39.9473L45.5132 37.7765C45.5351 37.7526 45.5614 37.7333 45.5907 37.7196C45.62 37.706 45.6517 37.6983 45.684 37.6971C45.7163 37.6958 45.7485 37.701 45.7787 37.7123C45.809 37.7237 45.8367 37.7409 45.8603 37.763C45.884 37.7852 45.903 37.8118 45.9163 37.8414C45.9296 37.871 45.9369 37.9029 45.9379 37.9353C45.9388 37.9678 45.9334 38.0001 45.9219 38.0304C45.9103 38.0607 45.8929 38.0884 45.8707 38.1119L43.659 40.4928C43.636 40.5181 43.608 40.5383 43.5767 40.552C43.5455 40.5658 43.5118 40.5728 43.4777 40.5727Z"
            fill="#FF6C0E"/>
        <path d="M36.824 8.07443H27.3789C26.3491 8.07443 25.3615 7.66336 24.6334 6.93167C23.9052 6.19997 23.4961 5.20757 23.4961 4.17279C23.4961 3.95217 23.5833 3.74059 23.7386 3.58459C23.8938 3.42858 24.1044 3.34094 24.3239 3.34094H39.8785C40.0979 3.34127 40.3081 3.42905 40.4631 3.58502C40.6181 3.74099 40.7052 3.95239 40.7052 4.17279C40.7052 5.20729 40.2963 6.19943 39.5685 6.93109C38.8407 7.66274 37.8535 8.07399 36.824 8.07443Z"
            fill="#93B1C2"/>
        <path d="M24.9097 3.6366H39.7705C39.9192 3.6366 40.0617 3.69593 40.1668 3.80154C40.2719 3.90716 40.331 4.0504 40.331 4.19977V4.22475C40.331 4.57153 40.263 4.91491 40.1309 5.23527C39.9988 5.55564 39.8052 5.84673 39.5611 6.0919C39.3171 6.33707 39.0273 6.53152 38.7085 6.66415C38.3896 6.79678 38.0478 6.86499 37.7027 6.86488H26.977C26.2802 6.86488 25.6119 6.58673 25.1192 6.09161C24.6264 5.59649 24.3496 4.92496 24.3496 4.22475V4.19977C24.3496 4.05051 24.4086 3.90737 24.5136 3.80183C24.6187 3.6963 24.7611 3.63701 24.9097 3.63701V3.6366Z"
            fill="#D6E7F0"/>
        <path opacity="0.7"
            d="M47.1619 8.86243H17.0391V14.286H47.1619V8.86243Z"
            fill="#064DD6"/>
        <path d="M22.6195 10.3049V12.9606H22.0195V10.3049H22.6195Z"
            fill="white"/>
        <path d="M23.1367 12.9606V10.3049H23.8349L24.384 11.2781C24.5473 11.5719 24.6913 11.876 24.8152 12.1886H24.8271C24.7895 11.8212 24.7725 11.452 24.7761 11.0827V10.3049H25.3251V12.9606H24.6974L24.1329 11.9367C23.9636 11.6324 23.8105 11.3194 23.6743 10.9988L23.6625 11.0029C23.678 11.3534 23.6858 11.7278 23.6858 12.1611V12.961L23.1367 12.9606Z"
            fill="white"/>
        <path d="M25.8625 12.3421C26.0683 12.4463 26.2949 12.5023 26.5253 12.506C26.8 12.506 26.9451 12.3917 26.9451 12.2193C26.9451 12.0554 26.8196 11.9592 26.502 11.8449C26.0626 11.6913 25.7765 11.4468 25.7765 11.0606C25.7765 10.6076 26.1527 10.2607 26.7764 10.2607C27.0082 10.2563 27.2382 10.302 27.451 10.3946L27.3177 10.8795C27.1453 10.7961 26.9563 10.7532 26.765 10.7542C26.5061 10.7542 26.3806 10.8722 26.3806 11.0102C26.3806 11.1797 26.5298 11.2559 26.8697 11.3845C27.3364 11.5582 27.5557 11.8023 27.5557 12.1767C27.5557 12.6219 27.2149 13.0003 26.4894 13.0003C26.1874 13.0003 25.8894 12.9213 25.7402 12.8385L25.8625 12.3421Z"
            fill="white"/>
        <path d="M28.5582 10.3049V11.8339C28.5582 12.291 28.731 12.5236 29.0367 12.5236C29.3505 12.5236 29.523 12.3028 29.523 11.8339V10.3049H30.1193V11.7962C30.1193 12.6154 29.7072 13.0057 29.0188 13.0057C28.3523 13.0057 27.959 12.6371 27.959 11.7884V10.3049H28.5582Z"
            fill="white"/>
        <path d="M30.6348 10.3406C30.8983 10.3019 31.1645 10.2834 31.4308 10.2853C31.8229 10.2853 32.0972 10.3443 32.2868 10.4942C32.4437 10.6203 32.5313 10.8055 32.5313 11.0496C32.5313 11.3887 32.2921 11.623 32.0646 11.7049V11.7143C32.2489 11.7893 32.35 11.9666 32.4176 12.2111C32.4991 12.5105 32.5807 12.857 32.6333 12.9594H32.0218C31.9786 12.8849 31.9159 12.6682 31.8376 12.341C31.7671 12.01 31.6534 11.9195 31.41 11.9154H31.2299V12.9594H30.6348V10.3406ZM31.227 11.4833H31.4622C31.7602 11.4833 31.9367 11.3334 31.9367 11.1008C31.9367 10.855 31.7736 10.7346 31.4973 10.7321C31.4068 10.7305 31.3163 10.7371 31.227 10.7518V11.4833Z"
            fill="white"/>
        <path d="M33.6122 12.2791L33.4242 12.9606H32.8047L33.6122 10.3049H34.3948L35.214 12.9606H34.5708L34.367 12.2791H33.6122ZM34.2831 11.8286L34.12 11.2654C34.0732 11.1077 34.0263 10.9107 33.9867 10.753H33.979C33.9382 10.9107 33.9007 11.1114 33.8567 11.2654L33.6998 11.8286H34.2831Z"
            fill="white"/>
        <path d="M35.5703 12.9606V10.3049H36.2681L36.8172 11.2781C36.9806 11.5718 37.1247 11.8759 37.2484 12.1886H37.2602C37.2227 11.8212 37.2057 11.452 37.2093 11.0827V10.3049H37.7583V12.9606H37.131L36.5661 11.9367C36.3968 11.6324 36.2437 11.3194 36.1075 10.9988L36.0957 11.0029C36.1112 11.3534 36.1194 11.7278 36.1194 12.1611V12.961L35.5703 12.9606Z"
            fill="white"/>
        <path d="M40.2169 12.886C40.1068 12.9409 39.8598 13.0003 39.5382 13.0003C38.6248 13.0003 38.1523 12.429 38.1523 11.6725C38.1523 10.7661 38.7955 10.2615 39.5957 10.2615C39.9055 10.2615 40.1406 10.3245 40.2478 10.3798L40.1256 10.8566C39.9665 10.7906 39.7959 10.7571 39.6238 10.7583C39.1493 10.7583 38.7809 11.045 38.7809 11.6368C38.7809 12.1693 39.0943 12.5035 39.6279 12.5035C39.7974 12.5032 39.9657 12.474 40.1256 12.4171L40.2169 12.886Z"
            fill="white"/>
        <path d="M42.178 11.8372H41.2055V12.4675H42.2917V12.959H40.6055V10.3049H42.2359V10.7964H41.2042V11.3481H42.1768L42.178 11.8372Z"
            fill="white"/>
        <path d="M39.36 4.08057H32.0566C31.8398 4.08057 31.6641 4.25716 31.6641 4.47499V4.5737C31.6641 4.79153 31.8398 4.96812 32.0566 4.96812H39.36C39.5768 4.96812 39.7526 4.79153 39.7526 4.5737V4.47499C39.7526 4.25716 39.5768 4.08057 39.36 4.08057Z"
            fill="#F2F2F2"/>
        <path opacity="0.5"
            d="M62.3946 56.7677C51.2425 54.4622 41.9813 55.5042 38.7751 55.3076C35.5689 55.111 16.9878 54.9119 13.0618 56.2607C9.13574 57.6094 15.8168 59.4505 23.5666 58.5953C31.3164 57.7401 36.0833 57.9141 48.4211 58.8136C60.7589 59.713 63.919 57.0827 62.3946 56.7677Z"
            fill="#BDCCD4"/>
        <path d="M24.1091 23.2783C25.7832 24.4935 29.3794 25.0231 30.5264 25.0854C31.6734 25.1476 29.8898 28.3251 29.8898 28.3251C29.8898 28.3251 26.8062 28.6991 25.3491 28.3251C23.8919 27.9512 24.1091 23.2783 24.1091 23.2783Z"
            fill="#D54A41"/>
        <path d="M21.2366 54.7834C21.2574 55.6141 21.7285 56.1084 22.4973 56.6835C23.3035 57.2868 23.3447 57.3527 22.2287 57.5026C21.1127 57.6525 20.8021 57.1422 20.0586 56.9239C19.3151 56.7056 19.79 56.1764 19.7484 55.6779C19.7068 55.1795 19.6367 54.3698 19.6367 54.3698L21.2366 54.7834Z"
            fill="#303C60"/>
        <path d="M27.7469 54.368C28.1075 54.7763 28.4941 55.1604 28.9045 55.5181C29.5656 56.0915 31.2396 56.2869 30.4338 56.5011C29.628 56.7153 28.7247 56.5998 27.8948 56.7198C27.0649 56.8398 26.3414 56.7235 26.2795 56.5011C26.2175 56.2787 26.2795 54.699 26.2795 54.699L27.7469 54.368Z"
            fill="#303C60"/>
        <path d="M30.0321 18.0218C31.0694 17.0319 32.9766 18.2938 33.1564 19.1326C33.619 21.2906 33.824 23.522 33.2611 24.3989C32.6982 25.2758 27.6855 25.8279 27.7466 25.5171C27.8078 25.2062 27.8216 23.2689 28.6519 22.3224C29.4822 21.3758 29.1048 20.46 29.2568 19.5847C29.4398 18.5317 29.8662 18.1815 30.0321 18.0218Z"
            fill="#58556E"/>
        <path d="M27.8879 24.3292C27.5345 26.8436 27.1949 31.5787 26.1706 32.7313C25.1463 33.8838 24.5781 36.6329 24.5781 36.6329C24.5781 36.6329 27.8842 34.8185 29.2375 30.3578C29.6622 28.9587 28.626 25.6911 28.375 25.3794C28.1239 25.0677 27.8879 24.3292 27.8879 24.3292Z"
            fill="#7EC1D6"/>
        <path d="M35.0538 31.2375C34.85 31.487 34.3018 32.6948 34.0242 32.6948C33.0786 32.6948 33.0089 33.0675 32.4961 33.3403C31.8374 33.6909 31.9768 34.2283 32.0233 34.2594C32.0697 34.2905 33.4715 34.044 33.9423 33.7356C34.3328 33.48 34.6103 33.3403 34.8011 33.0602C34.9919 32.78 36.07 31.9699 36.07 31.9699L35.0538 31.2375Z"
            fill="#F09959"/>
        <path d="M34.0962 23.7776C35.0528 24.3584 35.2285 24.8986 36.1688 26.539C37.1092 28.1793 37.2743 28.7716 37.6464 29.365C38.0186 29.9585 38.1425 30.6425 37.357 31.39C36.607 32.1043 36.2565 32.3955 35.8448 32.2841C35.5676 32.2087 35.3483 31.397 34.9627 31.544C34.5772 31.691 35.2595 30.5487 35.6108 30.2272C35.802 30.0515 35.8794 30.0634 35.8175 29.9851C35.7555 29.9069 34.5772 29.0226 33.5956 27.7452C32.6141 26.4677 34.0962 23.7776 34.0962 23.7776Z"
            fill="#9BD6E8"/>
        <path d="M37.0989 29.9138C36.6334 29.7037 36.0518 29.7336 35.6246 29.8151C35.7347 29.9077 35.804 29.9654 35.8178 29.9834C35.8798 30.0654 35.8023 30.0498 35.6112 30.2255C35.5271 30.3064 35.45 30.3944 35.3809 30.4885C35.7069 30.3148 36.0628 30.1608 36.355 30.1161C37.0989 30.0072 37.1458 30.2095 37.533 30.459C37.9202 30.7084 37.8587 30.2562 37.0989 29.9138Z"
            fill="#7EC1D6"/>
        <path d="M35.0583 24.6471C34.8019 24.2953 34.5284 24.0405 34.0963 23.7776C34.0963 23.7776 32.6139 26.4665 33.5958 27.7435C33.8912 28.1243 34.2099 28.4862 34.55 28.8273C34.5679 27.9667 34.658 26.0434 35.0583 24.6471Z"
            fill="#7EC1D6"/>
        <path d="M30.456 22.8892C29.1745 23.18 28.1404 23.5596 27.8759 24.3063C27.7475 24.6688 28.491 30.6511 29.2348 31.3154C30.6708 32.5982 33.0378 31.3973 33.0378 31.3973C33.0378 31.3973 34.1126 28.708 34.539 24.1933C34.6499 23.7861 32.0868 22.9866 31.6735 22.9035C31.2602 22.8204 30.456 22.8892 30.456 22.8892Z"
            fill="#9BD6E8"/>
        <path d="M30.8884 54.622C30.8884 54.622 29.1325 57.0639 30.1865 56.9774C31.2406 56.891 31.929 55.8007 31.929 55.8007C31.929 55.8007 32.2959 57.0372 33.3487 56.9799C34.4016 56.9225 33.8085 56.2746 33.3487 55.5181C33.0849 55.0728 32.9284 54.5716 32.8918 54.0547L30.8884 54.622Z"
            fill="#F09959"/>
        <path d="M31.0386 24.0574C30.8294 24.0567 30.6289 23.973 30.4809 23.8245C30.3328 23.6759 30.2492 23.4746 30.2483 23.2644V20.3036C30.2459 20.1977 30.2645 20.0925 30.3032 19.994C30.3418 19.8955 30.3997 19.8058 30.4733 19.7301C30.547 19.6544 30.6349 19.5943 30.732 19.5532C30.8292 19.5121 30.9334 19.491 31.0388 19.491C31.1442 19.491 31.2484 19.5121 31.3455 19.5532C31.4427 19.5943 31.5306 19.6544 31.6043 19.7301C31.6779 19.8058 31.7358 19.8955 31.7744 19.994C31.8131 20.0925 31.8317 20.1977 31.8293 20.3036V23.2644C31.8283 23.4747 31.7446 23.676 31.5965 23.8245C31.4483 23.973 31.2478 24.0567 31.0386 24.0574Z"
            fill="#F09959"/>
        <path d="M31.0384 19.5089C30.8289 19.5096 30.6282 19.5935 30.4801 19.7424C30.332 19.8913 30.2486 20.093 30.248 20.3035V21.6432C30.6609 22.243 31.2009 22.7435 31.8291 23.1087V20.3035C31.8285 20.093 31.745 19.8912 31.5968 19.7424C31.4487 19.5935 31.2479 19.5096 31.0384 19.5089Z"
            fill="#E38540"/>
        <path d="M33.0514 19.9059C33.2988 20.9646 32.8777 21.9689 32.1118 22.1496C31.3459 22.3302 30.5242 21.6171 30.2776 20.56C30.031 19.5029 30.4512 18.4969 31.2175 18.3163C31.9838 18.1357 32.8043 18.8484 33.0514 19.9059Z"
            fill="#F09959"/>
        <path d="M29.4139 30.9595C29.4139 30.9595 26.9479 32.8284 27.7382 38.9511C28.5286 45.0739 29.3658 44.8851 29.4123 47.8287C29.4587 50.7724 30.7146 54.8378 31.4584 55.632C32.2023 56.4262 34.0296 52.1682 34.0296 48.3882C34.0296 46.1798 34.0296 45.119 34.542 41.6613C35.0543 38.2037 34.9459 33.1573 32.8997 30.9611C30.8536 28.765 29.4139 30.9595 29.4139 30.9595Z"
            fill="#F09959"/>
        <path d="M31.4089 44.6484C31.4069 43.1998 30.9296 40.1214 31.038 35.8655L27.8945 40.0755C28.6356 45.0593 29.3692 45.0769 29.4125 47.8272C29.4479 50.0577 30.1771 52.9317 30.8521 54.5393C31.2911 54.6974 31.5858 54.883 31.6637 55.1164C31.768 55.4289 31.8373 55.6018 31.8785 55.6517C31.8931 55.6423 31.9082 55.6317 31.9233 55.6206C31.9592 55.3597 31.7713 54.0294 31.565 52.0937C31.2169 48.822 31.4113 46.0967 31.4089 44.6484Z"
            fill="#E38540"/>
        <path d="M28.3054 28.7732C28.7151 31.193 28.4685 31.5202 27.8946 33.5292C27.3207 35.5382 27.3125 40.8651 27.3125 40.8651C27.3125 40.8651 28.8704 41.5205 31.885 41.2391C34.8997 40.9577 35.3183 40.6317 35.3183 40.6317C35.3183 40.6317 34.9755 35.4452 34.5438 33.9031C34.1122 32.3611 33.4335 31.3068 33.4001 30.3153C33.3667 29.3237 28.3054 28.7732 28.3054 28.7732Z"
            fill="#9BD6E8"/>
        <path d="M30.1858 56.9775C31.2399 56.8911 31.9283 55.8008 31.9283 55.8008C31.9283 55.8008 32.2951 57.0373 33.348 56.9799C34.2533 56.9304 33.9427 56.4475 33.5457 55.8307C33.5098 55.9691 33.3977 56.0981 33.1002 56.0867C32.4773 56.0625 31.8924 55.3023 31.8924 55.3023C31.8924 55.3023 30.8062 56.1436 30.403 56.0838C29.9999 56.024 30.5991 55.05 30.5995 55.0492C30.1507 55.7438 29.4146 57.041 30.1858 56.9775Z"
            fill="#3E6BAB"/>
        <path d="M36.3467 42.7164C36.2244 44.1184 36.352 45.1776 36.1022 46.3301C35.8523 47.4827 35.3245 47.8566 35.3245 47.8566L34.8594 42.4674L36.3467 42.7164Z"
            fill="#F09959"/>
        <path d="M32.874 36.7977C31.8717 34.6638 31.7735 33.963 32.347 33.4645C32.9205 32.9661 33.0134 32.2808 33.9591 32.5299C34.9047 32.7789 35.2145 33.3245 35.6796 33.5268C36.1446 33.7291 36.0517 34.991 35.4627 35.3334C34.8737 35.6758 32.874 36.7977 32.874 36.7977Z"
            fill="#7A4E34"/>
        <path d="M32.1117 55.4019C32.1117 55.4019 32.071 56.049 32.2487 56.3406C32.4264 56.6322 32.5585 56.7645 31.8863 56.7776C31.2142 56.7907 31.0304 56.6187 30.9766 56.2079C30.9228 55.7971 30.9309 55.6755 31.0263 55.4244C31.1217 55.1733 32.1117 55.4019 32.1117 55.4019Z"
            fill="#63ACC2"/>
        <path d="M35.6011 55.5042C35.6011 55.5042 36.3605 56.1894 36.8101 56.3454C37.2597 56.5015 36.6291 56.8439 35.8355 56.6731C35.0419 56.5023 35.1051 56.7354 34.7019 56.5502C34.2988 56.3651 34.6685 55.369 34.6685 55.369L35.6011 55.5042Z"
            fill="#63ACC2"/>
        <path d="M35.6943 44.7725C35.6943 44.7725 35.6943 49.9741 35.7562 51.9999C35.8182 54.0257 35.8597 55.3953 35.8198 55.6202C35.8027 55.7148 34.9488 55.589 34.577 55.6202C34.2053 55.6513 33.417 50.9719 33.0901 48.4485C32.7632 45.9251 32.625 44.0873 32.625 44.0873L35.6943 44.7725Z"
            fill="#3E6BAB"/>
        <path d="M33.0908 48.4485C33.2449 49.6362 33.5009 51.3016 33.7674 52.729C34.1343 51.1021 34.8578 48.2117 35.6983 46.5411C35.695 45.5118 35.695 44.7725 35.695 44.7725L33.7679 44.342L32.6641 44.5489C32.7252 45.2468 32.8618 46.6791 33.0908 48.4485Z"
            fill="#2E5B9A"/>
        <path d="M31.2937 43.6511C31.1384 46.2057 30.898 52.0954 30.9799 53.4015C31.0687 54.8191 30.8906 55.3642 30.8906 55.3642C30.8906 55.3642 31.2318 55.4871 31.7898 55.551L32.1436 55.5919C32.1436 55.5919 33.5568 51.8451 33.836 49.2595C34.1152 46.6738 34.8587 44.6493 34.8587 44.6493L31.2937 43.6511Z"
            fill="#3E6BAB"/>
        <path d="M35.3318 38.2316C36.5318 39.8506 36.6557 43.0281 36.6557 43.0281C36.6557 43.0281 36.1666 43.4021 35.6978 43.2149C35.2291 43.0277 35.3318 38.2316 35.3318 38.2316Z"
            fill="#EDC055"/>
        <path d="M34.0511 37.373C35.4778 37.7007 36.0663 39.3521 36.0973 40.6603C36.1283 41.9685 35.8801 45.4888 35.8801 45.6137C35.8801 45.7386 33.09 45.9872 32.0669 45.7693L31.0438 45.5515C31.0438 45.5515 30.765 40.3498 31.0438 39.0715C31.3226 37.7932 33.152 37.2026 33.152 37.2026L34.0511 37.373Z"
            fill="#F5CE5C"/>
        <path d="M33.557 40.9101C33.4796 40.4354 34.1118 40.3572 34.3926 40.3965C34.6734 40.4359 34.7399 40.7467 34.8573 40.7856C34.9747 40.8245 35.1381 40.6427 35.2853 40.7492C35.4324 40.8557 35.262 41.1588 35.0761 41.1751C34.8903 41.1915 34.7815 41.0064 34.6498 41.0908C34.5181 41.1751 34.5724 41.2296 34.5491 41.2296C34.5259 41.2296 34.06 41.2841 34.06 41.2841C34.06 41.2841 33.8562 41.1518 33.7188 41.1674C33.5815 41.1829 33.632 41.3312 33.632 41.3312C33.632 41.3312 33.4013 41.3156 33.4555 41.1522C33.4814 41.0684 33.5154 40.9873 33.557 40.9101Z"
            fill="#EDC055"/>
        <path d="M34.6122 41.2297C34.7536 41.072 34.8975 41.2219 34.9607 41.2764C35.0238 41.3308 34.8514 41.4402 34.7128 41.4402C34.5743 41.4402 34.6122 41.2297 34.6122 41.2297Z"
            fill="#EDC055"/>
        <path d="M33.6961 41.3309C33.6806 41.2141 33.9129 41.2375 33.9814 41.3309C34.0499 41.4242 33.8261 41.518 33.7564 41.4947C33.6867 41.4714 33.6961 41.3309 33.6961 41.3309Z"
            fill="#EDC055"/>
        <path d="M33.3098 41.4398C33.2943 41.3931 32.6984 41.1441 32.7673 40.918C32.8361 40.6919 33.2323 41.1789 33.2323 41.1789C33.2323 41.1789 32.9613 40.5834 33.1007 40.5367C33.2401 40.49 33.2943 40.9102 33.3098 41.0351C33.318 41.1699 33.318 41.305 33.3098 41.4398Z"
            fill="#EDC055"/>
        <path d="M34.9727 40.4355C34.9727 40.4355 35.0134 39.9293 35.1846 40.0305C35.3558 40.1316 35.0786 40.4355 35.0786 40.4355C35.0786 40.4355 35.4324 40.155 35.518 40.3127C35.6036 40.4703 34.9727 40.5351 34.9727 40.5351V40.4355Z"
            fill="#EDC055"/>
        <path d="M32.2544 43.6511C32.38 42.0623 32.7179 39.8506 31.7571 38.2619L31.4999 38.2316C31.2851 38.4687 31.1148 38.748 31.0438 39.0716C30.765 40.3491 31.0438 45.5515 31.0438 45.5515L32.0669 45.7694C32.1134 45.7793 32.1635 45.7883 32.2169 45.796C32.1838 45.081 32.1963 44.3645 32.2544 43.6511Z"
            fill="#EDC055"/>
        <path d="M33.6326 38.2618C33.4313 38.2612 33.2385 38.1805 33.0962 38.0375C32.954 37.8944 32.8738 37.7006 32.8733 37.4984V36.0968C32.8709 35.9951 32.8888 35.8939 32.9259 35.7993C32.9631 35.7046 33.0186 35.6183 33.0894 35.5456C33.1602 35.4728 33.2447 35.415 33.338 35.3755C33.4313 35.336 33.5316 35.3157 33.6328 35.3157C33.7341 35.3157 33.8343 35.336 33.9276 35.3755C34.021 35.415 34.1055 35.4728 34.1762 35.5456C34.247 35.6183 34.3026 35.7046 34.3397 35.7993C34.3768 35.8939 34.3947 35.9951 34.3924 36.0968V37.4984C34.5024 38.2315 34.1226 38.3249 33.6326 38.2618Z"
            fill="#F09959"/>
        <path d="M34.3937 37.5586V35.7073C34.3934 35.6082 34.3541 35.5133 34.2844 35.4433C34.2147 35.3732 34.1202 35.3337 34.0216 35.3334H33.2467C33.1482 35.3337 33.0537 35.3732 32.9841 35.4433C32.9144 35.5134 32.8752 35.6083 32.875 35.7073V36.8951C33.4766 37.4431 34.0265 37.5619 34.3937 37.5586Z"
            fill="#E38540"/>
        <path d="M35.6046 35.1421C35.7428 36.1447 35.2377 37.0437 34.4731 37.149C33.7084 37.2543 32.9792 36.5285 32.8426 35.5254C32.7061 34.5224 33.2095 33.6234 33.9742 33.5185C34.7388 33.4137 35.4664 34.1382 35.6046 35.1421Z"
            fill="#FCA96A"/>
        <path d="M31.4738 38.2618C30.0839 38.8848 29.96 43.402 29.898 44.0873C29.8361 44.7725 30.1773 47.1087 30.3631 47.7325C30.549 48.3563 31.0752 48.8494 31.1029 48.0737C31.1306 47.2979 30.9211 46.8912 30.9211 46.8912C30.9211 46.8912 31.2003 47.4831 31.2933 47.1718C31.3862 46.8605 30.8902 46.3936 30.8902 46.1126C30.8902 45.8316 31.2933 44.181 31.2933 43.6515C31.2933 43.1219 32.0677 41.4086 32.0677 40.0062C32.0677 38.6038 31.4738 38.2618 31.4738 38.2618Z"
            fill="#FCA96A"/>
        <path d="M31.9426 37.8354C30.6725 38.3552 30.2853 39.8506 29.8899 41.2837L29.4941 42.7172C29.4941 42.7172 31.5729 43.4544 31.6952 43.3668C31.8175 43.2791 32.2842 40.6923 32.2532 39.6331C32.2222 38.5739 31.9426 37.8354 31.9426 37.8354Z"
            fill="#F5CE5C"/>
        <path d="M33.1241 35.5517C33.2174 35.7975 33.1583 36.0514 32.9916 36.1149C32.8249 36.1784 32.6142 36.0293 32.5208 35.7819C32.4275 35.5345 32.4866 35.2822 32.6529 35.2187C32.8192 35.1553 33.0303 35.306 33.1241 35.5517Z"
            fill="#FCA96A"/>
        <path d="M32.703 35.0065C32.703 35.0065 33.0894 36.2086 33.1676 35.7712C33.2459 35.3338 33.1216 35.131 33.4163 35.0065C33.711 34.882 33.3233 34.0407 33.7424 34.1186C34.1614 34.1964 34.5021 34.7042 35.1376 34.5826C35.773 34.461 36.0368 34.3213 35.773 33.9629C35.5093 33.6045 33.3396 33.2617 33.3396 33.2617L32.416 34.3229L32.703 35.0065Z"
            fill="#7A4E34"/>
        <path d="M34.7018 56.6724C35.105 56.8595 35.0414 56.6257 35.8354 56.7952C36.6294 56.9648 37.3562 56.5458 36.9066 56.3902L36.874 56.3783C36.7493 56.4436 36.631 56.5206 36.5206 56.6081C36.4174 56.69 36.1488 56.6289 35.7791 56.5671C35.4094 56.5052 35.4734 56.6121 35.3838 56.5151C35.2941 56.418 34.9309 56.1633 34.5168 56.1628C34.5017 56.3865 34.538 56.5966 34.7018 56.6724Z"
            fill="#2E5B9A"/>
        <path d="M30.9449 55.6561C31.2754 56.3332 31.1177 56.454 31.3965 56.5007C31.6753 56.5474 31.7703 56.3291 32.0682 56.4335C32.3662 56.5379 32.3258 56.5375 32.3943 56.6207C32.4628 56.7038 32.431 56.805 32.3067 56.8373C32.1824 56.8697 31.542 56.8783 31.2942 56.8373C31.0464 56.7964 30.8809 56.3311 30.8911 56.1644C30.9013 55.9977 30.9449 55.6561 30.9449 55.6561Z"
            fill="#2E5B9A"/>
        <path d="M22.8562 21.2865C22.3671 20.5952 21.8747 18.7144 22.3116 18.5223C22.7486 18.3302 22.6377 18.0279 23.0767 17.4652C23.5157 16.9024 25.2778 16.6829 25.7958 17.629C26.3139 18.5751 26.5373 18.6726 26.556 19.1805C26.5748 19.6884 25.3312 20.9515 25.3312 20.9515L22.8562 21.2865Z"
            fill="#58556E"/>
        <path d="M34.4045 32.3206C34.2614 32.5356 34.1253 32.6949 34.0242 32.6949C33.0786 32.6949 33.0089 33.0676 32.4961 33.3404C31.8374 33.691 31.9768 34.2284 32.0233 34.2595C32.0697 34.2906 33.4715 34.0441 33.9423 33.7356C34.3328 33.4801 34.6103 33.3404 34.8011 33.0603C34.8585 32.9843 34.9231 32.9141 34.9939 32.8506C34.7818 32.6923 34.5845 32.5149 34.4045 32.3206Z"
            fill="#F09959"/>
        <path d="M23.178 18.8549C23.178 18.8549 22.8695 22.691 22.1871 23.1087C21.5048 23.5265 20.2025 25.0853 20.3892 28.4496C20.5759 31.8139 20.8233 33.2654 21.0711 34.5646C21.319 35.8638 25.9697 35.0721 26.4654 34.5646C26.961 34.0571 27.5194 29.4154 26.4654 27.0636C25.4113 24.7118 24.2333 23.3823 24.1094 22.8007C23.9855 22.2191 24.7913 19.8829 24.7913 19.8829L23.178 18.8549Z"
            fill="#F09959"/>
        <path d="M24.0966 22.675C24.0811 21.9418 24.7895 19.8829 24.7895 19.8829L23.1779 18.8549C23.1779 18.8549 23.1102 19.6908 22.9688 20.625C23.1779 21.9234 23.5977 22.4219 24.0966 22.675Z"
            fill="#E38540"/>
        <path d="M26.1219 19.9324C26.2772 21.0588 25.8912 21.9394 25.0841 22.0532C24.2771 22.1671 23.3543 21.4659 23.199 20.3392C23.0437 19.2124 23.5719 18.2094 24.381 18.0959C25.1901 17.9824 25.9666 18.8057 26.1219 19.9324Z"
            fill="#F09959"/>
        <path d="M34.973 24.2441C35.4479 24.5406 35.8098 25.2827 35.602 25.8848C35.3941 26.4869 35.1063 25.7144 34.79 25.2705C34.4737 24.8265 34.618 24.0225 34.973 24.2441Z"
            fill="#F09959"/>
        <path d="M26.5309 32.3054C26.2048 36.2374 27.3053 45.1174 27.3139 47.1264C27.3225 49.1354 28.1201 54.6294 28.1201 54.6294C28.1201 54.6294 26.8182 55.0066 26.3067 55.0476C25.7952 55.0886 24.3176 50.0684 24.0991 47.4053C23.8806 44.7422 22.498 40.0161 22.498 40.0161L22.9713 31.9065L26.5309 32.3054Z"
            fill="#3E6BAB"/>
        <path d="M26.5309 32.3054L22.9713 31.9065L22.498 40.0161C22.498 40.0161 23.8806 44.7426 24.0991 47.4061C24.102 47.4405 24.1052 47.4758 24.1085 47.5118C24.135 43.4066 25.3227 41.6245 26.5778 37.2785C26.4697 35.3703 26.4257 33.5788 26.5309 32.3054Z"
            fill="#2E5B9A"/>
        <path d="M26.3896 33.623C24.7156 39.3231 23.181 44.6967 22.1583 48.2486C21.1356 51.8005 21.4425 55.4502 21.4425 55.4502L19.722 55.5882C19.722 55.5882 17.7871 49.7346 19.089 46.5665C20.3909 43.3984 19.7718 41.4877 20.0192 38.5297C20.298 35.1909 20.7671 32.7506 20.7671 32.7506L26.3896 33.623Z"
            fill="#3E6BAB"/>
        <path d="M26.4646 27.0636C25.8989 25.8 25.2973 24.8326 24.842 24.1146C24.5952 24.08 24.3467 24.0602 24.0977 24.0552C23.6179 24.0458 22.7827 23.4269 22.2846 23.0206C22.2565 23.0542 22.2234 23.0832 22.1864 23.1066C21.5061 23.5277 20.2018 25.0853 20.3885 28.4496C20.5752 31.8138 19.8716 32.9627 20.1203 34.2619C20.3689 35.5611 25.9694 35.072 26.465 34.5646C26.9607 34.0571 27.5187 29.4154 26.4646 27.0636Z"
            fill="#FF6C0E"/>
        <path d="M22.1054 22.3023L21.6016 23.6367L24.7919 24.94L25.1587 24.6222C25.1587 24.6222 24.6663 23.9017 24.7919 23.4655C24.9174 23.0293 25.0605 22.9048 24.7919 22.8008C24.5233 22.6967 23.5691 22.5309 22.9707 22.3023C22.3723 22.0738 22.2089 22.0275 22.1054 22.3023Z"
            fill="#FF6C0E"/>
        <path d="M27.0363 29.7869C26.9727 28.7854 26.8011 27.8094 26.4657 27.0636C26.3434 26.7887 26.2179 26.5287 26.0931 26.2813L25.6908 26.1056C25.6908 26.1056 23.4588 24.3149 22.0016 24.6491C20.5444 24.9833 20.4824 30.4373 21.3197 31.0352C22.1569 31.6332 24.6677 30.1153 25.443 29.9834C25.9468 29.8995 26.6234 29.8266 27.0363 29.7869Z"
            fill="#D54A41"/>
        <path d="M32.6938 27.5457C31.7832 27.5457 30.851 27.4675 30.0782 27.2295C27.7549 26.5132 23.4008 24.7221 22.5449 24.8392C21.8743 24.9314 21.0881 25.6719 21.1814 27.9774C21.2748 30.2829 22.4523 29.8152 23.9238 29.4371C25.3952 29.0591 27.3807 29.2901 30.0786 29.4371C30.9933 29.4867 31.9944 29.3384 32.9188 29.1209C32.8683 28.593 32.7916 28.0696 32.6938 27.5457Z"
            fill="#FF6C0E"/>
        <path d="M36.0413 27.7148C35.8835 27.6288 34.5421 27.6993 33.2598 27.6665C33.3392 28.117 33.5451 28.8612 33.5948 29.3159C34.9697 28.9133 36.0673 28.8735 36.0673 28.8735C36.0673 28.8735 36.327 27.8709 36.0413 27.7148Z"
            fill="#F09959"/>
        <path d="M31.9956 27.4441C32.8178 27.4572 34.1808 27.3544 34.3683 27.4793C34.5558 27.6042 34.8876 29.0722 34.2305 29.2598C31.8289 29.945 29.1314 29.4523 25.9072 29.2315C22.6831 29.0107 29.559 27.0636 29.559 27.0636C29.559 27.0636 31.3113 27.4334 31.9956 27.4441Z"
            fill="#FF6C0E"/>
        <path d="M22.8549 21.2865C23.4024 21.0145 23.1305 20.4862 23.1782 20.1356C23.2259 19.785 23.0738 19.5048 23.2043 19.5282C23.3347 19.5515 23.3058 20.8732 23.4708 20.8646C23.6359 20.856 23.5744 19.8677 23.7484 19.8407C23.9225 19.8136 23.993 19.5671 23.8544 19.1342C23.7158 18.7012 23.8271 18.315 24.196 18.6599C24.5648 19.0047 25.3845 19.7993 25.8627 19.6895C26.3408 19.5798 26.3135 19.0854 26.2727 19.0305C26.2319 18.9757 25.0022 17.5892 25.0022 17.5892L22.57 18.9892L22.502 20.2658L22.8549 21.2865Z"
            fill="#58556E"/>
        <path d="M23.2933 19.7875C23.3259 20.1192 23.3369 20.6226 23.3658 20.6951C23.149 20.784 22.8718 20.6054 22.7462 20.2966C22.6207 19.9878 22.6325 19.5823 22.853 19.5004C22.9888 19.4496 23.2549 19.4008 23.2933 19.7875Z"
            fill="#F09959"/>
        <path d="M32.9191 19.0421C32.5743 20.1635 30.652 20.179 30.5591 20.4903C30.4662 20.8016 30.5306 21.776 30.2493 22.5464C29.801 23.7776 29.5108 24.4206 28.8851 24.6078C28.2594 24.795 27.9961 23.7526 27.9961 23.7526C27.9961 23.7526 29.1174 22.2663 29.1781 22.2372C29.2389 22.2081 29.8303 18.4052 29.8303 18.4052C29.8303 18.4052 31.3327 18.1283 31.4102 18.0877C31.4876 18.0472 32.5727 18.5301 32.5727 18.5301L32.9191 19.0421Z"
            fill="#58556E"/>
        <path d="M34.6152 27.7737C34.8545 27.7737 36.0789 27.0848 36.3117 27.0635C36.5444 27.0422 37.4587 27.2921 37.4587 27.2921C37.4587 27.2921 35.6946 28.6662 35.662 28.6486C35.6294 28.631 34.6152 27.7737 34.6152 27.7737Z"
            fill="#F09959"/>
        <path d="M39.7516 28.9575L38.4192 28.8268C38.4192 28.8268 37.7055 29.4621 37.0549 29.6099C36.4044 29.7578 35.877 29.0574 35.877 29.0574L36.8866 27.8696L38.667 27.6677L40.0158 27.8066L39.7516 28.9575Z"
            fill="#E38540"/>
        <path d="M35.3184 28.7732C35.3184 28.7732 36.1405 29.4387 36.8383 29.5342C37.5361 29.6296 37.9234 29.2884 38.1712 29.0578C38.419 28.8272 37.6442 28.5909 37.3653 28.3161C37.0865 28.0413 37.2879 27.587 37.2879 27.587H36.0692L35.3184 28.7732Z"
            fill="#F09959"/>
        <path d="M39.7525 27.6665L38.4045 27.5178C38.4045 27.5178 37.8465 27.0226 37.5673 27.0636C37.2881 27.1045 36.574 27.6665 36.574 27.6665C36.574 27.6665 35.9626 28.2399 36.1761 28.3034C36.3897 28.3668 37.0093 28.1846 37.0867 28.0416C37.1642 27.8987 36.9318 28.0912 37.6292 28.0416C38.3267 27.9921 38.4037 27.8684 38.4037 27.8684L39.7516 27.9765L39.7525 27.6665Z"
            fill="#E38540"/>
        <path d="M35.7173 29.1213C35.8934 28.8485 36.1392 28.6867 36.5733 28.9284C37.0074 29.17 37.1354 29.51 37.0551 29.6103C36.9748 29.7107 36.1551 29.4432 35.8478 29.3502C35.6105 29.2782 35.7173 29.1213 35.7173 29.1213Z"
            fill="#E38540"/>
        <path d="M52.4057 20.8941C52.6401 20.0082 53.2813 17.8702 52.261 17.4013C51.2408 16.9323 50.7309 16.2446 49.7107 16.596C48.6904 16.9475 48.8955 17.7531 48.5286 18.1934C48.1618 18.6337 48.7764 20.068 49.3593 20.5804C49.9422 21.0928 52.4057 20.8941 52.4057 20.8941Z"
            fill="#58556E"/>
        <path d="M39.739 27.5551L38.8802 27.5178L38.5117 29.1914L39.955 29.4645L39.739 27.5551Z"
            fill="#F2E5DE"/>
        <path d="M53.3856 24.2986C54.7339 26.2027 53.9126 27.6571 52.2308 28.8928C50.5491 30.1285 46.59 30.5127 44.916 30.5872C43.2419 30.6618 39.0566 29.3704 39.0566 29.3704L39.3147 27.5179C39.3147 27.5179 43.2778 27.8979 44.8124 27.6338C46.3471 27.3696 51.7878 24.2986 51.7878 24.2986H53.3856Z"
            fill="#58556E"/>
        <path d="M50.2439 25.1484C49.7633 25.4069 49.2086 25.7001 48.6363 25.9926C48.0807 27.4458 47.9246 28.9358 45.2283 29.9245C44.6528 30.136 44.0619 30.3026 43.4609 30.423C44.0242 30.5381 44.5366 30.6061 44.9185 30.5893C46.132 30.5352 48.8593 30.6912 50.7363 30.1056C50.6784 28.6536 50.2895 26.3608 50.2439 25.1484Z"
            fill="#3A384D"/>
        <path d="M51.8194 19.0818L52.8425 22.4207L50.7344 25.0272L51.3543 22.7889L50.7344 20.4989L51.8194 19.0818Z"
            fill="#F09959"/>
        <path d="M51.8191 19.0818L50.7324 20.4989L51.3491 22.7758C51.7667 22.0452 52.064 21.2515 52.2296 20.4256L51.8191 19.0818Z"
            fill="#E38540"/>
        <path d="M51.8543 20.4301C51.5017 21.5323 50.5545 22.2126 49.738 21.9489C48.9216 21.6851 48.5454 20.578 48.898 19.4754C49.2505 18.3728 50.1982 17.6933 51.0147 17.9567C51.8311 18.2201 52.2069 19.3276 51.8543 20.4301Z"
            fill="#F09959"/>
        <path d="M50.8476 23.7751C50.8476 23.7751 50.2243 24.1491 50.226 24.4399C50.2276 24.7307 50.226 24.8966 50.226 24.8966C49.8528 25.495 49.5352 26.1266 49.2771 26.7835C48.8634 27.8455 48.885 28.3858 48.885 28.3858L51.5067 24.3785L50.8476 23.7751Z"
            fill="#FF6C0E"/>
        <path d="M54.5373 55.3719C54.5165 56.2026 53.6047 56.7891 53.1723 57.0102C51.8157 57.7024 51.5826 58.1349 53.0687 58.1128C54.1945 58.096 54.9702 57.6541 56.1898 57.571C56.9642 57.5185 56.4058 56.6551 56.447 56.1567C56.4881 55.6582 56.1372 54.957 56.1372 54.957L54.5373 55.3719Z"
            fill="#3A384D"/>
        <path d="M48.0257 54.9567C48.0257 54.9567 47.7522 55.3355 47.0907 55.9089C46.4291 56.4823 44.098 56.5012 45.338 57.0893C46.0916 57.4469 47.4799 57.188 48.3098 57.308C49.1397 57.4281 49.8632 57.3117 49.9251 57.0893C49.9871 56.8669 49.7552 55.3482 49.7552 55.3482L48.0257 54.9567Z"
            fill="#3A384D"/>
        <path d="M49.2425 32.8939C49.5686 36.8279 48.468 45.7059 48.4599 47.7148C48.4517 49.7238 47.3223 55.5677 47.3223 55.5677C47.3223 55.5677 49.5034 56.4573 50.0149 56.5007C50.5264 56.5441 51.6103 51.4023 51.8292 48.74C52.048 46.0778 53.2757 40.605 53.2757 40.605L52.8021 32.4954L49.2425 32.8939Z"
            fill="#58556E"/>
        <path d="M51.5365 51.0178C51.6714 50.1855 51.7762 49.3897 51.8296 48.7405C52.048 46.0783 53.2761 40.6055 53.2761 40.6055L53.118 37.9002L49.1977 37.8441C49.1161 39.292 48.9975 40.8078 48.8789 42.2176C50.385 45.5167 51.1709 48.9928 51.5365 51.0178Z"
            fill="#3A384D"/>
        <path d="M49.3828 34.2115C50.8991 42.4674 52.0155 45.7501 53.0386 49.3012C54.0617 52.8522 53.8302 56.5007 53.8302 56.5007L56.6667 56.8648C56.6667 56.8648 57.7754 50.4021 56.6851 47.1542C56.0158 45.162 56.4584 42.4625 56.211 39.5025C55.9322 36.1636 55.6901 32.7498 55.6901 32.7498L49.3828 34.2115Z"
            fill="#58556E"/>
        <path d="M55.2796 37.0938L50.3773 39.2211C50.3993 39.3227 50.3557 39.8248 50.3773 39.9247C52.7785 40.1258 54.2976 39.8973 56.2643 40.3753C56.2195 39.7957 56.1278 38.431 56.0895 37.8441L55.2796 37.0938Z"
            fill="#3A384D"/>
        <path d="M53.1998 22.7253C55.2459 24.67 55.9902 26.7257 55.9214 27.8553C55.7815 30.1424 56.2148 38.936 56.2148 38.936C56.2148 38.936 55.0128 39.2108 52.9988 39.5807C50.9848 39.9505 49.0414 39.4099 49.0414 39.4099C49.0414 39.4099 48.7006 33.1274 48.7153 29.1819C48.7263 26.7765 53.1998 22.7253 53.1998 22.7253Z"
            fill="#58556E"/>
        <path d="M55.2029 39.1519C55.2558 38.112 55.6264 30.792 55.5697 30.6761C55.5073 30.5532 53.1514 25.0272 53.1514 25.0272C51.8907 26.7511 51.8112 30.3439 51.8303 32.2767C51.8474 34.017 52.3688 38.7407 52.4719 39.6594C52.6464 39.6397 52.8224 39.6147 52.9993 39.582C53.8859 39.4177 54.6387 39.2682 55.2029 39.1519Z"
            fill="#3A384D"/>
        <path d="M53.0394 22.197L52.6465 21.4282L50.7348 22.9858L50.6211 25.1197L53.0394 22.197Z"
            fill="#F2E5DE"/>
        <path d="M52.7072 23.9196C52.7072 23.9196 53.4869 23.5604 54.2051 23.8103C53.91 23.4474 53.6394 23.087 53.1988 22.668C53.1988 22.668 48.7253 26.7195 48.7151 29.125C48.7127 29.7127 48.7273 30.3086 48.753 30.8968C48.7681 29.6918 48.5945 28.821 49.772 27.2479C50.8155 25.8553 53.0378 24.7085 53.0378 24.7085L52.7072 23.9196Z"
            fill="#3A384D"/>
        <path d="M53.0596 22.0057L53.6217 23.0854L52.2314 24.0868L52.6048 24.7098C52.6048 24.7098 50.9283 25.7812 50.2264 26.3296C49.05 27.2487 48.6367 29.424 48.6367 29.424C48.6367 29.424 48.8018 27.2487 50.2264 25.445C51.5291 23.7968 53.0596 22.0057 53.0596 22.0057Z"
            fill="#58556E"/>
        <path d="M51.134 39.0474L57.0976 39.7744L56.6933 43.7411L51.0215 43.1566L51.134 39.0474Z"
            fill="#BDCCD4"/>
        <path d="M54.5476 36.4814L53.9484 38.6899L53.0391 39.3067L53.7752 39.4263C53.7752 39.4263 53.6419 40.7394 53.392 41.3365C53.1422 41.9337 53.4108 42.1324 54.4237 41.4361C55.4366 40.7398 55.717 40.4011 55.649 39.5856C55.5809 38.7701 55.395 38.6702 55.4986 37.9936C55.6021 37.317 54.5268 36.3422 54.5268 36.3422L54.5476 36.4814Z"
            fill="#F09959"/>
        <path d="M53.9078 37.5951L53.7012 38.7292L55.6613 39.0475L55.9858 37.5951H53.9078Z"
            fill="#F2E5DE"/>
        <path d="M54.4474 24.2986C55.1864 24.6037 56.1267 27.3102 57.5016 32.1322C57.8342 33.2978 55.9857 38.5703 55.9857 38.5703C55.9857 38.5703 53.6241 38.4192 53.5947 38.0379C53.578 37.8196 54.6333 33.6345 54.4939 33.2319C54.3545 32.8293 53.5401 31.5997 52.8419 28.8556C52.1436 26.1114 53.1011 23.7428 54.4474 24.2986Z"
            fill="#58556E"/>
        <path d="M48.9569 17.8117C48.2232 19.6548 49.8128 19.4664 50.4837 18.895C51.1547 18.3237 51.2394 18.8176 51.2256 19.4955C51.2129 20.132 51.4661 19.6667 51.4078 20.3843C51.3495 21.1018 51.3038 21.1346 51.5378 20.8889C51.7718 20.6431 51.8455 19.7318 51.8455 19.7318C51.8455 19.7318 51.7905 20.9073 52.1248 20.9876C52.459 21.0678 52.4064 20.8962 52.4064 20.8962L52.4818 18.9229L51.0083 17.2682C51.0083 17.2682 49.1183 17.2825 49.1158 17.3411C49.1134 17.3997 48.9569 17.8117 48.9569 17.8117Z"
            fill="#58556E"/>
        <path d="M51.8439 19.7298C52.0705 19.2321 52.5707 19.4664 52.4374 20.0521C52.4029 20.216 52.319 20.3653 52.197 20.4796C52.0751 20.5938 51.921 20.6675 51.7559 20.6906L51.8439 19.7298Z"
            fill="#F09959"/>
        <path d="M11.9397 2.15766C14.9418 2.15766 18.8857 1.02272 20.1041 0.648772C20.2883 0.59225 20.4787 0.718401 20.4787 0.897796V9.28798C20.4787 15.7712 12.0702 21.0269 12.0702 21.0269C12.0702 21.0269 3.66211 15.7712 3.66211 9.28798V1.28689C3.66211 1.11487 3.83819 0.98954 4.01876 1.03296C5.17799 1.31106 8.93855 2.15766 11.9397 2.15766Z"
            fill="#93B1C2"/>
        <path opacity="0.7"
            d="M12.0719 3.53788C14.3244 3.53788 17.1262 2.79572 18.5304 2.21003C18.9503 2.03555 19.4251 2.31775 19.4251 2.74248V9.47511C19.4251 15.1449 12.0719 19.742 12.0719 19.742C12.0719 19.742 4.71875 15.1449 4.71875 9.47511V3.03492C4.71875 2.6278 5.15978 2.34601 5.57472 2.48772C6.9671 2.96529 9.79873 3.53788 12.0719 3.53788Z"
            fill="#064DD6"/>
        <path d="M12.1487 5.3659V17.9493C12.1487 17.9493 6.30078 14.205 6.30078 9.75779V4.65569C6.30078 4.35834 6.6232 4.15355 6.92482 4.25881C8.0172 4.64013 10.3312 5.3659 12.1487 5.3659Z"
            fill="#D6E7F0"/>
        <path d="M12.1484 5.36589V17.9493C12.1484 17.9493 18.205 14.205 18.205 9.75573V4.6438C18.205 4.34973 17.8887 4.14453 17.5883 4.24446C16.4548 4.62127 13.9888 5.36589 12.1484 5.36589Z"
            fill="#D6E7F0"/>
        <g style="mix-blend-mode:overlay">
            <path style="mix-blend-mode:overlay"
                d="M5.97635 9.20561C6.7508 11.7483 7.19183 15.7617 7.39767 18.1344C5.22921 16.1033 3.07706 13.7069 2.96782 12.4548C2.8325 10.8886 2.56633 6.37256 2.6128 3.23315C3.50912 4.30379 5.15788 6.52288 5.97635 9.20561Z"
                fill="url(#paint0_linear_4211_51511)"/>
            <path style="mix-blend-mode:overlay"
                d="M10.0348 14.286C9.39931 11.3211 7.57038 3.92126 2.67383 1.62599C2.74557 0.64874 2.87967 0.0175816 3.10426 0.00406554C4.00099 -0.0508178 5.06076 0.468117 5.06076 0.468117C9.84319 0.440676 12.1804 7.73115 12.3976 8.98732C12.6149 10.2435 12.3703 21.3348 11.9085 21.6326C11.8078 21.6973 11.3354 21.4151 10.656 20.9089C10.6401 19.5749 10.5406 16.6481 10.0348 14.286Z"
                fill="url(#paint1_linear_4211_51511)"/>
        </g>
    </g>
    <defs>
        <linearGradient id="paint0_linear_4211_51511"
            x1="-4.2105"
            y1="-3.3508"
            x2="15.1814"
            y2="27.4659"
            gradientUnits="userSpaceOnUse">
            <stop stop-color="white"/>
            <stop offset="1"/>
        </linearGradient>
        <linearGradient id="paint1_linear_4211_51511"
            x1="-0.739046"
            y1="-5.53628"
            x2="18.6533"
            y2="25.2809"
            gradientUnits="userSpaceOnUse">
            <stop stop-color="white"/>
            <stop offset="1"/>
        </linearGradient>
        <clipPath id="clip0_4211_51511">
            <rect width="70"
                height="59"
                fill="white"/>
        </clipPath>
    </defs>
</svg>
