<svg width="16"
    height="16"
    viewBox="0 0 16 16"
    fill="none"
    xmlns="http://www.w3.org/2000/svg">
    <path d="M3.29289 8.70709L1.87064 10.1293C1.57389 10.4261 1.57389 10.9072 1.87064 11.204C3.47499 12.8083 6.0149 12.9888 7.83001 11.6275L7.93582 11.5481C9.30499 10.5212 10.5213 9.30497 11.5481 7.9358L11.6275 7.82999C12.9888 6.01488 12.8083 3.47497 11.204 1.87062C10.9072 1.57387 10.4261 1.57387 10.1294 1.87062L8.70711 3.29287C8.31658 3.6834 8.31658 4.31656 8.70711 4.70709L9.66635 5.66633C9.8656 5.86558 9.915 6.16998 9.78898 6.42202C9.06047 7.87903 7.87905 9.06045 6.42204 9.78896C6.17 9.91498 5.8656 9.86558 5.66635 9.66633L4.70711 8.70709C4.31658 8.31656 3.68342 8.31656 3.29289 8.70709Z"
        fill="#064DD6"/>
</svg>
