<svg width="60" height="60" viewBox="0 0 60 60" fill="none" xmlns="http://www.w3.org/2000/svg">
<circle cx="30" cy="30" r="30" fill="#4D545C"/>
<circle cx="30" cy="30" r="24" fill="#A4A9AC"/>
<path d="M18 27.1375C18 25.7722 19.1068 24.6654 20.4721 24.6654C21.4085 24.6654 22.2645 24.1363 22.6833 23.2988L23.7778 21.1098C24.1032 20.4591 24.2658 20.1337 24.5096 19.897C24.7181 19.6947 24.968 19.5402 25.2422 19.4443C25.5629 19.332 25.9267 19.332 26.6543 19.332H33.3457C34.0733 19.332 34.4371 19.332 34.7578 19.4443C35.032 19.5402 35.2819 19.6947 35.4904 19.897C35.7342 20.1337 35.8968 20.4591 36.2222 21.1098L37.3167 23.2988C37.7355 24.1363 38.5915 24.6654 39.5279 24.6654C40.8932 24.6654 42 25.7722 42 27.1375V34.6654C42 37.4938 42 38.908 41.1213 39.7867C40.2426 40.6654 38.8284 40.6654 36 40.6654H24C21.1716 40.6654 19.7574 40.6654 18.8787 39.7867C18 38.908 18 37.4938 18 34.6654V27.1375Z" fill="#494949"/>
<circle cx="30" cy="32" r="5" fill="#A4A9AC"/>
<circle cx="30" cy="32" r="3" fill="#494949"/>
</svg>
