<svg width="346" height="216" viewBox="0 0 346 216" fill="none" xmlns="http://www.w3.org/2000/svg">
<path d="M344.375 133.001V155.667C344.375 159.438 344.375 182.132 344.375 198.096C344.375 206.932 337.212 214.084 328.375 214.084H263" stroke="white" stroke-width="3" stroke-miterlimit="10" stroke-linecap="round" stroke-linejoin="round"/>
<path d="M2 133.001V155.667C2 159.438 2 182.132 2 198.096C2 206.932 9.16344 214.084 18 214.084H83.375" stroke="white" stroke-width="3" stroke-miterlimit="10" stroke-linecap="round" stroke-linejoin="round"/>
<path d="M344.375 83.0833V60.4167C344.375 56.6457 344.375 33.9521 344.375 17.9883C344.375 9.15171 337.212 2 328.375 2H263" stroke="white" stroke-width="3" stroke-miterlimit="10" stroke-linecap="round" stroke-linejoin="round"/>
<path d="M2 83.0833V60.4167C2 56.6457 2 33.9521 2 17.9883C2 9.15171 9.16344 2 18 2H83.375" stroke="white" stroke-width="3" stroke-miterlimit="10" stroke-linecap="round" stroke-linejoin="round"/>
</svg>
