<svg width="125"
    height="82"
    viewBox="0 0 125 82"
    fill="none"
    xmlns="http://www.w3.org/2000/svg">
    <rect width="124.371"
        height="82"
        rx="8"
        fill="#F3F6FD"/>
    <rect x="65.459"
        y="13.6685"
        width="50.1847"
        height="21.8667"
        rx="2"
        fill="#C4C4C4"/>
    <rect x="65.459"
        y="41.0029"
        width="27.2743"
        height="8.2"
        rx="1"
        fill="#C4C4C4"/>
    <rect x="65.459"
        y="54.6687"
        width="50.1847"
        height="16.4"
        rx="1"
        fill="#C4C4C4"/>
    <rect x="8.72852"
        y="10.9343"
        width="48.0028"
        height="60.1333"
        rx="8"
        fill="white"/>
    <path d="M24.6194 44.0995H24.677C24.8048 44.0848 24.9212 44.0193 25.0003 43.9179C25.0793 43.8164 25.1143 43.6875 25.0975 43.56C24.849 41.4564 25.446 39.3401 26.7575 37.6766C28.0689 36.013 29.9873 34.9384 32.0909 34.689C34.1944 34.4397 36.3112 35.0359 37.9751 36.3467C38.8011 36.9938 39.4907 37.7986 40.004 38.7141C40.517 39.6297 40.8435 40.6379 40.9645 41.6804C40.9957 41.9455 41.236 42.1351 41.5011 42.1038C41.7662 42.0726 41.9557 41.8323 41.9245 41.5671C41.6445 39.2103 40.4395 37.061 38.575 35.5925C36.7103 34.124 34.3386 33.4563 31.9818 33.7364C29.6249 34.0164 27.4756 35.2213 26.0072 37.0859C24.5387 38.9505 23.8709 41.3223 24.1509 43.6791C24.1807 43.9164 24.3803 44.0956 24.6194 44.0995L24.6194 44.0995Z"
        fill="#AEAEB2"/>
    <path d="M31.3701 51.3975C31.6071 51.5154 31.8949 51.4192 32.0133 51.1824C33.3424 48.5178 33.8618 45.5222 33.5071 42.5654C33.4758 42.3004 33.2355 42.1107 32.9705 42.1421C32.7053 42.1733 32.5158 42.4135 32.5471 42.6787C32.8795 45.4494 32.3929 48.257 31.1474 50.7543C31.0913 50.8691 31.0833 51.0016 31.125 51.1222C31.1668 51.2429 31.2551 51.342 31.3701 51.3976L31.3701 51.3975Z"
        fill="#AEAEB2"/>
    <path d="M38.9774 49.0262C39.1033 49.0509 39.2337 49.0242 39.3398 48.952C39.4458 48.8798 39.5186 48.7683 39.5419 48.6421C39.9939 46.3932 40.0852 44.0866 39.8125 41.809C39.6714 40.6355 39.2281 39.5188 38.5261 38.5679C38.367 38.3559 38.0662 38.3129 37.8541 38.472C37.6421 38.631 37.5991 38.932 37.7582 39.144C38.3638 39.9639 38.7456 40.9274 38.8659 41.9394C39.1261 44.1155 39.0387 46.3191 38.6068 48.4674C38.5583 48.7234 38.7226 48.9712 38.9774 49.0262L38.9774 49.0262Z"
        fill="#AEAEB2"/>
    <path d="M25.9731 48.0145C26.0909 48.0626 26.2231 48.0619 26.3406 48.0126C26.4579 47.9632 26.551 47.8693 26.599 47.7513C27.1717 46.3471 27.3785 44.8203 27.2 43.3144C27.031 41.8894 27.3897 40.4518 28.2084 39.2732C29.0272 38.0946 30.2491 37.2567 31.6435 36.9178C33.0379 36.5788 34.5081 36.7621 35.7767 37.4334C36.011 37.5574 36.3015 37.4681 36.4256 37.2337C36.5497 36.9993 36.4602 36.7088 36.2259 36.5847C34.75 35.802 33.0382 35.5873 31.4146 35.9812C29.7909 36.375 28.368 37.3505 27.4148 38.7225C26.4616 40.0947 26.0443 41.7686 26.2419 43.4276C26.401 44.7721 26.216 46.1351 25.7043 47.3886C25.6564 47.5073 25.6579 47.64 25.7084 47.7575C25.7589 47.8751 25.8541 47.9676 25.973 48.0146L25.9731 48.0145Z"
        fill="#AEAEB2"/>
    <path d="M33.6914 51.4897C33.9342 51.5941 34.2157 51.4825 34.3211 51.2401C35.5263 48.4307 35.9707 45.3532 35.6095 42.3179C35.5345 41.6286 35.1869 40.9978 34.6444 40.566C34.1019 40.1343 33.4092 39.9373 32.7207 40.0191C32.0321 40.1008 31.4048 40.4544 30.9784 41.0013C30.552 41.5481 30.3619 42.2426 30.4505 42.9304C30.5227 43.5425 30.5489 44.1593 30.5292 44.7755C30.5207 45.0405 30.7286 45.2623 30.9938 45.2708C31.2589 45.2793 31.4807 45.0712 31.4892 44.8062C31.5107 44.142 31.4824 43.477 31.4047 42.817C31.3459 42.3819 31.4644 41.9414 31.7335 41.5944C32.0026 41.2475 32.3997 41.0231 32.8357 40.9716C33.2718 40.9201 33.7101 41.0458 34.0526 41.3207C34.3951 41.5955 34.613 41.9962 34.6572 42.4331C34.9972 45.2989 34.5773 48.2037 33.4399 50.8561C33.3886 50.9734 33.3864 51.1062 33.4336 51.2253C33.4809 51.3442 33.5737 51.4395 33.6914 51.4897L33.6914 51.4897Z"
        fill="#AEAEB2"/>
    <path d="M29.3021 50.7586C29.5343 50.8838 29.8243 50.7981 29.951 50.5665C30.4314 49.6645 30.805 48.7096 31.0646 47.7211C31.1319 47.4645 30.9785 47.2018 30.7218 47.1345C30.4652 47.0672 30.2026 47.2206 30.1354 47.4772C29.8946 48.3936 29.5478 49.2791 29.1024 50.1153C28.9821 50.3482 29.0711 50.6347 29.3021 50.7586L29.3021 50.7586Z"
        fill="#AEAEB2"/>
    <path d="M36.7594 42.1932C36.7955 42.4273 36.9968 42.6 37.2337 42.6002H37.297C37.5583 42.5663 37.7434 42.328 37.7118 42.0665C37.5433 40.6597 36.7518 39.4029 35.5558 38.6434C34.3597 37.8839 32.8857 37.7019 31.541 38.1477C31.42 38.1884 31.3201 38.2755 31.2635 38.3899C31.2068 38.5042 31.1978 38.6363 31.2385 38.7572C31.3233 39.0091 31.5963 39.1446 31.848 39.0596C32.9203 38.7039 34.0956 38.8494 35.0487 39.4558C36.0019 40.0624 36.6315 41.0654 36.7634 42.1874L36.7594 42.1932Z"
        fill="#AEAEB2"/>
    <path d="M36.2415 50.8563C36.4915 50.9345 36.7581 50.7977 36.8405 50.549C37.4409 48.7514 37.7747 46.8756 37.8312 44.981C37.8392 44.7158 37.6307 44.4946 37.3657 44.4865C37.1006 44.4786 36.8792 44.687 36.8712 44.9522C36.8184 46.755 36.5014 48.5406 35.9305 50.2514C35.8912 50.3729 35.902 50.505 35.9603 50.6184C36.0187 50.732 36.1199 50.8174 36.2415 50.8562L36.2415 50.8563Z"
        fill="#AEAEB2"/>
    <path d="M27.5071 49.6391C27.6204 49.6975 27.7522 49.7085 27.8736 49.6697C27.9951 49.6307 28.0959 49.5451 28.1542 49.4317C29.1671 47.4727 29.5685 45.2546 29.3062 43.0648C29.2023 42.1943 29.4061 41.3148 29.8821 40.5784C30.0129 40.357 29.9459 40.0719 29.7301 39.932C29.5145 39.7919 29.2268 39.8468 29.0778 40.0562C28.4783 40.9794 28.2202 42.083 28.3481 43.1762C28.5888 45.1754 28.2236 47.2007 27.2997 48.9901C27.2408 49.1035 27.2294 49.236 27.2684 49.3577C27.3074 49.4796 27.3932 49.5808 27.5072 49.6391L27.5071 49.6391Z"
        fill="#AEAEB2"/>
</svg>
