<svg width="125"
    height="81"
    viewBox="0 0 125 81"
    fill="none"
    xmlns="http://www.w3.org/2000/svg">
    <rect width="124.371"
        height="81"
        rx="8"
        fill="#F3F6FD"/>
    <rect x="65.459"
        y="13.5017"
        width="50.1847"
        height="21.6"
        rx="2"
        fill="#C4C4C4"/>
    <rect x="65.459"
        y="40.5027"
        width="27.2743"
        height="8.1"
        rx="1"
        fill="#C4C4C4"/>
    <rect x="65.459"
        y="54.0022"
        width="50.1847"
        height="16.2"
        rx="1"
        fill="#C4C4C4"/>
    <rect x="8.72852"
        y="10.8008"
        width="48.0028"
        height="59.4"
        rx="8"
        fill="white"/>
    <path d="M32 31C29.38 31 27.25 33.13 27.25 35.75C27.25 38.32 29.26 40.4 31.88 40.49C31.96 40.48 32.04 40.48 32.1 40.49C32.12 40.49 32.13 40.49 32.15 40.49C32.16 40.49 32.16 40.49 32.17 40.49C34.73 40.4 36.74 38.32 36.75 35.75C36.75 33.13 34.62 31 32 31Z"
        fill="#AEAEB2"/>
    <path d="M37.08 43.1499C34.29 41.2899 29.74 41.2899 26.93 43.1499C25.66 43.9999 24.96 45.1499 24.96 46.3799C24.96 47.6099 25.66 48.7499 26.92 49.5899C28.32 50.5299 30.16 50.9999 32 50.9999C33.84 50.9999 35.68 50.5299 37.08 49.5899C38.34 48.7399 39.04 47.5999 39.04 46.3599C39.03 45.1299 38.34 43.9899 37.08 43.1499Z"
        fill="#AEAEB2"/>
</svg>
