<svg width="43" height="24" viewBox="0 0 43 24" fill="none" xmlns="http://www.w3.org/2000/svg">
<path fill-rule="evenodd" clip-rule="evenodd" d="M27.376 7.39726C28.336 7.5628 29.1305 8.42343 29.2629 8.58896L30.7195 11.3365L32.9375 11.6345C33.2023 11.6676 33.5003 11.8993 33.5003 12.1642V12.727C33.5003 12.9917 33.2686 13.1904 33.0369 13.1904H31.7458C31.9775 13.4221 33.0369 14.1504 33.0699 16.6992C33.103 18.8509 33.103 20.9695 33.103 23.1212C33.103 23.4854 32.772 23.8164 32.4078 23.8164H29.2298C28.8326 23.8164 28.5015 23.4854 28.5015 23.1212V22.2606C23.8339 22.5586 19.1662 22.5586 14.4656 22.2606V23.1212C14.4656 23.4854 14.1676 23.8164 13.7704 23.8164H10.5924C10.1952 23.8164 9.89723 23.4854 9.89723 23.1212V16.6992C9.93031 14.1502 11.0228 13.4219 11.2545 13.1904H9.96341C9.69863 13.1904 9.5 12.9917 9.5 12.727V12.1642C9.5 11.8994 9.79799 11.6676 10.0297 11.6345L12.2477 11.3365L13.7373 8.58896C13.8698 8.42343 14.6312 7.56279 15.5912 7.39726C19.2656 6.86758 23.7347 6.86758 27.3759 7.39726H27.376ZM24.794 19.0496C24.9926 19.0496 25.1581 18.8841 25.1581 18.6855C25.1581 18.4538 24.9926 18.2882 24.794 18.2882H18.2063C17.9746 18.2882 17.8091 18.4538 17.8091 18.6855C17.8091 18.8841 17.9746 19.0496 18.2063 19.0496H24.794ZM24.794 17.593C24.9926 17.593 25.1581 17.3944 25.1581 17.1958C25.1581 16.9641 24.9926 16.7985 24.794 16.7985H18.2063C17.9746 16.7985 17.8091 16.9641 17.8091 17.1958C17.8091 17.3944 17.9746 17.593 18.2063 17.593H24.794ZM29.5278 11.9324C29.0975 11.0718 28.7003 10.2441 28.2698 9.41659C27.9718 8.95318 27.6078 8.82073 27.2768 8.72137C23.4367 8.25797 19.5638 8.25797 15.7238 8.72137C15.3597 8.82075 15.0286 8.95307 14.7307 9.41659C14.3004 10.2441 13.8701 11.0718 13.4397 11.9324H29.5278ZM11.6519 16.7324H14.1347L15.1278 19.149H11.6519L11.6519 16.7324ZM31.3155 16.7324H28.8658L27.8396 19.149H31.3155L31.3155 16.7324Z" fill="#151940"/>
<circle cx="30" cy="7.5" r="6.5" fill="#FF6C0E" stroke="white" stroke-width="0.5"/>
<path d="M27.8332 8.89583C27.8332 9.70536 28.3358 10.5652 29.1332 10.5652H30.8665C31.5598 10.5652 32.1665 10.0225 32.1665 9.31312C32.1665 8.55366 31.8112 8.23652 31.2998 8.06127L28.6998 7.2267C28.1885 7.05144 27.8332 6.74265 27.8332 5.97485C27.8332 5.27381 28.4398 4.72299 29.1332 4.72299L30.8665 4.71484C31.6638 4.71484 32.1665 5.16531 32.1665 5.97485" stroke="white" stroke-width="0.8" stroke-linecap="round" stroke-linejoin="round"/>
<path d="M29.9998 3.88867V11.3998" stroke="white" stroke-width="0.8" stroke-linecap="round" stroke-linejoin="round"/>
</svg>
