<svg width="16" height="16" viewBox="0 0 16 16" fill="none" xmlns="http://www.w3.org/2000/svg">
<path d="M14 8C14 11.3137 11.3137 14 8 14C4.68629 14 2 11.3137 2 8C2 4.68629 4.68629 2 8 2C11.3137 2 14 4.68629 14 8Z" fill="#FFCA28"/>
<path d="M7.53848 8.85154C7.54182 9.10441 7.74776 9.30764 8.00065 9.30764C8.25354 9.30764 8.45948 9.10441 8.46282 8.85154L8.52001 4.52627C8.52384 4.23675 8.29019 4 8.00065 4C7.71111 4 7.47747 4.23675 7.48129 4.52627L7.53848 8.85154ZM8.00065 12C8.38077 12 8.66732 11.7247 8.66732 11.3723C8.66732 11.0145 8.38077 10.7447 8.00065 10.7447C7.62638 10.7447 7.33398 11.0145 7.33398 11.3723C7.33398 11.7247 7.62638 12 8.00065 12Z" fill="black"/>
</svg>
