<svg width="114" height="110" viewBox="0 0 114 110" fill="none" xmlns="http://www.w3.org/2000/svg">
<path d="M101.807 24.1205C83.5271 4.88372 55.4489 10.5744 51.2989 11.4891C46.0702 12.6414 33.6304 15.3825 24.347 26.2051C10.1342 42.7745 11.5696 68.6707 22.5458 86.1292C25.7397 91.2092 36.4877 106.306 56.6716 109.589C57.8513 109.78 78.9278 112.862 95.8864 98.6723C98.1728 96.7591 101.864 93.2942 105.098 88.2491C115.132 72.599 119.881 43.1418 101.807 24.1205Z" fill="url(#paint0_linear_445_1250)"/>
<path d="M0.0744281 33.8108C-0.122706 33.6069 0.106579 33.2422 0.357015 33.3767C4.24809 35.4581 19.5374 42.0159 27.9203 59.3688C35.6669 75.4044 37.9716 88.1047 38.7457 92.8182C38.8989 93.7506 37.9919 94.5027 37.1043 94.1795C31.8435 92.264 17.3943 86.1283 13.4491 75.3452C8.73395 62.4595 9.47341 43.5507 0.0744281 33.8108Z" fill="#91B3FA"/>
<path d="M10.9473 44.6533C10.9473 44.6533 23.7754 53.636 37.5765 92.6601C37.5765 92.6601 21.6289 54.1758 10.9473 44.6533Z" fill="#DCE5FE"/>
<path d="M1.96907 55.577C2.18313 62.3557 5.042 101.755 42.495 105.714C42.495 105.714 47.2905 79.2914 2.81599 55.0541C2.42679 54.8417 1.95469 55.1345 1.96907 55.577Z" fill="#BDD0FB"/>
<path d="M6.43477 60.8171C7.29861 62.868 8.24621 64.8909 9.22342 66.8952C10.2049 68.8979 11.2303 70.8785 12.2963 72.8372C13.3607 74.7967 14.475 76.7291 15.6299 78.6353C16.7881 80.5398 17.9794 82.4249 19.2383 84.2625C21.7444 87.9455 24.4569 91.4922 27.4528 94.78C27.8175 95.1997 28.2135 95.5905 28.5933 95.9958L29.1687 96.5991C29.3599 96.8004 29.5629 96.9899 29.7601 97.1862C30.1586 97.5729 30.5486 97.9688 30.953 98.3487L32.1832 99.4706C33.8491 100.936 35.5946 102.308 37.4348 103.538L37.439 103.54C37.6082 103.653 37.653 103.881 37.5405 104.05C37.428 104.22 37.1996 104.264 37.0303 104.152L37.0278 104.15C35.1631 102.884 33.4024 101.477 31.728 99.9791L30.4919 98.8344C30.0858 98.4469 29.6941 98.0441 29.2947 97.6507C29.0976 97.451 28.8937 97.2581 28.7025 97.0534L28.1263 96.44C27.7464 96.028 27.3496 95.6303 26.985 95.2039C23.9899 91.8644 21.2918 88.2754 18.8035 84.5561C17.553 82.6998 16.3727 80.7979 15.2254 78.8781C14.0816 76.9559 12.98 75.0091 11.9275 73.036C10.8741 71.0638 9.86136 69.0696 8.89345 67.0543C7.92978 65.0364 6.99741 63.0059 6.14373 60.9347C6.11073 60.8552 6.1488 60.7638 6.22833 60.7316C6.30786 60.6986 6.39839 60.7367 6.43139 60.8154L6.43477 60.8171Z" fill="#DCE5FE"/>
<path d="M23.7355 0.566314C19.7446 10.4552 -1.12713 68.9507 50.2462 98.3973C50.2462 98.3973 73.9006 63.425 25.2863 0.350566C24.8607 -0.201917 23.9961 -0.0800833 23.7355 0.566314Z" fill="#BDD0FB"/>
<path d="M26.7132 11.1892C26.6083 14.7672 26.6531 18.3554 26.769 21.936C26.8875 25.5174 27.0931 29.0963 27.3867 32.6675C27.9772 39.8092 28.9053 46.9255 30.2971 53.9521C31.6957 60.9736 33.5494 67.9173 36.1359 74.5877C36.7772 76.257 37.4811 77.9001 38.2273 79.5237C38.971 81.1482 39.7765 82.7439 40.6412 84.3048C42.3587 87.4345 44.3461 90.4143 46.6077 93.1666L46.6094 93.1691C46.727 93.3121 46.7067 93.5245 46.5628 93.6421C46.4198 93.7597 46.2075 93.7394 46.0899 93.5955L46.089 93.5947C43.8089 90.7942 41.813 87.772 40.0946 84.606C39.2291 83.0264 38.4236 81.4138 37.6825 79.7741C36.9388 78.1353 36.2365 76.4779 35.5995 74.7959C33.0274 68.0738 31.199 61.0938 29.8276 54.0452C28.4637 46.9915 27.5652 39.8557 27.0059 32.6988C26.7276 29.12 26.538 25.5343 26.4357 21.947C26.3358 18.3588 26.3071 14.7706 26.4289 11.1782C26.4314 11.0995 26.4974 11.0378 26.5761 11.0411C26.6548 11.0437 26.7166 11.1097 26.7132 11.1884V11.1892Z" fill="#DCE5FE"/>
<path d="M85.9991 95.1674C85.205 98.0465 83.8687 101.802 82.4946 105L82 104.913C83.7264 101.066 85.6331 95.718 86.4754 89.3144C87.3245 82.8568 87.1239 74.7993 90.7047 71.5971C93.685 68.9321 104.103 70.2879 107.514 70.8177C107.94 70.8839 108.097 71.416 107.774 71.7021C106.183 73.1125 102.786 76.4296 101.965 79.7038C100.883 84.0191 96.8824 86.8518 93.2561 87.6862C89.6299 88.5206 87.6205 89.2896 85.9991 95.1674Z" fill="#BDD0FB"/>
<path d="M102.788 72.7717C100.604 72.9345 98.4584 73.5404 96.4985 74.5424C95.5172 75.0405 94.5973 75.667 93.7698 76.4012C92.9486 77.1415 92.2187 77.9934 91.6485 78.9458L91.4365 79.3036C91.3665 79.4233 91.3079 79.5494 91.2432 79.6719C91.1819 79.7954 91.1149 79.9194 91.0581 80.0429L90.8864 80.4132C90.6564 80.9062 90.4289 81.4006 90.2064 81.8971C89.7601 82.8896 89.3294 83.8893 88.9145 84.8954C88.0834 86.9074 87.3147 88.9447 86.6712 91.0282C86.6558 91.0781 86.6839 91.1312 86.7339 91.1466C86.7821 91.1616 86.8333 91.136 86.8505 91.0893L86.8516 91.0865C87.2269 90.0713 87.6226 89.0593 88.037 88.0573C88.4468 87.053 88.8688 86.0537 89.3018 85.059L89.9559 83.5693L90.6267 82.0871C90.8499 81.5928 91.0781 81.101 91.3089 80.61L91.4811 80.2415C91.5384 80.1185 91.6013 80.0036 91.6612 79.8842C91.7226 79.7665 91.7779 79.645 91.8443 79.5301L92.0457 79.186C92.5854 78.2681 93.2866 77.4537 94.0647 76.7266C94.4619 76.3713 94.8725 76.0281 95.3141 75.7263L95.4774 75.6102L95.6453 75.5004C95.7576 75.4276 95.868 75.352 95.9818 75.2815C96.2114 75.1438 96.4396 75.003 96.6768 74.8775C97.6159 74.3581 98.6182 73.9533 99.6436 73.6241C100.669 73.2962 101.73 73.0534 102.798 72.9231L102.803 72.9226C102.844 72.9175 102.874 72.8797 102.869 72.8379C102.864 72.7978 102.828 72.7689 102.788 72.7717Z" fill="url(#paint1_linear_445_1250)"/>
<path d="M91.8144 96.7899C91.2585 100.267 92.1817 101.633 92.7132 102.907C92.8076 103.133 92.9428 103.453 93.0911 103.835L92.6011 104.065C92.4624 103.51 92.2925 102.964 92.0817 102.45C90.6356 98.9201 88.6475 92.6699 89.966 87.7525C91.2846 82.8348 94.3894 80.9834 99.9962 82.255C104.668 83.3147 107.434 83.6581 108.802 83.3205C109.141 83.2368 109.463 83.5122 109.443 83.8607C109.335 85.7149 108.662 90.1743 104.742 91.7252C99.7413 93.7031 92.3704 93.3126 91.8144 96.7899Z" fill="#91B3FA"/>
<path opacity="0.5" d="M100.599 87.1479C100.211 87.0183 99.8175 86.9217 99.4194 86.8374C99.0214 86.7538 98.6197 86.6848 98.2139 86.6401C97.4036 86.5476 96.5781 86.5316 95.7574 86.6391C95.3475 86.6942 94.9392 86.7801 94.5405 86.909C94.1431 87.0401 93.7561 87.2146 93.3972 87.4411C93.3097 87.5009 93.2179 87.5552 93.1339 87.6204C93.051 87.6863 92.963 87.7495 92.8846 87.8179L92.4273 88.2357L91.9992 88.6856L91.6061 89.1682C91.1055 89.8319 90.7261 90.589 90.4874 91.3828C90.2442 92.1769 90.1506 93.0042 90.1379 93.8216L90.1334 94.1287C90.1303 94.2312 90.141 94.3329 90.1443 94.4349C90.1557 94.6388 90.161 94.8429 90.1777 95.0461L90.2432 95.6533C90.2607 95.8561 90.3045 96.0552 90.3357 96.2556C90.4643 97.0578 90.6627 97.8443 90.8805 98.6221C90.8927 98.6655 90.9378 98.6908 90.9812 98.6787C91.0228 98.667 91.0477 98.6254 91.0393 98.5841L91.0388 98.5815C90.8777 97.7946 90.7096 97.0094 90.6231 96.2143C90.5673 95.8181 90.5452 95.4199 90.5123 95.0233C90.5016 94.8247 90.5026 94.6258 90.497 94.4273C90.4968 94.3281 90.4892 94.2287 90.495 94.1298L90.5082 93.833C90.5409 93.0422 90.6634 92.2581 90.899 91.5119C91.1352 90.7655 91.5037 90.0678 91.9736 89.4454L92.3459 88.9932L92.753 88.5699L93.1897 88.1753C93.263 88.1114 93.3386 88.0566 93.4129 87.9965C93.4872 87.9374 93.5696 87.889 93.6478 87.8342C93.9688 87.6285 94.3201 87.4667 94.6863 87.3429C95.0518 87.2166 95.4327 87.1268 95.8197 87.0665C96.5946 86.9445 97.3909 86.9318 98.1845 86.9797C98.5812 87.0069 98.9786 87.0431 99.3742 87.0987C99.7688 87.155 100.165 87.2242 100.552 87.3107L100.555 87.3112C100.6 87.3214 100.646 87.2927 100.656 87.2468C100.665 87.2039 100.64 87.1616 100.599 87.1479Z" fill="white"/>
<path d="M28 27.9375C28 24.6276 30.6832 21.9443 33.9932 21.9443H84.9594C87.7712 21.9443 90.0899 24.148 90.2328 26.9559L93.9949 100.847C94.1069 103.045 92.377 104.898 90.1768 104.938L31.7631 106C29.6958 106.038 28 104.372 28 102.305V27.9375Z" fill="url(#paint2_linear_445_1250)"/>
<path d="M32.1758 23.0816C32.1696 22.0227 33.101 21.2029 34.1503 21.3452C41.1102 22.289 65.0434 25.2082 84.8314 23.689C85.7339 23.6196 86.5169 24.3033 86.565 25.2072L90.5098 99.428C90.5638 100.446 89.787 101.316 88.7693 101.376C80.4471 101.868 46.173 103.772 33.9479 102.492C33.2038 102.414 32.6389 101.788 32.6348 101.039L32.1758 23.0816Z" fill="#91B3FA"/>
<path d="M32.9951 24.9412C32.9893 23.9221 33.8853 23.1333 34.8954 23.2704C41.5932 24.1788 64.6252 26.9878 83.668 25.5259C84.5365 25.4593 85.29 26.1172 85.3364 26.9871L89.1324 98.413C89.1846 99.3925 88.4367 100.23 87.4575 100.288C79.4487 100.762 46.465 102.594 34.7003 101.362C33.9843 101.287 33.4408 100.684 33.4366 99.9642L32.9951 24.9412Z" fill="#BDD0FB"/>
<path opacity="0.78" d="M39.1955 30.4484L39.907 45.7615C39.9307 46.2707 40.342 46.6757 40.8518 46.6902C43.688 46.7702 52.5248 46.9856 57.5148 46.7256C58.0792 46.696 58.5259 46.2394 58.5444 45.6746C58.6396 42.8027 58.8478 34.4445 58.1933 30.9501C58.0875 30.3856 57.6024 29.9719 57.0286 29.952L40.266 29.3659C39.661 29.3449 39.1673 29.8441 39.1955 30.4484Z" fill="white"/>
<path d="M48.8415 39.2152C50.6595 39.2152 52.1332 37.7415 52.1332 35.9235C52.1332 34.1056 50.6595 32.6318 48.8415 32.6318C47.0236 32.6318 45.5498 34.1056 45.5498 35.9235C45.5498 37.7415 47.0236 39.2152 48.8415 39.2152Z" fill="#FF6C0E"/>
<path d="M43.8409 45.5871H54.3282C54.9711 45.5871 55.3565 44.8773 55.0102 44.3355C54.1194 42.9417 52.2555 40.894 49.0277 40.9864C45.9167 41.0754 44.0728 42.9252 43.1459 44.2517C42.7528 44.8148 43.1541 45.5871 43.8409 45.5871Z" fill="#FF6C0E"/>
<g opacity="0.6">
<path opacity="0.6" d="M81.5783 31.7802C81.6621 31.7802 81.7288 31.7115 81.7264 31.6276L81.7054 30.9051C81.703 30.8213 81.6323 30.7516 81.5484 30.7498L62.2778 30.4063C62.194 30.4049 62.1483 30.4681 62.1761 30.5475L62.5595 31.6362C62.5874 31.7153 62.6788 31.7802 62.7626 31.7802H81.5783Z" fill="white"/>
</g>
<g opacity="0.6">
<path opacity="0.6" d="M62.2768 33.2617C62.193 33.2604 62.1473 33.3236 62.1751 33.4029L62.5586 34.4917C62.5864 34.5707 62.6778 34.6357 62.7616 34.6357H81.5777C81.6615 34.6357 81.7282 34.5669 81.7258 34.4831L81.7048 33.7606C81.7024 33.6768 81.6316 33.607 81.5478 33.6053L62.2768 33.2617Z" fill="white"/>
</g>
<g opacity="0.6">
<path opacity="0.6" d="M62.2768 36.1592C62.193 36.1578 62.1473 36.221 62.1751 36.3004L62.5586 37.3892C62.5864 37.4682 62.6778 37.5331 62.7616 37.5331H81.5777C81.6615 37.5331 81.7282 37.4644 81.7258 37.3806L81.7048 36.6581C81.7024 36.5742 81.6316 36.5045 81.5478 36.5028L62.2768 36.1592Z" fill="white"/>
</g>
<g opacity="0.6">
<path opacity="0.6" d="M83.3632 51.5C83.4471 51.5 83.5113 51.4316 83.5058 51.3478L83.4581 50.6246C83.4526 50.5407 83.3794 50.472 83.2955 50.4713L39.3432 50.125C39.2594 50.1243 39.2336 50.1776 39.2858 50.2432L40.1918 51.3807C40.244 51.4464 40.3553 51.5 40.4392 51.5H83.3632Z" fill="white"/>
</g>
<g opacity="0.6">
<path opacity="0.6" d="M39.3442 52.9785C39.2603 52.9778 39.2346 53.0311 39.2868 53.0967L40.1928 54.2343C40.245 54.2999 40.3563 54.3535 40.4401 54.3535H83.3646C83.4484 54.3535 83.5126 54.2851 83.5071 54.2013L83.4594 53.4781C83.4539 53.3942 83.3807 53.3255 83.2969 53.3248L39.3442 52.9785Z" fill="white"/>
</g>
<path d="M45.1512 72.4489C45.1478 72.4489 45.1447 72.4489 45.1413 72.4489L41.5067 72.4139C40.9876 72.4087 40.5588 72.0514 40.5097 71.5828L40.1901 68.5333C40.1712 68.3543 40.2269 68.1774 40.3468 68.0348C40.4808 67.8754 40.6835 67.7754 40.903 67.7603C41.2092 67.7393 41.6403 67.7026 42.0969 67.6637C43.0582 67.582 44.2545 67.4799 44.9276 67.4717C45.4161 67.4693 45.8301 67.7582 45.9452 68.1836C46.1345 68.8834 46.118 70.2085 46.0819 71.6203C46.0703 72.0793 45.6539 72.4489 45.1512 72.4489ZM40.9219 68.0396C40.7776 68.0496 40.6457 68.1135 40.5605 68.2152C40.4901 68.299 40.4571 68.4017 40.4677 68.5048L40.7873 71.5543C40.8216 71.882 41.1322 72.1318 41.5094 72.1353L45.144 72.1703C45.1464 72.1703 45.1488 72.1703 45.1512 72.1703C45.5034 72.1703 45.7951 71.9222 45.803 71.6141C45.8384 70.224 45.8555 68.9212 45.6759 68.2571C45.5955 67.9596 45.2859 67.7527 44.931 67.7514C44.2679 67.7596 43.0771 67.861 42.1203 67.9424C41.663 67.9815 41.2305 68.0183 40.9219 68.0396Z" fill="white"/>
<path opacity="0.6" d="M41.3129 68.3546C42.0763 68.3024 43.7357 68.134 44.5228 68.1241C44.8564 68.12 45.1488 68.3213 45.2272 68.6106C45.379 69.1723 45.3591 70.2916 45.3326 71.3251C45.3247 71.6346 45.0406 71.8817 44.6936 71.8782L41.7891 71.8504C41.4318 71.847 41.1353 71.6034 41.1023 71.2863L40.847 68.8494C40.8202 68.5972 41.0302 68.3739 41.3129 68.3546Z" fill="white"/>
<g opacity="0.6">
<path opacity="0.6" d="M48.3438 70.4247C48.449 70.8236 48.8114 71.1005 49.2241 71.0971L82.8516 70.8102C83.2319 70.8071 83.5363 70.4931 83.5281 70.1128C83.5198 69.7431 83.2189 69.4469 82.8488 69.4452L49.2203 69.292C48.6269 69.2893 48.1923 69.8506 48.3438 70.4247Z" fill="white"/>
</g>
<path d="M41.4676 68.833C41.7373 68.6746 42.0846 68.769 42.2371 69.0422L42.9542 70.3271C43.026 70.4556 43.2136 70.4477 43.274 70.3134L45.052 66.3548C45.1406 66.1573 45.4347 66.2243 45.4316 66.4407C45.4134 67.6514 45.0922 69.953 43.1576 71.8797C43.1576 71.8797 42.0915 71.4654 41.2329 69.5799C41.1082 69.3078 41.2092 68.9845 41.4676 68.833Z" fill="#FF6C0E"/>
<path d="M45.1512 80.2396C45.1478 80.2396 45.1447 80.2396 45.1413 80.2396L41.5067 80.2045C40.9876 80.1994 40.5588 79.8421 40.5097 79.3735L40.1901 76.324C40.1712 76.145 40.2269 75.968 40.3468 75.8258C40.4808 75.6664 40.6835 75.5664 40.903 75.5513C41.2092 75.5303 41.6403 75.4936 42.0969 75.4547C43.0582 75.373 44.2545 75.2709 44.9276 75.2627C44.9324 75.2627 44.9375 75.2627 44.9423 75.2627C45.4202 75.2627 45.8315 75.5537 45.9455 75.9746C46.1349 76.6747 46.1184 77.9995 46.0823 79.4113C46.0703 79.8699 45.6539 80.2396 45.1512 80.2396ZM40.9219 75.8299C40.7776 75.8399 40.6457 75.9038 40.5605 76.0055C40.4901 76.0893 40.4571 76.192 40.4677 76.2951L40.7873 79.3446C40.8216 79.6724 41.1322 79.9221 41.5094 79.9256L45.144 79.9606C45.1464 79.9606 45.1488 79.9606 45.1512 79.9606C45.5034 79.9606 45.7951 79.7126 45.803 79.4044C45.8384 78.0143 45.8555 76.7115 45.6759 76.0474C45.5955 75.7502 45.2814 75.5362 44.931 75.542C44.2679 75.5503 43.0771 75.6516 42.1206 75.733C41.663 75.7722 41.2305 75.809 40.9219 75.8299Z" fill="white"/>
<path opacity="0.6" d="M41.3129 76.1447C42.0763 76.0924 43.7357 75.9241 44.5228 75.9141C44.8564 75.91 45.1488 76.1113 45.2272 76.4006C45.379 76.9623 45.3591 78.0817 45.3326 79.1151C45.3247 79.4247 45.0406 79.6717 44.6936 79.6683L41.7891 79.6404C41.4318 79.637 41.1353 79.3934 41.1023 79.0763L40.847 76.6394C40.8202 76.3872 41.0302 76.1642 41.3129 76.1447Z" fill="white"/>
<g opacity="0.6">
<path opacity="0.6" d="M48.3438 78.2148C48.449 78.6137 48.8114 78.8906 49.2241 78.8871L82.8516 78.6003C83.2319 78.5972 83.5363 78.2831 83.5281 77.9028C83.5198 77.5331 83.2189 77.237 82.8488 77.2353L49.2203 77.082C48.6269 77.0796 48.1923 77.641 48.3438 78.2148Z" fill="white"/>
</g>
<path d="M41.4676 76.623C41.7373 76.4646 42.0846 76.5591 42.2371 76.8322L42.9542 78.1172C43.026 78.2457 43.2136 78.2377 43.274 78.1034L45.052 74.1449C45.1406 73.9473 45.4347 74.0143 45.4316 74.2307C45.4134 75.4415 45.0922 77.743 43.1576 79.6697C43.1576 79.6697 42.0915 79.2554 41.2329 77.3699C41.1082 77.0978 41.2092 76.7745 41.4676 76.623Z" fill="#FF6C0E"/>
<path d="M45.1512 88.0286C45.1478 88.0286 45.1447 88.0286 45.1413 88.0286L41.5067 87.9936C40.9876 87.9888 40.5588 87.6315 40.5097 87.1629L40.1901 84.1134C40.1712 83.9344 40.2269 83.7574 40.3468 83.6149C40.4808 83.4554 40.6835 83.3555 40.9027 83.3403C41.2088 83.3194 41.64 83.2826 42.0966 83.2438C43.0579 83.162 44.2542 83.06 44.9272 83.0518C44.932 83.0518 44.9372 83.0518 44.942 83.0518C45.4199 83.0518 45.8311 83.3428 45.9452 83.7636C46.1345 84.4638 46.118 85.7886 46.0819 87.2003C46.0703 87.659 45.6539 88.0286 45.1512 88.0286ZM40.9219 83.619C40.7776 83.6289 40.6457 83.6928 40.5605 83.7945C40.4901 83.8784 40.4571 83.9811 40.4677 84.0842L40.7873 87.1337C40.8216 87.4614 41.1322 87.7112 41.5094 87.7146L45.144 87.7497C45.1464 87.7497 45.1488 87.7497 45.1512 87.7497C45.5034 87.7497 45.7951 87.5016 45.803 87.1934C45.8384 85.8034 45.8555 84.5006 45.6759 83.8365C45.5955 83.5393 45.2814 83.3242 44.931 83.3307C44.2679 83.339 43.0771 83.4403 42.1206 83.5218C41.663 83.5609 41.2305 83.5977 40.9219 83.619Z" fill="white"/>
<path opacity="0.6" d="M41.3129 83.9337C42.0763 83.8815 43.7357 83.7132 44.5228 83.7032C44.8564 83.6991 45.1488 83.9004 45.2272 84.1897C45.379 84.7514 45.3591 85.8707 45.3326 86.9042C45.3247 87.2137 45.0406 87.4608 44.6936 87.4573L41.7891 87.4295C41.4318 87.4261 41.1353 87.1825 41.1023 86.8654L40.847 84.4284C40.8202 84.1763 41.0302 83.953 41.3129 83.9337Z" fill="white"/>
<g opacity="0.6">
<path opacity="0.6" d="M48.3438 86.0038C48.449 86.4027 48.8114 86.6796 49.2241 86.6762L82.8516 86.3893C83.2319 86.3862 83.5363 86.0725 83.5281 85.6919C83.5198 85.3222 83.2189 85.026 82.8488 85.0243L49.2203 84.8711C48.6269 84.8687 48.1923 85.4297 48.3438 86.0038Z" fill="white"/>
</g>
<path d="M41.4676 84.4121C41.7373 84.2537 42.0846 84.3482 42.2371 84.6213L42.9542 85.9062C43.026 86.0347 43.2136 86.0268 43.274 85.8925L45.052 81.9339C45.1406 81.7364 45.4347 81.8034 45.4316 82.0198C45.4134 83.2305 45.0922 85.5321 43.1576 87.4588C43.1576 87.4588 42.0915 87.0445 41.2329 85.159C41.1082 84.8865 41.2092 84.5636 41.4676 84.4121Z" fill="url(#paint3_linear_445_1250)"/>
<path d="M45.1512 95.8187C45.1478 95.8187 45.1447 95.8187 45.1413 95.8187L41.5067 95.7836C40.9876 95.7788 40.5588 95.4215 40.5097 94.9529L40.1901 91.9034C40.1712 91.7244 40.2269 91.5475 40.3468 91.4049C40.4808 91.2455 40.6835 91.1455 40.9027 91.1304C41.2088 91.1094 41.64 91.0727 42.0966 91.0338C43.0579 90.9521 44.2542 90.85 44.9272 90.8418C44.932 90.8418 44.9372 90.8418 44.942 90.8418C45.4199 90.8418 45.8311 91.1328 45.9452 91.5537C46.1345 92.2535 46.118 93.5786 46.0819 94.9904C46.0703 95.4494 45.6539 95.8187 45.1512 95.8187ZM40.9219 91.4094C40.7776 91.4193 40.6457 91.4832 40.5605 91.5849C40.4901 91.6688 40.4571 91.7715 40.4677 91.8745L40.7873 94.924C40.8216 95.2515 41.1322 95.5016 41.5094 95.505L45.144 95.5401C45.1464 95.5401 45.1488 95.5401 45.1512 95.5401C45.5034 95.5401 45.7951 95.292 45.803 94.9838C45.8384 93.5938 45.8555 92.291 45.6759 91.6268C45.5955 91.3297 45.2814 91.1136 44.931 91.1211C44.2679 91.1294 43.0771 91.2307 42.1206 91.3121C41.663 91.3513 41.2305 91.3881 40.9219 91.4094Z" fill="white"/>
<path opacity="0.6" d="M41.3129 91.7238C42.0763 91.6715 43.7357 91.5032 44.5228 91.4932C44.8564 91.4891 45.1488 91.6904 45.2272 91.9797C45.379 92.5414 45.3591 93.6608 45.3326 94.6942C45.3247 95.0038 45.0406 95.2508 44.6936 95.2474L41.7891 95.2195C41.4318 95.2161 41.1353 94.9725 41.1023 94.6554L40.847 92.2185C40.8202 91.9663 41.0302 91.743 41.3129 91.7238Z" fill="white"/>
<g opacity="0.6">
<path opacity="0.6" d="M48.3438 93.7926C48.449 94.1914 48.8114 94.4684 49.2241 94.4649L82.8516 94.1784C83.2319 94.1753 83.5363 93.8613 83.5281 93.4809C83.5198 93.1113 83.2189 92.8151 82.8488 92.8134L49.2203 92.6602C48.6269 92.6571 48.1923 93.2185 48.3438 93.7926Z" fill="white"/>
</g>
<path d="M44.6473 64.8265C44.6439 64.8265 44.6408 64.8265 44.6374 64.8265L41.0028 64.7915C40.4836 64.7866 40.0549 64.4293 40.0057 63.9607L39.6862 60.9112C39.6673 60.7322 39.723 60.5553 39.8429 60.4127C39.9769 60.2533 40.1796 60.1533 40.3988 60.1382C40.7049 60.1172 41.1361 60.0805 41.5927 60.0417C42.554 59.9599 43.7503 59.8579 44.4233 59.8496C44.4281 59.8496 44.4333 59.8496 44.4381 59.8496C44.916 59.8496 45.3272 60.1406 45.4413 60.5615C45.6306 61.2613 45.6141 62.5865 45.578 63.9982C45.5664 64.4572 45.15 64.8265 44.6473 64.8265ZM40.418 60.4172C40.2737 60.4271 40.1418 60.491 40.0566 60.5927C39.9862 60.6766 39.9532 60.7793 39.9638 60.8824L40.2833 63.9319C40.3177 64.2596 40.6283 64.5094 41.0055 64.5128L44.6401 64.5479C44.6425 64.5479 44.6449 64.5479 44.6473 64.5479C44.9995 64.5479 45.2912 64.2998 45.2991 63.9916C45.3344 62.6016 45.3516 61.2988 45.1719 60.6347C45.0916 60.3375 44.7775 60.1214 44.4271 60.1289C43.764 60.1372 42.5732 60.2385 41.6167 60.3199C41.1591 60.3591 40.7265 60.3959 40.418 60.4172Z" fill="white"/>
<path opacity="0.6" d="M40.8089 60.7316C41.5724 60.6793 43.2318 60.511 44.0189 60.501C44.3525 60.4969 44.6449 60.6982 44.7232 60.9875C44.875 61.5493 44.8551 62.6686 44.8287 63.702C44.8208 64.0116 44.5366 64.2586 44.1896 64.2552L41.2851 64.2274C40.9278 64.2239 40.6313 63.9803 40.5983 63.6632L40.3431 61.2263C40.3166 60.9741 40.5262 60.7508 40.8089 60.7316Z" fill="white"/>
<g opacity="0.6">
<path opacity="0.6" d="M47.8399 62.8017C47.9451 63.2006 48.3075 63.4775 48.7202 63.4741L82.3477 63.1875C82.728 63.1844 83.0324 62.8704 83.0242 62.4901C83.0159 62.1204 82.715 61.8242 82.3449 61.8225L48.7167 61.669C48.123 61.6662 47.6884 62.2276 47.8399 62.8017Z" fill="white"/>
</g>
<path d="M40.9634 61.2099C41.2331 61.0515 41.5805 61.146 41.733 61.4191L42.4501 62.7041C42.5219 62.8326 42.7094 62.8247 42.7699 62.6903L44.5479 58.7318C44.6365 58.5342 44.9306 58.6012 44.9275 58.8177C44.9093 60.0284 44.5881 62.3299 42.6534 64.2566C42.6534 64.2566 41.5874 63.8423 40.7288 61.9568C40.6044 61.6844 40.7054 61.3614 40.9634 61.2099Z" fill="#FF6C0E"/>
<path d="M62.6376 11.8693C60.7968 10.5884 59.1958 10.6139 58.0689 10.9464C57.0409 11.2498 56.3748 12.242 56.4723 13.3095L56.9585 18.6138L62.7414 19.1271C62.741 19.1271 66.2478 14.3811 62.6376 11.8693ZM60.0946 16.1487C59.2982 16.1487 58.6526 15.5032 58.6526 14.7068C58.6526 13.9104 59.2982 13.2648 60.0946 13.2648C60.8909 13.2648 61.5365 13.9104 61.5365 14.7068C61.5365 15.5032 60.8909 16.1487 60.0946 16.1487Z" fill="url(#paint4_linear_445_1250)"/>
<path d="M57.5358 16.3831C57.4643 16.3831 57.4035 16.3288 57.397 16.2563L57.3197 15.4115C57.3125 15.3348 57.3691 15.2668 57.4458 15.2599C57.5241 15.2527 57.5904 15.3094 57.5973 15.3864L57.6746 16.2312C57.6818 16.3078 57.6251 16.3758 57.5485 16.3827C57.5444 16.3831 57.5402 16.3831 57.5358 16.3831ZM57.3843 14.7278C57.3128 14.7278 57.252 14.6735 57.2455 14.601L57.1867 13.9595C57.0936 12.9429 57.7333 11.9961 58.7077 11.7085C59.3979 11.5048 60.1091 11.4756 60.8213 11.6216C60.8969 11.637 60.9453 11.7109 60.9299 11.7865C60.9144 11.8617 60.8412 11.9102 60.7653 11.8951C60.0981 11.7587 59.4326 11.7855 58.7867 11.9761C57.9395 12.2263 57.3836 13.0498 57.4647 13.9341L57.5234 14.5756C57.5306 14.6522 57.4739 14.7202 57.3973 14.7271C57.3929 14.7278 57.3884 14.7278 57.3843 14.7278Z" fill="#91B3FA"/>
<path d="M49.0654 22.0412V19.3745C49.0654 18.4541 49.8285 17.7164 50.7486 17.748L69.1352 18.3781C69.9511 18.406 70.6118 19.0502 70.6609 19.8651L70.8145 22.4274L49.0654 22.0412Z" fill="url(#paint5_linear_445_1250)"/>
<path d="M55.9222 18.7536H55.1317C55.0547 18.7536 54.9922 18.6911 54.9922 18.6141C54.9922 18.5368 55.0547 18.4746 55.1317 18.4746H55.9222C55.9992 18.4746 56.0617 18.5371 56.0617 18.6141C56.0617 18.6911 55.9992 18.7536 55.9222 18.7536Z" fill="#91B3FA"/>
<path d="M50.0614 21.2046C49.9844 21.2046 49.9219 21.1421 49.9219 21.0651V19.9863C49.9219 19.1528 50.6001 18.4746 51.4336 18.4746H54.3405C54.4174 18.4746 54.48 18.5371 54.48 18.6141C54.48 18.6911 54.4174 18.7536 54.3405 18.7536H51.4336C50.754 18.7536 50.2009 19.3067 50.2009 19.9863V21.0651C50.2009 21.1421 50.1383 21.2046 50.0614 21.2046Z" fill="#91B3FA"/>
<path d="M41.5737 22.7149C41.618 21.7914 42.3797 21.0655 43.3042 21.0655L75.4565 21.0645C76.6126 21.0645 77.601 21.8962 77.7982 23.0355L77.8253 23.1928C78.0414 24.4407 77.0808 25.582 75.8144 25.582H42.828C42.0701 25.582 41.4661 24.9485 41.5025 24.1912L41.5737 22.7149Z" fill="#7D97F4"/>
<path d="M64 27.3939L81.9385 64L105 12L81.0461 38.912L64 27.3939Z" fill="#FF6C0E"/>
<defs>
<linearGradient id="paint0_linear_445_1250" x1="114.258" y1="1.33421" x2="23.7788" y2="104.696" gradientUnits="userSpaceOnUse">
<stop stop-color="#DAE3FE"/>
<stop offset="1" stop-color="#E9EFFD"/>
</linearGradient>
<linearGradient id="paint1_linear_445_1250" x1="88.4614" y1="80.8501" x2="101.072" y2="83.069" gradientUnits="userSpaceOnUse">
<stop stop-color="#DAE3FE"/>
<stop offset="1" stop-color="#E9EFFD"/>
</linearGradient>
<linearGradient id="paint2_linear_445_1250" x1="60.9782" y1="101.037" x2="56.2907" y2="-37.7145" gradientUnits="userSpaceOnUse">
<stop stop-color="#09005D"/>
<stop offset="1" stop-color="#1A0F91"/>
</linearGradient>
<linearGradient id="paint3_linear_445_1250" x1="58.3936" y1="63.5615" x2="33.9741" y2="97.6093" gradientUnits="userSpaceOnUse">
<stop stop-color="#E1473D"/>
<stop offset="1" stop-color="#E9605A"/>
</linearGradient>
<linearGradient id="paint4_linear_445_1250" x1="68.3237" y1="4.26173" x2="44.8811" y2="35.1" gradientUnits="userSpaceOnUse">
<stop stop-color="#09005D"/>
<stop offset="1" stop-color="#1A0F91"/>
</linearGradient>
<linearGradient id="paint5_linear_445_1250" x1="70.8945" y1="6.21614" x2="47.4519" y2="37.0544" gradientUnits="userSpaceOnUse">
<stop stop-color="#09005D"/>
<stop offset="1" stop-color="#1A0F91"/>
</linearGradient>
</defs>
</svg>
