<svg width="32"
    height="36"
    viewBox="0 0 32 36"
    fill="none"
    xmlns="http://www.w3.org/2000/svg">
    <g filter="url(#filter0_d_4211_51902)">
        <circle cx="16"
            cy="16"
            r="12"
            fill="#0F172A"/>
        <path fill-rule="evenodd"
            clip-rule="evenodd"
            d="M28 16C28 22.6274 22.6274 28 16 28C9.37258 28 4 22.6274 4 16C4 9.37258 9.37258 4 16 4C22.6274 4 28 9.37258 28 16ZM10.3134 21.6869C10.1182 21.4916 10.1182 21.175 10.3134 20.9798L15.2929 16.0003L10.3128 11.0202C10.1175 10.8249 10.1175 10.5084 10.3128 10.3131C10.508 10.1178 10.8246 10.1178 11.0199 10.3131L16 15.2932L20.9801 10.3131C21.1754 10.1178 21.492 10.1178 21.6872 10.3131C21.8825 10.5084 21.8825 10.8249 21.6872 11.0202L16.7071 16.0003L21.6866 20.9798C21.8818 21.175 21.8818 21.4916 21.6866 21.6869C21.4913 21.8821 21.1747 21.8821 20.9795 21.6869L16 16.7074L11.0205 21.6869C10.8253 21.8821 10.5087 21.8821 10.3134 21.6869Z"
            fill="white"/>
    </g>
    <defs>
        <filter id="filter0_d_4211_51902"
            x="-4"
            y="0"
            width="40"
            height="40"
            filterUnits="userSpaceOnUse"
            color-interpolation-filters="sRGB">
            <feFlood flood-opacity="0"
                result="BackgroundImageFix"/>
            <feColorMatrix in="SourceAlpha"
                type="matrix"
                values="0 0 0 0 0 0 0 0 0 0 0 0 0 0 0 0 0 0 127 0"
                result="hardAlpha"/>
            <feOffset dy="4"/>
            <feGaussianBlur stdDeviation="2"/>
            <feComposite in2="hardAlpha"
                operator="out"/>
            <feColorMatrix type="matrix"
                values="0 0 0 0 0 0 0 0 0 0 0 0 0 0 0 0 0 0 0.1 0"/>
            <feBlend mode="normal"
                in2="BackgroundImageFix"
                result="effect1_dropShadow_4211_51902"/>
            <feBlend mode="normal"
                in="SourceGraphic"
                in2="effect1_dropShadow_4211_51902"
                result="shape"/>
        </filter>
    </defs>
</svg>
