<svg width="43" height="24" viewBox="0 0 43 24" fill="none" xmlns="http://www.w3.org/2000/svg">
<circle cx="17.6056" cy="7.10529" r="5.5" transform="rotate(0.550129 17.6056 7.10529)" fill="#FF6C0E" stroke="white" stroke-width="0.5"/>
<path d="M15.7606 8.26904C15.7541 8.954 16.1724 9.68557 16.847 9.69205L18.3136 9.70613C18.9003 9.71176 19.418 9.25754 19.4238 8.65732C19.4299 8.01473 19.1319 7.74351 18.7006 7.59107L16.5075 6.8638C16.0763 6.71136 15.7781 6.4472 15.7844 5.79755C15.7901 5.20439 16.3079 4.74327 16.8945 4.7489L18.3612 4.75609C19.0358 4.76257 19.4575 5.1478 19.4509 5.83276" stroke="white" stroke-width="0.8" stroke-linecap="round" stroke-linejoin="round"/>
<path d="M17.6344 4.0498L17.5734 10.4051" stroke="white" stroke-width="0.8" stroke-linecap="round" stroke-linejoin="round"/>
<circle cx="23.5174" cy="7.01705" r="4.51981" transform="rotate(20.87 23.5174 7.01705)" fill="#FF6C0E" stroke="white" stroke-width="0.5"/>
<path d="M21.7633 7.38743C21.5627 7.91341 21.6763 8.59657 22.1944 8.79409L23.3206 9.22347C23.7711 9.39522 24.2997 9.19292 24.4754 8.73201C24.6636 8.23856 24.5112 7.94449 24.2224 7.70395L22.7399 6.51763C22.451 6.27709 22.2967 5.98843 22.4869 5.48957C22.6605 5.03408 23.1911 4.82648 23.6416 4.99823L24.7698 5.42232C25.2879 5.61983 25.5029 6.03704 25.3024 6.56302" stroke="white" stroke-width="0.8" stroke-linecap="round" stroke-linejoin="round"/>
<path d="M24.4118 4.6709L22.5511 9.55113" stroke="white" stroke-width="0.8" stroke-linecap="round" stroke-linejoin="round"/>
<path d="M10.9778 3.56826C10.8773 3.16642 10.4701 2.9221 10.0683 3.02257C9.66642 3.12305 9.4221 3.53025 9.52257 3.9321L10.5744 8.13907L11.5532 12.2231C11.9694 13.9596 12.297 15.3265 12.6858 16.3884C13.0845 17.4777 13.5735 18.3233 14.3581 18.9718C14.4258 19.0277 14.4948 19.0821 14.565 19.1349C15.3785 19.7468 16.3148 20.0252 17.467 20.1591C18.5902 20.2897 19.9958 20.2897 21.7814 20.2896H22.375C23.92 20.2897 25.1363 20.2897 26.1161 20.1906C27.1197 20.0891 27.9454 19.8785 28.6886 19.4132C29.041 19.1925 29.3686 18.9342 29.6653 18.6429C30.2512 18.0677 30.6373 17.3692 30.9572 16.5002H26.2503C25.8361 16.5002 25.5003 16.1644 25.5003 15.7502C25.5003 15.336 25.8361 15.0002 26.2503 15.0002H31.4201C31.5423 14.5457 31.6661 14.047 31.7985 13.5002L23.2503 13.5002C22.8361 13.5002 22.5003 13.1644 22.5003 12.7502C22.5003 12.336 22.8361 12.0002 23.2503 12.0002L32.1576 12.0002C32.3062 11.3669 32.4226 10.8236 32.4753 10.3627C32.5471 9.73492 32.5178 9.13716 32.2044 8.59137C32.0704 8.35794 31.9028 8.14544 31.707 7.96069C31.2493 7.52874 30.6748 7.36094 30.0476 7.28441C29.4432 7.21066 28.6755 7.21068 27.7438 7.2107L11.8885 7.2107L10.9778 3.56826Z" fill="#151940"/>
<path d="M18.6713 23.7502C19.2527 23.7502 19.724 23.2789 19.724 22.6975C19.724 22.1162 19.2527 21.6449 18.6713 21.6449C18.09 21.6449 17.6187 22.1162 17.6187 22.6975C17.6187 23.2789 18.09 23.7502 18.6713 23.7502Z" fill="#151940"/>
<path d="M24.9871 23.7502C25.5685 23.7502 26.0398 23.2789 26.0398 22.6975C26.0398 22.1162 25.5685 21.6449 24.9871 21.6449C24.4058 21.6449 23.9345 22.1162 23.9345 22.6975C23.9345 23.2789 24.4058 23.7502 24.9871 23.7502Z" fill="#151940"/>
</svg>
