<svg width="42" height="42" viewBox="0 0 42 42" fill="none" xmlns="http://www.w3.org/2000/svg">
<path d="M29 15C29 19.4183 25.4183 23 21 23C16.5817 23 13 19.4183 13 15C13 10.5817 16.5817 7 21 7C25.4183 7 29 10.5817 29 15Z" fill="#064DD6"/>
<path d="M41 21C41 26.6718 38.6391 31.7921 34.8464 35.4319C31.2528 38.8805 26.3739 41 21 41C15.6261 41 10.7472 38.8805 7.15363 35.4319C3.36092 31.7921 1 26.6718 1 21C1 9.9543 9.9543 1 21 1C32.0457 1 41 9.9543 41 21Z" fill="#064DD6"/>
<path d="M28.25 15C28.25 19.0041 25.0041 22.25 21 22.25V23.75C25.8325 23.75 29.75 19.8325 29.75 15H28.25ZM21 22.25C16.9959 22.25 13.75 19.0041 13.75 15H12.25C12.25 19.8325 16.1675 23.75 21 23.75V22.25ZM13.75 15C13.75 10.9959 16.9959 7.75 21 7.75V6.25C16.1675 6.25 12.25 10.1675 12.25 15H13.75ZM21 7.75C25.0041 7.75 28.25 10.9959 28.25 15H29.75C29.75 10.1675 25.8325 6.25 21 6.25V7.75ZM15 29.75H27V28.25H15V29.75ZM1.75 21C1.75 10.3685 10.3685 1.75 21 1.75V0.25C9.54009 0.25 0.25 9.54009 0.25 21H1.75ZM21 1.75C31.6315 1.75 40.25 10.3685 40.25 21H41.75C41.75 9.54009 32.4599 0.25 21 0.25V1.75ZM40.25 21C40.25 26.4592 37.9785 31.3865 34.3271 34.8907L35.3657 35.973C39.2996 32.1977 41.75 26.8843 41.75 21H40.25ZM34.3271 34.8907C30.8676 38.2107 26.1727 40.25 21 40.25V41.75C26.5751 41.75 31.6381 39.5503 35.3657 35.973L34.3271 34.8907ZM27 29.75C30.5168 29.75 33.4503 32.2548 34.1108 35.5781L35.582 35.2857C34.7847 31.2741 31.2463 28.25 27 28.25V29.75ZM21 40.25C15.8273 40.25 11.1324 38.2107 7.67293 34.8907L6.63432 35.973C10.3619 39.5503 15.4249 41.75 21 41.75V40.25ZM7.67293 34.8907C4.0215 31.3865 1.75 26.4592 1.75 21H0.25C0.25 26.8843 2.70035 32.1977 6.63432 35.973L7.67293 34.8907ZM15 28.25C10.7537 28.25 7.21528 31.2741 6.41801 35.2857L7.88924 35.5781C8.54971 32.2548 11.4832 29.75 15 29.75V28.25Z" fill="white"/>
<path d="M26.6332 29H15.3668C11.7224 29 8.68431 31.5341 8 34.8959C11.3739 38.0571 15.9546 40 21 40C26.0454 40 30.6261 38.0571 34 34.8959C33.3157 31.5341 30.2776 29 26.6332 29Z" fill="white"/>
<path d="M34 34.8959L34.5128 35.4432L34.8185 35.1568L34.7349 34.7463L34 34.8959ZM8 34.8959L7.26507 34.7463L7.18152 35.1568L7.4872 35.4432L8 34.8959ZM15.3668 29.75H26.6332V28.25H15.3668V29.75ZM33.4872 34.3486C30.2485 37.3832 25.8499 39.25 21 39.25V40.75C26.241 40.75 31.0037 38.7311 34.5128 35.4432L33.4872 34.3486ZM26.6332 29.75C29.9263 29.75 32.6529 32.0382 33.2651 35.0455L34.7349 34.7463C33.9785 31.0299 30.6288 28.25 26.6332 28.25V29.75ZM21 39.25C16.1501 39.25 11.7515 37.3832 8.5128 34.3486L7.4872 35.4432C10.9963 38.7311 15.759 40.75 21 40.75V39.25ZM15.3668 28.25C11.3712 28.25 8.02155 31.0299 7.26507 34.7463L8.73493 35.0455C9.34708 32.0382 12.0737 29.75 15.3668 29.75V28.25Z" fill="white"/>
<path d="M28.9999 15C28.9999 19.4183 25.4182 23 20.9999 23C16.5817 23 12.9999 19.4183 12.9999 15C12.9999 10.5817 16.5817 7 20.9999 7C25.4182 7 28.9999 10.5817 28.9999 15Z" fill="white"/>
<path d="M28.2499 15C28.2499 19.0041 25.004 22.25 20.9999 22.25V23.75C25.8324 23.75 29.7499 19.8325 29.7499 15H28.2499ZM20.9999 22.25C16.9959 22.25 13.7499 19.0041 13.7499 15H12.2499C12.2499 19.8325 16.1674 23.75 20.9999 23.75V22.25ZM13.7499 15C13.7499 10.9959 16.9959 7.75 20.9999 7.75V6.25C16.1674 6.25 12.2499 10.1675 12.2499 15H13.7499ZM20.9999 7.75C25.004 7.75 28.2499 10.9959 28.2499 15H29.7499C29.7499 10.1675 25.8324 6.25 20.9999 6.25V7.75Z" fill="white"/>
</svg>
