<svg width="21"
    height="21"
    viewBox="0 0 21 21"
    fill="none"
    xmlns="http://www.w3.org/2000/svg">
    <path d="M10.5 21C4.70791 21 0 16.2921 0 10.5C0 4.70791 4.70791 0 10.5 0C16.2921 0 21 4.70791 21 10.5C21 16.2921 16.2921 21 10.5 21ZM10.5 1.46512C5.5186 1.46512 1.46512 5.5186 1.46512 10.5C1.46512 15.4814 5.5186 19.5349 10.5 19.5349C15.4814 19.5349 19.5349 15.4814 19.5349 10.5C19.5349 5.5186 15.4814 1.46512 10.5 1.46512Z"
        fill="#FF0000"/>
    <path d="M7.7475 14.1575C7.5575 14.1575 7.3675 14.0875 7.2175 13.9375C6.9275 13.6475 6.9275 13.1675 7.2175 12.8775L12.8775 7.2175C13.1675 6.9275 13.6475 6.9275 13.9375 7.2175C14.2275 7.5075 14.2275 7.9875 13.9375 8.2775L8.2775 13.9375C8.1375 14.0875 7.9375 14.1575 7.7475 14.1575Z"
        fill="#FF0000"/>
    <path d="M13.4075 14.1575C13.2175 14.1575 13.0275 14.0875 12.8775 13.9375L7.2175 8.2775C6.9275 7.9875 6.9275 7.5075 7.2175 7.2175C7.5075 6.9275 7.9875 6.9275 8.2775 7.2175L13.9375 12.8775C14.2275 13.1675 14.2275 13.6475 13.9375 13.9375C13.7875 14.0875 13.5975 14.1575 13.4075 14.1575Z"
        fill="#FF0000"/>
</svg>
