<svg width="16" height="16" viewBox="0 0 16 16" fill="none" xmlns="http://www.w3.org/2000/svg">
<path d="M16 7.99976C16 8.82861 14.582 9.41256 14.3502 10.1605C14.1097 10.9357 14.9208 12.2794 14.4723 12.9244C14.0196 13.5761 12.5458 13.1811 11.9235 13.6554C11.3073 14.1249 11.2133 15.7172 10.4733 15.9681C9.75911 16.2109 8.79234 14.9884 7.99998 14.9884C7.20761 14.9884 6.24172 16.2109 5.52667 15.9681C4.78647 15.7162 4.69239 14.124 4.07627 13.6554C3.45419 13.1813 1.98039 13.5763 1.52745 12.9246C1.07917 12.2794 1.89005 10.9357 1.64978 10.1607C1.41795 9.4128 0 8.82886 0 8C0 7.17114 1.41795 6.5872 1.64982 5.83927C1.89009 5.06427 1.07922 3.7206 1.52749 3.0754C1.98043 2.42368 3.45424 2.8187 4.07655 2.34459C4.69244 1.87512 4.78652 0.28258 5.52672 0.0319174C6.24089 -0.210914 7.20766 1.01156 8.00002 1.01156C8.79234 1.01156 9.75828 -0.210914 10.4733 0.0319174C11.2133 0.283547 11.3076 1.87604 11.9235 2.34459C12.5458 2.81894 14.0196 2.42392 14.4726 3.0754C14.9208 3.72065 14.1097 5.06432 14.3502 5.83927C14.582 6.58691 16 7.17085 16 7.99976Z" fill="#FD7918"/>
<path d="M5.61836 8.60245C6.61836 8.60245 7.23188 7.9115 7.23188 6.80123V6.79646C7.23188 5.69095 6.61836 5 5.61836 5C4.61353 5 4 5.69095 4 6.79646V6.80123C4 7.9115 4.61353 8.60245 5.61836 8.60245ZM6.33816 11.9381L10.7391 5.06195H9.66667L5.26087 11.9381H6.33816ZM5.61836 7.81144C5.22705 7.81144 5.00966 7.45405 5.00966 6.80123V6.79646C5.00966 6.1484 5.22705 5.79101 5.61836 5.79101C6.00483 5.79101 6.21739 6.1484 6.21739 6.79646V6.80123C6.21739 7.45405 6.00483 7.81144 5.61836 7.81144ZM10.3865 12C11.3865 12 12 11.3091 12 10.1988V10.194C12 9.0885 11.3865 8.39755 10.3865 8.39755C9.38164 8.39755 8.76812 9.0885 8.76812 10.194V10.1988C8.76812 11.3091 9.38164 12 10.3865 12ZM10.3865 11.209C9.99517 11.209 9.77778 10.8516 9.77778 10.1988V10.194C9.77778 9.54595 9.99517 9.18856 10.3865 9.18856C10.7729 9.18856 10.9855 9.54595 10.9855 10.194V10.1988C10.9855 10.8516 10.7729 11.209 10.3865 11.209Z" fill="white"/>
</svg>
