<svg width="24"
    height="24"
    viewBox="0 0 24 24"
    fill="none"
    xmlns="http://www.w3.org/2000/svg">
    <path fill-rule="evenodd"
        clip-rule="evenodd"
        d="M4.99988 3.37012C4.48074 3.37012 4.00383 3.65613 3.75934 4.11409C3.51486 4.57205 3.54256 5.12746 3.83142 5.55882L9.43799 13.9313V21.7764C9.43799 22.2836 9.7111 22.7515 10.1527 23.0009C10.5944 23.2503 11.1361 23.2425 11.5704 22.9806L13.8826 21.5862C14.3047 21.3317 14.5627 20.8749 14.5627 20.382V13.9322L20.1684 5.55867C20.4572 5.12731 20.4849 4.57193 20.2404 4.11401C19.9959 3.6561 19.519 3.37012 18.9999 3.37012H4.99988ZM12.0007 12.7035L7.63399 6.18262H16.3662L12.0007 12.7035Z"
        fill="#FFF4F4"/>
</svg>
