<svg width="187" height="215" viewBox="0 0 187 215" fill="none" xmlns="http://www.w3.org/2000/svg">
<g clip-path="url(#clip0_1_3517)">
<path d="M137.665 80.1472C137.767 80.0288 137.851 79.9274 137.953 79.809C138.122 79.5892 138.292 79.3694 138.444 79.1496C138.562 78.9805 138.681 78.8283 138.782 78.6592C138.901 78.4732 139.003 78.3042 139.104 78.1182C139.24 77.8814 139.358 77.6616 139.493 77.4249C139.561 77.2896 139.629 77.1713 139.68 77.036C139.815 76.7486 139.95 76.4442 140.069 76.1398C140.103 76.0553 140.137 75.9708 140.154 75.8862C140.272 75.548 140.391 75.193 140.492 74.8379C140.509 74.7871 140.526 74.7195 140.543 74.6688C140.645 74.2968 140.729 73.9248 140.797 73.5359C140.814 73.4683 140.814 73.4175 140.831 73.3499C140.882 72.9779 140.932 72.6059 140.966 72.2339C140.966 72.1494 140.966 72.0648 140.983 71.9634C141 71.7098 141.017 71.4561 141.017 71.1856C141.017 71.0841 141 70.9827 141 70.8982C141 70.7967 140.983 70.6952 140.983 70.5938C140.966 70.2387 140.949 69.8836 140.898 69.5285C140.882 69.444 140.882 69.3764 140.865 69.2918C140.814 68.9198 140.746 68.5478 140.678 68.1758C140.661 68.1251 140.645 68.0744 140.645 68.0237C140.56 67.6348 140.441 67.2459 140.323 66.857C140.306 66.8063 140.289 66.7555 140.272 66.7217C140.137 66.3328 139.984 65.9608 139.832 65.5888C139.798 65.5381 139.781 65.4705 139.747 65.4197C139.578 65.0647 139.409 64.7096 139.206 64.3714C139.189 64.3545 139.189 64.3207 139.172 64.3038L105.993 6.89875C105.959 6.83111 105.892 6.76348 105.858 6.69584C105.773 6.56057 105.672 6.4253 105.587 6.27313C105.435 6.0364 105.265 5.78277 105.096 5.56296C104.995 5.42769 104.893 5.29242 104.775 5.17406C104.588 4.95425 104.419 4.73443 104.233 4.51462C104.114 4.39626 103.996 4.2779 103.877 4.14263C103.674 3.93973 103.488 3.73682 103.268 3.55083C103.149 3.43246 102.997 3.33101 102.862 3.21265C102.642 3.02666 102.439 2.85757 102.202 2.68848C102.049 2.58703 101.897 2.48558 101.744 2.36722C101.524 2.21504 101.304 2.06286 101.067 1.92759C101.017 1.89377 100.966 1.85996 100.915 1.82614C100.78 1.7585 100.627 1.69087 100.492 1.62323C100.289 1.52178 100.102 1.40342 99.8824 1.31888C99.6285 1.20052 99.3915 1.09907 99.1376 0.997613C98.9852 0.929978 98.8329 0.879252 98.6636 0.811617C98.3758 0.710165 98.0881 0.625622 97.8003 0.541078C97.6649 0.507261 97.5294 0.456535 97.394 0.422717C97.1063 0.355083 96.8015 0.287448 96.5138 0.236722C96.3614 0.202904 96.2091 0.185996 96.0567 0.152178C95.7859 0.118361 95.515 0.0845435 95.2442 0.0507261C95.058 0.0338174 94.8718 0.0169087 94.6686 0C94.4655 0 94.2285 0 94.0085 0C93.7715 0 93.5345 0 93.2975 0.0169087C93.1113 0.0338174 92.942 0.0338174 92.7558 0.0507261C92.468 0.0676348 92.1972 0.101452 91.9094 0.152178C91.774 0.169087 91.6216 0.202904 91.4862 0.219813C91.1815 0.270539 90.8768 0.338174 90.5721 0.422717C90.4367 0.456535 90.3182 0.490352 90.1828 0.52417C89.895 0.608713 89.5903 0.693256 89.3025 0.811617C89.1502 0.862343 88.9978 0.929978 88.8455 0.980704C88.5916 1.08216 88.3377 1.18361 88.0837 1.30197C87.8806 1.40342 87.6944 1.50487 87.4913 1.60633C87.3558 1.69087 87.2035 1.7585 87.0681 1.84305C87.0173 1.87687 86.9665 1.91068 86.9157 1.9445C86.6787 2.07977 86.4587 2.23195 86.2386 2.38413C86.0863 2.48558 85.9339 2.58703 85.7816 2.68848C85.5615 2.85757 85.3414 3.02666 85.1214 3.21265C84.986 3.33101 84.8505 3.43246 84.7151 3.55083C84.512 3.73682 84.3088 3.93973 84.1057 4.14263C83.9872 4.26099 83.8687 4.37935 83.7502 4.51462C83.564 4.71753 83.3778 4.93734 83.2085 5.17406C83.107 5.30933 82.9885 5.42769 82.8869 5.57987C82.7176 5.81659 82.5653 6.05331 82.396 6.29003C82.3114 6.4253 82.2098 6.56057 82.1252 6.71275C82.0913 6.76348 82.0405 6.83111 81.9897 6.89875L48.8451 64.253C48.7943 64.3207 48.7774 64.4052 48.7266 64.4728C48.6589 64.5912 48.5912 64.7265 48.5404 64.8448C48.405 65.1154 48.2527 65.4028 48.1342 65.6903C48.0834 65.8086 48.0495 65.927 47.9987 66.0284C47.8802 66.3328 47.7618 66.6541 47.6602 66.9584C47.6263 67.0599 47.6094 67.1613 47.5755 67.2628C47.474 67.601 47.3893 67.9391 47.3047 68.2773C47.2878 68.3788 47.2708 68.4633 47.2539 68.5648C47.1862 68.9198 47.1354 69.2749 47.0846 69.63C47.0677 69.7484 47.0677 69.8498 47.0508 69.9682C47.0169 70.3064 47 70.6445 47 70.9827C47 71.0334 47 71.0841 47 71.1349C47 71.2532 47.0169 71.3547 47.0169 71.473C47.0169 71.7436 47.0339 72.031 47.0508 72.3016C47.0677 72.5383 47.1016 72.775 47.1354 73.0117C47.1693 73.2146 47.1862 73.4006 47.2201 73.6035C47.2708 73.891 47.3386 74.1784 47.4063 74.449C47.4232 74.5504 47.4401 74.635 47.474 74.7364C47.4909 74.8041 47.5078 74.8548 47.5248 74.9224C47.6094 75.193 47.694 75.4635 47.7787 75.734C47.8464 75.92 47.9141 76.106 47.9818 76.292C48.0665 76.4949 48.1511 76.6809 48.2357 76.8838C48.3542 77.1375 48.4727 77.3911 48.5912 77.6278C48.642 77.7293 48.7097 77.8307 48.7605 77.9322C48.9467 78.2534 49.1329 78.5747 49.336 78.8791C49.353 78.896 49.353 78.9129 49.3699 78.9298C50.521 80.6545 52.0614 82.0917 53.8896 83.157C53.9742 83.2077 54.0758 83.2415 54.1605 83.2922C54.4144 83.4275 54.6852 83.5628 54.9561 83.6811C55.3454 83.8671 55.7517 84.0362 56.141 84.1715C56.3949 84.256 56.6488 84.3575 56.9028 84.4251C57.1736 84.5097 57.4275 84.5604 57.6984 84.628C57.9523 84.6956 58.2231 84.7464 58.477 84.7802C58.731 84.8309 58.9849 84.8647 59.2557 84.8985C59.6281 84.9324 60.0005 84.9662 60.373 84.9662C60.5084 84.9662 60.6438 85 60.7792 85C60.7961 85 60.8131 85 60.83 85H127.102C127.119 85 127.136 85 127.153 85C127.272 85 127.39 84.9831 127.509 84.9831C127.915 84.9662 128.304 84.9493 128.693 84.8985C128.93 84.8647 129.151 84.8309 129.388 84.7971C129.692 84.7464 129.997 84.6956 130.285 84.6111C130.505 84.5604 130.742 84.5096 130.962 84.442C131.3 84.3406 131.639 84.2222 131.977 84.1038C132.147 84.0362 132.316 83.9855 132.468 83.9178C132.942 83.7149 133.382 83.4951 133.823 83.2415C133.89 83.2077 133.941 83.1908 134.009 83.157C134.195 83.0555 134.381 82.9202 134.551 82.8019C134.669 82.7173 134.804 82.6497 134.923 82.5652C135.194 82.3792 135.448 82.1932 135.702 81.9903C135.803 81.9226 135.888 81.8381 135.989 81.7704C136.243 81.5506 136.48 81.3308 136.717 81.111C136.802 81.0265 136.887 80.9419 136.971 80.8574C137.259 80.6207 137.462 80.3839 137.665 80.1472ZM136.142 72.3016C136.091 72.6397 136.057 72.9948 135.972 73.3161C135.922 73.5528 135.837 73.7726 135.769 73.9924C135.668 74.3137 135.549 74.635 135.414 74.9562C135.295 75.2099 135.16 75.4297 135.024 75.6664C134.872 75.92 134.737 76.1906 134.551 76.4273C134.364 76.6809 134.161 76.9176 133.958 77.1544C133.789 77.3573 133.619 77.5602 133.416 77.7293C133.179 77.9491 132.925 78.152 132.672 78.3549C132.451 78.524 132.231 78.6931 132.011 78.8283C131.741 78.9974 131.436 79.1496 131.148 79.3018C130.911 79.4201 130.674 79.5216 130.437 79.623C130.115 79.7414 129.794 79.8428 129.455 79.9274C129.218 79.995 128.964 80.0627 128.727 80.0965C128.389 80.1472 128.033 80.181 127.695 80.1979C126.73 80.2487 125.765 80.1979 124.817 79.9443C122.464 79.3187 120.484 77.8138 119.282 75.7171L111.376 62.0549H127.17C130.691 62.0549 133.704 64.0839 135.228 66.9922C135.397 67.3304 135.566 67.6855 135.702 68.0237C135.786 68.2435 135.854 68.4802 135.905 68.7C136.006 69.0382 136.091 69.3764 136.142 69.7315C136.176 69.9851 136.209 70.2556 136.226 70.5093C136.243 70.8474 136.26 71.1856 136.26 71.5238C136.209 71.7943 136.176 72.0479 136.142 72.3016ZM59.2726 80.1134C59.0526 80.0796 58.8325 80.0119 58.6125 79.9612C58.2401 79.8598 57.8846 79.7583 57.546 79.623C57.3429 79.5385 57.1567 79.4539 56.9705 79.3525C56.615 79.1834 56.2764 79.0143 55.9548 78.7945C55.7855 78.6931 55.6501 78.5747 55.4977 78.4563C55.1761 78.2196 54.8545 77.966 54.5667 77.6954C54.4313 77.5771 54.3297 77.4418 54.1943 77.3065C53.9235 77.0191 53.6695 76.7147 53.4495 76.3935C53.3141 76.2075 53.1956 76.0046 53.0771 75.8017C52.9078 75.5142 52.7385 75.2268 52.6031 74.9224C52.4677 74.635 52.3661 74.3475 52.2815 74.0432C52.163 73.8064 52.0783 73.5528 52.0106 73.2823C51.9429 72.9779 51.8921 72.6567 51.8583 72.3523C51.8244 72.0479 51.7736 71.7436 51.7736 71.4392C51.7567 71.1687 51.7906 70.9151 51.7906 70.6445C51.8075 70.2894 51.8413 69.9513 51.8921 69.6131C51.9429 69.3595 51.9937 69.1227 52.0614 68.8691C52.146 68.5478 52.2476 68.2266 52.3661 67.9053C52.4677 67.6517 52.5862 67.415 52.7047 67.1613C54.1943 64.1516 57.2752 62.0549 60.8639 62.0549H76.6575L68.7522 75.7171C67.5334 77.8138 65.5698 79.3187 63.2168 79.9443C62.2689 80.1979 61.304 80.2487 60.356 80.2148C59.9836 80.1979 59.6281 80.1641 59.2726 80.1134ZM86.7464 8.31908C87.0681 7.89636 87.4405 7.50746 87.8467 7.13547C87.9314 7.05092 88.033 6.98329 88.1176 6.89875C88.49 6.57748 88.8963 6.27313 89.3364 6.01949C89.3872 5.98568 89.421 5.95186 89.4718 5.93495C89.9458 5.66441 90.4198 5.46151 90.9107 5.29242C91.063 5.24169 91.1985 5.19097 91.3508 5.14024C91.8417 4.98806 92.3326 4.8697 92.8404 4.80207C92.8912 4.80207 92.942 4.80207 93.0097 4.78516C93.5006 4.73443 93.9746 4.71753 94.4655 4.75134C94.584 4.75134 94.6856 4.76825 94.8041 4.76825C95.8536 4.8697 96.8862 5.14024 97.8511 5.57987C97.9526 5.63059 98.0711 5.68132 98.1727 5.73205C98.4605 5.88423 98.7313 6.07022 99.0191 6.23931C99.2899 6.40839 99.5439 6.59439 99.7978 6.79729C100.018 6.98329 100.221 7.16929 100.424 7.37219C100.644 7.592 100.864 7.81182 101.05 8.04854C101.237 8.26835 101.406 8.52198 101.575 8.77561C103.42 11.5655 103.708 15.2685 101.914 18.3628L94.0254 32.0251L86.137 18.3628C84.275 15.1333 84.6305 11.2274 86.7126 8.40362C86.6957 8.38671 86.7126 8.33599 86.7464 8.31908ZM81.9897 20.747L91.2492 36.7764L79.3829 57.3205H60.8639C59.9498 57.3205 59.0526 57.4219 58.1893 57.591L80.9064 18.2952C81.1772 19.1237 81.5327 19.9523 81.9897 20.747ZM93.9915 41.5108L103.133 57.3205H84.8505L93.9915 41.5108ZM72.8487 78.0843L82.1252 62.0549H105.875L115.151 78.0843C115.608 78.8621 116.133 79.5892 116.709 80.2656H71.2914C71.8669 79.6061 72.3917 78.8791 72.8487 78.0843ZM127.153 57.3205H108.6L96.7169 36.7764L105.976 20.747C106.433 19.9523 106.806 19.1237 107.094 18.2952L129.811 57.591C128.947 57.405 128.05 57.3205 127.153 57.3205Z" fill="white"/>
</g>
<path d="M5.81563 211.118C8.30782 211.118 9.97969 209.876 10.4953 207.649H9.07344C8.66719 209.024 7.47969 209.821 5.82344 209.821C3.59688 209.821 2.18282 208.056 2.18282 205.29C2.18282 202.548 3.6125 200.767 5.81563 200.767C7.425 200.767 8.71407 201.735 9.07344 203.212H10.4953C10.1359 200.962 8.26875 199.47 5.81563 199.47C2.72969 199.47 0.737503 201.751 0.737503 205.29C0.737503 208.86 2.70625 211.118 5.81563 211.118ZM18.9203 202.806H17.5609V207.579C17.5609 208.962 16.7641 209.868 15.4438 209.868C14.1859 209.868 13.5688 209.157 13.5688 207.837V202.806H12.2094V208.079C12.2094 209.923 13.2484 211.071 15.0219 211.071C16.2719 211.071 17.1156 210.548 17.6 209.61H17.6313V210.931H18.9203V202.806ZM15.0297 201.634H16.0844L14.6938 199.29H13.2016L15.0297 201.634ZM20.9859 210.931H22.3453V206.149C22.3453 204.774 23.1813 203.868 24.4625 203.868C25.7125 203.868 26.3297 204.587 26.3297 205.899V210.931H27.6891V205.657C27.6891 203.813 26.6578 202.665 24.8766 202.665C23.6188 202.665 22.7516 203.228 22.2984 204.103H22.2672V202.806H20.9859V210.931ZM33.0281 209.798C31.6297 209.798 30.7156 208.657 30.7156 206.837C30.7156 205.017 31.6297 203.86 33.0281 203.86C34.4422 203.86 35.3875 205.048 35.3875 206.837C35.3875 208.626 34.4422 209.798 33.0281 209.798ZM33.075 213.993C35.3172 213.993 36.7469 212.704 36.7469 210.767V202.806H35.45V204.173H35.4266C34.8875 203.228 33.9344 202.665 32.7859 202.665C30.6844 202.665 29.325 204.29 29.325 206.837C29.325 209.36 30.6844 210.993 32.7547 210.993C33.8953 210.993 34.8563 210.415 35.3563 209.532H35.3875V210.813C35.3875 212.024 34.5359 212.837 33.1297 212.837C32.1141 212.837 31.3094 212.345 31.0438 211.603H29.6453C29.8719 212.985 31.2859 213.993 33.075 213.993ZM46.4406 211.071C48.5188 211.071 49.8938 209.423 49.8938 206.868C49.8938 204.321 48.5109 202.665 46.4641 202.665C45.3156 202.665 44.3703 203.235 43.8625 204.165H43.8313V199.657H42.4719V210.931H43.7688V209.556H43.8C44.3234 210.493 45.2531 211.071 46.4406 211.071ZM46.175 203.86C47.6125 203.86 48.5031 205.024 48.5031 206.868C48.5031 208.728 47.6125 209.876 46.175 209.876C44.8 209.876 43.8234 208.681 43.8234 206.868C43.8234 205.063 44.8 203.86 46.175 203.86ZM54.2563 209.915C53.2797 209.915 52.6313 209.407 52.6313 208.634C52.6313 207.868 53.2563 207.384 54.35 207.313L56.5219 207.181V207.845C56.5219 209.017 55.5375 209.915 54.2563 209.915ZM53.9516 211.071C55.0453 211.071 56.0766 210.462 56.5609 209.532H56.5922V210.931H57.8813V205.313C57.8813 203.696 56.6781 202.665 54.7719 202.665C52.85 202.665 51.6469 203.743 51.5531 205.149H52.8656C53.0375 204.353 53.6938 203.86 54.7406 203.86C55.8656 203.86 56.5219 204.454 56.5219 205.446V206.126L54.1938 206.259C52.3188 206.368 51.2484 207.243 51.2484 208.634C51.2484 210.095 52.3344 211.071 53.9516 211.071ZM54.5688 213.712C55.0453 213.712 55.4203 213.329 55.4203 212.86C55.4203 212.384 55.0453 212.009 54.5688 212.009C54.1 212.009 53.7172 212.384 53.7172 212.86C53.7172 213.329 54.1 213.712 54.5688 213.712ZM59.9078 210.931H61.2672V206.149C61.2672 204.774 62.1031 203.868 63.3844 203.868C64.6344 203.868 65.2516 204.587 65.2516 205.899V210.931H66.6109V205.657C66.6109 203.813 65.5797 202.665 63.7984 202.665C62.5406 202.665 61.6734 203.228 61.2203 204.103H61.1891V202.806H59.9078V210.931ZM72.6641 200.845V202.806H71.4531V203.923H72.6641V208.821C72.6641 210.384 73.2422 210.993 74.7344 210.993C75.0547 210.993 75.4297 210.97 75.5938 210.931V209.79C75.5 209.806 75.1875 209.829 75.0312 209.829C74.3359 209.829 74.0234 209.493 74.0234 208.751V203.923H75.6016V202.806H74.0234V200.845H72.6641ZM79.8781 209.915C78.9016 209.915 78.2531 209.407 78.2531 208.634C78.2531 207.868 78.8781 207.384 79.9719 207.313L82.1438 207.181V207.845C82.1438 209.017 81.1594 209.915 79.8781 209.915ZM79.5734 211.071C80.6672 211.071 81.6984 210.462 82.1828 209.532H82.2141V210.931H83.5031V205.313C83.5031 203.696 82.3 202.665 80.3938 202.665C78.4719 202.665 77.2688 203.743 77.175 205.149H78.4875C78.6594 204.353 79.3156 203.86 80.3625 203.86C81.4875 203.86 82.1438 204.454 82.1438 205.446V206.126L79.8156 206.259C77.9406 206.368 76.8703 207.243 76.8703 208.634C76.8703 210.095 77.9563 211.071 79.5734 211.071ZM80.1906 213.712C80.6672 213.712 81.0422 213.329 81.0422 212.86C81.0422 212.384 80.6672 212.009 80.1906 212.009C79.7219 212.009 79.3391 212.384 79.3391 212.86C79.3391 213.329 79.7219 213.712 80.1906 213.712ZM88.8969 211.071C91.1391 211.071 92.6547 209.454 92.6547 206.868C92.6547 204.274 91.1391 202.665 88.8969 202.665C86.6469 202.665 85.1313 204.274 85.1313 206.868C85.1313 209.454 86.6469 211.071 88.8969 211.071ZM88.8969 209.876C87.4594 209.876 86.5141 208.782 86.5141 206.868C86.5141 204.954 87.4594 203.86 88.8969 203.86C90.3344 203.86 91.2719 204.954 91.2719 206.868C91.2719 208.782 90.3344 209.876 88.8969 209.876ZM100.989 211.071C102.161 211.071 103.091 210.493 103.614 209.556H103.638V210.931H104.934V199.657H103.575V204.126H103.544C103.059 203.235 102.122 202.665 100.958 202.665C98.9109 202.665 97.5125 204.321 97.5125 206.868C97.5125 209.415 98.9188 211.071 100.989 211.071ZM101.247 203.86C102.645 203.86 103.583 205.056 103.583 206.868C103.583 208.688 102.645 209.876 101.247 209.876C99.8094 209.876 98.9031 208.712 98.9031 206.868C98.9031 205.032 99.8094 203.86 101.247 203.86ZM112.422 209.61H112.453V210.931H113.742V203.798H113.914C114.875 203.798 115.445 203.267 115.445 202.384V201.001H114.219V202.149C114.219 202.595 114.008 202.806 113.539 202.806H112.383V207.579C112.383 208.962 111.586 209.868 110.266 209.868C109.008 209.868 108.391 209.157 108.391 207.837V202.806H107.031V208.079C107.031 209.923 108.07 211.071 109.844 211.071C111.094 211.071 111.938 210.548 112.422 209.61ZM110.391 213.712C110.867 213.712 111.242 213.329 111.242 212.86C111.242 212.384 110.867 212.009 110.391 212.009C109.922 212.009 109.539 212.384 109.539 212.86C109.539 213.329 109.922 213.712 110.391 213.712ZM116.558 210.931H117.917V206.149C117.917 204.774 118.753 203.868 120.034 203.868C121.284 203.868 121.902 204.587 121.902 205.899V210.931H123.261V205.657C123.261 203.813 122.23 202.665 120.448 202.665C119.191 202.665 118.323 203.228 117.87 204.103H117.839V202.806H116.558V210.931ZM128.6 209.798C127.202 209.798 126.288 208.657 126.288 206.837C126.288 205.017 127.202 203.86 128.6 203.86C130.014 203.86 130.959 205.048 130.959 206.837C130.959 208.626 130.014 209.798 128.6 209.798ZM128.647 213.993C130.889 213.993 132.319 212.704 132.319 210.767V202.806H131.022V204.173H130.998C130.459 203.228 129.506 202.665 128.358 202.665C126.256 202.665 124.897 204.29 124.897 206.837C124.897 209.36 126.256 210.993 128.327 210.993C129.467 210.993 130.428 210.415 130.928 209.532H130.959V210.813C130.959 212.024 130.108 212.837 128.702 212.837C127.686 212.837 126.881 212.345 126.616 211.603H125.217C125.444 212.985 126.858 213.993 128.647 213.993ZM137.973 210.931H139.333V205.837C139.333 204.712 140.114 203.868 141.192 203.868C142.2 203.868 142.856 204.509 142.856 205.485V210.931H144.216V205.767C144.216 204.665 144.973 203.868 146.052 203.868C147.122 203.868 147.739 204.524 147.739 205.634V210.931H149.098V205.321C149.098 203.712 148.059 202.665 146.45 202.665C145.309 202.665 144.356 203.243 143.903 204.212H143.872C143.52 203.228 142.7 202.665 141.591 202.665C140.497 202.665 139.669 203.243 139.286 204.103H139.255V202.806H137.973V210.931ZM153.812 209.915C152.836 209.915 152.188 209.407 152.188 208.634C152.188 207.868 152.812 207.384 153.906 207.313L156.078 207.181V207.845C156.078 209.017 155.094 209.915 153.812 209.915ZM153.508 211.071C154.602 211.071 155.633 210.462 156.117 209.532H156.148V210.931H157.438V205.313C157.438 203.696 156.234 202.665 154.328 202.665C152.406 202.665 151.203 203.743 151.109 205.149H152.422C152.594 204.353 153.25 203.86 154.297 203.86C155.422 203.86 156.078 204.454 156.078 205.446V206.126L153.75 206.259C151.875 206.368 150.805 207.243 150.805 208.634C150.805 210.095 151.891 211.071 153.508 211.071ZM154.773 201.634L156.602 199.29H155.109L153.719 201.634H154.773ZM159.534 210.931H160.894V202.806H159.534V210.931ZM160.214 201.36C160.691 201.36 161.066 200.978 161.066 200.509C161.066 200.032 160.691 199.657 160.214 199.657C159.745 199.657 159.363 200.032 159.363 200.509C159.363 200.978 159.745 201.36 160.214 201.36ZM169.291 209.915C168.314 209.915 167.666 209.407 167.666 208.634C167.666 207.868 168.291 207.384 169.384 207.313L171.556 207.181V207.845C171.556 209.017 170.572 209.915 169.291 209.915ZM168.986 211.071C170.08 211.071 171.111 210.462 171.595 209.532H171.627V210.931H172.916V205.313C172.916 203.696 171.713 202.665 169.806 202.665C167.884 202.665 166.681 203.743 166.588 205.149H167.9C168.072 204.353 168.728 203.86 169.775 203.86C170.9 203.86 171.556 204.454 171.556 205.446V206.126L169.228 206.259C167.353 206.368 166.283 207.243 166.283 208.634C166.283 210.095 167.369 211.071 168.986 211.071ZM170.244 199.446H169.181L167.056 201.634H168.338L169.689 200.243H169.736L171.088 201.634H172.369L170.244 199.446ZM171.119 199.274H172.228L174.033 196.962H172.752L171.119 199.274ZM174.942 210.931H176.302V205.837C176.302 204.712 177.083 203.868 178.161 203.868C179.169 203.868 179.825 204.509 179.825 205.485V210.931H181.184V205.767C181.184 204.665 181.942 203.868 183.02 203.868C184.091 203.868 184.708 204.524 184.708 205.634V210.931H186.067V205.321C186.067 203.712 185.028 202.665 183.419 202.665C182.278 202.665 181.325 203.243 180.872 204.212H180.841C180.489 203.228 179.669 202.665 178.559 202.665C177.466 202.665 176.637 203.243 176.255 204.103H176.223V202.806H174.942V210.931Z" fill="white"/>
<path d="M26 141.19H56.9123V148.926H33.7393V156.605H49.173V164.341H33.7393V175.871C33.7393 176.923 33.3585 177.83 32.6081 178.58C31.8577 179.33 30.928 179.711 29.8416 179.711H26V141.19Z" fill="white"/>
<path d="M138.248 141H145.931L161.365 179.688H156.313C155.507 179.688 154.779 179.464 154.129 179.028C153.48 178.591 152.998 177.998 152.685 177.27L150.579 171.897H133.622L131.516 177.27C131.203 178.009 130.721 178.591 130.072 179.028C129.422 179.464 128.694 179.688 127.887 179.688H122.836L138.248 141ZM136.724 164.217H147.465L142.089 150.694L136.724 164.217Z" fill="white"/>
<path d="M111.714 145.142V167.509L88.5975 141.09H80.8582V179.778H84.6998C85.7862 179.778 86.7046 179.397 87.4662 178.647C88.2167 177.897 88.5975 176.991 88.5975 175.938V153.404L111.714 179.767H119.398V141.09H115.769C113.529 141.09 111.714 142.903 111.714 145.142Z" fill="white"/>
<path d="M64.6292 141.033V179.721L68.7172 179.744C70.7332 179.755 72.3796 178.132 72.3796 176.117V172.87V141.033H64.6292Z" fill="white"/>
<defs>
<clipPath id="clip0_1_3517">
<rect width="94" height="85" fill="white" transform="translate(47)"/>
</clipPath>
</defs>
</svg>
