<svg width="147" height="26" viewBox="0 0 147 26" fill="none" xmlns="http://www.w3.org/2000/svg">
<g clip-path="url(#clip0_4444_51510)">
<path d="M28.0645 24.6293C28.1253 24.5599 28.1774 24.4818 28.2295 24.4037C28.2555 24.369 28.2729 24.3343 28.299 24.2996C28.3337 24.2476 28.3684 24.1955 28.3945 24.1348C28.4292 24.0741 28.4639 24.0133 28.4987 23.9439C28.516 23.9179 28.5247 23.8832 28.5421 23.8572C28.5855 23.7704 28.6289 23.675 28.6637 23.5796C28.6637 23.5796 28.6637 23.5709 28.6723 23.5709C28.8286 23.1632 28.9155 22.7294 28.9155 22.2783C28.9155 21.8705 28.846 21.4801 28.7244 21.1158C28.7158 21.0984 28.7158 21.0811 28.7071 21.0637C28.6723 20.9683 28.6376 20.8729 28.5942 20.7774C28.5768 20.7427 28.5595 20.7167 28.5508 20.682C28.516 20.6039 28.4813 20.5345 28.4379 20.4565C28.4292 20.4478 28.4292 20.4304 28.4205 20.4218L17.6706 1.85652C17.6532 1.8305 17.6358 1.80447 17.6185 1.77845C17.6098 1.76977 17.6098 1.76109 17.6011 1.75242C17.5403 1.65699 17.4882 1.57024 17.4187 1.48348C17.4014 1.46613 17.3927 1.44878 17.3753 1.43143C17.3145 1.35335 17.2538 1.28395 17.193 1.21455C17.1582 1.17985 17.1322 1.15382 17.0975 1.11912C17.0454 1.06707 16.9933 1.01502 16.9412 0.971638C16.8891 0.928262 16.837 0.884885 16.7849 0.841508C16.7501 0.806807 16.7067 0.780781 16.672 0.74608C16.6025 0.694027 16.5331 0.650651 16.4549 0.598599C16.4289 0.581248 16.4028 0.563897 16.3768 0.546547C16.3507 0.529196 16.3333 0.520521 16.3073 0.50317C16.2465 0.468468 16.177 0.433767 16.1076 0.399066C16.0902 0.39039 16.0815 0.381715 16.0641 0.37304C15.96 0.320988 15.8644 0.277611 15.7602 0.24291C15.7516 0.24291 15.7515 0.234234 15.7429 0.234234C15.6387 0.190858 15.5258 0.164832 15.4216 0.13013C15.4129 0.13013 15.4042 0.13013 15.4042 0.121455C15.3 0.0954288 15.1958 0.0694027 15.0916 0.0520521C15.0743 0.0520521 15.0569 0.0433767 15.0308 0.0433767C14.944 0.026026 14.8572 0.0173507 14.7617 0.00867534C14.7182 0.00867534 14.6835 0 14.6401 0C14.588 0.00867534 14.5185 0 14.4491 0C14.3796 0 14.3188 0 14.2493 0.00867534C14.2059 0.00867534 14.1712 0.0173507 14.1278 0.0173507C14.0409 0.026026 13.9541 0.0347014 13.8586 0.0520521C13.8412 0.0520521 13.8239 0.0607274 13.7978 0.0607274C13.6936 0.0780781 13.5894 0.104104 13.4852 0.13013C13.4765 0.13013 13.4678 0.13013 13.4678 0.138805C13.3636 0.164832 13.2508 0.199533 13.1466 0.24291C13.1379 0.24291 13.1379 0.251585 13.1292 0.251585C13.025 0.286286 12.9295 0.329663 12.8253 0.381715C12.8079 0.39039 12.7992 0.399066 12.7819 0.407741C12.7124 0.442442 12.6516 0.468468 12.5821 0.511845C12.5561 0.529196 12.5387 0.537871 12.5127 0.555222C12.4866 0.572573 12.4606 0.589923 12.4345 0.607274C12.3651 0.650651 12.2869 0.702703 12.2174 0.754755C12.1914 0.76343 12.1567 0.798132 12.1132 0.824158C12.0611 0.867534 12.009 0.910911 11.9569 0.954288C11.9048 1.00634 11.8527 1.05839 11.8006 1.10177C11.7659 1.13647 11.7312 1.1625 11.7051 1.1972C11.6443 1.2666 11.5836 1.336 11.5228 1.41408C11.5054 1.43143 11.4967 1.44878 11.4794 1.46613C11.4186 1.55289 11.3578 1.63964 11.297 1.73507C11.297 1.76109 11.2883 1.76977 11.2796 1.77845C11.2623 1.80447 11.2449 1.8305 11.2275 1.85652L0.494949 20.4304C0.4168 20.5606 0.356016 20.6994 0.295233 20.8382C0.295233 20.8382 0.295233 20.8382 0.295233 20.8468C0.251816 20.9596 0.2084 21.0637 0.173666 21.1765C0.173666 21.1852 0.164983 21.2025 0.164983 21.2112C0.13025 21.3153 0.1042 21.4194 0.0868332 21.5235C0.0781499 21.5496 0.0781499 21.5843 0.0694666 21.6103C0.0520999 21.697 0.0347333 21.7925 0.02605 21.8792C0.0173666 21.9226 0.0173666 21.966 0.0173666 22.0093C0.00868332 22.0874 0 22.1655 0 22.2436C0 22.2609 0 22.2783 0 22.287C0 22.3303 0.00868332 22.3737 0.00868332 22.4171C0.00868332 22.4778 0.00868332 22.5385 0.0173666 22.5993C0.02605 22.6687 0.0347333 22.7381 0.0434166 22.7988C0.0520999 22.8509 0.0607833 22.9029 0.0694666 22.955C0.0781499 23.0244 0.0955166 23.0938 0.112883 23.1545C0.121567 23.2065 0.138933 23.2586 0.1563 23.3106C0.173666 23.3714 0.191033 23.4234 0.2084 23.4755C0.23445 23.5449 0.251816 23.6056 0.277866 23.675C0.295233 23.7097 0.3126 23.7444 0.321283 23.7791C0.356016 23.8659 0.399433 23.9526 0.44285 24.0307C0.451533 24.0394 0.451533 24.0567 0.460216 24.0654C0.772816 24.6466 1.24172 25.1498 1.85823 25.5055C2.21425 25.7137 2.58763 25.8438 2.9697 25.9219C2.97838 25.9219 2.98706 25.9219 2.99575 25.9219C3.09995 25.9393 3.21283 25.9566 3.32571 25.974C3.36045 25.974 3.39518 25.9827 3.4386 25.9827C3.51675 25.9913 3.60358 25.9913 3.68173 25.9913C3.6991 25.9913 3.71646 25.9913 3.73383 25.9913H25.2077C25.2251 25.9913 25.2424 25.9913 25.2511 25.9913C25.3293 25.9913 25.4074 25.9827 25.4856 25.9827C25.529 25.9827 25.5724 25.974 25.6158 25.974C25.7113 25.9653 25.7982 25.948 25.8937 25.9306C25.9197 25.9219 25.9458 25.9219 25.9718 25.9219C26.0847 25.8959 26.1889 25.8699 26.3018 25.8352C26.3105 25.8352 26.3105 25.8352 26.3192 25.8265C26.5797 25.7484 26.8315 25.6443 27.0746 25.4968C27.4654 25.2713 27.7953 24.985 28.0732 24.6553C28.0471 24.6553 28.0558 24.6466 28.0645 24.6293ZM14.4491 11.1478L18.7386 18.5739H10.1595L14.4491 11.1478Z" fill="white"/>
<path d="M17.6713 5.57033L6.93874 24.1529C5.91411 25.9227 3.63039 26.5386 1.859 25.5149C0.0875973 24.4913 -0.528919 22.2096 0.495713 20.4399L11.2283 1.85729C12.2529 0.0875168 14.5366 -0.528433 16.308 0.495258C18.0881 1.51895 18.696 3.80056 17.6713 5.57033Z" fill="url(#paint0_linear_4444_51510)"/>
<path d="M11.2282 5.57033L21.9695 24.1529C22.9941 25.9227 25.2778 26.5386 27.0492 25.5149C28.8206 24.4913 29.4371 22.2096 28.4125 20.4399L17.6712 1.85729C16.6466 0.0875168 14.3629 -0.528433 12.5915 0.495258C10.8201 1.51895 10.2122 3.80056 11.2282 5.57033Z" fill="url(#paint1_linear_4444_51510)"/>
<path d="M25.1903 18.5781H3.71646C1.67588 18.5781 0 20.2438 0 22.2912C0 24.3386 1.67588 26.0042 3.71646 26.0042H25.1903C27.2396 26.0042 28.9068 24.3299 28.9068 22.2912C28.9068 20.2438 27.2396 18.5781 25.1903 18.5781Z" fill="url(#paint2_linear_4444_51510)"/>
<path d="M40.508 4.96875H53.2986C53.4288 4.96875 53.5243 5.07285 53.5243 5.19431V8.0485C53.5243 8.17863 53.4201 8.27406 53.2986 8.27406H43.8251C43.6948 8.27406 43.5993 8.37816 43.5993 8.49961V11.3365C43.5993 11.4666 43.7035 11.562 43.8251 11.562H49.9815C50.1118 11.562 50.2073 11.6661 50.2073 11.7876V14.6418C50.2073 14.7719 50.1031 14.8673 49.9815 14.8673H43.8251C43.6948 14.8673 43.5993 14.9714 43.5993 15.0929V19.8036C43.5993 20.2547 43.4343 20.6451 43.113 20.9661C42.7918 21.2871 42.3923 21.4519 41.9321 21.4519H40.5167C40.3865 21.4519 40.291 21.3478 40.291 21.2263V5.19431C40.2736 5.07285 40.3778 4.96875 40.508 4.96875Z" fill="black"/>
<path d="M88.5522 4.88281H91.5393C91.6348 4.88281 91.7216 4.94354 91.7564 5.03029L98.1907 21.1491C98.2515 21.2966 98.1386 21.4614 97.9736 21.4614H96.1501C95.8028 21.4614 95.4902 21.366 95.2123 21.1751C94.9345 20.9842 94.7261 20.7327 94.5958 20.4204L93.7535 18.2689C93.7188 18.1821 93.632 18.1214 93.5364 18.1214H86.5811C86.4856 18.1214 86.3987 18.1821 86.364 18.2689L85.5217 20.4204C85.3828 20.7327 85.1831 20.9842 84.9052 21.1751C84.6273 21.366 84.3147 21.4614 83.9674 21.4614H82.1439C81.9789 21.4614 81.866 21.2966 81.9268 21.1491L88.3612 5.03029C88.3699 4.94354 88.4567 4.88281 88.5522 4.88281ZM88.0833 14.8334H92.0082C92.1732 14.8334 92.286 14.6686 92.2253 14.5211L90.2628 9.57617C90.1847 9.38531 89.9155 9.38531 89.8373 9.57617L87.8749 14.5211C87.8054 14.6686 87.9183 14.8334 88.0833 14.8334Z" fill="black"/>
<path d="M77.0216 6.89031V15.6351C77.0216 15.8433 76.7611 15.9474 76.6221 15.7825L67.1834 5.00777C67.14 4.95571 67.0792 4.92969 67.0097 4.92969H64.0226C63.8924 4.92969 63.7969 5.03379 63.7969 5.15525V21.274C63.7969 21.4042 63.9011 21.4996 64.0226 21.4996H65.438C65.9069 21.4996 66.2977 21.3348 66.619 21.0138C66.9402 20.6928 67.1052 20.3024 67.1052 19.8513V10.8116C67.1052 10.6034 67.3657 10.4993 67.5047 10.6641L76.9434 21.4215C76.9868 21.4736 77.0476 21.4996 77.1171 21.4996H80.0781C80.2084 21.4996 80.3039 21.3955 80.3039 21.274V5.15525C80.3039 5.02512 80.1997 4.92969 80.0781 4.92969H78.984C77.9073 4.92969 77.0216 5.8059 77.0216 6.89031Z" fill="black"/>
<path d="M56.832 5.124V21.2428C56.832 21.3729 56.9362 21.4683 57.0578 21.4683L58.3516 21.477C59.3415 21.4857 60.1491 20.6789 60.1491 19.6899V18.5274V5.124C60.1491 4.99387 60.0449 4.89844 59.9233 4.89844H57.0665C56.9362 4.89844 56.832 5.00254 56.832 5.124Z" fill="black"/>
<path d="M113.421 5.31376C114.289 5.84295 114.941 6.54566 115.383 7.43054C115.826 8.31543 116.052 9.27839 116.052 10.3368C116.052 11.4038 115.826 12.3755 115.383 13.243C114.932 14.1192 114.272 14.8133 113.395 15.3251C112.518 15.8369 111.433 16.0972 110.13 16.0972H107.126V20.1226C107.126 20.7819 106.587 21.3111 105.936 21.3111H103.088V4.51562H110.182C111.476 4.51562 112.553 4.78456 113.421 5.31376ZM111.224 8.31542C110.738 7.84696 110.078 7.61272 109.244 7.61272H107.117V13.0522H109.244C109.8 13.0522 110.286 12.9481 110.694 12.7312C111.103 12.5143 111.415 12.2107 111.632 11.8029C111.849 11.3952 111.962 10.9094 111.962 10.3368C111.945 9.46057 111.702 8.78389 111.224 8.31542Z" fill="#F1630F"/>
<path d="M116.746 21.3111L121.869 5.41786C122.043 4.87999 122.547 4.51562 123.111 4.51562H126.133C126.697 4.51562 127.201 4.87999 127.374 5.41786L132.48 21.3111H129.745C128.825 21.3111 128.008 20.6951 127.757 19.8103L127.088 17.4332H121.878L121.209 19.8103C120.958 20.6951 120.15 21.3111 119.221 21.3111H116.746ZM124.422 8.13324L122.738 14.1713C122.685 14.3448 122.824 14.5183 123.007 14.5183H126.011C126.194 14.5183 126.324 14.3448 126.28 14.1713L124.613 8.13324H124.422Z" fill="#F1630F"/>
<path d="M137.318 21.3111V15.4466L131.691 4.51562H135.46C135.868 4.51562 136.233 4.74986 136.406 5.1229L139.333 11.4472H139.489L142.433 5.1229C142.606 4.75853 142.971 4.5243 143.379 4.5243H147L141.373 15.3511V20.4869C141.373 20.9467 141 21.3198 140.54 21.3198H137.318V21.3111Z" fill="#F1630F"/>
</g>
<defs>
<linearGradient id="paint0_linear_4444_51510" x1="0.000763978" y1="13.0027" x2="18.17" y2="13.0027" gradientUnits="userSpaceOnUse">
<stop stop-color="#064DD6"/>
<stop offset="0.1048" stop-color="#0B51D7"/>
<stop offset="0.2301" stop-color="#1A5BD9"/>
<stop offset="0.3661" stop-color="#326CDD"/>
<stop offset="0.5095" stop-color="#5484E3"/>
<stop offset="0.6588" stop-color="#7FA3EA"/>
<stop offset="0.8131" stop-color="#B4C9F3"/>
<stop offset="0.9686" stop-color="#F2F5FD"/>
<stop offset="1" stop-color="white"/>
</linearGradient>
<linearGradient id="paint1_linear_4444_51510" x1="10.7363" y1="13.0027" x2="28.9055" y2="13.0027" gradientUnits="userSpaceOnUse">
<stop stop-color="#064DD6"/>
<stop offset="0.1048" stop-color="#0B51D7"/>
<stop offset="0.2301" stop-color="#1A5BD9"/>
<stop offset="0.3661" stop-color="#326CDD"/>
<stop offset="0.5095" stop-color="#5484E3"/>
<stop offset="0.6588" stop-color="#7FA3EA"/>
<stop offset="0.8131" stop-color="#B4C9F3"/>
<stop offset="0.9686" stop-color="#F2F5FD"/>
<stop offset="1" stop-color="white"/>
</linearGradient>
<linearGradient id="paint2_linear_4444_51510" x1="7.47135e-06" y1="22.2913" x2="28.9098" y2="22.2913" gradientUnits="userSpaceOnUse">
<stop stop-color="white"/>
<stop offset="0.0314" stop-color="#F2F5FD"/>
<stop offset="0.1869" stop-color="#B4C9F3"/>
<stop offset="0.3412" stop-color="#7FA3EA"/>
<stop offset="0.4905" stop-color="#5484E3"/>
<stop offset="0.6339" stop-color="#326CDD"/>
<stop offset="0.7699" stop-color="#1A5BD9"/>
<stop offset="0.8952" stop-color="#0B51D7"/>
<stop offset="1" stop-color="#064DD6"/>
</linearGradient>
<clipPath id="clip0_4444_51510">
<rect width="147" height="26" fill="white"/>
</clipPath>
</defs>
</svg>
