<svg width="375" height="155" viewBox="0 0 375 155" fill="none" xmlns="http://www.w3.org/2000/svg">
<path d="M190.214 120.769L207.119 120.705C207.445 120.704 207.767 120.767 208.069 120.89C208.37 121.014 208.644 121.196 208.875 121.425C209.106 121.654 209.289 121.927 209.414 122.227C209.539 122.527 209.604 122.849 209.604 123.174V129.118C209.604 129.443 209.668 129.765 209.793 130.066C209.918 130.367 210.101 130.64 210.332 130.87C210.562 131.1 210.836 131.282 211.138 131.407C211.439 131.531 211.762 131.595 212.089 131.595H236.867C237.193 131.595 237.517 131.531 237.818 131.407C238.12 131.282 238.394 131.1 238.624 130.87C238.855 130.64 239.038 130.367 239.163 130.066C239.288 129.765 239.352 129.443 239.352 129.118V107.338C239.353 107.013 239.419 106.693 239.544 106.394C239.67 106.095 239.853 105.823 240.084 105.595C240.315 105.366 240.588 105.186 240.889 105.063C241.19 104.94 241.512 104.877 241.837 104.878H247.117C247.443 104.878 247.767 104.814 248.068 104.69C248.37 104.565 248.644 104.383 248.874 104.153C249.105 103.923 249.288 103.649 249.413 103.349C249.538 103.048 249.602 102.726 249.602 102.401V90.4217C249.602 90.0975 249.666 89.7765 249.791 89.477C249.915 89.1776 250.097 88.9054 250.327 88.6762C250.557 88.447 250.83 88.2652 251.131 88.1412C251.431 88.0171 251.753 87.9532 252.078 87.9532H260.735C261.06 87.9532 261.382 88.0171 261.683 88.1412C261.983 88.2652 262.256 88.447 262.486 88.6762C262.716 88.9054 262.898 89.1776 263.023 89.477C263.147 89.7765 263.211 90.0975 263.211 90.4217V93.9337C263.211 94.5908 263.473 95.221 263.939 95.6856C264.405 96.1502 265.037 96.4112 265.696 96.4112H266.506C266.832 96.4112 267.155 96.3471 267.456 96.2225C267.757 96.0978 268.03 95.9152 268.26 95.685C268.49 95.4549 268.673 95.1817 268.797 94.8811C268.92 94.5806 268.984 94.2586 268.982 93.9337V80.9836C268.982 80.3265 269.244 79.6963 269.71 79.2317C270.176 78.7671 270.808 78.5061 271.467 78.5061H280.033C280.692 78.5085 281.322 78.7703 281.788 79.2344C282.254 79.6985 282.516 80.3272 282.518 80.9836V93.9519C282.518 94.609 282.78 95.2391 283.246 95.7037C283.712 96.1684 284.345 96.4294 285.004 96.4294H287.671C287.997 96.4294 288.319 96.3652 288.62 96.2406C288.921 96.116 289.195 95.9333 289.425 95.7032C289.655 95.473 289.837 95.1998 289.961 94.8993C290.085 94.5987 290.148 94.2768 290.147 93.9519V67.8066V54.7112H290.666V62.779C290.713 62.7091 290.764 62.6424 290.82 62.5793L310.528 51.2899C310.947 50.8361 311.184 51.2899 311.184 50.6819V34.5554L312.54 33.5844L337.164 15.9969V9H337.682V15.6157L337.783 15.5431V93.9791C337.783 94.6362 338.044 95.2663 338.51 95.731C338.977 96.1956 339.609 96.4566 340.268 96.4566H343.499C343.825 96.4578 344.148 96.3948 344.45 96.2713C344.751 96.1478 345.025 95.9662 345.256 95.7368C345.487 95.5075 345.67 95.235 345.795 94.9349C345.92 94.6348 345.984 94.3131 345.984 93.9882L346.785 64.6847C346.789 64.4019 346.854 64.1233 346.977 63.868L351.792 53.8854H352.147V42.5325C352.147 42.0005 352.359 41.4904 352.736 41.1143C353.114 40.7382 353.625 40.5268 354.159 40.5268H355.124V32.5045H355.652V40.5268H356.161C356.695 40.5268 357.207 40.7382 357.584 41.1143C357.961 41.4904 358.173 42.0005 358.173 42.5325V43.0407H360.44V42.5325C360.44 42.0005 360.652 41.4904 361.029 41.1143C361.406 40.7382 361.918 40.5268 362.452 40.5268H363.307V32.5045H363.835V40.5268H364.454C364.988 40.5268 365.5 40.7382 365.877 41.1143C366.254 41.4904 366.466 42.0005 366.466 42.5325V53.8491H366.812L371.627 63.8317C371.752 64.0864 371.821 64.365 371.828 64.6484L372.62 93.8974C372.62 94.5545 372.881 95.1847 373.347 95.6493C373.814 96.1139 374.446 96.3749 375.105 96.3749H379.656C379.982 96.3749 380.305 96.4391 380.606 96.5637C380.907 96.6883 381.18 96.8709 381.41 97.1011C381.64 97.3313 381.822 97.6045 381.946 97.905C382.07 98.2055 382.133 98.5275 382.132 98.8524V102.256C382.132 102.581 382.197 102.903 382.321 103.204C382.446 103.504 382.629 103.777 382.86 104.007C383.091 104.237 383.365 104.42 383.666 104.544C383.968 104.669 384.291 104.733 384.617 104.733H387.858C388.443 104.727 389.011 104.929 389.46 105.304C389.909 105.678 390.209 106.2 390.307 106.775L398.954 152.06C398.983 152.215 398.999 152.373 399 152.532C398.995 153.188 398.73 153.816 398.263 154.278C397.796 154.741 397.164 155 396.506 155H190.214C189.732 155.036 190.214 120.769 190.214 120.769Z" fill="#FFF0E7"/>
<path d="M191.785 120.769L174.875 120.705C174.549 120.704 174.225 120.767 173.924 120.89C173.622 121.014 173.348 121.196 173.117 121.425C172.886 121.654 172.703 121.927 172.578 122.227C172.453 122.527 172.388 122.849 172.388 123.174V129.118C172.388 129.443 172.324 129.765 172.199 130.066C172.074 130.367 171.891 130.64 171.66 130.87C171.429 131.1 171.155 131.282 170.854 131.407C170.552 131.531 170.229 131.595 169.902 131.595H145.124C144.464 131.595 143.83 131.335 143.363 130.87C142.895 130.406 142.631 129.776 142.629 129.118V107.338C142.627 107.013 142.562 106.693 142.436 106.394C142.311 106.095 142.127 105.823 141.897 105.595C141.666 105.366 141.392 105.186 141.091 105.063C140.79 104.94 140.468 104.877 140.142 104.878H134.861C134.201 104.878 133.569 104.617 133.103 104.153C132.637 103.688 132.375 103.058 132.375 102.401V90.4217C132.375 90.0975 132.311 89.7765 132.186 89.477C132.062 89.1776 131.879 88.9054 131.649 88.6762C131.419 88.447 131.146 88.2652 130.846 88.1412C130.545 88.0171 130.223 87.9532 129.898 87.9532H121.256C120.93 87.952 120.607 88.015 120.305 88.1385C120.003 88.262 119.729 88.4437 119.498 88.673C119.267 88.9023 119.084 89.1749 118.959 89.4749C118.834 89.775 118.77 90.0967 118.77 90.4217V93.9337C118.77 94.5908 118.508 95.221 118.041 95.6856C117.575 96.1502 116.943 96.4112 116.283 96.4112H115.473C115.147 96.4112 114.824 96.3471 114.523 96.2225C114.222 96.0978 113.948 95.9152 113.718 95.685C113.488 95.4549 113.306 95.1817 113.182 94.8811C113.058 94.5806 112.995 94.2586 112.996 93.9337V80.9836C112.996 80.3265 112.734 79.6963 112.268 79.2317C111.802 78.7671 111.169 78.5061 110.51 78.5061H101.941C101.282 78.5085 100.651 78.7703 100.186 79.2344C99.7198 79.6985 99.4571 80.3272 99.4547 80.9836V93.9519C99.4559 94.2768 99.3928 94.5987 99.2688 94.8993C99.1449 95.1998 98.9626 95.473 98.7325 95.7032C98.5024 95.9333 98.2289 96.116 97.9278 96.2406C97.6267 96.3652 97.3038 96.4294 96.9778 96.4294H94.3005C93.9744 96.4294 93.6516 96.3652 93.3505 96.2406C93.0494 96.116 92.7759 95.9333 92.5458 95.7032C92.3157 95.473 92.1334 95.1998 92.0094 94.8993C91.8855 94.5987 91.8223 94.2768 91.8235 93.9519V67.8066V54.7112H91.2953V62.779C91.2482 62.7091 91.1965 62.6424 91.1405 62.5793L71.4432 51.2899C71.0243 50.8361 70.7876 51.2899 70.7876 50.6819V34.5554L69.4307 33.5844L44.8432 15.9969V9H44.3151V15.6157L44.2149 15.5431V93.9791C44.2149 94.6362 43.953 95.2663 43.4867 95.731C43.0205 96.1956 42.3882 96.4566 41.7288 96.4566H38.496C38.17 96.4578 37.8469 96.3948 37.5453 96.2713C37.2438 96.1478 36.9696 95.9662 36.7386 95.7368C36.5077 95.5075 36.3244 95.235 36.1994 94.9349C36.0743 94.6348 36.0099 94.3131 36.0099 93.9882L35.2359 64.7029C35.2244 64.42 35.1563 64.1423 35.0356 63.8861L30.2182 53.9035H29.8631V42.5325C29.8631 42.0005 29.651 41.4904 29.2736 41.1143C28.8962 40.7382 28.3843 40.5268 27.8505 40.5268H26.8397V32.5045H26.3116V40.5268H25.8016C25.5377 40.5268 25.2765 40.5788 25.0328 40.6797C24.7891 40.7806 24.5679 40.9285 24.3817 41.1148C24.1956 41.3012 24.0482 41.5224 23.948 41.7656C23.8479 42.0089 23.797 42.2695 23.7982 42.5325V43.0407H21.5398V42.5325C21.5398 42.0005 21.3277 41.4904 20.9503 41.1143C20.5729 40.7382 20.061 40.5268 19.5272 40.5268H18.6803V32.5045H18.1522V40.5268H17.5238C17.2599 40.5268 16.9987 40.5788 16.755 40.6797C16.5114 40.7806 16.2901 40.9285 16.1039 41.1148C15.9178 41.3012 15.7704 41.5224 15.6703 41.7656C15.5701 42.0089 15.5192 42.2695 15.5204 42.5325V53.8491H15.1561L10.3388 63.8317C10.2181 64.0879 10.15 64.3656 10.1385 64.6484L9.35531 93.8974C9.3529 94.5553 9.08895 95.1855 8.62127 95.6498C8.15359 96.1142 7.52032 96.3749 6.86013 96.3749H2.30689C1.98085 96.3749 1.65801 96.4391 1.35689 96.5637C1.05578 96.6883 0.782318 96.8709 0.552191 97.1011C0.322065 97.3313 0.139803 97.6045 0.0158615 97.905C-0.10808 98.2055 -0.171265 98.5275 -0.170065 98.8524V102.256C-0.170065 102.581 -0.234371 102.903 -0.359306 103.204C-0.484243 103.504 -0.667366 103.777 -0.898218 104.007C-1.12907 104.237 -1.40313 104.42 -1.70475 104.544C-2.00638 104.669 -2.32966 104.733 -2.65613 104.733H-5.88893C-6.47383 104.729 -7.0412 104.932 -7.48986 105.306C-7.93852 105.68 -8.2393 106.201 -8.33857 106.775L-16.9897 152.06C-17.0034 152.217 -17.0034 152.375 -16.9897 152.532C-16.9849 153.188 -16.7199 153.816 -16.2525 154.278C-15.7851 154.741 -15.1532 155 -14.4945 155H191.758C192.286 155.036 191.785 120.769 191.785 120.769Z" fill="#FFF0E7"/>
<path d="M221.223 38.8885L215.769 40.3662L216.185 41.9029L221.639 40.4252L221.223 38.8885Z" fill="#FF6C0E"/>
<path d="M216.887 40.0632L215.576 39.9473L216.232 42.3778L217.293 41.6018L216.887 40.0632Z" fill="#263238"/>
<path d="M227.2 36.8696L219.034 39.082L219.697 41.527L227.862 39.3145L227.2 36.8696Z" fill="#FF6C0E"/>
<path d="M233.607 40.1795L224.353 40.6254L223.488 37.4501L231.707 33.1777L232.283 34.48C232.862 35.8139 233.246 37.2242 233.424 38.6676L233.607 40.1795Z" fill="#263238"/>
<path d="M204.833 61.4474C204.833 58.4951 206.309 56.9877 207.464 55.0968L211.638 48.3047C211.839 47.9791 210.564 50.0529 211.273 48.8131C211.67 48.1219 213.021 48.1129 213.565 49.2591C212.107 51.9349 211.844 54.1647 210.978 57.0903C210.543 58.4535 210.037 59.7932 209.462 61.104C206.777 66.0855 204.833 62.7318 204.833 61.4474Z" fill="#263238"/>
<path d="M211.076 49.2682C211.451 48.5011 212.289 46.9402 212.659 46.1687C212.712 46.0371 212.796 45.9206 212.905 45.8298C213 45.777 213.104 45.7423 213.212 45.7272C214.032 45.5072 214.891 45.4797 215.723 45.6469C215.785 45.6548 215.842 45.6849 215.884 45.7317C215.915 45.7763 215.932 45.829 215.933 45.8833C215.995 46.3292 216.058 46.8109 216.125 47.2747C216.149 47.3743 216.149 47.4784 216.125 47.578C216.079 47.6723 216.011 47.7548 215.928 47.8188L214.738 48.8668C214.552 49.062 214.318 49.2051 214.06 49.2816C213.644 49.2983 213.233 49.1879 212.882 48.9649C212.414 48.7821 211.076 49.2682 211.076 49.2682Z" fill="#CB7A63"/>
<g opacity="0.1">
<path opacity="0.1" d="M211.077 49.2682C211.452 48.5011 212.29 46.9402 212.66 46.1687C212.712 46.0371 212.797 45.9206 212.905 45.8298C213.001 45.777 213.105 45.7423 213.213 45.7272C214.033 45.5072 214.892 45.4797 215.724 45.6469C215.786 45.6548 215.843 45.6849 215.884 45.7317C215.915 45.7763 215.932 45.829 215.934 45.8833C215.996 46.3292 216.058 46.8109 216.125 47.2747C216.15 47.3743 216.15 47.4784 216.125 47.578C216.079 47.6723 216.012 47.7548 215.929 47.8188L214.738 48.8668C214.553 49.062 214.319 49.2051 214.06 49.2816C213.645 49.2983 213.234 49.1879 212.883 48.9649C212.415 48.7821 211.077 49.2682 211.077 49.2682Z" fill="black"/>
</g>
<path d="M214.885 40.9326C215.036 40.9058 215.197 41.0664 215.241 41.2938C215.286 41.5213 215.201 41.7398 215.05 41.7398C214.898 41.7398 214.742 41.606 214.697 41.3786C214.653 41.1511 214.737 40.9594 214.885 40.9326Z" fill="#263238"/>
<path d="M215.295 43.9653C215.491 43.9779 215.687 43.9472 215.87 43.8756C216.053 43.8039 216.217 43.6929 216.352 43.5505C215.784 43.0362 215.289 42.4465 214.88 41.7979L215.295 43.9653Z" fill="#B74D3C"/>
<path d="M213.708 40.2597C213.82 40.1279 213.963 40.0252 214.124 39.96C214.284 39.8948 214.458 39.8691 214.631 39.885H214.676C214.712 39.885 214.747 39.8705 214.773 39.8445C214.799 39.8186 214.814 39.7834 214.814 39.7468C214.814 39.7101 214.799 39.675 214.773 39.649C214.747 39.6231 214.712 39.6085 214.676 39.6085C214.459 39.5821 214.24 39.6089 214.036 39.6866C213.832 39.7643 213.651 39.8906 213.507 40.0545C213.485 40.0788 213.472 40.1106 213.471 40.1437C213.471 40.1619 213.474 40.18 213.48 40.197C213.487 40.214 213.496 40.2295 213.509 40.2428C213.521 40.256 213.536 40.2667 213.553 40.2742C213.569 40.2817 213.587 40.2858 213.605 40.2864C213.623 40.2894 213.642 40.2886 213.659 40.284C213.677 40.2794 213.694 40.2711 213.708 40.2597Z" fill="#263238"/>
<path d="M211.901 54.1734C207.963 54.1333 207.406 51.9793 207.406 51.9793C208.601 50.8599 208.704 48.7594 208.49 46.8818C208.799 47.3307 209.189 47.7179 209.64 48.0235C210.052 48.3159 210.52 48.5183 211.015 48.6174C211.51 48.7165 212.02 48.7102 212.512 48.5988C212.528 48.6028 212.545 48.6028 212.561 48.5988C212.55 48.635 212.542 48.6724 212.539 48.7103C212.272 50.2088 212.445 51.8321 214.011 52.3227C214.011 52.3093 216.241 54.218 211.901 54.1734Z" fill="#CB7A63"/>
<path d="M212.682 48.0331C212.632 48.2151 212.592 48.3998 212.562 48.5861C212.546 48.5901 212.529 48.5901 212.513 48.5861C212.02 48.6975 211.51 48.7038 211.015 48.6047C210.52 48.5056 210.052 48.3032 209.641 48.0108C209.189 47.7052 208.799 47.318 208.49 46.8691C208.441 46.3919 208.365 45.9237 208.285 45.5L212.521 47.9305L212.682 48.0331Z" fill="#CB7A63"/>
<path d="M206.202 52.3189C206.202 52.3189 206.862 50.4101 207.812 49.8215C208.762 49.2328 212.874 49.9508 213.516 50.2184C214.158 50.486 214.778 52.0022 214.778 52.0022L206.202 52.3189Z" fill="#407BFF"/>
<path opacity="0.8" d="M206.202 52.3189C206.202 52.3189 206.862 50.4101 207.812 49.8215C208.762 49.2328 212.874 49.9508 213.516 50.2184C214.158 50.486 214.778 52.0022 214.778 52.0022L206.202 52.3189Z" fill="white"/>
<path d="M216.071 51.7208C215.434 51.6004 214.734 51.4889 213.998 51.4175C211.804 51.2659 209.603 51.2436 207.406 51.3506L205.957 51.4577C203.656 51.5781 201.305 53.5225 201.72 55.788C204.008 68.2529 203.138 75.1698 202.862 77.1945L218.364 77.3462C220.232 64.6227 219.925 58.1695 219.363 55.0477C219.217 54.2243 218.825 53.4648 218.237 52.8703C217.649 52.2759 216.893 51.8749 216.071 51.7208Z" fill="#263238"/>
<path opacity="0.2" d="M218.966 72.8333L218.381 77.3242C219.581 68.1283 220.058 64.293 219.697 57.88L215.683 56.6045C218.172 64.9976 217.275 67.0669 218.966 72.8333Z" fill="black"/>
<path d="M215.567 44.8801C215.541 45.5567 215.344 46.2155 214.992 46.7944C214.641 47.3734 214.149 47.8534 213.561 48.1892H213.538C213.235 48.3703 212.906 48.5027 212.562 48.5816C212.545 48.5856 212.529 48.5856 212.513 48.5816C212.02 48.693 211.51 48.6993 211.015 48.6002C210.52 48.5011 210.052 48.2987 209.641 48.0063C209.189 47.7007 208.799 47.3135 208.49 46.8646C207.741 45.7898 207.451 44.3672 206.938 42.3737C206.766 41.7273 206.763 41.0477 206.927 40.3995C207.092 39.7513 207.419 39.1558 207.879 38.6695C208.338 38.1831 208.913 37.822 209.551 37.6204C210.189 37.4187 210.867 37.3832 211.523 37.5171C214.493 38.1102 215.683 42.2221 215.567 44.8801Z" fill="#CB7A63"/>
<path opacity="0.2" d="M213.538 48.1927C213.235 48.3738 212.905 48.5062 212.561 48.5851L212.704 46.8369C212.704 46.8369 213.333 48.1927 213.538 48.1927Z" fill="black"/>
<path d="M213.841 43.1138C212.811 43.5865 213.244 45.8654 212.312 46.5433C212.198 46.6329 212.068 46.6996 211.928 46.7395C211.482 46.8421 209.556 44.2064 209.395 43.5643C208.98 41.8874 208.985 40.8215 210.251 40.108C211.141 39.637 212.084 39.2761 213.061 39.0332C213.507 39.0332 213.953 39.7869 214.051 40.5227C214.087 40.8572 213.605 41.2898 213.788 41.4548C214.119 41.7818 214.365 42.1843 214.506 42.6277C214.302 42.8121 214.079 42.975 213.841 43.1138Z" fill="#263238"/>
<path d="M211.661 46.7349L209.819 47.1006L208.481 46.882C208.481 46.882 205.27 44.0858 205.136 42.2975C205.002 40.5091 205.734 38.2838 207.696 37.5568C209.14 37.0464 210.622 36.6512 212.129 36.375C212.129 36.375 213.395 36.7095 213.525 37.3874C213.568 37.5708 213.572 37.7615 213.537 37.9467C213.502 38.1319 213.428 38.3076 213.32 38.4621L209.993 39.6217C209.66 39.7292 209.369 39.9395 209.163 40.2223C208.958 40.5052 208.847 40.846 208.847 41.1959C208.891 42.0433 211.661 46.7349 211.661 46.7349Z" fill="#263238"/>
<path d="M212.735 41.2181C213.56 41.4813 213.966 42.7077 213.984 43.4837C214.006 44.3399 213.427 44.8706 212.691 44.2819C212.136 43.8253 211.747 43.1982 211.585 42.4981C211.398 41.6686 211.915 40.9595 212.735 41.2181Z" fill="#CB7A63"/>
<path d="M209.466 150.825C209.451 150.822 209.437 150.814 209.427 150.803C209.416 150.792 209.41 150.777 209.408 150.762C209.403 150.748 209.404 150.732 209.409 150.718C209.415 150.704 209.426 150.693 209.439 150.686C209.497 150.664 210.572 150.053 211.085 150.191C211.134 150.202 211.18 150.222 211.221 150.251C211.261 150.281 211.296 150.318 211.321 150.361C211.354 150.407 211.371 150.462 211.371 150.519C211.371 150.576 211.354 150.631 211.321 150.677C211.196 150.86 210.831 150.909 210.429 150.909C210.106 150.909 209.784 150.88 209.466 150.825ZM210.902 150.307C210.477 150.357 210.066 150.49 209.693 150.7C210.269 150.78 211.031 150.775 211.192 150.579C211.223 150.548 211.241 150.508 211.192 150.419C211.178 150.391 211.158 150.368 211.133 150.35C211.108 150.332 211.079 150.321 211.049 150.316C211.002 150.307 210.954 150.307 210.907 150.316L210.902 150.307Z" fill="#407BFF"/>
<path d="M209.435 150.806C209.426 150.798 209.418 150.787 209.413 150.776C209.407 150.764 209.404 150.752 209.404 150.739C209.424 150.302 209.59 149.884 209.877 149.553C209.933 149.505 209.998 149.47 210.069 149.449C210.14 149.428 210.214 149.423 210.287 149.432C210.488 149.432 210.559 149.553 210.559 149.638C210.621 149.994 209.89 150.645 209.515 150.815H209.484C209.467 150.816 209.45 150.813 209.435 150.806ZM210.238 149.571C210.141 149.572 210.048 149.61 209.979 149.678C209.751 149.944 209.609 150.274 209.573 150.623C209.957 150.396 210.465 149.874 210.416 149.664C210.416 149.664 210.416 149.584 210.273 149.584H210.229L210.238 149.571Z" fill="#407BFF"/>
<path d="M206.367 143.648L209.435 143.653L209.176 150.739L206.09 150.735L206.367 143.648Z" fill="#CB7A63"/>
<path d="M209.899 150.623C211.999 151.912 212.641 151.961 215.068 152.5C215.598 152.621 215.259 153.901 213.993 153.901C211.892 153.901 211.674 153.798 209.881 153.794C208.347 153.794 206.59 153.861 205.368 153.879C205.331 153.883 205.293 153.883 205.256 153.879C205.142 153.851 205.043 153.779 204.981 153.679C204.919 153.579 204.899 153.458 204.926 153.343L205.519 150.605C205.533 150.546 205.567 150.493 205.615 150.455C205.662 150.417 205.721 150.396 205.782 150.396H209.158C209.422 150.401 209.678 150.48 209.899 150.623Z" fill="#263238"/>
<path opacity="0.2" d="M206.367 143.653L206.224 147.292L209.306 147.297L209.435 143.658L206.367 143.653Z" fill="black"/>
<path d="M183.729 150.748C183.726 150.762 183.718 150.775 183.708 150.785C183.698 150.795 183.685 150.802 183.672 150.806C183.656 150.81 183.64 150.807 183.626 150.8C183.612 150.793 183.602 150.781 183.596 150.766C183.569 150.713 182.98 149.633 183.15 149.125C183.161 149.077 183.182 149.032 183.211 148.992C183.24 148.952 183.277 148.919 183.319 148.893C183.366 148.86 183.422 148.843 183.48 148.843C183.537 148.843 183.593 148.86 183.64 148.893C183.814 149.027 183.859 149.393 183.854 149.785C183.841 150.109 183.799 150.431 183.729 150.748ZM183.248 149.308C183.287 149.73 183.408 150.141 183.605 150.516C183.698 149.946 183.712 149.179 183.515 149.027C183.489 148.991 183.444 148.978 183.355 149.027C183.327 149.041 183.303 149.061 183.284 149.085C183.266 149.11 183.253 149.139 183.248 149.17C183.241 149.216 183.241 149.262 183.248 149.308Z" fill="#407BFF"/>
<path d="M183.725 150.775C183.718 150.786 183.708 150.794 183.696 150.8C183.684 150.805 183.671 150.807 183.658 150.806C183.627 150.806 182.793 150.731 182.481 150.316C182.434 150.26 182.399 150.194 182.379 150.123C182.359 150.052 182.354 149.978 182.365 149.906C182.365 149.709 182.494 149.638 182.575 149.638C182.927 149.589 183.574 150.329 183.734 150.699V150.726C183.736 150.735 183.736 150.743 183.735 150.752C183.733 150.76 183.73 150.768 183.725 150.775ZM182.494 149.968C182.499 150.062 182.535 150.152 182.597 150.222C182.861 150.454 183.189 150.599 183.538 150.637C183.315 150.253 182.802 149.745 182.592 149.785C182.592 149.785 182.512 149.785 182.508 149.923V149.968H182.494Z" fill="#407BFF"/>
<path d="M185.468 143.604L188.461 143.822L186.695 150.966L183.684 150.748L185.468 143.604Z" fill="#CB7A63"/>
<path d="M182.98 150.351C182.155 151.31 181.718 151.8 179.346 152.541C178.82 152.701 179.265 153.95 180.532 153.838C182.628 153.656 181.473 153.66 183.257 153.504C184.787 153.37 186.544 153.29 187.761 153.205C187.802 153.204 187.843 153.197 187.882 153.183C187.938 153.166 187.991 153.138 188.037 153.101C188.083 153.063 188.121 153.017 188.149 152.965C188.177 152.912 188.194 152.855 188.199 152.796C188.205 152.737 188.198 152.677 188.18 152.621L187.36 149.945C187.342 149.887 187.305 149.837 187.255 149.804C187.204 149.77 187.144 149.756 187.083 149.762L183.725 150.052C183.447 150.051 183.18 150.158 182.98 150.351Z" fill="#263238"/>
<path opacity="0.2" d="M185.464 143.608L184.55 147.279L187.551 147.497L188.461 143.822L185.464 143.608Z" fill="black"/>
<path d="M202.862 77.1684C201.728 78.9716 200.778 80.884 200.025 82.8768C198.38 87.3365 198.964 89.6466 198.415 92.6569C197.448 97.9505 196.003 102.022 194.986 106.036C191.82 118.608 183.962 145.156 183.962 145.156L189.367 146.347C189.367 146.347 200.561 115.504 203.406 106.509C205.97 98.4143 212.553 77.1416 212.553 77.1416L202.862 77.1684Z" fill="#407BFF"/>
<path opacity="0.4" d="M202.862 77.1684C201.728 78.9716 200.778 80.884 200.025 82.8768C198.38 87.3365 198.964 89.6466 198.415 92.6569C197.448 97.9505 196.003 102.022 194.986 106.036C191.82 118.608 183.962 145.156 183.962 145.156L189.367 146.347C189.367 146.347 200.561 115.504 203.406 106.509C205.97 98.4143 212.553 77.1416 212.553 77.1416L202.862 77.1684Z" fill="black"/>
<path d="M183.324 144.157L183.27 146.079L189.781 146.784C189.781 146.784 190.361 144.683 190.334 144.683L183.324 144.157Z" fill="#407BFF"/>
<path opacity="0.8" d="M183.324 144.157L183.27 146.079L189.781 146.784C189.781 146.784 190.361 144.683 190.334 144.683L183.324 144.157Z" fill="white"/>
<path opacity="0.3" d="M209.511 86.9525C207.437 93.642 204.81 102.075 203.41 106.508C203.343 106.722 203.267 106.954 203.196 107.182C203.749 99.7786 205.203 87.3673 208.922 86.9124C209.119 86.8818 209.32 86.8955 209.511 86.9525Z" fill="black"/>
<path d="M207.848 77.1416C207.848 77.1416 206.269 97.5402 206.09 107.187C205.921 116.173 205.417 146.588 205.417 146.588H210.63C210.63 146.588 214.287 115.633 215.21 106.504C216.102 97.8613 218.368 77.3155 218.368 77.3155L207.848 77.1416Z" fill="#407BFF"/>
<path opacity="0.4" d="M207.848 77.1416C207.848 77.1416 206.269 97.5402 206.09 107.187C205.921 116.173 205.417 146.588 205.417 146.588H210.63C210.63 146.588 214.287 115.633 215.21 106.504C216.102 97.8613 218.368 77.3155 218.368 77.3155L207.848 77.1416Z" fill="black"/>
<path d="M203.236 72.4138L197.746 83.6522L199.2 83.233C201.536 82.5562 204.004 82.4826 206.376 83.0189L208.084 79.1256L207.558 83.2241H208.307C210.457 83.1753 212.591 83.6096 214.55 84.4951C215.186 84.8132 215.843 85.0859 216.517 85.3112C216.517 85.1863 218.355 77.3373 218.355 77.3373C218.355 77.3373 215.92 64.4086 203.236 72.4138Z" fill="#263238"/>
<path d="M204.641 144.759L204.819 146.672H211.157C211.157 146.672 211.456 144.527 211.433 144.527L204.641 144.759Z" fill="#407BFF"/>
<path opacity="0.8" d="M204.641 144.759L204.819 146.672H211.157C211.157 146.672 211.456 144.527 211.433 144.527L204.641 144.759Z" fill="white"/>
<path d="M219.795 42.5387C219.795 42.5387 217.949 41.5754 217.632 40.7771L217.186 39.6577C217.15 39.5511 217.156 39.4348 217.202 39.3322C217.249 39.2297 217.332 39.1484 217.436 39.1047C218.494 38.6591 219.639 38.4623 220.785 38.5294C220.924 38.5457 221.056 38.5985 221.168 38.6823C221.28 38.7661 221.368 38.878 221.423 39.0066C221.423 39.0066 221.896 41.2365 221.525 41.4817L219.795 42.5387Z" fill="#CB7A63"/>
<path d="M222.275 42.0116L226.239 47.4613C226.369 47.6353 226.494 47.8136 226.61 47.9876C229.482 52.1663 229.807 55.7876 228.594 56.2826C227.381 56.7776 223.118 57.5179 223.118 57.5179L223.666 53.1876L224.737 53.0092L220.085 43.354L219.684 42.3684C219.684 42.3684 220.932 40.2411 222.275 42.0116Z" fill="#263238"/>
<path d="M216.816 51.6134C219.819 51.5092 222.819 51.8656 225.714 52.6704L226.218 56.7198C226.218 56.7198 218.293 59.3956 215.688 56.6038C213.69 54.4676 213.048 51.3414 216.816 51.6134Z" fill="#263238"/>
<path d="M173.664 53.5049C173.664 53.7502 173.695 53.8929 173.704 54.0757V54.5841C173.704 54.9141 173.704 55.2486 173.682 55.5742C173.646 56.2342 173.575 56.9121 173.477 57.5498C173.264 58.8783 172.888 60.1754 172.357 61.4119C171.273 64.0257 169.301 66.1723 166.787 67.4726C166.359 67.7156 165.893 67.8858 165.409 67.9766C164.867 68.0711 164.311 68.0514 163.777 67.9186C162.939 67.6916 162.167 67.2716 161.52 66.6922C160.524 65.7846 159.67 64.7322 158.987 63.5704C157.736 61.4633 156.731 59.2185 155.995 56.8809L157.935 56.0737C158.488 57.0459 159.072 58.0538 159.719 59.0037C160.365 59.9536 160.967 60.8946 161.65 61.7509C162.258 62.5566 162.972 63.2767 163.773 63.8915C164.015 64.0885 164.304 64.2218 164.611 64.2795C164.687 64.2795 164.691 64.2795 164.722 64.2572C164.754 64.2349 164.678 64.2572 164.959 64.0833C166.593 63.0843 167.848 61.5703 168.527 59.7797C168.889 58.842 169.145 57.8667 169.289 56.872C169.396 56.0992 169.745 55.3804 170.287 54.8192C170.829 54.2581 171.535 53.8837 172.304 53.7502L173.664 53.5049Z" fill="#EEC8C0"/>
<path d="M156.29 57.6837C154.952 56.6134 154.952 54.5619 154.952 54.5619L159.255 53.7324L157.873 57.0683L156.29 57.6837Z" fill="#EEC8C0"/>
<path d="M159.282 53.7418L154.978 54.5668L155.46 51.4272L158.546 50.2275L159.282 53.7418Z" fill="#EEC8C0"/>
<path d="M156.08 48.1536C156.543 48.3606 157.03 48.5104 157.529 48.5996C157.654 48.5996 157.775 48.6397 157.899 48.6486C162.386 49.1882 166.846 44.7152 167.987 38.4448C169.147 32.0184 166.364 26.1138 161.744 25.2843C157.123 24.4548 152.454 28.9948 151.286 35.4256C150.26 41.1786 152.356 46.4857 156.08 48.1536ZM153.685 35.8627C154.648 30.5646 157.462 26.5553 160.196 26.3591C160.396 26.3368 160.598 26.3368 160.798 26.3591C161.2 26.3908 161.599 26.4474 161.993 26.5286C164.415 27.0191 166.694 32.0407 165.65 37.8027C164.696 43.2479 161.311 47.3509 158.006 47.3642C157.782 47.3701 157.558 47.3537 157.338 47.3152H157.293H157.137L157.039 47.2929C156.816 47.244 156.6 47.1676 156.397 47.0654C153.935 45.8479 152.735 41.1385 153.685 35.8761V35.8627Z" fill="#FF6C0E"/>
<path opacity="0.4" d="M156.004 47.0028C156.002 46.9851 156.002 46.967 156.004 46.9493L157.744 47.3551C161.334 47.3551 164.656 43.2254 165.655 37.8337C166.716 32.0718 164.487 27.0769 161.847 26.5596C161.418 26.4736 160.984 26.4126 160.549 26.3767C160.185 26.3265 159.819 26.2982 159.452 26.292C156.482 26.457 153.306 30.4841 152.454 35.8045C151.652 40.7459 152.869 46.2001 156.004 47.0028Z" fill="#FAFAFA"/>
<path d="M154.055 63.2007C155.777 64.931 156.731 63.2497 156.731 63.2497L156.87 61.506L157.494 53.6525L157.686 51.2264L157.726 50.7804L157.891 48.6844L157.993 47.3777L158.02 47.0655L156.397 46.9941C156.394 47.0119 156.394 47.0299 156.397 47.0477C156.357 47.1815 156.245 47.5873 156.085 48.1804C156.044 48.3499 155.991 48.5327 155.942 48.7379C155.643 49.8706 155.246 51.4583 154.863 53.1753C153.935 57.3273 153.101 62.2418 154.055 63.2007Z" fill="#263238"/>
<path d="M170.632 102.071C170.632 102.071 170.989 114.599 171.078 117.881C171.346 128.473 174.177 150.182 174.177 150.182L177.834 150.08C177.834 150.08 178.914 128.254 177.268 119.477C177.208 119.141 177.208 118.797 177.268 118.461L179.814 102.785L170.632 102.071Z" fill="#EEC8C0"/>
<path d="M180.028 101.568C180.028 101.568 182.405 111.379 184.845 117.199C187.797 124.228 200.454 147.021 200.454 147.021L202.889 144.733C202.889 144.733 196.543 125.441 190.977 115.652C190.602 115.102 190.34 114.484 190.205 113.832C189.813 110.777 189.795 101.835 188.422 98.7314L180.028 101.568Z" fill="#FBD3CD"/>
<path d="M186.995 55.994C186.995 56.0431 186.995 56.0877 186.995 56.1412C186.995 56.1947 186.995 56.1412 186.995 56.1412C186.954 56.5872 186.896 57.1714 186.834 57.8091C186.837 57.8209 186.837 57.8331 186.834 57.8448C186.388 62.2019 185.496 69.935 185.581 73.6901C185.588 73.7434 185.588 73.7973 185.581 73.8507C185.575 73.9568 185.556 74.0618 185.523 74.1628C185.437 74.4397 185.275 74.687 185.056 74.8769C184.837 75.0668 184.569 75.1917 184.283 75.2376C182.844 75.4781 181.392 75.6345 179.935 75.7059H179.592C179.612 75.5896 179.621 75.4716 179.618 75.3536C179.612 75.1117 179.553 74.8741 179.444 74.6579C178.401 74.6579 177.353 74.6579 176.381 74.6579H176.01C173.99 74.6222 172.309 74.5419 171.577 74.5018C171.58 74.5449 171.58 74.588 171.577 74.6311C171.563 74.5888 171.551 74.5456 171.542 74.5018C171.53 74.4566 171.522 74.4102 171.519 74.3635C171.252 71.2799 170.676 68.2307 169.802 65.2613C169.357 63.5131 169.031 62.1395 169.245 60.6009C169.597 58.0812 170.516 56.3419 170.543 55.499C170.552 55.2196 170.636 54.9477 170.787 54.7122C170.938 54.4767 171.149 54.2863 171.399 54.1611C171.792 53.9549 172.2 53.7804 172.621 53.6393C173.415 53.4128 174.229 53.2635 175.052 53.1934V53.2157L175.234 53.9158L175.266 53.956L176.158 55.1244L176.421 55.1824L177.553 55.4232L178.78 55.1958L178.985 55.1601L180.689 54.063L181.317 53.5546L181.393 53.4743L181.433 53.4431C182.905 53.6635 184.364 53.9613 185.804 54.335C186.169 54.4207 186.492 54.6361 186.711 54.9411C186.929 55.2462 187.03 55.6203 186.995 55.994Z" fill="#407BFF"/>
<path d="M180.698 53.3718C179.534 52.2167 179.832 46.874 179.832 46.874L176.595 49.2154C176.595 49.2154 176.492 52.5155 175.703 53.1756C175.524 53.3317 175.257 53.2112 175.025 53.2335L175.248 54.0675L175.895 55.0888L176.76 55.6685L178.008 55.6329L179.123 55.2805L180.381 54.3485L181.402 53.4565C181.197 53.4387 180.867 53.5368 180.698 53.3718Z" fill="#EEC8C0"/>
<path opacity="0.1" d="M176.389 50.1336C178.556 49.8259 179.511 48.6664 179.957 47.7611L179.836 46.8691L176.599 49.2105L176.389 50.1336Z" fill="black"/>
<path d="M173.843 149.777L178.008 149.536C178.084 149.531 178.16 149.552 178.222 149.596C178.285 149.64 178.33 149.703 178.351 149.777L179.297 153.121C179.318 153.192 179.325 153.266 179.317 153.339C179.31 153.411 179.287 153.482 179.252 153.547C179.217 153.611 179.169 153.668 179.112 153.713C179.054 153.759 178.988 153.793 178.918 153.813C178.88 153.825 178.841 153.832 178.802 153.835C177.299 153.897 175.961 153.889 174.092 154C171.885 154.129 172.46 154.361 169.869 154.549C168.308 154.66 167.92 152.899 168.58 152.765C171.586 152.207 171.849 151.275 172.955 150.12C173.199 149.901 173.515 149.779 173.843 149.777Z" fill="#263238"/>
<path d="M200.213 145.514L202.532 143.694C202.591 143.646 202.665 143.62 202.742 143.62C202.818 143.62 202.892 143.646 202.951 143.694L205.458 146.022C205.516 146.066 205.566 146.121 205.603 146.184C205.64 146.247 205.665 146.317 205.675 146.389C205.685 146.462 205.681 146.535 205.663 146.606C205.645 146.677 205.613 146.744 205.569 146.802C205.546 146.835 205.519 146.865 205.489 146.892C204.329 147.846 203.941 148.024 202.519 149.237C200.837 150.669 201.435 150.508 199.482 152.221C198.304 153.251 196.931 152.083 197.381 151.588C199.446 149.327 199.531 147.931 199.718 146.343C199.774 146.015 199.95 145.719 200.213 145.514Z" fill="#263238"/>
<path d="M186.214 74.9116C186.053 74.6351 185.888 74.372 185.71 74.1134C185.657 74.0231 185.597 73.9366 185.531 73.8547C185.469 73.761 185.407 73.6674 185.34 73.5827L171.385 72.8379C171.385 72.8379 171.452 73.4845 171.51 74.5281C172.242 74.5682 173.923 74.6485 175.943 74.6842H176.313C177.286 74.6842 178.334 74.6842 179.377 74.6842C179.486 74.9004 179.545 75.138 179.551 75.3799C179.554 75.4979 179.545 75.6159 179.524 75.7322C179.473 76.0134 179.352 76.2771 179.172 76.4993C178.316 76.5439 177.446 76.5751 176.608 76.6019H176.162C174.627 76.6678 173.091 76.6439 171.559 76.5305C171.6 78.4777 171.488 80.4251 171.225 82.3549C170.132 89.8159 169.691 99.2705 170.694 105.621V105.684C170.694 105.759 170.721 105.831 170.739 105.907C173.538 106.368 176.376 106.554 179.212 106.46C180.039 106.442 180.865 106.372 181.683 106.25C184.113 105.902 186.629 106.103 189.478 104.493C189.532 104.479 192.034 84.8122 186.214 74.9116Z" fill="#407BFF"/>
<path d="M179.569 75.3803C179.572 75.4983 179.563 75.6163 179.542 75.7326C179.491 76.0137 179.37 76.2774 179.19 76.4996C178.334 76.5442 177.464 76.5754 176.626 76.6022H176.18C174.646 76.6681 173.109 76.6443 171.577 76.5309C171.577 75.8262 171.546 75.1929 171.515 74.6489C171.517 74.6058 171.517 74.5626 171.515 74.5195C172.246 74.5597 173.928 74.6399 175.948 74.6756H176.318C177.29 74.6756 178.338 74.6756 179.382 74.6756C179.496 74.8934 179.56 75.1343 179.569 75.3803Z" fill="#263238"/>
<path d="M186.807 76.009C186.807 76.009 183.266 76.3033 179.614 76.455L179.19 76.4773C179.37 76.2551 179.491 75.9913 179.542 75.7102C179.563 75.5939 179.572 75.4759 179.569 75.3579C179.563 75.116 179.504 74.8784 179.395 74.6622H179.761C181.676 74.6527 183.587 74.4841 185.474 74.1582C185.554 74.1582 185.634 74.1226 185.71 74.1047L185.92 74.0557C186.112 74.6178 186.352 75.1624 186.638 75.6834L186.807 76.009Z" fill="#263238"/>
<path d="M175.011 53.1484C175.011 53.1484 176.193 57.3896 181.438 53.474C181.438 53.474 176.028 59.9851 175.011 53.1484Z" fill="#407BFF"/>
<path opacity="0.5" d="M175.011 53.1484C175.011 53.1484 176.193 57.3896 181.438 53.474C181.438 53.474 176.028 59.9851 175.011 53.1484Z" fill="black"/>
<path d="M176.777 55.6678C176.871 55.6545 176.967 55.6611 177.058 55.6872C177.149 55.7133 177.233 55.7584 177.306 55.8194C177.378 55.8804 177.437 55.9561 177.478 56.0413C177.52 56.1266 177.542 56.2197 177.545 56.3144C177.548 56.409 177.531 56.5033 177.495 56.5909C177.459 56.6785 177.405 56.7575 177.336 56.8228C177.267 56.888 177.186 56.938 177.096 56.9696C177.007 57.0011 176.912 57.0134 176.817 57.0057L176.777 55.6678Z" fill="white"/>
<path d="M181.094 43.4178C180.474 46.1829 180.269 47.3602 178.632 48.5643C176.166 50.3794 172.906 49.0103 172.683 46.1204C172.491 43.516 173.535 39.4309 176.447 38.7664C177.088 38.6159 177.757 38.6316 178.39 38.8122C179.024 38.9927 179.601 39.332 180.066 39.7979C180.531 40.2638 180.87 40.8408 181.05 41.4743C181.23 42.1079 181.245 42.7768 181.094 43.4178Z" fill="#EEC8C0"/>
<path d="M176.528 43.4303C176.487 43.6578 176.336 43.8228 176.193 43.8005C176.05 43.7782 175.952 43.573 175.988 43.3545C176.024 43.136 176.175 42.9621 176.322 42.9844C176.47 43.0066 176.55 43.2118 176.528 43.4303Z" fill="#263238"/>
<path d="M173.958 43.0253C173.918 43.2572 173.771 43.4178 173.624 43.3955C173.477 43.3732 173.383 43.168 173.419 42.9495C173.455 42.731 173.606 42.557 173.753 42.5838C173.901 42.6105 173.994 42.8023 173.958 43.0253Z" fill="#263238"/>
<path d="M173.816 42.5968L173.299 42.3516C173.299 42.3516 173.508 42.8243 173.816 42.5968Z" fill="#263238"/>
<path d="M174.686 43.5645C174.401 44.0572 174.048 44.5075 173.638 44.9024C173.741 45.0036 173.866 45.0811 174.002 45.1296C174.138 45.1781 174.283 45.1964 174.427 45.1833L174.686 43.5645Z" fill="#ED893E"/>
<path d="M177.629 43.0828C177.601 43.0825 177.573 43.0733 177.55 43.0566C177.526 43.0398 177.509 43.0162 177.5 42.9892C177.406 42.7898 177.272 42.612 177.106 42.467C176.941 42.3219 176.747 42.2127 176.537 42.1463C176.502 42.1351 176.473 42.1104 176.456 42.0778C176.439 42.0452 176.436 42.0073 176.447 41.9724C176.458 41.9388 176.481 41.9107 176.512 41.894C176.542 41.8773 176.579 41.8734 176.612 41.8832C176.865 41.9607 177.098 42.0922 177.295 42.2685C177.492 42.4448 177.649 42.6618 177.754 42.9044C177.759 42.9211 177.761 42.9387 177.76 42.9562C177.758 42.9737 177.753 42.9907 177.745 43.0061C177.737 43.0215 177.725 43.0351 177.711 43.046C177.698 43.0569 177.682 43.0649 177.665 43.0695C177.654 43.0773 177.642 43.0819 177.629 43.0828Z" fill="#263238"/>
<path d="M173.379 41.7185C173.354 41.718 173.331 41.7111 173.309 41.6986C173.288 41.6861 173.271 41.6684 173.259 41.6471C173.242 41.6161 173.238 41.58 173.247 41.546C173.256 41.512 173.278 41.4828 173.308 41.4643C173.492 41.3488 173.701 41.2799 173.918 41.2635C174.135 41.2472 174.353 41.284 174.552 41.3706C174.568 41.3778 174.582 41.3881 174.593 41.4007C174.605 41.4134 174.614 41.4283 174.62 41.4445C174.625 41.4607 174.628 41.4779 174.627 41.4951C174.626 41.5123 174.622 41.5291 174.614 41.5446C174.607 41.5604 174.596 41.5745 174.583 41.5861C174.57 41.5977 174.554 41.6064 174.538 41.6119C174.521 41.6173 174.503 41.6193 174.486 41.6177C174.468 41.6161 174.451 41.6109 174.436 41.6025C174.279 41.5386 174.109 41.5129 173.94 41.5277C173.771 41.5424 173.607 41.5971 173.464 41.6873C173.44 41.7069 173.41 41.7179 173.379 41.7185Z" fill="#263238"/>
<path d="M176.385 43.0201L175.867 42.7793C175.867 42.7793 176.077 43.2476 176.385 43.0201Z" fill="#263238"/>
<path d="M182.78 45.1386C181.331 46.1287 181.192 48.198 179.814 49.2817C179.475 48.3317 180.015 46.8021 180.26 45.6782C180.305 45.5589 180.305 45.4274 180.26 45.3081C180.149 45.1252 179.841 45.1698 179.703 45.3393C179.59 45.5271 179.539 45.7453 179.556 45.9636C179.511 45.8566 179.471 45.7496 179.431 45.647C179.333 46.093 179.244 46.4988 179.145 46.9225C179.09 46.5941 179.069 46.2607 179.083 45.928C179.098 45.6854 179.158 45.4479 179.261 45.2278C175.377 35.5101 175.845 36.2727 180.037 36.7544C181.777 36.9551 183.235 38.3911 183.73 40.0769C184.225 41.7626 184.765 43.7962 182.78 45.1386Z" fill="#263238"/>
<path d="M181.509 45.683C181.252 46.1558 180.82 46.5084 180.305 46.6641C179.622 46.8604 179.27 46.2494 179.453 45.5938C179.627 45.0051 180.184 44.1979 180.875 44.2559C181.028 44.2788 181.171 44.3395 181.294 44.4324C181.416 44.5254 181.514 44.6475 181.577 44.7878C181.64 44.928 181.666 45.0818 181.655 45.2351C181.643 45.3884 181.593 45.5363 181.509 45.6652V45.683Z" fill="#EEC8C0"/>
<path d="M174.218 46.1914C174.289 46.5593 174.334 46.9319 174.352 47.3063L174.552 47.3286C175.444 47.4223 175.89 47.1681 176.113 46.8604C176.209 46.7124 176.27 46.5447 176.292 46.3698C176.306 46.2663 176.306 46.1611 176.292 46.0576C175.716 46.2425 175.109 46.3048 174.508 46.2405L174.218 46.1914Z" fill="#2E353A"/>
<path d="M174.507 46.218L174.552 46.5436C175.395 46.6283 176.001 46.5792 176.291 46.3473C176.306 46.2438 176.306 46.1387 176.291 46.0352C175.716 46.22 175.108 46.2823 174.507 46.218Z" fill="white"/>
<path d="M174.552 47.3285C175.444 47.4221 175.89 47.1679 176.113 46.8602C175.773 46.8327 175.43 46.8643 175.101 46.9539C174.883 47.0177 174.691 47.1488 174.552 47.3285Z" fill="#DE5753"/>
<path d="M180.26 46.4102L179.957 47.9042L180.144 48.2921L180.47 47.8863L180.26 46.4102Z" fill="#407BFF"/>
<path d="M186.994 56.7566C186.9 57.4109 186.772 58.0599 186.611 58.701C183.15 69.1991 178.347 69.0118 177.076 66.8845C176.26 66.5813 176.706 54.6516 176.184 52.2567L178.186 51.6279C178.632 52.6447 179.547 64.1507 180.376 62.4293C180.822 61.5374 182.231 58.6207 182.463 57.6441C182.64 56.885 183.052 56.2016 183.642 55.6925C184.232 55.1835 184.969 54.8752 185.746 54.8121C186.151 54.9354 186.499 55.1986 186.727 55.5548C186.956 55.9111 187.051 56.337 186.994 56.7566Z" fill="#FBD3CD"/>
<path d="M177.674 53.5273C176.002 53.8974 174.419 52.5907 174.419 52.5907L176.474 48.7197L178.205 51.8906L177.674 53.5273Z" fill="#FBD3CD"/>
<path d="M176.483 48.7201L174.427 52.5911L172.281 50.2409L173.289 47.0879L176.483 48.7201Z" fill="#FBD3CD"/>
<path d="M177.232 36.6567C176.053 36.9598 174.988 37.5992 174.166 38.4972C173.344 39.3952 172.801 40.5128 172.603 41.714C173.191 41.6025 173.455 42.0172 174.034 42.1599C174.536 41.1639 175.344 40.3555 176.34 39.8543C176.611 40.5708 176.88 41.2918 177.147 42.0172C177.294 42.4097 177.5 43.3016 177.5 43.3016C178.072 43.3227 178.643 43.3808 179.208 43.4755C179.208 43.4755 179.952 40.5901 179.248 38.6635C178.949 37.843 178.583 36.9733 177.834 36.5273L177.232 36.6567Z" fill="#263238"/>
<path d="M182.143 74.2129L181.336 74.2295L181.392 76.9404L182.199 76.9238L182.143 74.2129Z" fill="#407BFF"/>
<path d="M173.991 74.3847L173.184 74.4014L173.24 77.1123L174.047 77.0957L173.991 74.3847Z" fill="#407BFF"/>
<path d="M179.119 74.6488C178.961 74.2448 178.685 73.8977 178.327 73.653C177.969 73.4083 177.545 73.2773 177.112 73.2773C176.678 73.2773 176.254 73.4083 175.896 73.653C175.538 73.8977 175.262 74.2448 175.105 74.6488L175.047 74.8005H175.649L175.68 74.738C175.807 74.4756 176.005 74.2535 176.25 74.0961C176.496 73.9387 176.78 73.8522 177.072 73.8461C177.376 73.8392 177.677 73.9195 177.937 74.0775C178.198 74.2355 178.408 74.4647 178.543 74.738C178.642 74.941 178.696 75.1633 178.699 75.3891C178.701 75.4998 178.692 75.6103 178.673 75.7192C178.62 75.9803 178.505 76.2249 178.338 76.4327C178.194 76.6088 178.014 76.752 177.81 76.8527C177.606 76.9534 177.383 77.0092 177.156 77.0164C176.928 77.0236 176.702 76.982 176.492 76.8944C176.282 76.8068 176.094 76.6752 175.939 76.5085L175.908 76.4684H175.216L175.337 76.6379C175.542 76.932 175.817 77.1704 176.137 77.3314C176.457 77.4924 176.813 77.5709 177.171 77.5599C177.529 77.5488 177.879 77.4485 178.189 77.268C178.499 77.0875 178.758 76.8326 178.945 76.5264C179.097 76.2825 179.196 76.0088 179.235 75.7236C179.258 75.6032 179.267 75.4804 179.261 75.3579C179.256 75.1149 179.208 74.8748 179.119 74.6488Z" fill="white"/>
<g opacity="0.7">
<path opacity="0.7" d="M121.005 32.6499H106.831C106.157 32.6621 105.488 32.5306 104.869 32.2641C104.25 31.9976 103.694 31.6023 103.24 31.1044C102.786 30.6066 102.443 30.0177 102.234 29.3769C102.025 28.7361 101.955 28.0581 102.028 27.3881L103.962 5.26552C104.108 3.83988 104.77 2.51698 105.825 1.54686C106.88 0.576751 108.254 0.0266431 109.686 0.000518372H123.86C124.533 -0.0094281 125.201 0.123867 125.818 0.391553C126.435 0.659239 126.989 1.05519 127.441 1.55313C127.894 2.05107 128.236 2.6396 128.444 3.27965C128.651 3.91971 128.721 4.59664 128.647 5.26552L126.71 27.3881C126.565 28.8105 125.905 30.1308 124.854 31.1001C123.803 32.0694 122.434 32.6206 121.005 32.6499Z" fill="#407BFF"/>
<path opacity="0.5" d="M121.005 32.6499H106.831C106.157 32.6621 105.488 32.5306 104.869 32.2641C104.25 31.9976 103.694 31.6023 103.24 31.1044C102.786 30.6066 102.443 30.0177 102.234 29.3769C102.025 28.7361 101.955 28.0581 102.028 27.3881L103.962 5.26552C104.108 3.83988 104.77 2.51698 105.825 1.54686C106.88 0.576751 108.254 0.0266431 109.686 0.000518372H123.86C124.533 -0.0094281 125.201 0.123867 125.818 0.391553C126.435 0.659239 126.989 1.05519 127.441 1.55313C127.894 2.05107 128.236 2.6396 128.444 3.27965C128.651 3.91971 128.721 4.59664 128.647 5.26552L126.71 27.3881C126.565 28.8105 125.905 30.1308 124.854 31.1001C123.803 32.0694 122.434 32.6206 121.005 32.6499Z" fill="white"/>
</g>
<path d="M120.96 29.6569H109.504C109.382 29.6592 109.261 29.6352 109.149 29.5866C109.037 29.538 108.937 29.4658 108.855 29.375C108.773 29.2842 108.712 29.1769 108.676 29.0604C108.639 28.9439 108.628 28.8208 108.643 28.6996C108.666 28.4416 108.784 28.2013 108.974 28.0247C109.163 27.8481 109.411 27.7476 109.67 27.7423H121.126C121.248 27.74 121.369 27.764 121.481 27.8126C121.593 27.8613 121.693 27.9334 121.775 28.0242C121.857 28.115 121.918 28.2223 121.955 28.3388C121.991 28.4554 122.002 28.5784 121.987 28.6996C121.964 28.9576 121.846 29.1979 121.656 29.3745C121.467 29.5512 121.219 29.6517 120.96 29.6569Z" fill="white"/>
<path d="M122.204 15.4254H114.31C114.188 15.4283 114.066 15.4047 113.954 15.3562C113.842 15.3078 113.741 15.2356 113.659 15.1447C113.578 15.0538 113.516 14.9463 113.48 14.8295C113.444 14.7127 113.433 14.5895 113.449 14.4682C113.471 14.2099 113.589 13.9692 113.779 13.7924C113.968 13.6157 114.217 13.5154 114.476 13.5109H122.37C122.492 13.5086 122.614 13.5326 122.726 13.5812C122.838 13.6298 122.938 13.702 123.02 13.7928C123.101 13.8836 123.163 13.9909 123.199 14.1074C123.236 14.2239 123.247 14.347 123.232 14.4682C123.208 14.7262 123.091 14.9665 122.901 15.1431C122.711 15.3197 122.463 15.4202 122.204 15.4254Z" fill="white"/>
<path d="M121.879 19.1266H111.349C111.226 19.1295 111.105 19.1059 110.993 19.0574C110.88 19.0089 110.78 18.9368 110.698 18.8459C110.616 18.755 110.555 18.6474 110.519 18.5307C110.482 18.4139 110.471 18.2906 110.487 18.1693C110.51 17.9116 110.627 17.6713 110.816 17.4947C111.005 17.318 111.253 17.2174 111.511 17.2121H122.041C122.164 17.2098 122.285 17.2337 122.397 17.2824C122.509 17.331 122.609 17.4032 122.691 17.4939C122.772 17.5847 122.834 17.692 122.87 17.8086C122.907 17.9251 122.918 18.0481 122.903 18.1693C122.88 18.4271 122.763 18.6673 122.574 18.844C122.385 19.0207 122.137 19.1213 121.879 19.1266Z" fill="white"/>
<path d="M121.554 22.8541H113.659C113.537 22.8565 113.416 22.8325 113.304 22.7838C113.192 22.7352 113.092 22.6631 113.01 22.5723C112.928 22.4815 112.867 22.3742 112.831 22.2577C112.794 22.1411 112.783 22.0181 112.798 21.8969C112.821 21.6386 112.938 21.3979 113.128 21.2212C113.318 21.0444 113.566 20.9441 113.825 20.9396H121.72C121.842 20.9373 121.963 20.9613 122.075 21.0099C122.187 21.0585 122.287 21.1307 122.369 21.2215C122.451 21.3123 122.512 21.4196 122.549 21.5361C122.585 21.6526 122.596 21.7757 122.581 21.8969C122.558 22.1552 122.441 22.3959 122.251 22.5726C122.061 22.7493 121.813 22.8496 121.554 22.8541Z" fill="white"/>
<path d="M121.228 26.5681H113.334C113.211 26.5704 113.09 26.5464 112.978 26.4978C112.866 26.4492 112.766 26.377 112.684 26.2862C112.602 26.1954 112.541 26.0881 112.505 25.9716C112.468 25.8551 112.457 25.732 112.472 25.6108C112.496 25.3528 112.613 25.1125 112.803 24.9359C112.992 24.7593 113.24 24.6588 113.499 24.6536H121.394C121.516 24.6507 121.638 24.6743 121.75 24.7228C121.862 24.7712 121.963 24.8434 122.044 24.9343C122.126 25.0252 122.187 25.1327 122.224 25.2495C122.26 25.3663 122.271 25.4895 122.255 25.6108C122.233 25.8691 122.115 26.1098 121.925 26.2865C121.736 26.4633 121.487 26.5636 121.228 26.5681Z" fill="white"/>
<path opacity="0.3" d="M123.063 11.7498H108.04L108.812 2.93652H123.835L123.063 11.7498Z" fill="black"/>
<g opacity="0.7">
<path opacity="0.7" d="M274.048 44.4133C273.214 46.7565 271.73 48.814 269.77 50.3452C267.81 51.8765 265.455 52.8183 262.979 53.0606C261.651 53.1733 260.313 53.0534 259.025 52.7064C256.855 52.1302 254.93 50.8648 253.54 49.1007L263.014 41.4138L251.983 38.4143C253.974 32.7824 259.641 29.2086 265.206 29.7989C265.809 29.858 266.407 29.9647 266.993 30.118C273.097 31.7581 276.25 38.1591 274.048 44.4133Z" fill="#407BFF"/>
<path opacity="0.5" d="M274.048 44.4133C273.214 46.7565 271.73 48.814 269.77 50.3452C267.81 51.8765 265.455 52.8183 262.979 53.0606C261.651 53.1733 260.313 53.0534 259.025 52.7064C256.855 52.1302 254.93 50.8648 253.54 49.1007L263.014 41.4138L251.983 38.4143C253.974 32.7824 259.641 29.2086 265.206 29.7989C265.809 29.858 266.407 29.9647 266.993 30.118C273.097 31.7581 276.25 38.1591 274.048 44.4133Z" fill="white"/>
<path opacity="0.7" d="M276.186 44.4132C274.201 50.0356 268.528 53.6062 262.979 53.0287C265.451 52.789 267.803 51.8519 269.763 50.3266C271.723 48.8012 273.209 46.7505 274.048 44.4132C276.25 38.175 273.091 31.774 267.006 30.1179C266.42 29.9646 265.822 29.8579 265.219 29.7988C266.538 29.6862 267.866 29.8061 269.144 30.153C275.235 31.7804 278.381 38.175 276.186 44.4132Z" fill="#407BFF"/>
<g opacity="0.3">
<path opacity="0.3" d="M276.186 44.4132C274.201 50.0356 268.528 53.6062 262.979 53.0287C265.451 52.789 267.804 51.8519 269.763 50.3266C271.723 48.8012 273.209 46.7505 274.048 44.4132C276.25 38.175 273.091 31.774 267.006 30.1179C266.42 29.9646 265.822 29.8579 265.219 29.7988C266.538 29.6862 267.866 29.8061 269.144 30.153C275.235 31.7804 278.382 38.175 276.186 44.4132Z" fill="white"/>
</g>
</g>
<g opacity="0.7">
<path opacity="0.7" d="M260.433 41.8575L250.956 49.5444L248.818 49.5252L258.291 41.8383L247.26 38.8389L249.398 38.8548L260.433 41.8575Z" fill="#407BFF"/>
<path opacity="0.3" d="M260.433 41.8575L250.956 49.5444L248.818 49.5252L258.291 41.8383L247.26 38.8389L249.398 38.8548L260.433 41.8575Z" fill="white"/>
<path opacity="0.7" d="M258.278 41.8379L248.817 49.5184C246.583 46.6944 245.885 42.7313 247.26 38.832L258.278 41.8379Z" fill="#407BFF"/>
<g opacity="0.5">
<path opacity="0.5" d="M258.278 41.8379L248.817 49.5184C246.584 46.6944 245.885 42.7313 247.26 38.832L258.278 41.8379Z" fill="white"/>
</g>
</g>
<g opacity="0.8">
<path opacity="0.8" d="M141.371 65.7236H109.65C109.276 65.7303 108.905 65.6573 108.561 65.5095C108.217 65.3616 107.909 65.1423 107.657 64.8661C107.405 64.5899 107.214 64.2632 107.098 63.9076C106.981 63.5521 106.942 63.1758 106.982 62.8039L108.026 50.8156C108.106 50.0221 108.476 49.286 109.065 48.7475C109.653 48.2091 110.419 47.906 111.217 47.8959H142.941C143.315 47.8892 143.686 47.9621 144.029 48.11C144.373 48.2579 144.681 48.4772 144.933 48.7535C145.185 49.0297 145.375 49.3565 145.491 49.7121C145.607 50.0677 145.646 50.4439 145.605 50.8156L144.555 62.8039C144.474 63.5961 144.105 64.3309 143.518 64.8691C142.931 65.4073 142.167 65.7113 141.371 65.7236Z" fill="#407BFF"/>
<path opacity="0.5" d="M141.371 65.7236H109.65C109.276 65.7303 108.905 65.6573 108.561 65.5095C108.217 65.3616 107.909 65.1423 107.657 64.8661C107.405 64.5899 107.214 64.2632 107.098 63.9076C106.981 63.5521 106.942 63.1758 106.982 62.8039L108.026 50.8156C108.106 50.0221 108.476 49.286 109.065 48.7475C109.653 48.2091 110.419 47.906 111.217 47.8959H142.941C143.315 47.8892 143.686 47.9621 144.029 48.11C144.373 48.2579 144.681 48.4772 144.933 48.7535C145.185 49.0297 145.375 49.3565 145.491 49.7121C145.607 50.0677 145.646 50.4439 145.605 50.8156L144.555 62.8039C144.474 63.5961 144.105 64.3309 143.518 64.8691C142.931 65.4073 142.167 65.7113 141.371 65.7236Z" fill="white"/>
</g>
<path d="M116.67 63.5445H114.028C113.992 63.5452 113.956 63.5382 113.923 63.5237C113.89 63.5093 113.86 63.4879 113.836 63.461C113.811 63.434 113.793 63.4021 113.782 63.3675C113.772 63.3329 113.768 63.2964 113.773 63.2605L114.88 50.6053C114.889 50.5269 114.926 50.4545 114.985 50.4021C115.044 50.3496 115.12 50.3209 115.199 50.3213H117.838C117.875 50.3206 117.911 50.3277 117.944 50.3421C117.977 50.3565 118.007 50.3779 118.032 50.4047C118.056 50.4316 118.075 50.4634 118.086 50.498C118.097 50.5326 118.101 50.5692 118.097 50.6053L116.989 63.2605C116.981 63.3389 116.943 63.4113 116.884 63.4637C116.826 63.5162 116.749 63.545 116.67 63.5445Z" fill="white"/>
<path d="M138.301 63.5444H135.662C135.626 63.5451 135.59 63.538 135.557 63.5236C135.523 63.5093 135.493 63.4879 135.469 63.461C135.444 63.4341 135.426 63.4023 135.415 63.3677C135.404 63.3331 135.4 63.2966 135.404 63.2604L136.511 50.6053C136.52 50.5269 136.557 50.4545 136.616 50.402C136.675 50.3496 136.751 50.3208 136.83 50.3213H139.472C139.508 50.3211 139.544 50.3285 139.577 50.3431C139.61 50.3577 139.64 50.3791 139.664 50.4059C139.688 50.4327 139.706 50.4644 139.717 50.4988C139.728 50.5331 139.732 50.5694 139.728 50.6053L138.62 63.2604C138.612 63.3388 138.574 63.4113 138.515 63.4637C138.456 63.5162 138.38 63.5449 138.301 63.5444Z" fill="white"/>
<path d="M127.861 63.5441H125.222C125.186 63.5448 125.15 63.5377 125.117 63.5233C125.083 63.5089 125.053 63.4876 125.029 63.4607C125.004 63.4338 124.986 63.402 124.975 63.3674C124.963 63.3328 124.96 63.2962 124.964 63.2601L125.691 54.9637C125.7 54.8853 125.738 54.8129 125.796 54.7605C125.855 54.708 125.932 54.6793 126.011 54.6797H128.649C128.686 54.679 128.722 54.6861 128.755 54.7005C128.789 54.7149 128.819 54.7363 128.843 54.7631C128.867 54.79 128.886 54.8218 128.897 54.8564C128.908 54.891 128.912 54.9276 128.908 54.9637L128.18 63.2601C128.172 63.3385 128.134 63.4109 128.075 63.4634C128.016 63.5158 127.94 63.5446 127.861 63.5441Z" fill="white"/>
<path d="M122.312 63.5447H119.673C119.637 63.5453 119.601 63.5383 119.567 63.5239C119.534 63.5095 119.504 63.4881 119.479 63.4613C119.455 63.4344 119.437 63.4026 119.425 63.368C119.414 63.3334 119.41 63.2968 119.415 63.2607L119.957 57.0926C119.966 57.0142 120.003 56.9418 120.062 56.8894C120.121 56.8369 120.197 56.8082 120.276 56.8086H122.915C122.951 56.808 122.987 56.815 123.021 56.8294C123.054 56.8438 123.084 56.8652 123.109 56.892C123.133 56.9189 123.152 56.9507 123.163 56.9853C123.174 57.0199 123.178 57.0565 123.173 57.0926L122.634 63.2607C122.625 63.3396 122.588 63.4125 122.528 63.465C122.468 63.5175 122.391 63.5459 122.312 63.5447Z" fill="white"/>
<path d="M133.081 63.5438H130.442C130.406 63.5445 130.37 63.5374 130.337 63.523C130.303 63.5086 130.273 63.4873 130.249 63.4604C130.224 63.4335 130.206 63.4017 130.195 63.3671C130.184 63.3325 130.18 63.2959 130.184 63.2598L130.27 62.2674C130.279 62.189 130.316 62.1166 130.375 62.0642C130.434 62.0117 130.51 61.983 130.589 61.9834H133.235C133.271 61.9828 133.307 61.9899 133.34 62.0042C133.374 62.0186 133.404 62.04 133.428 62.0668C133.453 62.0937 133.471 62.1255 133.482 62.1601C133.493 62.1947 133.497 62.2313 133.493 62.2674L133.404 63.2598C133.395 63.3388 133.357 63.4116 133.297 63.4642C133.238 63.5167 133.161 63.5451 133.081 63.5438Z" fill="white"/>
<path opacity="0.3" d="M138.263 49.4726C138.19 49.4429 138.108 49.4414 138.034 49.4686C137.96 49.4957 137.898 49.5494 137.861 49.6194L132.97 59.4314C132.95 59.4804 132.917 59.5229 132.874 59.5541C132.831 59.5853 132.781 59.6039 132.728 59.6079C132.675 59.6119 132.622 59.6011 132.575 59.5766C132.529 59.5522 132.489 59.5152 132.462 59.4697L128.633 51.9136C128.615 51.8802 128.59 51.851 128.56 51.828C128.529 51.8049 128.494 51.7887 128.457 51.7802C128.42 51.7718 128.382 51.7713 128.344 51.7789C128.307 51.7865 128.272 51.802 128.241 51.8243L123.046 55.1141C123.002 55.1412 122.951 55.1555 122.899 55.1555C122.847 55.1555 122.797 55.1412 122.752 55.1141L115.365 50.8543C115.33 50.8361 115.292 50.825 115.252 50.8218C115.213 50.8185 115.173 50.8231 115.136 50.8353C115.098 50.8474 115.063 50.8669 115.033 50.8926C115.003 50.9184 114.978 50.9498 114.96 50.9851L114.941 51.017C114.924 51.0482 114.912 51.0825 114.908 51.118C114.904 51.1536 114.907 51.1896 114.917 51.224C114.927 51.2584 114.943 51.2905 114.965 51.3185C114.988 51.3465 115.015 51.3698 115.046 51.3871L122.705 55.8257C122.749 55.8521 122.8 55.866 122.851 55.866C122.903 55.866 122.954 55.8521 122.998 55.8257L127.986 52.6667C128.017 52.6454 128.052 52.6307 128.089 52.6237C128.126 52.6166 128.164 52.6173 128.201 52.6257C128.238 52.6341 128.273 52.65 128.303 52.6724C128.334 52.6948 128.359 52.7233 128.378 52.756L132.434 60.7333C132.461 60.7779 132.5 60.8141 132.547 60.8381C132.593 60.862 132.646 60.8727 132.698 60.8691C132.75 60.8655 132.8 60.8477 132.843 60.8176C132.886 60.7874 132.92 60.7462 132.941 60.6982L138.366 49.83C138.399 49.7689 138.407 49.6972 138.388 49.6304C138.369 49.5635 138.324 49.5068 138.263 49.4726Z" fill="black"/>
</svg>
