<svg width="43" height="24" viewBox="0 0 43 24" fill="none" xmlns="http://www.w3.org/2000/svg">
<path d="M23.8659 7.06984C23.8659 6.39984 23.5278 5.77984 22.9542 5.40984L18.8566 2.73984C18.1702 2.28984 17.2688 2.28984 16.5824 2.73984L12.4849 5.40984C11.9215 5.77984 11.5732 6.39984 11.5732 7.06984V12.7498C11.5732 13.0298 11.7985 13.2498 12.0854 13.2498H23.3537C23.6405 13.2498 23.8659 13.0298 23.8659 12.7498V7.06984ZM17.7195 10.7498C16.7361 10.7498 15.9268 9.95984 15.9268 8.99984C15.9268 8.03984 16.7361 7.24984 17.7195 7.24984C18.7029 7.24984 19.5122 8.03984 19.5122 8.99984C19.5122 9.95984 18.7029 10.7498 17.7195 10.7498Z" fill="#151940"/>
<path d="M31.0366 21.2501H29.7356V18.2501C30.7088 17.9401 31.4156 17.0501 31.4156 16.0001V14.0001C31.4156 12.6901 30.3195 11.6201 28.9776 11.6201C27.6356 11.6201 26.5395 12.6901 26.5395 14.0001V16.0001C26.5395 17.0401 27.2361 17.9201 28.1888 18.2401V21.2501H23.8659V15.2501C23.8659 14.9701 23.6405 14.7501 23.3537 14.7501H12.0854C11.7985 14.7501 11.5732 14.9701 11.5732 15.2501V21.2501H10.5488C10.1288 21.2501 9.78049 21.5901 9.78049 22.0001C9.78049 22.4101 10.1288 22.7501 10.5488 22.7501H28.9161C28.9366 22.7501 28.9468 22.7601 28.9673 22.7601C28.9878 22.7601 28.998 22.7501 29.0185 22.7501H31.0366C31.4566 22.7501 31.8049 22.4101 31.8049 22.0001C31.8049 21.5901 31.4566 21.2501 31.0366 21.2501ZM16.9512 18.2501C16.9512 17.8401 17.2995 17.5001 17.7195 17.5001C18.1395 17.5001 18.4878 17.8401 18.4878 18.2501V21.2501H16.9512V18.2501Z" fill="#151940"/>
<circle cx="29" cy="11.5" r="6.5" fill="#FF6C0E" stroke="white" stroke-width="0.5"/>
<path d="M26.8339 12.8958C26.8339 13.7054 27.3366 14.5652 28.1339 14.5652H29.8673C30.5606 14.5652 31.1673 14.0225 31.1673 13.3131C31.1673 12.5537 30.8119 12.2365 30.3006 12.0613L27.7006 11.2267C27.1893 11.0514 26.8339 10.7426 26.8339 9.97485C26.8339 9.27381 27.4406 8.72299 28.1339 8.72299L29.8673 8.71484C30.6646 8.71484 31.1673 9.16531 31.1673 9.97485" stroke="white" stroke-width="0.8" stroke-linecap="round" stroke-linejoin="round"/>
<path d="M29.0008 7.88867V15.3998" stroke="white" stroke-width="0.8" stroke-linecap="round" stroke-linejoin="round"/>
</svg>
