<svg width="36"
    height="36"
    viewBox="0 0 36 36"
    fill="none"
    xmlns="http://www.w3.org/2000/svg">
    <path fill-rule="evenodd"
        clip-rule="evenodd"
        d="M32 4H4C2.89543 4 2 4.89543 2 6V30C2 31.1046 2.89543 32 4 32H32C33.1046 32 34 31.1046 34 30V6C34 4.89543 33.1046 4 32 4ZM8.92 14C10.5769 14 11.92 12.6569 11.92 11C11.92 9.34315 10.5769 8 8.92 8C7.26315 8 5.92 9.34315 5.92 11C5.92 12.6569 7.26315 14 8.92 14ZM22.78 15.37L17.38 20.77L13.38 16.77C12.99 16.3823 12.36 16.3823 11.97 16.77L5.92 22.9V25.73L12.71 18.94L16 22.18L12.25 25.93H15L23.45 17.48L30 24V21.18L24.19 15.37C23.8 14.9823 23.17 14.9823 22.78 15.37ZM10.4053 10.3807C10.1545 9.7832 9.56803 9.39595 8.92 9.4V9.41C8.04414 9.41546 7.33546 10.1241 7.33 11C7.33001 11.648 7.72093 12.2321 8.32004 12.4791C8.91915 12.7262 9.60811 12.5875 10.0649 12.1278C10.5217 11.6681 10.6561 10.9783 10.4053 10.3807ZM4 6V30H32V6H4Z"
        fill="#737373"/>
</svg>
