<svg width="107" height="76" viewBox="0 0 107 76" fill="none" xmlns="http://www.w3.org/2000/svg">
<path d="M101.668 72.8309C90.9531 97.8765 62.6683 108.634 40.5068 106.8C34.4559 106.299 22.2812 105.292 12.775 96.3018C-5.48072 79.0377 -2.66948 42.9512 14.8066 21.7056C17.057 18.9696 32.635 0.638706 56.9107 0.883783C74.6839 1.06325 87.1585 11.1033 88.6757 12.3541C90.5919 13.9342 94.8184 17.6891 98.6273 23.6454C107.577 37.6414 108.364 57.1799 101.668 72.8309Z" fill="url(#paint0_linear_445_4126)"/>
<path d="M0.0721063 22.5028C-0.210407 22.0362 0.391284 21.4704 0.940487 21.6819C6.51935 23.8316 20.6107 31.1168 24.0437 50.7194C28.3508 75.3139 36.8069 82.0564 45.5664 85.0011C45.5664 85.0011 35.0694 85.6842 26.144 78.9549C4.22991 62.4325 5.09289 30.7984 0.0721063 22.5028Z" fill="#91B3FA"/>
<path d="M5.81558 28.7584C7.21696 31.1976 8.56121 33.6638 9.79701 36.1786C11.0483 38.6858 12.2096 41.2322 13.2767 43.8142C14.3319 46.4004 15.3307 49.0083 16.1991 51.6594C17.0814 54.3058 17.8305 56.9931 18.5719 59.6944C19.3303 62.3891 20.0767 65.1088 21.1466 67.7445C22.2114 70.3759 23.6595 72.9088 25.6104 75.0914C26.0975 75.6348 26.5984 76.172 27.1326 76.6745C27.6555 77.1871 28.2067 77.6768 28.7678 78.1569C29.8967 79.1122 31.1059 79.9964 32.3911 80.7914C34.9673 82.375 37.848 83.5868 40.8611 84.4263C41.1784 84.5146 41.5384 84.351 41.6658 84.0604C41.7909 83.7752 41.6446 83.4741 41.3389 83.3796L41.3366 83.3788C40.6122 83.1557 39.892 82.9253 39.1892 82.666C38.8349 82.5417 38.4887 82.4027 38.139 82.2704C37.7967 82.1256 37.447 81.9932 37.1109 81.8393C35.7539 81.2434 34.454 80.5598 33.2263 79.7895C30.7636 78.2619 28.578 76.3785 26.7096 74.2971C25.7895 73.2458 24.9643 72.1288 24.2446 70.9521C23.5259 69.7746 22.913 68.538 22.3827 67.2632C21.321 64.7125 20.5564 62.0278 19.7757 59.3401C18.9907 56.6527 18.1806 53.9588 17.2435 51.3081C16.7792 49.9816 16.2871 48.6648 15.768 47.3584C15.5129 46.7034 15.2431 46.0543 14.9745 45.4047C14.6989 44.7579 14.4187 44.1129 14.1331 43.4703C12.9838 40.903 11.7433 38.3747 10.4111 35.8919C9.06487 33.416 7.6415 30.978 6.11006 28.6017C6.06606 28.5338 5.96533 28.5153 5.88505 28.56C5.80709 28.6037 5.77699 28.6913 5.81558 28.7584Z" fill="white"/>
<path d="M49.2497 86.1873C49.2497 86.1873 48.0494 33.9393 28.6308 1.59428C27.3256 -0.580145 24.0319 -0.519166 22.8281 1.70891C14.7796 16.6072 -4.5969 62.829 49.2497 86.1873Z" fill="#BDD0FB"/>
<path opacity="0.5" d="M44.7955 81.9229C44.8959 82.0676 44.6863 82.2208 44.5666 82.0904C40.1595 77.2827 23.9934 54.7816 24.6703 16.6735C24.6726 16.5512 24.8629 16.5431 24.8718 16.6654C25.5244 25.6646 28.9512 59.0571 44.7955 81.9229Z" fill="white"/>
<path d="M83.2778 77.5125C83.3234 77.5125 83.3697 77.5098 83.416 77.5048C84.0733 77.4295 84.5445 76.8355 84.4689 76.1783L76.9518 10.7637C76.8765 10.1072 76.2814 9.63639 75.6253 9.71087C74.968 9.78613 74.4968 10.3801 74.5724 11.0374L82.0895 76.4519C82.1598 77.0625 82.6777 77.5125 83.2778 77.5125Z" fill="#91B3FA"/>
<path d="M41.9564 77.5132C42.5045 77.5132 42.9989 77.1346 43.1239 76.5773L57.7907 11.1628C57.9354 10.5175 57.5294 9.87679 56.8841 9.73206C56.2403 9.58849 55.5985 9.99296 55.4534 10.6387L40.7866 76.0532C40.6419 76.6985 41.0475 77.3392 41.6932 77.4839C41.7812 77.5036 41.8696 77.5132 41.9564 77.5132Z" fill="#91B3FA"/>
<path d="M66.7254 77.513C67.3869 77.513 67.923 76.9769 67.923 76.3154V44.0321C67.923 43.3706 67.3869 42.8345 66.7254 42.8345C66.0639 42.8345 65.5278 43.3706 65.5278 44.0321V76.3154C65.5278 76.9769 66.0639 77.513 66.7254 77.513Z" fill="#91B3FA"/>
<path d="M90.6911 3.5824L86.4808 56.6134C86.3916 57.735 85.4414 58.5914 84.3168 58.564L40.3431 57.4915C39.061 57.4602 38.1004 56.3062 38.3023 55.0399L46.7205 2.16096C46.8873 1.11388 47.8023 0.351251 48.8622 0.375565L88.6278 1.29643C89.8443 1.32461 90.7872 2.36937 90.6911 3.5824Z" fill="url(#paint1_linear_445_4126)"/>
<path opacity="0.97" d="M87.0101 2.75567L50.1344 1.90195C49.0742 1.87725 48.1595 2.64027 47.9928 3.68734L40.0492 53.5849C39.8478 54.8512 40.8084 56.0051 42.0901 56.0364L82.9364 57.0325C84.0615 57.0599 85.0113 56.2035 85.1004 55.082L89.0734 5.04201C89.1695 3.8286 88.2266 2.78384 87.0101 2.75567Z" fill="white"/>
<g opacity="0.46">
<path opacity="0.46" d="M66.5954 5.34619L85.2096 5.35352C85.4003 5.35352 85.5535 5.51138 85.5477 5.70203L85.5384 6.00153C85.5326 6.1864 85.3798 6.33267 85.1945 6.32958L66.5892 6.02276C66.4005 6.01967 66.2507 5.86297 66.2565 5.67425C66.2627 5.49131 66.4124 5.34619 66.5954 5.34619Z" fill="url(#paint2_linear_445_4126)"/>
<path opacity="0.46" d="M66.2101 7.23347L66.2062 7.36122C66.2004 7.54802 66.3475 7.70394 66.5343 7.70973L85.1319 8.27321C85.3187 8.279 85.4746 8.13196 85.4804 7.94516L85.4843 7.81741C85.4901 7.63061 85.343 7.47469 85.1562 7.4689L66.5586 6.90542C66.3718 6.90001 66.2159 7.04667 66.2101 7.23347Z" fill="url(#paint3_linear_445_4126)"/>
<path opacity="0.46" d="M71.8047 9.07223L71.8031 9.1282C71.7974 9.31499 71.9444 9.47092 72.1312 9.47671L85.084 9.86921C85.2708 9.875 85.4267 9.72796 85.4325 9.54116L85.4406 9.27794C85.4464 9.08921 85.2962 8.93214 85.1071 8.92943L72.1482 8.74418C71.9629 8.74148 71.8101 8.88775 71.8047 9.07223Z" fill="url(#paint4_linear_445_4126)"/>
</g>
<path d="M80.6707 19.21C81.5672 19.21 82.294 18.4832 82.294 17.5867C82.294 16.6902 81.5672 15.9634 80.6707 15.9634C79.7741 15.9634 79.0474 16.6902 79.0474 17.5867C79.0474 18.4832 79.7741 19.21 80.6707 19.21Z" fill="url(#paint5_linear_445_4126)"/>
<path d="M79.2355 16.895C79.171 18.0154 76.3883 19.1385 74.354 19.7962L74.4389 20.7198C76.9148 19.8093 79.1945 18.687 80.4477 19.1941L79.2355 16.895Z" fill="url(#paint6_linear_445_4126)"/>
<path d="M47.3166 29.4824C48.2132 29.4824 48.9399 28.7557 48.9399 27.8591C48.9399 26.9626 48.2132 26.2358 47.3166 26.2358C46.4201 26.2358 45.6934 26.9626 45.6934 27.8591C45.6934 28.7557 46.4201 29.4824 47.3166 29.4824Z" fill="url(#paint7_linear_445_4126)"/>
<path d="M48.2763 29.1322C48.8467 28.1658 51.8351 28.4425 53.9443 28.7898L54.292 27.9299C51.6741 27.6046 49.1338 27.5579 48.252 26.5332L48.2763 29.1322Z" fill="url(#paint8_linear_445_4126)"/>
<path d="M82.6655 40.0786C83.562 40.0786 84.2888 39.3518 84.2888 38.4553C84.2888 37.5588 83.562 36.832 82.6655 36.832C81.769 36.832 81.0422 37.5588 81.0422 38.4553C81.0422 39.3518 81.769 40.0786 82.6655 40.0786Z" fill="url(#paint9_linear_445_4126)"/>
<path d="M82.448 36.8762C81.4789 37.442 79.0042 35.7442 77.3315 34.4131L76.6086 34.9943C78.736 36.5539 80.932 37.8326 81.2022 39.1571L82.448 36.8762Z" fill="url(#paint10_linear_445_4126)"/>
<path d="M65.4982 44.9875C73.7802 44.9875 80.4941 38.2736 80.4941 29.9916C80.4941 21.7095 73.7802 14.9956 65.4982 14.9956C57.2161 14.9956 50.5022 21.7095 50.5022 29.9916C50.5022 38.2736 57.2161 44.9875 65.4982 44.9875Z" fill="url(#paint11_linear_445_4126)"/>
<path d="M59.6223 29.9907C60.5188 29.9907 61.2456 29.264 61.2456 28.3674C61.2456 27.4709 60.5188 26.7441 59.6223 26.7441C58.7258 26.7441 57.999 27.4709 57.999 28.3674C57.999 29.264 58.7258 29.9907 59.6223 29.9907Z" fill="url(#paint12_linear_445_4126)"/>
<path d="M67.989 31.9526C68.8855 31.9526 69.6123 31.2259 69.6123 30.3293C69.6123 29.4328 68.8855 28.7061 67.989 28.7061C67.0925 28.7061 66.3657 29.4328 66.3657 30.3293C66.3657 31.2259 67.0925 31.9526 67.989 31.9526Z" fill="url(#paint13_linear_445_4126)"/>
<path d="M63.9314 21.4106C64.8279 21.4106 65.5547 20.6839 65.5547 19.7874C65.5547 18.8908 64.8279 18.1641 63.9314 18.1641C63.0349 18.1641 62.3081 18.8908 62.3081 19.7874C62.3081 20.6839 63.0349 21.4106 63.9314 21.4106Z" fill="url(#paint14_linear_445_4126)"/>
<path d="M74.8293 25.044C75.7259 25.044 76.4526 24.3172 76.4526 23.4207C76.4526 22.5241 75.7259 21.7974 74.8293 21.7974C73.9328 21.7974 73.2061 22.5241 73.2061 23.4207C73.2061 24.3172 73.9328 25.044 74.8293 25.044Z" fill="url(#paint15_linear_445_4126)"/>
<path d="M69.6314 38.8687C70.5279 38.8687 71.2546 38.1419 71.2546 37.2454C71.2546 36.3488 70.5279 35.6221 69.6314 35.6221C68.7348 35.6221 68.0081 36.3488 68.0081 37.2454C68.0081 38.1419 68.7348 38.8687 69.6314 38.8687Z" fill="url(#paint16_linear_445_4126)"/>
<path d="M58.3855 38.8687C59.282 38.8687 60.0088 38.1419 60.0088 37.2454C60.0088 36.3488 59.282 35.6221 58.3855 35.6221C57.489 35.6221 56.7622 36.3488 56.7622 37.2454C56.7622 38.1419 57.489 38.8687 58.3855 38.8687Z" fill="url(#paint17_linear_445_4126)"/>
<path d="M64.0044 11.4155C64.9009 11.4155 65.6277 10.6888 65.6277 9.79224C65.6277 8.89572 64.9009 8.16895 64.0044 8.16895C63.1079 8.16895 62.3811 8.89572 62.3811 9.79224C62.3811 10.6888 63.1079 11.4155 64.0044 11.4155Z" fill="url(#paint18_linear_445_4126)"/>
<path d="M62.8533 10.8944C63.8803 11.3472 63.9575 14.3471 63.861 16.4826L64.7556 16.7269C64.7703 14.0889 64.5171 11.5606 65.431 10.5645L62.8533 10.8944Z" fill="url(#paint19_linear_445_4126)"/>
<path d="M49.3582 21.3379C50.2547 21.3379 50.9814 20.6111 50.9814 19.7146C50.9814 18.8181 50.2547 18.0913 49.3582 18.0913C48.4616 18.0913 47.7349 18.8181 47.7349 19.7146C47.7349 20.6111 48.4616 21.3379 49.3582 21.3379Z" fill="url(#paint20_linear_445_4126)"/>
<path d="M49.77 21.2544C50.6612 20.5724 53.3277 21.9502 55.1524 23.0633L55.2343 22.9788C55.5187 22.6851 55.4434 22.2007 55.0834 22.0074C53.0297 20.9043 51.1108 19.9846 50.7225 18.8364L49.77 21.2544Z" fill="url(#paint21_linear_445_4126)"/>
<path d="M60.0117 21.3869C60.4678 21.9581 60.2695 22.8743 59.569 23.434C58.8685 23.9932 57.931 23.9836 57.4748 23.4127C57.0186 22.8415 57.217 21.9253 57.9175 21.3657C58.618 20.8061 59.5558 20.8157 60.0117 21.3869Z" fill="url(#paint22_linear_445_4126)"/>
<path d="M58.7976 23.7816C59.7494 23.1953 61.8867 24.4871 63.3143 25.523L63.4066 25.4496C63.7261 25.1945 63.7586 24.7611 63.4714 24.5797C61.8339 23.5473 60.2804 22.6816 60.1666 21.6484L58.7976 23.7816Z" fill="url(#paint23_linear_445_4126)"/>
<path d="M52.1452 29.3864C52.9094 29.5003 53.4215 30.3111 53.2895 31.198C53.1575 32.085 52.4312 32.7113 51.667 32.5975C50.9028 32.4836 50.3907 31.6728 50.5227 30.7859C50.6547 29.8989 51.381 29.2726 52.1452 29.3864Z" fill="url(#paint24_linear_445_4126)"/>
<path d="M52.7865 31.9521C53.0644 30.8714 55.169 30.311 56.673 30.061L56.6904 29.9444C56.7506 29.5399 56.5252 29.2072 56.2384 29.2775C54.6016 29.6762 53.1138 30.1358 52.4546 29.4759L52.7865 31.9521Z" fill="url(#paint25_linear_445_4126)"/>
<path d="M48.3342 39.6563C49.2308 39.6563 49.9575 38.9295 49.9575 38.033C49.9575 37.1364 49.2308 36.4097 48.3342 36.4097C47.4377 36.4097 46.7109 37.1364 46.7109 38.033C46.7109 38.9295 47.4377 39.6563 48.3342 39.6563Z" fill="url(#paint26_linear_445_4126)"/>
<path d="M49.8508 38.5233C49.7675 37.4696 52.072 36.0864 53.9492 35.1536C54.1499 35.0536 54.2564 34.8294 54.2055 34.6109L54.1464 34.3566C54.1144 34.2176 53.9589 34.1478 53.8334 34.2157C51.6038 35.4199 49.6007 36.7302 48.3372 36.4102L49.8508 38.5233Z" fill="url(#paint27_linear_445_4126)"/>
<path d="M61.8004 36.9409C62.2423 36.3677 63.0984 36.2871 63.7128 36.7606C64.3272 37.2342 64.4673 38.0829 64.0254 38.656C63.5835 39.2291 62.7275 39.3098 62.113 38.8362C61.4986 38.3627 61.3589 37.514 61.8004 36.9409Z" fill="url(#paint28_linear_445_4126)"/>
<path d="M64.0346 37.5049C63.3777 36.8758 63.7799 35.1815 64.2202 33.9229C64.2673 33.7882 64.1925 33.6095 64.0389 33.491L63.8598 33.3533C63.7621 33.278 63.6398 33.2903 63.6135 33.3776C63.1465 34.9329 62.8598 36.4729 62.0115 36.7268L64.0346 37.5049Z" fill="url(#paint29_linear_445_4126)"/>
<path d="M66.9805 51.4785C67.877 51.4785 68.6038 50.7517 68.6038 49.8552C68.6038 48.9587 67.877 48.2319 66.9805 48.2319C66.084 48.2319 65.3572 48.9587 65.3572 49.8552C65.3572 50.7517 66.084 51.4785 66.9805 51.4785Z" fill="url(#paint30_linear_445_4126)"/>
<path d="M68.1201 48.7411C67.1637 48.3312 67.0008 45.7234 67.0417 43.6427C67.0471 43.361 66.8592 43.1124 66.5863 43.041C66.3698 42.9843 66.1587 43.1495 66.1618 43.3733C66.1977 45.8465 66.3984 48.149 65.5454 49.0981L68.1201 48.7411Z" fill="url(#paint31_linear_445_4126)"/>
<path d="M55.7014 14.9971C56.5979 14.9971 57.3247 14.2703 57.3247 13.3738C57.3247 12.4773 56.5979 11.7505 55.7014 11.7505C54.8049 11.7505 54.0781 12.4773 54.0781 13.3738C54.0781 14.2703 54.8049 14.9971 55.7014 14.9971Z" fill="url(#paint32_linear_445_4126)"/>
<path d="M55.0378 14.8226C56.1247 14.8639 57.2636 17.4574 57.9676 19.457C58.0065 19.5678 58.1169 19.6372 58.2339 19.6241C58.5978 19.5836 58.8232 19.2065 58.6854 18.8669C57.7954 16.6766 56.8749 14.7118 57.313 13.5659L55.0378 14.8226Z" fill="url(#paint33_linear_445_4126)"/>
<path d="M85.0813 29.4824C85.9778 29.4824 86.7046 28.7557 86.7046 27.8591C86.7046 26.9626 85.9778 26.2358 85.0813 26.2358C84.1848 26.2358 83.458 26.9626 83.458 27.8591C83.458 28.7557 84.1848 29.4824 85.0813 29.4824Z" fill="url(#paint34_linear_445_4126)"/>
<path d="M84.1194 26.5889C83.5802 27.5063 80.8655 27.3106 78.7868 26.9957C78.5903 26.9659 78.3989 27.0752 78.3248 27.2596C78.2144 27.5344 78.3966 27.8389 78.6907 27.8714C81.0947 28.1354 83.3309 28.2415 84.1488 29.1882L84.1194 26.5889Z" fill="url(#paint35_linear_445_4126)"/>
<path d="M77.1773 31.9877C76.4841 31.7091 76.1931 30.8087 76.5278 29.9769C76.8624 29.1452 77.6952 28.6971 78.3884 28.9758C79.0816 29.2545 79.3726 30.1549 79.038 30.9866C78.7033 31.8183 77.8705 32.2664 77.1773 31.9877Z" fill="url(#paint36_linear_445_4126)"/>
<path d="M77.0322 29.2964C76.5178 30.2238 74.2032 30.1891 72.4406 30.0011C72.2739 29.9834 72.1041 30.1011 72.0296 30.2856C71.9192 30.5604 72.0578 30.8471 72.3078 30.8618C74.3522 30.981 76.2615 30.9556 76.9076 31.8332L77.0322 29.2964Z" fill="url(#paint37_linear_445_4126)"/>
<path d="M70.6188 22.5761C70.1166 23.1689 69.1549 23.1797 68.471 22.6004C67.7871 22.0211 67.6396 21.0705 68.1417 20.4777C68.6439 19.8849 69.6056 19.8741 70.2895 20.4534C70.9734 21.0327 71.1209 21.9833 70.6188 22.5761Z" fill="url(#paint38_linear_445_4126)"/>
<path d="M68.1461 21.7148C68.8855 22.4701 68.4757 24.2401 68.0203 25.5253C67.977 25.6469 68.0538 25.8232 68.2055 25.9518C68.4313 26.1432 68.7092 26.1474 68.7628 25.9603C69.2036 24.4315 69.4934 22.9503 70.3788 22.792L68.1461 21.7148Z" fill="url(#paint39_linear_445_4126)"/>
<path d="M76.4719 47.2007C77.3684 47.2007 78.0952 46.4739 78.0952 45.5774C78.0952 44.6809 77.3684 43.9541 76.4719 43.9541C75.5754 43.9541 74.8486 44.6809 74.8486 45.5774C74.8486 46.4739 75.5754 47.2007 76.4719 47.2007Z" fill="url(#paint40_linear_445_4126)"/>
<path d="M76.6596 43.9942C75.7133 44.2597 73.941 42.1779 72.6535 40.5079C72.3926 40.1698 71.882 40.1721 71.625 40.5133C71.5424 40.6233 71.5451 40.7757 71.6327 40.8823C73.2548 42.8525 74.9495 44.5781 74.8793 45.888L76.6596 43.9942Z" fill="url(#paint41_linear_445_4126)"/>
<path d="M73.0784 12.896C73.9749 12.896 74.7017 12.1692 74.7017 11.2727C74.7017 10.3762 73.9749 9.64941 73.0784 9.64941C72.1819 9.64941 71.4551 10.3762 71.4551 11.2727C71.4551 12.1692 72.1819 12.896 73.0784 12.896Z" fill="url(#paint42_linear_445_4126)"/>
<path d="M71.5105 11.562C72.12 12.5045 70.5364 15.0537 69.2825 16.785L69.8961 17.4805C71.3577 15.2845 72.5352 13.0329 73.8463 12.7025L71.5105 11.562Z" fill="url(#paint43_linear_445_4126)"/>
<path d="M58.0498 48.8784C58.9463 48.8784 59.6731 48.1517 59.6731 47.2551C59.6731 46.3586 58.9463 45.6318 58.0498 45.6318C57.1533 45.6318 56.4265 46.3586 56.4265 47.2551C56.4265 48.1517 57.1533 48.8784 58.0498 48.8784Z" fill="url(#paint44_linear_445_4126)"/>
<path d="M59.5983 46.8769C58.985 46.0382 60.1695 43.716 61.2633 41.9472C61.4142 41.7033 61.3783 41.3884 61.1764 41.1846C61.022 41.0287 60.7611 41.0622 60.6519 41.2525C59.4208 43.4015 58.4196 45.4894 57.2012 45.8719L59.5983 46.8769Z" fill="url(#paint45_linear_445_4126)"/>
<path d="M39.1328 74.6392C39.1328 74.6392 38.9287 75.7947 38.8287 76.9382C38.7897 77.3852 39.1344 77.7734 39.5824 77.792C41.1054 77.8553 44.3636 77.9788 45.5326 77.9267C45.7082 77.9189 45.8232 77.7391 45.7584 77.5754C45.704 77.4384 45.5986 77.3277 45.4647 77.2663L40.083 74.7928L39.1328 74.6392Z" fill="url(#paint46_linear_445_4126)"/>
<path d="M38.9656 73.9605L39.1296 75.3426C39.1296 75.3426 40.0725 75.7814 40.7162 75.2874L40.3257 73.7471L38.9656 73.9605Z" fill="url(#paint47_linear_445_4126)"/>
<path d="M39.0888 47.9783C39.0182 48.3392 38.7087 65.9881 40.5952 73.8973C40.6261 74.0262 40.5605 74.1594 40.4377 74.2096C40.1483 74.3277 39.5813 74.499 38.9013 74.5218C38.6905 74.5288 38.5018 74.3921 38.4428 74.1899C37.9036 72.3547 35.3193 63.1607 34.9824 54.3781C34.6057 44.5642 34.9824 54.0439 34.9824 54.0439L35.2031 47.9775L39.0888 47.9783Z" fill="url(#paint48_linear_445_4126)"/>
<path d="M32.9416 75.2427C32.9416 75.2427 32.6166 75.8258 32.302 77.3758C32.2453 77.6556 32.441 77.9235 32.725 77.9516C33.2279 78.001 34.0021 78.0647 34.6224 78.0605C34.9083 78.0585 35.1314 77.8096 35.0971 77.5259C35.0284 76.9601 34.8142 76.0319 34.153 75.3087L32.9416 75.2427Z" fill="url(#paint49_linear_445_4126)"/>
<path d="M32.657 73.4648L33.0402 75.5547C33.0402 75.5547 33.4192 75.8365 34.1684 75.6323L33.9854 73.3838L32.657 73.4648Z" fill="url(#paint50_linear_445_4126)"/>
<path d="M31.6223 48.5198C30.0793 57.8315 31.957 71.5346 32.5903 74.2165C32.6289 74.3806 32.7617 74.5064 32.928 74.5342C33.2105 74.5809 33.676 74.6195 34.1349 74.4859C34.2931 74.44 34.4039 74.2976 34.4104 74.1328C34.4953 71.9645 34.3425 58.6528 35.7801 53.3924C35.8531 53.1257 36.016 52.8934 36.241 52.7332L39.0314 50.7494L39.2452 47.543L31.6223 48.5198Z" fill="url(#paint51_linear_445_4126)"/>
<path d="M41.4539 30.8763C36.8299 30.7999 31.728 32.0905 31.728 32.0905C30.3498 40.1329 31.4872 49.4091 31.4872 49.4091C35.0668 50.3477 39.105 48.8352 39.105 48.8352C39.7001 45.4736 42.4759 36.0133 42.4759 36.0133C44.7352 35.7331 44.2443 33.879 45.7769 33.0172C44.6078 31.6621 46.4087 32.319 46.169 31.2997C44.5345 31.8076 42.88 30.8999 41.4539 30.8763Z" fill="url(#paint52_linear_445_4126)"/>
<path d="M55.0013 24.2051C55.0488 24.3564 54.4984 24.5864 54.1742 23.9681C54.163 23.6721 53.9828 22.4031 54.1596 22.1619C55.102 20.8767 56.9295 19.2661 56.9295 19.2661C57.2383 19.571 56.9839 19.8701 56.9839 19.8701L56.0974 20.7937C56.2827 21.1287 56.5088 21.4116 56.6149 21.8168C56.6952 22.1237 56.6462 22.4517 56.4911 22.7311C56.3355 23.0113 56.1233 23.3761 55.9226 23.6613C55.5432 24.2012 55.0013 24.2051 55.0013 24.2051Z" fill="url(#paint53_linear_445_4126)"/>
<path d="M55.7103 21.3926L54.9025 22.0772L54.6489 22.7592L55.3691 23.5581C55.3691 23.5581 55.6111 22.2054 55.7913 21.9124C55.9712 21.6199 55.8778 21.4783 55.7103 21.3926Z" fill="url(#paint54_linear_445_4126)"/>
<path d="M36.7703 27.122L35.2991 31.3766C35.2748 31.4473 35.3037 31.5252 35.3689 31.5611C35.7699 31.7831 37.2149 32.4237 38.9563 31.3199C39.1377 31.2049 39.2612 31.0173 39.2886 30.8043L39.7649 27.1216H36.7703V27.122Z" fill="url(#paint55_linear_445_4126)"/>
<path d="M33.9776 31.6115L35.7333 30.1206L38.3596 36.5327L36.4446 62.0122L30.4647 62.1909C30.4222 62.192 30.3813 62.1758 30.3516 62.1457C30.3219 62.1156 30.3057 62.0747 30.3072 62.0326L31.142 37.52C31.142 37.52 31.1648 32.2232 31.7279 32.0905C32.2902 31.9581 33.9776 31.6115 33.9776 31.6115Z" fill="white"/>
<path d="M38.3596 36.2035L39.3766 30.1206L40.2473 30.8859L42.0825 30.8682L42.4754 36.0136L39.8567 62.3429C39.8525 62.3846 39.8317 62.4224 39.7988 62.4483C39.766 62.4742 39.724 62.4853 39.6827 62.4792L36.4446 62.0122L38.3596 36.2035Z" fill="#91B3FA"/>
<path d="M55.1115 24.0652C54.6572 23.5168 54.0825 23.7761 54.0825 23.7761C53.4021 26.6503 49.834 28.981 46.1687 30.1203C46.1695 30.1234 46.1702 30.1269 46.171 30.13C44.4439 30.695 41.8411 30.8745 41.8411 30.8745C41.8411 30.8745 38.3591 36.2028 42.4752 36.013C46.5913 35.8231 49.0131 33.6741 49.0131 33.6741C54.2994 30.1327 55.1115 24.0652 55.1115 24.0652Z" fill="#91B3FA"/>
<path d="M39.5869 36.4805V37.1042L41.722 36.9656V36.2725L39.5869 36.4805Z" fill="url(#paint56_linear_445_4126)"/>
<path d="M38.1902 37.9969L36.1466 36.8993L35.8648 35.0062L35.091 34.8688L34.3018 32.3053L34.4133 32.271L35.1813 34.7661L35.9683 34.9059L36.2535 36.824L38.2454 37.8939L38.1902 37.9969Z" fill="#BDD0FB"/>
<path d="M38.7482 37.3673L38.6467 37.3094L39.7035 35.4565L39.5224 34.37L40.4051 33.9003L40.189 30.8903L40.3059 30.8818L40.5271 33.9679L39.6517 34.4337L39.8258 35.4781L38.7482 37.3673Z" fill="white"/>
<path d="M37.2808 40.6499C37.2808 40.6499 32.4317 43.3905 30.7953 41.0505C30.4862 40.6086 30.3928 40.1694 30.441 39.7467C30.4449 39.7487 30.4487 39.7502 30.4526 39.7522C30.7721 37.9953 33.5008 36.5677 33.5008 36.5677L31.7274 32.0903C31.7274 32.0903 27.5109 34.9575 26.7266 38.6163C26.7193 38.6159 26.7108 38.6148 26.7035 38.6144C26.4893 39.7359 26.6024 40.9289 27.2616 42.1346C30.1276 47.3773 37.9222 41.8448 37.9222 41.8448L37.2808 40.6499Z" fill="white"/>
<path d="M36.6987 44.1171L39.3451 34.8748C39.3752 34.7698 39.4647 34.6934 39.5732 34.6807C40.0525 34.6247 41.442 34.4676 43.0463 34.3322C44.9788 34.1689 47.2227 34.0361 48.5634 34.1488C48.7541 34.1647 48.8691 34.3665 48.7846 34.5379C48.022 36.0805 44.8854 42.356 43.315 44.4116C43.2629 44.4795 43.1826 44.5196 43.0969 44.5188L36.9565 44.4617C36.7774 44.4602 36.6493 44.2888 36.6987 44.1171Z" fill="url(#paint57_linear_445_4126)"/>
<path d="M43.3206 33.531L45.2395 33.2114C45.3418 33.1944 45.4256 33.2921 45.3928 33.3905L45.2029 33.9659C45.1863 34.0161 45.1427 34.0524 45.0902 34.0593L43.2438 34.306C43.1481 34.3187 43.0694 34.2319 43.0914 34.1381L43.2091 33.6356C43.2218 33.5811 43.2658 33.5398 43.3206 33.531Z" fill="url(#paint58_linear_445_4126)"/>
<path d="M41.8836 35.1558L42.0418 34.3325C42.0576 34.2499 42.126 34.1874 42.2093 34.1789L46.0846 33.7857C46.2151 33.7725 46.3197 33.8922 46.2888 34.0195L46.0425 35.0454C46.0229 35.1276 45.9515 35.1866 45.8669 35.1909L42.08 35.3815C41.9569 35.3877 41.8604 35.277 41.8836 35.1558Z" fill="url(#paint59_linear_445_4126)"/>
<path d="M37.3378 41.8839C37.3378 41.8839 36.9692 40.3679 37.1178 39.8303C37.2664 39.2923 37.5547 38.6011 38.5149 38.7547C39.4752 38.9083 40.6083 39.3128 40.6083 39.3128C40.6083 39.3128 40.5512 40.0132 39.8214 39.7871L40.2741 40.1371C40.2741 40.1371 40.2093 40.6979 39.5929 40.3984L40.014 40.8627C40.014 40.8627 39.7492 41.3235 39.2957 41.0279C38.8415 40.733 38.6242 42.0665 37.3378 41.8839Z" fill="url(#paint60_linear_445_4126)"/>
<path d="M32.7156 42.0054C32.2656 42.0054 31.853 41.939 31.5388 41.7665L31.5952 41.6638C32.8889 42.3744 36.0803 41.159 36.1123 41.1463C36.1208 41.1436 36.7425 40.9275 36.9645 40.4937L37.0687 40.5469C36.8247 41.0232 36.1794 41.247 36.152 41.2563C36.0517 41.2953 34.1864 42.0054 32.7156 42.0054Z" fill="#BDD0FB"/>
<path d="M30.9689 44.4475L30.9651 44.3305C34.6493 44.2036 36.7466 42.517 36.7674 42.5L36.8415 42.5903C36.8199 42.6077 34.6922 44.3194 30.9689 44.4475Z" fill="#BDD0FB"/>
<path d="M40.2383 22.3657C40.2861 22.4321 41.7786 27.6339 41.7786 27.6339L38.7906 28.4228L36.6436 23.7026C36.6436 23.703 39.4378 21.2538 40.2383 22.3657Z" fill="url(#paint61_linear_445_4126)"/>
<path d="M37.83 24.0525C37.7567 24.1691 37.7416 24.3123 37.7883 24.4416L38.7103 26.9776C38.7242 27.0162 38.7428 27.0521 38.7671 27.0853C38.8998 27.2679 39.3699 27.8148 39.9149 27.2999C40.3796 26.8611 40.8126 26.4643 41.2171 26.3447C41.4533 26.2748 41.7003 26.4153 41.7674 26.6523C41.9056 27.1409 42.1646 28.1324 42.2711 29.0455C42.2977 29.2744 42.1414 29.4844 41.9152 29.5287C41.3186 29.6457 40.1464 29.8387 39.1499 29.7846C38.9863 29.7758 38.8416 29.6777 38.7717 29.5295C38.4653 28.8765 37.5984 27.0502 37.2746 26.5724C36.9736 26.1282 36.258 26.1347 35.9304 26.1641C35.8061 26.1749 35.6837 26.1343 35.5911 26.051C35.3132 25.8005 34.8555 25.2216 35.5132 24.5195C35.6768 24.3451 35.6644 24.068 35.4931 23.9009C35.1866 23.6014 34.8895 23.0935 35.3889 22.4613C35.8949 21.8214 36.5641 21.8847 37.0006 22.0263C37.194 22.0888 37.4151 22.024 37.5266 21.8546C37.5764 21.7789 37.6567 21.7222 37.786 21.721C38.0299 21.7191 38.2252 21.5342 38.2248 21.2907C38.224 20.8727 38.385 20.3613 39.0963 20.1325C40.4008 19.713 41.2286 20.9696 41.3182 21.9121C41.4077 22.8546 39.9674 23.2289 39.1179 23.1734C38.4946 23.1313 38.0318 23.731 37.83 24.0525Z" fill="url(#paint62_linear_445_4126)"/>
<path d="M37.6249 27.5058C37.6249 27.5058 37.3983 25.8702 36.7164 25.7965C36.0344 25.7228 35.3768 26.2886 36.0626 27.2013C36.9155 28.3368 37.6249 27.5058 37.6249 27.5058Z" fill="url(#paint63_linear_445_4126)"/>
<path d="M40.4667 22.5357C40.4555 22.5357 40.4443 22.5326 40.4347 22.5261C40.4076 22.5083 40.4003 22.472 40.4181 22.445C40.4212 22.4404 40.7257 21.9691 40.5659 21.4732C40.4478 21.1069 40.1101 20.8152 39.5617 20.606C39.5315 20.5944 39.5165 20.5608 39.5281 20.5303C39.5397 20.5002 39.5732 20.4852 39.6037 20.4964C40.1873 20.7191 40.5489 21.0359 40.6778 21.4381C40.8546 21.9881 40.53 22.4879 40.5157 22.5091C40.5041 22.5265 40.4856 22.5357 40.4667 22.5357Z" fill="white"/>
<defs>
<linearGradient id="paint0_linear_445_4126" x1="112.535" y1="120.796" x2="34.5541" y2="36.6261" gradientUnits="userSpaceOnUse">
<stop stop-color="#DAE3FE"/>
<stop offset="1" stop-color="#E9EFFD"/>
</linearGradient>
<linearGradient id="paint1_linear_445_4126" x1="38.2751" y1="29.47" x2="90.6978" y2="29.47" gradientUnits="userSpaceOnUse">
<stop stop-color="#FF928E"/>
<stop offset="1" stop-color="#FE7062"/>
</linearGradient>
<linearGradient id="paint2_linear_445_4126" x1="66.2655" y1="5.39609" x2="85.5393" y2="5.98038" gradientUnits="userSpaceOnUse">
<stop stop-color="#FEBBBA"/>
<stop offset="1" stop-color="#FF928E"/>
</linearGradient>
<linearGradient id="paint3_linear_445_4126" x1="66.2082" y1="7.29725" x2="85.482" y2="7.88154" gradientUnits="userSpaceOnUse">
<stop stop-color="#FEBBBA"/>
<stop offset="1" stop-color="#FF928E"/>
</linearGradient>
<linearGradient id="paint4_linear_445_4126" x1="71.8069" y1="8.99665" x2="85.436" y2="9.40982" gradientUnits="userSpaceOnUse">
<stop stop-color="#FEBBBA"/>
<stop offset="1" stop-color="#FF928E"/>
</linearGradient>
<linearGradient id="paint5_linear_445_4126" x1="75.9807" y1="16.2433" x2="53.475" y2="9.79695" gradientUnits="userSpaceOnUse">
<stop stop-color="#FF928E"/>
<stop offset="1" stop-color="#FE7062"/>
</linearGradient>
<linearGradient id="paint6_linear_445_4126" x1="69.3188" y1="16.6539" x2="29.868" y2="5.3539" gradientUnits="userSpaceOnUse">
<stop stop-color="#FF928E"/>
<stop offset="1" stop-color="#FE7062"/>
</linearGradient>
<linearGradient id="paint7_linear_445_4126" x1="50.87" y1="31.2022" x2="67.9209" y2="47.2435" gradientUnits="userSpaceOnUse">
<stop stop-color="#FF928E"/>
<stop offset="1" stop-color="#FE7062"/>
</linearGradient>
<linearGradient id="paint8_linear_445_4126" x1="56.9803" y1="33.8899" x2="86.8694" y2="62.0093" gradientUnits="userSpaceOnUse">
<stop stop-color="#FF928E"/>
<stop offset="1" stop-color="#FE7062"/>
</linearGradient>
<linearGradient id="paint9_linear_445_4126" x1="81.192" y1="33.8045" x2="74.1205" y2="11.4875" gradientUnits="userSpaceOnUse">
<stop stop-color="#FF928E"/>
<stop offset="1" stop-color="#FE7062"/>
</linearGradient>
<linearGradient id="paint10_linear_445_4126" x1="77.166" y1="28.4802" x2="64.7705" y2="-10.6393" gradientUnits="userSpaceOnUse">
<stop stop-color="#FF928E"/>
<stop offset="1" stop-color="#FE7062"/>
</linearGradient>
<linearGradient id="paint11_linear_445_4126" x1="77.5953" y1="-46.2726" x2="71.6985" y2="-9.09707" gradientUnits="userSpaceOnUse">
<stop stop-color="#E1473D"/>
<stop offset="1" stop-color="#E9605A"/>
</linearGradient>
<linearGradient id="paint12_linear_445_4126" x1="57.856" y1="32.9152" x2="49.3795" y2="54.7374" gradientUnits="userSpaceOnUse">
<stop stop-color="#FF928E"/>
<stop offset="1" stop-color="#FE7062"/>
</linearGradient>
<linearGradient id="paint13_linear_445_4126" x1="66.2226" y1="34.877" x2="57.7462" y2="56.6992" gradientUnits="userSpaceOnUse">
<stop stop-color="#FF928E"/>
<stop offset="1" stop-color="#FE7062"/>
</linearGradient>
<linearGradient id="paint14_linear_445_4126" x1="62.165" y1="24.3349" x2="53.6886" y2="46.1571" gradientUnits="userSpaceOnUse">
<stop stop-color="#FF928E"/>
<stop offset="1" stop-color="#FE7062"/>
</linearGradient>
<linearGradient id="paint15_linear_445_4126" x1="73.0628" y1="27.9684" x2="64.5864" y2="49.7906" gradientUnits="userSpaceOnUse">
<stop stop-color="#FF928E"/>
<stop offset="1" stop-color="#FE7062"/>
</linearGradient>
<linearGradient id="paint16_linear_445_4126" x1="67.8648" y1="41.7929" x2="59.3884" y2="63.6151" gradientUnits="userSpaceOnUse">
<stop stop-color="#FF928E"/>
<stop offset="1" stop-color="#FE7062"/>
</linearGradient>
<linearGradient id="paint17_linear_445_4126" x1="56.619" y1="41.793" x2="48.1426" y2="63.6152" gradientUnits="userSpaceOnUse">
<stop stop-color="#FF928E"/>
<stop offset="1" stop-color="#FE7062"/>
</linearGradient>
<linearGradient id="paint18_linear_445_4126" x1="61.1032" y1="13.7145" x2="47.1818" y2="32.5361" gradientUnits="userSpaceOnUse">
<stop stop-color="#FF928E"/>
<stop offset="1" stop-color="#FE7062"/>
</linearGradient>
<linearGradient id="paint19_linear_445_4126" x1="59.1541" y1="20.0984" x2="34.7514" y2="53.0908" gradientUnits="userSpaceOnUse">
<stop stop-color="#FF928E"/>
<stop offset="1" stop-color="#FE7062"/>
</linearGradient>
<linearGradient id="paint20_linear_445_4126" x1="51.3978" y1="24.1465" x2="61.1849" y2="45.4131" gradientUnits="userSpaceOnUse">
<stop stop-color="#FF928E"/>
<stop offset="1" stop-color="#FE7062"/>
</linearGradient>
<linearGradient id="paint21_linear_445_4126" x1="55.8893" y1="29.0056" x2="73.0452" y2="66.2842" gradientUnits="userSpaceOnUse">
<stop stop-color="#FF928E"/>
<stop offset="1" stop-color="#FE7062"/>
</linearGradient>
<linearGradient id="paint22_linear_445_4126" x1="59.6762" y1="26.3991" x2="66.6812" y2="44.6192" gradientUnits="userSpaceOnUse">
<stop stop-color="#FF928E"/>
<stop offset="1" stop-color="#FE7062"/>
</linearGradient>
<linearGradient id="paint23_linear_445_4126" x1="62.7492" y1="30.8378" x2="75.0282" y2="62.7754" gradientUnits="userSpaceOnUse">
<stop stop-color="#FF928E"/>
<stop offset="1" stop-color="#FE7062"/>
</linearGradient>
<linearGradient id="paint24_linear_445_4126" x1="55.5215" y1="33.3166" x2="73.8107" y2="42.6261" gradientUnits="userSpaceOnUse">
<stop stop-color="#FF928E"/>
<stop offset="1" stop-color="#FE7062"/>
</linearGradient>
<linearGradient id="paint25_linear_445_4126" x1="59.3264" y1="34.2553" x2="86.4169" y2="46.0853" gradientUnits="userSpaceOnUse">
<stop stop-color="#FF928E"/>
<stop offset="1" stop-color="#FE7062"/>
</linearGradient>
<linearGradient id="paint26_linear_445_4126" x1="53.1634" y1="38.727" x2="76.3359" y2="42.0571" gradientUnits="userSpaceOnUse">
<stop stop-color="#FF928E"/>
<stop offset="1" stop-color="#FE7062"/>
</linearGradient>
<linearGradient id="paint27_linear_445_4126" x1="59.4882" y1="37.4467" x2="99.3475" y2="43.175" gradientUnits="userSpaceOnUse">
<stop stop-color="#FF928E"/>
<stop offset="1" stop-color="#FE7062"/>
</linearGradient>
<linearGradient id="paint28_linear_445_4126" x1="66.365" y1="35.8238" x2="82.4493" y2="25.5937" gradientUnits="userSpaceOnUse">
<stop stop-color="#FF928E"/>
<stop offset="1" stop-color="#FE7062"/>
</linearGradient>
<linearGradient id="paint29_linear_445_4126" x1="68.457" y1="33.3656" x2="89.1382" y2="17.8897" gradientUnits="userSpaceOnUse">
<stop stop-color="#FF928E"/>
<stop offset="1" stop-color="#FE7062"/>
</linearGradient>
<linearGradient id="paint30_linear_445_4126" x1="69.8408" y1="45.9032" x2="83.5664" y2="26.9384" gradientUnits="userSpaceOnUse">
<stop stop-color="#FF928E"/>
<stop offset="1" stop-color="#FE7062"/>
</linearGradient>
<linearGradient id="paint31_linear_445_4126" x1="71.6467" y1="39.7741" x2="95.1412" y2="7.31157" gradientUnits="userSpaceOnUse">
<stop stop-color="#FF928E"/>
<stop offset="1" stop-color="#FE7062"/>
</linearGradient>
<linearGradient id="paint32_linear_445_4126" x1="54.4494" y1="18.089" x2="48.4409" y2="40.7155" gradientUnits="userSpaceOnUse">
<stop stop-color="#FF928E"/>
<stop offset="1" stop-color="#FE7062"/>
</linearGradient>
<linearGradient id="paint33_linear_445_4126" x1="54.8617" y1="24.5924" x2="44.4328" y2="63.8653" gradientUnits="userSpaceOnUse">
<stop stop-color="#FF928E"/>
<stop offset="1" stop-color="#FE7062"/>
</linearGradient>
<linearGradient id="paint34_linear_445_4126" x1="81.5212" y1="24.5236" x2="64.4373" y2="8.51738" gradientUnits="userSpaceOnUse">
<stop stop-color="#FF928E"/>
<stop offset="1" stop-color="#FE7062"/>
</linearGradient>
<linearGradient id="paint35_linear_445_4126" x1="75.6326" y1="21.883" x2="46.1824" y2="-5.70933" gradientUnits="userSpaceOnUse">
<stop stop-color="#FF928E"/>
<stop offset="1" stop-color="#FE7062"/>
</linearGradient>
<linearGradient id="paint36_linear_445_4126" x1="74.9254" y1="27.4286" x2="59.6359" y2="14.6688" gradientUnits="userSpaceOnUse">
<stop stop-color="#FF928E"/>
<stop offset="1" stop-color="#FE7062"/>
</linearGradient>
<linearGradient id="paint37_linear_445_4126" x1="70.0335" y1="25.1891" x2="43.6767" y2="3.19325" gradientUnits="userSpaceOnUse">
<stop stop-color="#FF928E"/>
<stop offset="1" stop-color="#FE7062"/>
</linearGradient>
<linearGradient id="paint38_linear_445_4126" x1="65.4845" y1="23.393" x2="47.823" y2="34.056" gradientUnits="userSpaceOnUse">
<stop stop-color="#FF928E"/>
<stop offset="1" stop-color="#FE7062"/>
</linearGradient>
<linearGradient id="paint39_linear_445_4126" x1="63.3519" y1="25.5184" x2="42.1705" y2="40.9767" gradientUnits="userSpaceOnUse">
<stop stop-color="#FF928E"/>
<stop offset="1" stop-color="#FE7062"/>
</linearGradient>
<linearGradient id="paint40_linear_445_4126" x1="76.2189" y1="40.7053" x2="75.0053" y2="17.3261" gradientUnits="userSpaceOnUse">
<stop stop-color="#FF928E"/>
<stop offset="1" stop-color="#FE7062"/>
</linearGradient>
<linearGradient id="paint41_linear_445_4126" x1="73.6989" y1="34.385" x2="71.5435" y2="-7.13731" gradientUnits="userSpaceOnUse">
<stop stop-color="#FF928E"/>
<stop offset="1" stop-color="#FE7062"/>
</linearGradient>
<linearGradient id="paint42_linear_445_4126" x1="68.4991" y1="12.9561" x2="46.5262" y2="21.0338" gradientUnits="userSpaceOnUse">
<stop stop-color="#FF928E"/>
<stop offset="1" stop-color="#FE7062"/>
</linearGradient>
<linearGradient id="paint43_linear_445_4126" x1="63.3629" y1="17.2197" x2="24.8468" y2="31.3791" gradientUnits="userSpaceOnUse">
<stop stop-color="#FF928E"/>
<stop offset="1" stop-color="#FE7062"/>
</linearGradient>
<linearGradient id="paint44_linear_445_4126" x1="62.5247" y1="45.3112" x2="83.9968" y2="35.9835" gradientUnits="userSpaceOnUse">
<stop stop-color="#FF928E"/>
<stop offset="1" stop-color="#FE7062"/>
</linearGradient>
<linearGradient id="paint45_linear_445_4126" x1="67.196" y1="40.9572" x2="103.936" y2="24.9972" gradientUnits="userSpaceOnUse">
<stop stop-color="#FF928E"/>
<stop offset="1" stop-color="#FE7062"/>
</linearGradient>
<linearGradient id="paint46_linear_445_4126" x1="45.3623" y1="73.0421" x2="25.6551" y2="94.478" gradientUnits="userSpaceOnUse">
<stop stop-color="#09005D"/>
<stop offset="1" stop-color="#1A0F91"/>
</linearGradient>
<linearGradient id="paint47_linear_445_4126" x1="38.9655" y1="74.6344" x2="40.716" y2="74.6344" gradientUnits="userSpaceOnUse">
<stop stop-color="#FEBBBA"/>
<stop offset="1" stop-color="#FF928E"/>
</linearGradient>
<linearGradient id="paint48_linear_445_4126" x1="46.914" y1="48.8008" x2="30.1451" y2="71.5289" gradientUnits="userSpaceOnUse">
<stop stop-color="#09005D"/>
<stop offset="1" stop-color="#1A0F91"/>
</linearGradient>
<linearGradient id="paint49_linear_445_4126" x1="40.9406" y1="68.9787" x2="21.2334" y2="90.4146" gradientUnits="userSpaceOnUse">
<stop stop-color="#09005D"/>
<stop offset="1" stop-color="#1A0F91"/>
</linearGradient>
<linearGradient id="paint50_linear_445_4126" x1="32.6568" y1="74.5449" x2="34.1682" y2="74.5449" gradientUnits="userSpaceOnUse">
<stop stop-color="#FEBBBA"/>
<stop offset="1" stop-color="#FF928E"/>
</linearGradient>
<linearGradient id="paint51_linear_445_4126" x1="43.9258" y1="46.5958" x2="27.1569" y2="69.3239" gradientUnits="userSpaceOnUse">
<stop stop-color="#09005D"/>
<stop offset="1" stop-color="#1A0F91"/>
</linearGradient>
<linearGradient id="paint52_linear_445_4126" x1="31.046" y1="40.2944" x2="46.1914" y2="40.2944" gradientUnits="userSpaceOnUse">
<stop stop-color="#09005D"/>
<stop offset="1" stop-color="#1A0F91"/>
</linearGradient>
<linearGradient id="paint53_linear_445_4126" x1="53.1195" y1="27.4682" x2="47.1185" y2="41.1217" gradientUnits="userSpaceOnUse">
<stop stop-color="#FEBBBA"/>
<stop offset="1" stop-color="#FF928E"/>
</linearGradient>
<linearGradient id="paint54_linear_445_4126" x1="55.0687" y1="22.9206" x2="57.5727" y2="19.0708" gradientUnits="userSpaceOnUse">
<stop stop-color="#FEBBBA"/>
<stop offset="1" stop-color="#FF928E"/>
</linearGradient>
<linearGradient id="paint55_linear_445_4126" x1="35.2903" y1="29.5352" x2="39.7648" y2="29.5352" gradientUnits="userSpaceOnUse">
<stop stop-color="#FEBBBA"/>
<stop offset="1" stop-color="#FF928E"/>
</linearGradient>
<linearGradient id="paint56_linear_445_4126" x1="39.2707" y1="37.7188" x2="46.9379" y2="32.201" gradientUnits="userSpaceOnUse">
<stop stop-color="#9CFFFB"/>
<stop offset="1" stop-color="#9BFFFA"/>
</linearGradient>
<linearGradient id="paint57_linear_445_4126" x1="41.3469" y1="33.4575" x2="47.5699" y2="59.3867" gradientUnits="userSpaceOnUse">
<stop stop-color="#09005D"/>
<stop offset="1" stop-color="#1A0F91"/>
</linearGradient>
<linearGradient id="paint58_linear_445_4126" x1="45.243" y1="29.3704" x2="43.9176" y2="35.1903" gradientUnits="userSpaceOnUse">
<stop stop-color="#4F52FF"/>
<stop offset="1" stop-color="#4042E2"/>
</linearGradient>
<linearGradient id="paint59_linear_445_4126" x1="44.5492" y1="31.812" x2="43.9153" y2="35.6151" gradientUnits="userSpaceOnUse">
<stop stop-color="#4F52FF"/>
<stop offset="1" stop-color="#4042E2"/>
</linearGradient>
<linearGradient id="paint60_linear_445_4126" x1="37.0824" y1="40.3171" x2="40.6082" y2="40.3171" gradientUnits="userSpaceOnUse">
<stop stop-color="#FEBBBA"/>
<stop offset="1" stop-color="#FF928E"/>
</linearGradient>
<linearGradient id="paint61_linear_445_4126" x1="39.2707" y1="23.1067" x2="39.0309" y2="33.3992" gradientUnits="userSpaceOnUse">
<stop stop-color="#FEBBBA"/>
<stop offset="1" stop-color="#FF928E"/>
</linearGradient>
<linearGradient id="paint62_linear_445_4126" x1="36.5752" y1="27.4778" x2="42.5935" y2="23.145" gradientUnits="userSpaceOnUse">
<stop stop-color="#09005D"/>
<stop offset="1" stop-color="#1A0F91"/>
</linearGradient>
<linearGradient id="paint63_linear_445_4126" x1="35.6911" y1="33.6985" x2="36.7473" y2="26.643" gradientUnits="userSpaceOnUse">
<stop stop-color="#FEBBBA"/>
<stop offset="1" stop-color="#FF928E"/>
</linearGradient>
</defs>
</svg>
