<svg width="267" height="267" viewBox="0 0 267 267" fill="none" xmlns="http://www.w3.org/2000/svg">
<path d="M253.021 178.251C227.661 237.963 160.108 271.415 101.527 262.391C91.9946 260.923 65.8603 256.549 42.7227 235.915C-1.81858 196.194 -11.344 117.539 24.5858 62.1089C50.7364 21.7655 97.6152 -1.1029 142.158 0.0409553C151.753 0.287161 188.524 1.8056 220.839 28.4524C225.586 32.3658 236.054 41.6661 245.489 56.4212C267.644 91.0673 269.549 139.336 253.021 178.252V178.251Z" fill="url(#paint0_linear_1746_21778)"/>
<path d="M15.373 1.43683C15.123 0.373454 16.6194 -0.334506 17.5362 0.408902C26.8413 7.95411 49.1991 30.5495 43.6273 70.0373C36.6368 119.58 48.5879 137.658 63.4647 148.684C63.4647 148.684 43.0334 143.499 30.1799 125.155C-1.37952 80.1165 19.8172 20.3506 15.374 1.43588L15.373 1.43683Z" fill="#91B3FA"/>
<path d="M22.4546 16.9102C23.6186 22.4255 24.6561 27.9579 25.4579 33.5153C26.2933 39.0678 26.9333 44.6396 27.372 50.2209C27.7849 55.8031 28.0771 61.3902 28.0934 66.9811C28.1394 72.571 27.9066 78.1562 27.6508 83.7633C27.4314 89.3686 27.1728 95.0141 27.5837 100.699C27.9871 106.373 29.1817 112.096 31.5518 117.462C32.1438 118.799 32.7675 120.132 33.4745 121.42C34.1547 122.72 34.9019 123.995 35.675 125.257C37.2366 127.776 38.9945 130.209 40.9536 132.518C44.8852 137.129 49.6273 141.219 54.8523 144.681C55.4022 145.045 56.1897 144.956 56.6121 144.48C57.0269 144.014 56.934 143.35 56.41 142.981L56.4062 142.978C55.1627 142.106 53.9336 141.221 52.7533 140.292C52.1545 139.836 51.5807 139.358 50.9963 138.889C50.433 138.401 49.8486 137.933 49.3035 137.431C47.0848 135.457 45.0299 133.35 43.1656 131.123C39.4151 126.689 36.4127 121.748 34.1384 116.627C33.0338 114.053 32.1515 111.415 31.5068 108.727C30.8649 106.038 30.4606 103.303 30.2374 100.545C29.79 95.0266 29.9922 89.4366 30.1656 83.8304C30.3303 78.2232 30.451 72.5873 30.3026 66.9552C30.2374 64.1397 30.1138 61.3251 29.9318 58.5143C29.8504 57.1089 29.7373 55.7045 29.6272 54.3C29.5017 52.8966 29.3666 51.4941 29.2181 50.0935C28.6136 44.4892 27.8127 38.904 26.8078 33.3476C25.7722 27.796 24.5661 22.2703 23.1156 16.7934C23.0744 16.6372 22.8934 16.5385 22.7123 16.5749C22.536 16.6094 22.4249 16.7589 22.4565 16.9102H22.4546Z" fill="#BDD0FB"/>
<path d="M34.5176 112.069C33.3766 113.28 31.3706 112.931 30.6837 111.416C26.8967 103.056 18.3264 78.4485 32.4799 50.0994C44.4319 26.1599 48.6376 12.0438 50.1033 5.50253C50.4127 4.11918 52.3086 3.9362 52.8805 5.23238C59.1928 19.5392 75.8591 68.2046 34.5176 112.069Z" fill="#BDD0FB"/>
<path d="M32.4444 111.187C32.4041 111.195 32.362 111.197 32.3189 111.196C31.9606 111.191 31.6741 110.896 31.6799 110.537C31.6866 110.131 32.477 69.4918 47.5923 35.455C47.7379 35.1274 48.1211 34.9798 48.4497 35.1255C48.7773 35.2711 48.9249 35.6552 48.7792 35.9829C33.7741 69.7715 32.9847 110.153 32.978 110.557C32.9732 110.874 32.7433 111.133 32.4434 111.187H32.4444Z" fill="url(#paint1_linear_1746_21778)"/>
<path d="M206.012 170.074C205.861 169.759 206.174 169.421 206.5 169.548C207.705 170.015 209.949 170.645 211.618 169.698C211.703 169.65 211.784 169.607 211.865 169.565C211.721 169.358 211.499 169.191 211.151 169.169C210.155 169.108 209.831 167.635 209.831 167.635C209.831 167.635 210.675 168.184 211.638 167.95C212.469 167.749 213.629 168.221 214.157 169.176C216.549 172.149 219.613 176.215 225.794 173.904C231.975 171.593 228.389 159.164 228.389 159.164L235.922 169.628C235.922 169.628 235.881 177.068 226.737 178.932C217.592 180.797 213.11 171.69 213.11 171.69C213.11 171.69 208.216 174.665 206.012 170.075V170.074Z" fill="url(#paint2_linear_1746_21778)"/>
<path d="M239.268 142.748C239.268 142.748 238.731 143.775 242.074 145.458C243.939 146.397 247.574 147.802 247.984 151.71C248.196 153.728 249.655 155.369 251.654 155.714C256.634 156.573 264.282 159.312 265.35 168.007C266.165 174.643 262.743 177.089 259.186 177.891C256.574 178.481 254.797 180.977 255.274 183.613C255.731 186.142 254.923 189.039 250.516 191.258C240.641 196.233 231.206 178.666 231.206 178.666L229.777 148.28L239.268 142.748Z" fill="url(#paint3_linear_1746_21778)"/>
<path d="M260.023 261.28L260.363 264.583C260.427 265.21 260.91 265.714 261.534 265.797C262.588 265.938 264.282 266.093 265.944 265.949C266.674 265.886 267.161 265.158 266.952 264.456C266.571 263.176 265.867 261.252 264.822 260.108L261.166 260.039C260.49 260.027 259.955 260.607 260.024 261.281L260.023 261.28Z" fill="url(#paint4_linear_1746_21778)"/>
<path d="M232.117 222.132L231.431 225.75C231.431 225.75 233.102 246.721 233.311 255.1C233.344 256.414 232.98 257.705 232.27 258.811L228.566 264.578L237.8 259.362L238.004 258.25L236.547 256.167L238.948 232.755C239.089 231.379 238.831 229.993 238.205 228.76L236.383 225.176L232.117 222.132Z" fill="url(#paint5_linear_1746_21778)"/>
<path d="M227.95 265.413L230.865 265.467C231.41 265.478 231.929 265.236 232.27 264.811C233.201 263.648 235.127 261.38 236.028 261.337C237.241 261.279 237.005 265.584 237.005 265.584L237.685 265.596L238.647 260.26C238.888 258.918 238.244 257.571 237.047 256.917C237.047 256.917 236.731 258.96 235.212 259.838C233.694 260.715 229.022 263.873 229.022 263.873C229.022 263.873 228.459 263.782 227.837 263.883C226.915 264.031 227.017 265.395 227.952 265.413L227.95 265.413Z" fill="url(#paint6_linear_1746_21778)"/>
<path d="M244.593 224.092C244.593 224.092 256.265 247.284 258.091 252.564C259.916 257.843 260.508 262.23 260.526 262.645C260.554 263.292 261.347 263.928 263.567 263.971C264.712 263.993 265.282 263.543 265.565 263.105C265.806 262.73 265.827 262.256 265.637 261.852C264.964 260.422 262.827 255.851 262.043 253.781C261.107 251.311 259.203 240.156 258.116 236.269C257.03 232.382 255.799 228.166 250.823 224.21C250.823 224.21 247.421 220.75 244.594 224.092H244.593Z" fill="url(#paint7_linear_1746_21778)"/>
<path d="M237.523 185.669C235.473 175.011 240.453 168.313 242.232 166.321C242.56 165.953 242.527 165.387 242.16 165.059C238.432 161.745 232.901 159.708 230.313 158.882C229.406 158.593 228.418 158.779 227.676 159.375C225.3 161.281 220.301 165.802 221.018 169.623C221.515 172.269 225.843 184.51 226.657 186.802C226.744 187.048 226.932 187.242 227.175 187.336C228.406 187.813 232.426 189.019 237.051 186.649C237.41 186.466 237.599 186.065 237.523 185.669Z" fill="url(#paint8_linear_1746_21778)"/>
<path d="M244.456 193.002C243.257 189.15 237.656 186.32 237.656 186.32C231.827 189.673 226.788 187.172 226.788 187.172C226.788 187.172 225.566 191.507 226.277 195.571C226.987 199.635 231.432 225.75 231.432 225.75C239.179 227.472 251.201 224.537 251.201 224.537C246.413 215.648 245.655 196.854 244.457 193.001L244.456 193.002Z" fill="url(#paint9_linear_1746_21778)"/>
<path d="M234.719 149.818L237.043 161.27C237.267 162.279 236.354 162.098 235.343 161.887C233.685 161.542 231.554 160.856 230.862 159.549C230.792 159.415 230.758 159.266 230.74 159.117L229.799 151.188C229.724 150.559 230.074 149.957 230.658 149.711L232.781 148.817C233.598 148.473 234.527 148.953 234.72 149.819L234.719 149.818Z" fill="url(#paint10_linear_1746_21778)"/>
<path d="M258.052 174.003C258.206 174.003 258.378 173.934 258.519 173.847C260.838 172.396 262.118 169.34 261.632 166.414C261.34 164.661 260.502 163.136 259.271 162.123C258.398 161.404 257.355 160.957 256.362 160.559C254.688 159.891 252.962 159.296 251.231 158.793C251.089 158.752 250.947 158.711 250.805 158.67C249.794 158.381 248.748 158.081 247.807 157.588C246.603 156.955 245.734 156.055 245.361 155.051C245.128 154.426 245.071 153.736 245.015 153.07C244.947 152.249 244.876 151.399 244.478 150.664C244.461 150.635 244.426 150.625 244.396 150.639C244.367 150.655 244.356 150.692 244.372 150.721C244.758 151.433 244.827 152.27 244.895 153.078C244.952 153.754 245.009 154.452 245.248 155.092C245.632 156.124 246.521 157.047 247.751 157.693C248.703 158.192 249.755 158.494 250.772 158.785C250.913 158.825 251.055 158.866 251.197 158.908C252.924 159.41 254.647 160.003 256.317 160.67C257.301 161.064 258.334 161.507 259.193 162.215C260.402 163.21 261.225 164.707 261.512 166.433C261.991 169.313 260.733 172.32 258.454 173.744C258.29 173.847 257.978 173.972 257.852 173.788C257.833 173.761 257.796 173.754 257.769 173.772C257.742 173.791 257.734 173.829 257.754 173.855C257.826 173.961 257.934 174.002 258.052 174.002V174.003Z" fill="#91B3FA"/>
<path d="M258.683 171.273C258.702 171.273 258.721 171.265 258.733 171.248C259.641 169.944 260.127 168.565 260.138 167.263C260.152 165.735 259.469 164.301 258.357 163.52C258.329 163.502 258.291 163.508 258.272 163.535C258.253 163.562 258.26 163.6 258.287 163.619C259.367 164.377 260.03 165.773 260.018 167.262C260.006 168.54 259.528 169.895 258.633 171.18C258.614 171.206 258.621 171.245 258.649 171.263C258.659 171.271 258.671 171.273 258.683 171.273Z" fill="#91B3FA"/>
<path d="M40.8978 259.877C38.3562 260.096 33.9446 260.454 30.4671 260.607C28.3767 260.699 27.1735 260.494 26.4799 260.217C26.4808 260.296 26.4837 260.369 26.4866 260.437C26.5029 260.803 26.8008 261.096 27.1696 261.117C33.7405 261.484 38.9664 261.243 40.8269 261.13C41.212 261.107 41.441 260.688 41.2446 260.361C41.1459 260.197 41.0271 260.036 40.8978 259.877Z" fill="url(#paint11_linear_1746_21778)"/>
<path d="M30.4678 260.606C33.9454 260.453 38.357 260.096 40.8986 259.876C38.4001 256.811 30.4678 254.744 30.4678 254.744H28.228C26.6876 256.965 26.4644 259.08 26.4807 260.216C27.1742 260.494 28.3775 260.698 30.4678 260.606Z" fill="url(#paint12_linear_1746_21778)"/>
<path d="M27.8494 251.087L28.0592 255.235C28.0822 255.684 28.4184 256.062 28.8677 256.126C29.3151 256.19 29.9148 256.198 30.5509 255.986C30.9418 255.856 31.2321 255.526 31.3049 255.125L32.0291 251.087H27.8503H27.8494Z" fill="url(#paint13_linear_1746_21778)"/>
<path d="M1.85064 264.663C0.747985 264.464 0.249826 263.724 0.0409817 262.933L0.0371489 262.954C-0.124753 263.788 0.250785 264.653 1.00282 265.064C1.911 265.561 2.90445 265.646 3.67564 265.605C4.50335 265.561 5.26209 265.119 5.67977 264.411L5.68648 264.4C4.8559 264.931 3.69001 264.994 1.85256 264.663H1.85064Z" fill="url(#paint14_linear_1746_21778)"/>
<path d="M7.04685 252.365H5.19983C2.38618 252.29 0.618671 259.961 0.0400391 262.932C0.248883 263.723 0.748003 264.463 1.8497 264.662C3.68811 264.994 4.85399 264.931 5.68362 264.4C7.20397 261.814 7.95792 258.027 8.32004 255.817C8.73198 253.303 7.0459 252.364 7.0459 252.364L7.04685 252.365Z" fill="url(#paint15_linear_1746_21778)"/>
<path d="M5.43695 248.515L4.41093 252.595C4.28544 253.095 4.52494 253.612 4.98669 253.85C5.56053 254.144 6.36813 254.453 7.11154 254.364C7.46121 254.322 7.75052 254.076 7.86644 253.747L9.37242 249.454L5.43695 248.515Z" fill="url(#paint16_linear_1746_21778)"/>
<path d="M41.5245 194.777C41.5245 194.777 32.3574 252.081 32.5078 252.396C32.5078 252.396 29.9758 253.547 27.2158 252.543C27.2158 252.543 28.0445 221.91 29.9873 210.164C29.9873 210.164 14.3413 237.543 9.37307 251.186C9.37307 251.186 6.78168 250.877 4.63672 249.466C4.63672 249.466 21.4832 200.183 25.9771 193.619L41.5245 194.776V194.777Z" fill="url(#paint17_linear_1746_21778)"/>
<path d="M30.4914 209.681L30.2155 209.509L33.6786 203.977L36.2691 203.456L36.3323 203.774L33.8798 204.267L30.4914 209.681Z" fill="url(#paint18_linear_1746_21778)"/>
<path d="M44.8899 155.143C44.271 154.929 43.6244 154.803 42.9691 154.765C39.3929 154.555 29.9451 155.966 19.8162 157.673C16.2438 158.275 15.7274 160.849 15.4783 162.98C14.915 167.796 17.9021 169.005 22.0052 169.595C24.4759 176.266 25.6351 186.001 25.8774 190.31C25.9569 191.728 25.7079 193.143 25.1522 194.453L25.0919 194.596C24.9731 194.876 25.1369 195.198 25.4367 195.265C32.1121 196.765 39.0547 196.357 41.1288 196.186C41.4995 196.155 41.8071 195.891 41.8914 195.533C45.1371 181.855 45.1447 172.525 44.3496 166.628C56.9329 173.888 51.6084 157.47 44.8899 155.142V155.143Z" fill="url(#paint19_linear_1746_21778)"/>
<path d="M44.0675 166.235C43.189 160.318 42.1793 158.562 41.957 158.416C41.9752 158.428 42.0318 158.441 42.0844 158.404C42.1333 158.37 42.1467 158.315 42.141 158.288L41.844 158.354C41.82 158.247 41.8727 158.187 41.8967 158.166L42.0729 158.137C42.3747 158.248 43.4438 159.966 44.3683 166.191L44.0675 166.235Z" fill="url(#paint20_linear_1746_21778)"/>
<path d="M27.8889 146.798C27.8889 146.798 27.2135 153.938 26.6186 156.05C26.5286 156.37 26.6675 156.708 26.9587 156.875C27.9675 157.452 30.3883 158.393 33.6992 156.77C34.2357 156.507 34.5576 155.948 34.5326 155.356L34.2414 148.456L27.8889 146.798Z" fill="url(#paint21_linear_1746_21778)"/>
<path d="M128.681 187.023C123.486 185.88 116.993 187.118 111.052 188.707C104.316 189.417 101.908 178.391 104.647 171.472C106.146 167.689 109.795 165.967 113.042 167.344C121.653 170.992 125.4 169.883 128.523 169.14C130.865 168.584 131.941 164.971 131.864 162.054L130.329 103.671C130.265 101.285 131.524 99.1038 133.41 98.4945C138.219 96.9406 143.44 100.032 149.556 102.494C152.002 103.479 154.688 103.39 157.017 102.05C166.019 96.8707 163.647 78.9053 152.742 80.9573C146.565 82.766 139.77 84.0057 133.538 82.7593C131.622 82.3761 130.204 80.3672 130.17 77.9914L129.386 23.8174C127.418 24.0827 125.48 24.6432 123.645 25.515L41.2823 64.632C34.9251 67.6517 30.684 73.8729 30.2299 80.896C22.5046 200.315 99.0747 243.826 124.175 254.817C126.87 255.997 129.764 256.533 132.641 256.435L132.014 191.971C132.014 189.559 130.622 187.452 128.681 187.024V187.023Z" fill="url(#paint22_linear_1746_21778)"/>
<path d="M131.988 256.932C129.239 256.932 126.484 256.36 123.978 255.263C110.87 249.522 85.713 235.855 64.5086 208.817C52.5911 193.62 43.5553 176.203 37.654 157.047C30.6127 134.196 27.9514 108.564 29.7438 80.8634C30.2084 73.6784 34.5501 67.2895 41.0731 64.1913L123.436 25.0742C125.284 24.1967 127.263 23.6104 129.32 23.3336L129.864 23.2607L130.658 77.9837C130.689 80.1344 131.94 81.9421 133.634 82.2803C138.844 83.3216 144.872 82.7526 152.606 80.4879L152.653 80.4764C156.979 79.663 160.54 81.8291 162.182 86.2723C164.141 91.5729 162.817 99.2733 157.262 102.469C154.856 103.854 152.055 104.023 149.375 102.944C148.233 102.485 147.122 102.004 146.046 101.537C141.355 99.5032 137.302 97.7462 133.56 98.9562C131.913 99.4879 130.758 101.465 130.816 103.655L132.351 162.039C132.439 165.343 131.189 169.004 128.635 169.612L128.303 169.691C125.186 170.44 121.306 171.371 112.852 167.789C111.509 167.22 110.032 167.217 108.689 167.779C107.099 168.445 105.824 169.819 105.1 171.648C103.272 176.265 103.837 182.725 106.36 186.046C107.594 187.672 109.142 188.406 110.963 188.224C116.323 186.791 123.183 185.311 128.785 186.544C130.937 187.018 132.5 189.299 132.5 191.967L133.132 256.902L132.657 256.918C132.435 256.926 132.212 256.93 131.989 256.93L131.988 256.932ZM128.905 24.3806C127.144 24.669 125.446 25.1978 123.853 25.9546L41.4898 65.0717C35.2858 68.0185 31.1568 74.0942 30.7142 80.9266C28.9295 108.508 31.5774 134.024 38.5832 156.761C44.45 175.801 53.4303 193.112 65.2741 208.215C86.3472 235.086 111.343 248.667 124.368 254.37C126.8 255.434 129.489 255.971 132.147 255.957L131.525 191.974C131.525 189.755 130.284 187.874 128.574 187.497C123.103 186.294 116.024 187.88 111.176 189.177L111.101 189.191C108.933 189.419 107.026 188.536 105.583 186.637C102.832 183.014 102.221 176.274 104.193 171.292C105.015 169.216 106.478 167.65 108.311 166.881C109.897 166.217 111.644 166.221 113.231 166.894C121.389 170.35 125.095 169.46 128.074 168.745L128.408 168.665C130.362 168.2 131.451 164.944 131.376 162.065L129.84 103.682C129.771 101.027 131.177 98.7033 133.26 98.0298C137.349 96.7087 141.559 98.5318 146.432 100.643C147.501 101.107 148.608 101.586 149.737 102.041C152.133 103.006 154.633 102.858 156.775 101.626C160.757 99.3346 163.606 92.9428 161.266 86.6114C159.165 80.9276 154.703 81.0885 152.855 81.4305C144.975 83.7355 138.806 84.3093 133.442 83.2364C131.301 82.8081 129.72 80.6057 129.682 77.998L128.905 24.3806Z" fill="#91B3FA"/>
<path d="M233.729 80.8952C233.275 73.8721 229.034 67.6509 222.677 64.6312L140.314 25.5141C136.874 23.8808 133.074 23.3194 129.383 23.8166L130.168 77.9905C130.202 80.3654 131.619 82.3744 133.535 82.7585C139.767 84.0049 146.563 82.7652 152.739 80.9565C163.645 78.9045 166.016 96.8699 157.015 102.049C154.684 103.39 151.999 103.478 149.553 102.493C143.436 100.031 138.216 96.9398 133.408 98.4937C131.521 99.103 130.263 101.284 130.326 103.67L131.861 162.053C131.938 164.97 130.862 168.583 128.52 169.14C125.398 169.882 121.65 170.991 113.04 167.343C109.792 165.968 106.142 167.688 104.645 171.471C101.906 178.391 104.313 189.418 111.049 188.707C116.99 187.117 123.483 185.88 128.678 187.023C130.619 187.45 132.011 189.558 132.011 191.97L132.638 256.434C135.075 256.351 137.501 255.816 139.784 254.815C164.885 243.824 241.455 200.313 233.728 80.8943L233.729 80.8952Z" fill="url(#paint23_linear_1746_21778)"/>
<path d="M132.157 256.938L131.525 191.975C131.525 189.756 130.284 187.875 128.574 187.499C123.104 186.296 116.024 187.881 111.176 189.178L111.101 189.192C108.933 189.42 107.026 188.537 105.583 186.638C102.832 183.015 102.221 176.275 104.193 171.293C105.015 169.217 106.478 167.651 108.311 166.882C109.898 166.219 111.645 166.222 113.231 166.895C121.389 170.351 125.096 169.461 128.074 168.746L128.408 168.666C130.363 168.202 131.451 164.946 131.376 162.066L129.841 103.683C129.771 101.028 131.177 98.7044 133.26 98.0309C137.349 96.7098 141.559 98.5329 146.432 100.644C147.501 101.108 148.608 101.587 149.737 102.042C152.133 103.007 154.633 102.859 156.775 101.627C160.757 99.3357 163.606 92.9439 161.266 86.6125C159.166 80.9296 154.702 81.0886 152.856 81.4316C144.976 83.7365 138.806 84.3104 133.442 83.2374C131.301 82.8092 129.72 80.6068 129.682 77.9991L128.891 23.3931L129.319 23.3356C133.162 22.8183 137.036 23.4189 140.524 25.0763L222.886 64.1933C229.409 67.2915 233.751 73.6804 234.216 80.8654C236.008 108.566 233.346 134.198 226.305 157.049C220.403 176.204 211.368 193.621 199.451 208.819C178.246 235.857 153.089 249.524 139.981 255.265C137.665 256.279 135.201 256.837 132.657 256.923L132.158 256.94L132.157 256.938ZM124.167 186.087C125.759 186.087 127.314 186.224 128.784 186.547C130.936 187.021 132.499 189.301 132.499 191.97L133.121 255.924C135.364 255.79 137.537 255.267 139.589 254.37C152.614 248.667 177.61 235.086 198.683 208.215C210.527 193.112 219.507 175.8 225.374 156.761C232.38 134.023 235.028 108.509 233.243 80.9267C232.802 74.0943 228.673 68.0186 222.468 65.0718L140.106 25.9547C136.919 24.4411 133.391 23.8548 129.878 24.2476L130.657 77.9847C130.688 80.1354 131.94 81.9432 133.633 82.2813C138.843 83.3227 144.872 82.7536 152.606 80.4889L152.652 80.4774C156.978 79.6641 160.539 81.8301 162.181 86.2733C164.14 91.5739 162.816 99.2744 157.261 102.47C154.855 103.856 152.054 104.024 149.374 102.945C148.232 102.486 147.121 102.005 146.045 101.538C141.354 99.5043 137.301 97.7473 133.56 98.9573C131.912 99.4889 130.757 101.466 130.815 103.656L132.351 162.04C132.438 165.344 131.188 169.005 128.634 169.613L128.302 169.692C125.185 170.441 121.305 171.373 112.851 167.791C111.508 167.221 110.031 167.218 108.688 167.78C107.099 168.446 105.823 169.82 105.099 171.649C103.271 176.266 103.837 182.726 106.359 186.047C107.593 187.673 109.142 188.409 110.962 188.225C114.917 187.168 119.688 186.085 124.167 186.085V186.087Z" fill="#91B3FA"/>
<path d="M107.065 41.313C106.883 41.313 106.707 41.2105 106.625 41.0351C106.51 40.7918 106.612 40.5015 106.856 40.3866L126.317 31.1438C126.56 31.0288 126.85 31.1313 126.965 31.3747C127.08 31.618 126.978 31.9083 126.734 32.0232L107.273 41.266C107.205 41.2976 107.135 41.313 107.065 41.313Z" fill="#91B3FA"/>
<path d="M36.5277 105.77C36.2661 105.77 36.0496 105.563 36.041 105.299C35.7804 97.5538 35.9174 89.4788 36.4462 81.2984C36.7538 76.5439 39.6297 72.3143 43.9541 70.2613L99.3601 43.9469C99.6034 43.831 99.8937 43.9345 100.009 44.1778C100.124 44.4211 100.021 44.7114 99.7777 44.8264L44.3718 71.1407C40.3673 73.0433 37.7031 76.9596 37.4186 81.3617C36.8917 89.5104 36.7557 97.5528 37.0143 105.267C37.0239 105.536 36.8122 105.761 36.544 105.77C36.5382 105.77 36.5325 105.77 36.5267 105.77H36.5277Z" fill="#91B3FA"/>
<path d="M242.591 165.459C242.591 165.459 244.422 173.75 233.758 182.394C228.664 186.523 218.208 186.071 217.406 180.796L219.437 178.945C219.437 178.945 227.077 181.21 229.428 178.924C231.779 176.638 234.471 171.388 234.471 171.388C234.471 171.388 239.782 164.73 242.591 165.459H242.591Z" fill="url(#paint24_linear_1746_21778)"/>
<path d="M217.578 181.379C217.578 181.379 220.346 179.057 220.807 177.85C221.268 176.643 221.679 174.958 219.677 173.927C217.675 172.897 215.008 172.096 215.008 172.096C215.008 172.096 214.153 173.481 215.825 174.061L214.5 174.092C214.5 174.092 213.852 175.227 215.412 175.514L213.99 175.802C213.99 175.802 213.852 177.025 215.103 177.096C216.354 177.168 214.929 179.953 217.579 181.378L217.578 181.379Z" fill="url(#paint25_linear_1746_21778)"/>
<path d="M230.052 139.33C230.052 139.33 227.314 141.109 226.065 145.747C224.816 150.384 226.671 152.092 228.608 152.025C230.545 151.959 233.362 151.414 235.856 148.118C238.349 144.821 233.637 137.162 230.052 139.331V139.33Z" fill="url(#paint26_linear_1746_21778)"/>
<path d="M233.439 146.191C233.439 146.191 234.555 139.533 228.993 140.45L227.85 141.596C227.85 141.596 225.195 138.489 228.241 136.236C231.288 133.983 235.443 134.653 237.669 138.901C239.894 143.15 240.676 146.121 238.694 148.697C236.713 151.273 235.302 149.005 235.302 149.005C235.302 149.005 237.468 146.328 236.296 145.156C235.435 144.295 233.82 146.308 233.82 146.308L233.44 146.191H233.439Z" fill="url(#paint27_linear_1746_21778)"/>
<path d="M35.6218 181.439C34.4827 181.25 33.4634 180.68 32.7938 180.031C29.6113 176.946 26.3455 169.252 26.3455 169.252C26.3455 169.252 21.4923 157.475 16.525 159.385C16.525 159.385 11.1985 168.651 24.5722 182.793C25.7429 184.031 29.8642 186.642 31.579 187.253C33.3408 185.47 34.7021 183.656 35.6218 181.439Z" fill="url(#paint28_linear_1746_21778)"/>
<path d="M48.7658 182.333C45.5766 182.913 40.1064 183.653 35.1593 181.312C34.8173 182.838 34.3335 183.872 31.4365 187.201C36.2007 188.298 43.5016 188.503 50.7364 184.908L48.7658 182.334V182.333Z" fill="url(#paint29_linear_1746_21778)"/>
<path d="M51.766 185.244C51.3781 185.695 50.696 185.741 50.2553 185.34C49.5128 184.666 48.3699 183.551 48.1046 182.858C47.7032 181.811 47.3439 180.35 49.0798 179.452C50.8157 178.556 53.1293 177.857 53.1293 177.857C53.1293 177.857 53.8727 179.058 52.4232 179.564L53.5728 179.589C53.5728 179.589 54.1371 180.573 52.7834 180.824L54.0183 181.073C54.0183 181.073 54.14 182.134 53.0546 182.197C52.1425 182.251 52.8706 183.962 51.767 185.243L51.766 185.244Z" fill="url(#paint30_linear_1746_21778)"/>
<path d="M34.3863 137.662C34.3863 137.662 36.5466 142.624 36.6912 145.228C36.8359 147.832 37.3973 149.522 34.3863 150.047C31.3753 150.571 28.8385 149.072 27.4638 146.478C27.4638 146.478 25.3102 142.481 25.794 140.844C26.2768 139.206 34.3863 137.663 34.3863 137.663V137.662Z" fill="url(#paint31_linear_1746_21778)"/>
<path d="M28.4928 144.612L28.6643 144.536C28.8827 144.44 28.9757 144.18 28.8665 143.968C28.4421 143.148 27.6144 141.267 28.6835 140.828C30.062 140.263 35.5207 139.15 36.6981 137.213C37.8305 135.352 36.8274 132.948 35.3196 132.265C35.219 132.219 35.1002 132.255 35.0484 132.353L34.9229 132.591C34.8367 132.753 34.5963 132.729 34.5455 132.552C34.4966 132.383 34.2705 132.349 34.1767 132.5C33.8145 133.079 32.8374 134.019 30.223 134.501C26.5079 135.187 24.0525 136.69 23.9912 139.256C23.9874 139.419 23.814 139.51 23.6741 139.425C23.4001 139.258 22.9613 139.18 22.3741 139.673C21.3538 140.53 21.7715 142.756 24.0075 144.587C24.1138 144.674 24.1129 144.84 23.9979 144.914C23.5927 145.178 22.9882 145.806 24.5545 146.643C26.1745 147.51 27.3844 147.439 27.85 147.361C27.9659 147.342 28.0407 147.23 28.0158 147.115L27.5186 144.859C27.4908 144.731 27.5875 144.61 27.7188 144.61H28.4928V144.612Z" fill="url(#paint32_linear_1746_21778)"/>
<path d="M28.5868 145.087C28.5868 145.087 27.7629 141.918 26.3422 142.806C24.9215 143.695 27.0799 146.358 28.2218 146.477L28.5868 145.087Z" fill="url(#paint33_linear_1746_21778)"/>
<path d="M152.933 256.246C152.688 256.205 152.472 256.068 152.33 255.864C150.268 252.889 135.319 229.652 156.845 209.537C177.28 190.441 186.387 186.677 187.951 175.123C188.134 173.775 189.975 173.508 190.538 174.748C194.747 184.013 201.077 205.52 177.428 218.747C151.341 233.338 152.898 250.297 153.983 255.137C154.126 255.777 153.578 256.356 152.932 256.247L152.933 256.246Z" fill="#91B3FA"/>
<path d="M156.093 256.779C155.514 256.682 155.066 256.218 154.995 255.634C154.511 251.661 153.483 236.839 164.492 233.269C176.612 229.339 185.927 240.808 195.014 232.355C195.492 231.911 196.258 232.336 196.127 232.976C195.197 237.513 191.368 247.969 175.765 249.598C159.065 251.343 157.133 253.19 157.392 255.567C157.473 256.299 156.819 256.901 156.092 256.778L156.093 256.779Z" fill="#91B3FA"/>
<path d="M186.937 186.907C186.937 186.907 186.855 187.229 186.655 187.796C186.459 188.368 186.124 189.187 185.63 190.199C185.121 191.201 184.461 192.403 183.565 193.691C182.683 194.99 181.573 196.378 180.243 197.783C178.912 199.186 177.343 200.59 175.567 201.916C174.685 202.588 173.729 203.208 172.749 203.834C172.248 204.13 171.751 204.444 171.23 204.729C170.971 204.873 170.71 205.019 170.449 205.163C170.191 205.303 169.932 205.444 169.673 205.585C167.646 206.705 165.627 208.058 163.725 209.599C161.817 211.137 160.022 212.876 158.377 214.745C156.74 216.621 155.272 218.644 154.03 220.756C152.79 222.868 151.767 225.062 151.004 227.267C150.241 229.472 149.725 231.678 149.429 233.798C149.128 235.919 149.074 237.953 149.136 239.825C149.279 243.576 149.996 246.659 150.608 248.767C150.911 249.824 151.185 250.645 151.381 251.202C151.581 251.758 151.687 252.054 151.687 252.054L151.689 252.06C151.737 252.195 151.668 252.343 151.533 252.391C151.403 252.438 151.259 252.373 151.206 252.245C151.206 252.245 151.086 251.95 150.859 251.397C150.636 250.843 150.322 250.024 149.966 248.963C149.272 246.843 148.439 243.727 148.164 239.877C148.028 237.955 148.05 235.855 148.304 233.655C148.555 231.456 149.04 229.157 149.799 226.859C150.554 224.562 151.567 222.263 152.829 220.059C154.095 217.858 155.595 215.746 157.27 213.788C158.949 211.832 160.807 210.031 162.777 208.432C164.747 206.827 166.817 205.429 168.945 204.246C169.463 203.963 169.977 203.683 170.486 203.406C170.991 203.134 171.473 202.835 171.959 202.554C172.913 201.96 173.835 201.362 174.698 200.732C176.448 199.501 177.97 198.163 179.319 196.872C179.981 196.215 180.607 195.574 181.164 194.93C181.732 194.295 182.248 193.673 182.71 193.07C183.638 191.865 184.374 190.759 184.933 189.819C185.493 188.88 185.881 188.111 186.131 187.582C186.382 187.051 186.485 186.765 186.485 186.765C186.529 186.642 186.665 186.578 186.787 186.622C186.902 186.663 186.966 186.785 186.937 186.902V186.907Z" fill="#BDD0FB"/>
<path d="M155.534 254.074C155.534 254.074 155.552 254.022 155.563 253.922C155.574 253.822 155.565 253.677 155.567 253.485C155.567 253.103 155.577 252.543 155.612 251.833C155.689 250.412 155.856 248.376 156.387 245.985C156.655 244.791 157.02 243.509 157.552 242.204C158.084 240.901 158.796 239.568 159.797 238.375C160.788 237.186 162.111 236.155 163.665 235.591C165.212 235.006 166.926 234.899 168.566 235.097C170.194 235.331 171.776 235.633 173.351 235.931C174.92 236.232 176.459 236.55 177.947 236.856C179.435 237.162 180.872 237.454 182.239 237.685C183.605 237.909 184.903 238.079 186.098 238.091C187.292 238.114 188.378 237.969 189.295 237.694C190.209 237.408 190.947 236.998 191.512 236.602C192.081 236.208 192.483 235.834 192.754 235.578C193.018 235.314 193.159 235.173 193.159 235.173L193.167 235.165C193.249 235.083 193.382 235.083 193.465 235.165C193.546 235.247 193.546 235.378 193.467 235.46C193.467 235.46 193.324 235.609 193.055 235.886C192.779 236.156 192.369 236.551 191.778 236.976C191.191 237.402 190.414 237.852 189.446 238.173C188.477 238.487 187.328 238.653 186.091 238.629C184.852 238.623 183.53 238.453 182.148 238.233C180.766 238.005 179.323 237.718 177.832 237.418C176.342 237.119 174.805 236.807 173.238 236.513C171.678 236.222 170.07 235.934 168.491 235.699C166.923 235.493 165.307 235.58 163.854 236.112C162.394 236.625 161.141 237.576 160.18 238.704C159.21 239.833 158.508 241.116 157.968 242.38C157.429 243.647 157.052 244.903 156.77 246.076C156.212 248.428 156.016 250.445 155.919 251.853C155.873 252.558 155.856 253.112 155.85 253.49C155.849 253.679 155.841 253.823 155.854 253.921C155.867 254.019 155.888 254.067 155.888 254.067C155.931 254.164 155.886 254.277 155.788 254.32C155.691 254.363 155.577 254.319 155.535 254.221C155.514 254.175 155.514 254.125 155.529 254.081L155.531 254.076L155.534 254.074Z" fill="#BDD0FB"/>
<path d="M128.951 159.331C134.008 154.274 134.008 146.075 128.951 141.018C123.894 135.961 115.694 135.961 110.637 141.018C105.58 146.075 105.58 154.274 110.637 159.331C115.694 164.388 123.894 164.388 128.951 159.331Z" fill="url(#paint34_linear_1746_21778)"/>
<path d="M128.646 159.027C133.535 154.138 133.535 146.212 128.646 141.323C123.757 136.434 115.831 136.434 110.943 141.323C106.054 146.212 106.054 154.138 110.943 159.026C115.831 163.915 123.757 163.915 128.646 159.027Z" fill="url(#paint35_linear_1746_21778)"/>
<path opacity="0.69" d="M109.471 145.624C109.372 145.624 109.273 145.602 109.179 145.554C108.859 145.393 108.73 145.002 108.891 144.681C110.981 140.541 115.159 137.969 119.793 137.969C120.533 137.969 121.273 138.036 121.995 138.167C122.347 138.231 122.581 138.569 122.517 138.923C122.453 139.275 122.116 139.508 121.761 139.445C121.116 139.327 120.454 139.268 119.793 139.268C115.652 139.268 111.919 141.567 110.05 145.267C109.936 145.493 109.708 145.623 109.47 145.623L109.471 145.624Z" fill="white"/>
<path opacity="0.78" d="M127.558 157.939C131.696 153.802 131.696 147.093 127.558 142.955C123.421 138.817 116.712 138.817 112.574 142.955C108.436 147.093 108.436 153.802 112.574 157.939C116.712 162.077 123.421 162.077 127.558 157.939Z" fill="white"/>
<path d="M119.027 158.324V157.172C117.826 157.124 116.637 156.84 115.793 156.47C115.491 156.338 115.338 156 115.424 155.683L115.718 154.609C115.825 154.215 116.253 154.011 116.63 154.169C117.467 154.52 118.5 154.798 119.616 154.798C120.731 154.798 121.636 154.405 121.636 153.601C121.636 152.875 120.969 152.444 119.361 152.012C117.065 151.384 115.418 150.383 115.418 148.363C115.418 146.539 116.752 145.146 119.067 144.773V143.621C119.067 143.25 119.367 142.949 119.738 142.949H120.416C120.786 142.949 121.087 143.25 121.087 143.621V144.655C122.199 144.699 123.009 144.89 123.651 145.116C123.98 145.232 124.159 145.587 124.068 145.923L123.799 146.916C123.696 147.299 123.286 147.509 122.915 147.368C122.324 147.145 121.488 146.912 120.4 146.912C119.027 146.912 118.635 147.481 118.635 147.99C118.635 148.618 119.458 149.05 121.243 149.599C123.793 150.364 124.853 151.423 124.853 153.326C124.853 155.073 123.559 156.642 121.047 157.034V158.324C121.047 158.695 120.746 158.996 120.375 158.996H119.698C119.327 158.996 119.026 158.695 119.026 158.324H119.027Z" fill="url(#paint36_linear_1746_21778)"/>
<path d="M115.507 126.777C124.31 117.974 124.31 103.702 115.507 94.8985C106.704 86.0954 92.4313 86.0954 83.6282 94.8985C74.825 103.702 74.825 117.974 83.6281 126.777C92.4312 135.58 106.704 135.58 115.507 126.777Z" fill="url(#paint37_linear_1746_21778)"/>
<path d="M114.977 126.248C123.488 117.737 123.488 103.939 114.977 95.4282C106.467 86.9177 92.6685 86.9177 84.158 95.4282C75.6475 103.939 75.6474 117.737 84.158 126.248C92.6685 134.758 106.467 134.758 114.977 126.248Z" fill="url(#paint38_linear_1746_21778)"/>
<path opacity="0.69" d="M81.5972 102.434C81.4986 102.434 81.3989 102.412 81.3051 102.364C80.9851 102.203 80.8567 101.813 81.0177 101.492C84.5728 94.4465 91.6812 90.0703 99.5674 90.0703C100.825 90.0703 102.086 90.1834 103.313 90.4075C103.666 90.4717 103.9 90.8099 103.836 91.1634C103.772 91.5159 103.436 91.7487 103.08 91.6865C101.93 91.4767 100.748 91.3703 99.5674 91.3703C92.1745 91.3703 85.5107 95.4734 82.1778 102.078C82.0638 102.304 81.8348 102.434 81.5972 102.434Z" fill="white"/>
<path opacity="0.78" d="M113.085 124.356C120.288 117.153 120.288 105.474 113.085 98.2713C105.882 91.0683 94.2034 91.0683 87.0004 98.2713C79.7974 105.474 79.7974 117.153 87.0004 124.356C94.2034 131.559 105.882 131.559 113.085 124.356Z" fill="white"/>
<path d="M98.2328 125.025V123.018C96.1405 122.935 94.0722 122.441 92.6027 121.798C92.0777 121.568 91.8104 120.979 91.9608 120.427L92.4704 118.558C92.6573 117.872 93.4035 117.518 94.0588 117.792C95.5169 118.404 97.317 118.887 99.2579 118.887C101.199 118.887 102.776 118.204 102.776 116.804C102.776 115.54 101.615 114.789 98.8143 114.038C94.8185 112.945 91.9503 111.203 91.9503 107.686C91.9503 104.51 94.2724 102.085 98.3018 101.437V99.4295C98.3018 98.7838 98.8249 98.2607 99.4706 98.2607H100.65C101.296 98.2607 101.819 98.7838 101.819 99.4295V101.232C103.755 101.309 105.163 101.64 106.282 102.033C106.855 102.235 107.168 102.851 107.009 103.438L106.541 105.166C106.36 105.833 105.648 106.198 105.001 105.953C103.971 105.565 102.516 105.158 100.624 105.158C98.2338 105.158 97.5507 106.149 97.5507 107.037C97.5507 108.13 98.9849 108.881 102.093 109.837C106.532 111.169 108.376 113.013 108.376 116.326C108.376 119.366 106.122 122.097 101.751 122.781V125.026C101.751 125.672 101.228 126.195 100.582 126.195H99.4025C98.7568 126.195 98.2338 125.672 98.2338 125.026L98.2328 125.025Z" fill="url(#paint39_linear_1746_21778)"/>
<path d="M172.111 183.847C181.169 174.788 181.169 160.102 172.111 151.044C163.053 141.986 148.367 141.986 139.308 151.044C130.25 160.102 130.25 174.788 139.308 183.847C148.367 192.905 163.053 192.905 172.111 183.847Z" fill="url(#paint40_linear_1746_21778)"/>
<path d="M171.566 183.301C180.323 174.544 180.323 160.346 171.566 151.589C162.809 142.832 148.611 142.832 139.854 151.589C131.097 160.346 131.097 174.544 139.854 183.301C148.611 192.058 162.809 192.058 171.566 183.301Z" fill="url(#paint41_linear_1746_21778)"/>
<path opacity="0.69" d="M137.218 158.782C137.12 158.782 137.02 158.76 136.926 158.712C136.606 158.551 136.478 158.16 136.639 157.839C140.294 150.596 147.602 146.098 155.709 146.098C157.003 146.098 158.298 146.214 159.56 146.443C159.912 146.508 160.147 146.846 160.083 147.199C160.019 147.552 159.681 147.785 159.328 147.722C158.143 147.507 156.925 147.397 155.71 147.397C148.095 147.397 141.232 151.622 137.799 158.425C137.685 158.651 137.456 158.782 137.218 158.782Z" fill="white"/>
<path opacity="0.78" d="M169.617 181.354C177.029 173.942 177.029 161.925 169.617 154.513C162.206 147.102 150.189 147.102 142.777 154.513C135.365 161.925 135.365 173.942 142.777 181.354C150.189 188.765 162.206 188.765 169.617 181.354Z" fill="white"/>
<path d="M154.335 182.044V179.98C152.183 179.894 150.054 179.386 148.541 178.724C148.001 178.487 147.726 177.882 147.881 177.313L148.406 175.389C148.599 174.684 149.366 174.319 150.041 174.602C151.541 175.23 153.393 175.728 155.39 175.728C157.388 175.728 159.01 175.025 159.01 173.584C159.01 172.284 157.815 171.511 154.933 170.738C150.821 169.613 147.87 167.821 147.87 164.202C147.87 160.934 150.259 158.438 154.406 157.771V155.705C154.406 155.04 154.945 154.502 155.61 154.502H156.822C157.487 154.502 158.026 155.04 158.026 155.705V157.559C160.017 157.638 161.468 157.979 162.618 158.384C163.207 158.591 163.53 159.226 163.367 159.829L162.884 161.608C162.698 162.294 161.965 162.67 161.3 162.419C160.241 162.018 158.743 161.601 156.796 161.601C154.335 161.601 153.633 162.62 153.633 163.533C153.633 164.658 155.11 165.431 158.306 166.415C162.875 167.786 164.772 169.682 164.772 173.091C164.772 176.219 162.453 179.03 157.955 179.733V182.044C157.955 182.708 157.416 183.247 156.752 183.247H155.538C154.873 183.247 154.334 182.708 154.334 182.044L154.335 182.044Z" fill="url(#paint42_linear_1746_21778)"/>
<path d="M161.398 135.149C168.035 128.512 168.035 117.752 161.398 111.115C154.761 104.478 144 104.478 137.363 111.115C130.726 117.752 130.726 128.512 137.363 135.149C144 141.786 154.761 141.786 161.398 135.149Z" fill="url(#paint43_linear_1746_21778)"/>
<path d="M160.998 134.749C167.414 128.333 167.414 117.93 160.998 111.514C154.582 105.098 144.179 105.098 137.763 111.514C131.346 117.93 131.346 128.333 137.763 134.749C144.179 141.166 154.582 141.166 160.998 134.749Z" fill="url(#paint44_linear_1746_21778)"/>
<path opacity="0.69" d="M135.832 116.956C135.734 116.956 135.634 116.934 135.54 116.886C135.22 116.725 135.092 116.334 135.253 116.013C137.961 110.647 143.375 107.314 149.381 107.314C150.338 107.314 151.297 107.401 152.233 107.571C152.586 107.635 152.821 107.974 152.757 108.327C152.692 108.681 152.354 108.912 152.001 108.85C151.142 108.693 150.261 108.614 149.381 108.614C143.867 108.614 138.898 111.674 136.412 116.599C136.298 116.825 136.069 116.956 135.832 116.956H135.832Z" fill="white"/>
<path opacity="0.78" d="M159.571 133.323C165.002 127.892 165.002 119.087 159.571 113.656C154.141 108.225 145.336 108.225 139.905 113.656C134.474 119.087 134.474 127.892 139.905 133.323C145.336 138.753 154.141 138.753 159.571 133.323Z" fill="white"/>
<path d="M148.375 133.827V132.314C146.798 132.251 145.237 131.879 144.13 131.393C143.734 131.22 143.533 130.776 143.646 130.36L144.03 128.951C144.171 128.433 144.733 128.166 145.228 128.373C146.326 128.834 147.684 129.198 149.147 129.198C150.61 129.198 151.798 128.682 151.798 127.627C151.798 126.674 150.923 126.107 148.811 125.541C145.799 124.717 143.636 123.404 143.636 120.752C143.636 118.357 145.388 116.529 148.425 116.041V114.528C148.425 114.041 148.82 113.646 149.307 113.646H150.196C150.682 113.646 151.077 114.041 151.077 114.528V115.886C152.536 115.945 153.599 116.194 154.442 116.491C154.874 116.642 155.109 117.108 154.99 117.549L154.636 118.852C154.5 119.355 153.963 119.63 153.476 119.446C152.7 119.153 151.602 118.847 150.176 118.847C148.374 118.847 147.858 119.594 147.858 120.263C147.858 121.087 148.94 121.653 151.282 122.375C154.629 123.379 156.019 124.769 156.019 127.266C156.019 129.558 154.32 131.618 151.024 132.133V133.826C151.024 134.312 150.63 134.707 150.143 134.707H149.254C148.767 134.707 148.373 134.312 148.373 133.826L148.375 133.827Z" fill="url(#paint45_linear_1746_21778)"/>
<defs>
<linearGradient id="paint0_linear_1746_21778" x1="286.368" y1="267.42" x2="90.1456" y2="95.7251" gradientUnits="userSpaceOnUse">
<stop stop-color="#DAE3FE"/>
<stop offset="1" stop-color="#E9EFFD"/>
</linearGradient>
<linearGradient id="paint1_linear_1746_21778" x1="31.6799" y1="73.1341" x2="48.8358" y2="73.1341" gradientUnits="userSpaceOnUse">
<stop stop-color="#DAE3FE"/>
<stop offset="1" stop-color="#E9EFFD"/>
</linearGradient>
<linearGradient id="paint2_linear_1746_21778" x1="197.617" y1="166.781" x2="236.888" y2="170.067" gradientUnits="userSpaceOnUse">
<stop stop-color="#E1473D"/>
<stop offset="1" stop-color="#E9605A"/>
</linearGradient>
<linearGradient id="paint3_linear_1746_21778" x1="242.822" y1="160.295" x2="287.511" y2="260.847" gradientUnits="userSpaceOnUse">
<stop stop-color="#09005D"/>
<stop offset="1" stop-color="#1A0F91"/>
</linearGradient>
<linearGradient id="paint4_linear_1746_21778" x1="-118.01" y1="272.782" x2="-66.8778" y2="271.469" gradientUnits="userSpaceOnUse">
<stop stop-color="#4F52FF"/>
<stop offset="1" stop-color="#4042E2"/>
</linearGradient>
<linearGradient id="paint5_linear_1746_21778" x1="229.691" y1="290.208" x2="242.07" y2="171.85" gradientUnits="userSpaceOnUse">
<stop stop-color="#FEBBBA"/>
<stop offset="1" stop-color="#FF928E"/>
</linearGradient>
<linearGradient id="paint6_linear_1746_21778" x1="-118.072" y1="270.362" x2="-66.9396" y2="269.049" gradientUnits="userSpaceOnUse">
<stop stop-color="#4F52FF"/>
<stop offset="1" stop-color="#4042E2"/>
</linearGradient>
<linearGradient id="paint7_linear_1746_21778" x1="250.063" y1="292.355" x2="262.444" y2="173.967" gradientUnits="userSpaceOnUse">
<stop stop-color="#FEBBBA"/>
<stop offset="1" stop-color="#FF928E"/>
</linearGradient>
<linearGradient id="paint8_linear_1746_21778" x1="206.837" y1="206.206" x2="234.547" y2="169.404" gradientUnits="userSpaceOnUse">
<stop stop-color="#FF928E"/>
<stop offset="1" stop-color="#FE7062"/>
</linearGradient>
<linearGradient id="paint9_linear_1746_21778" x1="253.22" y1="176.486" x2="239.797" y2="204.198" gradientUnits="userSpaceOnUse">
<stop stop-color="#4F52FF"/>
<stop offset="1" stop-color="#4042E2"/>
</linearGradient>
<linearGradient id="paint10_linear_1746_21778" x1="230.781" y1="173.332" x2="232.949" y2="159.429" gradientUnits="userSpaceOnUse">
<stop stop-color="#FEBBBA"/>
<stop offset="1" stop-color="#FF928E"/>
</linearGradient>
<linearGradient id="paint11_linear_1746_21778" x1="26.4799" y1="260.594" x2="41.3174" y2="260.594" gradientUnits="userSpaceOnUse">
<stop stop-color="#4F52FF"/>
<stop offset="1" stop-color="#4042E2"/>
</linearGradient>
<linearGradient id="paint12_linear_1746_21778" x1="26.4797" y1="257.686" x2="40.8976" y2="257.686" gradientUnits="userSpaceOnUse">
<stop stop-color="#09005D"/>
<stop offset="1" stop-color="#1A0F91"/>
</linearGradient>
<linearGradient id="paint13_linear_1746_21778" x1="27.8494" y1="253.627" x2="32.0291" y2="253.627" gradientUnits="userSpaceOnUse">
<stop stop-color="#FEBBBA"/>
<stop offset="1" stop-color="#FF928E"/>
</linearGradient>
<linearGradient id="paint14_linear_1746_21778" x1="-0.00117105" y1="264.274" x2="5.68457" y2="264.274" gradientUnits="userSpaceOnUse">
<stop stop-color="#4F52FF"/>
<stop offset="1" stop-color="#4042E2"/>
</linearGradient>
<linearGradient id="paint15_linear_1746_21778" x1="0.0400391" y1="258.616" x2="8.38518" y2="258.616" gradientUnits="userSpaceOnUse">
<stop stop-color="#09005D"/>
<stop offset="1" stop-color="#1A0F91"/>
</linearGradient>
<linearGradient id="paint16_linear_1746_21778" x1="4.3774" y1="251.447" x2="9.37242" y2="251.447" gradientUnits="userSpaceOnUse">
<stop stop-color="#FEBBBA"/>
<stop offset="1" stop-color="#FF928E"/>
</linearGradient>
<linearGradient id="paint17_linear_1746_21778" x1="37.089" y1="210.143" x2="-5.55257" y2="279.995" gradientUnits="userSpaceOnUse">
<stop stop-color="#09005D"/>
<stop offset="1" stop-color="#1A0F91"/>
</linearGradient>
<linearGradient id="paint18_linear_1746_21778" x1="30.2155" y1="206.569" x2="36.3323" y2="206.569" gradientUnits="userSpaceOnUse">
<stop stop-color="#4F52FF"/>
<stop offset="1" stop-color="#4042E2"/>
</linearGradient>
<linearGradient id="paint19_linear_1746_21778" x1="14.8968" y1="194.517" x2="43.473" y2="160.746" gradientUnits="userSpaceOnUse">
<stop stop-color="#FF928E"/>
<stop offset="1" stop-color="#FE7062"/>
</linearGradient>
<linearGradient id="paint20_linear_1746_21778" x1="41.8382" y1="162.185" x2="44.3683" y2="162.185" gradientUnits="userSpaceOnUse">
<stop stop-color="#53D8FF"/>
<stop offset="1" stop-color="#3840F7"/>
</linearGradient>
<linearGradient id="paint21_linear_1746_21778" x1="28.9839" y1="162.875" x2="31.148" y2="151.514" gradientUnits="userSpaceOnUse">
<stop stop-color="#FEBBBA"/>
<stop offset="1" stop-color="#FF928E"/>
</linearGradient>
<linearGradient id="paint22_linear_1746_21778" x1="130.807" y1="140.134" x2="30.4694" y2="138.673" gradientUnits="userSpaceOnUse">
<stop stop-color="#4F52FF"/>
<stop offset="1" stop-color="#4042E2"/>
</linearGradient>
<linearGradient id="paint23_linear_1746_21778" x1="236.781" y1="141.488" x2="131.573" y2="140.027" gradientUnits="userSpaceOnUse">
<stop stop-color="#4F52FF"/>
<stop offset="1" stop-color="#4042E2"/>
</linearGradient>
<linearGradient id="paint24_linear_1746_21778" x1="221.082" y1="185.199" x2="259.834" y2="153.376" gradientUnits="userSpaceOnUse">
<stop stop-color="#FF928E"/>
<stop offset="1" stop-color="#FE7062"/>
</linearGradient>
<linearGradient id="paint25_linear_1746_21778" x1="220.201" y1="178.808" x2="213.626" y2="173.97" gradientUnits="userSpaceOnUse">
<stop stop-color="#FEBBBA"/>
<stop offset="1" stop-color="#FF928E"/>
</linearGradient>
<linearGradient id="paint26_linear_1746_21778" x1="227.695" y1="156.487" x2="238.865" y2="124.433" gradientUnits="userSpaceOnUse">
<stop stop-color="#FEBBBA"/>
<stop offset="1" stop-color="#FF928E"/>
</linearGradient>
<linearGradient id="paint27_linear_1746_21778" x1="248.112" y1="174.908" x2="292.802" y2="275.459" gradientUnits="userSpaceOnUse">
<stop stop-color="#09005D"/>
<stop offset="1" stop-color="#1A0F91"/>
</linearGradient>
<linearGradient id="paint28_linear_1746_21778" x1="21.3323" y1="185.521" x2="34.7548" y2="142.223" gradientUnits="userSpaceOnUse">
<stop stop-color="#FF928E"/>
<stop offset="1" stop-color="#FE7062"/>
</linearGradient>
<linearGradient id="paint29_linear_1746_21778" x1="42.1284" y1="184.367" x2="34.9059" y2="196.021" gradientUnits="userSpaceOnUse">
<stop stop-color="#FEBBBA"/>
<stop offset="1" stop-color="#FF928E"/>
</linearGradient>
<linearGradient id="paint30_linear_1746_21778" x1="48.6255" y1="183.643" x2="54.3247" y2="179.437" gradientUnits="userSpaceOnUse">
<stop stop-color="#FEBBBA"/>
<stop offset="1" stop-color="#FF928E"/>
</linearGradient>
<linearGradient id="paint31_linear_1746_21778" x1="30.7075" y1="145.19" x2="18.3608" y2="154.638" gradientUnits="userSpaceOnUse">
<stop stop-color="#FEBBBA"/>
<stop offset="1" stop-color="#FF928E"/>
</linearGradient>
<linearGradient id="paint32_linear_1746_21778" x1="26.1467" y1="134.549" x2="37.6465" y2="149.355" gradientUnits="userSpaceOnUse">
<stop stop-color="#09005D"/>
<stop offset="1" stop-color="#1A0F91"/>
</linearGradient>
<linearGradient id="paint33_linear_1746_21778" x1="33.3078" y1="140.027" x2="20.9601" y2="149.475" gradientUnits="userSpaceOnUse">
<stop stop-color="#FEBBBA"/>
<stop offset="1" stop-color="#FF928E"/>
</linearGradient>
<linearGradient id="paint34_linear_1746_21778" x1="102.074" y1="170.742" x2="119.443" y2="150.582" gradientUnits="userSpaceOnUse">
<stop stop-color="#E1473D"/>
<stop offset="1" stop-color="#E9605A"/>
</linearGradient>
<linearGradient id="paint35_linear_1746_21778" x1="129.258" y1="135.878" x2="77.8985" y2="213.468" gradientUnits="userSpaceOnUse">
<stop stop-color="#FF928E"/>
<stop offset="1" stop-color="#FE7062"/>
</linearGradient>
<linearGradient id="paint36_linear_1746_21778" x1="127.726" y1="138.101" x2="100.378" y2="184.014" gradientUnits="userSpaceOnUse">
<stop stop-color="#FF928E"/>
<stop offset="1" stop-color="#FE7062"/>
</linearGradient>
<linearGradient id="paint37_linear_1746_21778" x1="68.7206" y1="146.642" x2="98.957" y2="111.546" gradientUnits="userSpaceOnUse">
<stop stop-color="#E1473D"/>
<stop offset="1" stop-color="#E9605A"/>
</linearGradient>
<linearGradient id="paint38_linear_1746_21778" x1="116.042" y1="85.9486" x2="26.6339" y2="221.02" gradientUnits="userSpaceOnUse">
<stop stop-color="#FF928E"/>
<stop offset="1" stop-color="#FE7062"/>
</linearGradient>
<linearGradient id="paint39_linear_1746_21778" x1="113.375" y1="89.8198" x2="65.7671" y2="169.747" gradientUnits="userSpaceOnUse">
<stop stop-color="#FF928E"/>
<stop offset="1" stop-color="#FE7062"/>
</linearGradient>
<linearGradient id="paint40_linear_1746_21778" x1="123.968" y1="204.287" x2="155.081" y2="168.175" gradientUnits="userSpaceOnUse">
<stop stop-color="#E1473D"/>
<stop offset="1" stop-color="#E9605A"/>
</linearGradient>
<linearGradient id="paint41_linear_1746_21778" x1="172.662" y1="141.836" x2="80.6613" y2="280.822" gradientUnits="userSpaceOnUse">
<stop stop-color="#FF928E"/>
<stop offset="1" stop-color="#FE7062"/>
</linearGradient>
<linearGradient id="paint42_linear_1746_21778" x1="169.917" y1="145.82" x2="120.929" y2="228.062" gradientUnits="userSpaceOnUse">
<stop stop-color="#FF928E"/>
<stop offset="1" stop-color="#FE7062"/>
</linearGradient>
<linearGradient id="paint43_linear_1746_21778" x1="126.124" y1="150.125" x2="148.92" y2="123.666" gradientUnits="userSpaceOnUse">
<stop stop-color="#E1473D"/>
<stop offset="1" stop-color="#E9605A"/>
</linearGradient>
<linearGradient id="paint44_linear_1746_21778" x1="161.801" y1="104.367" x2="94.3923" y2="206.202" gradientUnits="userSpaceOnUse">
<stop stop-color="#FF928E"/>
<stop offset="1" stop-color="#FE7062"/>
</linearGradient>
<linearGradient id="paint45_linear_1746_21778" x1="159.791" y1="107.285" x2="123.898" y2="167.544" gradientUnits="userSpaceOnUse">
<stop stop-color="#FF928E"/>
<stop offset="1" stop-color="#FE7062"/>
</linearGradient>
</defs>
</svg>
