<svg width="312" height="274" viewBox="0 0 312 274" fill="none" xmlns="http://www.w3.org/2000/svg">
<path d="M292.532 111.39C295.198 130.229 306.238 240.495 204.626 269.438C204.626 269.438 178.671 198.717 289.939 110.35C290.912 109.576 292.358 110.158 292.532 111.388V111.39Z" fill="#91B3FA"/>
<path d="M282.851 128.053C281.444 134.361 279.76 140.618 277.955 146.83C276.145 153.043 274.175 159.209 272.057 165.323C267.812 177.547 262.975 189.57 257.372 201.226C251.765 212.874 245.398 224.179 237.926 234.715C236.057 237.347 234.126 239.935 232.102 242.447C230.082 244.962 228.003 247.43 225.814 249.797C223.628 252.166 221.384 254.481 219.021 256.668C216.663 258.861 214.219 260.96 211.687 262.944L211.684 262.948C211.387 263.181 211.333 263.611 211.566 263.91C211.799 264.207 212.23 264.26 212.528 264.027H212.532C215.089 262 217.55 259.862 219.926 257.634C222.304 255.408 224.56 253.057 226.755 250.656C228.951 248.255 231.035 245.755 233.059 243.21C235.086 240.667 237.017 238.053 238.884 235.395C246.35 224.752 252.684 213.365 258.252 201.65C263.816 189.925 268.602 177.849 272.793 165.579C274.883 159.442 276.826 153.253 278.608 147.02C280.385 140.784 282.038 134.519 283.418 128.174C283.452 128.017 283.353 127.863 283.196 127.829C283.04 127.795 282.887 127.893 282.851 128.049V128.055V128.053Z" fill="#BDD0FB"/>
<path d="M310.199 216.095C299.953 215.343 240.131 213.417 227.851 269.734C227.851 269.734 266.839 281.23 310.845 217.466C311.229 216.907 310.87 216.145 310.199 216.095Z" fill="#BDD0FB"/>
<path d="M301.409 221.543C294.872 223.501 288.472 225.843 282.157 228.411C275.85 230.991 269.65 233.845 263.617 237.03C257.588 240.221 251.725 243.752 246.189 247.77C243.436 249.797 240.739 251.909 238.198 254.212C235.662 256.517 233.247 258.966 231.026 261.594C230.782 261.882 230.818 262.314 231.106 262.56C231.394 262.803 231.826 262.768 232.071 262.48L232.075 262.474L232.08 262.467C234.228 259.876 236.576 257.449 239.051 255.155C241.532 252.864 244.176 250.75 246.881 248.717C252.321 244.688 258.109 241.124 264.074 237.893C270.043 234.665 276.191 231.765 282.452 229.131C288.716 226.512 295.089 224.111 301.567 222.102H301.574C301.727 222.052 301.813 221.89 301.765 221.737C301.717 221.586 301.557 221.501 301.404 221.545L301.409 221.543Z" fill="#91B3FA"/>
<path d="M74.0221 23.8696C73.132 65.7707 70.2469 210.299 71.6245 261.518C71.7702 266.943 75.4951 271.298 80.1446 271.477C103.13 272.355 187.395 274.581 224.991 272.741C232.822 272.358 239.048 264.952 239.212 255.804C239.994 211.825 241.719 88.1253 237.62 31.4603C237.13 24.6707 232.565 19.2638 226.758 18.587C201.725 15.6628 117.099 8.5162 84.6166 10.9777C78.759 11.4219 74.1678 17.0244 74.0221 23.8749V23.8696Z" fill="url(#paint0_linear_1746_22603)"/>
<path d="M84.2792 36.7232C83.042 70.5418 79.1396 183.052 80.3769 224.657C80.557 230.738 84.6634 235.656 89.8666 236.01C111.289 237.475 184.374 240.701 215.792 237.763C221.451 237.234 225.888 231.894 226.196 225.276C227.788 190.772 232.36 86.0089 231.171 44.8718C230.983 38.3096 226.627 32.9503 221.027 32.3633C197.851 29.9336 120.19 24.1539 93.4908 25.854C88.4783 26.1739 84.4912 30.8669 84.2766 36.7232H84.2792Z" fill="url(#paint1_linear_1746_22603)"/>
<path opacity="0.5" d="M130.828 18.2939C130.828 19.5789 131.687 20.6391 132.786 20.7079C138.215 21.041 153.509 21.9796 160.344 22.4423C161.692 22.5322 162.749 21.1203 162.492 19.571L162.447 19.3066C162.273 18.2516 161.523 17.4558 160.606 17.358C155.986 16.8636 142.045 15.494 132.807 15.8774C131.697 15.9223 130.826 16.9984 130.826 18.2939H130.828Z" fill="white"/>
<path d="M98.5572 91.8735C99.3997 91.0856 100.536 90.6943 101.686 90.7974C113.976 91.9 136.908 85.9908 151.895 70.6876C152.936 69.6248 154.833 70.2249 156.025 71.1159C172.695 83.5478 200.324 86.123 209.914 86.6491C211.899 86.7575 213.509 88.2936 213.713 90.266C222.435 174.341 167.584 204.807 156.208 210.185C154.966 210.772 153.501 210.687 152.332 209.96C95.6351 174.713 98.0592 128.878 97.275 94.9167C97.2485 93.7666 97.7121 92.6588 98.5546 91.8709L98.5572 91.8735Z" fill="url(#paint2_linear_1746_22603)"/>
<path opacity="0.59" d="M154.677 204.59C154.327 204.59 153.978 204.492 153.673 204.297C131.838 190.368 117.603 173.706 110.156 153.358C103.512 135.202 103.186 116.753 102.9 100.474L102.86 98.3115C102.852 97.8118 103.037 97.3412 103.39 96.9842C103.742 96.6247 104.216 96.429 104.72 96.429C118.083 96.429 138.146 90.5383 152.862 77.3768C153.49 76.8136 154.423 76.7475 155.127 77.2128C171.314 87.9314 194.44 91.0539 206.786 91.9634C207.697 92.0295 208.418 92.7407 208.497 93.6502C211.39 126.583 204.521 154.442 188.076 176.451C175.789 192.896 161.215 201.468 155.52 204.389C155.255 204.524 154.963 204.593 154.674 204.593L154.677 204.59ZM154.102 78.4766C154.036 78.4766 153.97 78.5004 153.917 78.548C138.887 91.9872 118.385 98.0021 104.733 98.0021C104.616 98.0021 104.547 98.055 104.516 98.0868C104.479 98.1238 104.436 98.1872 104.439 98.2824L104.479 100.448C104.762 116.602 105.085 134.912 111.64 152.819C118.965 172.828 132.993 189.234 154.523 202.969C154.608 203.022 154.714 203.03 154.802 202.985C160.399 200.114 174.724 191.688 186.815 175.507C203.021 153.818 209.787 126.321 206.929 93.7851C206.915 93.6476 206.809 93.5418 206.672 93.5312C194.172 92.6138 170.742 89.4411 154.256 78.5242C154.208 78.4925 154.155 78.4766 154.099 78.4766H154.102Z" fill="white"/>
<path d="M124.963 124.051L154.002 182.328L191.333 99.5439L152.558 142.389L124.963 124.051Z" fill="url(#paint3_linear_1746_22603)"/>
<path d="M33.0055 147.601C33.0055 147.601 30.1866 148.971 29.6674 150.541C29.2514 151.803 26.1332 151.966 25.8259 154.446C25.667 155.729 24.7159 156.755 23.4389 156.95C20.2545 157.437 15.348 159.087 14.5612 164.604C13.9625 168.816 16.1137 170.413 18.3709 170.966C20.0293 171.373 21.1314 172.98 20.795 174.651C20.4744 176.254 20.9539 178.107 23.7356 179.572C29.9694 182.856 36.1952 171.793 36.1952 171.793L37.4721 152.482L33.0055 147.599V147.601Z" fill="url(#paint4_linear_1746_22603)"/>
<path d="M62.3466 137.415C62.3466 137.415 54.3246 159.238 40.657 166.059C40.657 166.059 45.2058 173.468 47.5795 173.917C47.5795 173.917 62.1823 155.267 63.6686 139.988L62.3466 137.415Z" fill="#FFBCBB"/>
<path d="M7.37637 268.693L6.97368 272.003C6.89685 272.632 6.40144 273.127 5.77091 273.198C4.70855 273.32 3.00242 273.444 1.33338 273.267C0.599529 273.19 0.1253 272.45 0.347839 271.749C0.755827 270.472 1.50028 268.553 2.57324 267.424H6.25308C6.93395 267.424 7.46115 268.019 7.37903 268.69L7.37637 268.693Z" fill="url(#paint5_linear_1746_22603)"/>
<path d="M36.1923 229.921L36.8123 233.567C36.8123 233.567 34.7326 254.586 34.3617 262.997C34.3034 264.316 34.6451 265.617 35.3393 266.74L38.9555 272.599L29.7652 267.187L29.5824 266.069L31.0872 264.004L29.1161 240.457C28.9995 239.074 29.2857 237.686 29.94 236.462L31.8396 232.898L36.1897 229.924L36.1923 229.921Z" fill="#FFBCBB"/>
<path d="M39.5627 273.449H36.6299C36.0815 273.449 35.5623 273.198 35.2285 272.764C34.3145 271.58 32.4202 269.267 31.5142 269.206C30.2955 269.124 30.4518 273.449 30.4518 273.449H29.7683L28.902 268.074C28.6847 266.72 29.3577 265.383 30.5763 264.748C30.5763 264.748 30.8545 266.805 32.3672 267.715C33.8773 268.624 38.5162 271.884 38.5162 271.884C38.5162 271.884 39.0831 271.802 39.7084 271.916C40.633 272.082 40.5032 273.449 39.5653 273.449H39.5627Z" fill="url(#paint6_linear_1746_22603)"/>
<path d="M23.6063 231.652C23.6063 231.652 11.4249 254.713 9.48833 259.98C7.55171 265.244 6.8735 269.638 6.84701 270.053C6.80727 270.703 5.99659 271.327 3.76325 271.327C2.61081 271.327 2.04653 270.867 1.771 270.42C1.53522 270.04 1.52197 269.564 1.72067 269.162C2.42537 267.74 4.66136 263.189 5.49058 261.127C6.47876 258.663 8.60612 247.503 9.7718 243.622C10.9375 239.74 12.2568 235.531 17.3381 231.652C17.3381 231.652 20.8246 228.244 23.6063 231.652Z" fill="#FFBCBB"/>
<path d="M31.3006 193.867C34.4426 180.578 26.4816 173.062 26.4816 173.062C31.5046 168.25 40.6552 166.061 40.6552 166.061C40.6552 166.061 49.3872 172.432 48.3513 177.419C47.7446 180.343 42.213 194.927 42.213 194.927C42.213 194.927 37.0972 197.344 31.2979 193.867H31.3006Z" fill="url(#paint7_linear_1746_22603)"/>
<path d="M24.3337 200.443C25.6133 196.599 31.3013 193.865 31.3013 193.865C37.1006 197.342 42.2163 194.925 42.2163 194.925C42.2163 194.925 43.3635 199.301 42.5713 203.368C41.7792 207.434 36.8118 233.567 36.8118 233.567C28.9858 235.15 16.9502 231.975 16.9502 231.975C21.9361 223.142 23.0541 204.29 24.3337 200.446V200.443Z" fill="url(#paint8_linear_1746_22603)"/>
<path d="M34.9479 157.279L32.394 168.732C32.1503 169.742 33.0696 169.576 34.0922 169.383C35.7665 169.068 37.923 168.42 38.6436 167.12C38.7178 166.987 38.7549 166.837 38.7735 166.689L39.8703 158.746C39.9577 158.117 39.6159 157.504 39.0331 157.247L36.9163 156.311C36.1003 155.952 35.1572 156.414 34.9479 157.279Z" fill="#FFBCBB"/>
<path d="M26.4809 173.062C26.4809 173.062 8.6486 185.793 24.1999 199.171C24.1999 199.171 24.7933 199.84 25.959 200.189C26.5471 200.364 28.2903 201.68 29.1725 202.365C29.456 202.584 29.8666 202.51 30.0574 202.206C30.2058 201.968 30.2243 201.67 30.1051 201.416L27.8982 196.757C27.2862 196.186 26.3458 196.146 25.6861 196.662C25.2649 196.99 24.6476 196.852 24.4118 196.374C23.209 193.931 20.9386 186.745 30.2296 178.622C30.5793 178.318 30.6667 177.813 30.4521 177.401C29.8004 176.15 28.3062 173.665 26.4782 173.06L26.4809 173.062Z" fill="#FFBCBB"/>
<path d="M37.948 146.375C37.948 146.375 40.9734 147.65 43.0319 152.015C45.0904 156.377 43.5538 158.392 41.6225 158.67C39.6938 158.947 36.8061 158.905 33.7542 156.086C30.7022 153.268 34.0164 144.866 37.948 146.378V146.375Z" fill="#FFBCBB"/>
<path d="M35.8035 153.754C35.8035 153.754 33.5198 147.369 39.1919 147.295L40.5271 148.226C40.5271 148.226 42.6068 144.686 39.1919 142.996C35.777 141.307 31.7792 142.703 30.3248 147.295C28.8703 151.888 28.6239 154.963 31.0401 157.16C33.4589 159.357 34.455 156.866 34.455 156.866C34.455 156.866 33.1383 154.812 33.6735 153.712C34.2086 152.612 35.4458 153.94 35.4458 153.94L35.8008 153.757L35.8035 153.754Z" fill="url(#paint9_linear_1746_22603)"/>
<path d="M35.1669 154.465C35.1669 154.465 34.0118 151.176 32.4726 152.488C30.9334 153.796 33.7231 155.525 34.8172 156.086L35.1669 154.468V154.465Z" fill="#FFBCBB"/>
<path d="M63.1178 141.386C63.2397 141.775 61.8223 142.364 60.9878 140.778C60.9586 140.016 60.495 136.756 60.9507 136.135C63.3774 132.833 68.0825 128.692 68.0825 128.692C68.8773 129.475 68.2229 130.244 68.2229 130.244L65.9393 132.619C66.4161 133.481 66.999 134.208 67.2719 135.249C67.4785 136.037 67.3513 136.881 66.9539 137.6C66.5539 138.322 66.0055 139.258 65.4889 139.99C64.5113 141.378 63.1151 141.389 63.1151 141.389L63.1178 141.386Z" fill="#FFBCBB"/>
<path d="M64.3135 139.771L63.8101 139.681C63.8737 139.322 64.4565 136.136 64.9308 135.364C65.1056 135.078 65.1745 134.846 65.1321 134.69C65.1109 134.61 65.0553 134.539 64.9652 134.473L63.0763 136.072L62.4457 137.762L61.9689 137.585L62.6444 135.771L64.9043 133.859L65.0553 133.936C65.3652 134.092 65.5507 134.296 65.6222 134.552C65.707 134.859 65.6222 135.21 65.3652 135.631C65.0049 136.215 64.483 138.817 64.3108 139.771H64.3135Z" fill="#FFBCBB"/>
<path d="M66.5931 146.344C68.1908 146.802 69.9105 146.551 71.3117 145.658C72.7129 144.765 73.6632 143.312 73.9196 141.674L74.5672 137.283C74.666 136.612 74.2014 135.989 73.5297 135.889C72.858 135.791 72.2325 136.254 72.1337 136.925L71.4873 141.306C71.3412 142.239 70.7946 143.075 69.9873 143.589C69.181 144.103 68.1908 144.247 67.27 143.984C64.9606 143.323 63.6193 140.91 64.2816 138.605L103.636 1.56579C103.823 0.914336 103.446 0.234556 102.793 0.0478264C102.14 -0.138903 101.459 0.237703 101.272 0.889158L61.9186 137.928C60.8832 141.534 62.9802 145.309 66.5941 146.343L66.5931 146.344Z" fill="#7D97F4"/>
<path d="M154.302 75.7528C142.118 70.9188 130.197 70.0429 118.488 72.3728L98.6843 13.2383C98.6843 13.2383 147.101 23.415 154.302 75.7528Z" fill="url(#paint10_linear_1746_22603)"/>
<path d="M18.6249 36.9481C31.5247 39.2885 42.1015 44.8474 50.7967 53.0131L98.9786 13.3237C98.9786 13.3237 52.5101 -3.6383 18.6238 36.9481H18.6249Z" fill="url(#paint11_linear_1746_22603)"/>
<path d="M98.874 13.1332C98.874 13.1332 125.645 22.3858 118.339 72.3307L114.451 69.9809C96.6519 59.2208 76.2972 53.3997 55.4895 53.1164L50.9443 53.0545C71.2559 6.82952 98.874 13.1332 98.874 13.1332Z" fill="url(#paint12_linear_1746_22603)"/>
<path d="M96.5855 11.8439L101.502 13.2498C101.613 13.2817 101.678 13.3979 101.646 13.5093L101.423 14.2858C101.391 14.3972 101.274 14.4616 101.163 14.4297L96.2467 13.0238C96.1351 12.9919 96.0705 12.8757 96.1025 12.7643L96.3255 11.9878C96.3575 11.8764 96.4739 11.812 96.5855 11.8439Z" fill="url(#paint13_linear_1746_22603)"/>
<path d="M153.608 74.8798L154.216 74.8931C154.303 74.8949 154.372 74.9669 154.37 75.0538L154.323 77.1933C154.321 77.2802 154.249 77.3491 154.162 77.3472L153.555 77.334C153.468 77.3321 153.398 77.2601 153.4 77.1732L153.447 75.0337C153.449 74.9468 153.521 74.8779 153.608 74.8798Z" fill="url(#paint14_linear_1746_22603)"/>
<path d="M118.13 71.4374L118.737 71.4507C118.824 71.4526 118.893 71.5245 118.892 71.6114L118.845 73.751C118.843 73.8378 118.771 73.9067 118.684 73.9048L118.076 73.8916C117.989 73.8897 117.92 73.8178 117.922 73.7309L117.969 71.5913C117.971 71.5044 118.043 71.4355 118.13 71.4374Z" fill="url(#paint15_linear_1746_22603)"/>
<path d="M18.4277 38.6744L17.9054 38.3646C17.8306 38.3202 17.806 38.2236 17.8505 38.1489L18.9462 36.3094C18.9907 36.2347 19.0875 36.2101 19.1623 36.2545L19.6846 36.5644C19.7594 36.6088 19.784 36.7053 19.7396 36.78L18.6438 38.6196C18.5993 38.6943 18.5025 38.7188 18.4277 38.6744Z" fill="url(#paint16_linear_1746_22603)"/>
<path d="M50.345 54.5152L49.8228 54.2054C49.7479 54.161 49.7233 54.0644 49.7678 53.9897L50.8636 52.1502C50.9081 52.0755 51.0048 52.0509 51.0797 52.0953L51.6019 52.4052C51.6768 52.4496 51.7014 52.5461 51.6569 52.6208L50.5611 54.4604C50.5166 54.5351 50.4199 54.5597 50.345 54.5152Z" fill="url(#paint17_linear_1746_22603)"/>
<defs>
<linearGradient id="paint0_linear_1746_22603" x1="154.727" y1="278.759" x2="157.893" y2="-2.55677" gradientUnits="userSpaceOnUse">
<stop stop-color="#09005D"/>
<stop offset="1" stop-color="#1A0F91"/>
</linearGradient>
<linearGradient id="paint1_linear_1746_22603" x1="199.374" y1="74.9149" x2="-147.804" y2="519.935" gradientUnits="userSpaceOnUse">
<stop stop-color="#4042E2"/>
<stop offset="1" stop-color="#4F52FF"/>
</linearGradient>
<linearGradient id="paint2_linear_1746_22603" x1="97.2777" y1="140.348" x2="214.651" y2="140.348" gradientUnits="userSpaceOnUse">
<stop stop-color="#FE7062"/>
<stop offset="1" stop-color="#FF928E"/>
</linearGradient>
<linearGradient id="paint3_linear_1746_22603" x1="156.137" y1="39.5212" x2="158.248" y2="115.667" gradientUnits="userSpaceOnUse">
<stop stop-color="#09005D"/>
<stop offset="1" stop-color="#1A0F91"/>
</linearGradient>
<linearGradient id="paint4_linear_1746_22603" x1="37.9649" y1="136.338" x2="29.6302" y2="157.287" gradientUnits="userSpaceOnUse">
<stop stop-color="#09005D"/>
<stop offset="1" stop-color="#1A0F91"/>
</linearGradient>
<linearGradient id="paint5_linear_1746_22603" x1="10.5635" y1="334.07" x2="15.8409" y2="384.307" gradientUnits="userSpaceOnUse">
<stop stop-color="#09005D"/>
<stop offset="1" stop-color="#1A0F91"/>
</linearGradient>
<linearGradient id="paint6_linear_1746_22603" x1="41.0012" y1="330.87" x2="46.2787" y2="381.107" gradientUnits="userSpaceOnUse">
<stop stop-color="#09005D"/>
<stop offset="1" stop-color="#1A0F91"/>
</linearGradient>
<linearGradient id="paint7_linear_1746_22603" x1="37.1025" y1="178.249" x2="32.0203" y2="225.506" gradientUnits="userSpaceOnUse">
<stop stop-color="#FE7062"/>
<stop offset="1" stop-color="#FF928E"/>
</linearGradient>
<linearGradient id="paint8_linear_1746_22603" x1="63.4397" y1="89.8658" x2="46.5483" y2="155.452" gradientUnits="userSpaceOnUse">
<stop stop-color="#09005D"/>
<stop offset="1" stop-color="#1A0F91"/>
</linearGradient>
<linearGradient id="paint9_linear_1746_22603" x1="39.7165" y1="137.037" x2="31.3817" y2="157.986" gradientUnits="userSpaceOnUse">
<stop stop-color="#09005D"/>
<stop offset="1" stop-color="#1A0F91"/>
</linearGradient>
<linearGradient id="paint10_linear_1746_22603" x1="65.1513" y1="8.92881" x2="156.461" y2="73.9198" gradientUnits="userSpaceOnUse">
<stop stop-color="#FE7062"/>
<stop offset="1" stop-color="#FF928E"/>
</linearGradient>
<linearGradient id="paint11_linear_1746_22603" x1="47.2248" y1="-21.0786" x2="62.3011" y2="39.3479" gradientUnits="userSpaceOnUse">
<stop stop-color="#FE7062"/>
<stop offset="1" stop-color="#FF928E"/>
</linearGradient>
<linearGradient id="paint12_linear_1746_22603" x1="64.5116" y1="13.3179" x2="98.4662" y2="64.9831" gradientUnits="userSpaceOnUse">
<stop stop-color="#FE7062"/>
<stop offset="1" stop-color="#FF928E"/>
</linearGradient>
<linearGradient id="paint13_linear_1746_22603" x1="101.535" y1="13.8966" x2="96.2149" y2="12.3691" gradientUnits="userSpaceOnUse">
<stop stop-color="#E1473D"/>
<stop offset="1" stop-color="#E9605A"/>
</linearGradient>
<linearGradient id="paint14_linear_1746_22603" x1="154.579" y1="76.3079" x2="153.187" y2="75.9082" gradientUnits="userSpaceOnUse">
<stop stop-color="#E1473D"/>
<stop offset="1" stop-color="#E9605A"/>
</linearGradient>
<linearGradient id="paint15_linear_1746_22603" x1="119.102" y1="72.8666" x2="117.71" y2="72.4669" gradientUnits="userSpaceOnUse">
<stop stop-color="#E1473D"/>
<stop offset="1" stop-color="#E9605A"/>
</linearGradient>
<linearGradient id="paint16_linear_1746_22603" x1="19.4902" y1="37.6582" x2="18.0982" y2="37.2585" gradientUnits="userSpaceOnUse">
<stop stop-color="#E1473D"/>
<stop offset="1" stop-color="#E9605A"/>
</linearGradient>
<linearGradient id="paint17_linear_1746_22603" x1="51.4088" y1="53.5082" x2="50.0168" y2="53.1085" gradientUnits="userSpaceOnUse">
<stop stop-color="#E1473D"/>
<stop offset="1" stop-color="#E9605A"/>
</linearGradient>
</defs>
</svg>
