<svg width="155" height="106" viewBox="0 0 155 106" fill="none" xmlns="http://www.w3.org/2000/svg">
<path d="M9.22061 40.6546C8.8618 40.2438 9.35678 39.5826 9.93425 39.6961C15.8005 40.8505 30.9378 45.5938 37.7031 64.3096C46.1911 87.7913 55.6842 92.9729 64.8205 94.3614C64.8205 94.3614 54.599 96.8463 44.6459 91.7587C20.2087 79.2671 15.598 47.9589 9.22061 40.6546Z" fill="#91B3FA"/>
<path d="M15.9578 45.8249C17.7592 47.9856 19.509 50.1827 21.1603 52.4465C22.8256 54.7 24.409 57.0078 25.9059 59.3668C27.3916 61.732 28.8257 64.1283 30.1386 66.5897C31.4645 69.0441 32.6663 71.5618 33.8628 74.0945C35.075 76.6178 36.2797 79.1679 37.7885 81.5793C39.2915 83.9874 41.1551 86.2323 43.4535 88.0453C44.0271 88.4965 44.6133 88.9392 45.2261 89.342C45.8297 89.7565 46.4571 90.1438 47.0928 90.5198C48.3696 91.2658 49.7132 91.928 51.1164 92.4893C53.9273 93.6044 56.9739 94.3008 60.0867 94.6075C60.4144 94.6398 60.7409 94.4164 60.8162 94.1082C60.8901 93.8057 60.694 93.5344 60.3766 93.494L60.3742 93.4937C59.6222 93.399 58.873 93.2964 58.136 93.1622C57.7656 93.101 57.4006 93.0239 57.0333 92.9538C56.6711 92.8704 56.3039 92.8003 55.9462 92.7067C54.5067 92.354 53.1083 91.9051 51.7661 91.3583C49.0766 90.2787 46.5987 88.8009 44.3991 87.0732C43.3113 86.1965 42.3058 85.2388 41.3936 84.204C40.4825 83.1682 39.6654 82.0559 38.923 80.8918C37.4369 78.5627 36.2204 76.0503 34.9874 73.5377C33.7502 71.0262 32.4873 68.5126 31.1067 66.0635C30.4204 64.837 29.7084 63.6249 28.9716 62.4277C28.6072 61.8266 28.2294 61.2337 27.8527 60.6403C27.4696 60.0507 27.0823 59.4639 26.6901 58.8802C25.1148 56.5498 23.4565 54.2736 21.7157 52.058C19.9623 49.8517 18.1394 47.696 16.2208 45.6198C16.1657 45.5605 16.0633 45.5596 15.992 45.6175C15.9227 45.674 15.9082 45.7655 15.9578 45.8249Z" fill="white"/>
<path d="M68.6528 94.8938C68.6528 94.8938 58.4514 43.6374 33.7409 15.1299C32.0799 13.2135 28.8462 13.8421 28.0451 16.2445C22.6891 32.3085 11.5824 81.1812 68.6528 94.8938Z" fill="#BDD0FB"/>
<path opacity="0.5" d="M63.5294 91.4619C63.6533 91.5871 63.4733 91.7742 63.3329 91.6664C58.162 87.6916 38.3544 68.3189 32.4429 30.6661C32.4241 30.5452 32.6101 30.5044 32.6399 30.6233C34.8362 39.3747 43.9759 71.6744 63.5294 91.4619Z" fill="white"/>
<path d="M78.2732 75.319C78.2732 75.319 101.032 32.9136 130.386 14.4819C132.359 13.243 135.026 14.6723 135.081 17.006C135.45 32.6114 132.024 78.6847 78.2732 75.319Z" fill="#91B3FA"/>
<path d="M83.6914 73.6813C83.5492 73.7579 83.6563 73.9718 83.8088 73.9145C89.415 71.8119 112.008 60.1027 127.338 28.5228C127.387 28.4214 127.235 28.3352 127.177 28.4318C122.893 35.5501 106.173 61.5382 83.6914 73.6813Z" fill="#DCE5FE"/>
<path d="M139.771 63.1364C136.459 70.4121 115.462 111.964 73.114 99.172C73.114 99.172 79.928 68.2426 139.091 62.1803C139.609 62.1279 139.987 62.6612 139.771 63.1364Z" fill="#BDD0FB"/>
<path d="M132.752 66.9956C130.887 68.8533 128.952 70.6324 126.99 72.3825C125.024 74.1284 123.02 75.8296 120.981 77.4893C118.944 79.1504 116.865 80.7605 114.752 82.323L113.96 82.91L113.159 83.4853L112.359 84.0606C112.093 84.2538 111.824 84.4435 111.554 84.6298L109.934 85.7535L108.296 86.8496C107.753 87.2194 107.195 87.5678 106.643 87.9237C106.09 88.2783 105.539 88.637 104.976 88.9757L103.293 90.0042L101.59 90.9976L101.164 91.2459L100.733 91.4853L99.8699 91.9613L99.0068 92.4373C98.7198 92.598 98.4245 92.7422 98.1341 92.896C97.5498 93.1975 96.9682 93.5045 96.3819 93.8004L94.6063 94.6585L94.1621 94.8731L93.7123 95.0745L92.8115 95.4767L91.9107 95.8789C91.6106 96.0134 91.303 96.1293 90.9988 96.2555L90.085 96.6273L89.6277 96.8129C89.4752 96.8757 89.3235 96.9378 89.1683 96.9916L87.3145 97.6676C84.8269 98.5251 82.2892 99.2439 79.7047 99.7633C79.5825 99.7881 79.4631 99.7081 79.4383 99.5853C79.4136 99.4625 79.4933 99.3425 79.6155 99.3177H79.6162L79.6189 99.317C82.1807 98.8127 84.7012 98.1105 87.1765 97.2689L89.0221 96.6046C89.1766 96.5515 89.3283 96.4901 89.48 96.4287L89.9353 96.2459L90.8457 95.8802C91.1485 95.7561 91.4547 95.6416 91.7541 95.5091L92.6522 95.1132L93.5503 94.7172L93.9986 94.5185L94.4415 94.3067L96.213 93.4596C96.7987 93.1671 97.3788 92.8636 97.9625 92.5656C98.2529 92.4138 98.5474 92.271 98.8338 92.1124L99.6962 91.6412L100.559 91.1701L100.989 90.9334L101.415 90.6879L103.117 89.7049L104.798 88.686C105.361 88.3507 105.913 87.9955 106.466 87.6436C107.018 87.2904 107.576 86.9455 108.12 86.5785L109.759 85.4914L111.38 84.3766C111.651 84.1924 111.92 84.0034 112.186 83.8123L112.987 83.2418L113.788 82.6706L114.581 82.0877C116.697 80.5363 118.779 78.9379 120.82 77.2872C122.862 75.6385 124.871 73.9477 126.842 72.2121C128.809 70.473 130.75 68.7022 132.617 66.859L132.619 66.8576C132.656 66.8203 132.717 66.821 132.754 66.859C132.79 66.8976 132.79 66.9583 132.752 66.9956Z" fill="#DCE5FE"/>
<path d="M36.3308 25.7444C36.8725 25.2346 37.6044 24.9815 38.3432 25.0484C46.2489 25.7623 60.9987 21.9365 70.6388 12.0271C71.3082 11.3386 72.5283 11.7277 73.2953 12.3037C84.016 20.3541 101.788 22.0214 107.957 22.3622C109.233 22.4325 110.268 23.4273 110.4 24.7048C116.01 79.1451 80.7299 98.8722 73.4127 102.355C72.6128 102.735 71.6714 102.68 70.9196 102.21C34.4522 79.3879 36.0122 49.7078 35.5075 27.7173C35.4904 26.9716 35.7897 26.2542 36.3308 25.7444Z" fill="url(#paint0_linear_445_4239)"/>
<path d="M72.4266 98.3227C72.2783 98.3227 72.1293 98.2806 72.0002 98.1978C58.0338 89.2279 48.9321 78.5052 44.1738 65.4184C39.923 53.7271 39.715 41.8164 39.531 31.3082C39.5227 30.8384 39.5145 30.3707 39.5063 29.9064C39.5021 29.694 39.5818 29.4925 39.7301 29.3408C39.8798 29.1876 40.081 29.1035 40.2959 29.1035H40.3027C44.8941 29.1035 50.3307 28.0308 55.6121 26.082C61.6605 23.8504 67.1657 20.593 71.5333 16.6617C71.7997 16.4216 72.1945 16.3926 72.4932 16.592C76.9946 19.5928 87.3226 24.8327 105.915 26.2096C106.302 26.2379 106.607 26.5408 106.64 26.9291C108.492 48.1511 104.099 66.0958 93.5845 80.2643C85.7324 90.8449 76.4227 96.3567 72.7843 98.2358C72.6724 98.2937 72.5495 98.3227 72.4266 98.3227ZM72.693 98.0564L72.739 98.1461L72.693 98.0564C76.319 96.1842 85.5972 90.6904 93.4245 80.1435C103.909 66.0164 108.288 48.118 106.441 26.9471C106.416 26.6573 106.189 26.4318 105.902 26.4111C102.132 26.1317 96.3495 25.4901 90.2064 24.018C83.0224 22.2969 77.0255 19.8549 72.3833 16.7596C72.1608 16.6113 71.867 16.6327 71.6679 16.8113C67.2818 20.76 61.7545 24.0304 55.6821 26.271C50.3794 28.2274 44.9181 29.3049 40.3034 29.3049H40.2965C40.1359 29.3049 39.9862 29.3677 39.8743 29.4822C39.7637 29.5946 39.7047 29.7443 39.7074 29.9023C39.7157 30.3666 39.7239 30.8343 39.7321 31.304C39.9155 41.7964 40.1235 53.6884 44.3627 65.348C49.1051 78.392 58.1814 89.0817 72.1093 98.0267C72.2844 98.1406 72.5083 98.1516 72.693 98.0564Z" fill="#91B3FA"/>
<path d="M95.5054 84.7492C116.04 84.7492 132.687 68.0246 132.687 47.3937C132.687 26.7627 116.04 10.0381 95.5054 10.0381C74.9708 10.0381 58.3242 26.7627 58.3242 47.3937C58.3242 68.0246 74.9708 84.7492 95.5054 84.7492Z" fill="#7D97F4" fill-opacity="0.5"/>
<path d="M119.366 71.7012C132.505 58.5014 132.505 37.1002 119.366 23.9004C106.228 10.7005 84.927 10.7005 71.7888 23.9004C58.6506 37.1002 58.6506 58.5014 71.7888 71.7012C84.927 84.901 106.228 84.901 119.366 71.7012Z" fill="white"/>
<path d="M92.1204 54.3597C92.4487 54.614 99.0783 53.9004 97.3645 42.1367C97.3645 42.1367 100.509 42.9358 100.847 42.8826C100.847 42.8826 105.463 49.9564 102.102 53.4619C98.7424 56.9656 93.7355 57.1725 93.7355 57.1725L92.1204 54.3597Z" fill="#407BFF"/>
<path opacity="0.3" d="M92.1204 54.3597C92.4487 54.614 99.0783 53.9004 97.3645 42.1367C97.3645 42.1367 100.509 42.9358 100.847 42.8826C100.847 42.8826 105.463 49.9564 102.102 53.4619C98.7424 56.9656 93.7355 57.1725 93.7355 57.1725L92.1204 54.3597Z" fill="black"/>
<path d="M99.4671 43.9567C99.4842 43.9605 97.6147 43.9927 96.9884 43.2127C96.362 42.4326 95.9464 41.0471 97.0795 40.0905C98.2126 39.132 104.903 35.0419 108.054 34.7192C111.204 34.3966 114.573 36.4331 114.573 36.4331L110.451 39.4812L101.572 41.6297L99.4671 43.9567Z" fill="#263238"/>
<path d="M118.881 58.3818C119.323 54.0341 116.698 50.206 113.017 49.8317C109.337 49.4573 105.995 52.6784 105.553 57.0261C105.111 61.3739 107.736 65.2019 111.416 65.5763C115.096 65.9506 118.438 62.7296 118.881 58.3818Z" fill="#263238"/>
<path d="M92.3304 32.2486C91.9964 32.5978 87.7013 31.7058 86.9516 32.1044C86.6346 32.2733 86.496 32.8693 86.1791 33.5146V33.5165C85.7444 34.399 84.972 35.367 82.9449 35.4315C79.4375 35.5435 79.8607 31.9848 79.5836 30.827C79.5836 30.827 76.2622 30.2216 76.0895 29.6408C75.913 29.0619 76.1274 28.9689 76.1274 28.9689C76.1274 28.9689 80.227 29.7243 81.0204 28.6918C81.0204 28.6918 81.176 28.5134 81.5499 28.3369C81.5518 28.3369 81.5518 28.335 81.5537 28.335C81.8688 28.187 82.3376 28.0427 82.9943 28.0085C84.4386 27.9345 86.2019 28.3407 86.6934 29.2536C87.6956 31.1212 91.9926 30.7018 92.393 31.1895C92.7916 31.6811 92.6645 31.9013 92.3304 32.2486Z" fill="#407BFF"/>
<path d="M81.4592 34.6787C81.4592 34.6787 75.6969 42.6521 80.4418 54.9225" stroke="#263238" stroke-miterlimit="10" stroke-linecap="round" stroke-linejoin="round"/>
<path d="M89.066 38.8215C89.066 38.8215 89.066 38.8367 89.0641 38.8689C89.0641 38.8879 89.0603 38.9164 89.0584 38.9486V38.9676C88.9976 39.7211 88.8553 40.4974 88.675 41.2509C88.4112 42.3574 88.0657 43.4108 87.7791 44.2573C86.5644 47.8539 86.7049 51.7296 86.7049 51.7296C86.3025 51.2304 85.5604 50.8717 84.6456 50.6212C81.2938 49.7007 75.6036 50.1922 75.6036 50.1922C74.4876 46.2767 74.8881 40.1501 75.9965 36.7147C77.1049 33.2794 80.1872 34.0519 80.1872 34.0519C80.1872 34.0519 83.4347 34.1468 83.8446 34.1031C84.7215 34.012 85.4636 34.0348 86.088 34.1468C88.6085 34.6118 89.2121 36.5952 89.066 38.8215Z" fill="#407BFF"/>
<path d="M114.081 53.7536C108.381 58.8933 97.396 59.4323 89.2233 58.8629L84.6416 50.62L82.7854 47.2815L88.7488 39.2436L89.0639 38.8203C89.0639 38.8203 89.0639 38.8374 89.0601 38.8678C89.0601 38.8867 89.0563 38.9152 89.0544 38.9475V38.9665C88.9728 40.3994 88.4452 51.8992 92.653 54.7139C92.6643 54.7215 92.6776 54.731 92.6871 54.7367C93.2413 55.0992 93.8753 55.3118 94.6041 55.3327C102.34 55.5585 102.124 45.4556 100.158 43.3033L113.578 40.6063C113.578 40.6082 116.231 47.2777 114.081 53.7536Z" fill="#407BFF"/>
<path d="M99.1549 41.116C99.1549 41.116 97.8965 42.1598 98.5456 43.5586C99.1947 44.9574 105.45 42.2396 107.914 41.7442C110.378 41.2488 113.24 40.7648 114.454 40.5124C115.669 40.26 115.576 36.743 114.574 36.4318C113.572 36.1186 103.754 37.8571 102.125 38.808C100.499 39.7627 99.1549 41.116 99.1549 41.116Z" fill="#263238"/>
<path d="M84.2659 31.783C84.1919 33.0983 83.6206 34.1725 82.9221 34.4325C82.9202 34.4325 82.9202 34.4325 82.9202 34.4325C82.7988 34.4781 82.6735 34.499 82.5482 34.4914C81.6866 34.442 81.0602 33.1495 81.1475 31.6065C81.2348 30.0653 82.0054 28.8525 82.8671 28.9018C83.2182 28.9227 83.5276 29.1467 83.7686 29.5111C83.7705 29.5111 83.7705 29.513 83.7705 29.513C84.1179 30.0406 84.3171 30.8662 84.2659 31.783Z" fill="#F5F5F5"/>
<path d="M84.2661 31.7838C84.1921 33.0991 83.6208 34.1734 82.9224 34.4334C82.9205 34.4334 82.9205 34.4334 82.9205 34.4334C82.1252 34.3879 81.5444 33.194 81.6261 31.7706C81.7077 30.3452 82.4194 29.2273 83.2147 29.2728C83.4139 29.2842 83.6018 29.3696 83.767 29.512C83.7689 29.512 83.7689 29.5139 83.7689 29.5139C84.1181 30.0415 84.3174 30.8671 84.2661 31.7838Z" fill="white"/>
<path d="M115.029 50.426C113.562 49.3954 107.883 48.3838 107.883 48.3838C104.434 48.3762 101.409 51.4851 100.99 55.6075C100.648 58.9593 102.132 62.0017 104.516 63.3911C104.516 63.3911 104.713 63.4727 105.049 63.6055C106.312 64.1047 109.519 65.3194 111.417 65.5794" fill="#263238"/>
<path opacity="0.3" d="M118.881 58.3818C119.323 54.0341 116.698 50.206 113.017 49.8317C109.337 49.4573 105.995 52.6784 105.553 57.0261C105.111 61.3739 107.736 65.2019 111.416 65.5763C115.096 65.9506 118.438 62.7296 118.881 58.3818Z" fill="black"/>
<path d="M89.3759 58.1318C89.8181 53.7841 87.1932 49.956 83.5129 49.5817C79.8326 49.2073 76.4906 52.4284 76.0483 56.7761C75.6061 61.1239 78.231 64.9519 81.9113 65.3263C85.5917 65.7006 88.9336 62.4795 89.3759 58.1318Z" fill="#263238"/>
<path d="M86.8066 51.0345L83.4092 65.2826C82.9215 65.3623 82.4204 65.3794 81.9117 65.3281C81.8985 65.3262 81.8852 65.3262 81.8738 65.3243C81.2228 65.1573 81.5132 65.3376 80.8603 65.1212C79.1995 64.5727 76.7872 63.601 76.7872 63.601C74.2325 62.3597 72.7882 59.3343 73.1393 55.88C73.5645 51.695 76.5671 48.569 80.1011 48.8252C80.1011 48.8252 81.7808 49.1346 83.506 49.5863C84.2557 49.7818 85.0149 50.0039 85.6489 50.2392C85.6507 50.2392 85.6526 50.2392 85.6526 50.2411C86.0626 50.4575 86.4479 50.7251 86.8066 51.0345Z" fill="#263238"/>
<path opacity="0.3" d="M89.3742 58.1328C88.9927 61.8813 86.457 64.789 83.4069 65.2806C82.9192 65.3603 82.4181 65.3774 81.9094 65.3261C81.8961 65.3243 81.8829 65.3243 81.8715 65.3224C81.1616 65.2445 80.4916 65.0415 79.8786 64.7283C77.3144 63.4282 75.6917 60.2699 76.0466 56.7777C76.4888 52.4332 79.8236 49.2162 83.5018 49.5844H83.5113C84.2743 49.6622 84.9917 49.888 85.6446 50.2373C85.6465 50.2373 85.6484 50.2373 85.6484 50.2392C86.0603 50.4574 86.4475 50.7269 86.8062 51.0363C88.6169 52.6078 89.6683 55.2574 89.3742 58.1328Z" fill="black"/>
<path d="M88.4513 53.1338C88.3792 52.9724 88.1856 52.7788 88.0793 52.6365C87.2328 51.4768 85.2911 51.046 84.0214 51.1466C83.044 51.2263 82.1215 51.5907 81.3035 52.1222C80.3773 52.7219 79.713 53.6386 78.7963 54.2726C77.0539 55.474 74.4101 55.4417 72.6601 54.2023C72.5595 54.1321 72.4665 54.0562 72.3792 53.9727C72.1913 53.7981 72.0926 53.5475 72.0376 53.2989C71.9655 52.9762 72.0015 52.6593 72.1078 52.3537C72.4855 51.2889 73.7534 50.3494 74.5524 49.7782C76.1638 48.628 78.0751 47.977 80.0471 47.8403C85.6954 47.4455 88.0964 52.2645 88.4513 53.1338Z" fill="#407BFF"/>
<path opacity="0.3" d="M88.0603 53.2856C86.8475 51.5357 85.2911 51.046 84.0214 51.1466C83.044 51.2263 82.1215 51.5908 81.3035 52.1222C80.3773 52.7219 79.713 53.6387 78.7963 54.2726C77.0539 55.474 74.4101 55.4417 72.6601 54.2024C72.5595 54.1321 72.4665 54.0562 72.3792 53.9727C72.1913 53.7981 72.0926 53.5476 72.0376 53.2989C71.9655 52.9763 72.0015 52.6593 72.1078 52.3537C72.6943 53.0313 74.4025 54.6636 76.7142 53.8664C79.5991 52.87 80.3033 49.9092 83.3894 49.9357C85.8378 49.9547 87.3467 51.866 88.0603 53.2856Z" fill="black"/>
<g opacity="0.3">
<path opacity="0.3" d="M75.3677 49.2499C76.1762 48.654 77.1214 48.2554 78.0951 47.9992C79.0725 47.7487 80.0955 47.667 81.1015 47.7525C81.6044 47.8037 82.1055 47.8815 82.5933 48.0125C83.081 48.1396 83.565 48.2934 84.0262 48.4965L84.3717 48.6483L84.7095 48.8172C84.9373 48.9254 85.1517 49.0564 85.3719 49.1778C85.5883 49.305 85.7951 49.4492 86.0058 49.584C86.2127 49.7263 86.412 49.8782 86.6151 50.0262C85.7781 49.4758 84.8974 48.9956 83.9712 48.6331C83.0469 48.2668 82.0732 48.0239 81.0863 47.9422C80.0993 47.8436 79.0991 47.9252 78.1292 48.1415C77.6452 48.2497 77.167 48.3978 76.7057 48.5819C76.2426 48.7641 75.7909 48.9804 75.3677 49.2499Z" fill="black"/>
</g>
<g opacity="0.3">
<path opacity="0.3" d="M81.5235 47.8963C81.2597 47.1124 81.1705 46.2849 81.1003 45.465C81.0376 44.6432 81.0262 43.8175 81.0414 42.9919C81.0661 42.1682 81.1154 41.3445 81.1914 40.5246L81.328 39.2966C81.3888 38.8885 81.4419 38.4823 81.5083 38.0762L81.3356 40.5359L81.2673 41.7658C81.2559 42.1758 81.2312 42.5858 81.2293 42.9957C81.1971 43.8156 81.2122 44.6356 81.2426 45.4555C81.2559 45.8655 81.2882 46.2735 81.328 46.6816C81.3736 47.0877 81.4248 47.4958 81.5235 47.8963Z" fill="black"/>
</g>
<path opacity="0.3" d="M92.656 54.7168C88.693 52.1659 88.5355 45.5913 88.6741 41.2525C88.6968 40.5066 88.7291 39.8291 88.7519 39.2464C88.7822 38.453 88.7974 37.8438 88.75 37.4946C88.3381 34.5091 86.0776 34.1503 86.0776 34.1503C86.0814 34.1503 86.0833 34.1484 86.0852 34.1484C88.6076 34.6115 89.2112 36.5949 89.065 38.8212C89.065 38.8212 89.065 38.8383 89.0612 38.8687C89.0612 38.8877 89.0575 38.9161 89.0556 38.9484V38.9674C88.9739 40.4023 88.4463 51.9021 92.656 54.7168Z" fill="black"/>
<path opacity="0.2" d="M92.3297 32.2486C91.9956 32.5978 87.7005 31.7058 86.9508 32.1044C86.6338 32.2733 86.4953 32.8693 86.1783 33.5146V33.5165C86.1764 33.5184 86.1764 33.5203 86.1745 33.5203C85.2787 34.9456 84.0203 35.1677 83.9425 35.1791C85.4457 34.0441 85.8652 31.2996 85.1193 29.5668C84.3772 27.8491 81.7048 28.2837 81.553 28.335C81.868 28.187 82.3368 28.0427 82.9935 28.0085C84.4379 27.9345 86.2011 28.3407 86.6927 29.2536C87.6948 31.1212 91.9918 30.7018 92.3923 31.1895C92.7909 31.6811 92.6637 31.9013 92.3297 32.2486Z" fill="black"/>
<path d="M88.9695 30.5928C88.9695 30.5928 88.5691 31.2286 88.6716 32.1719L92.31 32.5819C92.31 32.5819 92.8889 32.0087 92.7731 30.9989C92.7712 30.997 89.1669 30.6345 88.9695 30.5928Z" fill="#263238"/>
<path d="M77.9198 30.4572C77.9198 30.4572 77.5572 29.6866 77.9919 29.2008C77.0201 29.1135 76.4185 29.0167 75.7921 28.918C75.701 29.2008 75.6536 29.4741 75.98 29.903C76.3065 30.3339 77.9198 30.4572 77.9198 30.4572Z" fill="#263238"/>
<path opacity="0.2" d="M86.7736 57.5642C86.7033 59.9518 85.1413 61.8422 83.2794 61.7891C83.0251 61.7815 82.7783 61.7397 82.543 61.6619C81.0493 61.1874 79.9769 59.4299 80.0358 57.3687C80.0946 55.3777 81.1916 53.7303 82.636 53.271C82.9226 53.1799 83.2225 53.1343 83.5299 53.1438C85.3937 53.197 86.8438 55.1765 86.7736 57.5642Z" fill="#FAFAFA"/>
<path d="M85.0597 57.558C85.0009 59.5946 83.9266 61.2705 82.543 61.6614C81.0493 61.1869 79.9769 59.4294 80.0358 57.3682C80.0946 55.3773 81.1916 53.7298 82.636 53.2705C84.0727 53.6577 85.1223 55.4456 85.0597 57.558Z" fill="#263238"/>
<path opacity="0.2" d="M116.02 57.7517C115.95 60.1393 114.388 62.0297 112.526 61.9766C112.272 61.969 112.025 61.9272 111.79 61.8494C110.296 61.3749 109.224 59.6174 109.283 57.5562C109.341 55.5652 110.438 53.9178 111.883 53.4585C112.169 53.3674 112.469 53.3218 112.777 53.3313C114.639 53.3864 116.089 55.364 116.02 57.7517Z" fill="#FAFAFA"/>
<path d="M114.307 57.7475C114.248 59.784 113.173 61.4599 111.79 61.8509C110.296 61.3764 109.224 59.6189 109.283 57.5577C109.341 55.5667 110.438 53.9193 111.883 53.46C113.32 53.8471 114.367 55.635 114.307 57.7475Z" fill="#263238"/>
<path d="M118.954 51.4556C118.986 53.8034 115.412 55.3579 109.432 56.3372C107.473 56.658 105.85 56.6067 104.552 56.3942C101.889 55.9557 100.598 54.834 100.598 54.834C100.598 54.834 101.274 46.7183 107.961 45.6915C112.51 44.9931 115.943 46.8265 117.682 48.808C118.5 49.738 118.944 50.704 118.954 51.4556Z" fill="#407BFF"/>
<path opacity="0.3" d="M118.955 51.4551C118.988 53.8029 115.414 55.3574 109.433 56.3367C107.474 56.6575 105.852 56.6062 104.553 56.3937C104.84 54.1901 106.127 48.4108 111.72 47.811C114.258 47.5396 116.217 48.0502 117.682 48.8075C118.502 49.7375 118.946 50.7035 118.955 51.4551Z" fill="black"/>
<g opacity="0.3">
<path opacity="0.3" d="M100.983 54.8696C101.095 53.765 101.378 52.6794 101.769 51.6355C102.16 50.5916 102.695 49.599 103.369 48.705C103.709 48.259 104.094 47.849 104.512 47.477C104.927 47.1031 105.379 46.7653 105.871 46.4977C106.839 45.9321 107.939 45.6246 109.04 45.5107C108.496 45.617 107.951 45.7233 107.437 45.9245C107.173 46.0042 106.924 46.1276 106.67 46.232C106.427 46.361 106.176 46.4749 105.945 46.6249C105.706 46.7615 105.485 46.9266 105.26 47.0804C105.045 47.2512 104.825 47.4163 104.628 47.6061C104.221 47.9762 103.849 48.3824 103.521 48.8208C102.847 49.6882 102.321 50.6675 101.906 51.6886C101.695 52.1992 101.515 52.7211 101.363 53.2526C101.204 53.784 101.076 54.323 100.983 54.8696Z" fill="black"/>
</g>
<path d="M44.8471 41.1318C44.8471 41.1318 43.4808 41.8369 43.2297 42.6475C43.0284 43.2984 41.518 43.3809 41.3689 44.6611C41.2924 45.3215 40.8311 45.8507 40.2117 45.9508C38.6695 46.2025 36.2912 47.0523 35.9114 49.8969C35.6208 52.0675 36.6634 52.8903 37.7569 53.1759C38.5599 53.3856 39.0939 54.2151 38.932 55.0758C38.7765 55.9013 39.0085 56.8567 40.3569 57.6118C43.3776 59.3034 46.3931 53.6035 46.3931 53.6035L47.0112 43.6489L44.8471 41.1318Z" fill="url(#paint1_linear_445_4239)"/>
<path d="M64.3781 44.7711C64.3781 44.7711 55.0957 52.0352 47.702 51.2666C47.702 51.2666 47.4775 55.7108 48.3078 56.5522C48.3078 56.5522 59.3587 52.4524 64.1969 46.2436L64.3781 44.7711Z" fill="url(#paint2_linear_445_4239)"/>
<path d="M32.4339 103.549L32.2389 105.255C32.202 105.579 31.9624 105.834 31.6565 105.872C31.1416 105.935 30.3144 105.998 29.5064 105.907C29.1508 105.868 28.9214 105.487 29.0297 105.125C29.2272 104.466 29.5879 103.478 30.1079 102.896H31.8897C32.2185 102.895 32.4735 103.201 32.4339 103.549Z" fill="url(#paint3_linear_445_4239)"/>
<path d="M46.3937 83.5654L46.6945 85.4438C46.6945 85.4438 45.6876 96.278 45.5079 100.612C45.4799 101.292 45.6455 101.963 45.9807 102.542L47.7319 105.563L43.28 102.774L43.1908 102.197L43.9198 101.133L42.9652 88.9961C42.9091 88.2829 43.0481 87.5684 43.3641 86.9364L44.2856 85.1L46.3937 83.5654Z" fill="url(#paint4_linear_445_4239)"/>
<path d="M48.0258 106H46.6047C46.3384 106 46.0885 105.87 45.9254 105.647C45.4831 105.035 44.5655 103.845 44.1258 103.812C43.5357 103.77 43.6109 106 43.6109 106H43.2795L42.8602 103.23C42.7544 102.533 43.0807 101.843 43.6708 101.516C43.6708 101.516 43.8059 102.575 44.5374 103.045C45.269 103.514 47.5173 105.194 47.5173 105.194C47.5173 105.194 47.7926 105.152 48.0946 105.21C48.5433 105.295 48.4808 106 48.0258 106Z" fill="url(#paint5_linear_445_4239)"/>
<path d="M40.2944 84.4565C40.2944 84.4565 34.3921 96.3435 33.4541 99.0568C32.516 101.77 32.1872 104.035 32.1744 104.249C32.1553 104.585 31.7628 104.906 30.6807 104.906C30.1225 104.906 29.8484 104.667 29.7146 104.437C29.5999 104.241 29.5948 103.996 29.6904 103.789C30.032 103.056 31.1153 100.712 31.5168 99.6482C31.996 98.3788 33.0258 92.6248 33.5917 90.6247C34.1563 88.6245 34.7961 86.4539 37.2572 84.4552C37.2585 84.4565 38.9473 82.7 40.2944 84.4565Z" fill="url(#paint6_linear_445_4239)"/>
<path d="M44.0238 64.9798C45.5456 58.131 41.6889 54.2566 41.6889 54.2566C44.1219 51.7761 48.556 50.6475 48.556 50.6475C48.556 50.6475 52.7874 53.9318 52.2853 56.5017C51.9908 58.0078 49.3118 65.5266 49.3118 65.5266C49.3118 65.5266 46.8341 66.7729 44.0238 64.9798Z" fill="url(#paint7_linear_445_4239)"/>
<path d="M40.6477 68.3708C41.2671 66.3896 44.0226 64.9795 44.0226 64.9795C46.8329 66.7712 49.3106 65.5262 49.3106 65.5262C49.3106 65.5262 49.8663 67.7821 49.4826 69.8769C49.099 71.9731 46.6927 85.4421 46.6927 85.4421C42.901 86.2582 37.0701 84.6221 37.0701 84.6221C39.4866 80.0697 40.0282 70.3533 40.6477 68.3708Z" fill="url(#paint8_linear_445_4239)"/>
<path d="M45.7907 46.1218L44.5531 52.0248C44.4346 52.5444 44.8807 52.4591 45.3765 52.3604C46.1871 52.198 47.2322 51.8637 47.5814 51.1938C47.6171 51.1262 47.6349 51.049 47.6451 50.9719L48.1766 46.8783C48.2187 46.5535 48.053 46.2382 47.7713 46.1056L46.7453 45.6225C46.3502 45.4357 45.8927 45.6753 45.7907 46.1218Z" fill="url(#paint9_linear_445_4239)"/>
<path d="M41.6897 54.2559C41.6897 54.2559 33.051 60.8178 40.5847 67.714C40.5847 67.714 40.8715 68.0591 41.4374 68.2391C41.7229 68.3298 42.5666 69.0077 42.9949 69.3609C43.1325 69.4746 43.3313 69.4354 43.4231 69.2784C43.4957 69.1553 43.5047 69.0023 43.446 68.8711L42.3767 66.4704C42.0797 66.1767 41.6247 66.1551 41.3048 66.4217C41.1009 66.5908 40.8014 66.5205 40.688 66.2728C40.1055 65.0129 39.0056 61.309 43.5072 57.1234C43.6767 56.9664 43.7188 56.7053 43.6155 56.4942C43.2995 55.8487 42.5755 54.5671 41.6897 54.2559Z" fill="url(#paint10_linear_445_4239)"/>
<path d="M48.161 40.7396C48.161 40.7396 49.4789 41.6868 50.0448 44.0983C50.6107 46.5099 49.6905 47.3759 48.7473 47.3218C47.8042 47.269 46.4366 46.9591 45.2513 45.2283C44.0673 43.4988 46.4353 39.5825 48.161 40.7396Z" fill="url(#paint11_linear_445_4239)"/>
<path d="M46.447 44.2567C46.447 44.2567 45.964 40.8005 48.6672 41.3296L49.214 41.9332C49.214 41.9332 50.537 40.3512 49.0725 39.1563C47.6081 37.96 45.5778 38.2672 44.4537 40.4432C43.3295 42.6193 42.9217 44.1498 43.8636 45.5017C44.8054 46.8536 45.5141 45.6939 45.5141 45.6939C45.5141 45.6939 45.082 44.5233 45.4401 44.0212C45.7983 43.5192 46.2609 44.3135 46.2609 44.3135L46.447 44.2567Z" fill="url(#paint12_linear_445_4239)"/>
<path d="M46.0786 44.5533C46.0786 44.5533 45.8403 42.7751 44.9851 43.2839C44.1299 43.7928 45.2935 44.9444 45.76 45.3368L46.0786 44.5533Z" fill="url(#paint13_linear_445_4239)"/>
<path d="M63.4636 47.099C63.3784 47.3157 62.7348 47.2788 62.9769 46.3138C63.2113 45.9358 64.1071 44.2409 64.4524 44.0442C66.2879 42.993 69.1212 42.0558 69.1212 42.0558C69.1255 42.6197 68.6693 42.8442 68.6693 42.8442L67.1773 43.4764C67.0539 44.0057 67.0077 44.4931 66.7613 45.0638C66.5755 45.4954 66.2643 45.8773 65.9066 46.1349C65.5472 46.3936 65.0723 46.7245 64.6714 46.9636C63.9135 47.4145 63.4636 47.099 63.4636 47.099Z" fill="url(#paint14_linear_445_4239)"/>
<path d="M64.3487 46.4127C64.3613 46.3979 65.6391 44.8845 66.008 44.636C66.2065 44.5021 66.3336 44.3657 66.3947 44.2173C66.4457 44.0956 66.4496 43.9727 66.4065 43.8411L66.3941 43.8041L65.1267 44.1979L64.3533 44.9081L64.4019 45.0086L65.1475 44.324L66.3044 43.9652C66.3246 44.0486 66.32 44.1242 66.2916 44.1951C66.2482 44.3004 66.143 44.4094 65.9798 44.5185C65.5898 44.7807 64.3342 46.2683 64.2811 46.3312L64.3487 46.4127Z" fill="url(#paint15_linear_445_4239)"/>
<defs>
<linearGradient id="paint0_linear_445_4239" x1="58.5124" y1="61.9096" x2="130.975" y2="12.3756" gradientUnits="userSpaceOnUse">
<stop stop-color="#4042E2"/>
<stop offset="1" stop-color="#4F52FF"/>
</linearGradient>
<linearGradient id="paint1_linear_445_4239" x1="47.2503" y1="35.3261" x2="42.7604" y2="45.9338" gradientUnits="userSpaceOnUse">
<stop stop-color="#09005D"/>
<stop offset="1" stop-color="#1A0F91"/>
</linearGradient>
<linearGradient id="paint2_linear_445_4239" x1="-387.802" y1="143.345" x2="-363.425" y2="139.601" gradientUnits="userSpaceOnUse">
<stop stop-color="#FF928E"/>
<stop offset="1" stop-color="#FEB3B1"/>
</linearGradient>
<linearGradient id="paint3_linear_445_4239" x1="32.4378" y1="104.424" x2="29.0017" y2="104.424" gradientUnits="userSpaceOnUse">
<stop stop-color="#4042E2"/>
<stop offset="1" stop-color="#4F52FF"/>
</linearGradient>
<linearGradient id="paint4_linear_445_4239" x1="46.9572" y1="118.812" x2="41.3876" y2="57.505" gradientUnits="userSpaceOnUse">
<stop stop-color="#FF928E"/>
<stop offset="1" stop-color="#FEB3B1"/>
</linearGradient>
<linearGradient id="paint5_linear_445_4239" x1="48.4012" y1="103.757" x2="42.8413" y2="103.757" gradientUnits="userSpaceOnUse">
<stop stop-color="#4042E2"/>
<stop offset="1" stop-color="#4F52FF"/>
</linearGradient>
<linearGradient id="paint6_linear_445_4239" x1="37.0096" y1="119.724" x2="31.4387" y2="58.4012" gradientUnits="userSpaceOnUse">
<stop stop-color="#FF928E"/>
<stop offset="1" stop-color="#FEB3B1"/>
</linearGradient>
<linearGradient id="paint7_linear_445_4239" x1="47.238" y1="58.6453" x2="65.5547" y2="81.1297" gradientUnits="userSpaceOnUse">
<stop stop-color="#FE7062"/>
<stop offset="1" stop-color="#FF928E"/>
</linearGradient>
<linearGradient id="paint8_linear_445_4239" x1="33.2146" y1="58.1259" x2="46.6706" y2="78.4029" gradientUnits="userSpaceOnUse">
<stop stop-color="#09005D"/>
<stop offset="1" stop-color="#1A0F91"/>
</linearGradient>
<linearGradient id="paint9_linear_445_4239" x1="46.0327" y1="44.4703" x2="47.0858" y2="58.8062" gradientUnits="userSpaceOnUse">
<stop stop-color="#FF928E"/>
<stop offset="1" stop-color="#FEB3B1"/>
</linearGradient>
<linearGradient id="paint10_linear_445_4239" x1="43.6714" y1="61.8411" x2="37.501" y2="61.8411" gradientUnits="userSpaceOnUse">
<stop stop-color="#FF928E"/>
<stop offset="1" stop-color="#FEB3B1"/>
</linearGradient>
<linearGradient id="paint11_linear_445_4239" x1="-68.9668" y1="-209.419" x2="-64.6966" y2="-201.171" gradientUnits="userSpaceOnUse">
<stop stop-color="#FF928E"/>
<stop offset="1" stop-color="#FEB3B1"/>
</linearGradient>
<linearGradient id="paint12_linear_445_4239" x1="49.884" y1="36.1942" x2="43.4195" y2="45.5915" gradientUnits="userSpaceOnUse">
<stop stop-color="#09005D"/>
<stop offset="1" stop-color="#1A0F91"/>
</linearGradient>
<linearGradient id="paint13_linear_445_4239" x1="-70.648" y1="-208.548" x2="-66.3778" y2="-200.301" gradientUnits="userSpaceOnUse">
<stop stop-color="#FF928E"/>
<stop offset="1" stop-color="#FEB3B1"/>
</linearGradient>
<linearGradient id="paint14_linear_445_4239" x1="-360.247" y1="203.954" x2="-337.758" y2="204.428" gradientUnits="userSpaceOnUse">
<stop stop-color="#FF928E"/>
<stop offset="1" stop-color="#FEB3B1"/>
</linearGradient>
<linearGradient id="paint15_linear_445_4239" x1="65.4774" y1="44.3527" x2="59.8924" y2="59.7864" gradientUnits="userSpaceOnUse">
<stop stop-color="#FF928E"/>
<stop offset="1" stop-color="#FEB3B1"/>
</linearGradient>
</defs>
</svg>
