<svg width="24" height="24" viewBox="0 0 24 24" fill="none" xmlns="http://www.w3.org/2000/svg">
<path fill-rule="evenodd" clip-rule="evenodd" d="M5.17588 12.7134V15.5888C4.64261 15.8322 4.56981 16.6727 5.00613 17.0708L8.39995 19.2606C8.61811 19.4155 8.86055 19.0837 8.64238 18.951L5.27277 16.7833C4.7395 16.2525 5.63643 15.4341 6.33944 15.8985C7.67279 16.7612 11.479 18.7077 11.479 20.4773V22.7998H7.79408V21.9371C7.79408 20.6542 3.6 19.2386 3.6 17.6901V12.7133C3.6 11.7622 5.17588 11.7623 5.17588 12.7134ZM18.824 12.7136V15.5891C19.3815 15.8324 19.4301 16.6729 18.9937 17.071L15.5999 19.2609C15.3818 19.4157 15.1393 19.084 15.3818 18.9512L18.7272 16.7835C19.2605 16.2527 18.3879 15.4343 17.6606 15.8987C16.3272 16.7614 12.521 18.7079 12.521 20.4775V22.8H16.2059V21.9374C16.2059 20.6544 20.4 19.2388 20.4 17.6903V12.7135C20.4 11.7624 18.824 11.7625 18.824 12.7136Z" fill="black"/>
<path d="M16.5779 2.88428L12.7279 1.44228C12.3289 1.29528 11.6779 1.29528 11.2789 1.44228L7.42886 2.88428C6.68686 3.16428 6.08486 4.03228 6.08486 4.82328V10.4933C6.08486 11.0603 6.45586 11.8093 6.91086 12.1453L10.7609 15.0223C11.4399 15.5333 12.5529 15.5333 13.2319 15.0223L17.0819 12.1453C17.5369 11.8023 17.9079 11.0603 17.9079 10.4933V4.82328C17.9149 4.03228 17.3129 3.16428 16.5779 2.88428ZM14.4359 6.80428L11.4259 9.81428C11.3209 9.91928 11.1879 9.96828 11.0549 9.96828C10.9219 9.96828 10.7889 9.91928 10.6839 9.81428L9.56387 8.68028C9.36087 8.47728 9.36087 8.14128 9.56387 7.93828C9.76687 7.73528 10.1029 7.73528 10.3059 7.93828L11.0619 8.69428L13.7009 6.05528C13.9039 5.85228 14.2399 5.85228 14.4429 6.05528C14.6459 6.25828 14.6459 6.60128 14.4359 6.80428Z" fill="black"/>
</svg>
