<svg width="155" height="99" viewBox="0 0 155 99" fill="none" xmlns="http://www.w3.org/2000/svg">
<g clip-path="url(#clip0_445_3946)">
<path d="M9.22061 33.6546C8.8618 33.2438 9.35678 32.5826 9.93425 32.6961C15.8005 33.8505 30.9378 38.5938 37.7031 57.3096C46.1911 80.7913 55.6842 85.9729 64.8205 87.3614C64.8205 87.3614 54.599 89.8463 44.6459 84.7587C20.2087 72.2671 15.598 40.9589 9.22061 33.6546Z" fill="#91B3FA"/>
<path d="M15.9578 38.8249C17.7592 40.9856 19.509 43.1827 21.1603 45.4465C22.8256 47.7 24.409 50.0078 25.9059 52.3668C27.3916 54.732 28.8257 57.1283 30.1386 59.5897C31.4645 62.0441 32.6663 64.5618 33.8628 67.0945C35.075 69.6178 36.2797 72.1679 37.7885 74.5793C39.2915 76.9874 41.1551 79.2323 43.4535 81.0453C44.0271 81.4965 44.6133 81.9392 45.2261 82.342C45.8297 82.7565 46.4571 83.1438 47.0928 83.5198C48.3696 84.2658 49.7132 84.928 51.1164 85.4893C53.9273 86.6044 56.9739 87.3008 60.0867 87.6075C60.4144 87.6398 60.7409 87.4164 60.8162 87.1082C60.8901 86.8057 60.694 86.5344 60.3766 86.494L60.3742 86.4937C59.6222 86.399 58.873 86.2964 58.136 86.1622C57.7656 86.101 57.4006 86.0239 57.0333 85.9538C56.6711 85.8704 56.3039 85.8003 55.9462 85.7067C54.5067 85.354 53.1083 84.9051 51.7661 84.3583C49.0766 83.2787 46.5987 81.8009 44.3991 80.0732C43.3113 79.1965 42.3058 78.2388 41.3936 77.204C40.4825 76.1682 39.6654 75.0559 38.923 73.8918C37.4369 71.5627 36.2204 69.0503 34.9874 66.5377C33.7502 64.0262 32.4873 61.5126 31.1067 59.0635C30.4204 57.837 29.7084 56.6249 28.9716 55.4277C28.6072 54.8266 28.2294 54.2337 27.8527 53.6403C27.4696 53.0507 27.0823 52.4639 26.6901 51.8802C25.1148 49.5498 23.4565 47.2736 21.7157 45.058C19.9623 42.8517 18.1394 40.696 16.2208 38.6198C16.1657 38.5605 16.0633 38.5596 15.992 38.6175C15.9227 38.674 15.9082 38.7655 15.9578 38.8249Z" fill="white"/>
<path d="M68.6528 87.8938C68.6528 87.8938 58.4514 36.6374 33.7409 8.12992C32.0799 6.21346 28.8462 6.84208 28.0451 9.2445C22.6891 25.3085 11.5824 74.1812 68.6528 87.8938Z" fill="#BDD0FB"/>
<path opacity="0.5" d="M63.5294 84.4619C63.6533 84.5871 63.4733 84.7742 63.3329 84.6664C58.162 80.6916 38.3544 61.3189 32.4429 23.6661C32.4241 23.5452 32.6101 23.5044 32.6399 23.6233C34.8362 32.3747 43.9759 64.6744 63.5294 84.4619Z" fill="white"/>
<path d="M78.2732 68.319C78.2732 68.319 101.032 25.9136 130.386 7.48193C132.359 6.24299 135.026 7.67233 135.081 10.006C135.45 25.6114 132.024 71.6847 78.2732 68.319Z" fill="#91B3FA"/>
<path d="M83.6914 66.6813C83.5492 66.7579 83.6563 66.9718 83.8088 66.9145C89.415 64.8119 112.008 53.1027 127.338 21.5228C127.387 21.4214 127.235 21.3352 127.177 21.4318C122.893 28.5501 106.173 54.5382 83.6914 66.6813Z" fill="#DCE5FE"/>
<path d="M139.771 56.1364C136.459 63.4121 115.462 104.964 73.114 92.172C73.114 92.172 79.928 61.2426 139.091 55.1803C139.609 55.1279 139.987 55.6612 139.771 56.1364Z" fill="#BDD0FB"/>
<path d="M132.752 59.9956C130.887 61.8533 128.952 63.6324 126.99 65.3825C125.024 67.1284 123.02 68.8296 120.981 70.4893C118.944 72.1504 116.865 73.7605 114.752 75.323L113.96 75.91L113.159 76.4853L112.359 77.0606C112.093 77.2538 111.824 77.4435 111.554 77.6298L109.934 78.7535L108.296 79.8496C107.753 80.2194 107.195 80.5678 106.643 80.9237C106.09 81.2783 105.539 81.637 104.976 81.9757L103.293 83.0042L101.59 83.9976L101.164 84.2459L100.733 84.4853L99.8699 84.9613L99.0068 85.4373C98.7198 85.598 98.4245 85.7422 98.1341 85.896C97.5498 86.1975 96.9682 86.5045 96.3819 86.8004L94.6063 87.6585L94.1621 87.8731L93.7123 88.0745L92.8115 88.4767L91.9107 88.8789C91.6106 89.0134 91.303 89.1293 90.9988 89.2555L90.085 89.6273L89.6277 89.8129C89.4752 89.8757 89.3235 89.9378 89.1683 89.9916L87.3145 90.6676C84.8269 91.5251 82.2892 92.2439 79.7047 92.7633C79.5825 92.7881 79.4631 92.7081 79.4383 92.5853C79.4136 92.4625 79.4933 92.3425 79.6155 92.3177H79.6162L79.6189 92.317C82.1807 91.8127 84.7012 91.1105 87.1765 90.2689L89.0221 89.6046C89.1766 89.5515 89.3283 89.4901 89.48 89.4287L89.9353 89.2459L90.8457 88.8802C91.1485 88.7561 91.4547 88.6416 91.7541 88.5091L92.6522 88.1132L93.5503 87.7172L93.9986 87.5185L94.4415 87.3067L96.213 86.4596C96.7987 86.1671 97.3788 85.8636 97.9625 85.5656C98.2529 85.4138 98.5474 85.271 98.8338 85.1124L99.6962 84.6412L100.559 84.1701L100.989 83.9334L101.415 83.6879L103.117 82.7049L104.798 81.686C105.361 81.3507 105.913 80.9955 106.466 80.6436C107.018 80.2904 107.576 79.9455 108.12 79.5785L109.759 78.4914L111.38 77.3766C111.651 77.1924 111.92 77.0034 112.186 76.8123L112.987 76.2418L113.788 75.6706L114.581 75.0877C116.697 73.5363 118.779 71.9379 120.82 70.2872C122.862 68.6385 124.871 66.9477 126.842 65.2121C128.809 63.473 130.75 61.7022 132.617 59.859L132.619 59.8576C132.656 59.8203 132.717 59.821 132.754 59.859C132.79 59.8976 132.79 59.9583 132.752 59.9956Z" fill="#DCE5FE"/>
<path d="M36.3308 18.7444C36.8725 18.2346 37.6044 17.9815 38.3432 18.0484C46.2489 18.7623 60.9987 14.9365 70.6388 5.02708C71.3082 4.33863 72.5283 4.7277 73.2953 5.30371C84.016 13.3541 101.788 15.0214 107.957 15.3622C109.233 15.4325 110.268 16.4273 110.4 17.7048C116.01 72.1451 80.7299 91.8722 73.4127 95.3545C72.6128 95.7353 71.6714 95.6801 70.9196 95.2096C34.4522 72.3879 36.0122 42.7078 35.5075 20.7173C35.4904 19.9716 35.7897 19.2542 36.3308 18.7444Z" fill="url(#paint0_linear_445_3946)"/>
<path d="M72.4266 91.3227C72.2783 91.3227 72.1293 91.2806 72.0002 91.1978C58.0338 82.2279 48.9321 71.5052 44.1738 58.4184C39.923 46.7271 39.715 34.8164 39.531 24.3082C39.5227 23.8384 39.5145 23.3707 39.5063 22.9064C39.5021 22.694 39.5818 22.4925 39.7301 22.3408C39.8798 22.1876 40.081 22.1035 40.2959 22.1035H40.3027C44.8941 22.1035 50.3307 21.0308 55.6121 19.082C61.6605 16.8504 67.1657 13.593 71.5333 9.66165C71.7997 9.42159 72.1945 9.39262 72.4932 9.59198C76.9946 12.5928 87.3226 17.8327 105.915 19.2096C106.302 19.2379 106.607 19.5408 106.64 19.9291C108.492 41.1511 104.099 59.0958 93.5845 73.2643C85.7324 83.8449 76.4227 89.3567 72.7843 91.2358C72.6724 91.2937 72.5495 91.3227 72.4266 91.3227ZM72.693 91.0564L72.739 91.1461L72.693 91.0564C76.319 89.1842 85.5972 83.6904 93.4245 73.1435C103.909 59.0164 108.288 41.118 106.441 19.9471C106.416 19.6573 106.189 19.4318 105.902 19.4111C102.132 19.1317 96.3495 18.4901 90.2064 17.018C83.0224 15.2969 77.0255 12.8549 72.3833 9.75961C72.1608 9.6113 71.867 9.63268 71.6679 9.81135C67.2818 13.76 61.7545 17.0304 55.6821 19.271C50.3794 21.2274 44.9181 22.3049 40.3034 22.3049H40.2965C40.1359 22.3049 39.9862 22.3677 39.8743 22.4822C39.7637 22.5946 39.7047 22.7443 39.7074 22.9023C39.7157 23.3666 39.7239 23.8343 39.7321 24.304C39.9155 34.7964 40.1235 46.6884 44.3627 58.348C49.1051 71.392 58.1814 82.0817 72.1093 91.0267C72.2844 91.1406 72.5083 91.1516 72.693 91.0564Z" fill="#91B3FA"/>
<path d="M55.684 92.2871C55.684 92.2871 55.4306 93.7268 55.307 95.1513C55.2583 95.708 55.686 96.1916 56.2415 96.215C58.1304 96.2943 62.1704 96.4475 63.6198 96.3826C63.8375 96.373 63.9803 96.1488 63.9 95.9453C63.8327 95.7749 63.7022 95.6369 63.5361 95.5597L56.8622 92.4782L55.684 92.2871Z" fill="url(#paint1_linear_445_3946)"/>
<path d="M55.4766 91.4411L55.6798 93.1629C55.6798 93.1629 56.8491 93.71 57.6469 93.0939L57.1629 91.1748L55.4766 91.4411Z" fill="url(#paint2_linear_445_3946)"/>
<path d="M55.629 59.07C55.5411 59.5198 55.1573 81.5082 57.4973 91.3625C57.5357 91.5232 57.454 91.6888 57.3023 91.7515C56.9432 91.8992 56.2401 92.1123 55.3969 92.1406C55.136 92.1496 54.9019 91.9792 54.8284 91.7274C54.1597 89.4413 50.9552 77.9866 50.5371 67.0438C50.0702 54.8165 50.5371 66.6271 50.5371 66.6271L50.8111 59.0693L55.629 59.07Z" fill="url(#paint3_linear_445_3946)"/>
<path d="M48.007 93.0381C48.007 93.0381 47.6039 93.7645 47.2139 95.696C47.1432 96.0451 47.3863 96.3783 47.7385 96.4135C48.3619 96.4749 49.3225 96.5542 50.0915 96.5487C50.4458 96.5459 50.7225 96.2362 50.6799 95.8823C50.5948 95.1773 50.3291 94.0211 49.5093 93.1195L48.007 93.0381Z" fill="url(#paint4_linear_445_3946)"/>
<path d="M47.6533 90.8244L48.1285 93.4285C48.1285 93.4285 48.5981 93.7796 49.5278 93.5251L49.3012 90.7236L47.6533 90.8244Z" fill="url(#paint5_linear_445_3946)"/>
<path d="M46.3693 59.7462C44.4557 71.3478 46.784 88.4204 47.5695 91.762C47.6176 91.9669 47.7817 92.1235 47.9883 92.158C48.3392 92.2166 48.9159 92.2642 49.4851 92.0979C49.6808 92.0407 49.8188 91.8634 49.8271 91.6578C49.9321 88.9564 49.7426 72.3715 51.5258 65.8174C51.6164 65.4849 51.8183 65.1958 52.097 64.9958L55.5575 62.5241L55.8226 58.5293L46.3693 59.7462Z" fill="url(#paint6_linear_445_3946)"/>
<path d="M58.5616 37.7629C52.8277 37.6677 46.5006 39.2757 46.5006 39.2757C44.7916 49.2955 46.2019 60.853 46.2019 60.853C50.6408 62.0223 55.6483 60.1377 55.6483 60.1377C56.3864 55.9497 59.8284 44.1632 59.8284 44.1632C62.6298 43.8141 64.9382 43.0015 66.8387 41.9281C65.3893 40.2401 64.7054 38.0913 64.4088 36.8213C62.3819 37.4539 60.3303 37.7926 58.5616 37.7629Z" fill="url(#paint7_linear_445_3946)"/>
<path d="M76.9054 26.7286C76.3424 26.045 73.8156 26.7286 73.8156 26.7286C72.9718 30.3095 68.9541 35.4019 64.4087 36.8216C64.7053 38.0915 65.3892 40.2397 66.8386 41.9284C74.3824 37.6666 76.9054 26.7286 76.9054 26.7286Z" fill="url(#paint8_linear_445_3946)"/>
<path d="M48.6996 44.8534L46.5004 39.2754C46.5004 39.2754 41.1448 42.9315 40.2639 47.5672C41.276 47.6424 43.1175 47.9066 44.9198 48.8206C45.316 46.6318 48.6996 44.8534 48.6996 44.8534Z" fill="url(#paint9_linear_445_3946)"/>
<path d="M52.7534 33.0859L50.9291 38.3873C50.8989 38.4749 50.9346 38.5722 51.0156 38.617C51.5127 38.893 53.3048 39.6918 55.4642 38.3163C55.6894 38.1728 55.8425 37.9396 55.8762 37.674L56.4666 33.0859H52.7534Z" fill="url(#paint10_linear_445_3946)"/>
<path d="M56.7236 28.1768C56.7236 28.1768 58.7272 31.966 58.4704 33.4961C58.2136 35.0268 55.7308 34.9164 53.5625 33.6734L52.0471 29.5819L56.7236 28.1768Z" fill="url(#paint11_linear_445_3946)"/>
<path d="M53.6579 31.6647C53.7458 31.6254 53.7787 31.5171 53.7259 31.4364C53.5652 31.1901 53.2645 30.6872 53.1683 30.2471C53.1683 30.2471 52.8079 30.0153 54.085 29.7084C55.3621 29.4014 57.266 28.9247 57.6663 27.8327C58.0563 26.7683 57.0312 24.091 55.3957 26.224C55.3332 26.3054 55.2117 26.3068 55.1492 26.2254C54.8807 25.875 54.1763 25.1472 53.1972 25.588C52.2812 26.0012 52.1782 26.6752 52.1906 27.0152C52.194 27.1153 52.1054 27.1932 52.0073 27.1739C51.5445 27.0849 50.4329 27.009 49.9145 28.1542C49.4874 29.0979 49.7648 29.6318 50.0175 29.8925C50.0992 29.9774 50.0635 30.1167 49.9509 30.1512C49.6467 30.245 49.2533 30.5044 49.2931 31.2205C49.3473 32.2111 50.4493 32.1235 50.7631 32.0786C50.8146 32.071 50.8661 32.089 50.9011 32.1276C51.1703 32.427 52.3822 33.697 53.6943 33.8501C53.8076 33.8632 53.8961 33.7508 53.8584 33.6418L53.2905 31.9834C53.2644 31.9062 53.3008 31.822 53.375 31.7889L53.6579 31.6647Z" fill="url(#paint12_linear_445_3946)"/>
<path d="M53.8859 31.9008C53.8859 31.9008 52.4591 30.9178 52.3554 31.7456C52.2511 32.5734 53.6401 32.9453 54.3281 32.6362L53.8859 31.9008Z" fill="url(#paint13_linear_445_3946)"/>
<path d="M44.92 48.8214C44.92 48.8214 43.0482 57.3063 44.7435 62.0765C42.6644 63.045 43.0489 62.8622 43.0489 62.8622C43.0489 62.8622 38.9361 50.7895 40.264 47.5679C42.8814 47.2885 44.1805 47.9956 44.92 48.8214Z" fill="url(#paint14_linear_445_3946)"/>
<path d="M44.7436 62.0757C44.7436 62.0757 45.8147 63.4685 45.7289 64.0238C45.6431 64.5784 45.6225 64.8047 45.6225 64.8047C45.6225 64.8047 45.0842 64.4349 45.1178 63.9624C45.1926 65.4628 45.6925 67.168 45.238 67.086C44.7834 67.0039 42.4318 64.8254 42.9632 62.5034C44.171 61.6604 44.5095 61.7522 44.7436 62.0757Z" fill="url(#paint15_linear_445_3946)"/>
<path d="M53.9689 40.0059L55.763 52.2628C55.796 52.4898 55.7644 52.7236 55.6724 52.9285L54.3575 55.852C54.2312 56.1328 53.8783 56.1307 53.7547 55.8486L52.4501 52.8768C52.3746 52.7043 52.341 52.5118 52.3533 52.3194L53.1313 40.15L53.9689 40.0059Z" fill="url(#paint16_linear_445_3946)"/>
<path d="M53.9475 38.9114L55.1024 40.9015C55.2136 41.1437 55.6428 41.1602 55.7828 40.9271L57.2103 37.7538L55.8934 37.5352L53.9475 38.9114Z" fill="url(#paint17_linear_445_3946)"/>
<path d="M51.1751 37.6768L53.2033 38.9116L52.6458 40.879C52.5407 41.1487 52.0519 41.1687 51.9111 40.9086L50.4692 38.3162L51.1751 37.6768Z" fill="url(#paint18_linear_445_3946)"/>
<path d="M53.0482 38.8981L54.2195 38.6753C54.2731 38.665 54.3205 38.7105 54.3136 38.7643L54.0754 40.6262C54.0712 40.66 54.0458 40.6876 54.0122 40.6945L53.1738 40.8704C53.1258 40.8807 53.0805 40.8448 53.0777 40.7959L52.983 38.9809C52.9816 38.9409 53.0091 38.9057 53.0482 38.8981Z" fill="url(#paint19_linear_445_3946)"/>
<path d="M89.3501 98.7502C109.885 98.7502 126.531 82.0256 126.531 61.3946C126.531 40.7637 109.885 24.0391 89.3501 24.0391C68.8155 24.0391 52.1689 40.7637 52.1689 61.3946C52.1689 82.0256 68.8155 98.7502 89.3501 98.7502Z" fill="#7D97F4" fill-opacity="0.5"/>
<path d="M113.211 85.7022C126.349 72.5023 126.349 51.1012 113.211 37.9013C100.073 24.7015 78.7717 24.7015 65.6335 37.9013C52.4953 51.1012 52.4953 72.5023 65.6335 85.7022C78.7717 98.902 100.073 98.902 113.211 85.7022Z" fill="white"/>
<path d="M70.126 67.7599C70.126 65.8946 68.6203 64.3818 66.7638 64.3818H65.2595C63.4029 64.3818 61.8972 65.8946 61.8972 67.7599V76.8134C61.8972 78.6786 63.4029 80.1914 65.2595 80.1914H66.7638C68.6203 80.1914 70.126 78.6786 70.126 76.8134V67.7599Z" fill="url(#paint20_linear_445_3946)"/>
<path d="M116.467 67.7599C116.467 65.8946 114.962 64.3818 113.105 64.3818H111.601C109.744 64.3818 108.239 65.8946 108.239 67.7599V76.8134C108.239 78.6786 109.744 80.1914 111.601 80.1914H113.105C114.962 80.1914 116.467 78.6786 116.467 76.8134V67.7599Z" fill="url(#paint21_linear_445_3946)"/>
<path d="M66.4589 50.9625C66.3579 50.9408 66.2279 50.8508 66.2279 50.7464V50.0516C66.2279 49.383 65.9118 48.7709 65.317 48.4692C64.5504 48.0805 63.677 48.0675 62.8989 48.433L61.5188 49.1045C60.8359 49.4251 60.4519 50.1126 60.4519 50.8697V51.3991C60.4519 52.3738 61.1304 53.1976 62.0919 53.3296L67.9603 54.1346L68.6504 51.4412L66.4589 50.9625Z" fill="url(#paint22_linear_445_3946)"/>
<path d="M112.324 50.9625C112.425 50.9408 112.425 50.8508 112.425 50.7464V50.0516C112.425 49.383 112.871 48.7709 113.466 48.4692C114.233 48.0805 115.171 48.0675 115.949 48.433L117.448 49.1045C118.13 49.4251 118.633 50.1126 118.633 50.8697V51.3991C118.633 52.3738 117.866 53.1976 116.906 53.3296L110.994 54.1346L110.218 51.4412L112.324 50.9625Z" fill="url(#paint23_linear_445_3946)"/>
<path d="M116.697 56.9174C115.845 54.0267 111.441 51.3043 111.441 51.3043C111.441 51.3043 107.748 39.8691 103.769 39.8691C100.576 39.8691 92.9059 39.8691 90.0071 39.8691C90.0071 39.8691 89.5812 39.8691 88.8709 39.8691C85.9692 39.8691 78.2861 39.8691 75.0913 39.8691C71.114 39.8691 67.4197 51.3043 67.4197 51.3043C67.4197 51.3043 63.0166 54.002 62.1634 56.8927C61.5397 59.006 62.891 67.2168 63.6633 71.4114C63.9347 72.8894 65.3235 74.1005 66.9462 74.1005H88.8709H90.0071H111.914C113.536 74.1005 114.924 72.9039 115.197 71.4245C115.968 67.2299 117.319 59.0306 116.697 56.9174Z" fill="url(#paint24_linear_445_3946)"/>
<path d="M116.142 69.1356C115.894 68.8514 115.516 68.7324 115.116 68.7324H63.7421C63.3451 68.7324 62.9684 68.8499 62.72 69.1313C62.4717 69.4127 62.3793 69.7579 62.4674 70.1103L63.3076 73.5391C63.4433 74.0786 63.9717 74.5341 64.5823 74.5341H114.234C114.839 74.5341 115.364 74.0728 115.506 73.5391L116.388 70.164C116.482 69.8115 116.391 69.4214 116.142 69.1356Z" fill="#7D97F4"/>
<path d="M75.5548 63.8515C75.5548 63.8515 74.2757 59.9977 72.666 59.6656C71.0564 59.332 64.2366 57.9047 64.0951 59.0941C63.9536 60.2834 62.5793 64.3751 66.6518 64.7551C70.7258 65.1351 76.2116 65.4484 75.5548 63.8515Z" fill="url(#paint25_linear_445_3946)"/>
<path d="M103.306 63.8515C103.306 63.8515 104.585 59.9977 106.194 59.6656C107.804 59.332 114.624 57.9047 114.765 59.0941C114.907 60.2834 116.281 64.3751 112.209 64.7551C108.135 65.1351 102.649 65.4484 103.306 63.8515Z" fill="url(#paint26_linear_445_3946)"/>
<path d="M102.387 60.5331C102.255 60.3285 102.029 60.1748 101.785 60.1748H77.0744C76.8232 60.1748 76.5894 60.3373 76.4594 60.5548C76.3295 60.7709 76.3223 61.0552 76.4407 61.2786L77.8309 63.9329C78.3463 64.9104 79.3583 65.5414 80.4598 65.5414H98.6166C99.7903 65.5414 100.856 64.835 101.334 63.7573L102.441 61.2409C102.539 61.0175 102.519 60.739 102.387 60.5331Z" fill="#7D97F4"/>
<path d="M109.117 52.2582C108.957 52.5033 108.684 52.6324 108.389 52.6324H70.4718C70.1744 52.6324 69.8972 52.4989 69.7384 52.2466C69.5796 51.9942 69.5594 51.6867 69.6879 51.4155C70.5483 49.5923 72.1637 46.2244 73.0689 44.336C73.1107 44.2504 73.1555 44.146 73.206 44.0676C73.6435 43.37 74.4115 42.916 75.2459 42.916H103.92C104.763 42.916 105.534 43.3816 105.97 44.0851C106.03 44.1851 106.087 44.3026 106.133 44.4099L109.185 51.4358C109.303 51.7041 109.277 52.0116 109.117 52.2582Z" fill="#BDD0FB"/>
<path d="M105.97 44.0836C103.962 44.4824 98.0585 45.4861 89.1555 45.4861C80.1789 45.4861 74.911 44.4549 73.2046 44.0618C73.642 43.3642 74.41 42.9131 75.2445 42.9131H103.918C104.763 42.9145 105.534 43.3801 105.97 44.0836Z" fill="#91B3FA"/>
<path d="M74.9436 58.6116C74.909 58.6116 74.8729 58.5986 74.8455 58.5725L69.9313 53.8992C69.875 53.8456 69.8721 53.7542 69.9255 53.6976C69.9789 53.6411 70.0699 53.6382 70.1262 53.6918L75.0404 58.3651C75.0967 58.4187 75.0996 58.5101 75.0461 58.5667C75.0187 58.5957 74.9812 58.6116 74.9436 58.6116Z" fill="#7D97F4"/>
<path d="M103.554 58.6112C103.517 58.6112 103.479 58.5967 103.452 58.5662C103.399 58.5097 103.4 58.4183 103.458 58.3646L108.372 53.6914C108.43 53.6377 108.519 53.6392 108.573 53.6972C108.626 53.7537 108.625 53.8451 108.567 53.8988L103.653 58.572C103.625 58.5981 103.591 58.6112 103.554 58.6112Z" fill="#7D97F4"/>
<path d="M76.9814 25.9166L77.3295 27.5252C77.368 27.7012 77.2677 27.8764 77.0954 27.935C76.9128 27.9971 76.7095 27.9074 76.6333 27.7315L75.9584 26.1711C75.913 26.0669 75.9185 25.9483 75.9769 25.8524C76.0916 25.6634 76.3408 25.4213 76.8002 25.6744C76.8935 25.7255 76.9595 25.8145 76.9814 25.9166Z" fill="url(#paint27_linear_445_3946)"/>
<path d="M74.5193 26.5507L74.8036 27.8642C74.8345 28.0084 74.7528 28.1505 74.612 28.1987C74.463 28.2491 74.2976 28.1767 74.2351 28.0325L73.6844 26.7584C73.648 26.6735 73.6522 26.5763 73.6995 26.4983C73.7936 26.3438 73.9968 26.1458 74.3717 26.3528C74.4473 26.3948 74.5008 26.4673 74.5193 26.5507Z" fill="url(#paint28_linear_445_3946)"/>
<path d="M75.2108 26.3651L75.5335 27.8572C75.5692 28.0207 75.4758 28.1828 75.3165 28.2373C75.1469 28.2945 74.9588 28.2118 74.8881 28.0483L74.2626 26.6017C74.2207 26.5051 74.2255 26.3954 74.2797 26.3064C74.3861 26.1312 74.6175 25.9063 75.0432 26.1409C75.1291 26.1878 75.1902 26.2706 75.2108 26.3651Z" fill="url(#paint29_linear_445_3946)"/>
<path d="M76.0992 26.0881L76.4583 27.8471C76.4974 28.0396 76.3896 28.2321 76.2049 28.2976C76.0093 28.3673 75.793 28.2707 75.7133 28.0782L75.0047 26.375C74.9574 26.2612 74.9642 26.1315 75.0274 26.026C75.1517 25.8183 75.4201 25.5507 75.9083 25.8245C76.0065 25.8797 76.0758 25.977 76.0992 26.0881Z" fill="url(#paint30_linear_445_3946)"/>
</g>
<defs>
<linearGradient id="paint0_linear_445_3946" x1="58.5124" y1="54.9096" x2="130.975" y2="5.37563" gradientUnits="userSpaceOnUse">
<stop stop-color="#4042E2"/>
<stop offset="1" stop-color="#4F52FF"/>
</linearGradient>
<linearGradient id="paint1_linear_445_3946" x1="63.4087" y1="90.298" x2="38.8464" y2="116.89" gradientUnits="userSpaceOnUse">
<stop stop-color="#09005D"/>
<stop offset="1" stop-color="#1A0F91"/>
</linearGradient>
<linearGradient id="paint2_linear_445_3946" x1="55.4763" y1="92.2812" x2="57.647" y2="92.2812" gradientUnits="userSpaceOnUse">
<stop stop-color="#FF928E"/>
<stop offset="1" stop-color="#FEB3B1"/>
</linearGradient>
<linearGradient id="paint3_linear_445_3946" x1="65.3329" y1="60.0952" x2="44.412" y2="88.3184" gradientUnits="userSpaceOnUse">
<stop stop-color="#09005D"/>
<stop offset="1" stop-color="#1A0F91"/>
</linearGradient>
<linearGradient id="paint4_linear_445_3946" x1="57.9263" y1="85.2338" x2="33.3639" y2="111.826" gradientUnits="userSpaceOnUse">
<stop stop-color="#09005D"/>
<stop offset="1" stop-color="#1A0F91"/>
</linearGradient>
<linearGradient id="paint5_linear_445_3946" x1="47.653" y1="92.1701" x2="49.5273" y2="92.1701" gradientUnits="userSpaceOnUse">
<stop stop-color="#FF928E"/>
<stop offset="1" stop-color="#FEB3B1"/>
</linearGradient>
<linearGradient id="paint6_linear_445_3946" x1="61.6268" y1="57.3487" x2="40.7059" y2="85.572" gradientUnits="userSpaceOnUse">
<stop stop-color="#09005D"/>
<stop offset="1" stop-color="#1A0F91"/>
</linearGradient>
<linearGradient id="paint7_linear_445_3946" x1="50.114" y1="39.1423" x2="68.3308" y2="72.8438" gradientUnits="userSpaceOnUse">
<stop stop-color="#FE7062"/>
<stop offset="1" stop-color="#FF928E"/>
</linearGradient>
<linearGradient id="paint8_linear_445_3946" x1="73.7887" y1="22.4027" x2="69.9266" y2="33.3856" gradientUnits="userSpaceOnUse">
<stop stop-color="#FF928E"/>
<stop offset="1" stop-color="#FEB3B1"/>
</linearGradient>
<linearGradient id="paint9_linear_445_3946" x1="43.1162" y1="42.9244" x2="61.3331" y2="76.6259" gradientUnits="userSpaceOnUse">
<stop stop-color="#FE7062"/>
<stop offset="1" stop-color="#FF928E"/>
</linearGradient>
<linearGradient id="paint10_linear_445_3946" x1="54.094" y1="33.199" x2="52.9853" y2="40.8547" gradientUnits="userSpaceOnUse">
<stop stop-color="#FF928E"/>
<stop offset="1" stop-color="#FEB3B1"/>
</linearGradient>
<linearGradient id="paint11_linear_445_3946" x1="112.651" y1="64.0316" x2="105.854" y2="60.1548" gradientUnits="userSpaceOnUse">
<stop stop-color="#FF928E"/>
<stop offset="1" stop-color="#FEB3B1"/>
</linearGradient>
<linearGradient id="paint12_linear_445_3946" x1="48.4566" y1="24.8666" x2="56.3665" y2="31.0849" gradientUnits="userSpaceOnUse">
<stop stop-color="#09005D"/>
<stop offset="1" stop-color="#1A0F91"/>
</linearGradient>
<linearGradient id="paint13_linear_445_3946" x1="111.662" y1="65.7675" x2="104.864" y2="61.8907" gradientUnits="userSpaceOnUse">
<stop stop-color="#FF928E"/>
<stop offset="1" stop-color="#FEB3B1"/>
</linearGradient>
<linearGradient id="paint14_linear_445_3946" x1="46.2722" y1="77.0825" x2="41.7196" y2="44.5391" gradientUnits="userSpaceOnUse">
<stop stop-color="#FF928E"/>
<stop offset="1" stop-color="#FEB3B1"/>
</linearGradient>
<linearGradient id="paint15_linear_445_3946" x1="45.7352" y1="73.9506" x2="42.1022" y2="47.9809" gradientUnits="userSpaceOnUse">
<stop stop-color="#FF928E"/>
<stop offset="1" stop-color="#FEB3B1"/>
</linearGradient>
<linearGradient id="paint16_linear_445_3946" x1="53.936" y1="55.5138" x2="56.2201" y2="0.193172" gradientUnits="userSpaceOnUse">
<stop stop-color="#E1473D"/>
<stop offset="1" stop-color="#E9605A"/>
</linearGradient>
<linearGradient id="paint17_linear_445_3946" x1="56.0808" y1="32.8998" x2="55.1106" y2="43.3155" gradientUnits="userSpaceOnUse">
<stop stop-color="#FE7062"/>
<stop offset="1" stop-color="#FF928E"/>
</linearGradient>
<linearGradient id="paint18_linear_445_3946" x1="52.3952" y1="32.5567" x2="51.425" y2="42.9723" gradientUnits="userSpaceOnUse">
<stop stop-color="#FE7062"/>
<stop offset="1" stop-color="#FF928E"/>
</linearGradient>
<linearGradient id="paint19_linear_445_3946" x1="51.9993" y1="40.5345" x2="62.7937" y2="35.3774" gradientUnits="userSpaceOnUse">
<stop stop-color="#E1473D"/>
<stop offset="1" stop-color="#E9605A"/>
</linearGradient>
<linearGradient id="paint20_linear_445_3946" x1="61.8974" y1="72.2866" x2="70.1262" y2="72.2866" gradientUnits="userSpaceOnUse">
<stop stop-color="#09005D"/>
<stop offset="1" stop-color="#1A0F91"/>
</linearGradient>
<linearGradient id="paint21_linear_445_3946" x1="108.239" y1="72.2866" x2="116.468" y2="72.2866" gradientUnits="userSpaceOnUse">
<stop stop-color="#09005D"/>
<stop offset="1" stop-color="#1A0F91"/>
</linearGradient>
<linearGradient id="paint22_linear_445_3946" x1="60.4535" y1="51.152" x2="68.6514" y2="51.152" gradientUnits="userSpaceOnUse">
<stop stop-color="#4042E2"/>
<stop offset="1" stop-color="#4F52FF"/>
</linearGradient>
<linearGradient id="paint23_linear_445_3946" x1="118.633" y1="51.152" x2="110.218" y2="51.152" gradientUnits="userSpaceOnUse">
<stop stop-color="#4042E2"/>
<stop offset="1" stop-color="#4F52FF"/>
</linearGradient>
<linearGradient id="paint24_linear_445_3946" x1="89.5115" y1="48.6817" x2="89.1114" y2="96.87" gradientUnits="userSpaceOnUse">
<stop stop-color="#4042E2"/>
<stop offset="1" stop-color="#4F52FF"/>
</linearGradient>
<linearGradient id="paint25_linear_445_3946" x1="63.7599" y1="61.8454" x2="75.6088" y2="61.8454" gradientUnits="userSpaceOnUse">
<stop stop-color="#FE7062"/>
<stop offset="1" stop-color="#FF928E"/>
</linearGradient>
<linearGradient id="paint26_linear_445_3946" x1="103.251" y1="61.8454" x2="115.1" y2="61.8454" gradientUnits="userSpaceOnUse">
<stop stop-color="#FE7062"/>
<stop offset="1" stop-color="#FF928E"/>
</linearGradient>
<linearGradient id="paint27_linear_445_3946" x1="76.9542" y1="16.0224" x2="76.677" y2="25.2661" gradientUnits="userSpaceOnUse">
<stop stop-color="#FF928E"/>
<stop offset="1" stop-color="#FEB3B1"/>
</linearGradient>
<linearGradient id="paint28_linear_445_3946" x1="74.5717" y1="15.9512" x2="74.2944" y2="25.1948" gradientUnits="userSpaceOnUse">
<stop stop-color="#FF928E"/>
<stop offset="1" stop-color="#FEB3B1"/>
</linearGradient>
<linearGradient id="paint29_linear_445_3946" x1="75.2212" y1="15.9705" x2="74.944" y2="25.2142" gradientUnits="userSpaceOnUse">
<stop stop-color="#FF928E"/>
<stop offset="1" stop-color="#FEB3B1"/>
</linearGradient>
<linearGradient id="paint30_linear_445_3946" x1="76.0491" y1="15.995" x2="75.7719" y2="25.2387" gradientUnits="userSpaceOnUse">
<stop stop-color="#FF928E"/>
<stop offset="1" stop-color="#FEB3B1"/>
</linearGradient>
<clipPath id="clip0_445_3946">
<rect width="155" height="99" fill="white"/>
</clipPath>
</defs>
</svg>
