<svg width="145" height="120" viewBox="0 0 145 120" fill="none" xmlns="http://www.w3.org/2000/svg">
<path d="M135.205 85.865C124.5 110.886 96.2433 121.633 74.1037 119.801C68.0588 119.3 55.8961 118.294 46.3992 109.313C28.1615 92.0656 30.9699 56.0148 48.4288 34.7901C50.677 32.0568 66.2397 13.7439 90.4914 13.9888C108.247 14.168 120.709 24.1982 122.225 25.4478C124.139 27.0263 128.362 30.7775 132.167 36.7279C141.108 50.7101 141.894 70.2295 135.205 85.865Z" fill="url(#paint0_linear_445_4328)"/>
<path d="M140.902 21.436C140.74 20.7395 139.755 20.7241 139.575 21.4161C137.832 28.1037 132.717 45.4955 124.546 54.8191C111.243 70.0002 102.635 94.4265 111.536 106.846C111.536 106.846 158.526 97.3064 140.902 21.436Z" fill="#91B3FA"/>
<path opacity="0.43" d="M139.758 30.9548C139.745 31.1725 139.717 31.3511 139.695 31.545L139.619 32.1141L139.454 33.2496C139.339 34.0052 139.212 34.7592 139.085 35.5131C138.826 37.0198 138.549 38.5232 138.258 40.0237C137.671 43.0241 137.003 46.008 136.29 48.9811C135.582 51.9553 134.79 54.9097 133.937 57.8464C133.081 60.782 132.184 63.7062 131.192 66.5997C129.218 72.389 126.93 78.076 124.252 83.577C122.884 86.313 121.444 89.0144 119.852 91.6259C118.241 94.2248 116.52 96.7567 114.623 99.1505C114.582 99.2028 114.506 99.2113 114.454 99.1698C114.404 99.1294 114.394 99.0561 114.432 99.0043L114.433 99.0032C116.23 96.5458 117.892 93.9957 119.426 91.3694C120.968 88.7466 122.356 86.0367 123.672 83.2939C124.987 80.5499 126.193 77.7525 127.334 74.9306C128.475 72.107 129.499 69.2374 130.506 66.3632C132.497 60.604 134.182 54.7397 135.705 48.835C136.46 45.8806 137.156 42.9109 137.8 39.9287C138.124 38.4385 138.435 36.9448 138.727 35.4477L139.148 33.199L139.347 32.0732L139.44 31.5097C139.468 31.3249 139.501 31.1259 139.518 30.9633L139.521 30.9366C139.527 30.8712 139.586 30.8234 139.651 30.8308C139.716 30.836 139.762 30.8917 139.758 30.9548Z" fill="white"/>
<path d="M121.264 13.4153C120.959 12.7301 119.942 12.9115 119.893 13.6603C119.423 20.8995 117.6 39.8424 111.03 51.0861C100.333 69.3927 96.3053 96.2832 107.937 107.294C107.937 107.294 154.457 88.0467 121.264 13.4153Z" fill="#BDD0FB"/>
<path opacity="0.43" d="M121.974 23.4516C122.004 23.679 122.011 23.8683 122.027 24.0725L122.061 24.674L122.116 25.8766C122.148 26.6783 122.167 27.4805 122.186 28.2822C122.218 29.8862 122.231 31.4908 122.229 33.0947C122.219 36.3038 122.122 39.5117 121.978 42.7174C121.838 45.9236 121.609 49.1264 121.311 52.3224C121.012 55.5184 120.667 58.711 120.218 61.8911C119.333 68.2513 118.101 74.5688 116.431 80.7737C115.564 83.8668 114.616 86.9383 113.492 89.9478C112.347 92.9482 111.075 95.9014 109.594 98.7477C109.561 98.8108 109.484 98.8353 109.421 98.8023C109.36 98.7699 109.335 98.6954 109.365 98.6334L109.365 98.6317C110.728 95.7393 111.934 92.7793 112.994 89.7658C114.061 86.7546 114.954 83.6843 115.767 80.5946C116.577 77.5038 117.264 74.3811 117.881 71.2443C118.497 68.1068 118.982 64.9455 119.451 61.7819C120.362 55.4496 120.934 49.0707 121.335 42.6821C121.528 39.4873 121.657 36.2879 121.729 33.0873C121.768 31.4868 121.793 29.8862 121.797 28.2851L121.785 25.884L121.767 24.6843L121.751 24.085C121.743 23.8888 121.737 23.6779 121.723 23.5067L121.721 23.4777C121.715 23.4072 121.767 23.3458 121.837 23.3401C121.906 23.3356 121.966 23.3845 121.974 23.4516Z" fill="white"/>
<path d="M68.1236 90.7945C71.5263 89.8557 91.6761 85.3077 102.315 105.811C102.315 105.811 90.3576 112.647 68.061 91.3541C67.8662 91.1678 67.9016 90.856 68.1236 90.7945Z" fill="#7D97F4"/>
<path opacity="0.43" d="M71.7466 92.4033C71.7466 92.4033 72.2045 92.4607 73.0033 92.5825C73.8017 92.7059 74.9403 92.8936 76.3005 93.154C76.9805 93.2841 77.717 93.4283 78.4927 93.5955C79.2688 93.7602 80.087 93.9379 80.9293 94.1391C81.7717 94.3388 82.6421 94.5482 83.5217 94.7796C84.4006 95.0128 85.2929 95.2542 86.1807 95.5106C86.6245 95.6395 87.0671 95.7721 87.5067 95.9088C87.9475 96.0418 88.3841 96.1816 88.8174 96.3209C89.6851 96.5955 90.5294 96.8962 91.3453 97.1886C91.7533 97.3354 92.1519 97.4871 92.5416 97.6357C92.931 97.7862 93.3084 97.9423 93.6772 98.0895C94.045 98.2404 94.4 98.3939 94.7439 98.5407C95.0871 98.6897 95.4138 98.8447 95.7297 98.9878C96.0464 99.129 96.3426 99.2814 96.6273 99.4188C96.9119 99.5559 97.1775 99.696 97.4261 99.8287C97.9279 100.085 98.3511 100.336 98.7014 100.537C98.878 100.636 99.0303 100.733 99.1626 100.817C99.2952 100.901 99.4081 100.972 99.4994 101.03C99.682 101.146 99.7796 101.208 99.7796 101.208C99.7796 101.208 99.6775 101.154 99.4856 101.054C99.2926 100.956 99.0162 100.801 98.6537 100.624C98.2915 100.447 97.8538 100.229 97.3415 100C97.087 99.8823 96.8158 99.7582 96.5252 99.6375C96.2346 99.5168 95.9358 99.376 95.6142 99.2504C94.9764 98.9874 94.2797 98.7173 93.5409 98.4367C93.1691 98.3022 92.7894 98.1588 92.3978 98.0217C92.0048 97.8883 91.6076 97.74 91.1989 97.6037C90.383 97.3246 89.5339 97.0538 88.6706 96.7807C88.2388 96.645 87.8033 96.5087 87.3636 96.379C86.9251 96.2453 86.4833 96.1175 86.041 95.9904C85.1584 95.7296 84.2713 95.4837 83.3973 95.2457C82.9595 95.1283 82.5254 95.0121 82.0962 94.8969C81.6663 94.7852 81.2427 94.6704 80.8239 94.5654C79.9871 94.353 79.1783 94.1458 78.4093 93.9577C77.6395 93.7718 76.9119 93.5959 76.2402 93.4335C75.5669 93.2759 74.9499 93.1317 74.403 93.0039C73.8553 92.8787 73.3777 92.7696 72.9843 92.6798C72.197 92.5039 71.7466 92.4033 71.7466 92.4033Z" fill="white"/>
<path d="M89.2322 85.9242C91.4218 86.5806 104.039 91.0224 102.816 105.931C102.816 105.931 93.905 105.564 89.0053 86.2096C88.9624 86.04 89.0891 85.881 89.2322 85.9242Z" fill="#91B3FA"/>
<path opacity="0.43" d="M101.968 104.725C101.911 104.725 101.86 104.687 101.847 104.629C99.4044 94.4747 90.6811 88.2181 90.5931 88.1559C90.5369 88.116 90.5235 88.0382 90.5629 87.9816C90.6028 87.9253 90.6807 87.9119 90.7373 87.9514C90.7593 87.967 92.9832 89.5486 95.4794 92.3734C97.7838 94.981 100.801 99.2138 102.09 104.571C102.106 104.638 102.064 104.705 101.997 104.722C101.987 104.724 101.978 104.725 101.968 104.725Z" fill="white"/>
<path d="M121.658 112.548H64.4758V104.269C64.4758 104.026 65.1124 103.83 65.8974 103.83H120.236C121.021 103.83 121.658 104.026 121.658 104.269V112.548H121.658Z" fill="url(#paint1_linear_445_4328)"/>
<path d="M107.132 112.548H49.9502V104.269C49.9502 104.026 50.5868 103.83 51.3718 103.83H105.71C106.495 103.83 107.132 104.026 107.132 104.269V112.548Z" fill="url(#paint2_linear_445_4328)"/>
<path d="M109.447 26.2034C108.532 26.1962 107.608 26.3413 106.791 26.6803C104.89 27.4693 103.276 29.5572 103.907 31.6898C104.113 32.3825 104.005 33.1469 104.695 33.4479C105.068 33.6108 106.085 33.7078 106.472 33.5794C107.5 33.2382 108.175 32.3043 107.616 31.2688C107.437 30.9372 107.205 30.6342 107.051 30.2906C106.896 29.9469 106.826 29.5389 106.983 29.1966C107.293 28.5246 108.32 28.311 108.987 28.3312C109.773 28.3549 110.486 28.7439 110.909 29.4113C111.436 30.243 111.57 31.2546 111.493 32.22C111.41 33.253 110.975 34.0419 110.322 34.8344C109.76 35.5167 109.141 36.1715 108.768 36.9727C108.425 37.7082 108.313 38.5231 108.297 39.3277C108.294 39.4836 107.518 40.9533 107.522 41.4023C107.522 41.4658 108.401 41.6759 108.465 41.6766C108.796 41.6803 109.733 41.6908 110.078 41.6947C110.149 41.6955 110.208 41.6387 110.209 41.5677C110.233 39.3833 110.905 37.3007 112.606 35.8336C113.225 35.2997 113.891 34.865 114.373 34.1912C115.059 33.2308 115.397 32.2857 115.299 31.1005C115.21 30.0179 114.854 28.9349 114.148 28.095C113.39 27.1923 112.28 26.6285 111.126 26.3853C110.588 26.2719 110.019 26.2078 109.447 26.2034Z" fill="url(#paint3_linear_445_4328)"/>
<path d="M111.135 44.1438C111.135 45.1483 110.578 46.037 109.574 46.037C109.357 46.037 108.619 46.039 108.426 45.9693C107.726 45.7163 107.723 45.1783 107.723 44.3909C107.723 43.3863 108.062 42.3984 109.067 42.3984C110.071 42.3984 111.135 43.1393 111.135 44.1438Z" fill="url(#paint4_linear_445_4328)"/>
<path d="M108.578 25.9749C107.662 25.9677 106.739 26.1128 105.922 26.4518C104.02 27.2408 102.406 29.3287 103.038 31.4613C103.243 32.154 103.718 33.0261 104.408 33.3271C104.781 33.49 105.216 33.4792 105.602 33.3509C106.63 33.0097 107.306 32.0758 106.747 31.0403C106.568 30.7087 106.336 30.4057 106.182 30.0621C106.027 29.7184 105.957 29.3104 106.114 28.9681C106.423 28.2961 107.451 28.0825 108.117 28.1026C108.904 28.1264 109.616 28.5154 110.04 29.1828C110.567 30.0145 110.701 31.0261 110.623 31.9915C110.541 33.0245 110.105 33.8134 109.452 34.6058C108.89 35.2881 108.272 35.943 107.898 36.7441C107.555 37.4796 107.443 38.2946 107.428 39.0992C107.425 39.2551 107.477 40.8837 107.48 41.3327C107.481 41.3961 107.532 41.4473 107.595 41.4481C107.926 41.4517 108.864 41.4623 109.209 41.4661C109.28 41.4669 109.338 41.4102 109.339 41.3392C109.364 39.1547 110.036 37.0721 111.737 35.605C112.356 35.0711 113.022 34.6364 113.503 33.9626C114.189 33.0022 114.528 32.0571 114.43 30.8719C114.341 29.7893 113.984 28.7063 113.279 27.8664C112.52 26.9637 111.41 26.3999 110.257 26.1567C109.719 26.0434 109.15 25.9793 108.578 25.9749Z" fill="url(#paint5_linear_445_4328)"/>
<path d="M108.673 45.9804C109.677 45.9804 110.491 45.1661 110.491 44.1616C110.491 43.1571 109.677 42.3428 108.673 42.3428C107.668 42.3428 106.854 43.1571 106.854 44.1616C106.854 45.1661 107.668 45.9804 108.673 45.9804Z" fill="url(#paint6_linear_445_4328)"/>
<path opacity="0.63" d="M103.639 31.2531C103.629 31.2531 103.619 31.2456 103.617 31.2348C103.489 30.6593 103.47 29.758 104.105 28.7327C104.725 27.7321 105.593 27.0625 106.688 26.7426C107.858 26.4007 109.246 26.4739 110.816 26.9602C110.828 26.964 110.835 26.977 110.831 26.9894C110.827 27.0017 110.814 27.0086 110.802 27.0048C107.787 26.0705 105.423 26.6929 104.145 28.7574C103.518 29.7693 103.536 30.6577 103.662 31.2247C103.665 31.2374 103.657 31.2498 103.644 31.2526C103.643 31.2529 103.641 31.2531 103.639 31.2531Z" fill="white"/>
<path opacity="0.63" d="M104.023 32.1793C104.015 32.1793 104.008 32.176 104.004 32.1697C103.998 32.1621 103.867 31.9808 103.745 31.6616C103.74 31.6495 103.746 31.6361 103.758 31.6314C103.77 31.6268 103.784 31.6328 103.789 31.6449C103.908 31.9579 104.04 32.1403 104.041 32.1421C104.049 32.1525 104.047 32.1672 104.036 32.1747C104.032 32.1779 104.027 32.1793 104.023 32.1793Z" fill="white"/>
<path opacity="0.63" d="M109.281 42.9829C109.278 42.9829 109.274 42.9821 109.271 42.9804C109.084 42.8857 108.883 42.8378 108.672 42.8378C108.659 42.8378 108.649 42.8273 108.649 42.8144C108.649 42.8015 108.659 42.791 108.672 42.791C108.89 42.791 109.099 42.8407 109.292 42.9387C109.303 42.9445 109.308 42.9586 109.302 42.9701C109.298 42.9782 109.29 42.9829 109.281 42.9829Z" fill="white"/>
<path opacity="0.63" d="M107.919 45.3024C107.914 45.3024 107.91 45.3011 107.906 45.2984C107.527 45.0428 107.302 44.618 107.302 44.162C107.302 43.6565 107.578 43.1935 108.024 42.954C108.035 42.9478 108.05 42.9521 108.056 42.9635C108.062 42.9749 108.058 42.989 108.046 42.9951C107.616 43.2266 107.348 43.6736 107.348 44.162C107.348 44.6024 107.566 45.0129 107.932 45.2598C107.943 45.267 107.945 45.2815 107.938 45.2922C107.934 45.2988 107.926 45.3024 107.919 45.3024Z" fill="white"/>
<path d="M100.784 103.468C101.999 103.573 104.106 103.743 105.768 103.816C106.767 103.86 107.342 103.763 107.673 103.63C107.672 103.667 107.672 103.703 107.669 103.735C107.662 103.91 107.52 104.051 107.343 104.06C104.204 104.236 101.706 104.12 100.817 104.067C100.633 104.055 100.523 103.856 100.617 103.699C100.665 103.621 100.723 103.544 100.784 103.468Z" fill="url(#paint7_linear_445_4328)"/>
<path d="M105.767 103.815C104.106 103.742 101.997 103.571 100.784 103.467C101.978 102.001 105.767 101.015 105.767 101.015H106.838C107.574 102.076 107.681 103.086 107.673 103.629C107.342 103.762 106.767 103.859 105.767 103.815Z" fill="url(#paint8_linear_445_4328)"/>
<path d="M107.018 99.2676L106.918 101.25C106.907 101.464 106.747 101.645 106.532 101.675C106.317 101.706 106.031 101.709 105.727 101.608C105.54 101.546 105.402 101.388 105.368 101.197L105.022 99.2676H107.018Z" fill="url(#paint9_linear_445_4328)"/>
<path d="M120.92 103.8C121.446 103.726 121.684 103.453 121.785 103.16C121.787 103.162 121.787 103.166 121.788 103.168C121.865 103.477 121.686 103.796 121.326 103.948C120.892 104.132 120.418 104.164 120.049 104.148C119.653 104.132 119.291 103.968 119.092 103.707L119.088 103.703C119.485 103.9 120.042 103.922 120.92 103.8Z" fill="url(#paint10_linear_445_4328)"/>
<path d="M118.437 99.2541H119.32C120.665 99.2269 121.509 102.062 121.785 103.161C121.686 103.454 121.447 103.727 120.92 103.801C120.042 103.923 119.484 103.901 119.088 103.704C118.363 102.748 118.002 101.349 117.828 100.531C117.632 99.6011 118.437 99.2541 118.437 99.2541Z" fill="url(#paint11_linear_445_4328)"/>
<path d="M119.206 97.415L119.696 99.3646C119.756 99.6039 119.641 99.8512 119.42 99.9646C119.146 100.105 118.76 100.253 118.405 100.211C118.238 100.19 118.1 100.073 118.044 99.9158L117.325 97.8653L119.206 97.415Z" fill="url(#paint12_linear_445_4328)"/>
<path d="M119.792 97.9793C119.182 98.5203 117.198 98.5918 117.198 98.5918C110.053 81.4424 107.131 79.0063 107.131 79.0063C108.163 85.4788 107.297 99.8087 107.297 99.8087C106.118 100.329 104.598 99.8087 104.598 99.8087C104.503 89.2124 102.873 79.9703 100.949 72.6846C105.779 72.5757 108.346 70.9232 109.186 70.2598C113.211 76.7505 119.792 97.9793 119.792 97.9793Z" fill="url(#paint13_linear_445_4328)"/>
<path d="M107.958 50.5393C108.872 55.0986 108.545 63.2587 108.329 66.981C108.269 68.0267 108.999 69.4772 109.589 70.4673C109.682 70.6227 109.624 70.8212 109.464 70.904C108.477 71.4121 105.127 72.9863 101.248 73.1825C100.989 73.1961 100.758 73.0192 100.691 72.7685C97.8122 62.0214 94.4688 55.153 94.4688 55.153C98.1604 49.2589 107.958 50.5393 107.958 50.5393Z" fill="url(#paint14_linear_445_4328)"/>
<path d="M106.643 78.6014C106.684 78.6014 106.725 78.59 106.762 78.5673C106.87 78.5016 106.904 78.3609 106.838 78.2532C106.799 78.1897 105.875 76.696 104.005 75.7932C103.891 75.7388 103.754 75.7853 103.7 75.8998C103.645 76.0132 103.693 76.1505 103.806 76.2049C105.55 77.0464 106.439 78.4755 106.448 78.4902C106.491 78.5617 106.566 78.6014 106.643 78.6014Z" fill="url(#paint15_linear_445_4328)"/>
<path d="M113.692 63.6248C113.399 65.749 112.531 68.0649 110.796 70.526L110.136 69.9884C110.136 69.9884 110.897 66.899 110.465 63.3923C111.535 63.1836 112.8 63.3991 113.692 63.6248Z" fill="url(#paint16_linear_445_4328)"/>
<path d="M106.939 56.1644L107.959 50.5391C107.959 50.5391 114.781 55.7527 113.693 63.6248C112.8 63.3991 111.535 63.1836 110.465 63.3923C110.154 60.8666 109.222 58.1242 106.939 56.1644Z" fill="url(#paint17_linear_445_4328)"/>
<path d="M94.4687 55.1543L97.1022 60.825C96.6769 64.249 94.8373 65.729 92.8549 66.2961C92.7312 64.7355 92.3365 63.4755 91.9702 62.6033C94.5039 59.988 94.4687 55.1543 94.4687 55.1543Z" fill="url(#paint18_linear_445_4328)"/>
<path d="M91.97 62.6025C92.3363 63.4747 92.731 64.7347 92.8546 66.2953C87.5638 68.3481 86.1643 64.3673 86.1643 64.3673L87.1419 64.1949C89.349 64.4274 90.8914 63.7163 91.97 62.6025Z" fill="url(#paint19_linear_445_4328)"/>
<path d="M96.895 48.1518L98.1664 52.8245C98.3093 53.3496 98.8775 53.6308 99.3822 53.4289C99.9277 53.2112 100.618 52.914 101.214 52.5919C101.849 52.2483 102.049 51.4317 101.646 50.8318L99.0034 46.8906L96.895 48.1518Z" fill="url(#paint20_linear_445_4328)"/>
<path d="M83.7368 60.9395L116.245 72.918C117.609 73.42 118.26 74.9922 117.66 76.3295L117.562 76.5495C117.03 77.7322 115.649 78.2513 114.484 77.7058L82.9185 62.9219L83.7368 60.9395Z" fill="#B0BDEC"/>
<path d="M110.408 69.8942L107.329 69.6436L105.995 70.873C105.995 70.873 106.311 71.3096 107.297 71.059C108.284 70.8083 109.635 70.7471 109.635 70.7471C109.635 70.7471 110.997 71.3606 111.013 70.2118L110.408 69.8942Z" fill="url(#paint21_linear_445_4328)"/>
<path d="M86.5555 65.0955C86.2889 65.3031 85.3771 64.8687 84.818 64.5693C84.5458 64.423 84.4142 64.1043 84.5072 63.8106C84.641 63.3864 84.8656 62.8397 85.1412 62.7705C85.5994 62.656 87.6533 64.2381 86.5555 65.0955Z" fill="url(#paint22_linear_445_4328)"/>
<path d="M115.669 77.3681C115.682 77.3681 115.693 77.3658 115.706 77.3624C116.973 76.9246 117.267 76.1772 117.291 75.6272C117.326 74.823 116.821 74.0768 116.035 73.7706L112.124 72.2451C112.067 72.2225 112.004 72.2508 111.981 72.3075C111.96 72.3642 111.987 72.4277 112.044 72.4504L115.954 73.9758C116.653 74.248 117.102 74.9081 117.071 75.6181C117.041 76.319 116.558 76.8361 115.633 77.1548C115.575 77.1753 115.546 77.2376 115.565 77.2943C115.581 77.3386 115.623 77.3681 115.669 77.3681Z" fill="#91B3FA"/>
<path d="M110.878 71.9872C110.923 71.9872 110.964 71.9611 110.981 71.9168C111.003 71.86 110.975 71.7964 110.918 71.7737L110.411 71.5762C110.354 71.5535 110.29 71.5819 110.268 71.6386C110.245 71.6954 110.273 71.759 110.33 71.7817L110.838 71.9792C110.851 71.9849 110.865 71.9872 110.878 71.9872Z" fill="#91B3FA"/>
<path d="M96.6206 43.5645C96.6206 43.5645 95.5682 45.9813 95.4979 47.2504C95.4275 48.5195 95.1542 49.3418 96.6206 49.5981C98.0871 49.8533 99.3233 49.1229 99.9924 47.8594C99.9924 47.8594 101.042 45.9121 100.806 45.1148C100.571 44.3164 96.6206 43.5645 96.6206 43.5645Z" fill="url(#paint23_linear_445_4328)"/>
<path d="M95.1323 41.5478C95.2548 41.0136 95.4601 40.0836 96.1156 39.9724C96.533 39.901 96.9174 40.1494 97.2305 40.3909C97.387 40.5111 97.5367 40.6393 97.6864 40.7675C98.0085 41.0431 98.2705 41.313 98.6833 41.4332C99.0485 41.5398 99.3876 41.7247 99.7324 41.8801C100.445 42.2022 101.246 42.6172 101.665 43.3079C101.875 43.6539 101.901 44.0553 101.734 44.4285C101.764 44.4443 101.802 44.4444 101.836 44.4239C101.97 44.3423 102.183 44.3049 102.469 44.5442C102.966 44.9615 102.763 46.0458 101.673 46.9372C101.621 46.9792 101.622 47.0608 101.677 47.0971C101.875 47.2253 102.17 47.5315 101.406 47.9398C100.626 48.3571 100.164 48.3118 99.9898 48.2664C99.9433 48.2539 99.9116 48.212 99.9138 48.1632L99.9819 47.0529C99.9853 46.995 99.9399 46.9451 99.8821 46.9451H99.4863H99.3014C99.3014 46.9451 99.8855 45.7486 99.5838 45.2643C99.366 45.2031 99.137 45.1226 98.9532 45.0137C98.8852 44.974 98.7978 44.9468 98.7037 44.9252C98.5676 44.8946 98.419 44.8765 98.3068 44.8526C98.1502 44.8186 97.9937 44.7937 97.8361 44.7687C97.514 44.7177 97.2044 44.6326 96.8993 44.5192C96.195 44.2561 95.5122 43.807 95.1958 43.0947C94.9951 42.6331 95.0223 42.032 95.1323 41.5478Z" fill="url(#paint24_linear_445_4328)"/>
<path d="M99.4451 47.1829C99.4451 47.1829 99.8466 45.6393 100.538 46.0714C101.23 46.5047 100.179 47.801 99.6231 47.8589L99.4451 47.1829Z" fill="url(#paint25_linear_445_4328)"/>
<path d="M48.1532 85.9041C68.9676 85.9041 85.8411 68.9515 85.8411 48.0394C85.8411 27.1274 68.9676 10.1748 48.1532 10.1748C27.3388 10.1748 10.4653 27.1274 10.4653 48.0394C10.4653 68.9515 27.3388 85.9041 48.1532 85.9041Z" fill="#7D97F4" fill-opacity="0.5"/>
<path d="M72.339 72.6783C85.6562 59.2985 85.6562 37.6057 72.339 24.226C59.0218 10.8463 37.4302 10.8463 24.113 24.226C10.7958 37.6057 10.7958 59.2985 24.113 72.6783C37.4302 86.058 59.0218 86.058 72.339 72.6783Z" fill="white"/>
<path d="M44.0764 55.3046C44.4044 55.5587 51.0275 54.8458 49.3153 43.0938C49.3153 43.0938 52.4572 43.892 52.7947 43.8389C52.7947 43.8389 57.406 50.9057 54.048 54.4078C50.6919 57.908 45.69 58.1147 45.69 58.1147L44.0764 55.3046Z" fill="#407BFF"/>
<path opacity="0.3" d="M44.0764 55.3046C44.4044 55.5587 51.0275 54.8458 49.3153 43.0938C49.3153 43.0938 52.4572 43.892 52.7947 43.8389C52.7947 43.8389 57.406 50.9057 54.048 54.4078C50.6919 57.908 45.69 58.1147 45.69 58.1147L44.0764 55.3046Z" fill="black"/>
<path d="M51.4167 44.9114C51.4338 44.9152 49.5661 44.9474 48.9404 44.1681C48.3147 43.3888 47.8994 42.0047 49.0314 41.049C50.1634 40.0915 56.8471 36.0054 59.9947 35.6831C63.1422 35.3607 66.5078 37.3952 66.5078 37.3952L62.3895 40.4404L53.5195 42.5868L51.4167 44.9114Z" fill="#263238"/>
<path d="M70.8102 59.3228C71.252 54.9793 68.6296 51.1551 64.953 50.7811C61.2763 50.4071 57.9376 53.625 57.4958 57.9685C57.054 62.3119 59.6763 66.1362 63.353 66.5102C67.0297 66.8842 70.3684 63.6663 70.8102 59.3228Z" fill="#263238"/>
<path d="M44.2863 33.2151C43.9526 33.564 39.6617 32.6728 38.9127 33.071C38.5961 33.2398 38.4577 33.8352 38.141 34.4798V34.4817C37.7068 35.3634 36.9351 36.3304 34.91 36.3949C31.406 36.5068 31.8289 32.9516 31.552 31.795C31.552 31.795 28.2339 31.1901 28.0613 30.6099C27.885 30.0316 28.0992 29.9387 28.0992 29.9387C28.0992 29.9387 32.1948 30.6933 32.9874 29.6618C32.9874 29.6618 33.1429 29.4836 33.5164 29.3073C33.5183 29.3073 33.5183 29.3054 33.5202 29.3054C33.835 29.1575 34.3033 29.0134 34.9593 28.9792C36.4023 28.9053 38.1638 29.3111 38.6548 30.2231C39.656 32.0888 43.9488 31.6698 44.3488 32.1571C44.747 32.6482 44.62 32.8681 44.2863 33.2151Z" fill="#407BFF"/>
<path d="M33.4265 35.6426C33.4265 35.6426 27.67 43.6081 32.4102 55.8664" stroke="#263238" stroke-miterlimit="10" stroke-linecap="round" stroke-linejoin="round"/>
<path d="M41.0247 39.7816C41.0247 39.7816 41.0247 39.7967 41.0228 39.829C41.0228 39.8479 41.019 39.8764 41.0171 39.9086V39.9276C40.9564 40.6803 40.8142 41.4558 40.6341 42.2086C40.3705 43.314 40.0254 44.3663 39.7391 45.212C38.5256 48.8051 38.6659 52.6769 38.6659 52.6769C38.264 52.1783 37.5226 51.8199 36.6087 51.5696C33.2602 50.65 27.5756 51.1411 27.5756 51.1411C26.4607 47.2294 26.8608 41.1088 27.9681 37.6769C29.0755 34.2449 32.1547 35.0166 32.1547 35.0166C32.1547 35.0166 35.399 35.1114 35.8085 35.0678C36.6845 34.9768 37.4259 34.9996 38.0497 35.1115C40.5677 35.576 41.1707 37.5574 41.0247 39.7816Z" fill="#407BFF"/>
<path d="M66.0153 54.6988C60.3213 59.8335 49.3467 60.372 41.1821 59.8031L36.6049 51.5683L34.7505 48.2331L40.708 40.2031L41.0228 39.7803C41.0228 39.7803 41.0228 39.7973 41.019 39.8277C41.019 39.8466 41.0152 39.8751 41.0133 39.9073V39.9263C40.9318 41.3578 40.4047 52.8463 44.6083 55.6582C44.6197 55.6658 44.633 55.6753 44.6425 55.681C45.1961 56.0431 45.8294 56.2555 46.5575 56.2764C54.286 56.502 54.0699 46.409 52.1055 44.2589L65.5129 41.5645C65.5129 41.5664 68.1636 48.2293 66.0153 54.6988Z" fill="#407BFF"/>
<path d="M51.104 42.0742C51.104 42.0742 49.8469 43.117 50.4954 44.5145C51.1438 45.9119 57.3934 43.1967 59.8545 42.7018C62.3157 42.2069 65.175 41.7234 66.3885 41.4712C67.602 41.219 67.5091 37.7056 66.508 37.3946C65.5068 37.0818 55.6983 38.8186 54.0714 39.7685C52.4465 40.7223 51.104 42.0742 51.104 42.0742Z" fill="#263238"/>
<path d="M36.2296 32.7499C36.1557 34.0639 35.5849 35.137 34.8872 35.3968C34.8853 35.3968 34.8853 35.3968 34.8853 35.3968C34.7639 35.4423 34.6388 35.4632 34.5136 35.4556C33.6528 35.4063 33.0271 34.115 33.1143 32.5735C33.2015 31.0339 33.9714 29.8223 34.8322 29.8716C35.183 29.8924 35.492 30.1162 35.7328 30.4802C35.7347 30.4802 35.7347 30.4821 35.7347 30.4821C36.0817 31.0092 36.2808 31.834 36.2296 32.7499Z" fill="#F5F5F5"/>
<path d="M36.2294 32.7511C36.1554 34.0651 35.5847 35.1383 34.8869 35.3981C34.885 35.3981 34.885 35.3981 34.885 35.3981C34.0905 35.3526 33.5103 34.1599 33.5919 32.7378C33.6734 31.3139 34.3844 30.197 35.1789 30.2426C35.378 30.2539 35.5657 30.3393 35.7307 30.4815C35.7326 30.4815 35.7326 30.4834 35.7326 30.4834C36.0815 31.0105 36.2805 31.8353 36.2294 32.7511Z" fill="white"/>
<path d="M66.9621 51.3742C65.4964 50.3446 59.8233 49.334 59.8233 49.334C56.378 49.3264 53.3557 52.4322 52.9366 56.5506C52.5953 59.8991 54.0781 62.9385 56.4596 64.3265C56.4596 64.3265 56.6568 64.408 56.9924 64.5407C58.2533 65.0394 61.4577 66.2529 63.3538 66.5127" fill="#263238"/>
<path opacity="0.3" d="M70.8102 59.3228C71.252 54.9793 68.6296 51.1551 64.953 50.7811C61.2763 50.4071 57.9376 53.625 57.4958 57.9685C57.054 62.3119 59.6763 66.1362 63.353 66.5102C67.0297 66.8842 70.3684 63.6663 70.8102 59.3228Z" fill="black"/>
<path d="M41.3354 59.0728C41.7772 54.7293 39.1548 50.9051 35.4781 50.5311C31.8014 50.1571 28.4627 53.375 28.0209 57.7185C27.5791 62.0619 30.2015 65.8862 33.8782 66.2602C37.5548 66.6342 40.8935 63.4163 41.3354 59.0728Z" fill="#263238"/>
<path d="M38.768 51.9825L35.3739 66.2165C34.8866 66.2962 34.3861 66.3132 33.8779 66.262C33.8646 66.2601 33.8514 66.2601 33.84 66.2582C33.1896 66.0914 33.4797 66.2715 32.8275 66.0554C31.1684 65.5074 28.7584 64.5366 28.7584 64.5366C26.2063 63.2965 24.7633 60.2741 25.1141 56.8232C25.5388 52.6423 28.5385 49.5194 32.069 49.7754C32.069 49.7754 33.7471 50.0845 35.4706 50.5358C36.2196 50.7311 36.978 50.9529 37.6113 51.188C37.6132 51.188 37.6151 51.188 37.6151 51.1899C38.0247 51.4061 38.4096 51.6734 38.768 51.9825Z" fill="#263238"/>
<path opacity="0.3" d="M41.3331 59.0736C40.952 62.8184 38.4188 65.7232 35.3718 66.2143C34.8845 66.294 34.3839 66.311 33.8758 66.2598C33.8625 66.2579 33.8492 66.2579 33.8379 66.256C33.1287 66.1783 32.4594 65.9754 31.8469 65.6626C29.2853 64.3637 27.6641 61.2086 28.0187 57.7198C28.4605 53.3796 31.792 50.1657 35.4666 50.5336H35.4761C36.2383 50.6113 36.955 50.8369 37.6073 51.1858C37.6092 51.1858 37.6111 51.1858 37.6111 51.1877C38.0226 51.4058 38.4094 51.675 38.7677 51.9841C40.5766 53.554 41.627 56.201 41.3331 59.0736Z" fill="black"/>
<path d="M40.4111 54.0797C40.3391 53.9185 40.1457 53.7251 40.0395 53.5829C39.1938 52.4244 37.2541 51.994 35.9856 52.0945C35.0091 52.1741 34.0876 52.5382 33.2704 53.0691C32.3451 53.6683 31.6815 54.5841 30.7657 55.2174C29.025 56.4176 26.3838 56.3854 24.6356 55.1472C24.5351 55.0771 24.4422 55.0012 24.3549 54.9178C24.1672 54.7433 24.0686 54.4931 24.0136 54.2447C23.9416 53.9223 23.9776 53.6057 24.0838 53.3004C24.4611 52.2367 25.7277 51.2981 26.526 50.7274C28.1358 49.5784 30.0451 48.928 32.0152 48.7915C37.658 48.3971 40.0566 53.2113 40.4111 54.0797Z" fill="#407BFF"/>
<path opacity="0.3" d="M40.0205 54.2325C38.8089 52.4843 37.2541 51.9951 35.9856 52.0956C35.0091 52.1753 34.0876 52.5393 33.2704 53.0702C32.3451 53.6694 31.6815 54.5852 30.7657 55.2185C29.025 56.4187 26.3838 56.3865 24.6356 55.1484C24.5351 55.0782 24.4422 55.0024 24.3549 54.9189C24.1672 54.7445 24.0686 54.4942 24.0136 54.2458C23.9416 53.9235 23.9776 53.6068 24.0838 53.3016C24.6697 53.9785 26.3762 55.6091 28.6856 54.8127C31.5677 53.8173 32.2712 50.8594 35.3542 50.8859C37.8002 50.9049 39.3076 52.8143 40.0205 54.2325Z" fill="black"/>
<g opacity="0.3">
<path opacity="0.3" d="M27.3413 50.1996C28.149 49.6042 29.0933 49.2061 30.066 48.9501C31.0425 48.6998 32.0645 48.6183 33.0694 48.7036C33.5719 48.7548 34.0725 48.8325 34.5598 48.9634C35.0471 49.0904 35.5306 49.244 35.9913 49.4469L36.3364 49.5986L36.6739 49.7673C36.9015 49.8754 37.1157 50.0062 37.3357 50.1276C37.5518 50.2546 37.7585 50.3987 37.969 50.5333C38.1756 50.6755 38.3747 50.8272 38.5776 50.9751C37.7414 50.4252 36.8616 49.9455 35.9363 49.5834C35.0129 49.2174 34.0402 48.9747 33.0543 48.8932C32.0683 48.7946 31.069 48.8761 30.1001 49.0923C29.6166 49.2004 29.1388 49.3483 28.6781 49.5322C28.2154 49.7142 27.7641 49.9304 27.3413 50.1996Z" fill="black"/>
</g>
<g opacity="0.3">
<path opacity="0.3" d="M33.4896 48.8466C33.226 48.0635 33.1369 47.2368 33.0667 46.4177C33.0042 45.5966 32.9928 44.7718 33.008 43.947C33.0326 43.1241 33.0819 42.3012 33.1578 41.4821L33.2943 40.2553C33.355 39.8477 33.408 39.4419 33.4744 39.0361L33.3019 41.4935L33.2336 42.7222C33.2222 43.1317 33.1976 43.5413 33.1957 43.9508C33.1634 44.7699 33.1786 45.5891 33.209 46.4082C33.2222 46.8177 33.2545 47.2254 33.2943 47.6331C33.3398 48.0388 33.391 48.4465 33.4896 48.8466Z" fill="black"/>
</g>
<path opacity="0.3" d="M44.6112 55.6613C40.6521 53.113 40.4948 46.5449 40.6332 42.2104C40.6559 41.4652 40.6882 40.7883 40.7109 40.2062C40.7413 39.4136 40.7564 38.805 40.709 38.4561C40.2976 35.4735 38.0393 35.1152 38.0393 35.1152C38.0431 35.1152 38.045 35.1133 38.0469 35.1133C40.5668 35.5759 41.1698 37.5574 41.0238 39.7815C41.0238 39.7815 41.0238 39.7985 41.02 39.8289C41.02 39.8478 41.0162 39.8763 41.0143 39.9085V39.9275C40.9328 41.3609 40.4056 52.8494 44.6112 55.6613Z" fill="black"/>
<path opacity="0.2" d="M44.2856 33.2151C43.9519 33.564 39.661 32.6728 38.912 33.071C38.5954 33.2398 38.457 33.8352 38.1403 34.4798V34.4817C38.1384 34.4836 38.1384 34.4855 38.1365 34.4855C37.2416 35.9095 35.9845 36.1313 35.9067 36.1427C37.4084 35.0088 37.8275 32.2671 37.0823 30.5359C36.3409 28.82 33.6712 29.2542 33.5195 29.3054C33.8343 29.1575 34.3026 29.0134 34.9587 28.9792C36.4016 28.9053 38.1631 29.3111 38.6542 30.2231C39.6553 32.0888 43.9481 31.6698 44.3482 32.1571C44.7464 32.6482 44.6193 32.8681 44.2856 33.2151Z" fill="black"/>
<path d="M40.9285 31.5605C40.9285 31.5605 40.5284 32.1957 40.6308 33.1381L44.2656 33.5477C44.2656 33.5477 44.8439 32.975 44.7283 31.9663C44.7264 31.9644 41.1257 31.6023 40.9285 31.5605Z" fill="#263238"/>
<path d="M29.8898 31.4254C29.8898 31.4254 29.5276 30.6556 29.9618 30.1702C28.991 30.083 28.3899 29.9863 27.7642 29.8877C27.6732 30.1702 27.6258 30.4433 27.952 30.8718C28.2781 31.3022 29.8898 31.4254 29.8898 31.4254Z" fill="#263238"/>
<path opacity="0.2" d="M38.7344 58.5061C38.6643 60.8914 37.1038 62.7799 35.2437 62.7268C34.9896 62.7193 34.7431 62.6775 34.508 62.5998C33.0158 62.1258 31.9445 60.37 32.0033 58.3108C32.0621 56.3218 33.158 54.676 34.6009 54.2171C34.8873 54.1261 35.1868 54.0806 35.494 54.0901C37.356 54.1432 38.8046 56.1208 38.7344 58.5061Z" fill="#FAFAFA"/>
<path d="M37.0223 58.5001C36.9635 60.5346 35.8903 62.2089 34.508 62.5995C33.0158 62.1254 31.9445 60.3696 32.0033 58.3105C32.0621 56.3215 33.158 54.6757 34.6009 54.2168C36.0363 54.6036 37.0848 56.3897 37.0223 58.5001Z" fill="#263238"/>
<path opacity="0.2" d="M67.9532 58.6936C67.883 61.0789 66.3226 62.9674 64.4625 62.9143C64.2084 62.9068 63.9619 62.865 63.7268 62.7873C62.2346 62.3133 61.1633 60.5575 61.222 58.4983C61.2808 56.5093 62.3768 54.8635 63.8197 54.4046C64.106 54.3136 64.4056 54.2681 64.7128 54.2776C66.5728 54.3326 68.0215 56.3083 67.9532 58.6936Z" fill="#FAFAFA"/>
<path d="M66.241 58.6895C66.1822 60.7241 65.109 62.3983 63.7268 62.7889C62.2346 62.3149 61.1633 60.5591 61.222 58.4999C61.2808 56.5109 62.3768 54.8651 63.8197 54.4062C65.255 54.7931 66.3017 56.5792 66.241 58.6895Z" fill="#263238"/>
<path d="M70.8838 52.4029C70.9161 54.7484 67.3457 56.3013 61.3711 57.2797C59.4143 57.6002 57.7931 57.549 56.4962 57.3366C53.836 56.8986 52.5466 55.778 52.5466 55.778C52.5466 55.778 53.2216 47.6703 59.9016 46.6445C64.4466 45.9467 67.8766 47.7784 69.6135 49.7579C70.4307 50.687 70.8744 51.6521 70.8838 52.4029Z" fill="#407BFF"/>
<path opacity="0.3" d="M70.8854 52.4027C70.9177 54.7481 67.3473 56.301 61.3727 57.2794C59.4159 57.5999 57.7947 57.5487 56.4978 57.3363C56.7841 55.1349 58.0697 49.3613 63.6575 48.7621C66.1926 48.491 68.1493 49.001 69.6131 49.7576C70.4323 50.6867 70.8759 51.6518 70.8854 52.4027Z" fill="black"/>
<g opacity="0.3">
<path opacity="0.3" d="M52.9304 55.8135C53.0423 54.71 53.3248 53.6254 53.7154 52.5826C54.106 51.5397 54.6407 50.5481 55.3138 49.655C55.6532 49.2094 56.0381 48.7999 56.4553 48.4282C56.8705 48.0547 57.3218 47.7172 57.8129 47.4498C58.7799 46.8848 59.8796 46.5776 60.9794 46.4639C60.4352 46.57 59.891 46.6762 59.3772 46.8772C59.1136 46.9569 58.8652 47.0801 58.6111 47.1844C58.3684 47.3133 58.1182 47.4271 57.8868 47.5769C57.6479 47.7134 57.428 47.8784 57.2023 48.0319C56.9881 48.2026 56.7681 48.3676 56.5709 48.5572C56.1652 48.9269 55.7935 49.3327 55.4655 49.7707C54.7924 50.6372 54.2672 51.6156 53.8519 52.6357C53.6415 53.1457 53.4613 53.6672 53.3096 54.1981C53.1504 54.729 53.0233 55.2675 52.9304 55.8135Z" fill="black"/>
</g>
<defs>
<linearGradient id="paint0_linear_445_4328" x1="146.061" y1="133.783" x2="68.1569" y2="49.6959" gradientUnits="userSpaceOnUse">
<stop stop-color="#DAE3FE"/>
<stop offset="1" stop-color="#E9EFFD"/>
</linearGradient>
<linearGradient id="paint1_linear_445_4328" x1="155.184" y1="99.484" x2="148.106" y2="109.999" gradientUnits="userSpaceOnUse">
<stop stop-color="#4F52FF"/>
<stop offset="1" stop-color="#4042E2"/>
</linearGradient>
<linearGradient id="paint2_linear_445_4328" x1="110.682" y1="101.403" x2="126.535" y2="65.6984" gradientUnits="userSpaceOnUse">
<stop stop-color="#4F52FF"/>
<stop offset="1" stop-color="#4042E2"/>
</linearGradient>
<linearGradient id="paint3_linear_445_4328" x1="133.954" y1="12.293" x2="96.8321" y2="43.9339" gradientUnits="userSpaceOnUse">
<stop stop-color="#E1473D"/>
<stop offset="1" stop-color="#E9605A"/>
</linearGradient>
<linearGradient id="paint4_linear_445_4328" x1="139.368" y1="18.6454" x2="102.246" y2="50.2864" gradientUnits="userSpaceOnUse">
<stop stop-color="#E1473D"/>
<stop offset="1" stop-color="#E9605A"/>
</linearGradient>
<linearGradient id="paint5_linear_445_4328" x1="99.2995" y1="42.4118" x2="131.525" y2="8.28628" gradientUnits="userSpaceOnUse">
<stop stop-color="#FF928E"/>
<stop offset="1" stop-color="#FE7062"/>
</linearGradient>
<linearGradient id="paint6_linear_445_4328" x1="112.404" y1="40.0386" x2="105.097" y2="48.1121" gradientUnits="userSpaceOnUse">
<stop stop-color="#FF928E"/>
<stop offset="1" stop-color="#FE7062"/>
</linearGradient>
<linearGradient id="paint7_linear_445_4328" x1="107.673" y1="103.811" x2="100.584" y2="103.811" gradientUnits="userSpaceOnUse">
<stop stop-color="#4042E2"/>
<stop offset="1" stop-color="#4F52FF"/>
</linearGradient>
<linearGradient id="paint8_linear_445_4328" x1="107.673" y1="102.42" x2="100.784" y2="102.42" gradientUnits="userSpaceOnUse">
<stop stop-color="#09005D"/>
<stop offset="1" stop-color="#1A0F91"/>
</linearGradient>
<linearGradient id="paint9_linear_445_4328" x1="107.018" y1="100.481" x2="105.021" y2="100.481" gradientUnits="userSpaceOnUse">
<stop stop-color="#FF928E"/>
<stop offset="1" stop-color="#FEB3B1"/>
</linearGradient>
<linearGradient id="paint10_linear_445_4328" x1="121.805" y1="103.656" x2="119.088" y2="103.656" gradientUnits="userSpaceOnUse">
<stop stop-color="#4042E2"/>
<stop offset="1" stop-color="#4F52FF"/>
</linearGradient>
<linearGradient id="paint11_linear_445_4328" x1="121.785" y1="101.565" x2="117.798" y2="101.565" gradientUnits="userSpaceOnUse">
<stop stop-color="#09005D"/>
<stop offset="1" stop-color="#1A0F91"/>
</linearGradient>
<linearGradient id="paint12_linear_445_4328" x1="119.712" y1="98.816" x2="117.326" y2="98.816" gradientUnits="userSpaceOnUse">
<stop stop-color="#FF928E"/>
<stop offset="1" stop-color="#FEB3B1"/>
</linearGradient>
<linearGradient id="paint13_linear_445_4328" x1="118.392" y1="100.935" x2="83.7958" y2="53.1041" gradientUnits="userSpaceOnUse">
<stop stop-color="#FE7062"/>
<stop offset="1" stop-color="#FF928E"/>
</linearGradient>
<linearGradient id="paint14_linear_445_4328" x1="93.2301" y1="48.3989" x2="131.584" y2="94.3625" gradientUnits="userSpaceOnUse">
<stop stop-color="#4042E2"/>
<stop offset="1" stop-color="#4F52FF"/>
</linearGradient>
<linearGradient id="paint15_linear_445_4328" x1="111.671" y1="89.98" x2="110.528" y2="87.693" gradientUnits="userSpaceOnUse">
<stop stop-color="#E1473D"/>
<stop offset="1" stop-color="#E9605A"/>
</linearGradient>
<linearGradient id="paint16_linear_445_4328" x1="108.781" y1="64.031" x2="117.276" y2="71.5537" gradientUnits="userSpaceOnUse">
<stop stop-color="#FF928E"/>
<stop offset="1" stop-color="#FEB3B1"/>
</linearGradient>
<linearGradient id="paint17_linear_445_4328" x1="98.5504" y1="43.9602" x2="136.904" y2="89.9238" gradientUnits="userSpaceOnUse">
<stop stop-color="#4042E2"/>
<stop offset="1" stop-color="#4F52FF"/>
</linearGradient>
<linearGradient id="paint18_linear_445_4328" x1="87.4214" y1="53.2471" x2="125.775" y2="99.2107" gradientUnits="userSpaceOnUse">
<stop stop-color="#4042E2"/>
<stop offset="1" stop-color="#4F52FF"/>
</linearGradient>
<linearGradient id="paint19_linear_445_4328" x1="92.8539" y1="64.7433" x2="86.1635" y2="64.7433" gradientUnits="userSpaceOnUse">
<stop stop-color="#FF928E"/>
<stop offset="1" stop-color="#FEB3B1"/>
</linearGradient>
<linearGradient id="paint20_linear_445_4328" x1="98.4281" y1="45.3005" x2="100.848" y2="56.7175" gradientUnits="userSpaceOnUse">
<stop stop-color="#FF928E"/>
<stop offset="1" stop-color="#FEB3B1"/>
</linearGradient>
<linearGradient id="paint21_linear_445_4328" x1="105.425" y1="67.8194" x2="113.92" y2="75.3422" gradientUnits="userSpaceOnUse">
<stop stop-color="#FF928E"/>
<stop offset="1" stop-color="#FEB3B1"/>
</linearGradient>
<linearGradient id="paint22_linear_445_4328" x1="86.8742" y1="63.9577" x2="84.4783" y2="63.9577" gradientUnits="userSpaceOnUse">
<stop stop-color="#FF928E"/>
<stop offset="1" stop-color="#FEB3B1"/>
</linearGradient>
<linearGradient id="paint23_linear_445_4328" x1="-39.1073" y1="-220.172" x2="-34.8732" y2="-211.931" gradientUnits="userSpaceOnUse">
<stop stop-color="#FF928E"/>
<stop offset="1" stop-color="#FEB3B1"/>
</linearGradient>
<linearGradient id="paint24_linear_445_4328" x1="100.557" y1="41.5919" x2="94.7745" y2="49.0364" gradientUnits="userSpaceOnUse">
<stop stop-color="#09005D"/>
<stop offset="0.3414" stop-color="#0F056F"/>
<stop offset="1" stop-color="#1A0F91"/>
</linearGradient>
<linearGradient id="paint25_linear_445_4328" x1="-37.5378" y1="-220.977" x2="-33.3037" y2="-212.736" gradientUnits="userSpaceOnUse">
<stop stop-color="#FF928E"/>
<stop offset="1" stop-color="#FEB3B1"/>
</linearGradient>
</defs>
</svg>
