<svg width="24" height="24" viewBox="0 0 24 24" fill="none" xmlns="http://www.w3.org/2000/svg">
<path d="M5 16.5H7V23H5V16.5Z" fill="black"/>
<path d="M9 11.8574H11V23.0003H9V11.8574Z" fill="black"/>
<path d="M13 15.1992H15V22.9992H13V15.1992Z" fill="black"/>
<path d="M17 10H19V23H17V10Z" fill="black"/>
<path d="M21.6409 1.90918H19.8458V2.58409H20.7742L17.3326 5.81901L14.3554 3.0204C14.2151 2.88873 13.9878 2.88873 13.8476 3.0204L9.79326 6.83138L7.53403 4.70783C7.39378 4.57616 7.16651 4.57601 7.02627 4.70768L2 9.43207L2.50759 9.90918L7.28029 5.42351L9.53953 7.54706C9.67977 7.67873 9.90704 7.67888 10.0473 7.54721L14.1016 3.73623L17.0789 6.53469C17.2191 6.66636 17.4464 6.66651 17.5866 6.53484L21.282 3.06131V3.93403H22V2.24675C22 2.15726 21.9622 2.07139 21.8949 2.00812C21.8275 1.94485 21.7361 1.90918 21.6409 1.90918Z" fill="black"/>
<path d="M8.33359 9.00018C10.5929 9.00018 12.4245 7.16861 12.4245 4.90927C12.4245 2.64992 10.5929 0.818359 8.33359 0.818359C6.07424 0.818359 4.24268 2.64992 4.24268 4.90927C4.24268 7.16861 6.07424 9.00018 8.33359 9.00018Z" fill="black"/>
<path d="M7.20117 5.69664C7.20117 6.13983 7.54587 6.48452 7.98905 6.48452H8.82617C9.17087 6.48452 9.51557 6.18907 9.51557 5.79513C9.51557 5.35195 9.3186 5.20422 9.07238 5.10573L7.6936 4.61331C7.3489 4.56407 7.20117 4.41634 7.20117 4.0224C7.20117 3.62846 7.49663 3.33301 7.89057 3.33301H8.77693C9.22011 3.33301 9.56481 3.6777 9.56481 4.12089" stroke="white" stroke-width="0.5" stroke-linecap="round" stroke-linejoin="round"/>
<path d="M8.33354 2.84082V6.97718" stroke="white" stroke-width="0.5" stroke-linecap="round" stroke-linejoin="round"/>
</svg>
