<svg width="130" height="126" viewBox="0 0 130 126" fill="none" xmlns="http://www.w3.org/2000/svg">
<circle opacity="0.1" cx="58" cy="58" r="58" fill="#BBECD0"/>
<g clip-path="url(#clip0_3616_51346)">
<path d="M104.5 75C99.4566 75 94.5264 76.4955 90.333 79.2975C86.1395 82.0995 82.8711 86.0821 80.9411 90.7416C79.011 95.4011 78.5061 100.528 79.49 105.475C80.4739 110.421 82.9025 114.965 86.4688 118.531C90.035 122.097 94.5787 124.526 99.5252 125.51C104.472 126.494 109.599 125.989 114.258 124.059C118.918 122.129 122.901 118.86 125.702 114.667C128.504 110.474 130 105.543 130 100.5C129.991 93.7397 127.302 87.2589 122.521 82.4787C117.741 77.6984 111.26 75.009 104.5 75ZM118.748 93.4981L102.811 109.436C102.615 109.634 102.382 109.792 102.125 109.899C101.867 110.007 101.591 110.062 101.313 110.062C101.034 110.062 100.758 110.007 100.501 109.899C100.243 109.792 100.01 109.634 99.8144 109.436L92.3769 101.998C91.9796 101.601 91.7563 101.062 91.7563 100.5C91.7563 99.9381 91.9796 99.3992 92.3769 99.0019C92.7742 98.6045 93.3131 98.3813 93.875 98.3813C94.4369 98.3813 94.9758 98.6045 95.3731 99.0019L101.313 104.931L115.752 90.5019C116.149 90.1045 116.688 89.8813 117.25 89.8813C117.812 89.8813 118.351 90.1045 118.748 90.5019C119.145 90.8992 119.369 91.4381 119.369 92C119.369 92.5619 119.145 93.1008 118.748 93.4981Z" fill="url(#paint0_linear_3616_51346)"/>
<path d="M118.748 93.4996L102.81 109.437C102.614 109.636 102.381 109.793 102.124 109.901C101.867 110.009 101.591 110.064 101.312 110.064C101.033 110.064 100.757 110.009 100.5 109.901C100.243 109.793 100.01 109.636 99.8139 109.437L92.3764 102C91.9791 101.602 91.7559 101.063 91.7559 100.501C91.7559 99.9396 91.9791 99.4007 92.3764 99.0034C92.7737 98.606 93.3126 98.3828 93.8745 98.3828C94.4364 98.3828 94.9753 98.606 95.3727 99.0034L101.312 104.932L115.751 90.5034C116.149 90.106 116.688 89.8828 117.25 89.8828C117.811 89.8828 118.35 90.106 118.748 90.5034C119.145 90.9007 119.368 91.4396 119.368 92.0015C119.368 92.5634 119.145 93.1023 118.748 93.4996Z" fill="white"/>
</g>
<circle opacity="0.23" cx="66" cy="58" r="50" fill="#BBECD0"/>
<path d="M113.308 42.5715L67.5227 88.3567C67.0792 88.8002 66.3601 88.8002 65.9166 88.3567L40.2838 62.7239C39.8403 62.2804 39.8403 61.5613 40.2838 61.1178L86.0687 15.3326C86.5123 14.8891 87.2313 14.8891 87.6749 15.3326L113.308 40.9654C113.751 41.4089 113.751 42.128 113.308 42.5715Z" fill="#0ABD57"/>
<path d="M50.1237 64.9023C51.1226 63.0541 51.1226 60.8052 50.1237 58.9568C49.9896 58.7087 50.0283 58.4033 50.2278 58.2038L83.1472 25.2844C83.3467 25.085 83.652 25.0462 83.9001 25.1805C85.748 26.1795 87.9971 26.1795 89.8457 25.1803C90.0938 25.0462 90.3992 25.085 90.5986 25.2842L103.366 38.0513C103.565 38.2508 103.604 38.5561 103.47 38.8042C102.47 40.6527 102.47 42.9014 103.47 44.7498C103.604 44.9979 103.565 45.3033 103.366 45.5028L70.4461 78.4223C70.2466 78.6218 69.9413 78.6605 69.6932 78.5265C67.8447 77.5275 65.5958 77.5275 63.7478 78.5265C63.4997 78.6605 63.1943 78.6218 62.9948 78.4223L50.2278 65.6553C50.0283 65.4558 49.9896 65.1503 50.1237 64.9023Z" fill="#BBECD0"/>
<path d="M83.3973 58.4462C87.0438 54.7998 87.0438 48.8877 83.3973 45.2413C79.7509 41.5948 73.8388 41.5948 70.1923 45.2413C66.5459 48.8877 66.5459 54.7998 70.1923 58.4462C73.8388 62.0927 79.7509 62.0927 83.3973 58.4462Z" fill="#0ABD57"/>
<path d="M65.7208 74.0244L79.8085 59.9367C81.4319 58.3133 82.1222 56.3714 80.4988 54.748C77.94 51.5706 68.5997 54.1186 64.169 58.5493C62.0209 60.6974 59.5812 63.1375 58.2367 64.483C57.5787 65.1412 56.687 65.5109 55.7449 65.5109H55.6964C54.1421 65.5109 52.3215 64.0058 51.9206 62.504L51.9196 49.4865L54.2442 47.1619L56.7983 44.6078L66.9422 34.4639C62.769 33.9962 58.6191 33.7433 57.0093 33.5504C55.2196 33.3359 53.6931 34.1379 52.3042 35.2869L39.318 45.532C37.4853 47.0482 36.1641 49.0912 35.5312 51.3841C34.1135 56.5195 31.1272 65.6034 29.2319 69.2157L19.7637 78.684L36.1557 95.076L40.7147 90.5171C41.5716 89.6602 42.631 89.0339 43.7948 88.6965L53.3161 85.4905C56.3071 84.4643 58.9402 82.5999 60.9017 80.1194L65.7208 74.0244Z" fill="#FCD7C3"/>
<path d="M33.4996 100.314L14.5273 81.3419C13.8242 80.6387 13.8242 79.4989 14.5273 78.7958L17.8661 75.457C18.5692 74.7539 19.7091 74.7539 20.4122 75.457L39.3846 94.4294C40.0877 95.1326 40.0877 96.2724 39.3846 96.9755L36.0459 100.314C35.3427 101.017 34.2027 101.017 33.4996 100.314Z" fill="#407093"/>
<path d="M79.2545 59.4882C77.3849 57.6185 74.3534 57.6185 72.4838 59.4882L70.3567 61.6153C69.3941 62.5778 69.3941 64.1382 70.3567 65.1007L72.497 67.2411L79.7521 59.986L79.2545 59.4882Z" fill="#EFEFEF"/>
<defs>
<linearGradient id="paint0_linear_3616_51346" x1="130.5" y1="99" x2="50" y2="99" gradientUnits="userSpaceOnUse">
<stop stop-color="#4CD964"/>
<stop offset="1" stop-color="white"/>
</linearGradient>
<clipPath id="clip0_3616_51346">
<rect width="68" height="68" fill="white" transform="translate(62 58)"/>
</clipPath>
</defs>
</svg>
