<svg width="16" height="21" viewBox="0 0 16 21" fill="none" xmlns="http://www.w3.org/2000/svg">
<rect width="16" height="21" rx="3" fill="#064DD6"/>
<path fill-rule="evenodd" clip-rule="evenodd" d="M7.6118 19.2271C9.60074 19.2271 11.2236 17.6043 11.2236 15.613C11.2236 13.6228 9.60074 12 7.6118 12C5.62286 12 4 13.6228 4 15.613C4.00004 17.6043 5.6229 19.2271 7.6118 19.2271Z" fill="white"/>
<path fill-rule="evenodd" clip-rule="evenodd" d="M8.8741 14.8803H9.48864C9.55631 14.8803 9.61176 14.9358 9.61176 15.0035V16.2189C9.61176 16.2867 9.55631 16.3421 9.48864 16.3421H8.8741H8.70993C8.61452 16.3421 8.53577 16.4199 8.53577 16.5153V16.6807V17.2956C8.53577 17.3633 8.48032 17.4177 8.41376 17.4177H7.19801C7.13033 17.4177 7.07599 17.3633 7.07599 17.2956V16.6807V16.5153C7.07599 16.4198 6.99725 16.3421 6.90183 16.3421H6.73655H6.12312C6.05545 16.3421 6 16.2866 6 16.2189V15.0035C6 14.9357 6.05545 14.8803 6.12312 14.8803H6.73655H6.90183C6.99721 14.8803 7.07599 14.8025 7.07599 14.7071V14.5417V13.9268C7.07599 13.8591 7.13033 13.8047 7.19801 13.8047H8.41376C8.48032 13.8047 8.53577 13.8591 8.53577 13.9268V14.5417V14.7071C8.53577 14.8025 8.61452 14.8803 8.70993 14.8803H8.8741V14.8803Z" fill="#064DD6"/>
<rect x="4" y="3" width="8" height="2" rx="1" fill="white"/>
<rect x="4" y="7" width="6" height="2" rx="1" fill="white"/>
</svg>
