<svg width="122" height="122" viewBox="0 0 122 122" fill="none" xmlns="http://www.w3.org/2000/svg">
<circle opacity="0.05" cx="61" cy="61" r="57" fill="#064DD6"/>
<path d="M73.9507 48.2344L68.6889 46.187L71.9344 43.1953C76.2181 38.3576 78.6367 32.0084 78.6367 25.5586C78.6367 24.1475 77.5283 23.0391 76.1172 23.0391C75.7641 23.0391 74.7565 21.9303 74.2023 21.3256C72.8416 19.8645 71.1791 18 68.5586 18C65.9381 18 64.2756 19.8645 62.9148 21.3256C62.3607 21.9303 61.3531 23.0391 61 23.0391C60.6469 23.0391 59.6393 21.9303 59.0852 21.3256C57.7244 19.8645 56.0619 18 53.4414 18C50.8715 18 49.2586 19.7635 47.6969 21.477C47.1426 22.0312 46.2359 23.0391 45.8828 23.0391C44.4717 23.0391 43.3633 24.1475 43.3633 25.5586C43.3633 32.0084 45.7819 38.3576 50.0656 43.1953L58.35 46.187L48.0493 48.2344C40.2391 54.4323 28.2461 66.61 28.2461 81.3242C28.2461 101.631 46.9408 104 61 104C75.0592 104 93.7539 101.631 93.7539 81.3242C93.7539 66.61 81.7609 54.4323 73.9507 48.2344Z" fill="url(#paint0_linear_1551_31956)"/>
<path d="M81.1562 38.1562C79.7451 38.1562 78.6367 39.2647 78.6367 40.6758C78.6367 42.0866 77.5283 43.1953 76.1172 43.1953H71.9344H50.0656C50.5903 43.8702 50.846 44.1044 51.9797 45.3117C50.9219 46.0676 49.5612 47.025 48.0493 48.2344H73.9507H76.1172C80.2999 48.2344 83.6758 44.858 83.6758 40.6758C83.6758 39.2647 82.5674 38.1562 81.1562 38.1562ZM62.7635 59.4045C61.8061 58.3967 60.1938 58.3967 59.2363 59.4045L44.1191 74.5217C43.1113 75.4791 43.1113 77.0914 44.1191 78.0488C45.0258 79.057 46.74 79.0566 47.6463 78.0488L48.4023 77.3437V86.3633C48.4023 87.7744 49.5108 88.8828 50.9219 88.8828H58.4805V81.3242C58.4805 79.9131 59.5889 78.8047 61 78.8047C62.4111 78.8047 63.5195 79.9131 63.5195 81.3242V88.8828H71.0781C72.4892 88.8828 73.5977 87.7744 73.5977 86.3633V77.3435L74.3537 78.0487C75.2604 79.0568 76.9745 79.0565 77.8809 78.0487C78.8887 77.0912 78.8887 75.4789 77.8809 74.5215L62.7635 59.4045Z" fill="#FF6C0E"/>
<g clip-path="url(#clip0_1551_31956)">
<path d="M94 82C84.0592 82 76 90.0564 76 100C76 109.944 84.0592 118 94 118C103.941 118 112 109.939 112 100C112 90.0613 103.941 82 94 82Z" fill="#2AD352"/>
<path d="M75.9999 99.9999C75.9958 102.975 76.7326 105.905 78.1437 108.524C79.9415 109.052 81.8057 109.319 83.6794 109.318C94.5005 109.318 103.273 100.546 103.273 89.7245C103.274 87.8211 102.999 85.9276 102.454 84.1037C99.8521 82.7176 96.9482 81.995 93.9999 81.9999C84.0591 81.9999 75.9999 90.0563 75.9999 99.9999Z" fill="#74DA7F"/>
<path d="M104.266 97.0173L93.4466 108.379C93.1517 108.688 92.7975 108.935 92.4051 109.104C92.0126 109.273 91.5901 109.362 91.1628 109.364H91.1487C90.7238 109.364 90.3032 109.278 89.9118 109.113C89.5205 108.947 89.1664 108.705 88.8706 108.4L83.1296 102.486C82.833 102.188 82.5984 101.835 82.4396 101.446C82.2808 101.057 82.2008 100.64 82.2043 100.219C82.2079 99.7992 82.2949 99.3838 82.4602 98.9974C82.6256 98.611 82.8661 98.2613 83.1677 97.9686C83.4693 97.6759 83.826 97.446 84.2172 97.2922C84.6084 97.1385 85.0262 97.064 85.4464 97.073C85.8666 97.0821 86.2808 97.1745 86.665 97.3449C87.0492 97.5153 87.3957 97.7603 87.6845 98.0657L91.1262 101.611L99.6685 92.6404C99.9547 92.3336 100.299 92.0865 100.681 91.9135C101.063 91.7405 101.476 91.645 101.895 91.6326C102.315 91.6201 102.733 91.691 103.124 91.841C103.516 91.991 103.874 92.2171 104.178 92.5065C104.482 92.7958 104.726 93.1425 104.895 93.5265C105.064 93.9105 105.155 94.3242 105.163 94.7437C105.171 95.1632 105.096 95.5801 104.942 95.9704C104.788 96.3606 104.558 96.7165 104.266 97.0173Z" fill="white"/>
</g>
<defs>
<linearGradient id="paint0_linear_1551_31956" x1="61" y1="129.145" x2="61.0001" y2="22.5596" gradientUnits="userSpaceOnUse">
<stop stop-color="#0A3ECA"/>
<stop offset="0.961522" stop-color="#4B7CFF"/>
</linearGradient>
<clipPath id="clip0_1551_31956">
<rect width="36" height="36" fill="white" transform="translate(76 82)"/>
</clipPath>
</defs>
</svg>
