<svg width="20" height="20" viewBox="0 0 20 20" fill="none" xmlns="http://www.w3.org/2000/svg">
<path d="M5.3791 18.1297L5.61086 17.4164L5.3791 18.1297ZM2.70393 15.4546L3.41722 15.2228L2.70393 15.4546ZM17.2961 15.4546L16.5828 15.2228L17.2961 15.4546ZM14.6209 18.1297L14.3891 17.4164L14.6209 18.1297ZM14.6209 6.87092L14.3891 7.58422L14.6209 6.87092ZM17.2961 9.54609L16.5828 9.77785L17.2961 9.54609ZM5.3791 6.87092L5.61086 7.58422L5.3791 6.87092ZM2.70393 9.54609L3.41722 9.77785L2.70393 9.54609ZM9.25 15.8337C9.25 16.2479 9.58579 16.5837 10 16.5837C10.4142 16.5837 10.75 16.2479 10.75 15.8337H9.25ZM8.33333 7.41699H11.6667V5.91699H8.33333V7.41699ZM11.6667 17.5837H8.33333V19.0837H11.6667V17.5837ZM8.33333 17.5837C6.72389 17.5837 6.09704 17.5744 5.61086 17.4164L5.14733 18.843C5.91642 19.0929 6.84064 19.0837 8.33333 19.0837V17.5837ZM1.75 12.5003C1.75 13.993 1.74075 14.9172 1.99064 15.6863L3.41722 15.2228C3.25925 14.7366 3.25 14.1098 3.25 12.5003H1.75ZM5.61086 17.4164C4.5707 17.0785 3.75519 16.263 3.41722 15.2228L1.99064 15.6863C2.47698 17.1831 3.65051 18.3567 5.14733 18.843L5.61086 17.4164ZM16.75 12.5003C16.75 14.1098 16.7407 14.7366 16.5828 15.2228L18.0094 15.6863C18.2593 14.9172 18.25 13.993 18.25 12.5003H16.75ZM11.6667 19.0837C13.1594 19.0837 14.0836 19.0929 14.8527 18.843L14.3891 17.4164C13.903 17.5744 13.2761 17.5837 11.6667 17.5837V19.0837ZM16.5828 15.2228C16.2448 16.263 15.4293 17.0785 14.3891 17.4164L14.8527 18.843C16.3495 18.3567 17.523 17.1831 18.0094 15.6863L16.5828 15.2228ZM18.25 12.5003C18.25 11.0076 18.2593 10.0834 18.0094 9.31433L16.5828 9.77785C16.7407 10.264 16.75 10.8909 16.75 12.5003H18.25ZM14.3891 7.58422C15.4293 7.92219 16.2448 8.73769 16.5828 9.77785L18.0094 9.31433C17.523 7.81751 16.3495 6.64398 14.8527 6.15763L14.3891 7.58422ZM3.25 12.5003C3.25 10.8909 3.25925 10.264 3.41722 9.77785L1.99064 9.31433C1.74075 10.0834 1.75 11.0076 1.75 12.5003H3.25ZM5.14733 6.15763C3.65051 6.64398 2.47699 7.81751 1.99064 9.31433L3.41722 9.77785C3.75519 8.73769 4.5707 7.92219 5.61086 7.58422L5.14733 6.15763ZM13.4167 5.83366V6.66699H14.9167V5.83366H13.4167ZM6.58333 6.66699V5.83366H5.08333V6.66699H6.58333ZM10 2.41699C11.887 2.41699 13.4167 3.94669 13.4167 5.83366H14.9167C14.9167 3.11826 12.7154 0.916992 10 0.916992V2.41699ZM10 0.916992C7.2846 0.916992 5.08333 3.11826 5.08333 5.83366H6.58333C6.58333 3.94669 8.11303 2.41699 10 2.41699V0.916992ZM9.25 12.5003V15.8337H10.75V12.5003H9.25ZM7.58333 10.8337C7.58333 12.1683 8.66531 13.2503 10 13.2503V11.7503C9.49374 11.7503 9.08333 11.3399 9.08333 10.8337H7.58333ZM10 13.2503C11.3347 13.2503 12.4167 12.1683 12.4167 10.8337H10.9167C10.9167 11.3399 10.5063 11.7503 10 11.7503V13.2503ZM12.4167 10.8337C12.4167 9.49897 11.3347 8.41699 10 8.41699V9.91699C10.5063 9.91699 10.9167 10.3274 10.9167 10.8337H12.4167ZM10 8.41699C8.66531 8.41699 7.58333 9.49897 7.58333 10.8337H9.08333C9.08333 10.3274 9.49374 9.91699 10 9.91699V8.41699ZM8.33333 5.91699C7.16214 5.91699 6.34863 5.91438 5.70874 6.02218L5.95793 7.50133C6.44303 7.41961 7.10176 7.41699 8.33333 7.41699V5.91699ZM5.70874 6.02218C5.51379 6.05502 5.32846 6.09878 5.14733 6.15763L5.61086 7.58422C5.71273 7.55112 5.82543 7.52366 5.95793 7.50133L5.70874 6.02218ZM5.08333 6.66699V6.76176H6.58333V6.66699H5.08333ZM11.6667 7.41699C12.8982 7.41699 13.557 7.41961 14.0421 7.50133L14.2913 6.02218C13.6514 5.91438 12.8379 5.91699 11.6667 5.91699V7.41699ZM14.0421 7.50133C14.1746 7.52366 14.2873 7.55112 14.3891 7.58422L14.8527 6.15763C14.6715 6.09878 14.4862 6.05502 14.2913 6.02218L14.0421 7.50133ZM13.4167 6.66699V6.76176H14.9167V6.66699H13.4167Z" fill="white"/>
</svg>
