<svg width="18" height="24" viewBox="0 0 18 24" fill="none" xmlns="http://www.w3.org/2000/svg">
<path d="M9 7.01202C8.27661 7.01202 7.59677 7.32487 7.08387 7.89662C6.83183 8.17677 6.63197 8.50971 6.49578 8.87628C6.35959 9.24285 6.28977 9.63582 6.29032 10.0326C6.29032 10.839 6.57339 11.5968 7.08387 12.1686C7.33519 12.4495 7.63386 12.6723 7.9627 12.8241C8.29155 12.9759 8.64407 13.0538 9 13.0532C9.72339 13.0532 10.4032 12.7376 10.9161 12.1686C11.429 11.5968 11.7097 10.839 11.7097 10.0326C11.7097 9.2262 11.429 8.46837 10.9161 7.89662C10.4032 7.32487 9.72339 7.01202 9 7.01202ZM17.2887 5.98989C16.8332 4.81909 16.1765 3.75904 15.3556 2.86954C14.5321 1.972 13.5612 1.25962 12.496 0.771322C11.3879 0.258905 10.2121 0 9 0C7.7879 0 6.6121 0.258905 5.50403 0.768626C4.43226 1.26216 3.47177 1.96876 2.64435 2.86684C1.82401 3.75684 1.16738 4.81677 0.71129 5.98719C0.239516 7.20081 0 8.48994 0 9.81683C0 11.7209 0.408871 13.6168 1.2121 15.4453C1.85806 16.9152 2.76048 18.3472 3.89758 19.7092C5.84032 22.0339 7.87742 23.4552 8.45564 23.8355C8.61977 23.9435 8.80696 24.0004 8.99758 24C9.18629 24 9.37258 23.9461 9.53952 23.8355C10.1177 23.4552 12.1548 22.0339 14.0976 19.7092C15.2347 18.3499 16.1371 16.9152 16.7831 15.4453C17.5911 13.6195 18 11.7263 18 9.81953C18 8.49264 17.7605 7.20351 17.2887 5.98989ZM9 14.7792C6.64839 14.7792 4.74194 12.654 4.74194 10.0326C4.74194 7.41117 6.64839 5.28599 9 5.28599C11.3516 5.28599 13.2581 7.41117 13.2581 10.0326C13.2581 12.654 11.3516 14.7792 9 14.7792Z" fill="#FF6C0E"/>
</svg>
