<svg width="177" height="170" viewBox="0 0 177 170" fill="none" xmlns="http://www.w3.org/2000/svg">
<path d="M88 170C129.421 170 163 136.421 163 95C163 53.5786 129.421 20 88 20C46.5786 20 13 53.5786 13 95C13 136.421 46.5786 170 88 170Z" fill="url(#paint0_linear_1929_33738)"/>
<path d="M82.1343 76.5699L40.7629 106.99L51.794 81.1095L93 55L82.1343 76.5699Z" fill="#DEEAFD"/>
<path d="M51.1058 81.6436L93.226 55.2756V127.188L54.6158 154.258L51.1058 81.6436Z" fill="white"/>
<path d="M93.226 55.2756L157.81 70.3852V142.324L93.226 127.214V55.2756Z" fill="#F8FAFF"/>
<path d="M51.1058 81.6401L117.094 97.0615V169L54.6158 154.653L51.1058 81.6401Z" fill="#D8DFE6"/>
<path d="M115.69 97.0876L157.81 70.7197V142.632L115.69 169V97.0876Z" fill="#F8FBFF"/>
<mask id="mask0_1929_33738" style="mask-type:alpha" maskUnits="userSpaceOnUse" x="115" y="70" width="43" height="100">
<path d="M115.69 97.0876L157.81 70.7197V142.632L115.69 169V97.0876Z" fill="white"/>
</mask>
<g mask="url(#mask0_1929_33738)">
<rect x="131.335" y="64.7273" width="13.2378" height="110.266" fill="#E2ECFB"/>
</g>
<path d="M134.63 118.456L176.062 92.1526L157.122 70.7197L115.69 97.023L134.63 118.456Z" fill="#D8DFE6"/>
<path d="M17.0166 101.702L39.4864 103.473L34.4966 152.35C34.4966 152.35 34.0596 152.838 32.9995 152.649C31.9394 152.459 30.8272 151.869 30.8272 151.869L27.4854 113.014C27.4854 113.014 25.5526 126.753 25.6876 130.618C25.7893 133.531 26.785 137.083 27.318 140.122C27.7766 142.737 28.7416 148.988 28.7416 148.988C28.7416 148.988 27.6014 149.509 26.9949 149.626C26.3885 149.744 25.611 149.097 25.611 149.097C25.611 149.097 17.7328 133.804 17.6314 130.9C17.53 127.995 17.0166 101.702 17.0166 101.702Z" fill="url(#paint1_linear_1929_33738)"/>
<path d="M25.2608 149.025C25.2608 149.025 24.26 150.828 23.0168 151.926C21.7735 153.025 19.3202 154.337 18.7609 154.933C18.2016 155.529 18.8124 156.407 18.8124 156.407L24.8252 156.197L29.6298 152.133L28.9585 148.259L25.2608 149.025Z" fill="#677285"/>
<path d="M35.0621 151.112L36.4659 155.005C36.4659 155.005 34.1607 156.791 30.9757 157.288C27.7907 157.784 25.5961 157.021 25.5961 157.021C25.5961 157.021 25.021 155.862 26.1048 155.367C26.6026 155.14 27.7184 154.194 28.6979 152.984C29.1401 152.437 30.8058 151.261 30.8058 151.261L35.0621 151.112Z" fill="#677285"/>
<path d="M45.1273 76.2201C45.1273 76.2201 46.9689 79.0217 48.0982 78.2721C49.2275 77.5225 56.2775 70.2966 56.2775 70.2966C56.2775 70.2966 58.3744 68.6821 58.7624 69.0659C59.1503 69.4497 58.0629 70.2966 58.0629 70.2966C58.0629 70.2966 60.3514 70.5214 61.0664 70.5214C61.7814 70.5214 63.2854 71.663 62.302 72.0472C61.3186 72.4313 57.5036 72.5262 57.5036 72.5262C57.5036 72.5262 51.7119 83.479 48.6938 84.2556C45.6757 85.0322 41.5175 80.64 41.5175 80.64L45.1273 76.2201Z" fill="#FDE7E6"/>
<path d="M15.7021 76.4207C15.7021 76.4207 14.4945 78.8932 13.4002 78.3C12.306 77.7069 6.16624 71.232 6.16624 71.232C6.16624 71.232 4.12155 69.9797 3.62155 70.205C3.12155 70.4304 4.3542 71.232 4.3542 71.232C4.3542 71.232 1.346 71.4761 0.780114 71.7035C0.214231 71.9309 -0.444904 72.6285 0.410726 72.9456C1.26636 73.2626 4.54157 73.4882 4.54157 73.4882C4.54157 73.4882 9.0947 82.4854 12.5443 83.5374C15.9939 84.5895 18.9328 80.4442 18.9328 80.4442L15.7021 76.4207Z" fill="#FDE7E6"/>
<path d="M26.8714 68.8487V64.4282C26.8714 64.4282 24.5795 64.5443 23.6478 63.0095C22.7161 61.4748 22.4645 57.1196 22.4645 57.1196L23.1665 55.1003L30.0699 54.8086L33.6966 57.8992L32.008 60.8816L31.6861 61.4548L33.2956 68.2329L26.8714 68.8487Z" fill="#FDE7E6"/>
<mask id="mask1_1929_33738" style="mask-type:alpha" maskUnits="userSpaceOnUse" x="22" y="54" width="12" height="15">
<path d="M26.8714 68.8487V64.4282C26.8714 64.4282 24.5795 64.5443 23.6478 63.0095C22.7161 61.4748 22.4645 57.1196 22.4645 57.1196L23.1665 55.1003L30.0699 54.8086L33.6966 57.8992L32.008 60.8816L31.6861 61.4548L33.2956 68.2329L26.8714 68.8487Z" fill="white"/>
</mask>
<g mask="url(#mask1_1929_33738)">
<path d="M31.3612 60.228C29.321 62.7653 25.7923 64.5387 25.3329 64.5387C24.8735 64.5387 27.8987 67.7209 27.8987 67.7209L30.3599 68.8493L33.8533 68.1087L35.1004 64.5387L32.8988 60.4882C32.8988 60.4882 33.4013 57.6907 31.3612 60.228Z" fill="url(#paint2_linear_1929_33738)"/>
</g>
<path d="M14.2344 78.1967L17.6268 82.7662L19.7905 80.4814C19.7905 80.4814 18.1449 89.5037 17.6268 93.8308C17.1088 98.1578 17.0124 102.468 17.0124 102.468C17.0124 102.468 22.4445 104.484 26.4939 104.824C30.5433 105.163 39.9701 104.289 39.9701 104.289L38.7533 78.8925L42.2839 82.1704L46.4295 77.3835C46.4295 77.3835 39.2932 66.4166 37.9436 65.7777C36.5941 65.1388 32.8426 65.7777 32.8426 65.7777C32.8426 65.7777 30.1804 68.9281 29.1009 68.972C28.0214 69.016 25.6268 65.7777 25.6268 65.7777C25.6268 65.7777 21.8012 65.1666 20.6888 66.4166C19.5764 67.6665 14.2344 78.1967 14.2344 78.1967Z" fill="white"/>
<path d="M22.4645 57.1687C22.4645 57.1687 23.278 55.1157 24.34 55.4734C25.3449 55.8119 26.2155 56.6174 27.4658 56.9955C28.7162 57.3736 28.8543 55.6751 29.704 55.9619C30.5536 56.2487 29.9928 58.7474 30.5917 59.2127C31.1905 59.678 31.1905 55.9619 32.4672 56.9623C33.7438 57.9628 31.1352 60.7787 31.1352 60.7787C31.1352 60.7787 31.4696 62.5094 31.5769 62.6272C31.6841 62.7449 31.6719 61.368 31.6719 61.368C31.6719 61.368 32.8911 60.9 33.4107 58.789C33.9303 56.678 34.155 55.8376 33.4107 54.3038C32.6665 52.77 32.4543 51.5687 30.5917 50.8452C28.729 50.1216 27.3158 50.4046 26.0139 50.8452C24.7121 51.2857 23.7686 52.1611 23.1665 53.0321C21.7625 55.0998 22.4645 57.1687 22.4645 57.1687Z" fill="black"/>
<path fill-rule="evenodd" clip-rule="evenodd" d="M123.609 37.5343C124.28 36.1142 124.955 34.6443 125.636 33.1245L126.746 33.6216C126.063 35.1489 125.384 36.6264 124.709 38.0542L123.609 37.5343ZM119.238 46.1979C119.98 44.8297 120.728 43.3966 121.481 41.8987L122.568 42.4456C121.809 43.9544 121.056 45.3984 120.308 46.7777L119.238 46.1979ZM116.852 50.413C115.988 51.8705 115.132 53.2365 114.285 54.5108L115.298 55.1844C116.157 53.8923 117.024 52.5088 117.899 51.0338L116.852 50.413ZM108.348 62.0914C109.374 61.0269 110.416 59.8121 111.472 58.4469L112.435 59.1917C111.352 60.5904 110.282 61.8385 109.224 62.936L108.348 62.0914ZM104.775 65.2355C103.352 66.2549 101.967 66.9598 100.62 67.3539L100.962 68.5217C102.448 68.0869 103.955 67.32 105.484 66.2246L104.775 65.2355ZM92.0383 65.3639C93.3764 66.4429 94.7368 67.1496 96.1212 67.4905L95.8303 68.672C94.2647 68.2865 92.7456 67.4974 91.2745 66.3111L92.0383 65.3639ZM88.7577 61.9078C88.6823 61.8091 88.607 61.7091 88.5318 61.6079C87.5524 60.2895 86.8408 59.0382 86.3871 57.8563L85.2511 58.2924C85.7468 59.5836 86.5127 60.9304 87.555 62.3336C87.6335 62.4392 87.712 62.5434 87.7907 62.6465L88.7577 61.9078ZM88.4673 49.6676C87.1529 50.7532 86.3075 51.9993 85.9628 53.3895L84.7817 53.0966C85.1931 51.4378 86.187 49.9728 87.6924 48.7294L88.4673 49.6676ZM92.5324 47.3809C93.9015 46.8462 95.4411 46.4102 97.1105 46.081L96.8751 44.8872C95.1377 45.2297 93.5291 45.6853 92.0897 46.2474L92.5324 47.3809ZM106.637 45.385C105.018 45.3275 103.405 45.3542 101.834 45.4648L101.748 44.251C103.362 44.1373 105.018 44.1099 106.68 44.169L106.637 45.385ZM111.481 45.8116C113.112 46.0438 114.69 46.3619 116.181 46.7606L116.495 45.5852C114.957 45.1736 113.331 44.8459 111.653 44.607L111.481 45.8116ZM124.737 50.7704C123.625 49.865 122.267 49.0521 120.7 48.3458L121.2 47.2364C122.859 47.9841 124.306 48.8507 125.506 49.8266L124.737 50.7704ZM127.638 54.4255C127.932 55.1076 128.12 55.8181 128.199 56.5572C128.283 57.339 128.312 58.1248 128.286 58.9148L129.502 58.9544C129.53 58.108 129.499 57.2656 129.409 56.4275C129.317 55.5666 129.098 54.7377 128.756 53.9445L127.638 54.4255ZM125.689 67.9806C126.472 66.5034 127.078 65.0417 127.508 63.5956L128.674 63.9423C128.221 65.4677 127.584 67.0038 126.764 68.5505L125.689 67.9806ZM123.113 72.0491C122.213 73.2751 121.195 74.5109 120.06 75.7563L120.959 76.576C122.123 75.2996 123.167 74.0308 124.094 72.7693L123.113 72.0491ZM113.071 82.34C114.363 81.2707 115.572 80.2079 116.699 79.1515L117.532 80.0393C116.386 81.1131 115.158 82.1924 113.847 83.2773L113.071 82.34ZM109.237 85.3532C107.986 86.289 106.674 87.2296 105.3 88.1748L105.99 89.1772C107.377 88.223 108.702 87.2731 109.966 86.3275L109.237 85.3532ZM98.6871 92.4695C99.5515 91.9374 100.397 91.4067 101.224 90.8775L101.88 91.9023C101.047 92.4354 100.195 92.9699 99.3249 93.5058L98.6871 92.4695Z" fill="#DADADA"/>
<path d="M155.632 7.34587L142.479 7.5353L130.874 3.08126L119.068 7.85637L119.378 29.8361L155.942 29.3256L155.632 7.34587Z" fill="#E8EAEB"/>
<path d="M120.609 21.7518L112.305 21.8625L112.419 29.9311L120.729 29.8133L120.609 21.7518Z" fill="#F6F7F7"/>
<path opacity="0.2" d="M120.73 29.8199L128.016 29.7203L127.86 18.7272L120.615 21.7449L120.73 29.8199Z" fill="#E5E8EA"/>
<path opacity="0.2" d="M155.633 7.35905L142.479 7.542L142.782 29.5159L155.936 29.3329L155.633 7.35905Z" fill="#D8DFE6"/>
<path d="M119.557 18.8444L127.86 18.7272L120.615 21.7449L112.311 21.8621L119.557 18.8444Z" fill="#D8DFE6"/>
<path d="M120.656 22.1855L120.624 22.1886L112.313 22.2999C112.209 22.3032 112.114 22.2664 112.03 22.2025C111.952 22.1379 111.897 22.045 111.875 21.9491C111.852 21.8466 111.875 21.7399 111.925 21.6502C111.975 21.5605 112.061 21.4936 112.162 21.4579L119.407 18.4338C119.457 18.4159 119.516 18.4104 119.569 18.4185L127.873 18.3077C127.977 18.3044 128.072 18.3412 128.156 18.3987C128.234 18.4632 128.288 18.5496 128.311 18.6521C128.333 18.7545 128.317 18.8541 128.273 18.9497C128.223 19.0395 128.145 19.1122 128.05 19.1473L120.805 22.1649C120.761 22.1822 120.709 22.1871 120.656 22.1855ZM114.574 21.3935L120.528 21.3086L125.603 19.1953L119.65 19.2802L114.574 21.3935Z" fill="#D8DFE6"/>
<path fill-rule="evenodd" clip-rule="evenodd" d="M119.004 8.41825C119.137 8.51029 119.305 8.55979 119.467 8.5445C119.537 8.53129 119.6 8.50574 119.663 8.47371L130.869 3.81851L142.232 8.17972C142.314 8.21125 142.407 8.2286 142.492 8.22713L155.639 8.04479L155.691 8.0399L155.689 8.02046C155.844 7.99931 155.982 7.93402 156.089 7.82582C156.197 7.71763 156.269 7.5801 156.287 7.42802C156.312 7.27534 156.278 7.12168 156.206 6.99112C156.129 6.86118 156.014 6.75435 155.878 6.69531L144.28 2.24714C144.199 2.21561 144.112 2.19764 144.021 2.19973L131.262 2.37717C131.243 2.36977 131.224 2.36316 131.204 2.35734C131.103 2.32764 131.004 2.31738 130.901 2.33365C130.805 2.34269 130.718 2.37889 130.637 2.4269C130.607 2.43832 130.577 2.45183 130.549 2.46729L119.138 7.21584C118.988 7.28235 118.862 7.39886 118.791 7.54935C118.714 7.70045 118.696 7.86548 118.738 8.02501C118.772 8.18515 118.87 8.31973 119.004 8.41825Z" fill="#D8DFE6"/>
<path opacity="0.6" d="M137.117 21.0889L132.371 21.1578L132.494 29.7943L137.239 29.7254L137.117 21.0889Z" fill="white"/>
<path d="M136.542 10.2921L125.412 10.4474L125.507 17.1385L136.638 16.9832L136.542 10.2921Z" fill="white"/>
<path d="M130.519 10.8215L125.832 10.8849L125.91 16.6952L130.597 16.6318L130.519 10.8215Z" fill="#E2ECFB"/>
<path d="M136.134 10.7426L131.446 10.8061L131.524 16.6164L136.211 16.553L136.134 10.7426Z" fill="#E2ECFB"/>
<path d="M152.36 10.0736L146.138 10.1576L146.234 16.8487L152.456 16.7646L152.36 10.0736Z" fill="white"/>
<path d="M148.994 10.5678L146.377 10.6057L146.461 16.4154L149.079 16.3775L148.994 10.5678Z" fill="#E2ECFB"/>
<path d="M152.134 10.5198L149.516 10.5578L149.594 16.3681L152.212 16.3301L152.134 10.5198Z" fill="#E2ECFB"/>
<path d="M152.829 20.7365L146.311 20.8486L146.381 27.542L152.899 27.43L152.829 20.7365Z" fill="white"/>
<path d="M149.135 21.2615L146.517 21.2995L146.595 27.1098L149.212 27.0718L149.135 21.2615Z" fill="#E2ECFB"/>
<path d="M152.558 21.3174L149.934 21.356L150.02 27.1786L152.644 27.1401L152.558 21.3174Z" fill="#E2ECFB"/>
<defs>
<linearGradient id="paint0_linear_1929_33738" x1="88" y1="20" x2="88" y2="170" gradientUnits="userSpaceOnUse">
<stop stop-color="#E3ECFA"/>
<stop offset="1" stop-color="#DAE7FF"/>
</linearGradient>
<linearGradient id="paint1_linear_1929_33738" x1="41.1108" y1="152.439" x2="39.3253" y2="101.31" gradientUnits="userSpaceOnUse">
<stop stop-color="#A1A7B8"/>
<stop offset="1" stop-color="#7B8195"/>
</linearGradient>
<linearGradient id="paint2_linear_1929_33738" x1="32.3279" y1="65.8811" x2="32.3279" y2="61.598" gradientUnits="userSpaceOnUse">
<stop stop-color="#FBD8D6"/>
<stop offset="1" stop-color="#EAC0BE" stop-opacity="0.7"/>
</linearGradient>
</defs>
</svg>
