<svg width="14" height="14" viewBox="0 0 14 14" fill="none" xmlns="http://www.w3.org/2000/svg">
<path d="M2.29289 8.70743L0.338301 10.662C-0.0326328 11.033 -0.0326328 11.6344 0.338301 12.0053C2.34374 14.0107 5.51862 14.2364 7.78751 12.5347L7.91978 12.4355C9.63124 11.1519 11.1516 9.63156 12.4352 7.9201L12.5344 7.78784C14.236 5.51895 14.0104 2.34406 12.005 0.338626C11.634 -0.032307 11.0326 -0.0323072 10.6617 0.338626L8.70711 2.29322C8.31658 2.68374 8.31658 3.31691 8.70711 3.70743L10.0829 5.08326C10.332 5.33233 10.3937 5.71283 10.2362 6.02788C9.32559 7.84914 7.84881 9.32592 6.02755 10.2365C5.7125 10.3941 5.332 10.3323 5.08293 10.0833L3.70711 8.70743C3.31658 8.31691 2.68342 8.31691 2.29289 8.70743Z" fill="#064DD6"/>
</svg>
