<svg xmlns="http://www.w3.org/2000/svg" width="18" height="18" viewBox="0 0 18 18" fill="none">
<path d="M15.3204 1.32038L14.7071 0.707107C14.3166 0.316583 13.6834 0.316582 13.2929 0.707106L10.7071 3.29289C10.3166 3.68342 10.3166 4.31658 10.7071 4.70711L12.4995 6.49952C12.7984 6.7984 12.8725 7.255 12.6835 7.63307C11.5907 9.81858 9.81858 11.5907 7.63307 12.6835C7.255 12.8725 6.7984 12.7984 6.49952 12.4995L4.70711 10.7071C4.31658 10.3166 3.68342 10.3166 3.29289 10.7071L0.707108 13.2929C0.316582 13.6834 0.316582 14.3166 0.707106 14.7071L1.32038 15.3204C3.43173 17.4317 6.7743 17.6693 9.16302 15.8777L10.3714 14.9714C12.115 13.6638 13.6638 12.115 14.9714 10.3714L15.8777 9.16302C17.6693 6.7743 17.4317 3.43173 15.3204 1.32038Z" fill="white"/>
</svg>