<svg width="81"
    height="81"
    viewBox="0 0 81 81"
    fill="none"
    xmlns="http://www.w3.org/2000/svg">
    <path d="M9.09992 63.8666L9.03325 63.9333C8.13325 61.9666 7.56659 59.7333 7.33325 57.2666C7.56659 59.6999 8.19992 61.8999 9.09992 63.8666Z"
        fill="#EEEEEE"/>
    <path d="M30.5 35.1001C34.8814 35.1001 38.4333 31.5482 38.4333 27.1667C38.4333 22.7853 34.8814 19.2334 30.5 19.2334C26.1185 19.2334 22.5667 22.7853 22.5667 27.1667C22.5667 31.5482 26.1185 35.1001 30.5 35.1001Z"
        fill="#EEEEEE"/>
    <path d="M54.4668 7.16699H26.5334C14.4001 7.16699 7.16675 14.4003 7.16675 26.5337V54.467C7.16675 58.1003 7.80008 61.267 9.03341 63.9337C11.9001 70.267 18.0334 73.8337 26.5334 73.8337H54.4668C66.6001 73.8337 73.8334 66.6003 73.8334 54.467V46.8337V26.5337C73.8334 14.4003 66.6001 7.16699 54.4668 7.16699ZM68.4001 42.167C65.8001 39.9337 61.6001 39.9337 59.0001 42.167L45.1334 54.067C42.5334 56.3003 38.3334 56.3003 35.7334 54.067L34.6001 53.1337C32.2334 51.067 28.4667 50.867 25.8001 52.667L13.3334 61.0337C12.6001 59.167 12.1667 57.0003 12.1667 54.467V26.5337C12.1667 17.1337 17.1334 12.167 26.5334 12.167H54.4668C63.8668 12.167 68.8334 17.1337 68.8334 26.5337V42.5337L68.4001 42.167Z"
        fill="#EEEEEE"/>
</svg>
