<svg width="43" height="24" viewBox="0 0 43 24" fill="none" xmlns="http://www.w3.org/2000/svg">
<path d="M31.7333 4.18778C30.9611 4.77168 30.1099 5.24314 29.2053 5.58778C29.1103 5.62492 29.0024 5.58331 28.9572 5.4917C28.6092 4.81975 28.2572 4.14368 27.9092 3.46779H27.9094C27.8588 3.37047 27.8963 3.25083 27.9933 3.19976C28.9213 2.70778 29.8533 2.21585 30.7813 1.72369C30.8527 1.68565 30.8943 1.60833 30.8863 1.52761C30.8784 1.44708 30.8227 1.37922 30.7452 1.35565C29.8467 1.09922 28.8949 1.09368 27.9933 1.33976C27.3972 1.51172 26.0413 1.89171 25.6733 2.91974C25.3813 3.71974 25.7894 4.95581 25.1093 5.63581L21.3733 9.3719L23.2893 11.288L26.4213 8.15599C27.4652 7.11206 29.0974 7.62401 29.5733 7.56797C30.2372 7.48404 31.6572 6.21994 32.0452 4.38799V4.38781C32.0624 4.3071 32.0279 4.22442 31.9584 4.17995C31.889 4.13531 31.7993 4.13852 31.7332 4.18781L31.7333 4.18778ZM18.9854 11.7599L14.1772 16.5681C13.8833 16.8692 13.482 17.0417 13.0613 17.0481C12.3809 17.0469 11.7283 17.3169 11.2475 17.7981C10.767 18.2793 10.4979 18.9324 10.5 19.6127C10.502 20.2929 10.7752 20.9444 11.2588 21.4228C11.7425 21.901 12.3968 22.1668 13.077 22.1615C13.7572 22.1561 14.4074 21.8799 14.8832 21.3938C15.3593 20.9079 15.622 20.2522 15.6132 19.572C15.6141 19.172 15.7774 18.7897 16.0652 18.512L20.9013 13.6759L18.9854 11.7599ZM14.4215 20.0319L13.4854 20.968C13.4559 20.9998 13.4111 21.0121 13.3695 21L12.0934 20.656C12.0515 20.6451 12.0181 20.6133 12.0054 20.5719L11.6654 19.2919C11.6534 19.251 11.664 19.2069 11.6934 19.176L12.6295 18.236C12.6611 18.2082 12.704 18.1964 12.7454 18.2039L14.0254 18.5478V18.548C14.0658 18.5602 14.0972 18.5918 14.1095 18.6319L14.4534 19.9159V19.916C14.465 19.9577 14.4527 20.0023 14.4215 20.0319L14.4215 20.0319Z" fill="#151940"/>
<path d="M26.2337 13.458C26.1683 13.7604 26.0171 14.0373 25.7979 14.2557L23.7899 16.2638C23.5954 16.4575 23.3551 16.5986 23.0911 16.6739C23.1452 16.8963 23.2586 17.0997 23.4194 17.2623L27.761 21.604C28.3789 22.2191 29.2776 22.4586 30.1198 22.2324C30.9618 22.0061 31.6195 21.3482 31.8457 20.5063C32.0721 19.6643 31.8327 18.7654 31.2173 18.1475L26.8757 13.8059C26.6969 13.6344 26.4751 13.5143 26.2337 13.458L26.2337 13.458ZM30.2416 20.0624C30.3978 20.2186 30.3978 20.472 30.2416 20.6281C30.0853 20.7844 29.8321 20.7844 29.6758 20.6281L29.048 20.0003C28.8917 19.844 28.8917 19.5908 29.048 19.4346C29.2042 19.2783 29.4575 19.2783 29.6137 19.4346L30.2416 20.0624ZM28.6717 18.4927C28.8272 18.649 28.8271 18.9019 28.671 19.0577C28.5151 19.2136 28.2624 19.214 28.106 19.0584L25.2804 16.2329V16.2327C25.1251 16.0763 25.1256 15.8238 25.2813 15.668C25.4372 15.5121 25.6897 15.5118 25.8461 15.667L28.6717 18.4927Z" fill="#151940"/>
<path d="M25.2327 13.6902L23.2244 15.6984C22.4682 16.4547 21.2096 15.2016 21.9685 14.4425L23.9768 12.4343C24.7364 11.6746 25.9884 12.9344 25.2327 13.6902Z" fill="#151940"/>
<path d="M23.0739 12.2038L21.8178 13.4599L12.6576 4.29972C12.6295 4.28364 12.6056 4.26775 12.5776 4.25168L11.8656 4.03972C11.7772 4.01311 11.701 3.9565 11.6497 3.87972L10.6336 2.30362C10.6022 2.25702 10.609 2.19452 10.6497 2.15577L11.7697 1.03577C11.8085 0.995053 11.871 0.988265 11.9176 1.0197L13.5015 2.0436H13.5016C13.5788 2.09718 13.6365 2.17432 13.6656 2.2636L13.8656 2.95969L13.9136 3.04362L23.0739 12.2038Z" fill="#151940"/>
<ellipse rx="6.07716" ry="6.23956" transform="matrix(0.999992 0.00324622 -0.0287674 0.99957 20.3722 10.2566)" fill="#FF6C0E" stroke="white" stroke-width="0.5"/>
<path d="M18.3829 11.5958C18.3314 12.3728 18.7189 13.1983 19.4204 13.1987L20.9455 13.1997C21.5555 13.2 22.1238 12.6795 22.1689 11.9987C22.2173 11.2698 21.9248 10.9652 21.4861 10.7967L19.2516 9.9943C18.8129 9.82581 18.5199 9.52925 18.5688 8.79233C18.6134 8.11949 19.1822 7.59116 19.7922 7.59154L21.3178 7.58466C22.0193 7.58509 22.4329 8.01772 22.3814 8.79469" stroke="white" stroke-width="0.8" stroke-linecap="round" stroke-linejoin="round"/>
<path d="M20.4027 6.8125L20.3339 13.9736" stroke="white" stroke-width="0.8" stroke-linecap="round" stroke-linejoin="round"/>
</svg>
