<svg width="114"
    height="110"
    viewBox="0 0 114 110"
    fill="none"
    xmlns="http://www.w3.org/2000/svg">
    <path d="M101.807 24.1205C83.5271 4.88372 55.4489 10.5744 51.2989 11.4891C46.0702 12.6414 33.6304 15.3825 24.347 26.2051C10.1342 42.7745 11.5696 68.6707 22.5458 86.1292C25.7397 91.2092 36.4877 106.306 56.6716 109.589C57.8513 109.78 78.9278 112.862 95.8864 98.6723C98.1728 96.7591 101.864 93.2942 105.098 88.2491C115.132 72.599 119.881 43.1418 101.807 24.1205Z"
        fill="url(#paint0_linear_4121_51299)"/>
    <path d="M0.0744281 33.8103C-0.122706 33.6064 0.106579 33.2417 0.357015 33.3762C4.24809 35.4576 19.5374 42.0155 27.9203 59.3683C35.6669 75.4039 37.9716 88.1042 38.7457 92.8177C38.8989 93.7501 37.9919 94.5022 37.1043 94.179C31.8435 92.2635 17.3943 86.1278 13.4491 75.3447C8.73395 62.459 9.47341 43.5502 0.0744281 33.8103Z"
        fill="#91B3FA"/>
    <path d="M10.9473 44.6533C10.9473 44.6533 23.7754 53.636 37.5765 92.6602C37.5765 92.6602 21.6289 54.1758 10.9473 44.6533Z"
        fill="#DCE5FE"/>
    <path d="M1.96907 55.5775C2.18313 62.3562 5.042 101.756 42.495 105.715C42.495 105.715 47.2905 79.2919 2.81599 55.0546C2.42679 54.8422 1.95469 55.135 1.96907 55.5775Z"
        fill="#BDD0FB"/>
    <path d="M6.43575 60.8176C7.29959 62.8684 8.24719 64.8914 9.2244 66.8957C10.2058 68.8984 11.2313 70.879 12.2973 72.8377C13.3617 74.7972 14.4759 76.7296 15.6308 78.6358C16.7891 80.5403 17.9804 82.4253 19.2393 84.263C21.7454 87.9459 24.4579 91.4927 27.4538 94.7805C27.8185 95.2001 28.2144 95.591 28.5943 95.9963L29.1696 96.5995C29.3609 96.8009 29.5639 96.9904 29.761 97.1867C30.1595 97.5734 30.5496 97.9693 30.954 98.3492L32.1842 99.4711C33.8501 100.936 35.5955 102.309 37.4357 103.538L37.44 103.541C37.6092 103.653 37.654 103.882 37.5415 104.051C37.429 104.22 37.2005 104.265 37.0313 104.152L37.0288 104.151C35.164 102.884 33.4034 101.477 31.729 99.9796L30.4929 98.8349C30.0868 98.4474 29.695 98.0446 29.2957 97.6512C29.0986 97.4515 28.8947 97.2586 28.7035 97.0539L28.1273 96.4405C27.7474 96.0284 27.3506 95.6308 26.9859 95.2044C23.9908 91.8649 21.2927 88.2759 18.8044 84.5566C17.554 82.7003 16.3737 80.7983 15.2264 78.8786C14.0825 76.9563 12.9809 75.0095 11.9284 73.0365C10.8751 71.0643 9.86233 69.0701 8.89443 67.0548C7.93076 65.0369 6.99839 63.0064 6.1447 60.9352C6.11171 60.8556 6.14978 60.7643 6.22931 60.7321C6.30884 60.6991 6.39937 60.7372 6.43237 60.8159L6.43575 60.8176Z"
        fill="#DCE5FE"/>
    <path d="M23.7355 0.566314C19.7446 10.4552 -1.12713 68.9507 50.2462 98.3973C50.2462 98.3973 73.9006 63.425 25.2863 0.350566C24.8607 -0.201917 23.9961 -0.0800833 23.7355 0.566314Z"
        fill="#BDD0FB"/>
    <path d="M26.7122 11.1887C26.6073 14.7668 26.6521 18.3549 26.768 21.9355C26.8865 25.5169 27.0921 29.0958 27.3857 32.667C27.9762 39.8087 28.9044 46.925 30.2962 53.9516C31.6947 60.9731 33.5484 67.9168 36.1349 74.5872C36.7762 76.2565 37.4801 77.8996 38.2264 79.5232C38.9701 81.1477 39.7755 82.7434 40.6402 84.3044C42.3577 87.434 44.3451 90.4138 46.6067 93.1661L46.6084 93.1686C46.726 93.3116 46.7057 93.524 46.5618 93.6416C46.4189 93.7592 46.2065 93.7389 46.0889 93.595L46.088 93.5942C43.8079 90.7937 41.812 87.7715 40.0936 84.6056C39.2281 83.0259 38.4227 81.4133 37.6815 79.7737C36.9378 78.1348 36.2356 76.4774 35.5985 74.7954C33.0264 68.0734 31.1981 61.0933 29.8266 54.0447C28.4627 46.991 27.5642 39.8552 27.0049 32.6983C26.7266 29.1195 26.5371 25.5338 26.4347 21.9465C26.3349 18.3583 26.3061 14.7701 26.4279 11.1777C26.4305 11.099 26.4965 11.0373 26.5751 11.0407C26.6538 11.0432 26.7156 11.1092 26.7122 11.1879V11.1887Z"
        fill="#DCE5FE"/>
    <path d="M85.9991 95.1674C85.205 98.0465 83.8687 101.802 82.4946 105L82 104.913C83.7264 101.066 85.6331 95.718 86.4754 89.3144C87.3245 82.8568 87.1239 74.7993 90.7047 71.5971C93.685 68.9321 104.103 70.2879 107.514 70.8177C107.94 70.8839 108.097 71.416 107.774 71.7021C106.183 73.1125 102.786 76.4296 101.965 79.7038C100.883 84.0191 96.8824 86.8518 93.2561 87.6862C89.6299 88.5206 87.6205 89.2896 85.9991 95.1674Z"
        fill="#BDD0FB"/>
    <path d="M102.789 72.7717C100.605 72.9345 98.4594 73.5404 96.4994 74.5424C95.5182 75.0405 94.5983 75.667 93.7708 76.4012C92.9495 77.1415 92.2196 77.9934 91.6495 78.9458L91.4375 79.3036C91.3675 79.4233 91.3089 79.5494 91.2442 79.6719C91.1828 79.7954 91.1159 79.9194 91.0591 80.0429L90.8874 80.4132C90.6573 80.9062 90.4298 81.4006 90.2074 81.8971C89.761 82.8896 89.3304 83.8893 88.9155 84.8954C88.0844 86.9074 87.3156 88.9447 86.6722 91.0282C86.6567 91.0781 86.6849 91.1312 86.7349 91.1466C86.783 91.1616 86.8343 91.136 86.8515 91.0893L86.8525 91.0865C87.2279 90.0713 87.6235 89.0593 88.038 88.0573C88.4478 87.053 88.8698 86.0537 89.3028 85.059L89.9568 83.5692L90.6277 82.0871C90.8508 81.5928 91.0791 81.101 91.3099 80.61L91.4821 80.2415C91.5394 80.1185 91.6023 80.0036 91.6622 79.8842C91.7235 79.7665 91.7788 79.645 91.8453 79.5301L92.0467 79.186C92.5864 78.2681 93.2876 77.4537 94.0657 76.7266C94.4629 76.3713 94.8735 76.0281 95.315 75.7263L95.4784 75.6102L95.6463 75.5004C95.7586 75.4276 95.8689 75.352 95.9828 75.2815C96.2123 75.1438 96.4406 75.003 96.6777 74.8775C97.6169 74.3581 98.6192 73.9533 99.6446 73.6241C100.67 73.2962 101.731 73.0534 102.799 72.9231L102.804 72.9226C102.845 72.9175 102.875 72.8797 102.87 72.8379C102.865 72.7978 102.829 72.7689 102.789 72.7717Z"
        fill="url(#paint1_linear_4121_51299)"/>
    <path d="M91.8154 96.7904C91.2595 100.268 92.1826 101.633 92.7142 102.908C92.8086 103.134 92.9437 103.453 93.0921 103.835L92.6021 104.065C92.4634 103.51 92.2935 102.965 92.0827 102.45C90.6366 98.9205 88.6485 92.6704 89.967 87.7529C91.2856 82.8353 94.3904 80.9838 99.9972 82.2555C104.669 83.3151 107.435 83.6585 108.803 83.3209C109.142 83.2372 109.464 83.5127 109.444 83.8612C109.336 85.7154 108.663 90.1747 104.743 91.7256C99.7423 93.7036 92.3713 93.313 91.8154 96.7904Z"
        fill="#91B3FA"/>
    <path opacity="0.5"
        d="M100.599 87.1488C100.211 87.0192 99.8175 86.9226 99.4194 86.8384C99.0214 86.7547 98.6197 86.6857 98.2139 86.6411C97.4036 86.5485 96.5781 86.5325 95.7574 86.6401C95.3475 86.6951 94.9392 86.7811 94.5405 86.9099C94.1431 87.041 93.7561 87.2155 93.3972 87.442C93.3097 87.5019 93.2179 87.5561 93.1339 87.6213C93.051 87.6873 92.963 87.7504 92.8846 87.8189L92.4273 88.2366L91.9992 88.6865L91.6061 89.1692C91.1055 89.8329 90.7261 90.5899 90.4874 91.3838C90.2442 92.1778 90.1506 93.0051 90.1379 93.8226L90.1334 94.1297C90.1303 94.2322 90.141 94.3339 90.1443 94.4358C90.1557 94.6397 90.161 94.8439 90.1777 95.047L90.2432 95.6542C90.2607 95.8571 90.3045 96.0562 90.3357 96.2565C90.4643 97.0587 90.6627 97.8452 90.8805 98.6231C90.8927 98.6664 90.9378 98.6918 90.9812 98.6796C91.0228 98.668 91.0477 98.6264 91.0393 98.585L91.0388 98.5825C90.8777 97.7955 90.7096 97.0103 90.6231 96.2152C90.5673 95.819 90.5452 95.4209 90.5123 95.0242C90.5016 94.8256 90.5026 94.6268 90.497 94.4282C90.4968 94.329 90.4892 94.2296 90.495 94.1307L90.5082 93.834C90.5409 93.0432 90.6634 92.259 90.899 91.5129C91.1352 90.7664 91.5037 90.0687 91.9736 89.4464L92.3459 88.9942L92.753 88.5709L93.1897 88.1762C93.263 88.1123 93.3386 88.0575 93.4129 87.9974C93.4872 87.9383 93.5696 87.8899 93.6478 87.8351C93.9688 87.6294 94.3201 87.4676 94.6863 87.3439C95.0518 87.2176 95.4327 87.1278 95.8197 87.0674C96.5946 86.9454 97.3909 86.9327 98.1845 86.9807C98.5812 87.0078 98.9786 87.0441 99.3742 87.0996C99.7688 87.1559 100.165 87.2252 100.552 87.3116L100.555 87.3122C100.6 87.3223 100.646 87.2936 100.656 87.2477C100.665 87.2049 100.64 87.1625 100.599 87.1488Z"
        fill="white"/>
    <path d="M28 27.9375C28 24.6276 30.6832 21.9443 33.9932 21.9443H84.9594C87.7712 21.9443 90.0899 24.148 90.2328 26.9559L93.9949 100.847C94.1069 103.045 92.377 104.898 90.1768 104.938L31.7631 106C29.6958 106.038 28 104.372 28 102.305V27.9375V27.9375Z"
        fill="url(#paint2_linear_4121_51299)"/>
    <path d="M32.1758 23.0816C32.1696 22.0227 33.101 21.2029 34.1503 21.3452C41.1102 22.289 65.0434 25.2082 84.8314 23.689C85.7339 23.6196 86.5169 24.3033 86.565 25.2072L90.5098 99.428C90.5638 100.446 89.787 101.316 88.7693 101.376C80.4471 101.868 46.173 103.772 33.9479 102.492C33.2038 102.414 32.6389 101.788 32.6348 101.039L32.1758 23.0816Z"
        fill="#91B3FA"/>
    <path d="M32.9961 24.9412C32.9903 23.9221 33.8863 23.1333 34.8964 23.2704C41.5942 24.1788 64.6262 26.9878 83.669 25.5259C84.5375 25.4593 85.2909 26.1172 85.3373 26.9871L89.1334 98.413C89.1856 99.3925 88.4377 100.23 87.4585 100.288C79.4496 100.762 46.466 102.594 34.7012 101.362C33.9852 101.287 33.4417 100.684 33.4376 99.9642L32.9961 24.9412Z"
        fill="#BDD0FB"/>
    <path opacity="0.78"
        d="M39.1965 30.4484L39.908 45.7615C39.9317 46.2707 40.3429 46.6757 40.8528 46.6902C43.6889 46.7702 52.5258 46.9856 57.5157 46.7256C58.0802 46.696 58.5268 46.2394 58.5454 45.6746C58.6406 42.8027 58.8488 34.4445 58.1943 30.9501C58.0885 30.3856 57.6033 29.9719 57.0296 29.952L40.267 29.3659C39.662 29.3449 39.1683 29.8441 39.1965 30.4484Z"
        fill="white"/>
    <path d="M48.8425 39.2148C50.6604 39.2148 52.1342 37.741 52.1342 35.9231C52.1342 34.1051 50.6604 32.6313 48.8425 32.6313C47.0245 32.6313 45.5508 34.1051 45.5508 35.9231C45.5508 37.741 47.0245 39.2148 48.8425 39.2148Z"
        fill="#FF6C0E"/>
    <path d="M43.8419 45.5876H54.3292C54.972 45.5876 55.3575 44.8778 55.0112 44.336C54.1203 42.9421 52.2565 40.8945 49.0287 40.9869C45.9177 41.0759 44.0738 42.9256 43.1468 44.2522C42.7538 44.8153 43.1551 45.5876 43.8419 45.5876Z"
        fill="#FF6C0E"/>
    <g opacity="0.6">
        <path opacity="0.6"
            d="M81.5783 31.7807C81.6621 31.7807 81.7288 31.712 81.7264 31.6281L81.7054 30.9056C81.703 30.8218 81.6323 30.752 81.5484 30.7503L62.2778 30.4068C62.194 30.4054 62.1483 30.4686 62.1761 30.548L62.5595 31.6367C62.5874 31.7157 62.6788 31.7807 62.7626 31.7807H81.5783V31.7807Z"
            fill="white"/>
    </g>
    <g opacity="0.6">
        <path opacity="0.6"
            d="M62.2778 33.2622C62.194 33.2609 62.1483 33.3241 62.1761 33.4034L62.5595 34.4922C62.5874 34.5712 62.6788 34.6361 62.7626 34.6361H81.5787C81.6625 34.6361 81.7291 34.5674 81.7267 34.4836L81.7058 33.7611C81.7034 33.6773 81.6326 33.6075 81.5488 33.6058L62.2778 33.2622Z"
            fill="white"/>
    </g>
    <g opacity="0.6">
        <path opacity="0.6"
            d="M62.2778 36.1587C62.194 36.1573 62.1483 36.2206 62.1761 36.2999L62.5595 37.3887C62.5874 37.4677 62.6788 37.5326 62.7626 37.5326H81.5787C81.6625 37.5326 81.7291 37.4639 81.7267 37.3801L81.7058 36.6576C81.7034 36.5737 81.6326 36.504 81.5488 36.5023L62.2778 36.1587Z"
            fill="white"/>
    </g>
    <g opacity="0.6">
        <path opacity="0.6"
            d="M83.3623 51.5C83.4461 51.5 83.5103 51.4316 83.5048 51.3478L83.4571 50.6246C83.4516 50.5407 83.3784 50.472 83.2946 50.4713L39.3422 50.125C39.2584 50.1243 39.2326 50.1776 39.2848 50.2432L40.1908 51.3807C40.243 51.4464 40.3544 51.5 40.4382 51.5H83.3623Z"
            fill="white"/>
    </g>
    <g opacity="0.6">
        <path opacity="0.6"
            d="M39.3442 52.9785C39.2603 52.9778 39.2346 53.0311 39.2868 53.0967L40.1928 54.2343C40.245 54.2999 40.3563 54.3535 40.4401 54.3535H83.3646C83.4484 54.3535 83.5126 54.2851 83.5071 54.2013L83.4594 53.4781C83.4539 53.3942 83.3807 53.3255 83.2969 53.3248L39.3442 52.9785Z"
            fill="white"/>
    </g>
    <path d="M45.1522 72.4489C45.1488 72.4489 45.1457 72.4489 45.1422 72.4489L41.5077 72.4139C40.9885 72.4087 40.5598 72.0514 40.5106 71.5828L40.1911 68.5333C40.1722 68.3543 40.2279 68.1774 40.3478 68.0348C40.4818 67.8754 40.6845 67.7754 40.904 67.7603C41.2101 67.7393 41.6413 67.7026 42.0979 67.6637C43.0592 67.582 44.2555 67.4799 44.9285 67.4717C45.4171 67.4693 45.8311 67.7582 45.9462 68.1836C46.1355 68.8834 46.119 70.2085 46.0829 71.6203C46.0712 72.0793 45.6548 72.4489 45.1522 72.4489ZM40.9229 68.0396C40.7786 68.0496 40.6467 68.1135 40.5615 68.2152C40.491 68.299 40.4581 68.4017 40.4687 68.5048L40.7882 71.5543C40.8226 71.882 41.1332 72.1318 41.5104 72.1353L45.145 72.1703C45.1474 72.1703 45.1498 72.1703 45.1522 72.1703C45.5044 72.1703 45.796 71.9222 45.8039 71.6141C45.8393 70.224 45.8565 68.9212 45.6768 68.2571C45.5964 67.9596 45.2869 67.7527 44.932 67.7514C44.2689 67.7596 43.0781 67.861 42.1213 67.9424C41.664 67.9815 41.2314 68.0183 40.9229 68.0396Z"
        fill="white"/>
    <path opacity="0.6"
        d="M41.3139 68.3546C42.0773 68.3024 43.7367 68.134 44.5238 68.1241C44.8574 68.12 45.1498 68.3213 45.2281 68.6106C45.38 69.1723 45.3601 70.2916 45.3336 71.3251C45.3257 71.6346 45.0416 71.8817 44.6946 71.8782L41.7901 71.8504C41.4328 71.847 41.1363 71.6034 41.1033 71.2863L40.848 68.8494C40.8212 68.5972 41.0311 68.3739 41.3139 68.3546Z"
        fill="white"/>
    <g opacity="0.6">
        <path opacity="0.6"
            d="M48.3448 70.4247C48.45 70.8236 48.8124 71.1005 49.225 71.0971L82.8526 70.8102C83.2329 70.8071 83.5373 70.4931 83.529 70.1128C83.5208 69.7431 83.2198 69.4469 82.8498 69.4452L49.2213 69.292C48.6279 69.2893 48.1933 69.8506 48.3448 70.4247Z"
            fill="white"/>
    </g>
    <path d="M41.4676 68.833C41.7373 68.6746 42.0846 68.769 42.2371 69.0422L42.9542 70.3271C43.026 70.4556 43.2136 70.4477 43.274 70.3134L45.052 66.3548C45.1406 66.1573 45.4347 66.2243 45.4316 66.4407C45.4134 67.6514 45.0922 69.953 43.1576 71.8797C43.1576 71.8797 42.0915 71.4654 41.2329 69.5799C41.1082 69.3078 41.2092 68.9845 41.4676 68.833Z"
        fill="#FF6C0E"/>
    <path d="M45.1522 80.2396C45.1488 80.2396 45.1457 80.2396 45.1422 80.2396L41.5077 80.2045C40.9885 80.1994 40.5598 79.8421 40.5106 79.3735L40.1911 76.324C40.1722 76.145 40.2279 75.968 40.3478 75.8258C40.4818 75.6664 40.6845 75.5664 40.904 75.5513C41.2101 75.5303 41.6413 75.4936 42.0979 75.4547C43.0592 75.373 44.2555 75.2709 44.9285 75.2627C44.9333 75.2627 44.9385 75.2627 44.9433 75.2627C45.4212 75.2627 45.8325 75.5537 45.9465 75.9746C46.1358 76.6747 46.1193 77.9995 46.0833 79.4113C46.0712 79.8699 45.6548 80.2396 45.1522 80.2396ZM40.9229 75.8299C40.7786 75.8399 40.6467 75.9038 40.5615 76.0055C40.491 76.0893 40.4581 76.192 40.4687 76.2951L40.7882 79.3446C40.8226 79.6724 41.1332 79.9221 41.5104 79.9256L45.145 79.9606C45.1474 79.9606 45.1498 79.9606 45.1522 79.9606C45.5044 79.9606 45.796 79.7126 45.8039 79.4044C45.8393 78.0143 45.8565 76.7115 45.6768 76.0474C45.5964 75.7502 45.2824 75.5362 44.932 75.542C44.2689 75.5503 43.0781 75.6516 42.1216 75.733C41.664 75.7722 41.2314 75.809 40.9229 75.8299Z"
        fill="white"/>
    <path opacity="0.6"
        d="M41.3139 76.1447C42.0773 76.0924 43.7367 75.9241 44.5238 75.9141C44.8574 75.91 45.1498 76.1113 45.2281 76.4006C45.38 76.9623 45.3601 78.0817 45.3336 79.1151C45.3257 79.4247 45.0416 79.6717 44.6946 79.6683L41.7901 79.6404C41.4328 79.637 41.1363 79.3934 41.1033 79.0763L40.848 76.6394C40.8212 76.3872 41.0311 76.1642 41.3139 76.1447Z"
        fill="white"/>
    <g opacity="0.6">
        <path opacity="0.6"
            d="M48.3448 78.2148C48.45 78.6137 48.8124 78.8906 49.225 78.8871L82.8526 78.6003C83.2329 78.5972 83.5373 78.2831 83.529 77.9028C83.5208 77.5331 83.2198 77.237 82.8498 77.2353L49.2213 77.082C48.6279 77.0796 48.1933 77.641 48.3448 78.2148Z"
            fill="white"/>
    </g>
    <path d="M41.4676 76.623C41.7373 76.4646 42.0846 76.5591 42.2371 76.8322L42.9542 78.1172C43.026 78.2457 43.2136 78.2377 43.274 78.1034L45.052 74.1449C45.1406 73.9473 45.4347 74.0143 45.4316 74.2307C45.4134 75.4415 45.0922 77.743 43.1576 79.6697C43.1576 79.6697 42.0915 79.2554 41.2329 77.3699C41.1082 77.0978 41.2092 76.7745 41.4676 76.623Z"
        fill="#FF6C0E"/>
    <path d="M45.1522 88.0286C45.1488 88.0286 45.1457 88.0286 45.1422 88.0286L41.5077 87.9936C40.9885 87.9888 40.5598 87.6315 40.5106 87.1629L40.1911 84.1134C40.1722 83.9344 40.2279 83.7574 40.3478 83.6149C40.4818 83.4554 40.6845 83.3555 40.9037 83.3403C41.2098 83.3194 41.641 83.2826 42.0976 83.2438C43.0589 83.162 44.2552 83.06 44.9282 83.0518C44.933 83.0518 44.9382 83.0518 44.943 83.0518C45.4209 83.0518 45.8321 83.3428 45.9462 83.7636C46.1355 84.4638 46.119 85.7886 46.0829 87.2003C46.0712 87.659 45.6548 88.0286 45.1522 88.0286ZM40.9229 83.619C40.7786 83.6289 40.6467 83.6928 40.5615 83.7945C40.491 83.8784 40.4581 83.9811 40.4687 84.0842L40.7882 87.1337C40.8226 87.4614 41.1332 87.7112 41.5104 87.7146L45.145 87.7497C45.1474 87.7497 45.1498 87.7497 45.1522 87.7497C45.5044 87.7497 45.796 87.5016 45.8039 87.1934C45.8393 85.8034 45.8565 84.5006 45.6768 83.8365C45.5964 83.5393 45.2824 83.3242 44.932 83.3307C44.2689 83.339 43.0781 83.4403 42.1216 83.5218C41.664 83.5609 41.2314 83.5977 40.9229 83.619Z"
        fill="white"/>
    <path opacity="0.6"
        d="M41.3139 83.9337C42.0773 83.8815 43.7367 83.7132 44.5238 83.7032C44.8574 83.6991 45.1498 83.9004 45.2281 84.1897C45.38 84.7514 45.3601 85.8707 45.3336 86.9042C45.3257 87.2137 45.0416 87.4608 44.6946 87.4573L41.7901 87.4295C41.4328 87.4261 41.1363 87.1825 41.1033 86.8654L40.848 84.4284C40.8212 84.1763 41.0311 83.953 41.3139 83.9337Z"
        fill="white"/>
    <g opacity="0.6">
        <path opacity="0.6"
            d="M48.3448 86.0033C48.45 86.4022 48.8124 86.6791 49.225 86.6757L82.8526 86.3888C83.2329 86.3857 83.5373 86.0721 83.529 85.6914C83.5208 85.3217 83.2198 85.0256 82.8498 85.0238L49.2213 84.8706C48.6279 84.8682 48.1933 85.4293 48.3448 86.0033Z"
            fill="white"/>
    </g>
    <path d="M41.4676 84.4121C41.7373 84.2537 42.0846 84.3482 42.2371 84.6213L42.9542 85.9062C43.026 86.0347 43.2136 86.0268 43.274 85.8925L45.052 81.9339C45.1406 81.7364 45.4347 81.8034 45.4316 82.0198C45.4134 83.2305 45.0922 85.5321 43.1576 87.4588C43.1576 87.4588 42.0915 87.0445 41.2329 85.159C41.1082 84.8865 41.2092 84.5636 41.4676 84.4121Z"
        fill="url(#paint3_linear_4121_51299)"/>
    <path d="M45.1522 95.8187C45.1488 95.8187 45.1457 95.8187 45.1422 95.8187L41.5077 95.7836C40.9885 95.7788 40.5598 95.4215 40.5106 94.9529L40.1911 91.9034C40.1722 91.7244 40.2279 91.5475 40.3478 91.4049C40.4818 91.2455 40.6845 91.1455 40.9037 91.1304C41.2098 91.1094 41.641 91.0727 42.0976 91.0338C43.0589 90.9521 44.2552 90.85 44.9282 90.8418C44.933 90.8418 44.9382 90.8418 44.943 90.8418C45.4209 90.8418 45.8321 91.1328 45.9462 91.5537C46.1355 92.2535 46.119 93.5786 46.0829 94.9904C46.0712 95.4494 45.6548 95.8187 45.1522 95.8187ZM40.9229 91.4094C40.7786 91.4193 40.6467 91.4832 40.5615 91.5849C40.491 91.6688 40.4581 91.7715 40.4687 91.8745L40.7882 94.924C40.8226 95.2515 41.1332 95.5016 41.5104 95.505L45.145 95.5401C45.1474 95.5401 45.1498 95.5401 45.1522 95.5401C45.5044 95.5401 45.796 95.292 45.8039 94.9838C45.8393 93.5938 45.8565 92.291 45.6768 91.6268C45.5964 91.3297 45.2824 91.1136 44.932 91.1211C44.2689 91.1294 43.0781 91.2307 42.1216 91.3121C41.664 91.3513 41.2314 91.3881 40.9229 91.4094Z"
        fill="white"/>
    <path opacity="0.6"
        d="M41.3139 91.7238C42.0773 91.6715 43.7367 91.5032 44.5238 91.4932C44.8574 91.4891 45.1498 91.6904 45.2281 91.9797C45.38 92.5414 45.3601 93.6608 45.3336 94.6942C45.3257 95.0038 45.0416 95.2508 44.6946 95.2474L41.7901 95.2195C41.4328 95.2161 41.1363 94.9725 41.1033 94.6554L40.848 92.2185C40.8212 91.9663 41.0311 91.743 41.3139 91.7238Z"
        fill="white"/>
    <g opacity="0.6">
        <path opacity="0.6"
            d="M48.3448 93.793C48.45 94.1919 48.8124 94.4688 49.225 94.4654L82.8526 94.1789C83.2329 94.1758 83.5373 93.8618 83.529 93.4814C83.5208 93.1118 83.2198 92.8156 82.8498 92.8139L49.2213 92.6607C48.6279 92.6576 48.1933 93.219 48.3448 93.793Z"
            fill="white"/>
    </g>
    <path d="M44.6463 64.8269C44.6429 64.8269 44.6398 64.8269 44.6364 64.8269L41.0018 64.7919C40.4827 64.7871 40.0539 64.4297 40.0048 63.9611L39.6853 60.9116C39.6664 60.7326 39.722 60.5557 39.8419 60.4131C39.9759 60.2537 40.1786 60.1537 40.3978 60.1386C40.7039 60.1177 41.1351 60.0809 41.5917 60.0421C42.553 59.9603 43.7493 59.8583 44.4223 59.85C44.4271 59.85 44.4323 59.85 44.4371 59.85C44.915 59.85 45.3263 60.141 45.4403 60.5619C45.6296 61.2617 45.6131 62.5869 45.5771 63.9986C45.5654 64.4576 45.149 64.8269 44.6463 64.8269ZM40.417 60.4176C40.2728 60.4276 40.1408 60.4915 40.0556 60.5932C39.9852 60.677 39.9522 60.7797 39.9629 60.8828L40.2824 63.9323C40.3167 64.26 40.6273 64.5098 41.0045 64.5132L44.6391 64.5483C44.6415 64.5483 44.6439 64.5483 44.6463 64.5483C44.9985 64.5483 45.2902 64.3002 45.2981 63.992C45.3335 62.602 45.3507 61.2992 45.171 60.6351C45.0906 60.3379 44.7766 60.1218 44.4261 60.1293C43.763 60.1376 42.5722 60.2389 41.6157 60.3204C41.1581 60.3595 40.7256 60.3963 40.417 60.4176Z"
        fill="white"/>
    <path opacity="0.6"
        d="M40.808 60.7316C41.5714 60.6793 43.2308 60.511 44.0179 60.501C44.3515 60.4969 44.6439 60.6982 44.7222 60.9875C44.8741 61.5493 44.8541 62.6686 44.8277 63.702C44.8198 64.0116 44.5357 64.2586 44.1887 64.2552L41.2842 64.2274C40.9268 64.2239 40.6303 63.9803 40.5974 63.6632L40.3421 61.2263C40.3156 60.9741 40.5252 60.7508 40.808 60.7316Z"
        fill="white"/>
    <g opacity="0.6">
        <path opacity="0.6"
            d="M47.839 62.8017C47.9441 63.2006 48.3066 63.4775 48.7192 63.4741L82.3467 63.1875C82.727 63.1844 83.0314 62.8704 83.0232 62.4901C83.0149 62.1204 82.714 61.8242 82.344 61.8225L48.7157 61.669C48.1221 61.6662 47.6874 62.2276 47.839 62.8017Z"
            fill="white"/>
    </g>
    <path d="M40.9634 61.2099C41.2331 61.0515 41.5805 61.146 41.733 61.4191L42.4501 62.7041C42.5219 62.8326 42.7094 62.8247 42.7699 62.6903L44.5479 58.7318C44.6365 58.5342 44.9306 58.6012 44.9275 58.8177C44.9093 60.0284 44.5881 62.3299 42.6534 64.2566C42.6534 64.2566 41.5874 63.8423 40.7288 61.9568C40.6044 61.6844 40.7054 61.3614 40.9634 61.2099Z"
        fill="#FF6C0E"/>
    <path d="M62.6376 11.8693C60.7968 10.5884 59.1958 10.6139 58.0689 10.9464C57.0409 11.2498 56.3748 12.242 56.4723 13.3095L56.9585 18.6138L62.7414 19.1271C62.741 19.1271 66.2478 14.3811 62.6376 11.8693ZM60.0946 16.1487C59.2982 16.1487 58.6526 15.5032 58.6526 14.7068C58.6526 13.9104 59.2982 13.2648 60.0946 13.2648C60.8909 13.2648 61.5365 13.9104 61.5365 14.7068C61.5365 15.5032 60.8909 16.1487 60.0946 16.1487Z"
        fill="url(#paint4_linear_4121_51299)"/>
    <path d="M57.5358 16.3826C57.4643 16.3826 57.4035 16.3283 57.397 16.2558L57.3197 15.411C57.3125 15.3344 57.3691 15.2664 57.4458 15.2595C57.5241 15.2523 57.5904 15.309 57.5973 15.3859L57.6746 16.2307C57.6818 16.3074 57.6251 16.3754 57.5485 16.3823C57.5444 16.3826 57.5402 16.3826 57.5358 16.3826ZM57.3843 14.7273C57.3128 14.7273 57.252 14.673 57.2455 14.6005L57.1867 13.9591C57.0936 12.9425 57.7333 11.9956 58.7077 11.708C59.3979 11.5043 60.1091 11.4751 60.8213 11.6211C60.8969 11.6366 60.9453 11.7105 60.9299 11.786C60.9144 11.8613 60.8412 11.9097 60.7653 11.8946C60.0981 11.7582 59.4326 11.785 58.7867 11.9757C57.9395 12.2258 57.3836 13.0493 57.4647 13.9337L57.5234 14.5751C57.5306 14.6517 57.4739 14.7197 57.3973 14.7266C57.3929 14.7273 57.3884 14.7273 57.3843 14.7273Z"
        fill="#91B3FA"/>
    <path d="M49.0664 22.0412V19.3745C49.0664 18.4541 49.8295 17.7164 50.7495 17.748L69.1361 18.3781C69.9521 18.406 70.6128 19.0502 70.6619 19.8651L70.8155 22.4274L49.0664 22.0412Z"
        fill="url(#paint5_linear_4121_51299)"/>
    <path d="M55.9222 18.7531H55.1317C55.0547 18.7531 54.9922 18.6906 54.9922 18.6136C54.9922 18.5363 55.0547 18.4741 55.1317 18.4741H55.9222C55.9992 18.4741 56.0617 18.5366 56.0617 18.6136C56.0617 18.6906 55.9992 18.7531 55.9222 18.7531Z"
        fill="#91B3FA"/>
    <path d="M50.0614 21.2041C49.9844 21.2041 49.9219 21.1416 49.9219 21.0646V19.9858C49.9219 19.1523 50.6001 18.4741 51.4336 18.4741H54.3405C54.4174 18.4741 54.48 18.5366 54.48 18.6136C54.48 18.6906 54.4174 18.7531 54.3405 18.7531H51.4336C50.754 18.7531 50.2009 19.3062 50.2009 19.9858V21.0646C50.2009 21.1416 50.1383 21.2041 50.0614 21.2041Z"
        fill="#91B3FA"/>
    <path d="M41.5727 22.7154C41.617 21.7919 42.3787 21.066 43.3032 21.066L75.4555 21.0649C76.6116 21.0649 77.6 21.8967 77.7972 23.036L77.8244 23.1933C78.0405 24.4412 77.0799 25.5825 75.8135 25.5825H42.827C42.0691 25.5825 41.4651 24.949 41.5016 24.1917L41.5727 22.7154Z"
        fill="#7D97F4"/>
    <path d="M64 27.3939L81.9385 64L105 12L81.0461 38.912L64 27.3939Z"
        fill="#FF6C0E"/>
    <defs>
        <linearGradient id="paint0_linear_4121_51299"
            x1="114.258"
            y1="1.33421"
            x2="23.7788"
            y2="104.696"
            gradientUnits="userSpaceOnUse">
            <stop stop-color="#DAE3FE"/>
            <stop offset="1"
                stop-color="#E9EFFD"/>
        </linearGradient>
        <linearGradient id="paint1_linear_4121_51299"
            x1="88.4624"
            y1="80.8501"
            x2="101.073"
            y2="83.069"
            gradientUnits="userSpaceOnUse">
            <stop stop-color="#DAE3FE"/>
            <stop offset="1"
                stop-color="#E9EFFD"/>
        </linearGradient>
        <linearGradient id="paint2_linear_4121_51299"
            x1="60.9782"
            y1="101.037"
            x2="56.2907"
            y2="-37.7145"
            gradientUnits="userSpaceOnUse">
            <stop stop-color="#09005D"/>
            <stop offset="1"
                stop-color="#1A0F91"/>
        </linearGradient>
        <linearGradient id="paint3_linear_4121_51299"
            x1="58.3936"
            y1="63.5615"
            x2="33.9741"
            y2="97.6093"
            gradientUnits="userSpaceOnUse">
            <stop stop-color="#E1473D"/>
            <stop offset="1"
                stop-color="#E9605A"/>
        </linearGradient>
        <linearGradient id="paint4_linear_4121_51299"
            x1="68.3237"
            y1="4.26173"
            x2="44.8811"
            y2="35.1"
            gradientUnits="userSpaceOnUse">
            <stop stop-color="#09005D"/>
            <stop offset="1"
                stop-color="#1A0F91"/>
        </linearGradient>
        <linearGradient id="paint5_linear_4121_51299"
            x1="70.8955"
            y1="6.21614"
            x2="47.4528"
            y2="37.0544"
            gradientUnits="userSpaceOnUse">
            <stop stop-color="#09005D"/>
            <stop offset="1"
                stop-color="#1A0F91"/>
        </linearGradient>
    </defs>
</svg>
