<svg width="281" height="243" viewBox="0 0 281 243" fill="none" xmlns="http://www.w3.org/2000/svg">
<g clip-path="url(#clip0_21_4869)">
<path d="M194.94 225.69H189.15V225.86H194.94V225.69Z" fill="#EBEBEB"/>
<path d="M48.2 218.82H43.98V218.99H48.2V218.82Z" fill="#EBEBEB"/>
<path d="M277.82 6.01953H230.37V167H277.82V6.01953Z" fill="#FAFAFA"/>
<path d="M279.02 63H219.69V165.59H279.02V63Z" fill="#FFE2CF"/>
<path d="M231.09 48.6699V74.3999H235.77H262.95H267.63V48.6699H231.09Z" fill="#FFE2CF"/>
<path d="M231.09 66.8096H223.5V74.3996H231.09V66.8096Z" fill="#FAFAFA"/>
<path d="M245.8 66.8096H238.21V74.3996H245.8V66.8096Z" fill="#FAFAFA"/>
<path d="M260.51 66.8096H252.92V74.3996H260.51V66.8096Z" fill="#FAFAFA"/>
<path d="M275.23 66.8096H267.63V74.3996H275.23V66.8096Z" fill="#FFD3B7"/>
<path d="M231.09 80.6104H223.5V88.2104H231.09V80.6104Z" fill="#F0F0F0"/>
<path d="M245.8 80.6104H238.21V88.2104H245.8V80.6104Z" fill="#FFD3B7"/>
<path d="M260.51 80.6104H252.92V88.2104H260.51V80.6104Z" fill="#FAFAFA"/>
<path d="M275.23 80.6104H267.63V88.2104H275.23V80.6104Z" fill="#FAFAFA"/>
<path d="M231.09 94.4102H223.5V102H231.09V94.4102Z" fill="#F0F0F0"/>
<path d="M245.8 94.4102H238.21V102H245.8V94.4102Z" fill="#FAFAFA"/>
<path d="M260.51 94.4102H252.92V102H260.51V94.4102Z" fill="#FAFAFA"/>
<path d="M245.8 54.8701H238.21V62.4601H245.8V54.8701Z" fill="#FAFAFA"/>
<path d="M260.51 54.8701H252.92V62.4601H260.51V54.8701Z" fill="#FFD3B7"/>
<path d="M275.23 94.4102H267.63V102H275.23V94.4102Z" fill="#FFD3B7"/>
<path d="M231.09 108.21H223.5V115.8H231.09V108.21Z" fill="#FAFAFA"/>
<path d="M245.8 108.21H238.21V115.8H245.8V108.21Z" fill="#FFD3B7"/>
<path d="M260.51 108.21H252.92V115.8H260.51V108.21Z" fill="#FFD3B7"/>
<path d="M275.23 108.21H267.63V115.8H275.23V108.21Z" fill="#FAFAFA"/>
<path d="M231.09 122.01H223.5V129.61H231.09V122.01Z" fill="#F0F0F0"/>
<path d="M245.8 122.01H238.21V129.61H245.8V122.01Z" fill="#FAFAFA"/>
<path d="M260.51 122.01H252.92V129.61H260.51V122.01Z" fill="#FAFAFA"/>
<path d="M275.23 122.01H267.63V129.61H275.23V122.01Z" fill="#FFD3B7"/>
<path d="M231.09 135.81H223.5V143.4H231.09V135.81Z" fill="#F0F0F0"/>
<path d="M245.8 135.81H238.21V143.4H245.8V135.81Z" fill="#FAFAFA"/>
<path d="M260.51 135.81H252.92V143.4H260.51V135.81Z" fill="#F0F0F0"/>
<path d="M275.23 135.81H267.63V143.4H275.23V135.81Z" fill="#FAFAFA"/>
<path d="M231.09 149.61H223.5V157.21H231.09V149.61Z" fill="#FAFAFA"/>
<path d="M245.8 149.61H238.21V157.21H245.8V149.61Z" fill="#FAFAFA"/>
<path d="M260.51 149.61H252.92V157.21H260.51V149.61Z" fill="#F0F0F0"/>
<path d="M275.23 149.61H267.63V157.21H275.23V149.61Z" fill="#F0F0F0"/>
<path d="M278.21 3.98047H229.96V8.06047H278.21V3.98047Z" fill="#FFE2CF"/>
<path d="M278.21 165.59H229.96V169.67H278.21V165.59Z" fill="#FFE2CF"/>
<path d="M280.09 173.16H227.78V0H280.09V173.16ZM231.77 169.16H276.11V4H231.77V169.16Z" fill="#FFF0E7"/>
<path d="M226.05 6.01953H178.6V167H226.05V6.01953Z" fill="#FAFAFA"/>
<path d="M222.46 116.36H181.88V166.16H222.46V116.36Z" fill="#E6E6E6"/>
<path d="M218.93 121.88H209.49H206.89H204.29V127.08H206.89H209.49H218.93V121.88Z" fill="#E6E6E6"/>
<path d="M218.93 131.94H209.49H206.89H204.29V137.13H206.89H209.49H218.93V131.94Z" fill="#FAFAFA"/>
<path d="M218.93 142H209.49H206.89H204.29V147.19H206.89H209.49H218.93V142Z" fill="#E6E6E6"/>
<path d="M218.93 152.07H209.49H205.48H204.3V157.26H205.48H209.49H218.93V152.07Z" fill="#FAFAFA"/>
<path d="M200.05 121.88H190.61H188.01H185.41V127.08H188.01H190.61H200.05V121.88Z" fill="#FAFAFA"/>
<path d="M200.05 131.94H190.61H186.95H185.42V137.13H186.95H190.61H200.05V131.94Z" fill="#FAFAFA"/>
<path d="M200.05 142H190.61H188.01H185.41V147.19H188.01H190.61H200.05V142Z" fill="#E6E6E6"/>
<path d="M200.05 152.07H190.61H188.01H185.41V157.26H188.01H190.61H200.05V152.07Z" fill="#FAFAFA"/>
<path opacity="0.1" d="M225.9 6.01953H178.45V167H225.9V6.01953Z" fill="white"/>
<g opacity="0.3">
<path opacity="0.3" d="M221.32 6.01953H206.2L189.64 167H204.77L221.32 6.01953Z" fill="white"/>
</g>
<path d="M226.45 3.98047H178.2V8.06047H226.45V3.98047Z" fill="#FFE2CF"/>
<path d="M226.45 165.59H178.2V169.67H226.45V165.59Z" fill="#EBEBEB"/>
<path d="M228.33 173.16H176.02V0H228.33V173.16ZM180.01 169.16H224.35V4H180.01V169.16Z" fill="#FFF0E7"/>
<path d="M101.72 6.01953H54.27V167H101.72V6.01953Z" fill="#FAFAFA"/>
<path opacity="0.1" d="M101.62 6.01953H54.17V167H101.62V6.01953Z" fill="white"/>
<g opacity="0.3">
<path opacity="0.3" d="M96.99 6.01953H81.86L65.31 167H80.43L96.99 6.01953Z" fill="white"/>
</g>
<path d="M102.12 3.98047H53.87V8.06047H102.12V3.98047Z" fill="#FFE2CF"/>
<path d="M102.12 165.59H53.87V169.67H102.12V165.59Z" fill="#EBEBEB"/>
<path d="M104 173.16H51.69V0H104V173.16ZM55.68 169.16H100.01V4H55.68V169.16Z" fill="#FFF0E7"/>
<path d="M50.03 6.01953H2.58002V167H50.03V6.01953Z" fill="#FAFAFA"/>
<path d="M42.88 74.1904H6.15002V105.01H42.88V74.1904Z" fill="#FFE2CF"/>
<path d="M13.2 78.04H8.5V82.74H13.2V78.04Z" fill="#FAFAFA"/>
<path d="M22.31 78.04H17.61V82.74H22.31V78.04Z" fill="#FAFAFA"/>
<path d="M31.42 78.04H26.72V82.74H31.42V78.04Z" fill="#FAFAFA"/>
<path d="M40.53 78.04H35.83V82.74H40.53V78.04Z" fill="#FAFAFA"/>
<path d="M13.2 86.5801H8.5V91.2801H13.2V86.5801Z" fill="#FAFAFA"/>
<path d="M22.31 86.5801H17.61V91.2801H22.31V86.5801Z" fill="#FAFAFA"/>
<path d="M31.42 86.5801H26.72V91.2801H31.42V86.5801Z" fill="#FAFAFA"/>
<path d="M40.53 86.5801H35.83V91.2801H40.53V86.5801Z" fill="#FFD3B7"/>
<path d="M13.2 95.1201H8.5V99.8201H13.2V95.1201Z" fill="#FFD3B7"/>
<path d="M22.31 95.1201H17.61V99.8201H22.31V95.1201Z" fill="#FFD3B7"/>
<path d="M31.42 95.1201H26.72V99.8201H31.42V95.1201Z" fill="#FAFAFA"/>
<path d="M40.53 95.1201H35.83V99.8201H40.53V95.1201Z" fill="#FFD3B7"/>
<path d="M42.88 104.63H6.15002V135.45H42.88V104.63Z" fill="#FFE2CF"/>
<path d="M13.2 108.47H8.5V113.17H13.2V108.47Z" fill="#FAFAFA"/>
<path d="M22.31 108.47H17.61V113.17H22.31V108.47Z" fill="#FAFAFA"/>
<path d="M31.42 108.47H26.72V113.17H31.42V108.47Z" fill="#FAFAFA"/>
<path d="M40.53 108.47H35.83V113.17H40.53V108.47Z" fill="#FAFAFA"/>
<path d="M13.2 117.01H8.5V121.71H13.2V117.01Z" fill="#FAFAFA"/>
<path d="M22.31 117.01H17.61V121.71H22.31V117.01Z" fill="#FAFAFA"/>
<path d="M31.42 117.01H26.72V121.71H31.42V117.01Z" fill="#FAFAFA"/>
<path d="M40.53 117.01H35.83V121.71H40.53V117.01Z" fill="#E6E6E6"/>
<path d="M13.2 125.55H8.5V130.25H13.2V125.55Z" fill="#FFD3B7"/>
<path d="M22.31 125.55H17.61V130.25H22.31V125.55Z" fill="#E6E6E6"/>
<path d="M31.42 125.55H26.72V130.25H31.42V125.55Z" fill="#FAFAFA"/>
<path d="M40.53 125.55H35.83V130.25H40.53V125.55Z" fill="#E6E6E6"/>
<path d="M42.88 135.06H6.15002V165.88H42.88V135.06Z" fill="#FFE2CF"/>
<path d="M13.2 138.9H8.5V143.6H13.2V138.9Z" fill="#FAFAFA"/>
<path d="M22.31 138.9H17.61V143.6H22.31V138.9Z" fill="#FAFAFA"/>
<path d="M31.42 138.9H26.72V143.6H31.42V138.9Z" fill="#FAFAFA"/>
<path d="M40.53 138.9H35.83V143.6H40.53V138.9Z" fill="#FAFAFA"/>
<path d="M13.2 147.45H8.5V152.15H13.2V147.45Z" fill="#FAFAFA"/>
<path d="M22.31 147.45H17.61V152.15H22.31V147.45Z" fill="#FAFAFA"/>
<path d="M31.42 147.45H26.72V152.15H31.42V147.45Z" fill="#FAFAFA"/>
<path d="M40.53 147.45H35.83V152.15H40.53V147.45Z" fill="#E6E6E6"/>
<path d="M13.2 155.99H8.5V160.69H13.2V155.99Z" fill="#E6E6E6"/>
<path d="M22.31 155.99H17.61V160.69H22.31V155.99Z" fill="#E6E6E6"/>
<path d="M31.42 155.99H26.72V160.69H31.42V155.99Z" fill="#FAFAFA"/>
<path d="M40.53 155.99H35.83V160.69H40.53V155.99Z" fill="#E6E6E6"/>
<path d="M50.44 3.98047H2.17999V8.06047H50.43V3.98047H50.44Z" fill="#FFE2CF"/>
<path d="M50.44 165.59H2.17999V169.67H50.43V165.59H50.44Z" fill="#FFEDE2"/>
<path d="M52.31 173.16H0V0H52.31V173.16ZM3.99 169.16H48.32V4H3.99V169.16Z" fill="#FFF0E7"/>
<path d="M136.53 194.66L136 194.73C135.97 194.46 132.73 167.36 139.41 145.23C146.07 123.25 141.48 109.2 141.41 109.07L141.92 108.9C141.97 109.04 146.58 123.23 139.92 145.39C133.27 167.41 136.5 194.39 136.53 194.66Z" fill="#FFE2CF"/>
<path d="M142.38 112.07C141.22 110.69 139.64 109.71 137.88 109.29L138.01 108.76C139.88 109.2 141.56 110.24 142.8 111.72L142.38 112.07Z" fill="#FFE2CF"/>
<path d="M144.66 114.32L143.12 115.19L143.38 115.66L144.92 114.79L144.66 114.32Z" fill="#FFE2CF"/>
<path d="M141.8 126.81C140.46 123.76 137.98 121.35 134.89 120.1L135.09 119.61C138.31 120.91 140.9 123.42 142.3 126.6L141.8 126.81Z" fill="#FFE2CF"/>
<path d="M140.36 143.73H139.82C139.8 142.64 139.54 141.57 139.06 140.59C138.58 139.61 137.89 138.75 137.03 138.08L137.36 137.66C138.28 138.39 139.02 139.31 139.54 140.36C140.06 141.41 140.34 142.56 140.36 143.73Z" fill="#FFE2CF"/>
<path d="M139.16 148.06L138.65 147.87C138.93 147.18 139.34 146.56 139.87 146.04C140.4 145.52 141.03 145.11 141.72 144.85L141.91 145.36C141.29 145.6 140.73 145.96 140.26 146.43C139.78 146.88 139.41 147.44 139.16 148.06Z" fill="#FFE2CF"/>
<path d="M135.67 175.52L135.26 175.18C135.93 174.39 136.41 171.38 136.68 169.77C136.74 169.38 136.79 169.06 136.84 168.82L137.37 168.92C137.33 169.15 137.28 169.48 137.21 169.86C136.81 172.27 136.36 174.69 135.67 175.52Z" fill="#E0E0E0"/>
<path d="M135.36 184.14C134.98 183.08 134.29 182.17 133.37 181.54C132.45 180.91 131.35 180.58 130.23 180.6V180.06C131.47 180.03 132.68 180.39 133.7 181.1C134.72 181.8 135.49 182.81 135.9 183.98L135.36 184.14Z" fill="#E0E0E0"/>
<path d="M139.47 189.78L135.68 194.02L136.08 194.38L139.87 190.14L139.47 189.78Z" fill="#E0E0E0"/>
<path d="M142.18 162.12C143.04 164.9 137.05 170.19 137.05 170.19C137.05 170.19 129.12 169.2 128.26 166.41C127.4 163.63 129.41 159.08 133.26 157.9C137.1 156.72 141.29 159.34 142.18 162.12Z" fill="#FFF0E7"/>
<path d="M148.8 128.39C148.04 131.34 142.37 133.44 142.37 133.44C142.37 133.44 138.41 128.87 139.17 125.91C139.93 122.96 143.07 119.7 145.72 120.39C148.38 121.08 149.56 125.44 148.8 128.39Z" fill="#FFF0E7"/>
<path d="M126.04 172.49C129.6 173.88 131.78 180.17 131.78 180.17C131.78 180.17 125.91 183.33 122.35 181.95C118.79 180.56 115.02 176.62 116.04 174.04C117.05 171.48 122.48 171.11 126.04 172.49Z" fill="#FFF0E7"/>
<path d="M133.85 137.84C134.57 138.44 135.39 138.91 136.28 139.22C136.73 139.36 137.21 139.38 137.66 139.27C138.12 139.16 138.54 138.93 138.87 138.6C139.64 137.72 139.43 136.36 138.95 135.3C138 133.2 134.49 129.65 131.79 130.64C127.9 132.15 132.11 136.56 133.85 137.84Z" fill="#FFF0E7"/>
<path d="M141.81 143.19C141.3 143.82 140.76 144.62 141.04 145.38C141.2 145.7 141.46 145.97 141.79 146.13C142.11 146.29 142.48 146.34 142.84 146.26C143.54 146.1 144.2 145.77 144.77 145.32C146.14 144.36 148.96 142.36 147.16 140.49C145.35 138.62 142.88 141.85 141.81 143.19Z" fill="#FFF0E7"/>
<path d="M130.32 116.55C130.02 116.57 129.74 116.67 129.51 116.86C129.28 117.05 129.11 117.3 129.03 117.59C128.92 118.26 129.48 118.87 130.03 119.29C131.39 120.34 135.49 123.18 136.41 120.44C137.28 117.86 132.13 116.33 130.32 116.55Z" fill="#FFF0E7"/>
<path d="M137.87 107.55C137.02 107.63 136.18 107.32 135.33 107.38C134.48 107.43 133.54 108.11 133.73 108.95C133.92 109.78 134.85 109.97 135.63 110.02C136.97 110.1 138.31 110.01 139.63 109.74C139.94 109.71 140.23 109.57 140.44 109.33C140.79 108.82 140.24 108.14 139.65 108C139.05 107.92 138.45 107.78 137.88 107.58L137.87 107.55Z" fill="#FFF0E7"/>
<path d="M146.17 113.37C147.02 113.37 147.84 113.03 148.69 113.03C149.54 113.03 150.52 113.64 150.39 114.48C150.26 115.32 149.33 115.58 148.55 115.68C147.22 115.86 145.88 115.86 144.55 115.68C144.24 115.67 143.94 115.55 143.71 115.33C143.34 114.84 143.84 114.14 144.38 113.92C144.98 113.8 145.56 113.62 146.12 113.38L146.17 113.37Z" fill="#FFF0E7"/>
<path d="M145.3 175.94C145.49 175.74 145.75 175.61 146.03 175.58C146.21 175.6 146.38 175.68 146.51 175.81C146.64 175.94 146.72 176.11 146.75 176.29C146.79 176.65 146.74 177.02 146.62 177.36C146.04 179.29 139.58 193.24 138.09 190.73C137.21 189.24 139.38 184.34 140.02 182.95C141.24 180.26 143.04 177.87 145.3 175.94Z" fill="#F0F0F0"/>
<path d="M141.44 108.07C141.86 106.89 142.57 105.83 143.51 105.01C144.53 104.27 146.17 104.22 146.91 105.24C147.74 106.38 146.91 108.11 145.64 108.72C144.37 109.33 142.88 109.14 141.48 108.95C141.48 108.74 141.48 108.54 141.45 108.33L141.44 108.07Z" fill="#FFF0E7"/>
<path d="M145.95 213.27C139.03 214.45 131.96 214.45 125.04 213.27L116.91 189.29H154.09L145.95 213.27Z" fill="#F0F0F0"/>
<path d="M141.24 33.7304C148.86 33.7304 155.05 27.5504 155.05 19.9204C155.05 12.2904 148.87 6.11035 141.24 6.11035C133.61 6.11035 127.43 12.2904 127.43 19.9204C127.43 27.5504 133.61 33.7304 141.24 33.7304Z" fill="#FFE2CF"/>
<path d="M153.94 21.5698C155.16 14.0398 150.05 6.94982 142.52 5.72982C134.99 4.50982 127.9 9.61982 126.68 17.1498C125.46 24.6798 130.57 31.7698 138.1 32.9898C145.63 34.1998 152.72 29.0898 153.94 21.5698Z" fill="#FFF0E7"/>
<path opacity="0.8" d="M151.39 19.4401C151.39 21.6301 150.74 23.7701 149.52 25.6001C148.3 27.4201 146.57 28.8401 144.55 29.6801C142.53 30.5201 140.3 30.7401 138.15 30.3101C136 29.8801 134.03 28.8301 132.47 27.2801C130.92 25.7301 129.87 23.7601 129.44 21.6101C129.01 19.4601 129.23 17.2301 130.07 15.2101C130.91 13.1901 132.33 11.4501 134.15 10.2401C135.97 9.02012 138.11 8.37012 140.31 8.37012C143.25 8.37012 146.07 9.54012 148.15 11.6201C150.22 13.6801 151.39 16.5001 151.39 19.4401Z" fill="white"/>
<path d="M139.71 20.4901C139.5 20.2801 139.38 19.9901 139.38 19.7001C139.38 19.4001 139.5 19.1201 139.71 18.9101C139.92 18.7001 140.21 18.5801 140.5 18.5801C140.8 18.5801 141.08 18.7001 141.29 18.9101C141.39 19.0101 141.48 19.1401 141.54 19.2801C141.6 19.4201 141.63 19.5601 141.63 19.7101C141.63 19.8601 141.6 20.0101 141.55 20.1401C141.49 20.2801 141.41 20.4001 141.3 20.5101C141.2 20.6101 141.07 20.7001 140.93 20.7501C140.79 20.8101 140.65 20.8401 140.5 20.8401C140.35 20.8401 140.21 20.8101 140.07 20.7501C139.93 20.6701 139.81 20.5901 139.71 20.4901Z" fill="#FFF0E7"/>
<path d="M140.31 19.3104L146.85 19.1104L146.87 19.7904L140.94 19.9704L140.3 30.2804L139.63 30.2404L140.31 19.3104Z" fill="#FFF0E7"/>
<path d="M140.85 242.88C212.17 242.88 269.98 239.5 269.98 235.34C269.98 231.18 212.17 227.8 140.85 227.8C69.53 227.8 11.72 231.18 11.72 235.34C11.71 239.5 69.53 242.88 140.85 242.88Z" fill="#F5F5F5"/>
<path d="M260.96 200.19L264.34 146.34C264.64 141.6 263.96 136.86 262.35 132.39C260.74 127.93 258.24 123.84 254.99 120.38C251.74 116.92 247.82 114.17 243.46 112.28C239.1 110.4 234.41 109.42 229.66 109.42C220.79 109.42 212.25 112.82 205.8 118.91C199.35 125.01 195.48 133.34 194.98 142.2L191.45 205.1H255.72C257.05 205.1 258.33 204.59 259.3 203.68C260.29 202.76 260.87 201.52 260.96 200.19Z" fill="#407BFF"/>
<path opacity="0.1" d="M261.08 198.25L264.34 146.35C264.64 141.61 263.96 136.87 262.35 132.4C260.74 127.94 258.24 123.85 254.99 120.39C251.74 116.93 247.82 114.17 243.46 112.29C239.1 110.41 234.41 109.43 229.66 109.43C220.79 109.43 212.25 112.83 205.8 118.92C199.35 125.02 195.48 133.35 194.98 142.21L191.45 205.09H253.78C255.64 205.08 257.42 204.37 258.77 203.1C260.14 201.84 260.96 200.1 261.08 198.25Z" fill="black"/>
<path d="M250.53 205.1L254.22 146.34C254.52 141.6 253.84 136.86 252.23 132.39C250.62 127.93 248.12 123.84 244.87 120.38C241.62 116.92 237.7 114.16 233.34 112.28C228.99 110.39 224.29 109.42 219.55 109.42C210.68 109.42 202.14 112.82 195.69 118.91C189.24 125.01 185.37 133.34 184.87 142.2L181.32 205.1H250.53Z" fill="#407BFF"/>
<path d="M251.63 215.21H252.52C252.76 215.2 252.99 215.1 253.16 214.94C253.33 214.77 253.44 214.55 253.47 214.32L254.8 205.11H249.41L250.74 214.32C250.76 214.55 250.87 214.77 251.03 214.93C251.19 215.08 251.4 215.19 251.63 215.21Z" fill="#407BFF"/>
<path opacity="0.7" d="M251.63 215.21H252.52C252.76 215.2 252.99 215.1 253.16 214.94C253.33 214.77 253.44 214.55 253.47 214.32L254.8 205.11H249.41L250.74 214.32C250.76 214.55 250.87 214.77 251.03 214.93C251.19 215.08 251.4 215.19 251.63 215.21Z" fill="white"/>
<path d="M164.62 215.21H165.42C165.65 215.19 165.86 215.08 166.02 214.92C166.18 214.75 166.27 214.54 166.28 214.31L167.49 205.1H162.59L163.78 214.31C163.79 214.54 163.89 214.75 164.04 214.91C164.19 215.08 164.4 215.19 164.62 215.21Z" fill="#407BFF"/>
<path opacity="0.5" d="M164.62 215.21H165.42C165.65 215.19 165.86 215.08 166.02 214.92C166.18 214.75 166.27 214.54 166.28 214.31L167.49 205.1H162.59L163.78 214.31C163.79 214.54 163.89 214.75 164.04 214.91C164.19 215.08 164.4 215.19 164.62 215.21Z" fill="white"/>
<path d="M189.67 215.21H190.48C190.71 215.19 190.92 215.08 191.08 214.92C191.24 214.75 191.33 214.54 191.34 214.31L192.53 205.1H187.63L188.8 214.31C188.81 214.54 188.91 214.76 189.07 214.92C189.23 215.09 189.44 215.19 189.67 215.21Z" fill="#407BFF"/>
<path opacity="0.7" d="M189.67 215.21H190.48C190.71 215.19 190.92 215.08 191.08 214.92C191.24 214.75 191.33 214.54 191.34 214.31L192.53 205.1H187.63L188.8 214.31C188.81 214.54 188.91 214.76 189.07 214.92C189.23 215.09 189.44 215.19 189.67 215.21Z" fill="white"/>
<path d="M224.66 215.21H225.55C225.79 215.2 226.02 215.1 226.19 214.93C226.36 214.77 226.47 214.55 226.5 214.31L227.83 205.1H222.43L223.76 214.31C223.78 214.54 223.89 214.76 224.05 214.92C224.22 215.09 224.43 215.19 224.66 215.21Z" fill="#407BFF"/>
<path opacity="0.5" d="M224.66 215.21H225.55C225.79 215.2 226.02 215.1 226.19 214.93C226.36 214.77 226.47 214.55 226.5 214.31L227.83 205.1H222.43L223.76 214.31C223.78 214.54 223.89 214.76 224.05 214.92C224.22 215.09 224.43 215.19 224.66 215.21Z" fill="white"/>
<path d="M195.34 182.93H171.66L170.09 160.1L169.75 155.2L169.6 152.94C169.56 152.35 169.48 151.76 169.37 151.18C169.37 151.05 169.32 150.91 169.29 150.79C169.28 150.69 169.25 150.6 169.22 150.51C168.58 148.18 167.34 146.07 165.62 144.38C163.63 142.42 161.01 141.23 158.22 141.05H180.5C180.74 141.05 180.99 141.05 181.23 141.05C184.25 141.06 187.14 142.26 189.3 144.38C191.02 146.07 192.27 148.19 192.91 150.51C192.94 150.6 192.97 150.69 192.98 150.79C193.14 151.5 193.24 152.22 193.29 152.95L193.44 155.21L195.34 182.93Z" fill="#407BFF"/>
<path opacity="0.1" d="M195.34 182.93H171.66L170.09 160.1L169.75 155.2L169.6 152.94C169.56 152.35 169.48 151.76 169.37 151.18C169.37 151.05 169.32 150.91 169.29 150.79C169.28 150.69 169.25 150.6 169.22 150.51C168.58 148.18 167.34 146.07 165.62 144.38C163.63 142.42 161.01 141.23 158.22 141.05H180.5C180.74 141.05 180.99 141.05 181.23 141.05C184.25 141.06 187.14 142.26 189.3 144.38C191.02 146.07 192.27 148.19 192.91 150.51C192.94 150.6 192.97 150.69 192.98 150.79C193.14 151.5 193.24 152.22 193.29 152.95L193.44 155.21L195.34 182.93Z" fill="black"/>
<g opacity="0.1">
<path opacity="0.1" d="M214.11 170.74H223.62C225.94 170.74 227.81 172.2 227.81 174.01V179.63C227.81 181.44 225.94 182.9 223.62 182.9H214.11V170.74Z" fill="black"/>
</g>
<path d="M175.27 182.9H217.16C219.15 182.9 220.77 181.28 220.77 179.29V174.34C220.77 172.35 219.15 170.73 217.16 170.73H175.27C173.28 170.73 171.66 172.35 171.66 174.34V179.29C171.66 181.29 173.28 182.9 175.27 182.9Z" fill="#407BFF"/>
<path d="M274.05 154.47C274.06 157.65 272.93 160.74 270.89 163.18C268.84 165.62 266 167.25 262.86 167.8L260.43 200.25C260.22 203.01 258.21 205.12 255.81 205.12H229.69C232.09 205.12 234.09 203.01 234.3 200.25L235.63 182.93L236.75 167.77C238.8 167.42 240.75 166.59 242.43 165.36C244.11 164.13 245.48 162.52 246.43 160.67C246.56 160.43 246.68 160.19 246.78 159.94C247.55 158.22 247.95 156.35 247.94 154.47C247.94 153.55 247.84 152.62 247.66 151.72C247.59 151.36 247.49 151 247.39 150.65C246.92 149.06 246.16 147.58 245.15 146.26C243.89 144.62 242.27 143.29 240.41 142.37C238.55 141.45 236.51 140.98 234.44 140.97H260.56C262.65 140.96 264.72 141.45 266.59 142.4C268.42 143.31 270.01 144.62 271.25 146.24C273.07 148.6 274.05 151.5 274.05 154.47Z" fill="#407BFF"/>
<path opacity="0.1" d="M274.05 154.47C274.06 157.65 272.93 160.74 270.89 163.18C268.84 165.62 266 167.25 262.86 167.8L260.43 200.25C260.22 203.01 258.21 205.12 255.81 205.12H229.69C232.09 205.12 234.09 203.01 234.3 200.25L235.63 182.93L236.75 167.77C238.8 167.42 240.75 166.59 242.43 165.36C244.11 164.13 245.48 162.52 246.43 160.67C246.56 160.43 246.68 160.19 246.78 159.94C247.55 158.22 247.95 156.35 247.94 154.47C247.94 153.55 247.84 152.62 247.66 151.72C247.59 151.36 247.49 151 247.39 150.65C246.92 149.06 246.16 147.58 245.15 146.26C243.89 144.62 242.27 143.29 240.41 142.37C238.55 141.45 236.51 140.98 234.44 140.97H260.56C262.65 140.96 264.72 141.45 266.59 142.4C268.42 143.31 270.01 144.62 271.25 146.24C273.07 148.6 274.05 151.5 274.05 154.47Z" fill="black"/>
<path d="M247.95 154.48C247.95 161.14 243.56 166.69 237.8 167.8L235.57 200.25C235.38 203.01 233.57 205.13 231.39 205.13H161.63C159.46 205.13 157.63 203.01 157.45 200.25L155.22 167.74C149.57 166.55 145.3 161.08 145.3 154.5C145.29 151.74 146.07 149.03 147.56 146.7C148.69 144.92 150.24 143.46 152.07 142.43C153.74 141.49 155.62 141 157.54 141C160.56 141.02 163.46 142.21 165.61 144.33C167.33 146.02 168.58 148.13 169.21 150.46C169.24 150.56 169.27 150.65 169.28 150.75C169.44 151.46 169.54 152.18 169.59 152.9L169.75 155.16L171.65 182.93H221.36L223.42 152.96C223.71 148.72 225.78 145.19 228.64 143.52C230.45 142.07 232.66 141.21 234.97 141.06C235.21 141.04 235.46 141.03 235.7 141.03C237.56 141.02 239.39 141.48 241.03 142.36C241.08 142.38 241.13 142.41 241.18 142.44C242.87 143.38 244.32 144.69 245.42 146.28C247.07 148.7 247.95 151.56 247.95 154.48Z" fill="#407BFF"/>
<path opacity="0.1" d="M220.21 205.1H161.6C159.43 205.1 157.6 202.98 157.42 200.22L155.19 167.71C149.54 166.52 145.27 161.05 145.27 154.47C145.26 151.71 146.04 149 147.53 146.67C148.65 144.89 150.2 143.43 152.04 142.4C153.71 141.46 155.59 140.97 157.51 140.97C160.53 140.99 163.43 142.18 165.58 144.3C167.3 145.99 168.54 148.1 169.18 150.43C169.22 150.53 169.24 150.62 169.25 150.72C169.41 151.43 169.51 152.15 169.56 152.87L169.72 155.13L171.65 182.92H221.36L220.21 205.1Z" fill="white"/>
<path d="M212.61 112.81C211.45 113.48 210.39 114.03 209.28 114.59C208.17 115.16 207.08 115.68 205.95 116.19C203.71 117.21 201.45 118.19 199.12 119.03C196.77 119.9 194.38 120.66 191.95 121.29C189.43 121.97 186.85 122.43 184.25 122.67L183.7 122.72H183.44C181.09 122.45 179.01 122.05 176.91 121.59C174.82 121.12 172.75 120.66 170.7 120.14C168.65 119.61 166.61 119.07 164.57 118.49C162.53 117.9 160.51 117.3 158.5 116.61L159.42 111.99C163.61 112.26 167.79 112.66 171.93 113.09L178.12 113.71C180.16 113.91 182.24 114.08 184.07 114.15H183.26C185.35 113.78 187.41 113.26 189.43 112.59C191.51 111.92 193.6 111.16 195.68 110.27C197.76 109.38 199.83 108.46 201.88 107.48C202.93 107 203.95 106.49 204.95 105.99C205.95 105.49 207.02 104.96 207.93 104.48L212.61 112.81Z" fill="#263238"/>
<path opacity="0.1" d="M212.61 112.81C211.45 113.48 210.39 114.03 209.28 114.59C208.17 115.16 207.08 115.68 205.95 116.19C203.71 117.21 201.45 118.19 199.12 119.03C196.77 119.9 194.38 120.66 191.95 121.29C189.43 121.97 186.85 122.43 184.25 122.67L183.7 122.72H183.44C181.09 122.45 179.01 122.05 176.91 121.59C174.82 121.12 172.75 120.66 170.7 120.14C168.65 119.61 166.61 119.07 164.57 118.49C162.53 117.9 160.51 117.3 158.5 116.61L159.42 111.99C163.61 112.26 167.79 112.66 171.93 113.09L178.12 113.71C180.16 113.91 182.24 114.08 184.07 114.15H183.26C185.35 113.78 187.41 113.26 189.43 112.59C191.51 111.92 193.6 111.16 195.68 110.27C197.76 109.38 199.83 108.46 201.88 107.48C202.93 107 203.95 106.49 204.95 105.99C205.95 105.49 207.02 104.96 207.93 104.48L212.61 112.81Z" fill="black"/>
<path d="M158.58 109.47C157.6 108.78 156.51 108.25 155.36 107.9L153.64 114.63L158.81 116.8L159.4 116.08C159.8 115.6 160.09 115.04 160.27 114.45C160.45 113.85 160.5 113.22 160.42 112.6C160.34 111.98 160.14 111.38 159.83 110.84C159.5 110.31 159.08 109.84 158.58 109.47Z" fill="#FFC3BD"/>
<path d="M153.63 114.63L155.35 107.9L150.53 105.27L149.08 110.01L153.63 114.63Z" fill="#FFC3BD"/>
<path opacity="0.2" d="M196.4 119.66H196.59H196.67C199.21 119.39 206.69 118.13 212.1 112.79C211.29 111.23 210.19 110.03 208.84 109.75C205.1 109.05 200.53 111.72 196.4 119.66Z" fill="black"/>
<path d="M200.79 154.47C207.17 137.24 202.97 121.4 203.77 112.63C203.97 110.47 204.86 108.43 206.32 106.82C207.78 105.21 209.72 104.12 211.86 103.72C216.21 102.88 221.6 101.93 226.74 101.24C228.18 101.04 229.64 101.16 231.02 101.58C232.41 102 233.69 102.71 234.77 103.67C235.85 104.63 236.72 105.81 237.3 107.14C237.88 108.47 238.18 109.9 238.15 111.35C237.7 137.32 229.38 154.47 229.38 154.47L215.93 154.41L200.79 154.47Z" fill="#407BFF"/>
<path opacity="0.8" d="M200.79 154.47C207.17 137.24 202.97 121.4 203.77 112.63C203.97 110.47 204.86 108.43 206.32 106.82C207.78 105.21 209.72 104.12 211.86 103.72C216.21 102.88 221.6 101.93 226.74 101.24C228.18 101.04 229.64 101.16 231.02 101.58C232.41 102 233.69 102.71 234.77 103.67C235.85 104.63 236.72 105.81 237.3 107.14C237.88 108.47 238.18 109.9 238.15 111.35C237.7 137.32 229.38 154.47 229.38 154.47L215.93 154.41L200.79 154.47Z" fill="white"/>
<path d="M149.74 213.26L148.03 224.47H153.44L157 213.26H149.74Z" fill="#FFC3BD"/>
<path d="M147.35 221.97L154.59 221.8C154.65 221.79 154.7 221.8 154.76 221.82C154.81 221.84 154.86 221.87 154.91 221.9C154.95 221.94 154.99 221.98 155.01 222.04C155.03 222.09 155.05 222.15 155.05 222.21V227.54C155.02 227.84 154.88 228.11 154.66 228.31C154.44 228.51 154.15 228.62 153.86 228.63C151.34 228.63 150.14 228.54 146.96 228.63C143.57 228.62 140.19 228.4 136.82 227.96C134.24 227.52 134.94 225.1 136.11 225.06C141.37 224.87 144.32 223.77 146.21 222.4C146.52 222.13 146.93 221.98 147.35 221.97Z" fill="#263238"/>
<path opacity="0.2" d="M149.06 217.76L149.75 213.27H157.02L155.28 218.88L149.06 217.76Z" fill="black"/>
<path d="M197.46 150.44C197.46 150.44 153.4 150.88 152.72 164.83C151.75 184.89 148.36 215.45 148.36 215.45L156.67 217.74C156.67 217.74 168.52 187.42 168.98 171.75C181.38 169.29 213.23 171.75 216.97 163.61C218.8 159.47 219.29 154.86 218.38 150.42L197.46 150.44Z" fill="#407BFF"/>
<path opacity="0.6" d="M197.46 150.44C197.46 150.44 153.4 150.88 152.72 164.83C151.75 184.89 148.36 215.45 148.36 215.45L156.67 217.74C156.67 217.74 168.52 187.42 168.98 171.75C181.38 169.29 213.23 171.75 216.97 163.61C218.8 159.47 219.29 154.86 218.38 150.42L197.46 150.44Z" fill="black"/>
<path d="M188.5 217.6L191.44 225.21H197.38L195.34 217.21L188.5 217.6Z" fill="#FFC3BD"/>
<path opacity="0.2" d="M195.89 219.36L194.74 213.51L187.23 214.44L189.15 219.53L195.89 219.36Z" fill="black"/>
<path d="M189.83 222.68H197.42C197.54 222.67 197.66 222.71 197.76 222.79C197.85 222.87 197.91 222.98 197.92 223.11L198.29 228.79C198.28 229.1 198.15 229.39 197.93 229.6C197.71 229.81 197.41 229.93 197.11 229.93C194.45 229.88 193.21 229.74 189.87 229.74C187.83 229.74 183.68 229.94 180.85 229.94C178.02 229.94 178.1 227.28 179.29 227.07C184.69 225.99 186.77 224.5 188.67 223.07C189 222.83 189.41 222.69 189.83 222.68Z" fill="#263238"/>
<path d="M209.3 150.44C209.3 150.44 169.34 153.15 170.33 167.09C171.4 182.35 187.41 217.75 187.41 217.75H195.46C195.46 217.75 190.13 185.64 187.68 170.08C198.95 170.08 225.06 171.78 228.82 163.62C230.64 159.48 231.13 154.87 230.22 150.43L209.3 150.44Z" fill="#407BFF"/>
<path opacity="0.5" d="M209.3 150.44C209.3 150.44 169.34 153.15 170.33 167.09C171.4 182.35 187.41 217.75 187.41 217.75H195.46C195.46 217.75 190.13 185.64 187.68 170.08C198.95 170.08 225.06 171.78 228.82 163.62C230.64 159.48 231.13 154.87 230.22 150.43L209.3 150.44Z" fill="black"/>
<path d="M215.36 93.9703C216.28 97.5303 216.57 101.96 211.6 103.79C210.22 105.99 209.55 108.31 214.86 107.48C219.09 106.93 222.93 104.76 225.58 101.42C222.4 98.6403 222.98 90.1003 223.79 85.2803L215.36 93.9703Z" fill="#FFC3BD"/>
<path d="M214.77 100.44C210.21 101.22 206.46 104.75 204.45 108.91C202.44 113.07 201.95 117.81 201.99 122.44C202.03 127.07 202.56 131.68 202.43 136.3C202.29 141.63 201 145.4 199.17 150.43C199.17 151.62 200.97 152.3 202.5 152.61C205.68 145.66 207.77 139.02 207.56 131.38C207.39 125.84 207.32 119.53 208.23 114.06C209.13 108.6 215.67 101.47 215.36 100.48L214.77 100.44Z" fill="#263238"/>
<path opacity="0.3" d="M219.23 96.5803C218.75 96.9403 218.21 97.1903 217.63 97.3303C217.05 97.4703 216.45 97.4903 215.86 97.3903C215.87 96.5203 215.81 95.6603 215.67 94.8103L221.18 90.2803C221.3 90.8703 221.38 91.4703 221.41 92.0703C221.47 92.9503 221.3 93.8303 220.92 94.6203C220.54 95.4003 219.96 96.0803 219.23 96.5803Z" fill="black"/>
<path d="M210.99 72.9301C205.16 76.2301 205.1 85.5501 206.9 90.9101C207.35 92.3201 208.19 93.5801 209.3 94.5401C210.42 95.5101 211.78 96.1501 213.24 96.3901C214.7 96.6301 216.2 96.4701 217.57 95.9201C218.94 95.3701 220.14 94.4501 221.03 93.2701C223.88 89.6701 223.47 86.0301 223.33 79.7701C223.2 73.5301 216.82 69.6401 210.99 72.9301Z" fill="#FFC3BD"/>
<path opacity="0.2" d="M212.87 89.6897C210.99 90.4997 208.93 91.5397 207.04 91.3097C207.55 92.6597 208.41 93.8497 209.54 94.7497C210.67 95.6497 212.01 96.2397 213.44 96.4397C214.87 96.6397 216.33 96.4597 217.66 95.9097C218.99 95.3597 220.16 94.4597 221.02 93.3097C223.37 90.3497 224.1 88.3497 223.43 82.9697C219.78 87.2497 216.88 87.9597 212.87 89.6897Z" fill="black"/>
<path d="M218.5 75.0402C217.89 76.0202 217.62 77.1802 217.73 78.3302C217.84 79.4802 218.31 80.5602 219.09 81.4202C219.62 81.9702 220.26 82.4002 220.77 82.9602C221.56 83.8502 221.97 85.0102 221.92 86.2002C222.04 85.4402 222.42 84.7402 223 84.2202C223.58 83.7102 224.32 83.4102 225.09 83.3802C224.3 85.8302 223.51 88.2702 222.72 90.7102C224.28 89.9802 225.64 88.8602 226.65 87.4602C227.66 86.0602 228.3 84.4302 228.5 82.7102C229 77.9802 223.16 67.8502 218.5 75.0402Z" fill="#263238"/>
<path d="M204.9 75.3596C204.45 75.8596 204.14 76.4496 203.97 77.0996C203.89 77.4196 203.91 77.7596 204.03 78.0596C204.15 78.3696 204.36 78.6296 204.63 78.8096C205.13 79.0096 205.69 79.0396 206.21 78.8896L211.54 77.9596C214.59 77.4296 217.64 76.8996 220.65 76.1696C221.98 75.8496 223.52 75.3396 224.05 74.0596C225.77 69.8996 218.41 69.3596 215.94 69.4696C211.77 69.7096 207.53 72.1196 204.9 75.3596Z" fill="#263238"/>
<path d="M224.28 82.3098C222.54 82.6998 221.79 85.2098 221.84 86.8198C221.84 88.6498 223.17 89.8398 224.72 88.7398C225.87 87.8898 226.65 86.6298 226.9 85.2198C227.21 83.4998 226.03 81.9198 224.28 82.3098Z" fill="#FFC3BD"/>
<path d="M211.95 88.6697C211.69 88.8497 211.39 88.9597 211.07 89.0097C210.76 89.0597 210.44 89.0297 210.13 88.9397C210.8 87.4397 210.72 87.7797 210.92 85.2197L211.95 88.6697Z" fill="#ED847E"/>
<path d="M215.02 80.3704C214.52 79.8104 213.15 79.6004 212.42 79.7004C212.35 79.7104 212.27 79.6904 212.21 79.6504C212.15 79.6104 212.11 79.5404 212.09 79.4604C212.08 79.3804 212.1 79.3004 212.15 79.2304C212.2 79.1604 212.27 79.1204 212.35 79.1004C213.28 78.9604 214.83 79.2404 215.47 79.9404C215.52 80.0004 215.55 80.0704 215.55 80.1504C215.55 80.2304 215.52 80.3004 215.47 80.3604C215.43 80.4004 215.39 80.4304 215.34 80.4504C215.29 80.4704 215.23 80.4704 215.17 80.4504C215.11 80.4404 215.06 80.4104 215.02 80.3704Z" fill="#263238"/>
<path d="M206.41 81.6104C206.35 81.5704 206.3 81.5004 206.29 81.4304C206.28 81.3504 206.29 81.2804 206.33 81.2104C206.56 80.7904 206.89 80.4304 207.29 80.1604C207.69 79.8904 208.14 79.7104 208.62 79.6504C208.66 79.6504 208.69 79.6604 208.73 79.6704C208.76 79.6804 208.8 79.7004 208.82 79.7304C208.85 79.7604 208.87 79.7904 208.88 79.8204C208.89 79.8504 208.9 79.8904 208.9 79.9304C208.9 80.0104 208.88 80.0904 208.82 80.1504C208.77 80.2104 208.69 80.2504 208.61 80.2504C208.23 80.3104 207.88 80.4604 207.57 80.6704C207.26 80.8904 207 81.1704 206.82 81.5104C206.8 81.5504 206.76 81.5904 206.72 81.6204C206.68 81.6504 206.63 81.6604 206.58 81.6704C206.51 81.6604 206.45 81.6504 206.41 81.6104Z" fill="#263238"/>
<path d="M211.44 91.3803C212.08 92.2003 212.67 93.0503 213.2 93.9403L213.61 93.7703C215.49 92.9603 216.02 91.8203 216.05 90.8203C216.03 90.0203 215.78 89.2403 215.34 88.5703C214.67 89.7203 212.99 90.6403 212.07 91.0903C211.68 91.2803 211.44 91.3803 211.44 91.3803Z" fill="#2E353A"/>
<path d="M212.06 91.0903L212.33 91.4603C212.4 91.5603 212.51 91.6303 212.63 91.6603C212.75 91.6903 212.88 91.6803 212.99 91.6403C214.38 90.9703 215.29 90.3103 215.65 89.5603C215.68 89.4903 215.7 89.4103 215.7 89.3303C215.7 89.2503 215.68 89.1803 215.65 89.1003C215.56 88.9203 215.46 88.7403 215.34 88.5703C214.66 89.7203 212.98 90.6403 212.06 91.0903Z" fill="white"/>
<path d="M213.61 93.7703C215.49 92.9603 216.02 91.8203 216.05 90.8203C215.34 91.1503 214.7 91.6303 214.19 92.2203C213.83 92.6603 213.63 93.2003 213.61 93.7703Z" fill="#DE5753"/>
<path d="M208.54 83.7002C208.21 83.7602 208.03 84.2302 208.13 84.7302C208.22 85.2302 208.58 85.5902 208.9 85.5202C209.23 85.4502 209.41 85.0002 209.31 84.5002C209.22 84.0002 208.87 83.7002 208.54 83.7002Z" fill="#263238"/>
<path d="M214.26 82.7801C213.93 82.8401 213.75 83.3001 213.85 83.8101C213.94 84.3201 214.3 84.6701 214.62 84.6001C214.95 84.5301 215.13 84.0701 215.03 83.5701C214.94 83.0701 214.58 82.7201 214.26 82.7801Z" fill="#263238"/>
<path opacity="0.9" d="M206.03 86.4002L210.23 85.4502L210.3 87.2402L206.39 88.1702L206.03 86.4002Z" fill="white"/>
<g opacity="0.8">
<path opacity="0.9" d="M211.51 85.1795L212.01 86.8195L217.41 85.6595L217.09 83.7695L211.51 85.1795Z" fill="white"/>
</g>
<path d="M210.26 86.1099L210.23 85.4499L211.51 85.1699L211.7 85.7899L210.26 86.1099Z" fill="#263238"/>
<path d="M208.72 153.71C208.72 153.71 216.31 156.65 218.04 157.22C220.04 158 222.14 158.48 224.28 158.65C225.37 158.72 226.45 158.56 227.47 158.18C228.49 157.8 229.41 157.21 230.19 156.44C232 154.51 232.57 151.58 233.04 148.83C234.43 140.75 235.82 132.68 237.21 124.6C237.88 120.6 239.63 114.61 239.48 112.35C239.21 108.15 236.54 103.2 229.74 100.47C227.08 99.4098 224.49 99.7998 222.26 102.47C220.93 104.06 217.05 107.88 216.1 114.61C215.34 120 214.16 126.99 214.23 132.47C214.32 139.69 211.44 148.77 208.72 153.71Z" fill="#263238"/>
<path d="M239.11 110.14C239.88 117.16 236 134.86 235.25 135.92C232.07 146.18 223.32 140.65 222.06 140.18C219.86 139.37 217.61 137.78 215.51 136.72C211.44 134.72 207.58 133.07 203.8 130.56L205.93 126.35C210.08 127.76 221.82 130.8 223.76 131.27C224.6 131.49 227.87 133.2 227.84 130.94C228.3 130.19 228.94 115.53 230.34 110.35C230.5 109.77 230.78 109.23 231.16 108.76L231.29 108.6C231.8 107.96 232.48 107.47 233.25 107.19C234.02 106.91 234.86 106.84 235.66 107C236.47 107.16 237.21 107.54 237.82 108.09C238.44 108.64 238.88 109.35 239.11 110.14Z" fill="#263238"/>
<path opacity="0.1" d="M239.11 110.14C239.88 117.16 236 134.86 235.25 135.92C232.07 146.18 223.32 140.65 222.06 140.18C219.86 139.37 217.61 137.78 215.51 136.72C211.44 134.72 207.58 133.07 203.8 130.56L205.93 126.35C210.08 127.76 221.82 130.8 223.76 131.27C224.6 131.49 227.87 133.2 227.84 130.94C228.3 130.19 228.94 115.53 230.34 110.35C230.5 109.77 230.78 109.23 231.16 108.76L231.29 108.6C231.8 107.96 232.48 107.47 233.25 107.19C234.02 106.91 234.86 106.84 235.66 107C236.47 107.16 237.21 107.54 237.82 108.09C238.44 108.64 238.88 109.35 239.11 110.14Z" fill="white"/>
<path d="M204.28 136.64H184.57L182.32 110.92H202.03L204.28 136.64Z" fill="#263238"/>
<path opacity="0.5" d="M204.28 136.64H184.57L182.32 110.92H202.03L204.28 136.64Z" fill="white"/>
<path d="M203.58 136.52H183.87L181.62 110.8H201.33L203.58 136.52Z" fill="#407BFF"/>
<path opacity="0.8" d="M203.58 136.52H183.87L181.62 110.8H201.33L203.58 136.52Z" fill="white"/>
<path d="M195.76 112.4H187.47L187.19 109.18H195.48L195.76 112.4Z" fill="#407BFF"/>
<path d="M187.19 109.18L188 108.9H196.59L196.71 110.27L196.07 111.01L196.03 112.13L195.76 112.4L195.47 109.18H187.19Z" fill="#407BFF"/>
<path opacity="0.5" d="M187.19 109.18L188 108.9H196.59L196.71 110.27L196.07 111.01L196.03 112.13L195.76 112.4L195.47 109.18H187.19Z" fill="black"/>
<path d="M207.51 127.73L207.96 130.13C206.89 132.91 200.79 132.17 200.79 132.17V125.06L206.18 126.31C206.51 126.39 206.82 126.57 207.06 126.82C207.29 127.08 207.45 127.39 207.51 127.73Z" fill="#FFC3BD"/>
<path d="M200.77 125.08L200.8 132.2L195.39 132.33L194.15 126.07L200.77 125.08Z" fill="#FFC3BD"/>
<path d="M221.36 182.93L223.42 152.96C223.71 148.72 225.78 145.2 228.64 143.52C230.45 142.07 232.66 141.21 234.97 141.06C235.21 141.04 235.46 141.03 235.7 141.03C237.56 141.02 239.39 141.48 241.03 142.36C241.08 142.38 241.13 142.41 241.18 142.44C242.87 143.38 244.32 144.69 245.42 146.28C247.08 148.7 247.96 151.57 247.95 154.5C247.95 161.16 243.56 166.71 237.8 167.82L235.57 200.24C235.38 203 233.57 205.12 231.39 205.12H220.21L221.36 182.93Z" fill="#407BFF"/>
<path opacity="0.1" d="M221.36 182.93L223.42 152.96C223.71 148.72 225.78 145.2 228.64 143.52C230.45 142.07 232.66 141.21 234.97 141.06C235.21 141.04 235.46 141.03 235.7 141.03C237.56 141.02 239.39 141.48 241.03 142.36C241.08 142.38 241.13 142.41 241.18 142.44C242.87 143.38 244.32 144.69 245.42 146.28C247.08 148.7 247.96 151.57 247.95 154.5C247.95 161.16 243.56 166.71 237.8 167.82L235.57 200.24C235.38 203 233.57 205.12 231.39 205.12H220.21L221.36 182.93Z" fill="white"/>
<path d="M119.73 43.4696V71.3196C119.73 72.0296 119.45 72.6996 118.95 73.1996C118.45 73.6996 117.77 73.9796 117.07 73.9796H88.55L78.36 81.8596C78.07 82.0796 77.73 82.2096 77.37 82.2396C77.01 82.2696 76.65 82.1996 76.32 82.0396C76 81.8796 75.72 81.6296 75.53 81.3196C75.34 81.0096 75.24 80.6596 75.24 80.2896V73.9696H73.65C72.94 73.9696 72.27 73.6896 71.77 73.1896C71.27 72.6896 70.99 72.0096 70.99 71.3096V43.4596C70.99 43.1096 71.06 42.7696 71.2 42.4496C71.34 42.1296 71.53 41.8396 71.78 41.5996C72.03 41.3596 72.32 41.1696 72.64 41.0396C72.96 40.9096 73.31 40.8496 73.65 40.8496H117.11C117.8 40.8496 118.47 41.1296 118.96 41.6196C119.46 42.1096 119.73 42.7796 119.73 43.4696Z" stroke="#FF6C0E" stroke-miterlimit="10"/>
<path d="M93.03 36.9297H87.59V37.5997H93.03V36.9297Z" fill="#407BFF" stroke="#FF6C0E" stroke-miterlimit="10"/>
<path d="M67.59 44.7797H66.92V41.4997C66.92 40.2897 67.4 39.1297 68.26 38.2697C69.12 37.4097 70.28 36.9297 71.49 36.9297H83.63V37.5997H71.48C70.44 37.5997 69.45 38.0097 68.72 38.7397C67.99 39.4697 67.57 40.4597 67.57 41.4997L67.59 44.7797Z" fill="#407BFF" stroke="#FF6C0E" stroke-miterlimit="10"/>
<path d="M106.06 61.25C105.77 61.25 105.48 61.19 105.22 61.08C104.95 60.96 104.71 60.8 104.52 60.59C104.32 60.38 104.17 60.13 104.08 59.85C103.98 59.58 103.94 59.29 103.96 59C104.67 50.88 111.11 50.14 111.91 40.9C112.14 38.24 111.17 37.24 109.31 37.24C107.45 37.24 106.31 38.25 106.07 40.9L105.94 42.42C105.88 43.11 105.56 43.74 105.06 44.21C104.55 44.67 103.89 44.93 103.2 44.93C102.82 44.93 102.44 44.85 102.09 44.7C101.74 44.55 101.43 44.32 101.17 44.04C100.91 43.76 100.72 43.43 100.59 43.07C100.47 42.71 100.42 42.33 100.46 41.95L100.52 41.28C101.04 35.34 104.26 31.96 109.94 31.96C115.62 31.96 118.24 35.36 117.72 41.28C116.87 50.9 109.85 52.4 109.25 59.18C109.25 59.21 109.25 59.25 109.25 59.28C109.22 59.82 108.98 60.32 108.59 60.7C108.2 61.07 107.68 61.28 107.14 61.28L106.06 61.25ZM108.94 66.9C108.88 67.6 108.56 68.25 108.04 68.72C107.52 69.19 106.85 69.46 106.15 69.46C105.76 69.46 105.38 69.38 105.02 69.22C104.66 69.06 104.35 68.83 104.08 68.55C103.82 68.26 103.62 67.93 103.49 67.56C103.37 67.19 103.32 66.8 103.35 66.42C103.41 65.72 103.73 65.07 104.25 64.6C104.77 64.13 105.45 63.86 106.15 63.87C106.54 63.87 106.92 63.95 107.27 64.11C107.62 64.27 107.94 64.49 108.2 64.78C108.46 65.07 108.66 65.4 108.79 65.77C108.92 66.14 108.98 66.51 108.94 66.9Z" fill="#FF6C0E"/>
<path d="M98.55 54.7303H83.24C82.89 54.7303 82.55 54.5903 82.3 54.3403C82.05 54.0903 81.91 53.7503 81.91 53.4003C81.91 53.0503 82.05 52.7103 82.3 52.4603C82.55 52.2103 82.89 52.0703 83.24 52.0703H98.56C98.91 52.0703 99.25 52.2103 99.5 52.4603C99.75 52.7103 99.89 53.0503 99.89 53.4003C99.89 53.7503 99.75 54.0903 99.5 54.3403C99.25 54.5903 98.91 54.7303 98.55 54.7303Z" fill="#FF6C0E" stroke="#FF6C0E" stroke-miterlimit="10"/>
<path d="M96.44 60.0096H83.26C82.91 60.0096 82.57 59.8696 82.32 59.6196C82.07 59.3696 81.93 59.0296 81.93 58.6796C81.93 58.3296 82.07 57.9896 82.32 57.7396C82.57 57.4896 82.91 57.3496 83.26 57.3496H96.43C96.78 57.3496 97.12 57.4896 97.37 57.7396C97.62 57.9896 97.76 58.3296 97.76 58.6796C97.76 59.0296 97.62 59.3696 97.37 59.6196C97.12 59.8696 96.79 60.0096 96.44 60.0096Z" fill="#FF6C0E" stroke="#FF6C0E" stroke-miterlimit="10"/>
<path d="M94.32 65.2703H83.26C82.91 65.2703 82.57 65.1303 82.32 64.8803C82.07 64.6303 81.93 64.2903 81.93 63.9403C81.93 63.5903 82.07 63.2504 82.32 63.0004C82.57 62.7504 82.91 62.6104 83.26 62.6104H94.32C94.67 62.6104 95.01 62.7504 95.26 63.0004C95.51 63.2504 95.65 63.5903 95.65 63.9403C95.65 64.2903 95.51 64.6303 95.26 64.8803C95.01 65.1303 94.67 65.2703 94.32 65.2703Z" fill="#FF6C0E" stroke="#FF6C0E" stroke-miterlimit="10"/>
<path d="M62.98 173.95H53.25C50.88 173.95 48.96 175.45 48.96 177.28V183.03C48.96 184.88 50.88 186.36 53.25 186.36H62.98V173.95Z" fill="#407BFF"/>
<path d="M17.76 201.05L14.38 147.2C14.08 142.46 14.76 137.72 16.37 133.25C17.98 128.79 20.48 124.7 23.73 121.24C26.98 117.78 30.9 115.03 35.26 113.14C39.61 111.26 44.31 110.28 49.05 110.28C57.92 110.28 66.46 113.68 72.91 119.77C79.36 125.87 83.23 134.2 83.73 143.06L87.27 205.96H22.97C21.64 205.95 20.36 205.44 19.4 204.53C18.42 203.62 17.84 202.37 17.76 201.05Z" fill="#407BFF"/>
<path opacity="0.1" d="M17.64 199.09L14.38 147.19C14.08 142.45 14.76 137.71 16.37 133.24C17.98 128.78 20.48 124.69 23.73 121.23C26.98 117.77 30.9 115.02 35.26 113.13C39.61 111.25 44.31 110.27 49.05 110.27C57.92 110.27 66.46 113.67 72.91 119.76C79.36 125.86 83.23 134.19 83.73 143.05L87.27 205.95H24.97C23.1 205.95 21.31 205.25 19.95 203.97C18.59 202.69 17.75 200.96 17.64 199.09Z" fill="black"/>
<path d="M28.19 205.96L24.5 147.19C24.2 142.45 24.88 137.71 26.49 133.24C28.1 128.78 30.6 124.69 33.85 121.23C37.1 117.77 41.02 115.02 45.38 113.13C49.74 111.25 54.43 110.28 59.18 110.28C68.05 110.28 76.59 113.68 83.04 119.77C89.49 125.87 93.36 134.2 93.86 143.06L97.41 205.96H28.19Z" fill="#407BFF"/>
<path d="M27.08 216.08H26.19C25.95 216.06 25.72 215.97 25.55 215.8C25.38 215.63 25.27 215.41 25.24 215.17L23.91 205.96H29.31L27.98 215.17C27.96 215.4 27.85 215.62 27.69 215.78C27.53 215.95 27.31 216.05 27.08 216.08Z" fill="#407BFF"/>
<path opacity="0.7" d="M27.08 216.08H26.19C25.95 216.06 25.72 215.97 25.55 215.8C25.38 215.63 25.27 215.41 25.24 215.17L23.91 205.96H29.31L27.98 215.17C27.96 215.4 27.85 215.62 27.69 215.78C27.53 215.95 27.31 216.05 27.08 216.08Z" fill="white"/>
<path d="M114.09 216.08H113.28C113.05 216.06 112.84 215.95 112.68 215.78C112.52 215.61 112.43 215.4 112.42 215.17L111.23 205.96H116.13L114.94 215.17C114.93 215.4 114.83 215.61 114.68 215.78C114.53 215.95 114.32 216.05 114.09 216.08Z" fill="#407BFF"/>
<path opacity="0.5" d="M114.09 216.08H113.28C113.05 216.06 112.84 215.95 112.68 215.78C112.52 215.61 112.43 215.4 112.42 215.17L111.23 205.96H116.13L114.94 215.17C114.93 215.4 114.83 215.61 114.68 215.78C114.53 215.95 114.32 216.05 114.09 216.08Z" fill="white"/>
<path d="M89.04 216.08H88.23C88 216.06 87.79 215.95 87.63 215.78C87.47 215.61 87.38 215.4 87.37 215.17L86.18 205.96H91.08L89.89 215.17C89.88 215.4 89.78 215.61 89.63 215.78C89.48 215.94 89.27 216.05 89.04 216.08Z" fill="#407BFF"/>
<path opacity="0.7" d="M89.04 216.08H88.23C88 216.06 87.79 215.95 87.63 215.78C87.47 215.61 87.38 215.4 87.37 215.17L86.18 205.96H91.08L89.89 215.17C89.88 215.4 89.78 215.61 89.63 215.78C89.48 215.94 89.27 216.05 89.04 216.08Z" fill="white"/>
<path d="M54.05 216.08H53.16C52.92 216.07 52.69 215.97 52.52 215.8C52.35 215.63 52.24 215.41 52.21 215.17L50.88 205.96H56.28L54.95 215.17C54.93 215.4 54.82 215.62 54.66 215.78C54.5 215.95 54.28 216.05 54.05 216.08Z" fill="#407BFF"/>
<path opacity="0.5" d="M54.05 216.08H53.16C52.92 216.07 52.69 215.97 52.52 215.8C52.35 215.63 52.24 215.41 52.21 215.17L50.88 205.96H56.28L54.95 215.17C54.93 215.4 54.82 215.62 54.66 215.78C54.5 215.95 54.28 216.05 54.05 216.08Z" fill="white"/>
<path d="M83.38 183.76H107.06L108.63 160.95L108.96 156.05L109.12 153.79C109.16 153.2 109.24 152.61 109.35 152.03C109.35 151.9 109.41 151.77 109.44 151.64C109.45 151.54 109.48 151.45 109.51 151.35C110.15 149.03 111.39 146.91 113.11 145.22C115.1 143.26 117.72 142.08 120.5 141.89H98.22C97.97 141.89 97.73 141.89 97.49 141.89C94.47 141.9 91.57 143.1 89.42 145.22C87.7 146.91 86.46 149.02 85.82 151.35C85.78 151.44 85.76 151.54 85.75 151.64C85.59 152.35 85.49 153.07 85.44 153.79L85.29 156.05L83.38 183.76Z" fill="#407BFF"/>
<path opacity="0.1" d="M83.38 183.76H107.06L108.63 160.95L108.96 156.05L109.12 153.79C109.16 153.2 109.24 152.61 109.35 152.03C109.35 151.9 109.41 151.77 109.44 151.64C109.45 151.54 109.48 151.45 109.51 151.35C110.15 149.03 111.39 146.91 113.11 145.22C115.1 143.26 117.72 142.08 120.5 141.89H98.22C97.97 141.89 97.73 141.89 97.49 141.89C94.47 141.9 91.57 143.1 89.42 145.22C87.7 146.91 86.46 149.02 85.82 151.35C85.78 151.44 85.76 151.54 85.75 151.64C85.59 152.35 85.49 153.07 85.44 153.79L85.29 156.05L83.38 183.76Z" fill="black"/>
<g opacity="0.1">
<path opacity="0.1" d="M64.61 171.61H55.09C52.78 171.61 50.91 173.08 50.91 174.88V180.51C50.91 182.31 52.78 183.78 55.09 183.78H64.61V171.61Z" fill="black"/>
</g>
<path d="M103.44 171.6H61.55C59.56 171.6 57.94 173.22 57.94 175.21V180.16C57.94 182.15 59.56 183.77 61.55 183.77H103.44C105.43 183.77 107.05 182.15 107.05 180.16V175.21C107.05 173.22 105.44 171.6 103.44 171.6Z" fill="#407BFF"/>
<path d="M4.65003 155.34C4.64003 158.52 5.77003 161.61 7.81003 164.04C9.86003 166.48 12.7 168.11 15.84 168.66L18.3 201.09C18.51 203.85 20.51 205.97 22.91 205.97H49.04C46.64 205.97 44.64 203.85 44.43 201.09L43.1 183.77L41.95 168.65C39.9 168.29 37.96 167.46 36.28 166.23C34.6 165 33.24 163.39 32.28 161.54C32.15 161.3 32.04 161.05 31.93 160.81C31.16 159.09 30.76 157.23 30.76 155.34C30.76 154.41 30.86 153.49 31.05 152.58C31.12 152.22 31.22 151.86 31.31 151.51C31.79 149.92 32.55 148.43 33.55 147.11C34.79 145.49 36.39 144.18 38.21 143.27C40.07 142.34 42.12 141.85 44.2 141.85H18.14C16.79 141.85 15.44 142.05 14.14 142.46C11.48 143.28 9.13003 144.91 7.43003 147.12C5.63003 149.48 4.65003 152.37 4.65003 155.34Z" fill="#407BFF"/>
<path opacity="0.1" d="M4.65003 155.34C4.64003 158.52 5.77003 161.61 7.81003 164.04C9.86003 166.48 12.7 168.11 15.84 168.66L18.3 201.09C18.51 203.85 20.51 205.97 22.91 205.97H49.04C46.64 205.97 44.64 203.85 44.43 201.09L43.1 183.77L41.95 168.65C39.9 168.29 37.96 167.46 36.28 166.23C34.6 165 33.24 163.39 32.28 161.54C32.15 161.3 32.04 161.05 31.93 160.81C31.16 159.09 30.76 157.23 30.76 155.34C30.76 154.41 30.86 153.49 31.05 152.58C31.12 152.22 31.22 151.86 31.31 151.51C31.79 149.92 32.55 148.43 33.55 147.11C34.79 145.49 36.39 144.18 38.21 143.27C40.07 142.34 42.12 141.85 44.2 141.85H18.14C16.79 141.85 15.44 142.05 14.14 142.46C11.48 143.28 9.13003 144.91 7.43003 147.12C5.63003 149.48 4.65003 152.37 4.65003 155.34Z" fill="black"/>
<path d="M30.77 155.34C30.77 162 35.16 167.55 40.92 168.66L43.14 201.11C43.33 203.87 45.14 205.99 47.32 205.99H117.08C119.25 205.99 121.08 203.88 121.26 201.11L123.49 168.61C129.13 167.43 133.4 161.95 133.4 155.36C133.41 152.6 132.63 149.89 131.15 147.56C130.02 145.79 128.47 144.32 126.63 143.29C124.96 142.36 123.08 141.87 121.17 141.86C118.15 141.87 115.25 143.07 113.1 145.19C111.38 146.88 110.13 148.99 109.49 151.32C109.46 151.41 109.44 151.51 109.42 151.61C109.26 152.32 109.16 153.04 109.11 153.76L108.95 156.02L107.05 183.75H57.35L55.29 153.78C54.99 149.54 52.93 146.01 50.07 144.34C48.26 142.9 46.05 142.04 43.74 141.88C43.49 141.88 43.25 141.88 43.01 141.88C41.15 141.87 39.32 142.33 37.68 143.21C37.63 143.23 37.58 143.25 37.53 143.28C35.85 144.22 34.4 145.54 33.29 147.12C31.63 149.55 30.75 152.41 30.77 155.34Z" fill="#407BFF"/>
<path opacity="0.1" d="M58.5 205.96H117.11C119.28 205.96 121.11 203.85 121.29 201.08L123.52 168.58C129.16 167.4 133.43 161.92 133.43 155.33C133.44 152.57 132.66 149.86 131.18 147.53C130.05 145.76 128.5 144.29 126.67 143.26C125 142.33 123.12 141.84 121.21 141.83C118.19 141.84 115.29 143.04 113.14 145.16C111.42 146.85 110.17 148.96 109.53 151.29C109.5 151.38 109.48 151.48 109.46 151.58C109.3 152.29 109.2 153.01 109.15 153.73L108.99 155.99L107.09 183.72H57.35L58.5 205.96Z" fill="white"/>
<path d="M76.33 217.42L82.01 218.99L87.11 205.64L81.43 204.07L76.33 217.42Z" fill="#FFC3BD"/>
<path d="M84.56 217.22C84.11 216.64 83.46 216.25 82.74 216.11L76.91 214.97C76.77 214.93 76.63 214.95 76.5 215.01C76.38 215.08 76.28 215.19 76.24 215.33L74.44 220.66C74.39 220.8 74.37 220.96 74.37 221.11C74.38 221.26 74.42 221.41 74.48 221.55C74.55 221.69 74.64 221.81 74.75 221.92C74.86 222.02 75 222.1 75.14 222.15H75.18C77.34 223 78.8 222.71 82.17 223.36C84.25 223.76 88.62 225.14 91.53 225.03C94.45 224.91 94.44 222.03 93.21 221.81C88.9 221.15 85.57 218.54 84.56 217.22Z" fill="#263238"/>
<g opacity="0.2">
<path opacity="0.2" d="M87.11 205.65L84.48 212.54L78.8 210.95L81.42 204.07L87.11 205.65Z" fill="black"/>
</g>
<path d="M68.15 154.96C68.15 154.96 102.36 154.77 101.29 166.23C100.57 173.97 96.86 182.1 93.96 189.95C89.76 201.33 86.11 211.26 86.11 211.26L78.32 208.56C78.32 208.56 85.32 175.65 90.03 172.28H61.12C51.55 172.28 47.41 161.77 56.73 149.52C62.42 149.54 68.15 154.96 68.15 154.96Z" fill="#407BFF"/>
<path opacity="0.6" d="M68.15 154.96C68.15 154.96 102.36 154.77 101.29 166.23C101.82 173.35 86.11 211.25 86.11 211.25L78.32 208.55C78.32 208.55 85.32 175.64 90.03 172.27H61.12C51.55 172.27 47.41 161.76 56.73 149.51C62.42 149.54 68.15 154.96 68.15 154.96Z" fill="black"/>
<path d="M92.27 134.16C88.06 138 79.8 128.9 78.46 127.83C75.61 125.5 67.23 117.68 67.67 114.96C69 106.97 82.11 118.29 85.9 126.1L92.27 134.16Z" fill="#263238"/>
<path d="M55.44 110.11C53.33 110.56 51.04 109.8 49.56 111.36C48.07 112.93 47.46 115.12 47.24 117.27C47.05 120.27 47.21 123.27 47.71 126.23C48.15 129.84 48.62 133.45 49.1 137.05C49.4 140.02 49.29 143.02 48.76 145.95C48.7 146.26 48.75 146.58 48.9 146.86C49.05 147.14 49.28 147.37 49.57 147.5C49.57 147.5 65.95 148.06 70.71 147.88C73.24 147.79 71.5 141.13 72.28 137.22C72.45 136.35 74.14 132.8 74.4 131.89C75.57 127.59 74.79 124.64 73.73 120.32C72.94 117.18 72.61 112.66 71.01 112.33C68.14 111.76 61.31 108.86 55.44 110.11Z" fill="#407BFF"/>
<path opacity="0.8" d="M55.44 110.11C53.33 110.56 51.04 109.8 49.56 111.36C48.07 112.93 47.46 115.12 47.24 117.27C47.05 120.27 47.21 123.27 47.71 126.23C48.15 129.84 48.62 133.45 49.1 137.05C49.4 140.02 49.29 143.02 48.76 145.95C48.7 146.26 48.75 146.58 48.9 146.86C49.05 147.14 49.28 147.37 49.57 147.5C49.57 147.5 65.95 148.06 70.71 147.88C73.24 147.79 71.5 141.13 72.28 137.22C72.45 136.35 74.14 132.8 74.4 131.89C75.57 127.59 74.79 124.64 73.73 120.32C72.94 117.18 72.61 112.66 71.01 112.33C68.14 111.76 61.31 108.86 55.44 110.11Z" fill="white"/>
<path d="M53.1 113.19C52.88 112.86 47.11 108.01 46.07 113.61C44.61 121.41 47.63 129.08 47.63 129.08C47.63 129.08 48.3 137.52 50.77 138.36C53.25 139.21 55.55 139.41 56.38 137.97C56.91 136.84 57.2 135.61 57.21 134.37C57.21 134.37 56.93 118.99 53.1 113.19Z" fill="#263238"/>
<path d="M57.09 99.4102C57.68 103 58.18 109.56 55.62 111.87C55.62 111.87 61.89 115.15 66 120.88C66.91 120.2 67.59 119.24 67.93 118.16C68.27 117.07 68.26 115.9 67.9 114.82C67.69 114.14 67.35 113.5 66.89 112.96C66.43 112.41 65.87 111.96 65.23 111.64C62.8 110.31 63.03 107.79 63.7 105.43L57.09 99.4102Z" fill="#E8BFBF"/>
<path opacity="0.2" d="M57.91 105.5L60.25 106.4C61.25 106.79 62.32 106.96 63.39 106.91C63.22 107.64 63.22 108.4 63.39 109.14C62.55 109.37 61.67 109.35 60.84 109.08C60.01 108.82 59.28 108.32 58.73 107.64C58.35 106.97 58.07 106.25 57.91 105.5Z" fill="black"/>
<path d="M115.94 205.94H122.31L115.64 189.98L111.32 197.31L115.94 205.94Z" fill="#FFC3BD"/>
<path d="M121.78 204.43L114.31 202.73C114.18 202.7 114.05 202.72 113.93 202.78C113.81 202.84 113.73 202.95 113.68 203.07L111.59 208.81C111.55 208.96 111.54 209.11 111.55 209.26C111.57 209.41 111.61 209.55 111.69 209.69C111.76 209.82 111.86 209.94 111.98 210.03C112.1 210.12 112.23 210.19 112.38 210.23C115 210.78 116.28 210.9 119.57 211.65C121.57 212.11 126.71 213.45 129.5 214.09C132.29 214.72 133.02 211.99 131.91 211.47C126.93 209.17 124.23 206.96 122.79 205.08C122.54 204.75 122.18 204.52 121.78 204.43Z" fill="#263238"/>
<g opacity="0.2">
<path opacity="0.2" d="M115.64 189.98L118.48 196.78L112.75 199.98L111.33 197.32L115.64 189.98Z" fill="black"/>
</g>
<path d="M48.63 147.59L47.96 149.76C47.87 149.93 48.07 150.1 48.35 150.11L72.99 150.86C73.22 150.86 73.4 150.77 73.42 150.63L73.71 148.45C73.71 148.3 73.54 148.17 73.3 148.16L49.06 147.43C48.98 147.42 48.9 147.43 48.82 147.46C48.75 147.47 48.68 147.52 48.63 147.59Z" fill="#263238"/>
<path d="M79.45 165.4C71.35 168.86 62.55 172.31 57.77 172.31C48.19 172.31 39.69 165.4 48.75 149.67C54.45 149.67 64.35 149.83 64.35 149.83C64.35 149.83 83 144.5 96.57 146.07C99.79 146.45 102.8 147.83 105.18 150.03C107.56 152.23 109.18 155.12 109.82 158.29C113.26 175.61 118.55 194.33 118.55 194.33L111.74 198.99C111.74 198.99 101.12 176.66 95 158.95C91.77 159.97 85.83 162.68 79.45 165.4Z" fill="#407BFF"/>
<path opacity="0.5" d="M109.83 158.29C109.2 155.11 107.58 152.22 105.2 150.02C102.82 147.82 99.8 146.44 96.59 146.06C83.04 144.52 64.37 149.82 64.37 149.82C64.37 149.82 54.47 149.64 48.77 149.66C39.56 165.32 48.21 172.3 57.79 172.3C62.57 172.3 71.36 168.85 79.47 165.39C85.84 162.67 91.79 159.96 95.03 158.92C101.14 176.65 111.77 198.99 111.77 198.99L118.58 194.33C118.56 194.33 113.27 175.6 109.83 158.29Z" fill="black"/>
<path d="M101.29 166.28C101.07 168.5 100.74 170.72 100.29 172.91C100.26 172.84 100.23 172.77 100.2 172.7C100.17 172.63 100.2 172.67 100.2 172.65C100.18 172.58 100.15 172.51 100.11 172.44C98.3 167.94 96.53 163.32 95.03 158.97H95.08C98.96 160.61 101.61 162.95 101.29 166.28Z" fill="#407BFF"/>
<path opacity="0.6" d="M101.29 166.28C101.07 168.5 100.74 170.72 100.29 172.91C100.26 172.84 100.23 172.77 100.2 172.7C100.17 172.63 100.2 172.67 100.2 172.65C100.18 172.58 100.15 172.51 100.11 172.44C98.3 167.94 96.53 163.32 95.03 158.97H95.08C98.96 160.61 101.61 162.95 101.29 166.28Z" fill="black"/>
<path d="M52.72 95.9596C54.72 101.59 55.45 104.01 59.19 106.12C64.83 109.3 71.29 105.6 71.01 99.4596C70.76 93.9696 67.53 85.6796 61.27 85.0096C59.89 84.8496 58.49 85.0496 57.21 85.5896C55.93 86.1296 54.81 86.9796 53.95 88.0796C53.09 89.1696 52.53 90.4696 52.31 91.8396C52.09 93.2096 52.23 94.6196 52.72 95.9196V95.9596Z" fill="#E8BFBF"/>
<path d="M62.84 95.2304C62.98 95.7204 63.33 96.0004 63.64 95.9004C63.95 95.7904 64.07 95.3704 63.95 94.8904C63.83 94.4204 63.46 94.1204 63.15 94.2204C62.83 94.3304 62.7 94.7604 62.84 95.2304Z" fill="#263238"/>
<path d="M68.07 93.5702C68.21 94.0602 68.56 94.3502 68.87 94.2402C69.18 94.1302 69.3 93.7102 69.18 93.2302C69.06 92.7602 68.69 92.4602 68.39 92.5602C68.08 92.6702 67.93 93.1102 68.07 93.5702Z" fill="#263238"/>
<path d="M68.25 92.6397L69.28 91.9697C69.28 91.9697 68.95 93.0197 68.25 92.6397Z" fill="#263238"/>
<path d="M66.19 94.6396C66.91 95.5896 67.76 96.4297 68.71 97.1497C68.52 97.3897 68.28 97.5796 68.01 97.7096C67.74 97.8396 67.44 97.9096 67.14 97.9196L66.19 94.6396Z" fill="#ED847E"/>
<path d="M49.04 99.6799C49.45 100.69 49.76 101.74 49.97 102.82C50.03 103.9 49.68 104.96 49 105.8C48.32 106.64 47.35 107.19 46.28 107.35C47.21 107.6 48.2 107.52 49.08 107.12C49.96 106.72 50.67 106.04 51.1 105.17C50.59 106.53 49.58 107.64 48.28 108.27C49.21 108.28 50.13 108.08 50.97 107.67C51.81 107.27 52.54 106.68 53.11 105.94C52.8 106.75 52.44 107.56 52.16 108.37C53.74 107.41 55.04 106.05 55.92 104.43C56.27 103.76 56.54 102.9 56.07 102.31C55.6 101.72 54.86 101.76 54.19 101.75C53.52 101.74 52.69 101.58 52.45 100.94C52.2 100.31 52.66 99.6799 53.15 99.2399C53.64 98.8099 54.24 98.4099 54.42 97.7699C54.51 97.3099 54.47 96.8399 54.33 96.3999C54.02 95.1699 53.72 93.9499 53.42 92.7199C53.34 92.2899 53.18 91.8699 52.96 91.4899C51.63 89.4899 50.14 92.4199 49.63 93.4099C48.66 95.3699 48.45 97.5999 49.04 99.6799Z" fill="#263238"/>
<path d="M52.33 101.47C53.08 102.45 54.19 103.09 55.42 103.26C57.05 103.46 57.62 101.93 56.97 100.54C56.38 99.2596 54.82 97.6296 53.28 98.0596C51.74 98.4996 51.41 100.25 52.33 101.47Z" fill="#E8BFBF"/>
<path d="M62.92 91.2002C62.91 91.2602 62.88 91.3202 62.84 91.3602C62.8 91.4102 62.74 91.4402 62.68 91.4502C61.35 91.7002 60.58 93.3102 60.58 93.3202C60.55 93.3902 60.49 93.4502 60.41 93.4802C60.34 93.5102 60.25 93.5102 60.18 93.4802C60.11 93.4502 60.05 93.3902 60.03 93.3102C60 93.2402 60.01 93.1602 60.04 93.0802C60.1 93.0202 60.93 91.1802 62.58 90.8502C62.66 90.8402 62.74 90.8602 62.8 90.9002C62.86 90.9402 62.91 91.0102 62.93 91.0902C62.92 91.1302 62.93 91.1702 62.92 91.2002Z" fill="#263238"/>
<path d="M66.48 89.8699C66.44 89.8599 66.39 89.8598 66.35 89.8798C66.31 89.8898 66.27 89.9099 66.23 89.9399C66.16 90.0199 65.91 90.1599 66.05 90.2299C66.86 90.6399 67.99 91.3198 68.85 91.1798C69 91.1798 69.34 91.0298 69.27 90.9198C69.22 90.8698 69.16 90.8299 69.09 90.7999C69.02 90.7799 68.95 90.7699 68.87 90.7898C68.2 90.8799 67.26 90.2399 66.63 89.8999C66.58 89.8899 66.53 89.8799 66.48 89.8699Z" fill="#263238"/>
<path d="M63.02 94.2901L64.05 93.6201C64.05 93.6201 63.72 94.6801 63.02 94.2901Z" fill="#263238"/>
<path d="M62.92 82.5495C60.65 82.1395 60.36 81.9795 58.05 82.1295C55.72 82.1995 53.47 82.9795 51.6 84.3595C49.85 85.8095 48.61 87.7895 48.08 89.9895C47.56 92.1895 47.5 94.4795 47.91 96.6995C47.98 97.7595 48.44 98.7595 49.2 99.5095C49.28 98.3095 49.48 97.1295 49.81 95.9695C50.15 94.7995 50.85 93.7795 51.81 93.0295C52.23 92.7995 52.6 92.4795 52.88 92.0795C53.02 91.6895 53.11 91.2795 53.12 90.8695C53.33 89.9395 53.89 89.1195 54.68 88.5795C55.47 88.0595 56.31 87.6195 57.19 87.2895C59.99 86.0795 63.05 85.3895 65.63 83.7695C64.78 83.2695 63.87 82.8495 62.92 82.5495Z" fill="#263238"/>
<path d="M51.3 91.4595C51.91 92.1995 52.74 92.7195 53.68 92.9495C54.79 93.1995 57.55 93.1395 57.72 92.8495C57.89 92.5595 56.9 89.4595 55.78 89.2695C56.55 90.0195 57.47 90.5895 58.48 90.9495C59.62 91.1795 60.8 91.1795 61.94 90.9495C62.53 90.8195 61.21 88.3895 60.26 87.6995C63.13 88.2995 66.17 88.9895 68.25 91.0295C70.33 93.0695 71.23 96.3095 71.13 99.3295C71.62 98.9395 72.01 98.4395 72.28 97.8695C72.55 97.2995 72.68 96.6795 72.67 96.0495C73.17 97.6095 73.36 99.2595 73.21 100.89C73.06 102.52 72.59 104.11 71.82 105.56C74.87 103.06 76.01 98.6795 75.21 94.8195C74.41 90.9595 71.88 87.5895 68.81 85.1195C66.15 83.0095 62.98 81.4295 59.6 81.3495C55.18 81.2095 46.97 86.2495 51.3 91.4595Z" fill="#263238"/>
<path d="M54.89 109.27C54.89 109.05 54.94 108.76 54.97 108.45C55.03 107.75 54.82 107.05 54.4 106.49C53.97 105.93 53.35 105.55 52.66 105.42C52.45 105.38 52.26 105.29 52.1 105.16C51.94 105.02 51.82 104.85 51.75 104.65C51.24 103.16 51.04 102.7 50.54 101.24C49.21 100.91 47.6 101.41 46.21 101.56C45.82 103.23 45.8 104.97 46.13 106.65C46.18 107.03 46.33 107.38 46.56 107.69C47.82 108.73 49.22 109.59 50.72 110.25C51.91 110.6 53.6 109.38 54.89 109.27Z" fill="#E8BFBF"/>
<path d="M50.86 110.27C50.86 110.27 47.19 133.95 50.97 137.58C53.19 139.7 55.11 138.53 56.3 137.2C56.74 136.71 57.07 136.13 57.27 135.5C57.47 134.87 57.54 134.21 57.46 133.55L54.88 109.29C54.88 109.29 52.35 107.79 50.86 110.27Z" fill="#E8BFBF"/>
<path d="M90.28 131.65C91.79 130.33 92.87 128.6 93.38 126.67C93.5 125.99 93.54 125.3 93.51 124.61C93.48 120.32 92.27 112.46 92.27 112.46L88.79 111.31C88.79 111.31 87.7 117.3 87.46 120.58C87.41 121.25 87.34 121.98 87.26 122.79C87.11 124.25 86.92 125.87 86.75 127.21L90.28 131.65Z" fill="#E8BFBF"/>
<path d="M92.27 134.16C93.34 133.18 93.52 131.99 94.07 129.5C94.6 127.12 94 124.17 93.51 124.62C93.45 124.68 93.4 124.75 93.38 124.83C92.53 126.83 89.24 125.08 88.31 124.08C87.91 123.7 87.56 123.27 87.26 122.8C87.14 122.62 87.07 122.41 87.07 122.19C87.07 121.97 87.13 121.76 87.26 121.58C86.25 121.16 85.44 125.14 85.93 126.12L86.18 126.86C86.58 128.06 87.2 129.17 88 130.15L89.83 132.35L92.27 134.16Z" fill="#263238"/>
<path d="M88.7 111.8L88.29 105.71C89.37 106.22 90.48 106.66 91.62 107.01C93.31 107.59 95.62 106.57 95.08 107.68C94.23 109.32 93.28 110.92 92.24 112.45L88.7 111.8Z" fill="#E8BFBF"/>
<path d="M88.28 105.71L90.89 99.6201L94.3 101.71C95.24 103.75 95.13 107.7 95.13 107.7C95.13 107.7 90.39 107.88 88.28 105.71Z" fill="#E8BFBF"/>
<path d="M65.79 101.01C65.88 101.44 66.19 101.75 66.46 101.68C66.73 101.61 66.89 101.22 66.8 100.79C66.71 100.36 66.4 100.05 66.13 100.12C65.87 100.19 65.7 100.61 65.79 101.01Z" fill="#263238"/>
<path d="M57.35 183.76L55.29 153.79C54.99 149.55 52.93 146.02 50.07 144.35C48.26 142.91 46.05 142.05 43.74 141.89C43.49 141.89 43.25 141.89 43.01 141.89C41.15 141.88 39.32 142.34 37.68 143.22C37.63 143.24 37.58 143.26 37.53 143.29C35.85 144.23 34.4 145.55 33.29 147.13C31.63 149.55 30.74 152.41 30.76 155.35C30.76 162.01 35.15 167.56 40.91 168.67L43.13 201.13C43.32 203.89 45.13 206.01 47.31 206.01H58.48L57.35 183.76Z" fill="#407BFF"/>
<path opacity="0.1" d="M57.35 183.76L55.29 153.79C54.99 149.55 52.93 146.02 50.07 144.35C48.26 142.91 46.05 142.05 43.74 141.89C43.49 141.89 43.25 141.89 43.01 141.89C41.15 141.88 39.32 142.34 37.68 143.22C37.63 143.24 37.58 143.26 37.53 143.29C35.85 144.23 34.4 145.55 33.29 147.13C31.63 149.55 30.74 152.41 30.76 155.35C30.76 162.01 35.15 167.56 40.91 168.67L43.13 201.13C43.32 203.89 45.13 206.01 47.31 206.01H58.48L57.35 183.76Z" fill="white"/>
<path d="M136.96 238.52C149.3 238.52 159.3 235.96 159.3 232.81C159.3 229.66 149.3 227.1 136.96 227.1C124.62 227.1 114.62 229.66 114.62 232.81C114.62 235.96 124.62 238.52 136.96 238.52Z" fill="#263238"/>
<path opacity="0.3" d="M136.96 236.62C149.3 236.62 159.3 234.49 159.3 231.86C159.3 229.23 149.3 227.1 136.96 227.1C124.62 227.1 114.62 229.23 114.62 231.86C114.62 234.49 124.62 236.62 136.96 236.62Z" fill="white"/>
<path d="M138.8 231.85H135.11L130.85 185.88H143.06L138.8 231.85Z" fill="#263238"/>
<path d="M143.06 185.88C143.06 187.21 140.33 188.31 136.95 188.31C133.57 188.31 130.84 187.22 130.84 185.88C130.84 184.54 133.58 183.46 136.95 183.46C140.33 183.46 143.06 184.54 143.06 185.88Z" fill="#263238"/>
<path opacity="0.7" d="M143.06 185.88C143.06 187.21 140.33 188.31 136.95 188.31C133.57 188.31 130.84 187.22 130.84 185.88C130.84 184.54 133.58 183.46 136.95 183.46C140.33 183.46 143.06 184.54 143.06 185.88Z" fill="white"/>
<path opacity="0.7" d="M62.26 186.6C62.28 186.32 62.35 186.06 62.47 185.81C62.59 185.56 62.76 185.34 62.97 185.16C68.13 190.35 100.88 194.36 140.51 194.36C180.14 194.36 212.89 190.36 218.05 185.16C218.26 185.34 218.43 185.56 218.55 185.81C218.67 186.06 218.74 186.33 218.76 186.6C218.76 192.47 183.72 197.26 140.51 197.26C97.29 197.26 62.26 192.47 62.26 186.6Z" fill="white"/>
<path opacity="0.7" d="M63 187.93C68.16 182.74 100.91 178.74 140.54 178.74C180.17 178.74 212.91 182.74 218.08 187.93C212.91 193.13 180.16 197.13 140.54 197.13C100.92 197.13 68.16 193.12 63 187.93Z" fill="white"/>
<path opacity="0.7" d="M62.26 186.39C62.26 180.52 97.29 175.73 140.51 175.73C183.73 175.73 218.76 180.49 218.76 186.39C218.74 186.66 218.67 186.93 218.55 187.18C218.43 187.43 218.26 187.64 218.05 187.82C212.88 182.62 180.13 178.63 140.51 178.63C100.89 178.63 68.14 182.63 62.97 187.82C62.76 187.64 62.59 187.42 62.47 187.18C62.35 186.94 62.27 186.67 62.26 186.39Z" fill="white"/>
<path d="M170.72 181.22L137.98 180.6C137.89 180.59 137.81 180.56 137.73 180.52C137.65 180.48 137.58 180.42 137.53 180.35C137.48 180.28 137.43 180.2 137.41 180.11C137.39 180.02 137.38 179.93 137.39 179.85C137.38 179.76 137.39 179.67 137.42 179.59C137.45 179.51 137.49 179.43 137.55 179.36C137.61 179.29 137.68 179.24 137.76 179.2C137.84 179.16 137.93 179.14 138.01 179.13L170.75 179.75C170.84 179.76 170.92 179.78 171 179.83C171.08 179.87 171.15 179.93 171.2 180C171.26 180.07 171.3 180.15 171.32 180.24C171.34 180.33 171.35 180.42 171.34 180.5C171.35 180.59 171.34 180.68 171.31 180.76C171.28 180.84 171.24 180.92 171.18 180.99C171.12 181.06 171.05 181.11 170.97 181.15C170.89 181.19 170.81 181.21 170.72 181.22Z" fill="#263238"/>
<path opacity="0.2" d="M170.72 181.22L137.98 180.6C137.89 180.59 137.81 180.56 137.73 180.52C137.65 180.48 137.58 180.42 137.53 180.35C137.48 180.28 137.43 180.2 137.41 180.11C137.39 180.02 137.38 179.93 137.39 179.85C137.38 179.76 137.39 179.67 137.42 179.59C137.45 179.51 137.49 179.43 137.55 179.36C137.61 179.29 137.68 179.24 137.76 179.2C137.84 179.16 137.93 179.14 138.01 179.13L170.75 179.75C170.84 179.76 170.92 179.78 171 179.83C171.08 179.87 171.15 179.93 171.2 180C171.26 180.07 171.3 180.15 171.32 180.24C171.34 180.33 171.35 180.42 171.34 180.5C171.35 180.59 171.34 180.68 171.31 180.76C171.28 180.84 171.24 180.92 171.18 180.99C171.12 181.06 171.05 181.11 170.97 181.15C170.89 181.19 170.81 181.21 170.72 181.22Z" fill="white"/>
<path d="M186.61 178.83L170.96 181.19C170.79 181.19 170.62 181.12 170.5 181.01C170.38 180.89 170.3 180.73 170.29 180.56C170.26 180.38 170.3 180.2 170.4 180.05C170.5 179.9 170.65 179.79 170.83 179.74L186.48 177.38C186.65 177.38 186.82 177.45 186.94 177.56C187.06 177.68 187.14 177.84 187.15 178.01C187.18 178.19 187.14 178.37 187.04 178.52C186.94 178.67 186.79 178.78 186.61 178.83Z" fill="#263238"/>
<path d="M186.47 177.38H153.38L138 179.14L169.85 179.74L186.47 177.38Z" fill="#263238"/>
<path opacity="0.6" d="M186.47 177.38H153.38L138 179.14L169.85 179.74L186.47 177.38Z" fill="white"/>
<path opacity="0.5" d="M186.61 178.83L170.96 181.19C170.79 181.19 170.62 181.12 170.5 181.01C170.38 180.89 170.3 180.73 170.29 180.56C170.26 180.38 170.3 180.2 170.4 180.05C170.5 179.9 170.65 179.79 170.83 179.74L186.48 177.38C186.65 177.38 186.82 177.45 186.94 177.56C187.06 177.68 187.14 177.84 187.15 178.01C187.18 178.19 187.14 178.37 187.04 178.52C186.94 178.67 186.79 178.78 186.61 178.83Z" fill="white"/>
<path d="M169.86 179.73L139.33 179.16C138.76 179.09 138.23 178.81 137.84 178.37C137.46 177.93 137.25 177.37 137.26 176.79L136.34 158.36C136.27 157.07 137.11 156.04 138.18 156.06L168.71 156.64C169.29 156.71 169.82 156.99 170.2 157.43C170.58 157.87 170.79 158.43 170.78 159.01L171.71 177.44C171.76 178.72 170.94 179.75 169.86 179.73Z" fill="#407BFF"/>
<path opacity="0.2" d="M169.86 179.73L139.33 179.16C138.76 179.09 138.23 178.81 137.84 178.37C137.46 177.93 137.25 177.37 137.26 176.79L136.34 158.36C136.27 157.07 137.11 156.04 138.18 156.06L168.71 156.64C169.29 156.71 169.82 156.99 170.2 157.43C170.58 157.87 170.79 158.43 170.78 159.01L171.71 177.44C171.76 178.72 170.94 179.75 169.86 179.73Z" fill="white"/>
<path d="M168.96 179.64L138.43 179.06C137.85 178.99 137.32 178.71 136.94 178.27C136.56 177.83 136.35 177.27 136.35 176.69L135.43 158.29C135.36 157 136.2 155.97 137.28 155.99L167.8 156.56C168.38 156.63 168.91 156.91 169.29 157.35C169.67 157.79 169.88 158.35 169.88 158.93L170.81 177.34C170.87 178.63 170.04 179.66 168.96 179.64Z" fill="#407BFF"/>
<path opacity="0.6" d="M168.96 179.64L138.43 179.06C137.85 178.99 137.32 178.71 136.94 178.27C136.56 177.83 136.35 177.27 136.35 176.69L135.43 158.29C135.36 157 136.2 155.97 137.28 155.99L167.8 156.56C168.38 156.63 168.91 156.91 169.29 157.35C169.67 157.79 169.88 158.35 169.88 158.93L170.81 177.34C170.87 178.63 170.04 179.66 168.96 179.64Z" fill="white"/>
<path d="M149.08 167.5C149.17 168.38 149.58 169.19 150.23 169.79C150.88 170.39 151.72 170.72 152.61 170.74C153.02 170.75 153.44 170.67 153.82 170.5C154.2 170.34 154.54 170.09 154.82 169.79C155.1 169.49 155.31 169.12 155.44 168.73C155.57 168.34 155.61 167.92 155.57 167.51C155.47 166.64 155.06 165.83 154.41 165.24C153.76 164.65 152.92 164.31 152.04 164.3C151.63 164.29 151.22 164.37 150.84 164.54C150.46 164.7 150.12 164.94 149.84 165.25C149.56 165.55 149.35 165.91 149.22 166.31C149.08 166.67 149.04 167.09 149.08 167.5Z" fill="white"/>
</g>
<defs>
<clipPath id="clip0_21_4869">
<rect width="280.09" height="242.88" fill="white"/>
</clipPath>
</defs>
</svg>
