<svg width="20" height="19" viewBox="0 0 20 19" fill="none" xmlns="http://www.w3.org/2000/svg">
<path d="M10.5 11.75C11.8807 11.75 13 10.6867 13 9.375C13 8.06332 11.8807 7 10.5 7C9.11929 7 8 8.06332 8 9.375C8 10.6867 9.11929 11.75 10.5 11.75Z" stroke="#FF6C0E" stroke-width="1.6" stroke-miterlimit="10" stroke-linecap="round" stroke-linejoin="round"/>
<path d="M1 10.2925V8.70753C1 7.77098 1.76462 6.99653 2.70915 6.99653C4.33733 6.99653 5.003 5.84385 4.18441 4.43002C3.71664 3.61955 3.9955 2.56593 4.81409 2.09766L6.37031 1.20613C7.08096 0.782884 7.9985 1.03503 8.42129 1.74645L8.52024 1.91755C9.32983 3.33138 10.6612 3.33138 11.4798 1.91755L11.5787 1.74645C12.0015 1.03503 12.919 0.782884 13.6297 1.20613L15.1859 2.09766C16.0045 2.56593 16.2834 3.61955 15.8156 4.43002C14.997 5.84385 15.6627 6.99653 17.2909 6.99653C18.2264 6.99653 19 7.76198 19 8.70753V10.2925C19 11.229 18.2354 12.0035 17.2909 12.0035C15.6627 12.0035 14.997 13.1561 15.8156 14.57C16.2834 15.3895 16.0045 16.4341 15.1859 16.9023L13.6297 17.7939C12.919 18.2171 12.0015 17.965 11.5787 17.2536L11.4798 17.0825C10.6702 15.6686 9.33883 15.6686 8.52024 17.0825L8.42129 17.2536C7.9985 17.965 7.08096 18.2171 6.37031 17.7939L4.81409 16.9023C3.9955 16.4341 3.71664 15.3805 4.18441 14.57C5.003 13.1561 4.33733 12.0035 2.70915 12.0035C1.76462 12.0035 1 11.229 1 10.2925Z" stroke="#064DD6" stroke-width="1.5" stroke-miterlimit="10" stroke-linecap="round" stroke-linejoin="round"/>
</svg>
