<svg width="12" height="10" viewBox="0 0 12 10" fill="none" xmlns="http://www.w3.org/2000/svg">
<path d="M4.87166 1.81324C5.29971 0.746118 5.51373 0.212556 5.86145 0.138607C5.95288 0.119162 6.04738 0.119162 6.13881 0.138607C6.48653 0.212556 6.70055 0.746118 7.1286 1.81324C7.37203 2.4201 7.49374 2.72352 7.72148 2.9299C7.78536 2.98779 7.8547 3.03934 7.92853 3.08384C8.19176 3.24249 8.52035 3.27192 9.17754 3.33078C10.2901 3.43041 10.8463 3.48023 11.0162 3.79739C11.0514 3.86308 11.0753 3.9342 11.0869 4.00779C11.1433 4.36315 10.7343 4.73519 9.91646 5.47927L9.68935 5.68589C9.30698 6.03376 9.1158 6.2077 9.00522 6.42477C8.93888 6.55498 8.89441 6.69521 8.87357 6.83985C8.83883 7.08098 8.89481 7.33331 9.00678 7.83796L9.04678 8.01827C9.24758 8.92329 9.34798 9.3758 9.22265 9.59823C9.11007 9.79802 8.90271 9.92593 8.67364 9.93687C8.41863 9.94905 8.0593 9.65625 7.34065 9.07065C6.86718 8.68484 6.63045 8.49194 6.36764 8.41658C6.12747 8.34772 5.87279 8.34772 5.63262 8.41658C5.36982 8.49194 5.13308 8.68484 4.65961 9.07065C3.94096 9.65625 3.58163 9.94905 3.32662 9.93687C3.09755 9.92593 2.89019 9.79802 2.77761 9.59823C2.65228 9.3758 2.75268 8.92329 2.95348 8.01827L2.99348 7.83796C3.10545 7.33331 3.16144 7.08098 3.1267 6.83985C3.10585 6.69521 3.06138 6.55498 2.99504 6.42477C2.88446 6.2077 2.69328 6.03376 2.31092 5.68589L2.0838 5.47927C1.26594 4.73519 0.857013 4.36315 0.913328 4.00779C0.924992 3.9342 0.948911 3.86308 0.984092 3.79739C1.15396 3.48023 1.71021 3.43041 2.82272 3.33078C3.47991 3.27192 3.80851 3.24249 4.07173 3.08384C4.14556 3.03934 4.21491 2.98779 4.27878 2.9299C4.50653 2.72352 4.62824 2.4201 4.87166 1.81324Z" fill="#FF6C0E"/>
</svg>
