<svg width="115" height="142" viewBox="0 0 115 142" fill="none" xmlns="http://www.w3.org/2000/svg">
<circle opacity="0.05" cx="57" cy="71" r="57" fill="#064DD6"/>
<path d="M10.8605 107.375L35.7659 116.645C37.8811 117.433 40.12 117.836 42.377 117.836H68.0439C71.6358 117.836 75.1538 116.815 78.1879 114.892L110.325 94.5283C112.446 92.6456 112.839 89.4816 111.244 87.1373C109.498 84.5723 106.611 84.1265 103.434 85.6288L72.145 99.4054L72.182 94.3291C71.7677 90.1623 68.5594 86.8182 64.4135 86.2317L45.3595 84.0379C40.964 83.416 38.7678 81.9429 34.9359 79.7014C29.7045 76.6412 23.7529 75.0283 17.6922 75.0283H10.8605V107.375Z" fill="#FFDDCE"/>
<path d="M34.2534 111.706C36.4771 112.533 38.8308 112.957 41.2034 112.957H68.1862C71.0589 112.957 73.8858 112.335 76.4786 111.148L95.3463 99.1921C97.0992 98.0813 98.2121 96.1477 98.1551 94.0732C98.1248 92.9731 97.7886 91.8718 97.1297 90.9037C97.1297 90.9037 96.5553 89.9193 95.965 88.9174L72.145 99.4054L72.182 94.3291C71.7676 90.1623 68.5594 86.8182 64.4135 86.2317L45.3595 84.0379C40.964 83.416 38.7678 81.9429 34.9358 79.7014C29.7045 76.6412 23.7529 75.0283 17.6922 75.0283H10.8605V102.999L34.2534 111.706Z" fill="#FFDDCE"/>
<path d="M111.243 87.1373C109.498 84.5723 106.611 84.1266 103.434 85.6288L94.8275 89.4182C95.2443 90.0779 95.5758 90.6045 95.5758 90.6045C97.1709 92.9489 96.778 96.1128 94.6576 97.9956L75.9315 109.861C73.4652 110.99 70.7762 111.583 68.0435 111.583H42.377C40.12 111.583 37.8811 111.18 35.7659 110.392L10.8605 101.122V107.375L35.7659 116.645C37.8811 117.433 40.12 117.836 42.377 117.836H63.3472H68.0442C71.6361 117.836 75.154 116.815 78.1882 114.893L110.326 94.5284C112.446 92.6456 112.839 89.4815 111.243 87.1373Z" fill="#FFCBBE"/>
<path d="M69.8459 89.0996L69.845 89.2221L69.9258 89.1864C69.8995 89.1571 69.8724 89.1288 69.8459 89.0996Z" fill="#F5DBCC"/>
<path d="M72.1448 99.4024H52.6894C51.7393 99.4024 50.9691 98.6324 50.9691 97.6822C50.9691 96.7319 51.7391 95.9619 52.6894 95.9619H72.17L72.1448 99.4024Z" fill="#FFCBBE"/>
<path d="M16.2196 112.336C16.2196 114.143 14.7548 115.608 12.9477 115.608H5.05099C3.24391 115.608 1.77905 114.143 1.77905 112.336V72.2719C1.77905 70.4649 3.24391 69 5.05099 69H12.9477C14.7548 69 16.2196 70.4649 16.2196 72.2719V112.336Z" fill="#407093"/>
<path d="M112.094 12.4268C99.4531 12.4268 86.3528 0.709451 86.2231 0.592065C85.3524 -0.197355 84.0252 -0.197355 83.1547 0.592065C83.0242 0.710364 69.9583 12.4268 57.2838 12.4268C56.0225 12.4268 55 13.4493 55 14.7106V42.0606C55 64.2168 71.479 73.0701 83.8744 77.8023C84.1367 77.9024 84.4127 77.9524 84.6889 77.9524C84.9651 77.9524 85.2411 77.9023 85.5034 77.8023C102.883 71.1672 114.378 60.8173 114.378 42.0606V14.7106C114.378 13.4493 113.355 12.4268 112.094 12.4268Z" fill="url(#paint0_linear_112_23758)"/>
<path d="M84.6887 22.9893C75.8739 22.9893 68.7024 30.1607 68.7024 38.9756C68.7024 47.7905 75.8739 54.9619 84.6887 54.9619C93.5036 54.9619 100.675 47.7905 100.675 38.9756C100.675 30.1607 93.5036 22.9893 84.6887 22.9893ZM90.871 38.3066L84.0197 45.1579C83.5739 45.6038 82.9895 45.8269 82.405 45.8269C81.8205 45.8269 81.236 45.604 80.7902 45.1579L78.5064 42.8741C77.6145 41.9822 77.6145 40.5363 78.5064 39.6444C79.3982 38.7525 80.8442 38.7525 81.7361 39.6444L82.4051 40.3133L87.6416 35.0769C88.5334 34.185 89.9794 34.185 90.8713 35.0769C91.7631 35.9688 91.7631 37.4147 90.871 38.3066Z" fill="url(#paint1_linear_112_23758)"/>
<defs>
<linearGradient id="paint0_linear_112_23758" x1="84.6889" y1="77.9524" x2="84.6889" y2="-3.71706e-05" gradientUnits="userSpaceOnUse">
<stop stop-color="#00B59C"/>
<stop offset="1" stop-color="#9CFFAC"/>
</linearGradient>
<linearGradient id="paint1_linear_112_23758" x1="84.6887" y1="54.9619" x2="84.6887" y2="22.9893" gradientUnits="userSpaceOnUse">
<stop stop-color="#C3FFE8"/>
<stop offset="0.9973" stop-color="#F0FFF4"/>
</linearGradient>
</defs>
</svg>
