<svg width="263" height="246" viewBox="0 0 263 246" fill="none" xmlns="http://www.w3.org/2000/svg">
<g clip-path="url(#clip0_21_5174)">
<path d="M187.59 228.21H181.8V228.38H187.59V228.21Z" fill="#EBEBEB"/>
<path d="M40.85 221.34H36.63V221.51H40.85V221.34Z" fill="#EBEBEB"/>
<path d="M220.41 16.3402C220.41 16.3402 225.21 12.1902 218.98 11.2002C207.66 9.40024 197.42 15.0402 196.12 15.7902C197.45 13.1702 196.51 11.1302 189.68 11.8702C184.3 12.4402 169.87 19.6202 169.87 19.6202H240.41C250.16 10.8602 220.41 16.3402 220.41 16.3402Z" fill="#FFE2CF"/>
<path d="M30.45 48.0303C30.45 48.0303 34.41 44.9503 31.04 44.2203C24.93 42.8903 17.38 47.0603 16.39 47.6203C17.9 45.6803 17.89 44.1903 13.73 44.7203C10.39 45.1303 0 50.4503 0 50.4503H41.24C49.36 43.9603 30.45 48.0303 30.45 48.0303Z" fill="#FFE2CF"/>
<path d="M249.63 41.8798C249.63 41.8798 252.44 39.6998 250.05 39.1698C245.71 38.2198 240.34 41.1698 239.65 41.5898C240.73 40.2098 240.72 39.1498 237.75 39.5298C235.4 39.8298 228 43.6098 228 43.6098H257.3C263.06 38.9898 249.63 41.8798 249.63 41.8798Z" fill="#FFE2CF"/>
<path d="M157.21 74.2998H41.75V215.68H157.21V74.2998Z" fill="#FFF0E7"/>
<path d="M157.2 215.68H225.24V74.2998H157.2V215.68Z" fill="#FFE2CF"/>
<path d="M108.76 111.15H134.46V81.5498H108.76V111.15Z" fill="#F5F5F5"/>
<path d="M108.76 122.1H134.46V116.62H108.76V122.1Z" fill="#F5F5F5"/>
<path d="M157.2 215.68H225.24V154.14H157.2V215.68Z" fill="#FFF0E7"/>
<path d="M157.21 154.15H41.75V215.69H157.21V154.15Z" fill="#FFF8F3"/>
<path d="M85.75 162.14H60.55V212.22H85.7601V162.14H85.75Z" fill="#FFE2CF"/>
<path d="M167.52 30.2695H99.48L157.21 74.2995H225.25L167.52 30.2695Z" fill="#FFF0E7"/>
<path d="M86.82 25.0098H67.88V63.9298H86.82V25.0098Z" fill="#EBEBEB"/>
<path d="M99.48 30.2695L41.75 74.2995H157.21L99.48 30.2695Z" fill="#FFF8F3"/>
<path d="M99.48 38.7402L52.86 74.3002H146.1L99.48 38.7402Z" fill="#FFE2CF"/>
<path d="M125.65 130.02H47.51L29.97 147.56V154.15H143.2V147.56L125.65 130.02Z" fill="#FFE2CF"/>
<path d="M225.25 208.76H29.98V215.69H225.26V208.76H225.25Z" fill="#FFE2CF"/>
<path d="M157.21 184.91H79.41V208.75H157.21V184.91Z" fill="#FFF0E7"/>
<path d="M126.17 154.15H121.58V208.76H126.17V154.15Z" fill="#FFE2CF"/>
<path d="M38.12 154.15H33.53V208.76H38.12V154.15Z" fill="#FFE2CF"/>
<path d="M133.5 245.76C204.82 245.76 262.63 242.38 262.63 238.22C262.63 234.06 204.82 230.68 133.5 230.68C62.18 230.68 4.37 234.06 4.37 238.22C4.37 242.38 62.18 245.76 133.5 245.76Z" fill="#FFF8F3"/>
<path d="M113.35 61.4097L112.34 62.7397C112.01 63.1597 111.67 63.5697 111.33 63.9697C110.66 64.7797 109.96 65.5697 109.25 66.3597C107.82 67.9097 106.35 69.4397 104.73 70.8897C103.08 72.4197 101.33 73.8197 99.4801 75.0897C98.4601 75.7897 97.4001 76.4197 96.3001 76.9797C95.0001 77.6497 93.6301 78.1497 92.2101 78.4897L91.9201 78.5497C91.6701 78.6097 91.4201 78.6397 91.1701 78.6497C89.7901 78.6897 88.4201 78.4097 87.1701 77.8197C86.3201 77.4297 85.5201 76.9297 84.7901 76.3297C83.6901 75.4297 82.6801 74.4197 81.7901 73.3097C80.2901 71.4297 78.9501 69.4197 77.7901 67.3197C76.6901 65.3197 75.7101 63.2797 74.8201 61.2297C73.9201 59.1797 73.1301 57.0797 72.4501 54.9397C72.2401 54.2597 72.2901 53.5297 72.5701 52.8697C72.8501 52.2197 73.3501 51.6797 73.9801 51.3497C74.6101 51.0297 75.3401 50.9297 76.0301 51.0897C76.7201 51.2497 77.3401 51.6397 77.7801 52.1997L77.8401 52.2797C79.0701 53.9397 80.3201 55.6797 81.5701 57.3397C82.8201 58.9997 84.0701 60.6697 85.3701 62.2097C86.5601 63.6997 87.8601 65.0997 89.2401 66.4097C89.7701 66.9197 90.3501 67.3697 90.9801 67.7397C91.2101 67.8597 91.3801 67.9097 91.3701 67.8697C91.3601 67.8397 91.1001 67.6697 90.5001 67.6797L89.4601 67.8397C89.9201 67.6097 90.3701 67.3497 90.7901 67.0597C91.3501 66.6697 91.9801 66.2297 92.6001 65.7297C93.2201 65.2297 93.8601 64.6497 94.4801 64.0497C95.1101 63.4497 95.7501 62.8397 96.3801 62.1997C97.6301 60.8697 98.8901 59.5397 100.12 58.1597L101.95 56.0597L103.71 53.9997L103.88 53.8097C104.91 52.6097 106.36 51.8497 107.94 51.6997C109.52 51.5497 111.09 52.0297 112.32 53.0197C113.55 54.0097 114.35 55.4497 114.54 57.0197C114.73 58.5897 114.3 60.1697 113.34 61.4297L113.35 61.4097Z" fill="#263238"/>
<path d="M77.64 50.9205C77.26 47.9205 71.82 46.5405 71.82 46.5405L68.64 45.1305C68.12 44.9005 67.53 44.8605 66.99 45.0205C66.44 45.1805 65.97 45.5305 65.66 46.0105L64.04 48.4905C63.87 48.7605 63.75 49.0505 63.7 49.3705C63.64 49.6805 63.65 50.0005 63.72 50.3105C63.79 50.6205 63.92 50.9105 64.1 51.1705C64.28 51.4305 64.51 51.6505 64.78 51.8205L67.7 53.6405C68.22 53.9605 68.81 54.1705 69.42 54.2505L71.9 54.5705C72.94 54.7005 74 54.5405 74.95 54.1005C75.9 53.6605 76.71 52.9505 77.27 52.0705L77.42 51.8405C77.59 51.5605 77.67 51.2405 77.64 50.9205Z" fill="#FFB573"/>
<path d="M114.74 169.19C123.4 141.7 130.12 108.26 130.12 108.26L104.05 105.69C104.05 105.69 102.34 148.73 100.72 167.79C99.03 187.6 92.42 233.63 92.42 233.63L100.35 234.3C100.33 234.3 113.94 193.8 114.74 169.19Z" fill="#263238"/>
<path d="M119.95 130.72L123.57 137.19C121.72 144.74 119.57 153.03 117.18 161.17C117.52 148.4 118.85 133.68 119.95 130.72Z" fill="black"/>
<path d="M81.79 235.46C81.79 235.46 93 234.54 94.07 232.95L100.1 233.86L99.11 240.21L95.39 239.65L94.91 238.98L93.88 239.43C90.88 238.97 82.89 237.65 81.12 236.72C81.11 236.47 81.17 236.22 81.29 236C81.4 235.78 81.57 235.6 81.79 235.46Z" fill="#263238"/>
<path d="M140.08 167.36C139.62 139.1 141.41 120.21 139.01 106.29L115.19 105.93C115.19 105.93 121.04 150.76 123.95 169.43C126.86 188.1 130.56 234.2 130.56 234.2H137.93C137.93 234.2 144.34 189.22 140.08 167.36Z" fill="#263238"/>
<path d="M123.34 238.09C123.34 238.09 130.41 235.51 131.33 233.78H137.43L136.97 240.21H131.99L131.45 239.62L130.46 240.21C127.42 240.21 124.63 240.09 122.76 239.4C122.74 239.15 122.78 238.9 122.88 238.67C122.99 238.45 123.15 238.25 123.34 238.09Z" fill="#263238"/>
<path d="M137.95 49.8997C129.52 48.8497 117.48 48.9497 109.41 50.3497C107.39 50.7097 105.54 51.7097 104.12 53.1797C102.7 54.6497 101.77 56.5397 101.48 58.5697C99.78 70.7597 101.24 92.0597 102.33 113.51C120.76 119.82 140.22 113.42 140.22 113.42C140.89 109.09 139.38 94.9197 138.36 87.3497C139.88 79.5397 143.11 70.5897 145.24 60.2097C145.5 59.0497 145.52 57.8497 145.28 56.6797C145.05 55.5097 144.57 54.4097 143.88 53.4297C143.19 52.4597 142.31 51.6397 141.28 51.0297C140.27 50.4197 139.13 50.0397 137.95 49.8997Z" fill="#263238"/>
<path d="M116.22 49.5201C115.21 50.5401 114.54 52.1401 114.18 54.1801C113.31 59.1301 114.29 66.7501 116.9 75.4901C119.4 68.4401 124.77 59.1201 128.07 53.7101C129.64 51.1501 130.73 49.4501 130.83 49.3001C126.02 48.1901 121 48.2701 116.22 49.5201Z" fill="#E0E0E0"/>
<path d="M129.61 33.7998L120.01 41.6698C121.25 44.9698 121.65 48.3998 116.23 49.7298C114.9 51.5198 117.27 53.5698 119.51 54.5098C123.13 54.0598 128.23 52.8598 130.43 49.8498C129.73 47.4498 128.68 38.6798 129.61 33.7998Z" fill="#FFB573"/>
<path d="M117.22 52.5203C117.62 53.6703 118.31 54.7003 119.22 55.5203C120.69 55.5203 122.82 53.8703 122.82 53.8703C122.82 53.8703 122 51.5503 120.82 51.0703C117.86 51.8103 117.22 52.5203 117.22 52.5203Z" fill="#FF6C0E"/>
<path d="M120.56 54.5096C120.33 54.3296 120.07 54.2096 119.79 54.1396C119.51 54.0696 119.22 54.0596 118.94 54.0996C117.02 56.8196 115.8 61.0596 114.62 65.9496C115.19 69.1996 115.95 72.4096 116.91 75.5596C117.98 72.6596 119.22 69.8296 120.64 67.0796C120.09 62.9096 120.06 58.6896 120.56 54.5096Z" fill="#FF6C0E"/>
<path opacity="0.2" d="M125.61 37.0801L120.02 41.6601C120.32 42.4201 120.54 43.2201 120.69 44.0201C122.85 44.1701 125.86 41.9801 126.02 40.0201C126.06 39.0301 125.92 38.0301 125.61 37.0801Z" fill="black"/>
<path d="M116.06 20.0296C111.88 24.1496 114.62 30.7496 114.62 30.7496C114.62 30.7496 121.93 17.6996 116.06 20.0296Z" fill="#263238"/>
<path d="M130.98 28.4395C130.11 34.4295 129.9 38.0195 126.58 40.8495C121.59 45.0995 114.35 41.6395 113.41 35.4695C112.56 29.9095 114.14 20.9995 120.26 19.1395C121.62 18.7295 123.06 18.6695 124.44 18.9595C125.83 19.2595 127.12 19.8995 128.19 20.8295C129.26 21.7595 130.08 22.9495 130.57 24.2795C131.06 25.5995 131.2 27.0395 130.98 28.4395Z" fill="#FFB573"/>
<path d="M131.66 31.5199C127.15 32.4499 125.84 28.9599 125.84 28.9599C126.75 29.1499 127.7 29.1499 128.61 28.9599C128.61 28.9599 125.57 25.8599 127.94 22.8499C126.7 21.5199 121.19 22.0899 118.62 22.8499C115.81 21.7899 114.36 21.2999 112.87 17.9599C114.26 18.1999 115.68 18.0199 116.97 17.4499C119.77 16.1599 115.57 15.2199 115.57 15.2199C118.79 13.9599 122.27 13.5499 125.69 14.0299C132.22 14.9499 133.23 16.8899 132.98 19.0799C136.4 19.0399 136.74 22.8399 136.74 22.8399C136.33 22.5099 135.84 22.2799 135.31 22.1699C135.5 23.3399 136.16 30.1399 131.66 31.5199Z" fill="#263238"/>
<path d="M132.05 19.5297C133.3 18.9597 133.68 15.9697 132.94 14.7197C136.29 18.2797 133.87 19.7297 132.05 19.5297Z" fill="#263238"/>
<path d="M133.02 33.1104C132.74 33.7404 132.34 34.3104 131.84 34.7904C131.34 35.2704 130.75 35.6404 130.1 35.8804C128.36 36.5504 127.32 35.0104 127.66 33.3004C127.97 31.7504 129.24 29.5504 131.05 29.6404C131.45 29.6704 131.83 29.7904 132.16 30.0004C132.5 30.2104 132.77 30.5004 132.97 30.8404C133.16 31.1804 133.27 31.5704 133.28 31.9704C133.29 32.3604 133.2 32.7504 133.02 33.1104Z" fill="#FFB573"/>
<path d="M122.54 28.6597C122.5 29.1497 122.2 29.5297 121.87 29.4997C121.54 29.4697 121.32 29.0497 121.36 28.5497C121.41 28.0597 121.69 27.6797 122.03 27.7097C122.36 27.7497 122.58 28.1597 122.54 28.6597Z" fill="#263238"/>
<path d="M116.64 28.5103C116.6 29.0003 116.31 29.3803 115.97 29.3503C115.64 29.3203 115.42 28.9003 115.46 28.4003C115.5 27.9103 115.79 27.5303 116.13 27.5603C116.47 27.5903 116.68 28.0203 116.64 28.5103Z" fill="#263238"/>
<path d="M117.84 29.1797C117.84 29.1797 116.51 31.9197 115.14 33.1797C115.95 34.0697 117.46 33.8497 117.46 33.8497L117.84 29.1797Z" fill="#ED893E"/>
<path d="M123.97 27.1804C124.02 27.1904 124.07 27.1904 124.12 27.1804C124.16 27.1704 124.19 27.1504 124.22 27.1204C124.25 27.0904 124.27 27.0604 124.28 27.0304C124.29 26.9904 124.3 26.9604 124.3 26.9204C124.3 26.8804 124.29 26.8404 124.28 26.8104C124.11 26.3704 123.85 25.9804 123.5 25.6704C123.15 25.3604 122.74 25.1304 122.28 25.0104C122.21 25.0004 122.13 25.0104 122.06 25.0504C122 25.0904 121.95 25.1604 121.94 25.2304C121.92 25.3104 121.94 25.3904 121.98 25.4504C122.02 25.5104 122.09 25.5604 122.16 25.5804C122.51 25.6804 122.84 25.8604 123.11 26.1104C123.38 26.3604 123.58 26.6704 123.71 27.0204C123.73 27.0704 123.77 27.1104 123.81 27.1404C123.86 27.1604 123.91 27.1804 123.97 27.1804Z" fill="#263238"/>
<path d="M113.9 26.6298C113.95 26.6498 113.99 26.6498 114.04 26.6398C114.09 26.6298 114.13 26.6098 114.17 26.5898C114.45 26.3598 114.79 26.2098 115.15 26.1398C115.51 26.0698 115.88 26.0798 116.22 26.1898C116.26 26.1998 116.29 26.2098 116.33 26.2098C116.37 26.2098 116.41 26.1998 116.44 26.1798C116.47 26.1598 116.51 26.1398 116.53 26.1098C116.56 26.0798 116.58 26.0498 116.59 26.0098C116.62 25.9398 116.61 25.8598 116.58 25.7898C116.55 25.7198 116.49 25.6698 116.42 25.6398C115.98 25.5098 115.51 25.4798 115.06 25.5598C114.61 25.6398 114.18 25.8398 113.82 26.1198C113.78 26.1498 113.75 26.1898 113.73 26.2398C113.71 26.2898 113.7 26.3398 113.71 26.3898C113.72 26.4398 113.74 26.4898 113.77 26.5298C113.81 26.5798 113.85 26.6098 113.9 26.6298Z" fill="#263238"/>
<path d="M130.84 49.3203C130.74 49.4703 129.65 51.1603 128.08 53.7303C126.51 55.1803 124.58 56.2003 122.48 56.6703C122.79 55.6403 121.86 52.1403 120.84 51.0603C123.26 51.2003 126.59 50.7903 130.84 49.3203Z" fill="#FAFAFA"/>
<path d="M120.85 51.0798C119.74 51.5698 118.75 52.2698 117.92 53.1498C117.09 54.0298 116.45 55.0698 116.04 56.2098C115.61 56.0198 115.23 55.7498 114.92 55.3998C114.61 55.0598 114.37 54.6498 114.22 54.2098C114.58 52.1498 115.25 50.5498 116.27 49.5498C116.79 50.2498 118.31 50.9198 120.85 51.0798Z" fill="#FAFAFA"/>
<path d="M145.26 55.7801C145.75 56.8501 146.17 57.7801 146.59 58.8201C147.02 59.8701 147.39 60.8201 147.78 61.8601C148.52 63.9001 149.23 65.9601 149.84 68.0901C150.49 70.2601 151.01 72.4601 151.43 74.6801C151.64 75.8301 151.82 77.0101 151.94 78.2601C152.07 79.6301 152.08 81.0101 151.99 82.3801C151.7 85.1401 150.84 87.8201 149.47 90.2401C148.33 92.3201 146.99 94.2801 145.47 96.1001C144.04 97.8301 142.51 99.4601 140.88 101C139.27 102.53 137.55 103.94 135.75 105.24C135.17 105.65 134.46 105.85 133.75 105.8C133.04 105.75 132.37 105.44 131.86 104.94C131.35 104.44 131.03 103.78 130.96 103.07C130.89 102.36 131.07 101.65 131.47 101.06L131.57 100.92L133.24 98.4601C133.81 97.6301 134.35 96.7901 134.88 95.9501C135.94 94.2801 136.97 92.6201 137.86 90.9201C138.74 89.3301 139.5 87.6801 140.13 85.9701C140.41 85.2201 140.63 84.4601 140.8 83.6801C140.94 83.0801 140.99 82.4701 140.97 81.8601C140.92 81.1501 140.82 80.4401 140.67 79.7501C140.51 78.9401 140.32 78.0701 140.08 77.1901C139.59 75.4201 139 73.5801 138.36 71.7401C137.72 69.8901 137.03 68.0401 136.32 66.1801L134.16 60.6601L134.11 60.5301C133.54 59.0601 133.57 57.4201 134.18 55.9701C134.79 54.5201 135.95 53.3601 137.4 52.7401C138.85 52.1201 140.49 52.1001 141.96 52.6601C143.43 53.2301 144.63 54.3501 145.29 55.7801H145.26Z" fill="#263238"/>
<path d="M109.56 87.1697C106.88 89.2497 105.08 92.2497 104.51 95.5897C103.94 98.9297 104.63 102.36 106.46 105.21C108.29 108.06 111.11 110.13 114.39 111.01C117.66 111.89 121.15 111.51 124.15 109.95L125.81 112.08L125.5 113.41L129.04 117.96L130.97 118L130.44 120.24L137.38 129.16L141.11 129.23L142.36 130.85L141.74 133.51L146.34 139.42L150.24 139.49L150.91 135.3L128.47 106.46C130.57 103.87 131.65 100.6 131.49 97.2697C131.33 93.9397 129.96 90.7797 127.62 88.3997C125.28 86.0197 122.15 84.5797 118.83 84.3597C115.5 84.1397 112.21 85.1497 109.58 87.1997L109.56 87.1697ZM115.3 94.5497C114.76 94.9697 114.11 95.2197 113.43 95.2697C112.75 95.3197 112.07 95.1697 111.47 94.8297C110.87 94.4897 110.39 93.9897 110.09 93.3797C109.78 92.7697 109.66 92.0797 109.75 91.3997C109.83 90.7197 110.12 90.0797 110.56 89.5697C111.01 89.0497 111.6 88.6797 112.26 88.4997C112.92 88.3197 113.62 88.3397 114.27 88.5497C114.92 88.7697 115.49 89.1697 115.91 89.7097C116.47 90.4297 116.73 91.3497 116.61 92.2597C116.49 93.1497 116.02 93.9797 115.3 94.5497Z" fill="#FF6C0E"/>
<path d="M136.58 103.94C136.49 103.62 136.29 103.34 136.01 103.15L133.66 101.53C133.43 101.37 133.17 101.28 132.9 101.27C132.62 101.26 132.35 101.32 132.11 101.46L130 102.67C127.95 103.83 126.17 105.42 124.79 107.33L124.33 108C124.14 108.26 124.01 108.56 123.94 108.87C123.87 109.18 123.86 109.5 123.92 109.82C123.97 110.14 124.09 110.44 124.27 110.7C124.44 110.97 124.67 111.2 124.93 111.38L127.37 113.06C127.84 113.38 128.41 113.53 128.98 113.47C129.55 113.41 130.07 113.15 130.47 112.74L132.85 110.2C132.83 110.19 137.36 106.86 136.58 103.94Z" fill="#FFB573"/>
<path d="M132.24 100.2C131.2 100.64 130.23 101.24 129.36 101.97C129.67 103.84 134.88 106.96 136.64 107C137.35 106.33 138.29 103.6 138.29 103.6C136.32 102.74 133.67 100.87 132.24 100.2Z" fill="#E0E0E0"/>
<path d="M78.89 53.5798C78.91 52.4498 78.77 51.3298 78.45 50.2498C76.62 49.7598 71.64 53.2498 70.89 54.8498C71.22 55.7798 73.31 57.7398 73.31 57.7398C74.89 56.2398 77.69 54.5798 78.89 53.5798Z" fill="#E0E0E0"/>
<path d="M130.13 234.41L138.31 234.64L139.16 229.99L129.59 230.56L130.13 234.41Z" fill="#FF6C0E"/>
<path d="M92.02 233.57L100.76 234.92L102.24 231.06L92.55 228.87L92.02 233.57Z" fill="#FF6C0E"/>
<path d="M119.73 35.5997C119.41 35.6097 119.1 35.5997 118.78 35.5497C118.76 35.5497 118.74 35.5397 118.72 35.5297C118.7 35.5197 118.69 35.4997 118.67 35.4897C118.66 35.4697 118.65 35.4497 118.65 35.4297C118.65 35.4097 118.65 35.3897 118.65 35.3697C118.66 35.3297 118.69 35.2897 118.72 35.2597C118.75 35.2297 118.8 35.2197 118.85 35.2197C119.56 35.3197 120.28 35.2697 120.96 35.0497C121.64 34.8397 122.26 34.4697 122.78 33.9797C122.81 33.9497 122.85 33.9297 122.9 33.9297C122.94 33.9297 122.99 33.9497 123.02 33.9797C123.05 34.0097 123.07 34.0497 123.07 34.0997C123.07 34.1397 123.05 34.1897 123.02 34.2197C122.13 35.0697 120.96 35.5597 119.73 35.5997Z" fill="#263238"/>
<path d="M96.81 11.2504L76.66 9.64039L59.55 1.15039L40.8 6.75039L38.1 40.4204L94.11 44.9204L96.81 11.2504Z" fill="#407BFF"/>
<path d="M32.2901 43.6904L23.4301 42.9804L24.5401 29.1504L25.6001 29.2404L24.5801 42.0004L32.3901 42.6304L32.2901 43.6904Z" fill="#FF6C0E"/>
<path d="M36.48 42.6904L36.39 43.7604L43.32 44.3104L43.41 43.2404L36.48 42.6904Z" fill="#FF6C0E"/>
<path d="M41.1499 28.2302L28.4299 27.2002L27.4399 39.5602L40.1699 40.5802L41.1499 28.2302Z" fill="#407BFF"/>
<path opacity="0.2" d="M40.17 40.5904L51.33 41.4904L52.68 24.6504L41.16 28.2204L40.17 40.5904Z" fill="black"/>
<path opacity="0.2" d="M96.81 11.2704L76.66 9.65039L73.95 43.3104L94.1 44.9304L96.81 11.2704Z" fill="black"/>
<path d="M79.7 2.76039L59.55 1.15039L76.6601 9.64039L96.81 11.2604L79.7 2.76039Z" fill="#263238"/>
<path d="M96.81 12.3195H96.72L76.58 10.6995C76.45 10.6895 76.31 10.6495 76.19 10.5895L59.08 2.09953C58.86 1.98953 58.68 1.80953 58.58 1.57953C58.48 1.34953 58.46 1.09953 58.53 0.859533C58.6 0.619533 58.75 0.419533 58.95 0.269533C59.15 0.129533 59.4 0.0595332 59.64 0.0795332L79.79 1.69953C79.93 1.70953 80.06 1.74953 80.18 1.80953L97.28 10.2895C97.48 10.3995 97.64 10.5795 97.74 10.7895C97.83 10.9995 97.86 11.2395 97.8 11.4695C97.75 11.6995 97.62 11.8995 97.44 12.0495C97.26 12.1995 97.04 12.2795 96.8 12.2895V12.3195H96.81ZM76.95 8.58953L91.39 9.75953L79.4 3.80953L64.96 2.63953L76.95 8.58953Z" fill="#263238"/>
<path d="M39.9599 23.6299L52.6799 24.6499L41.1599 28.2199L28.4399 27.1999L39.9599 23.6299Z" fill="#263238"/>
<path d="M41.16 28.8998H41.11L28.38 27.8698C28.22 27.8598 28.08 27.7898 27.96 27.6798C27.85 27.5698 27.78 27.4198 27.76 27.2698C27.74 27.1098 27.79 26.9498 27.88 26.8198C27.97 26.6898 28.11 26.5998 28.27 26.5598L39.79 22.9798C39.87 22.9598 39.96 22.9598 40.04 22.9798L52.76 24.0098C52.92 24.0198 53.06 24.0898 53.18 24.1898C53.29 24.2998 53.36 24.4398 53.38 24.5998C53.4 24.7598 53.36 24.9098 53.28 25.0498C53.19 25.1798 53.06 25.2798 52.91 25.3198L41.39 28.8898C41.32 28.9098 41.24 28.9098 41.16 28.8998ZM31.97 26.8098L41.09 27.5398L49.16 25.0398L40.04 24.3098L31.97 26.8098Z" fill="#263238"/>
<path d="M41.31 7.85971C41.06 7.85971 40.81 7.75971 40.62 7.59971C40.43 7.42971 40.3 7.20971 40.27 6.95971C40.23 6.70971 40.28 6.45971 40.42 6.23971C40.55 6.01971 40.76 5.85971 41 5.77971L59.25 0.129708C59.39 0.0597075 59.54 0.0097075 59.7 0.0097075C59.86 -0.000292496 60.01 0.0297075 60.16 0.0897075C60.31 0.149708 60.44 0.239707 60.54 0.359708C60.65 0.479708 60.73 0.609707 60.77 0.759708C60.82 0.909708 60.83 1.06971 60.81 1.21971C60.79 1.37971 60.73 1.51971 60.65 1.65971C60.56 1.78971 60.45 1.89971 60.32 1.98971C60.19 2.06971 60.04 2.11971 59.88 2.13971L41.62 7.77971C41.52 7.81971 41.42 7.84971 41.31 7.85971Z" fill="#263238"/>
<path opacity="0.6" d="M66.5 29.5995L59.23 29.0195L58.17 42.2495L65.44 42.8295L66.5 29.5995Z" fill="white"/>
<path d="M67.1801 12.9999L50.1301 11.6299L49.3101 21.8799L66.3601 23.2499L67.1801 12.9999Z" fill="white"/>
<path d="M57.89 12.9404L50.71 12.3604L49.99 21.2604L57.17 21.8404L57.89 12.9404Z" fill="#407BFF"/>
<path d="M66.49 13.6298L59.31 13.0498L58.59 21.9498L65.77 22.5298L66.49 13.6298Z" fill="#407BFF"/>
<path d="M91.4101 14.9497L81.8801 14.1797L81.0601 24.4297L90.5901 25.1997L91.4101 14.9497Z" fill="white"/>
<path d="M86.19 15.2204L82.18 14.9004L81.47 23.8004L85.48 24.1204L86.19 15.2204Z" fill="#407BFF"/>
<path d="M91 15.6003L86.99 15.2803L86.27 24.1803L90.28 24.5003L91 15.6003Z" fill="#407BFF"/>
<path d="M90.09 31.3296L80.56 30.5596L79.74 40.8096L89.27 41.5796L90.09 31.3296Z" fill="white"/>
<path d="M84.86 31.6003L80.85 31.2803L80.13 40.1803L84.14 40.5003L84.86 31.6003Z" fill="#407BFF"/>
<path d="M90.09 32.1804L86.07 31.8604L85.36 40.7803L89.38 41.1003L90.09 32.1804Z" fill="#407BFF"/>
</g>
<defs>
<clipPath id="clip0_21_5174">
<rect width="262.63" height="245.76" fill="white"/>
</clipPath>
</defs>
</svg>
