<svg width="25" height="24" viewBox="0 0 25 24" fill="none" xmlns="http://www.w3.org/2000/svg">
<path d="M12.5 15C16.2279 15 19.25 12.0899 19.25 8.5C19.25 4.91015 16.2279 2 12.5 2C8.77208 2 5.75 4.91015 5.75 8.5C5.75 12.0899 8.77208 15 12.5 15Z" fill="#064DD6"/>
<path d="M16.29 15.6091C16.62 15.4391 17 15.6891 17 16.0591V20.9091C17 21.8091 16.37 22.2491 15.59 21.8791L12.91 20.6091C12.68 20.5091 12.32 20.5091 12.09 20.6091L9.41 21.8791C8.63 22.2391 8 21.7991 8 20.8991L8.02 16.0591C8.02 15.6891 8.41 15.4491 8.73 15.6091C9.86 16.1791 11.14 16.4991 12.5 16.4991C13.86 16.4991 15.15 16.1791 16.29 15.6091Z" fill="#064DD6"/>
</svg>
