<svg width="24" height="24" viewBox="0 0 24 24" fill="none" xmlns="http://www.w3.org/2000/svg">
<path d="M9.74308 5.62648C10.5992 3.49224 11.0272 2.42511 11.7227 2.27721C11.9055 2.23832 12.0945 2.23832 12.2774 2.27721C12.9728 2.42511 13.4009 3.49224 14.257 5.62648C14.7438 6.84019 14.9872 7.44705 15.4427 7.8598C15.5705 7.97557 15.7092 8.07868 15.8568 8.16768C16.3833 8.48498 17.0405 8.54384 18.3548 8.66155C20.5799 8.86082 21.6924 8.96046 22.0321 9.59478C22.1025 9.72615 22.1503 9.8684 22.1736 10.0156C22.2863 10.7263 21.4684 11.4704 19.8327 12.9585L19.3784 13.3718C18.6137 14.0675 18.2314 14.4154 18.0102 14.8495C17.8775 15.11 17.7886 15.3904 17.7469 15.6797C17.6774 16.162 17.7894 16.6666 18.0133 17.6759L18.0933 18.0365C18.4949 19.8466 18.6957 20.7516 18.4451 21.1965C18.2199 21.596 17.8052 21.8519 17.347 21.8737C16.837 21.8981 16.1184 21.3125 14.6811 20.1413C13.7341 19.3697 13.2606 18.9839 12.735 18.8332C12.2547 18.6954 11.7453 18.6954 11.265 18.8332C10.7394 18.9839 10.2659 19.3697 9.31897 20.1413C7.88167 21.3125 7.16302 21.8981 6.65299 21.8737C6.19486 21.8519 5.78013 21.596 5.55498 21.1965C5.30432 20.7516 5.50512 19.8466 5.90671 18.0365L5.98672 17.6759C6.21066 16.6666 6.32263 16.162 6.25315 15.6797C6.21147 15.3904 6.12251 15.11 5.98984 14.8495C5.76868 14.4154 5.38632 14.0675 4.62159 13.3718L4.16736 12.9585C2.53164 11.4704 1.71378 10.7263 1.82641 10.0156C1.84974 9.86839 1.89758 9.72615 1.96794 9.59478C2.30767 8.96046 3.42018 8.86082 5.6452 8.66155C6.95958 8.54384 7.61677 8.48498 8.14322 8.16768C8.29088 8.07868 8.42956 7.97557 8.55732 7.8598C9.01281 7.44705 9.25623 6.84019 9.74308 5.62648Z" fill="#064DD6" stroke="#064DD6" stroke-width="2"/>
</svg>
