<svg width="375"
    height="137"
    viewBox="0 0 375 137"
    fill="none"
    xmlns="http://www.w3.org/2000/svg">
    <g opacity="0.5"
        clip-path="url(#clip0_3854_45585)">
        <path d="M254.181 40.1863L-180.029 325.524C-231.831 359.566 -227.404 436.761 -172.063 464.473L291.829 696.805C347.17 724.518 411.925 681.97 408.386 620.215L378.693 102.55C375.154 40.7954 305.983 6.14383 254.181 40.1863Z"
            stroke="url(#paint0_linear_3854_45585)"
            stroke-width="0.5"/>
        <path d="M249.161 50.8342L-167.94 329.104C-217.705 362.298 -212.903 436.763 -159.312 463.142L289.931 684.226C343.522 710.605 405.726 669.108 401.889 609.54L369.746 110.186C365.915 50.6038 298.925 17.6406 249.161 50.8342Z"
            stroke="url(#paint1_linear_3854_45585)"
            stroke-width="0.5"/>
        <path d="M244.139 61.483L-155.868 332.68C-203.591 365.035 -198.429 436.766 -146.582 461.796L288.002 671.636C339.848 696.667 399.505 656.231 395.365 598.84L360.774 117.798C356.664 60.418 291.851 29.1328 244.139 61.483Z"
            stroke="url(#paint2_linear_3854_45585)"
            stroke-width="0.5"/>
        <path d="M239.118 72.1324L-143.792 336.266C-189.472 367.783 -183.95 436.78 -133.853 460.477L286.097 659.074C336.194 682.771 393.294 643.375 388.872 588.177L351.831 125.446C347.414 70.2328 284.787 40.6208 239.118 72.1324Z"
            stroke="url(#paint3_linear_3854_45585)"
            stroke-width="0.5"/>
        <path d="M234.081 82.7738L-131.709 339.835C-175.352 370.503 -169.466 436.776 -121.113 459.124L284.168 646.483C332.521 668.831 387.063 630.501 382.353 577.485L342.878 133.071C338.163 80.0451 277.724 52.1063 234.081 82.7738Z"
            stroke="url(#paint4_linear_3854_45585)"
            stroke-width="0.5"/>
        <path d="M229.06 93.4207L-119.632 343.419C-161.233 373.248 -154.976 436.782 -108.373 457.797L282.259 633.907C328.862 654.922 380.863 617.638 375.85 566.799L333.91 140.691C328.912 89.8573 270.66 63.5917 229.06 93.4207Z"
            stroke="url(#paint5_linear_3854_45585)"
            stroke-width="0.5"/>
        <path d="M224.038 104.069L-107.556 347.005C-147.119 375.985 -140.497 436.795 -95.6441 456.476L280.333 621.353C325.192 641.019 374.631 604.79 369.335 556.144L324.946 148.347C319.662 99.6706 263.601 75.0885 224.038 104.069Z"
            stroke="url(#paint6_linear_3854_45585)"
            stroke-width="0.5"/>
        <path d="M219.017 114.717L-95.4687 350.586C-132.989 378.727 -126.003 436.813 -82.899 455.135L278.424 608.753C321.529 627.075 368.432 591.904 362.838 545.445L316 155.959C310.421 109.48 256.537 86.5756 219.017 114.717Z"
            stroke="url(#paint7_linear_3854_45585)"
            stroke-width="0.5"/>
        <path d="M213.995 125.367L-83.3969 354.162C-118.88 381.455 -111.519 436.812 -70.1645 453.801L276.504 596.185C317.859 613.174 362.21 579.053 356.328 534.776L307.047 163.586C301.17 119.295 249.473 98.0637 213.995 125.367Z"
            stroke="url(#paint8_linear_3854_45585)"
            stroke-width="0.5"/>
        <path d="M208.969 136.004L-71.3249 357.737C-104.766 384.191 -97.0449 436.814 -57.4344 452.454L274.585 583.59C314.196 599.23 355.99 566.175 349.815 524.071L298.085 171.192C291.92 129.108 242.41 109.55 208.969 136.004Z"
            stroke="url(#paint9_linear_3854_45585)"
            stroke-width="0.5"/>
        <path d="M203.947 146.65L-59.2378 361.315C-90.6363 386.93 -82.5556 436.819 -44.6949 451.126L272.67 571.028C310.531 585.335 349.779 553.316 343.311 513.409L289.131 178.841C282.669 138.919 235.346 121.034 203.947 146.65Z"
            stroke="url(#paint10_linear_3854_45585)"
            stroke-width="0.5"/>
        <path d="M198.926 157.299L-47.1608 364.901C-76.5219 389.668 -68.0765 436.833 -31.9599 449.791L270.756 558.445C306.873 571.403 343.564 540.449 336.808 502.725L280.179 186.469C273.419 148.733 228.277 132.537 198.926 157.299Z"
            stroke="url(#paint11_linear_3854_45585)"
            stroke-width="0.5"/>
        <path d="M193.904 167.946L-35.0738 368.48C-62.3927 392.408 -53.577 436.834 -19.2102 448.459L268.847 545.869C303.214 557.494 337.363 527.586 330.305 492.038L271.226 194.093C264.168 158.545 221.213 144.022 193.904 167.946Z"
            stroke="url(#paint12_linear_3854_45585)"
            stroke-width="0.5"/>
    </g>
    <defs>
        <linearGradient id="paint0_linear_3854_45585"
            x1="80.5057"
            y1="684.625"
            x2="138.614"
            y2="12.4347"
            gradientUnits="userSpaceOnUse">
            <stop stop-color="white"/>
            <stop offset="0.3267"
                stop-color="#E2E6F2"/>
            <stop offset="1"
                stop-color="#9CABD2"/>
        </linearGradient>
        <linearGradient id="paint1_linear_3854_45585"
            x1="83.5129"
            y1="687.326"
            x2="141.752"
            y2="13.6227"
            gradientUnits="userSpaceOnUse">
            <stop stop-color="white"/>
            <stop offset="0.3267"
                stop-color="#E2E6F2"/>
            <stop offset="1"
                stop-color="#9CABD2"/>
        </linearGradient>
        <linearGradient id="paint2_linear_3854_45585"
            x1="86.5379"
            y1="689.813"
            x2="144.539"
            y2="18.8638"
            gradientUnits="userSpaceOnUse">
            <stop stop-color="white"/>
            <stop offset="0.3267"
                stop-color="#E2E6F2"/>
            <stop offset="1"
                stop-color="#9CABD2"/>
        </linearGradient>
        <linearGradient id="paint3_linear_3854_45585"
            x1="89.5752"
            y1="692.164"
            x2="147.321"
            y2="24.1651"
            gradientUnits="userSpaceOnUse">
            <stop stop-color="white"/>
            <stop offset="0.3267"
                stop-color="#E2E6F2"/>
            <stop offset="1"
                stop-color="#9CABD2"/>
        </linearGradient>
        <linearGradient id="paint4_linear_3854_45585"
            x1="92.6256"
            y1="694.361"
            x2="150.098"
            y2="29.5301"
            gradientUnits="userSpaceOnUse">
            <stop stop-color="white"/>
            <stop offset="0.3267"
                stop-color="#E2E6F2"/>
            <stop offset="1"
                stop-color="#9CABD2"/>
        </linearGradient>
        <linearGradient id="paint5_linear_3854_45585"
            x1="95.6913"
            y1="696.388"
            x2="152.869"
            y2="34.9685"
            gradientUnits="userSpaceOnUse">
            <stop stop-color="white"/>
            <stop offset="0.3267"
                stop-color="#E2E6F2"/>
            <stop offset="1"
                stop-color="#9CABD2"/>
        </linearGradient>
        <linearGradient id="paint6_linear_3854_45585"
            x1="98.7733"
            y1="698.227"
            x2="155.632"
            y2="40.4904"
            gradientUnits="userSpaceOnUse">
            <stop stop-color="white"/>
            <stop offset="0.3267"
                stop-color="#E2E6F2"/>
            <stop offset="1"
                stop-color="#9CABD2"/>
        </linearGradient>
        <linearGradient id="paint7_linear_3854_45585"
            x1="101.874"
            y1="699.854"
            x2="158.388"
            y2="46.105"
            gradientUnits="userSpaceOnUse">
            <stop stop-color="white"/>
            <stop offset="0.3267"
                stop-color="#E2E6F2"/>
            <stop offset="1"
                stop-color="#9CABD2"/>
        </linearGradient>
        <linearGradient id="paint8_linear_3854_45585"
            x1="104.996"
            y1="701.241"
            x2="161.136"
            y2="51.8247"
            gradientUnits="userSpaceOnUse">
            <stop stop-color="white"/>
            <stop offset="0.3267"
                stop-color="#E2E6F2"/>
            <stop offset="1"
                stop-color="#9CABD2"/>
        </linearGradient>
        <linearGradient id="paint9_linear_3854_45585"
            x1="108.143"
            y1="702.355"
            x2="163.874"
            y2="57.6607"
            gradientUnits="userSpaceOnUse">
            <stop stop-color="white"/>
            <stop offset="0.3267"
                stop-color="#E2E6F2"/>
            <stop offset="1"
                stop-color="#9CABD2"/>
        </linearGradient>
        <linearGradient id="paint10_linear_3854_45585"
            x1="111.316"
            y1="703.157"
            x2="166.601"
            y2="63.628"
            gradientUnits="userSpaceOnUse">
            <stop stop-color="white"/>
            <stop offset="0.3267"
                stop-color="#E2E6F2"/>
            <stop offset="1"
                stop-color="#9CABD2"/>
        </linearGradient>
        <linearGradient id="paint11_linear_3854_45585"
            x1="114.522"
            y1="703.606"
            x2="169.316"
            y2="69.7523"
            gradientUnits="userSpaceOnUse">
            <stop stop-color="white"/>
            <stop offset="0.3267"
                stop-color="#E2E6F2"/>
            <stop offset="1"
                stop-color="#9CABD2"/>
        </linearGradient>
        <linearGradient id="paint12_linear_3854_45585"
            x1="117.762"
            y1="703.643"
            x2="172.016"
            y2="76.0503"
            gradientUnits="userSpaceOnUse">
            <stop stop-color="white"/>
            <stop offset="0.3267"
                stop-color="#E2E6F2"/>
            <stop offset="1"
                stop-color="#9CABD2"/>
        </linearGradient>
        <clipPath id="clip0_3854_45585">
            <rect width="675.932"
                height="643.002"
                fill="white"
                transform="translate(-275 285.66) rotate(-25)"/>
        </clipPath>
    </defs>
</svg>
